<svg width="120" height="377" viewBox="0 0 120 377" fill="none" xmlns="http://www.w3.org/2000/svg">
<path d="M165.757 229.451C176.139 248.571 179.282 272.182 166.206 285.327L174.7 283.67C186.862 281.183 189.594 259.694 180.778 235.661C171.97 211.636 154.955 194.173 142.793 196.66L133.783 198.495C146.407 204.584 159.123 216.572 165.757 229.451Z" fill="url(#paint0_linear_506_16071)"/>
<path d="M133.064 198.755C145.175 196.281 162.117 213.716 170.909 237.693C179.702 261.67 177.014 283.122 164.91 285.59C152.799 288.064 135.858 270.629 127.065 246.652C118.273 222.675 120.96 201.223 133.064 198.755Z" fill="url(#paint1_linear_506_16071)"/>
<path d="M136.96 209.295C146.153 207.412 159.012 220.608 165.67 238.764C172.327 256.92 170.274 273.158 161.081 275.041C151.889 276.925 139.029 263.729 132.372 245.573C125.714 227.416 127.768 211.179 136.96 209.295Z" fill="#800000"/>
<path d="M164.95 238.92C171.31 256.27 169.341 271.833 160.556 273.629C151.771 275.426 139.446 262.775 133.085 245.425C126.725 228.074 128.695 212.511 137.48 210.715C146.265 208.919 158.59 221.569 164.95 238.92ZM133.748 245.288C139.841 261.913 151.654 274.03 160.075 272.314C168.496 270.598 170.381 255.666 164.287 239.041C158.194 222.416 146.381 210.3 137.96 212.016C129.547 213.74 127.655 228.664 133.748 245.288Z" fill="url(#paint2_linear_506_16071)"/>
<path d="M138.569 213.672C146.546 212.044 157.684 223.478 163.457 239.226C169.229 254.959 167.449 269.049 159.472 270.677C151.495 272.305 140.357 260.872 134.584 245.124C128.811 229.376 130.592 215.3 138.569 213.672Z" fill="#B00000"/>
<path d="M140.005 217.379C146.956 215.952 156.654 225.883 161.664 239.543C166.674 253.202 165.105 265.438 158.155 266.849C151.204 268.276 141.506 258.344 136.496 244.685C131.485 231.026 133.054 218.805 140.005 217.379Z" fill="#800000"/>
<path d="M140.088 217.813C146.908 216.422 156.428 226.201 161.362 239.653C166.296 253.105 164.768 265.141 157.963 266.535C151.143 267.926 141.623 258.147 136.689 244.695C131.748 231.234 133.269 219.204 140.088 217.813Z" fill="url(#paint3_linear_506_16071)"/>
<path d="M128.262 220.786L126.295 211.699L123.437 208.691C122.301 212.155 121.753 216.345 121.819 221.044L124.573 223.928L128.262 220.786Z" fill="url(#paint4_linear_506_16071)"/>
<path d="M163.838 242.178C164.437 244.102 164.927 246.028 165.292 247.894L164.455 247.604C164.106 245.83 163.64 244.005 163.078 242.184L163.838 242.178ZM161.741 236.475L161.088 236.769C160.337 234.988 159.485 233.246 158.576 231.583L159.1 231.006C160.054 232.751 160.937 234.587 161.741 236.475ZM166.027 253.356C166.15 255.11 166.154 256.782 166.025 258.325L165.15 257.493C165.266 256.021 165.27 254.433 165.157 252.778L166.027 253.356ZM155.992 226.02L155.633 226.851C154.602 225.381 153.515 224.019 152.415 222.804L152.596 221.746C153.762 223.041 154.902 224.479 155.992 226.02ZM165.288 262.599C164.914 263.88 164.435 265.024 163.837 265.981L163.073 264.754C163.635 263.842 164.101 262.77 164.454 261.552L165.288 262.599ZM149.046 218.371L149.043 219.596C147.912 218.679 146.776 217.932 145.672 217.369L145.483 216.019C146.653 216.617 147.848 217.404 149.046 218.371ZM161.734 268.314C160.94 268.908 160.048 269.298 159.073 269.502L158.555 268.098C159.479 267.907 160.32 267.529 161.07 266.972L161.734 268.314ZM142.083 214.826L142.441 216.23C141.416 216.039 140.43 216.04 139.506 216.231L139.455 216.244L138.944 214.834L138.995 214.821C139.963 214.623 141 214.624 142.083 214.826ZM155.627 268.108L155.992 269.52C154.901 269.324 153.763 268.925 152.593 268.328L152.404 266.978C153.508 267.541 154.594 267.922 155.627 268.108ZM136.939 217.385C136.181 217.949 135.514 218.693 134.951 219.605L134.188 218.378C134.779 217.412 135.482 216.622 136.276 216.028L136.939 217.385ZM149.032 264.766L149.03 265.99C147.839 265.032 146.646 263.896 145.48 262.616L145.66 261.558C146.767 262.782 147.908 263.857 149.032 264.766ZM133.585 222.826C133.232 224.044 133.005 225.413 132.889 226.885L132.015 226.053C132.136 224.501 132.392 223.063 132.751 221.778L133.585 222.826ZM142.436 257.516L142.076 258.348C140.979 256.798 139.938 255.126 138.976 253.371L139.5 252.793C140.417 254.465 141.398 256.052 142.436 257.516ZM132.89 231.608C133.011 233.272 133.25 235.018 133.599 236.791L132.762 236.501C132.389 234.627 132.134 232.789 132.012 231.036L132.89 231.608ZM136.98 247.628L136.328 247.922C135.919 246.969 135.531 245.983 135.173 245.003L135.165 244.994C134.83 244.07 134.508 243.133 134.224 242.211L134.983 242.204C135.252 243.079 135.558 243.968 135.878 244.845C136.229 245.787 136.594 246.717 136.98 247.628Z" fill="url(#paint5_linear_506_16071)"/>
<g style="mix-blend-mode:plus-lighter">
<path d="M127.064 246.65C135.857 270.628 152.805 288.056 164.909 285.588C167.253 285.106 169.242 283.91 170.864 282.119L124.887 205.424C120.378 214.043 120.857 229.715 127.064 246.65Z" fill="url(#paint6_linear_506_16071)"/>
</g>
<path d="M142.761 59.5349L133.325 61.7443C125.483 63.5905 127.558 86.5788 137.96 113.107C148.363 139.636 163.146 159.646 170.988 157.8L180.424 155.575C180.424 155.575 164.885 151.251 149.581 109.628C135.132 70.3632 142.761 59.5349 142.761 59.5349Z" fill="url(#paint7_linear_506_16071)"/>
<path d="M180.402 155.506C172.596 157.337 157.864 137.359 147.477 110.878C137.09 84.3967 135.008 61.4443 142.807 59.6048C150.605 57.7653 165.345 77.7519 175.732 104.233C186.119 130.729 188.208 153.675 180.402 155.506Z" fill="url(#paint8_linear_506_16071)"/>
<path d="M150.953 214.094C121.944 200.924 94.5713 173.844 92.2379 142.229L86.5635 153.853C78.5606 170.657 98.6251 201.532 131.376 222.822C164.134 244.105 197.171 247.735 205.181 230.925L211.113 218.48C193.781 224.709 170.177 223.37 150.953 214.094Z" fill="url(#paint9_linear_506_16071)"/>
<path d="M86.5498 153.851C85.9207 155.182 85.3753 156.729 85.1031 158.468L92.0465 145.35C91.9774 144.669 92.2785 142.92 92.2239 142.227L86.5498 153.851Z" fill="url(#paint10_linear_506_16071)"/>
<path d="M88.8858 178.1C91.5825 183.87 95.5541 189.923 100.576 195.934L107.887 180.59C103.304 174.661 99.5095 168.277 96.7615 161.554L88.8858 178.1Z" fill="url(#paint11_linear_506_16071)"/>
<path d="M127.921 200.287L120.78 215.262C124.135 217.88 127.665 220.396 131.36 222.803C135.071 225.212 138.785 227.392 142.451 229.341L149.945 213.615C142.34 210.083 134.852 205.579 127.921 200.287Z" fill="url(#paint12_linear_506_16071)"/>
<path d="M117.682 161.421L124.053 157.48L120.699 152.189C113.706 150.436 107.248 149.756 101.684 150.193L104.798 155.098L117.682 161.421Z" fill="#0000FF"/>
<path d="M211.482 217.368C203.522 234.091 170.55 230.421 137.858 209.187C105.16 187.944 85.1187 157.17 93.0863 140.441C101.047 123.719 134.019 127.388 166.71 148.622C199.402 169.856 219.45 200.654 211.482 217.368Z" fill="url(#paint13_linear_506_16071)"/>
<path d="M197.083 208.063C191.031 220.761 166.062 218.023 141.314 201.936C116.56 185.855 101.403 162.523 107.447 149.816C113.499 137.119 138.469 139.856 163.223 155.937C187.978 172.018 203.135 195.366 197.083 208.063Z" fill="#060606"/>
<path d="M141.78 200.939C118.132 185.57 103.596 163.208 109.372 151.075C115.148 138.942 139.094 141.578 162.735 156.938C186.383 172.307 200.919 194.669 195.136 206.808C189.367 218.935 165.429 216.308 141.78 200.939ZM162.311 157.854C139.651 143.13 116.7 140.607 111.165 152.235C105.629 163.863 119.559 185.302 142.219 200.026C164.878 214.75 187.83 217.274 193.365 205.646C198.901 194.017 184.971 172.578 162.311 157.854Z" fill="url(#paint14_linear_506_16071)"/>
<path d="M191.123 204.187C185.877 215.193 164.228 212.824 142.763 198.873C121.306 184.931 108.161 164.701 113.407 153.694C118.653 142.688 140.295 145.063 161.767 159.008C183.225 172.95 196.369 193.181 191.123 204.187Z" fill="#242424"/>
<path d="M185.989 200.982C181.415 210.577 162.611 208.554 143.986 196.449C125.361 184.343 113.967 166.757 118.534 157.154C123.108 147.559 141.912 149.582 160.537 161.688C179.169 173.802 190.564 191.388 185.989 200.982Z" fill="#060606"/>
<path d="M185.474 200.517C180.991 209.928 162.487 207.895 144.142 195.976C125.798 184.056 114.568 166.769 119.051 157.357C123.533 147.946 142.037 149.98 160.382 161.899C178.727 173.818 189.963 191.115 185.474 200.517Z" fill="url(#paint15_linear_506_16071)"/>
<path d="M105.935 149.282L102.529 139.717L96.3984 135.667C94.9811 137.014 93.8155 138.586 92.9531 140.4C92.0129 142.386 91.4556 144.562 91.2731 146.904L96.8799 150.611L105.935 149.282Z" fill="url(#paint16_linear_506_16071)"/>
<path d="M111.641 174.879L100.452 165.301L95.3021 164.664C97.9988 170.434 101.97 176.487 106.993 182.499L111.733 183.088L111.641 174.879Z" fill="url(#paint17_linear_506_16071)"/>
<path d="M127.312 141.195L133.683 137.254L130.329 131.963C126.684 130.918 123.2 130.355 119.887 130.041C116.86 129.742 113.901 129.627 111.314 129.968L114.428 134.872L127.312 141.195Z" fill="url(#paint18_linear_506_16071)"/>
<path d="M139.345 195.465C136.82 193.641 134.38 191.699 132.114 189.686L133.15 189.13C135.304 191.04 137.611 192.882 140.003 194.607L139.345 195.465ZM147.127 200.522L147.394 199.406C149.914 200.872 152.469 202.189 154.998 203.315L155.143 204.642C152.488 203.455 149.787 202.066 147.127 200.522ZM125.759 183.44C123.828 181.311 122.085 179.143 120.57 176.996L122.207 177.094C123.64 179.13 125.294 181.192 127.128 183.206L125.759 183.44ZM163.046 207.635L162.49 206.157C164.925 206.909 167.293 207.463 169.525 207.799L170.462 209.363C168.105 209.012 165.606 208.433 163.046 207.635ZM116.761 170.639C115.736 168.561 114.974 166.547 114.499 164.639L116.446 165.381C116.904 167.183 117.621 169.099 118.593 171.071L116.761 170.639ZM177.083 209.784L175.803 208.193C177.744 208.11 179.513 207.81 181.068 207.314L182.633 208.861C180.998 209.395 179.126 209.706 177.083 209.784ZM113.889 159.266C113.966 157.617 114.33 156.103 114.958 154.757L116.883 156.001C116.283 157.278 115.94 158.714 115.862 160.274L113.889 159.266ZM186.855 206.628L185.073 205.203C186.161 204.3 187.035 203.2 187.635 201.924L187.671 201.849L189.589 203.099L189.553 203.174C188.917 204.51 188.008 205.67 186.855 206.628ZM119.431 152.719L117.65 151.294C118.803 150.337 120.222 149.577 121.856 149.043L123.428 150.585C121.867 151.088 120.527 151.81 119.431 152.719ZM188.663 197.556C188.733 195.987 188.531 194.27 188.072 192.454L190.018 193.182C190.508 195.093 190.719 196.908 190.65 198.566L188.663 197.556ZM128.672 149.694L127.391 148.103C129.427 148.015 131.656 148.143 134.012 148.509L134.957 150.082C132.717 149.737 130.598 149.608 128.672 149.694ZM185.902 186.768C184.929 184.796 183.715 182.772 182.267 180.733L183.904 180.831C185.42 182.979 186.709 185.121 187.727 187.191L185.902 186.768ZM141.97 151.712L141.406 150.225C143.974 151.017 146.633 152.02 149.294 153.201L149.446 154.521C146.932 153.413 144.413 152.459 141.97 151.712ZM177.345 174.621C175.503 172.598 173.478 170.608 171.309 168.695L172.345 168.139C174.625 170.154 176.76 172.247 178.7 174.385L177.345 174.621ZM157.057 158.44L157.325 157.324C158.681 158.112 160.044 158.954 161.372 159.811L161.38 159.82C162.641 160.642 163.895 161.501 165.114 162.375L164.456 163.232C163.296 162.399 162.108 161.59 160.906 160.808L160.898 160.799C159.637 159.977 158.339 159.185 157.057 158.44Z" fill="url(#paint19_linear_506_16071)"/>
<path d="M51.1298 171.011C35.3793 150.132 26.8663 122.159 38.8499 103.249L29.6061 107.164C16.3921 112.925 17.8423 139.64 32.8541 166.838C47.8659 194.036 70.7458 211.409 83.9598 205.648L93.738 201.379C78.2194 196.869 61.3364 185.163 51.1298 171.011Z" fill="url(#paint20_linear_506_16071)"/>
<path d="M29.6083 107.182C28.5668 107.64 27.4884 108.258 26.5313 109.114L37.36 104.945C37.604 104.529 38.5922 103.679 38.8518 103.266L29.6083 107.182Z" fill="url(#paint21_linear_506_16071)"/>
<path d="M20.8061 121.934C20.2973 126.44 20.6143 131.689 21.7211 137.421L33.7844 132.161C32.9634 126.69 32.9268 121.334 33.8103 116.269L20.8061 121.934Z" fill="url(#paint22_linear_506_16071)"/>
<path d="M90.9941 201.465L80.4088 206.658C81.5721 206.486 82.9517 206.131 84.001 205.666L94.533 201.068C94.1401 200.963 91.3716 201.583 90.9941 201.465Z" fill="url(#paint23_linear_506_16071)"/>
<path d="M52.268 192.703C56.6859 196.984 61.1692 200.417 65.4795 202.815L77.7138 197.477C73.1543 194.658 68.8657 191.141 64.8444 187.205L52.268 192.703Z" fill="url(#paint24_linear_506_16071)"/>
<path d="M40.0744 152.547L28.2982 157.677C29.6524 160.708 31.1636 163.769 32.8549 166.839C34.5542 169.919 36.353 172.867 38.228 175.669L50.5951 170.284C46.502 164.758 42.9181 158.754 40.0744 152.547Z" fill="url(#paint25_linear_506_16071)"/>
<path d="M69.8036 150.535L77.2615 158.544L79.937 157.485C78.5905 154.447 77.0633 151.383 75.372 148.312C73.6806 145.242 71.8819 142.294 70.0069 139.492L67.4713 140.499L69.8036 150.535Z" fill="#0000FF"/>
<path d="M79.3804 180.036L83.5055 190.63L87.3635 193.636C87.9122 189.177 87.6509 183.962 86.5916 178.271L82.8764 175.387L79.3804 180.036Z" fill="#0000FF"/>
<path d="M49.3529 125.886L55.7814 126.626L55.5934 122.093C51.1762 117.86 46.6943 114.491 42.3927 112.15L42.5679 116.354L49.3529 125.886Z" fill="#0000FF"/>
<path d="M94.5065 200.943C81.3626 206.676 58.5534 189.325 43.5738 162.181C28.5941 135.037 27.1061 108.386 40.258 102.661C53.402 96.9277 76.2111 114.28 91.1908 141.423C106.17 168.567 107.651 195.209 94.5065 200.943Z" fill="url(#paint26_linear_506_16071)"/>
<path d="M87.8864 189.021C77.8981 193.37 60.6093 180.243 49.262 159.693C37.9147 139.143 36.8251 118.95 46.8054 114.591C56.7937 110.242 74.0822 123.369 85.4295 143.919C96.7768 164.469 97.8746 184.671 87.8864 189.021Z" fill="#800000"/>
<path d="M50.0478 159.354C39.2078 139.719 38.1625 120.363 47.6921 116.206C57.2294 112.043 73.813 124.632 84.6373 144.264C95.4773 163.9 96.5228 183.256 86.9932 187.413C77.4637 191.57 60.8878 178.989 50.0478 159.354ZM83.9379 144.579C73.5489 125.761 57.662 113.7 48.5288 117.684C39.388 121.674 40.3976 140.22 50.7866 159.038C61.1756 177.857 77.0625 189.918 86.1956 185.934C95.3288 181.95 94.3189 163.389 83.9379 144.579Z" fill="url(#paint27_linear_506_16071)"/>
<path d="M85.157 184.061C76.498 187.839 61.514 176.456 51.6806 158.641C41.8473 140.826 40.8931 123.317 49.5444 119.546C58.2034 115.767 73.1876 127.151 83.021 144.966C92.8623 162.791 93.8083 180.289 85.157 184.061Z" fill="#B00000"/>
<path d="M82.7459 179.887C75.1984 183.18 62.1631 173.308 53.6264 157.845C45.0897 142.381 44.289 127.17 51.8364 123.877C59.3839 120.584 72.419 130.456 80.9557 145.919C89.5004 161.392 90.2934 176.593 82.7459 179.887Z" fill="#800000"/>
<path d="M82.5718 179.382C75.1721 182.616 62.3581 172.88 53.9502 157.648C45.5423 142.416 44.7297 127.457 52.1374 124.233C59.5371 121 72.351 130.735 80.7509 145.958C89.1508 161.181 89.9638 176.155 82.5718 179.382Z" fill="url(#paint28_linear_506_16071)"/>
<path d="M85.6982 143.594L93.1561 151.604L95.8393 150.537C94.4851 147.506 92.9661 144.436 91.2748 141.365C89.5835 138.295 87.7842 135.347 85.9093 132.545L83.3738 133.551L85.6982 143.594Z" fill="url(#paint29_linear_506_16071)"/>
<path d="M48.6368 160.174L41.1792 152.164L38.8692 153.078C40.2154 156.1 41.7343 159.17 43.4257 162.24C45.125 165.32 46.9243 168.268 48.7992 171.07L50.9614 170.217L48.6368 160.174Z" fill="url(#paint30_linear_506_16071)"/>
<path d="M88.4064 190.185L86.7778 197.157L89.4774 202.143C91.2764 202.082 92.969 201.738 94.5236 201.057C95.9538 200.433 97.2083 199.569 98.2947 198.474L95.6678 193.637L88.4064 190.185Z" fill="url(#paint31_linear_506_16071)"/>
<path d="M45.929 113.599L47.5576 106.628L44.7777 101.499C43.1436 101.6 41.5995 101.948 40.1693 102.572C38.6148 103.252 37.2606 104.233 36.098 105.457L38.6443 110.152L45.929 113.599Z" fill="url(#paint32_linear_506_16071)"/>
<path d="M95.283 173.104L99.4083 183.699L103.266 186.705C103.815 182.246 103.553 177.031 102.494 171.34L98.7711 168.447L95.283 173.104Z" fill="url(#paint33_linear_506_16071)"/>
<path d="M39.0509 130.678L34.9256 120.084L31.3845 117.328C30.8757 121.834 31.1924 127.084 32.2912 132.806L35.5469 135.333L39.0509 130.678Z" fill="url(#paint34_linear_506_16071)"/>
<path d="M69.0768 184.826L62.656 184.095L62.8205 188.098C67.2305 192.369 71.7135 195.803 76.0318 198.21L75.8781 194.376L69.0768 184.826Z" fill="url(#paint35_linear_506_16071)"/>
<path d="M65.2555 118.955L71.6843 119.695L71.504 115.156C69.2615 112.874 66.9227 110.948 64.6107 109.226C62.5045 107.654 60.3611 106.211 58.295 105.204L58.4702 109.408L65.2555 118.955Z" fill="url(#paint36_linear_506_16071)"/>
<path d="M50.6226 155.131C49.5474 152.931 48.5814 150.705 47.7803 148.517L48.7849 148.689C49.5528 150.759 50.462 152.872 51.4806 154.957L50.6226 155.131ZM54.1904 161.601L54.8634 161.098C56.0918 163.087 57.4129 165.013 58.795 166.824L58.3305 167.637C56.8843 165.734 55.483 163.697 54.1904 161.601ZM45.7854 142.047C45.2754 139.953 44.9227 137.921 44.7364 136.007L45.8997 136.822C46.0766 138.63 46.4119 140.564 46.8891 142.556L45.7854 142.047ZM62.8826 172.986L63.1082 171.889C64.588 173.44 66.0967 174.852 67.5949 176.08L67.6076 177.396C66.0224 176.112 64.4342 174.621 62.8826 172.986ZM44.6765 130.655C44.823 129.01 45.1283 127.523 45.601 126.218L46.7251 127.535C46.2826 128.766 45.9836 130.183 45.8436 131.741L44.6765 130.655ZM72.3392 180.716L72.0893 179.229C73.5582 180.076 75.0005 180.736 76.3612 181.173L76.8478 182.769C75.4083 182.301 73.887 181.611 72.3392 180.716ZM47.4825 122.917C48.2589 122.019 49.1796 121.339 50.2289 120.875L51.1145 122.473C50.1119 122.914 49.2455 123.565 48.5075 124.414L47.4825 122.917ZM80.9436 183.455L80.2371 181.819C81.4424 181.821 82.5501 181.598 83.5527 181.157L83.6072 181.127L84.4931 182.726L84.4306 182.746C83.3816 183.227 82.2036 183.46 80.9436 183.455ZM54.4218 121.786L53.7156 120.149C54.9834 120.148 56.3642 120.374 57.8034 120.826L58.2899 122.422C56.9295 122 55.627 121.789 54.4218 121.786ZM86.214 179.187C86.944 178.328 87.546 177.271 87.9885 176.04L89.1125 177.357C88.6398 178.661 88.0233 179.78 87.2392 180.684L86.214 179.187ZM62.5779 124.37L62.3195 122.873C63.8673 123.767 65.4499 124.875 67.0431 126.168L67.0635 127.493C65.5419 126.269 64.0467 125.218 62.5779 124.37ZM88.854 171.831C88.9861 170.264 88.9595 168.556 88.7826 166.747L89.9457 167.562C90.1321 169.475 90.1601 171.28 90.0136 172.924L88.854 171.831ZM71.5425 131.674L71.768 130.578C73.3273 132.207 74.8503 134.012 76.3121 135.917L75.8554 136.739C74.4733 134.928 73.0223 133.224 71.5425 131.674ZM87.7852 161.004C87.2923 159.01 86.6653 156.95 85.8894 154.871L86.9015 155.036C87.7183 157.226 88.3863 159.413 88.8964 161.507L87.7852 161.004ZM79.7873 142.466L80.4681 141.956C81.1344 143.028 81.7778 144.135 82.3898 145.237C82.9696 146.285 83.5341 147.361 84.0514 148.413L83.1932 148.587C82.7001 147.58 82.1678 146.573 81.6201 145.579L81.6121 145.569C81.0325 144.537 80.4214 143.484 79.7873 142.466Z" fill="url(#paint37_linear_506_16071)"/>
<g style="mix-blend-mode:plus-lighter">
<path d="M91.1825 141.413C76.2028 114.269 53.4014 96.9109 40.2497 102.651C37.7002 103.767 35.7108 105.671 34.2477 108.2L102.31 190.994C105.605 179.51 101.773 160.596 91.1825 141.413Z" fill="url(#paint38_linear_506_16071)"/>
</g>
<defs>
<linearGradient id="paint0_linear_506_16071" x1="181.722" y1="284.105" x2="163.044" y2="191.579" gradientUnits="userSpaceOnUse">
<stop stop-color="#B00000"/>
<stop offset="1" stop-color="#800000"/>
</linearGradient>
<linearGradient id="paint1_linear_506_16071" x1="139.249" y1="268.455" x2="167.652" y2="217.517" gradientUnits="userSpaceOnUse">
<stop stop-color="#FF1916"/>
<stop offset="1" stop-color="#D10000"/>
</linearGradient>
<linearGradient id="paint2_linear_506_16071" x1="160.189" y1="219.106" x2="133.716" y2="259.439" gradientUnits="userSpaceOnUse">
<stop stop-color="#F3F5F4"/>
<stop offset="0.7063" stop-color="#E5E5E4"/>
<stop offset="0.9947" stop-color="#D4D2D1"/>
</linearGradient>
<linearGradient id="paint3_linear_506_16071" x1="144.962" y1="260.42" x2="159.552" y2="225.835" gradientUnits="userSpaceOnUse">
<stop stop-color="#FF3633"/>
<stop offset="1" stop-color="#F11B1A"/>
</linearGradient>
<linearGradient id="paint4_linear_506_16071" x1="111.62" y1="253.14" x2="140.077" y2="202.106" gradientUnits="userSpaceOnUse">
<stop stop-color="#F3F5F4"/>
<stop offset="0.7063" stop-color="#E5E5E4"/>
<stop offset="0.9947" stop-color="#D4D2D1"/>
</linearGradient>
<linearGradient id="paint5_linear_506_16071" x1="160.259" y1="219.02" x2="133.788" y2="259.353" gradientUnits="userSpaceOnUse">
<stop stop-color="#F3F5F4"/>
<stop offset="0.7063" stop-color="#E5E5E4"/>
<stop offset="0.9947" stop-color="#D4D2D1"/>
</linearGradient>
<linearGradient id="paint6_linear_506_16071" x1="129.64" y1="256.117" x2="162.139" y2="232.717" gradientUnits="userSpaceOnUse">
<stop stop-color="#727272"/>
<stop offset="0.2297" stop-color="#515151"/>
<stop offset="0.5743" stop-color="#252525"/>
<stop offset="0.8427" stop-color="#0A0A0A"/>
<stop offset="1"/>
</linearGradient>
<linearGradient id="paint7_linear_506_16071" x1="130.703" y1="61.698" x2="154.498" y2="163.008" gradientUnits="userSpaceOnUse">
<stop stop-color="#B00000"/>
<stop offset="1" stop-color="#800000"/>
</linearGradient>
<linearGradient id="paint8_linear_506_16071" x1="166.774" y1="81.4707" x2="147.656" y2="129.408" gradientUnits="userSpaceOnUse">
<stop stop-color="#FF1916"/>
<stop offset="1" stop-color="#D10000"/>
</linearGradient>
<linearGradient id="paint9_linear_506_16071" x1="79.9982" y1="161.13" x2="210.35" y2="223.634" gradientUnits="userSpaceOnUse">
<stop stop-color="#141718"/>
<stop offset="1" stop-color="#06090A"/>
</linearGradient>
<linearGradient id="paint10_linear_506_16071" x1="86.0028" y1="148.608" x2="216.382" y2="211.124" gradientUnits="userSpaceOnUse">
<stop stop-color="#ADACAB"/>
<stop offset="0.9947" stop-color="#94908E"/>
</linearGradient>
<linearGradient id="paint11_linear_506_16071" x1="78.0121" y1="165.277" x2="208.364" y2="227.782" gradientUnits="userSpaceOnUse">
<stop stop-color="#ADACAB"/>
<stop offset="0.9947" stop-color="#94908E"/>
</linearGradient>
<linearGradient id="paint12_linear_506_16071" x1="73.5995" y1="174.473" x2="203.95" y2="236.978" gradientUnits="userSpaceOnUse">
<stop stop-color="#ADACAB"/>
<stop offset="0.9947" stop-color="#94908E"/>
</linearGradient>
<linearGradient id="paint13_linear_506_16071" x1="133.343" y1="133.992" x2="159.956" y2="232.165" gradientUnits="userSpaceOnUse">
<stop stop-color="#333637"/>
<stop offset="1" stop-color="#1F2223"/>
</linearGradient>
<linearGradient id="paint14_linear_506_16071" x1="137.922" y1="136.601" x2="152.047" y2="219.227" gradientUnits="userSpaceOnUse">
<stop stop-color="#F3F5F4"/>
<stop offset="0.7063" stop-color="#E5E5E4"/>
<stop offset="0.9947" stop-color="#D4D2D1"/>
</linearGradient>
<linearGradient id="paint15_linear_506_16071" x1="136.756" y1="150.776" x2="162.789" y2="210.709" gradientUnits="userSpaceOnUse">
<stop stop-color="#4D4F50"/>
<stop offset="0.4028" stop-color="#3F4142"/>
<stop offset="1" stop-color="#2E3132"/>
</linearGradient>
<linearGradient id="paint16_linear_506_16071" x1="97.0581" y1="143.683" x2="123.72" y2="242.037" gradientUnits="userSpaceOnUse">
<stop stop-color="#F3F5F4"/>
<stop offset="0.7063" stop-color="#E5E5E4"/>
<stop offset="0.9947" stop-color="#D4D2D1"/>
</linearGradient>
<linearGradient id="paint17_linear_506_16071" x1="92.9324" y1="144.798" x2="119.594" y2="243.158" gradientUnits="userSpaceOnUse">
<stop stop-color="#F3F5F4"/>
<stop offset="0.7063" stop-color="#E5E5E4"/>
<stop offset="0.9947" stop-color="#D4D2D1"/>
</linearGradient>
<linearGradient id="paint18_linear_506_16071" x1="123.704" y1="136.459" x2="150.365" y2="234.814" gradientUnits="userSpaceOnUse">
<stop stop-color="#F3F5F4"/>
<stop offset="0.7063" stop-color="#E5E5E4"/>
<stop offset="0.9947" stop-color="#D4D2D1"/>
</linearGradient>
<linearGradient id="paint19_linear_506_16071" x1="137.884" y1="136.609" x2="152.01" y2="219.236" gradientUnits="userSpaceOnUse">
<stop stop-color="#F3F5F4"/>
<stop offset="0.7063" stop-color="#E5E5E4"/>
<stop offset="0.9947" stop-color="#D4D2D1"/>
</linearGradient>
<linearGradient id="paint20_linear_506_16071" x1="21.5958" y1="108.244" x2="67.4466" y2="214.129" gradientUnits="userSpaceOnUse">
<stop stop-color="#B00000"/>
<stop offset="1" stop-color="#800000"/>
</linearGradient>
<linearGradient id="paint21_linear_506_16071" x1="31.474" y1="103.968" x2="77.3274" y2="209.861" gradientUnits="userSpaceOnUse">
<stop stop-color="#ADACAB"/>
<stop offset="0.9947" stop-color="#94908E"/>
</linearGradient>
<linearGradient id="paint22_linear_506_16071" x1="18.3288" y1="109.66" x2="64.1782" y2="215.541" gradientUnits="userSpaceOnUse">
<stop stop-color="#ADACAB"/>
<stop offset="0.9947" stop-color="#94908E"/>
</linearGradient>
<linearGradient id="paint23_linear_506_16071" x1="32.3675" y1="103.613" x2="78.2076" y2="209.471" gradientUnits="userSpaceOnUse">
<stop stop-color="#ADACAB"/>
<stop offset="0.9947" stop-color="#94908E"/>
</linearGradient>
<linearGradient id="paint24_linear_506_16071" x1="18.0943" y1="109.76" x2="63.9451" y2="215.646" gradientUnits="userSpaceOnUse">
<stop stop-color="#ADACAB"/>
<stop offset="0.9947" stop-color="#94908E"/>
</linearGradient>
<linearGradient id="paint25_linear_506_16071" x1="11.0742" y1="112.802" x2="56.9258" y2="218.683" gradientUnits="userSpaceOnUse">
<stop stop-color="#ADACAB"/>
<stop offset="0.9947" stop-color="#94908E"/>
</linearGradient>
<linearGradient id="paint26_linear_506_16071" x1="72.8458" y1="117.684" x2="48.4898" y2="184.855" gradientUnits="userSpaceOnUse">
<stop stop-color="#FF1916"/>
<stop offset="1" stop-color="#D10000"/>
</linearGradient>
<linearGradient id="paint27_linear_506_16071" x1="75.1021" y1="121.28" x2="50.8816" y2="174.951" gradientUnits="userSpaceOnUse">
<stop stop-color="#F3F5F4"/>
<stop offset="0.7063" stop-color="#E5E5E4"/>
<stop offset="0.9947" stop-color="#D4D2D1"/>
</linearGradient>
<linearGradient id="paint28_linear_506_16071" x1="68.0909" y1="128.731" x2="57.4909" y2="173.689" gradientUnits="userSpaceOnUse">
<stop stop-color="#FF3633"/>
<stop offset="1" stop-color="#F11B1A"/>
</linearGradient>
<linearGradient id="paint29_linear_506_16071" x1="92.3946" y1="124.667" x2="67.993" y2="191.965" gradientUnits="userSpaceOnUse">
<stop stop-color="#F3F5F4"/>
<stop offset="0.7063" stop-color="#E5E5E4"/>
<stop offset="0.9947" stop-color="#D4D2D1"/>
</linearGradient>
<linearGradient id="paint30_linear_506_16071" x1="53.1183" y1="110.43" x2="28.7179" y2="177.723" gradientUnits="userSpaceOnUse">
<stop stop-color="#F3F5F4"/>
<stop offset="0.7063" stop-color="#E5E5E4"/>
<stop offset="0.9947" stop-color="#D4D2D1"/>
</linearGradient>
<linearGradient id="paint31_linear_506_16071" x1="103.605" y1="128.738" x2="79.2038" y2="196.031" gradientUnits="userSpaceOnUse">
<stop stop-color="#F3F5F4"/>
<stop offset="0.7063" stop-color="#E5E5E4"/>
<stop offset="0.9947" stop-color="#D4D2D1"/>
</linearGradient>
<linearGradient id="paint32_linear_506_16071" x1="41.7902" y1="106.32" x2="17.3898" y2="173.612" gradientUnits="userSpaceOnUse">
<stop stop-color="#F3F5F4"/>
<stop offset="0.7063" stop-color="#E5E5E4"/>
<stop offset="0.9947" stop-color="#D4D2D1"/>
</linearGradient>
<linearGradient id="paint33_linear_506_16071" x1="107.264" y1="130.06" x2="82.8625" y2="197.355" gradientUnits="userSpaceOnUse">
<stop stop-color="#F3F5F4"/>
<stop offset="0.7063" stop-color="#E5E5E4"/>
<stop offset="0.9947" stop-color="#D4D2D1"/>
</linearGradient>
<linearGradient id="paint34_linear_506_16071" x1="38.2527" y1="105.036" x2="13.8517" y2="172.333" gradientUnits="userSpaceOnUse">
<stop stop-color="#F3F5F4"/>
<stop offset="0.7063" stop-color="#E5E5E4"/>
<stop offset="0.9947" stop-color="#D4D2D1"/>
</linearGradient>
<linearGradient id="paint35_linear_506_16071" x1="80.6675" y1="120.413" x2="56.2646" y2="187.711" gradientUnits="userSpaceOnUse">
<stop stop-color="#F3F5F4"/>
<stop offset="0.7063" stop-color="#E5E5E4"/>
<stop offset="0.9947" stop-color="#D4D2D1"/>
</linearGradient>
<linearGradient id="paint36_linear_506_16071" x1="64.6403" y1="114.604" x2="40.2396" y2="181.904" gradientUnits="userSpaceOnUse">
<stop stop-color="#F3F5F4"/>
<stop offset="0.7063" stop-color="#E5E5E4"/>
<stop offset="0.9947" stop-color="#D4D2D1"/>
</linearGradient>
<linearGradient id="paint37_linear_506_16071" x1="75.0685" y1="121.265" x2="50.8487" y2="174.935" gradientUnits="userSpaceOnUse">
<stop stop-color="#F3F5F4"/>
<stop offset="0.7063" stop-color="#E5E5E4"/>
<stop offset="0.9947" stop-color="#D4D2D1"/>
</linearGradient>
<linearGradient id="paint38_linear_506_16071" x1="86.2913" y1="130.501" x2="52.1063" y2="163.751" gradientUnits="userSpaceOnUse">
<stop stop-color="#727272"/>
<stop offset="0.2297" stop-color="#515151"/>
<stop offset="0.5743" stop-color="#252525"/>
<stop offset="0.8427" stop-color="#0A0A0A"/>
<stop offset="1"/>
</linearGradient>
</defs>
</svg>
