<svg width="251" height="381" viewBox="0 0 251 381" fill="none" xmlns="http://www.w3.org/2000/svg">
<path d="M-15.1544 263.964C-14.6924 265.717 -13.0723 266.919 -11.5366 266.665L72.5195 252.5C74.0553 252.246 74.9157 250.614 74.4537 248.861L40.478 120.443C40.0159 118.69 38.3963 117.488 36.8605 117.742L-47.196 131.907C-48.7317 132.161 -49.5922 133.793 -49.1302 135.546L-15.1544 263.964Z" fill="url(#paint0_linear_506_15703)"/>
<path d="M-14.6807 263.276C-14.2241 265.009 -12.6239 266.216 -11.1007 265.955L71.7648 251.992C73.281 251.743 74.1342 250.124 73.6775 248.391L40.0088 121.124C39.5522 119.39 37.9517 118.183 36.441 118.452L-46.4243 132.414C-47.9404 132.663 -48.7932 134.282 -48.3366 136.016L-14.6807 263.276Z" fill="url(#paint1_linear_506_15703)"/>
<path d="M-2.58118 172.785C4.5415 172.027 9.45198 179.801 9.45198 179.801L9.45048 179.833C9.45048 179.833 10.0005 171.135 16.9101 169.527C23.8197 167.918 31.1972 174.294 31.7675 181.807C32.3377 189.32 26.107 196.995 22.5851 202.118C19.0506 207.233 18.0495 212.263 18.0495 212.263L18.0443 212.243C18.0443 212.243 14.5741 207.97 8.74952 204.43C2.92491 200.891 -6.65351 195.882 -9.93808 188.832C-13.2227 181.782 -9.70386 173.544 -2.58118 172.785Z" fill="url(#paint2_linear_506_15703)"/>
<path d="M18.9014 215.809C18.7389 215.832 18.5621 215.765 18.4402 215.629C18.3973 215.588 14.5048 211.125 8.23236 207.149L6.39082 205.988C-1.15569 201.221 -10.5506 195.306 -12.6635 188.789C-14.0614 184.484 -13.7381 179.715 -11.8006 176.012C-10.0871 172.761 -7.34851 170.738 -3.99437 170.374C2.28699 169.667 6.53137 173.453 8.17628 175.281C8.76355 173.08 10.7086 168.255 16.8256 166.875C20.0644 166.131 23.6256 167.093 26.8264 169.507C30.4801 172.261 33.1893 176.533 34.0996 180.909C35.4627 187.58 30.1459 195.659 25.4484 202.764L24.452 204.285C20.7404 209.946 19.2688 215.454 19.2599 215.499C19.18 215.669 19.0639 215.785 18.9014 215.809ZM17.1354 167.846C10.4435 169.363 9.11781 175.286 8.92082 176.449C8.88557 176.628 8.75544 176.77 8.58582 176.806C8.40367 176.835 8.221 176.748 8.09374 176.593C7.32108 175.591 3.10223 170.594 -3.78279 171.372C-6.83324 171.727 -9.38848 173.572 -10.9598 176.572C-12.7888 180.055 -13.0966 184.535 -11.7745 188.565C-9.78773 194.663 -0.592778 200.464 6.79803 205.125L8.6518 206.294C13.7252 209.523 17.2255 212.985 18.5388 214.377C19.088 212.652 20.652 208.206 23.6341 203.655L24.6375 202.121C29.0058 195.508 34.4468 187.268 33.1598 180.989C32.3199 176.868 29.7708 172.869 26.3338 170.287C23.5304 168.165 20.4424 167.273 17.6245 167.744C17.4549 167.78 17.2925 167.803 17.1354 167.846Z" fill="url(#paint3_linear_506_15703)"/>
<path d="M33.1972 143.035C34.7153 142.87 35.7631 144.525 35.7631 144.525C35.7631 144.525 35.8866 142.674 37.356 142.332C38.8254 141.991 40.3923 143.344 40.5145 144.937C40.6367 146.531 39.3118 148.164 38.5572 149.259C37.8026 150.354 37.591 151.427 37.591 151.427C37.591 151.427 36.8454 150.523 35.6214 149.762C34.3777 149.006 32.3506 147.938 31.6428 146.442C30.9223 144.94 31.6665 143.193 33.1972 143.035Z" fill="url(#paint4_linear_506_15703)"/>
<path d="M37.7591 152.182C37.7198 152.192 37.6823 152.171 37.6644 152.145C37.6644 152.145 36.8314 151.191 35.4892 150.346L35.1024 150.093C33.4918 149.079 31.4947 147.812 31.0515 146.434C30.7579 145.522 30.8248 144.5 31.2407 143.71C31.5998 143.019 32.1898 142.592 32.8971 142.513C34.2402 142.365 35.1394 143.174 35.487 143.554C35.609 143.076 36.0243 142.053 37.3295 141.767C38.0151 141.61 38.7786 141.812 39.4607 142.331C40.2358 142.921 40.8136 143.828 41.009 144.768C41.2951 146.189 40.1718 147.904 39.1629 149.418L38.9462 149.741C38.1598 150.951 37.8393 152.128 37.8393 152.128C37.8251 152.153 37.7912 152.183 37.7591 152.182ZM37.3887 141.983C35.9657 142.301 35.6797 143.563 35.634 143.819C35.6252 143.864 35.5987 143.882 35.5594 143.892C35.5201 143.903 35.4826 143.882 35.4521 143.848C35.289 143.64 34.391 142.566 32.9176 142.74C32.2621 142.815 31.7255 143.206 31.3949 143.847C31.0074 144.587 30.9438 145.545 31.2212 146.398C31.6427 147.698 33.5966 148.923 35.1696 149.916L35.5634 150.156C36.6425 150.852 37.3914 151.575 37.6656 151.88C37.7754 151.511 38.1157 150.562 38.7474 149.596L38.9643 149.272C39.8967 147.863 41.0535 146.118 40.7891 144.776C40.6099 143.895 40.0609 143.053 39.3358 142.493C38.7469 142.042 38.0799 141.846 37.487 141.956C37.4477 141.967 37.4155 141.965 37.3887 141.983Z" fill="url(#paint5_linear_506_15703)"/>
<path d="M29.2828 139.777L29.1817 139.372C29.4191 139.274 29.5941 139.142 29.7116 138.993C29.8291 138.844 29.9104 138.643 29.9491 138.4C29.9878 138.156 30.0262 137.797 30.05 137.347L30.6115 126.733L32.0542 126.526L37.7447 136.019C38.0642 136.564 38.3778 136.974 38.6607 137.234C38.9366 137.507 39.2462 137.633 39.5624 137.631L39.6311 138.034L36.1489 138.624L36.0605 138.226C36.4014 138.122 36.635 137.972 36.7667 137.799C36.9056 137.612 36.9318 137.363 36.8719 137.03C36.8357 136.861 36.7746 136.677 36.6955 136.466C36.6163 136.256 36.4511 135.963 36.2143 135.564L35.753 134.772L31.7777 135.413L31.7167 136.571C31.7014 136.86 31.6878 137.117 31.7009 137.357C31.7086 137.576 31.736 137.791 31.7776 137.98C31.8317 138.176 31.8946 138.328 31.9985 138.437C32.0899 138.538 32.2276 138.617 32.3671 138.663C32.5262 138.703 32.7442 138.728 33.0337 138.743L33.1225 139.141L29.2828 139.777ZM32.1131 128.464L31.7813 134.62L35.3723 134.042L32.1131 128.464Z" fill="url(#paint6_linear_506_15703)"/>
<path d="M-3.94223 244.63L-3.84121 245.035C-4.07856 245.132 -4.25317 245.265 -4.37069 245.413C-4.4882 245.562 -4.57012 245.764 -4.60878 246.007C-4.64744 246.25 -4.68575 246.609 -4.71667 247.072L-5.27776 257.686L-6.72081 257.893L-12.4114 248.4C-12.7308 247.854 -13.0444 247.444 -13.3274 247.184C-13.6032 246.912 -13.9125 246.786 -14.2287 246.788L-14.2977 246.385L-10.8155 245.795L-10.7271 246.193C-11.068 246.297 -11.3016 246.447 -11.4334 246.62C-11.5722 246.806 -11.5984 247.056 -11.5386 247.388C-11.5024 247.558 -11.4484 247.755 -11.3621 247.953C-11.2758 248.151 -11.1178 248.456 -10.8809 248.855L-10.4192 249.647L-6.44435 249.006L-6.38332 247.848C-6.36801 247.559 -6.35439 247.301 -6.36753 247.062C-6.37526 246.842 -6.40262 246.628 -6.44421 246.439C-6.49833 246.242 -6.56124 246.091 -6.66515 245.982C-6.75653 245.881 -6.88713 245.79 -7.03371 245.756C-7.19282 245.716 -7.41087 245.691 -7.70033 245.676L-7.78874 245.278L-3.94223 244.63ZM-6.77218 255.942L-6.44036 249.787L-10.0314 250.364L-6.77218 255.942Z" fill="url(#paint7_linear_506_15703)"/>
<path d="M-43.977 76.5692C-45.3273 76.0011 -45.4978 74.9598 -44.3564 74.2332L17.7054 34.5426C18.8469 33.816 20.8404 33.6894 22.1908 34.2575L120.876 75.8566C122.226 76.4247 122.397 77.4656 121.255 78.1922L59.1928 117.883C58.0639 118.617 56.0582 118.736 54.7078 118.168L-43.977 76.5692Z" fill="url(#paint8_linear_506_15703)"/>
<path d="M-43.0677 76.4556C-44.4056 75.8947 -44.5762 74.8535 -43.4615 74.1448L17.7196 35.0136C18.8343 34.3049 20.8276 34.1784 22.1654 34.7394L119.974 75.9565C121.312 76.5175 121.483 77.5588 120.368 78.2675L59.1867 117.398C58.072 118.107 56.0785 118.234 54.7532 117.68L-43.0677 76.4556Z" fill="url(#paint9_linear_506_15703)"/>
<path d="M99.3628 75.9951L99.6718 76.1211C99.5096 76.2608 99.4066 76.3843 99.3568 76.4719C99.307 76.5596 99.2963 76.6365 99.3447 76.6971C99.386 76.7702 99.4866 76.8271 99.644 76.8999C99.796 76.9531 99.9603 77.0137 100.184 77.0578C100.388 77.1073 100.631 77.1456 100.919 77.1931L102.018 77.3867L104.923 75.5086L104.459 75.1293C104.237 74.937 104.051 74.798 103.913 74.7198C103.775 74.6415 103.638 74.5632 103.498 74.5171C103.239 74.4195 102.976 74.3865 102.722 74.4247C102.476 74.4504 102.207 74.5456 101.909 74.6911L101.592 74.5775L104.169 72.9272L104.486 73.0408C104.297 73.1985 104.249 73.3698 104.335 73.5679C104.422 73.7659 104.623 73.9961 104.931 74.2704L110.372 78.9509L109.336 79.6378L99.2106 77.8963C98.7763 77.8153 98.4242 77.7645 98.1669 77.7509C97.9168 77.7248 97.6844 77.7251 97.4826 77.7596C97.2808 77.7941 97.065 77.8537 96.8276 77.9508L96.5179 77.825L99.3628 75.9951ZM105.351 75.8344L102.733 77.5276L108.608 78.5287L105.351 75.8344Z" fill="url(#paint10_linear_506_15703)"/>
<path d="M20.9401 84.2646C26.6812 85.9679 32.7516 85.2249 39.163 84.3771C45.5744 83.5293 55.5521 83.431 55.5521 83.431C55.5521 83.431 53.7467 78.2979 54.0251 74.8616C54.3036 71.4254 54.4558 68.1825 50.0756 65.6287C45.7025 63.0624 37.9756 63.776 33.9683 65.7572C29.9736 67.7455 29.8873 70.2311 31.3448 72.798C27.8779 70.4151 26.6757 67.7778 26.2937 65.8547L25.8827 65.82C24.3773 68.0625 22.2529 69.3241 22.2529 69.3241L22.2655 69.3313C21.7965 69.6612 19.8615 70.9973 16.2357 71.986L16.2735 72.1233C19.9604 71.9312 25.2613 71.9601 30.5851 73.2608C25.4554 73.0476 20.7688 73.5996 17.8472 76.0317C14.956 78.4977 15.2116 82.5683 20.9401 84.2646Z" fill="url(#paint11_linear_506_15703)"/>
<path d="M11.1275 72.9592C11.1542 72.9412 11.1936 72.9302 11.2275 72.8997C16.8047 70.7499 18.7004 69.5405 20.2163 68.5628C21.7323 67.5851 23.6282 66.3761 26.5422 63.1115C26.6313 63.013 26.8417 62.934 27.0543 62.9388C27.2669 62.9436 27.4299 63.0359 27.457 63.1341C27.8412 64.5284 28.2121 65.5673 28.6116 66.6721C28.752 67.0666 28.8924 67.4607 29.0382 67.8748C29.7495 66.6224 31.0846 65.4094 32.9828 64.4003C35.3198 63.1435 38.7477 62.3574 42.1633 62.2929C44.7072 62.2468 48.4312 62.5725 51.6643 64.3755C56.9335 67.3182 56.6167 71.1135 56.3192 74.7874C56.0268 78.3649 57.8579 83.6287 58.0649 84.2266C58.0866 84.3052 58.044 84.3804 57.9566 84.4467L57.8832 84.4879C57.7833 84.5471 57.6389 84.5975 57.4907 84.5961C56.3419 84.6063 46.0519 84.7588 39.3423 85.636C32.554 86.5348 25.5513 87.4609 18.8891 85.3669C14.9107 84.118 13.5787 82.3515 13.1555 81.0842C12.5774 79.3313 13.383 77.3871 15.3389 75.8973C16.9791 74.6423 19.1366 73.7309 20.9592 73.1758C20.0553 73.1925 19.2102 73.193 18.3706 73.2131C16.2143 73.2474 14.1816 73.269 11.4806 73.3584C11.2609 73.3661 11.0837 73.2983 11.0245 73.1984C10.9707 73.1182 11.0205 73.0309 11.1275 72.9592ZM29.3675 69.4535C29.2872 69.5073 29.1623 69.5524 29.0265 69.5581C28.7872 69.5712 28.5657 69.4948 28.5207 69.3699C28.2163 68.4185 27.9424 67.6171 27.6616 66.8282C27.3412 65.934 27.0372 65.0986 26.7307 64.0632C24.1387 66.8482 22.316 68.0163 20.948 68.8793C19.5926 69.7494 17.7697 70.9171 13.0512 72.8091C15.0537 72.7538 16.7062 72.7313 18.4426 72.707C19.9915 72.6922 21.5599 72.6721 23.4071 72.6278C23.6464 72.6147 23.8539 72.7161 23.8668 72.8394C23.8921 72.9697 23.7247 73.0895 23.4836 73.1348C21.4729 73.4671 18.2618 74.5423 16.1241 76.1774C14.3162 77.5525 13.5706 79.3321 14.1162 80.9671C14.5124 82.1362 15.7351 83.7749 19.4346 84.9316C25.7802 86.912 32.6008 86.015 39.1872 85.1506C45.3772 84.3427 54.522 84.1363 57.0141 84.0939C56.5783 82.8195 55.0723 78.121 55.344 74.8134C55.6449 71.0752 55.9356 67.5299 50.9294 64.7366C47.9093 63.0546 44.4676 62.7565 42.1113 62.7931C38.9475 62.8516 35.7871 63.5749 33.6482 64.7454C33.336 64.9159 33.0363 65.0933 32.7563 65.2655C30.8872 66.4568 29.6995 67.9358 29.4924 69.2924C29.4764 69.3496 29.4406 69.4122 29.3675 69.4535Z" fill="url(#paint12_linear_506_15703)"/>
<path d="M90.9683 74.5894C92.1501 74.9292 93.4094 74.7827 94.7345 74.6076C96.0597 74.4326 98.1247 74.4129 98.1247 74.4129C98.1247 74.4129 97.7484 73.3543 97.8054 72.6413C97.8625 71.9283 97.891 71.2658 96.9839 70.7341C96.0767 70.2023 94.4816 70.3565 93.6537 70.7642C92.8258 71.172 92.8112 71.6935 93.1127 72.2126C92.3968 71.7232 92.1488 71.1683 92.0727 70.7773L91.9963 70.7667C91.6884 71.2214 91.2548 71.4886 91.2548 71.4886C91.1674 71.5549 90.7589 71.8367 90.0127 72.0424L90.0181 72.0621C90.7684 72.0244 91.8708 72.0375 92.9666 72.2954C91.8982 72.2518 90.9372 72.3687 90.3365 72.8723C89.7341 73.4081 89.7865 74.2495 90.9683 74.5894Z" fill="url(#paint13_linear_506_15703)"/>
<path d="M88.9432 72.2626L88.963 72.2572C90.1088 71.8146 90.5027 71.5583 90.8166 71.3556C91.1305 71.1529 91.5176 70.9088 92.1215 70.2248C92.1357 70.1997 92.1876 70.1959 92.2269 70.1851C92.2716 70.1939 92.3039 70.1957 92.3022 70.2278C92.3834 70.5224 92.4625 70.7331 92.5346 70.9563C92.5687 71.0419 92.5901 71.1202 92.6243 71.2059C92.7737 70.9429 93.0448 70.6996 93.4426 70.4948C93.9207 70.2363 94.626 70.0736 95.3298 70.0592C95.8532 70.0417 96.6235 70.1145 97.2873 70.4915C98.3715 71.0906 98.3037 71.8806 98.2504 72.6453C98.1916 73.3905 98.573 74.4686 98.618 74.5935C98.618 74.5935 98.6163 74.6257 98.5896 74.6436L98.5704 74.6489C98.5437 74.6668 98.5241 74.6722 98.4919 74.6705C98.2596 74.6711 96.1351 74.7073 94.7456 74.8789C93.349 75.0631 91.9008 75.251 90.5169 74.8295C89.698 74.5798 89.4149 74.2036 89.332 73.9412C89.2095 73.5735 89.3854 73.1762 89.7884 72.875C90.1307 72.6222 90.573 72.4266 90.9532 72.3112C90.7657 72.3207 90.5852 72.3172 90.4173 72.3213C89.9653 72.3296 89.5528 72.3271 88.9901 72.3554C88.9383 72.3591 88.9133 72.3451 88.8954 72.3183C88.9096 72.2933 88.9165 72.2805 88.9432 72.2626ZM92.7041 71.5327L92.6378 71.5613C92.586 71.565 92.5484 71.5438 92.5305 71.5171C92.4764 71.3207 92.4081 71.1495 92.3451 70.9978C92.2839 70.814 92.2154 70.6428 92.1559 70.4268C91.6161 70.9981 91.2418 71.2491 90.9617 71.4213C90.6817 71.5936 90.3069 71.8447 89.3254 72.2314C89.7452 72.2214 90.0812 72.2134 90.4295 72.2125C90.7457 72.2098 91.0817 72.2017 91.4497 72.1954C91.5015 72.1916 91.5444 72.2324 91.5444 72.2324C91.5444 72.2324 91.516 72.2828 91.4642 72.2865C91.0481 72.3483 90.3841 72.584 89.9473 72.9157C89.5711 73.199 89.4291 73.5657 89.5336 73.9066C89.6111 74.1494 89.871 74.4791 90.6256 74.7254C91.9326 75.1364 93.349 74.947 94.7063 74.7737C95.9797 74.6024 97.8715 74.5668 98.3878 74.5619C98.3049 74.2995 97.9951 73.3284 98.0504 72.6476C98.1109 71.8703 98.1749 71.1448 97.1408 70.5741C96.5271 70.2255 95.8017 70.1613 95.3176 70.168C94.6655 70.1787 94.0118 70.3377 93.5676 70.5658C93.5016 70.5946 93.4411 70.6431 93.3876 70.6789C93.0006 70.9229 92.7585 71.2327 92.7182 71.5079L92.7041 71.5327Z" fill="url(#paint14_linear_506_15703)"/>
<path d="M-110.958 186.059C-112.737 185.43 -114.101 185.848 -114.009 187.027L-108.761 250.995C-108.661 252.162 -107.139 253.623 -105.367 254.265L25.1873 301.026C26.9595 301.668 28.3303 301.238 28.2307 300.071L22.9832 236.102C22.8837 234.936 21.361 233.475 19.5888 232.833L-110.958 186.059Z" fill="url(#paint15_linear_506_15703)"/>
<path d="M-110.33 186.76C-112.089 186.126 -113.441 186.551 -113.346 187.698L-108.18 250.759C-108.085 251.906 -106.576 253.36 -104.816 253.995L24.5671 300.339C26.3268 300.974 27.678 300.549 27.5838 299.402L22.4171 236.341C22.3229 235.194 20.8132 233.74 19.0535 233.105L-110.33 186.76Z" fill="url(#paint16_linear_506_15703)"/>
<path d="M4.58683 285.937C4.58683 285.937 0.662403 286.11 -0.566098 287.019C-2.97997 284.241 -6.21973 282.07 -6.21973 282.07C-6.21973 282.07 -3.15394 282.154 -1.06681 280.988C0.401369 282.865 4.58683 285.937 4.58683 285.937Z" fill="url(#paint17_linear_506_15703)"/>
<path d="M-7.12256 281.677C-7.0904 281.679 -3.57246 281.755 -1.21241 280.428C-1.21241 280.428 -1.15341 280.412 -1.11584 280.433C-1.07827 280.455 -1.0408 280.476 -1.02286 280.503C0.631793 282.635 5.41295 286.146 5.45593 286.187C5.52397 286.242 5.53319 286.313 5.46175 286.322C5.40995 286.326 0.942425 286.522 -0.460802 287.563C-0.460802 287.563 -0.519927 287.58 -0.544977 287.566C-0.570026 287.551 -0.620069 287.523 -0.645119 287.509C-3.37442 284.352 -7.08634 281.847 -7.12391 281.825C-7.16149 281.804 -7.19196 281.77 -7.20278 281.731C-7.18145 281.693 -7.15473 281.675 -7.12256 281.677ZM5.18071 286.146C4.30538 285.5 0.485216 282.601 -1.11362 280.633C-3.18483 281.743 -6.04143 281.844 -6.82214 281.847C-6.00772 282.426 -2.95037 284.626 -0.565263 287.339C0.804411 286.444 4.37156 286.2 5.18071 286.146Z" fill="url(#paint18_linear_506_15703)"/>
<path d="M7.24638 283.063L7.65771 283.214C7.73688 283.425 7.84274 283.618 7.98252 283.78C8.12231 283.942 8.31388 284.1 8.53763 284.26C8.77389 284.428 9.11721 284.639 9.58063 284.903L20.016 291.028L20.0691 292.101L10.0895 290.773C9.51936 290.698 9.08162 290.682 8.78876 290.731C8.4959 290.78 8.32855 290.9 8.30412 291.118L7.89996 290.954L7.68549 288.298L8.08965 288.462C8.1583 288.749 8.27488 288.981 8.44512 289.177C8.61536 289.373 8.85891 289.528 9.19336 289.668C9.37041 289.736 9.56693 289.798 9.77072 289.847C9.98704 289.904 10.2876 289.958 10.7165 290.02L11.542 290.141L11.3269 287.136L10.1943 286.476C9.90619 286.313 9.64311 286.163 9.43019 286.043C9.19763 285.927 8.98987 285.826 8.8003 285.752C8.5982 285.67 8.43235 285.642 8.32875 285.649C8.21263 285.649 8.11965 285.696 8.06986 285.784C8.00755 285.864 7.96137 286.004 7.92612 286.183L7.51501 286.032L7.24638 283.063ZM18.1296 291.083L12.0798 287.531L12.2785 290.244L18.1296 291.083Z" fill="url(#paint19_linear_506_15703)"/>
<path d="M190.549 249.737C190.674 251.647 189.869 252.946 188.738 252.634L126.393 235.83C125.254 235.531 124.22 233.735 124.096 231.825L114.277 92.048C114.153 90.1385 114.957 88.8395 116.101 89.158L178.446 105.962C179.585 106.261 180.619 108.057 180.744 109.967L190.549 249.737Z" fill="url(#paint20_linear_506_15703)"/>
<path d="M190.035 248.979C190.174 250.863 189.357 252.156 188.238 251.851L126.783 235.288C125.664 234.984 124.648 233.214 124.516 231.317L114.788 92.7826C114.649 90.8982 115.465 89.6064 116.584 89.9107L178.039 106.474C179.158 106.779 180.174 108.548 180.306 110.445L190.035 248.979Z" fill="url(#paint21_linear_506_15703)"/>
<path d="M156.677 167.92C159.746 165.754 160.001 149.087 150.809 146.169L150.804 146.149C150.759 146.14 150.727 146.139 150.682 146.13C150.637 146.121 150.6 146.099 150.555 146.091L150.561 146.11C141.437 144.093 144.081 161.546 147.575 165.485C138.327 160.564 137.785 170.707 138.886 176.236C139.956 181.614 142.572 185.203 146.27 186.741C149.969 188.278 152.154 184.169 152.843 181.993C152.215 186.92 150.906 190.682 149.313 193.255L149.488 193.587C151.3 192.877 153.451 193.551 154.105 193.741L154.098 193.753C154.098 193.753 156.6 194.247 158.892 196.277L159.013 196.065C156.976 192.506 154.954 187.697 153.594 182.187C154.621 184.841 157.487 190.294 161.115 190.731C164.742 191.168 166.941 188.872 167.276 183.878C167.613 178.735 165.586 167.895 156.677 167.92Z" fill="url(#paint22_linear_506_15703)"/>
<path d="M146.419 196.015C146.317 195.991 146.214 195.882 146.138 195.723C146.047 195.506 146.028 195.247 146.113 195.096C147.23 193.13 148.556 190.736 149.53 188.904C148.415 189.38 147.116 189.305 145.273 188.672C141.655 187.43 138.543 182.73 137.333 176.693C136.584 172.938 136.527 167.788 138.077 164.709C139.365 162.177 141.482 161.425 144.406 162.489C142.961 159.813 142.156 155.398 142.529 151.502C142.802 148.659 144.125 142.188 150.632 143.68C157.014 145.714 159.266 153.006 159.925 156.047C160.87 160.36 160.66 164.581 159.509 166.578C162.392 167.072 164.695 169.026 166.384 172.353C168.427 176.396 169.113 181.722 168.878 185.199C168.491 190.81 165.93 193.977 162.355 193.272C162.067 193.224 161.794 193.152 161.533 193.086C160.096 192.701 158.934 192.091 157.895 191.12C158.853 193.022 160.153 195.632 162.095 199.418C162.206 199.63 162.224 199.89 162.144 200.059C162.065 200.229 161.909 200.24 161.768 200.11C158.868 197.37 154.125 195.952 154.08 195.943C153.621 195.848 149.284 195.025 146.523 196.008C146.496 196.026 146.451 196.017 146.419 196.015ZM150.811 186.766C150.893 186.796 150.974 186.858 151.038 186.977C151.169 187.184 151.211 187.49 151.112 187.665C150.424 189.08 148.808 192.072 147.334 194.696C150.104 194.165 153.584 194.833 154.018 194.914C154.088 194.937 157.828 196.051 160.814 198.26C158.359 193.454 157.053 190.824 156.168 189.029C156.051 188.797 156.054 188.501 156.152 188.357C156.257 188.202 156.435 188.237 156.586 188.438C157.612 189.899 158.922 191.355 161.491 192.052C161.752 192.118 162.013 192.183 162.281 192.236C165.62 192.889 167.899 190.043 168.253 184.811C168.477 181.559 167.849 176.598 165.951 172.853C164.234 169.459 161.749 167.651 158.642 167.493C158.481 167.484 158.336 167.303 158.258 167.06C158.201 166.812 158.239 166.569 158.353 166.484C159.901 165.392 160.334 160.752 159.321 156.118C158.695 153.311 156.619 146.583 150.701 144.696C144.658 143.319 143.42 149.291 143.172 151.916C142.776 156.114 143.861 161.086 145.583 163.042C145.723 163.204 145.798 163.479 145.774 163.697C145.737 163.908 145.609 164.017 145.451 163.944C142.256 162.395 139.939 162.917 138.629 165.486C137.195 168.333 137.251 173.135 137.95 176.629C139.07 182.268 141.86 186.486 145.231 187.638C148.355 188.7 149.669 187.873 150.608 186.832C150.663 186.764 150.729 186.735 150.811 186.766Z" fill="url(#paint23_linear_506_15703)"/>
<path d="M179.953 221.202C179.263 221.687 179.208 225.4 181.257 226.05L181.29 226.052L181.315 226.066C183.349 226.509 182.755 222.627 181.975 221.754C184.033 222.856 184.159 220.592 183.914 219.36C183.668 218.16 183.098 217.356 182.264 217.015C181.431 216.674 180.951 217.578 180.802 218.073C180.944 216.977 181.24 216.135 181.592 215.573L181.551 215.5C181.149 215.653 180.667 215.511 180.527 215.465C180.527 215.465 179.959 215.358 179.454 214.905L179.425 214.955C179.887 215.747 180.32 216.822 180.636 218.045C180.409 217.452 179.77 216.244 178.969 216.137C178.162 216.043 177.677 216.547 177.605 217.665C177.513 218.789 177.959 221.212 179.953 221.202Z" fill="url(#paint24_linear_506_15703)"/>
<path d="M182.231 214.945C182.256 214.959 182.282 214.973 182.292 215.012C182.316 215.059 182.312 215.123 182.298 215.148C182.049 215.587 181.75 216.112 181.535 216.52C181.78 216.411 182.082 216.433 182.481 216.577C183.285 216.852 183.978 217.908 184.249 219.238C184.417 220.079 184.428 221.227 184.076 221.905C183.788 222.471 183.315 222.633 182.669 222.399C182.992 222.996 183.166 223.973 183.081 224.852C183.022 225.481 182.733 226.924 181.28 226.595C179.865 226.14 179.365 224.514 179.213 223.848C178.999 222.882 179.048 221.949 179.304 221.498C178.659 221.38 178.14 220.953 177.766 220.211C177.317 219.31 177.161 218.127 177.208 217.343C177.287 216.096 177.861 215.378 178.665 215.536C178.722 215.552 178.799 215.563 178.856 215.579C179.175 215.66 179.438 215.809 179.665 216.021C179.455 215.604 179.157 215.021 178.731 214.166C178.708 214.12 178.704 214.068 178.713 214.023C178.734 213.986 178.767 213.988 178.804 214.009C179.449 214.624 180.504 214.924 180.516 214.931C180.618 214.956 181.589 215.143 182.201 214.911L182.231 214.945ZM181.258 217.009C181.245 217.002 181.22 216.987 181.202 216.961C181.166 216.907 181.17 216.843 181.191 216.806C181.337 216.491 181.701 215.82 182.029 215.244C181.416 215.36 180.637 215.215 180.535 215.19C180.522 215.183 179.684 214.939 179.02 214.446C179.569 215.52 179.855 216.096 180.052 216.507C180.075 216.553 180.085 216.624 180.051 216.655C180.029 216.693 179.985 216.683 179.961 216.637C179.734 216.309 179.441 215.978 178.862 215.831C178.805 215.815 178.748 215.799 178.684 215.796C177.936 215.653 177.433 216.278 177.345 217.454C177.293 218.186 177.435 219.277 177.855 220.112C178.241 220.862 178.788 221.271 179.483 221.301C179.515 221.303 179.558 221.344 179.561 221.396C179.578 221.455 179.569 221.499 179.535 221.53C179.187 221.763 179.094 222.803 179.316 223.84C179.457 224.467 179.913 225.968 181.233 226.387C182.584 226.69 182.854 225.369 182.911 224.772C182.993 223.841 182.761 222.733 182.365 222.292C182.335 222.258 182.318 222.2 182.327 222.155C182.336 222.11 182.37 222.08 182.408 222.101C183.125 222.442 183.634 222.334 183.929 221.756C184.252 221.128 184.232 220.056 184.079 219.274C183.83 218.022 183.209 217.073 182.454 216.827C181.757 216.597 181.47 216.781 181.258 217.009C181.29 217.01 181.27 217.016 181.258 217.009Z" fill="url(#paint25_linear_506_15703)"/>
<path d="M124.786 119.512C125.476 119.026 125.531 115.314 123.481 114.663L123.449 114.662L123.424 114.648C121.39 114.205 121.984 118.087 122.764 118.96C120.699 117.87 120.58 120.122 120.825 121.354C121.058 122.547 121.641 123.358 122.474 123.699C123.295 124.033 123.788 123.136 123.937 122.641C123.795 123.736 123.499 124.579 123.159 125.148L123.2 125.221C123.602 125.068 124.085 125.21 124.224 125.256C124.224 125.256 124.785 125.375 125.297 125.815L125.326 125.765C124.865 124.973 124.431 123.899 124.115 122.676C124.342 123.269 124.981 124.476 125.782 124.583C126.589 124.678 127.081 124.162 127.159 123.063C127.213 121.917 126.767 119.494 124.786 119.512Z" fill="url(#paint26_linear_506_15703)"/>
<path d="M122.493 125.765C122.468 125.751 122.443 125.736 122.433 125.697C122.409 125.651 122.412 125.586 122.427 125.561C122.676 125.123 122.974 124.597 123.189 124.189C122.945 124.298 122.655 124.283 122.244 124.133C121.44 123.858 120.74 122.815 120.476 121.472C120.307 120.631 120.297 119.482 120.636 118.797C120.924 118.232 121.397 118.07 122.043 118.304C121.72 117.706 121.545 116.729 121.631 115.85C121.69 115.221 121.979 113.779 123.432 114.107C124.847 114.562 125.348 116.189 125.512 116.862C125.725 117.828 125.676 118.76 125.42 119.211C126.065 119.329 126.585 119.757 126.958 120.499C127.407 121.4 127.564 122.582 127.516 123.366C127.437 124.613 126.851 125.324 126.059 125.173C126.002 125.157 125.925 125.147 125.868 125.131C125.55 125.049 125.3 124.907 125.06 124.688C125.27 125.105 125.568 125.689 125.993 126.543C126.017 126.59 126.021 126.642 126.012 126.686C125.99 126.724 125.958 126.722 125.921 126.701C125.276 126.086 124.208 125.778 124.208 125.778C124.106 125.753 123.136 125.567 122.523 125.799C122.513 125.759 122.493 125.765 122.493 125.765ZM123.467 123.7C123.467 123.7 123.504 123.722 123.522 123.749C123.546 123.795 123.555 123.866 123.533 123.904C123.388 124.219 123.023 124.89 122.696 125.466C123.309 125.35 124.088 125.494 124.177 125.512C124.177 125.512 125.028 125.763 125.692 126.256C125.143 125.182 124.857 124.606 124.66 124.196C124.636 124.149 124.627 124.078 124.661 124.047C124.682 124.01 124.727 124.019 124.75 124.065C124.978 124.393 125.27 124.725 125.849 124.871C125.907 124.887 125.964 124.903 126.028 124.907C126.775 125.049 127.286 124.412 127.367 123.249C127.419 122.516 127.277 121.425 126.856 120.59C126.47 119.841 125.924 119.431 125.229 119.401C125.197 119.399 125.154 119.358 125.15 119.306C125.134 119.247 125.143 119.203 125.17 119.185C125.525 118.939 125.611 117.912 125.389 116.874C125.248 116.247 124.792 114.746 123.472 114.328C122.12 114.025 121.851 115.346 121.793 115.943C121.712 116.874 121.944 117.982 122.327 118.415C122.358 118.449 122.374 118.508 122.377 118.56C122.369 118.605 122.335 118.635 122.297 118.614C121.58 118.273 121.071 118.381 120.776 118.959C120.453 119.587 120.473 120.659 120.625 121.441C120.875 122.693 121.496 123.641 122.25 123.888C122.948 124.118 123.248 123.94 123.447 123.706L123.467 123.7Z" fill="url(#paint27_linear_506_15703)"/>
<path d="M124.262 112.558L124.227 112.124C124.427 112.122 124.577 112.091 124.67 112.044C124.763 111.997 124.825 111.917 124.87 111.81C124.902 111.695 124.917 111.522 124.902 111.315C124.887 111.107 124.847 110.886 124.797 110.625C124.739 110.377 124.67 110.09 124.584 109.775L124.245 108.506L121.298 107.744L121.188 108.609C121.127 109.038 121.097 109.352 121.098 109.585C121.086 109.81 121.1 110.017 121.117 110.192C121.163 110.549 121.251 110.831 121.402 111.033C121.552 111.234 121.744 111.393 122.008 111.51L122.056 111.951L119.467 111.26L119.413 110.831C119.625 110.835 119.807 110.69 119.931 110.413C120.063 110.123 120.163 109.684 120.253 109.089L121.751 98.8083L122.815 99.0645L125.974 110.681C126.115 111.192 126.23 111.572 126.326 111.841C126.421 112.111 126.532 112.323 126.652 112.491C126.772 112.659 126.927 112.796 127.12 112.922L127.155 113.356L124.262 112.558ZM121.384 106.981L124.044 107.664L122.213 100.942L121.384 106.981Z" fill="url(#paint28_linear_506_15703)"/>
<path d="M180.54 229.211L180.575 229.645C180.375 229.647 180.225 229.678 180.132 229.724C180.039 229.771 179.965 229.844 179.933 229.959C179.901 230.073 179.885 230.247 179.9 230.454C179.915 230.661 179.955 230.882 180.005 231.143C180.056 231.404 180.132 231.679 180.219 231.993L180.558 233.262L183.504 234.025L183.614 233.16C183.676 232.731 183.712 232.403 183.704 232.184C183.716 231.959 183.701 231.752 183.685 231.577C183.639 231.219 183.551 230.937 183.4 230.736C183.262 230.541 183.058 230.376 182.793 230.259L182.746 229.818L185.335 230.509L185.39 230.938C185.164 230.926 185.002 231.066 184.871 231.355C184.739 231.645 184.639 232.085 184.549 232.68L183.051 242.96L181.987 242.704L178.828 231.087C178.7 230.584 178.572 230.197 178.477 229.927C178.381 229.658 178.27 229.445 178.149 229.278C178.029 229.11 177.875 228.973 177.682 228.847L177.647 228.413L180.54 229.211ZM183.419 234.788L180.758 234.105L182.589 240.826L183.419 234.788Z" fill="url(#paint29_linear_506_15703)"/>
<defs>
<linearGradient id="paint0_linear_506_15703" x1="57.467" y1="184.649" x2="-30.0231" y2="207.801" gradientUnits="userSpaceOnUse">
<stop stop-color="#CDCCCB"/>
<stop offset="0.9947" stop-color="#B6B4B3"/>
</linearGradient>
<linearGradient id="paint1_linear_506_15703" x1="56.8912" y1="184.006" x2="-28.7942" y2="207.902" gradientUnits="userSpaceOnUse">
<stop stop-color="#F3F5F4"/>
<stop offset="0.7063" stop-color="#E5E5E4"/>
<stop offset="0.9947" stop-color="#D4D2D1"/>
</linearGradient>
<linearGradient id="paint2_linear_506_15703" x1="55.383" y1="183.372" x2="-31.4151" y2="208.049" gradientUnits="userSpaceOnUse">
<stop stop-color="#EF0A07"/>
<stop offset="1" stop-color="#C70000"/>
</linearGradient>
<linearGradient id="paint3_linear_506_15703" x1="55.5222" y1="183.857" x2="-31.2766" y2="208.533" gradientUnits="userSpaceOnUse">
<stop stop-color="#EF0A07"/>
<stop offset="1" stop-color="#C70000"/>
</linearGradient>
<linearGradient id="paint4_linear_506_15703" x1="44.599" y1="145.46" x2="-42.1943" y2="170.135" gradientUnits="userSpaceOnUse">
<stop stop-color="#EF0A07"/>
<stop offset="1" stop-color="#C70000"/>
</linearGradient>
<linearGradient id="paint5_linear_506_15703" x1="44.6319" y1="145.56" x2="-42.165" y2="170.234" gradientUnits="userSpaceOnUse">
<stop stop-color="#EF0A07"/>
<stop offset="1" stop-color="#C70000"/>
</linearGradient>
<linearGradient id="paint6_linear_506_15703" x1="40.5863" y1="131.328" x2="-46.2079" y2="156.004" gradientUnits="userSpaceOnUse">
<stop stop-color="#EF0A07"/>
<stop offset="1" stop-color="#C70000"/>
</linearGradient>
<linearGradient id="paint7_linear_506_15703" x1="70.5213" y1="236.63" x2="-16.2731" y2="261.308" gradientUnits="userSpaceOnUse">
<stop stop-color="#EF0A07"/>
<stop offset="1" stop-color="#C70000"/>
</linearGradient>
<linearGradient id="paint8_linear_506_15703" x1="72.5513" y1="35.3535" x2="4.34529" y2="117.068" gradientUnits="userSpaceOnUse">
<stop stop-color="#CDCCCB"/>
<stop offset="0.9947" stop-color="#B6B4B3"/>
</linearGradient>
<linearGradient id="paint9_linear_506_15703" x1="72.1206" y1="35.8693" x2="4.77551" y2="116.552" gradientUnits="userSpaceOnUse">
<stop stop-color="#F3F5F4"/>
<stop offset="0.7063" stop-color="#E5E5E4"/>
<stop offset="0.9947" stop-color="#D4D2D1"/>
</linearGradient>
<linearGradient id="paint10_linear_506_15703" x1="102.898" y1="70.1105" x2="106.828" y2="130.021" gradientUnits="userSpaceOnUse">
<stop stop-color="#2C2C28"/>
<stop offset="0.0245" stop-color="#2B2B27"/>
<stop offset="0.63" stop-color="#111511"/>
<stop offset="0.9947" stop-color="#080D09"/>
</linearGradient>
<linearGradient id="paint11_linear_506_15703" x1="60.7453" y1="47.7936" x2="12.3054" y2="106.175" gradientUnits="userSpaceOnUse">
<stop stop-color="#2C2C28"/>
<stop offset="0.0245" stop-color="#2B2B27"/>
<stop offset="0.63" stop-color="#111511"/>
<stop offset="0.9947" stop-color="#080D09"/>
</linearGradient>
<linearGradient id="paint12_linear_506_15703" x1="32.7442" y1="51.1656" x2="35.8361" y2="98.3323" gradientUnits="userSpaceOnUse">
<stop stop-color="#2C2C28"/>
<stop offset="0.0245" stop-color="#2B2B27"/>
<stop offset="0.63" stop-color="#111511"/>
<stop offset="0.9947" stop-color="#080D09"/>
</linearGradient>
<linearGradient id="paint13_linear_506_15703" x1="99.4117" y1="66.7919" x2="50.9723" y2="125.172" gradientUnits="userSpaceOnUse">
<stop stop-color="#2C2C28"/>
<stop offset="0.0245" stop-color="#2B2B27"/>
<stop offset="0.63" stop-color="#111511"/>
<stop offset="0.9947" stop-color="#080D09"/>
</linearGradient>
<linearGradient id="paint14_linear_506_15703" x1="93.3895" y1="67.5414" x2="96.4826" y2="114.703" gradientUnits="userSpaceOnUse">
<stop stop-color="#2C2C28"/>
<stop offset="0.0245" stop-color="#2B2B27"/>
<stop offset="0.63" stop-color="#111511"/>
<stop offset="0.9947" stop-color="#080D09"/>
</linearGradient>
<linearGradient id="paint15_linear_506_15703" x1="-40.0906" y1="277.641" x2="-19.0772" y2="218.97" gradientUnits="userSpaceOnUse">
<stop stop-color="#CDCCCB"/>
<stop offset="0.9947" stop-color="#B6B4B3"/>
</linearGradient>
<linearGradient id="paint16_linear_506_15703" x1="-40.128" y1="277.154" x2="-19.4133" y2="219.317" gradientUnits="userSpaceOnUse">
<stop stop-color="#F3F5F4"/>
<stop offset="0.7063" stop-color="#E5E5E4"/>
<stop offset="0.9947" stop-color="#D4D2D1"/>
</linearGradient>
<linearGradient id="paint17_linear_506_15703" x1="-0.305171" y1="289.864" x2="20.0604" y2="232.524" gradientUnits="userSpaceOnUse">
<stop stop-color="#EF0A07"/>
<stop offset="1" stop-color="#C70000"/>
</linearGradient>
<linearGradient id="paint18_linear_506_15703" x1="1.67217" y1="279.997" x2="-26.719" y2="325.516" gradientUnits="userSpaceOnUse">
<stop stop-color="#EF0A07"/>
<stop offset="1" stop-color="#C70000"/>
</linearGradient>
<linearGradient id="paint19_linear_506_15703" x1="14.7459" y1="285.83" x2="-13.9073" y2="331.771" gradientUnits="userSpaceOnUse">
<stop stop-color="#EF0A07"/>
<stop offset="1" stop-color="#C70000"/>
</linearGradient>
<linearGradient id="paint20_linear_506_15703" x1="119.18" y1="161.928" x2="184.068" y2="157.369" gradientUnits="userSpaceOnUse">
<stop stop-color="#CDCCCB"/>
<stop offset="0.9947" stop-color="#B6B4B3"/>
</linearGradient>
<linearGradient id="paint21_linear_506_15703" x1="119.651" y1="162.054" x2="183.62" y2="157.559" gradientUnits="userSpaceOnUse">
<stop stop-color="#F3F5F4"/>
<stop offset="0.7063" stop-color="#E5E5E4"/>
<stop offset="0.9947" stop-color="#D4D2D1"/>
</linearGradient>
<linearGradient id="paint22_linear_506_15703" x1="119.991" y1="162.618" x2="182.853" y2="157.625" gradientUnits="userSpaceOnUse">
<stop stop-color="#2C2C28"/>
<stop offset="0.0245" stop-color="#2B2B27"/>
<stop offset="0.63" stop-color="#111511"/>
<stop offset="0.9947" stop-color="#080D09"/>
</linearGradient>
<linearGradient id="paint23_linear_506_15703" x1="120.022" y1="162.997" x2="182.884" y2="158.004" gradientUnits="userSpaceOnUse">
<stop stop-color="#2C2C28"/>
<stop offset="0.0245" stop-color="#2B2B27"/>
<stop offset="0.63" stop-color="#111511"/>
<stop offset="0.9947" stop-color="#080D09"/>
</linearGradient>
<linearGradient id="paint24_linear_506_15703" x1="123.476" y1="206.464" x2="186.338" y2="201.471" gradientUnits="userSpaceOnUse">
<stop stop-color="#2C2C28"/>
<stop offset="0.0245" stop-color="#2B2B27"/>
<stop offset="0.63" stop-color="#111511"/>
<stop offset="0.9947" stop-color="#080D09"/>
</linearGradient>
<linearGradient id="paint25_linear_506_15703" x1="123.47" y1="206.382" x2="186.33" y2="201.389" gradientUnits="userSpaceOnUse">
<stop stop-color="#2C2C28"/>
<stop offset="0.0245" stop-color="#2B2B27"/>
<stop offset="0.63" stop-color="#111511"/>
<stop offset="0.9947" stop-color="#080D09"/>
</linearGradient>
<linearGradient id="paint26_linear_506_15703" x1="116.47" y1="118.288" x2="179.338" y2="113.296" gradientUnits="userSpaceOnUse">
<stop stop-color="#2C2C28"/>
<stop offset="0.0245" stop-color="#2B2B27"/>
<stop offset="0.63" stop-color="#111511"/>
<stop offset="0.9947" stop-color="#080D09"/>
</linearGradient>
<linearGradient id="paint27_linear_506_15703" x1="116.477" y1="118.375" x2="179.341" y2="113.381" gradientUnits="userSpaceOnUse">
<stop stop-color="#2C2C28"/>
<stop offset="0.0245" stop-color="#2B2B27"/>
<stop offset="0.63" stop-color="#111511"/>
<stop offset="0.9947" stop-color="#080D09"/>
</linearGradient>
<linearGradient id="paint28_linear_506_15703" x1="115.32" y1="103.821" x2="178.181" y2="98.8269" gradientUnits="userSpaceOnUse">
<stop stop-color="#2C2C28"/>
<stop offset="0.0245" stop-color="#2B2B27"/>
<stop offset="0.63" stop-color="#111511"/>
<stop offset="0.9947" stop-color="#080D09"/>
</linearGradient>
<linearGradient id="paint29_linear_506_15703" x1="124.707" y1="221.992" x2="187.568" y2="216.998" gradientUnits="userSpaceOnUse">
<stop stop-color="#2C2C28"/>
<stop offset="0.0245" stop-color="#2B2B27"/>
<stop offset="0.63" stop-color="#111511"/>
<stop offset="0.9947" stop-color="#080D09"/>
</linearGradient>
</defs>
</svg>
