<svg width="114" height="218" viewBox="0 0 114 218" fill="none" xmlns="http://www.w3.org/2000/svg">
<path d="M-56.5085 90.8414C-57.4569 91.7688 -57.6361 93.2336 -56.9195 94.1188L-17.5383 142.479C-16.8217 143.364 -15.4727 143.322 -14.5242 142.394L54.9012 74.3806C55.8497 73.4533 56.0288 71.9887 55.3122 71.1035L15.931 22.7435C15.2144 21.8583 13.8654 21.9004 12.917 22.8278L-56.5085 90.8414Z" fill="url(#paint0_linear_506_2187)"/>
<path d="M-55.8998 90.8941C-56.8377 91.811 -57.0274 93.2651 -56.3108 94.1397L-17.4879 141.815C-16.7818 142.689 -15.4436 142.647 -14.5057 141.73L54.2981 74.3282C55.236 73.4114 55.4257 71.957 54.7091 71.0929L15.8865 23.4179C15.1805 22.5432 13.8422 22.5857 12.9043 23.5025L-55.8998 90.8941Z" fill="url(#paint1_linear_506_2187)"/>
<path d="M6.04283 65.8976C9.0989 70.155 5.92673 76.0881 5.92673 76.0881L5.90582 76.0987C5.90582 76.0987 11.6385 73.3059 15.1583 77.1208C18.678 80.9356 17.287 87.9329 12.7135 91.01C8.13988 94.0872 1.00536 92.8964 -3.52607 92.5064C-8.05749 92.106 -11.6191 93.2863 -11.6191 93.2863L-11.6088 93.276C-11.6088 93.276 -10.1439 89.5243 -9.99635 84.5398C-9.84881 79.5552 -10.1229 71.6516 -6.8244 67.0148C-3.52595 62.378 2.98675 61.6401 6.04283 65.8976Z" fill="url(#paint2_linear_506_2187)"/>
<path d="M-13.5676 95.1095C-13.6414 95.0147 -13.6622 94.8777 -13.62 94.7513C-13.6095 94.7091 -12.1764 90.6202 -11.913 85.193L-11.8393 83.6017C-11.5337 77.0786 -11.1648 68.9643 -7.78203 65.2653C-5.54793 62.8205 -2.39707 61.3031 0.65901 61.1977C3.34625 61.1134 5.62252 62.1249 7.06625 64.1272C9.78511 67.8683 8.91046 71.9362 8.3414 73.6434C9.95374 73.2218 13.7266 72.7158 16.8143 76.1091C18.4582 77.9006 19.1326 80.514 18.7532 83.4226C18.3211 86.7421 16.5824 90.0091 14.127 92.1695C10.3754 95.4468 3.31482 94.9831 -2.90271 94.5615L-4.2306 94.4773C-9.17302 94.1611 -13.2093 95.2151 -13.2409 95.2256C-13.3779 95.2362 -13.4939 95.2044 -13.5676 95.1095ZM16.3084 76.6571C12.9256 72.9476 8.6788 74.2439 7.86736 74.539C7.7409 74.5812 7.60369 74.5496 7.51939 74.4547C7.43508 74.3494 7.42457 74.2016 7.47726 74.0646C7.83556 73.2111 9.48994 68.7218 6.50763 64.6225C5.17982 62.8099 3.08274 61.8509 0.606268 61.9352C-2.27066 62.03 -5.23172 63.4527 -7.31829 65.75C-10.4797 69.2171 -10.8487 77.1631 -11.1437 83.5493L-11.2174 85.1509C-11.4387 89.5453 -12.3768 93.0231 -12.7877 94.3615C-11.4915 94.0875 -8.09802 93.4763 -4.12512 93.7292L-2.78694 93.8135C2.99854 94.2034 10.2066 94.6879 13.7369 91.6002C16.0553 89.5769 17.6784 86.5104 18.0788 83.3911C18.416 80.8408 17.8678 78.554 16.5506 76.9311C16.4663 76.8362 16.3927 76.7414 16.3084 76.6571Z" fill="url(#paint3_linear_506_2187)"/>
<path d="M37.8975 77.9112C38.5508 78.8175 37.8766 80.082 37.8766 80.082C37.8766 80.082 39.0988 79.4919 39.847 80.3033C40.5952 81.1147 40.3004 82.6006 39.3308 83.254C38.3613 83.9074 36.8438 83.6544 35.8743 83.5701C34.9048 83.4858 34.146 83.7386 34.146 83.7386C34.146 83.7386 34.4515 82.9378 34.4936 81.884C34.5253 80.8196 34.4725 79.144 35.168 78.1534C35.8636 77.1523 37.2441 76.9944 37.8975 77.9112Z" fill="url(#paint4_linear_506_2187)"/>
<path d="M33.7265 84.1182C33.7054 84.0971 33.7053 84.0656 33.7159 84.0446C33.7159 84.0446 34.0218 83.17 34.0745 82.0108L34.0954 81.6734C34.1586 80.2824 34.2429 78.5542 34.9595 77.7743C35.4337 77.258 36.1081 76.9313 36.7614 76.9102C37.3305 76.8891 37.8152 77.1103 38.1208 77.5318C38.7004 78.3327 38.5108 79.1971 38.3948 79.5554C38.7426 79.4605 39.5437 79.355 40.1971 80.0821C40.5448 80.4615 40.6924 81.0201 40.6081 81.6419C40.5133 82.348 40.1445 83.0435 39.6176 83.5072C38.8167 84.2027 37.32 84.1076 35.9922 84.0127L35.7079 83.9918C34.6541 83.9286 33.7898 84.1497 33.7898 84.1497C33.7688 84.1497 33.737 84.1393 33.7265 84.1182ZM40.081 80.1979C39.3644 79.4075 38.4582 79.6815 38.2791 79.7448C38.2475 79.7553 38.2265 79.7449 38.2054 79.7239C38.1843 79.7028 38.1843 79.6712 38.1948 79.6396C38.2686 79.4605 38.627 78.5014 37.9842 77.6267C37.6996 77.2368 37.2568 77.0367 36.7299 77.0578C36.1187 77.0789 35.4864 77.3844 35.0438 77.8692C34.3693 78.6069 34.2956 80.2928 34.2324 81.6522L34.2218 81.9895C34.1691 82.9274 33.9796 83.6652 33.8847 83.9497C34.1587 83.8865 34.8857 83.76 35.7288 83.8127L36.0134 83.8336C37.2464 83.9179 38.7742 84.0235 39.533 83.3702C40.0283 82.9381 40.3656 82.2846 40.4605 81.6207C40.5342 81.0832 40.4183 80.5879 40.1337 80.2507C40.1127 80.2296 40.1021 80.2085 40.081 80.1979Z" fill="url(#paint5_linear_506_2187)"/>
<path d="M38.5557 74.2436L38.7769 74.0329C38.9245 74.1489 39.0722 74.2122 39.2092 74.2333C39.3462 74.2544 39.504 74.2332 39.6726 74.1699C39.8412 74.1067 40.0837 74.0013 40.3788 73.8538L47.3341 70.3763L47.9872 71.2193L44.0039 78.2694C43.7721 78.6698 43.6246 79.0174 43.5614 79.2914C43.4876 79.5654 43.5191 79.808 43.635 80.0083L43.4031 80.1977L41.7697 78.1954L41.991 77.9954C42.1807 78.1745 42.36 78.2692 42.5181 78.2903C42.6867 78.3114 42.8552 78.2377 43.0449 78.0796C43.1397 77.9953 43.2347 77.89 43.3401 77.7635C43.4455 77.637 43.5719 77.4263 43.7405 77.1312L44.0775 76.5517L42.2335 74.2542L41.4748 74.6337C41.2851 74.7285 41.1165 74.8128 40.969 74.9077C40.832 74.992 40.7055 75.0869 40.6001 75.1817C40.4947 75.2871 40.421 75.3818 40.3894 75.4872C40.3578 75.5821 40.3577 75.698 40.3788 75.8033C40.4104 75.9193 40.4737 76.0668 40.5686 76.2565L40.3473 76.4568L38.5557 74.2436ZM46.7754 71.957L42.7394 73.9699L44.4043 76.0458L46.7754 71.957Z" fill="url(#paint6_linear_506_2187)"/>
<path d="M52.3 4.79804C52.1735 3.73368 52.7744 3.24896 53.6491 3.71264L101.324 28.8566C102.198 29.3203 102.999 30.5429 103.126 31.6073L112.315 109.421C112.442 110.486 111.841 110.97 110.966 110.507L63.2913 85.3624C62.4167 84.9093 61.6159 83.6765 61.4894 82.6121L52.3 4.79804Z" fill="url(#paint7_linear_506_2187)"/>
<path d="M52.7009 5.33554C52.5744 4.28172 53.1752 3.797 54.0288 4.25014L101.029 29.0359C101.883 29.489 102.684 30.7115 102.81 31.7653L111.926 108.884C112.052 109.938 111.452 110.423 110.598 109.969L63.5977 85.1834C62.7441 84.7303 61.9431 83.5079 61.8167 82.4646L52.7009 5.33554Z" fill="url(#paint8_linear_506_2187)"/>
<path d="M104.454 95.785L104.486 96.0272C104.338 95.9745 104.222 95.9535 104.149 95.9535C104.075 95.9535 104.022 95.9745 104.001 96.0272C103.969 96.0798 103.97 96.1644 103.98 96.2909C104.001 96.4068 104.022 96.5332 104.075 96.6913C104.117 96.8388 104.18 97.0075 104.254 97.2077L104.528 97.977L106.773 99.1467L106.846 98.7144C106.888 98.5037 106.91 98.3351 106.91 98.2192C106.91 98.1033 106.91 97.9875 106.889 97.8821C106.857 97.6819 106.783 97.5026 106.667 97.355C106.562 97.2075 106.404 97.0707 106.204 96.9337L106.162 96.6913L108.143 97.7345L108.185 97.977C108.016 97.9138 107.89 97.9451 107.795 98.0716C107.7 98.198 107.626 98.4091 107.563 98.7042L106.551 103.857L105.74 103.446L103.19 96.3751C103.084 96.0695 102.989 95.8272 102.905 95.6586C102.831 95.49 102.747 95.3423 102.652 95.2264C102.557 95.1104 102.442 94.9946 102.294 94.8787L102.262 94.6362L104.454 95.785ZM106.72 99.5365L104.697 98.4826L106.183 102.582L106.72 99.5365Z" fill="url(#paint9_linear_506_2187)"/>
<path d="M60.1809 18.4449L60.149 18.2027C60.2966 18.2554 60.4126 18.2764 60.4864 18.2764C60.5602 18.2764 60.6129 18.2554 60.634 18.2027C60.6656 18.1501 60.6655 18.0658 60.6549 17.9394C60.6444 17.8234 60.6128 17.6967 60.5707 17.5386C60.5285 17.3911 60.4653 17.2227 60.3915 17.0225L60.1175 16.2532L57.8731 15.0832L57.7991 15.5155C57.757 15.7262 57.7361 15.8948 57.7361 16.0107C57.7361 16.1266 57.7464 16.2427 57.757 16.3481C57.7886 16.5483 57.8623 16.7273 57.9782 16.8749C58.0836 17.0224 58.2418 17.1595 58.442 17.2965L58.4841 17.5386L56.5031 16.4954L56.4609 16.2532C56.6295 16.3164 56.7559 16.2848 56.8507 16.1583C56.9456 16.0319 57.0193 15.8211 57.072 15.5261L58.0837 10.3727L58.8951 10.7837L61.4454 17.8548C61.5613 18.1604 61.6457 18.403 61.73 18.5716C61.8038 18.7402 61.888 18.8876 61.9828 19.0035C62.0777 19.1194 62.1935 19.2356 62.3411 19.3515L62.3729 19.5937L60.1809 18.4449ZM57.9152 14.6934L59.949 15.7473L58.4632 11.6479L57.9152 14.6934Z" fill="url(#paint10_linear_506_2187)"/>
<path d="M70.859 48.8792C71.8496 53.1472 74.5156 56.7408 77.3714 60.5135C80.2273 64.2861 83.8948 70.5985 83.8948 70.5985C83.8948 70.5985 86.5082 67.5953 88.795 66.5309C91.0818 65.4666 93.1999 64.3917 93.2421 60.6823C93.2948 56.9728 90.049 52.3148 87.3407 50.4811C84.6324 48.658 83.0199 49.5012 81.9134 51.3559C82.1768 48.2893 83.4204 46.5715 84.5058 45.6336L84.3794 45.3596C82.4088 45.2121 80.8386 44.3164 80.8386 44.3164V44.327C80.4592 44.1478 78.9101 43.3995 76.971 41.45L76.8974 41.5236C78.3517 43.7998 80.2485 47.1828 81.3445 51.0398C79.6267 47.6991 77.5823 44.9169 74.9794 43.9369C72.3659 42.9884 69.8684 44.6218 70.859 48.8792Z" fill="url(#paint11_linear_506_2187)"/>
<path d="M74.5061 38.5519C74.5272 38.5624 74.5484 38.5834 74.5801 38.594C77.9628 41.3655 79.4172 42.1346 80.5869 42.7458C81.7566 43.3571 83.2108 44.1264 86.3407 44.8009C86.4355 44.8219 86.5618 44.9273 86.6356 45.0643C86.7093 45.2013 86.7095 45.3383 86.6568 45.391C85.9086 46.1392 85.3815 46.7505 84.823 47.4039C84.6228 47.6357 84.4227 47.8674 84.212 48.1098C85.2658 48.1098 86.5199 48.521 87.8477 49.3641C89.4916 50.3968 91.2303 52.2936 92.5054 54.4434C93.4538 56.0452 94.5921 58.5321 94.6132 61.2404C94.6448 65.6559 92.1157 66.8257 89.6708 67.9638C87.2892 69.0703 84.6018 72.1371 84.2962 72.4849C84.2541 72.527 84.1909 72.5271 84.1171 72.4955L84.0644 72.4636C83.9906 72.4215 83.9064 72.3478 83.8537 72.253C83.4322 71.5259 79.6174 65.0343 76.6351 61.0825C73.6106 57.0885 70.4913 52.9679 69.4164 47.9728C68.7736 44.9905 69.4162 43.5048 70.0696 42.7777C70.9759 41.7766 72.5039 41.5866 74.1584 42.2927C75.5495 42.8828 76.9088 43.9261 77.9205 44.8851C77.5833 44.3161 77.2776 43.7786 76.9615 43.2517C76.1606 41.8923 75.4124 40.6068 74.3797 38.9207C74.2954 38.7837 74.2745 38.6465 74.3167 38.5728C74.3483 38.5095 74.4218 38.5097 74.5061 38.5519ZM83.3266 48.8897C83.2634 48.8581 83.1896 48.7949 83.1369 48.7106C83.042 48.563 83.0106 48.3945 83.0738 48.3208C83.5691 47.7833 83.98 47.3196 84.3805 46.8559C84.8336 46.329 85.2553 45.8337 85.8033 45.2646C83.0949 44.6218 81.6932 43.8842 80.6499 43.3257C79.6067 42.7777 78.2051 42.0399 75.2966 39.7215C76.0553 40.9756 76.6666 42.0187 77.3095 43.1147C77.8785 44.0948 78.458 45.0853 79.1535 46.2445C79.2484 46.3921 79.2588 46.5607 79.185 46.6134C79.1113 46.6766 78.9745 46.6134 78.8586 46.4764C77.9207 45.3172 76.0765 43.6627 74.2639 42.8935C72.7359 42.2401 71.3343 42.4087 70.4912 43.3466C69.8905 44.021 69.2898 45.391 69.8905 48.1626C70.9232 52.9153 73.9582 56.9305 76.8879 60.8085C79.6383 64.4547 83.0736 70.1981 84.001 71.7683C84.6544 71.0307 87.0995 68.375 89.3019 67.3528C91.789 66.1936 94.1495 65.0976 94.1179 60.9034C94.0968 58.3742 93.043 56.0769 92.1684 54.591C90.9881 52.5993 89.3861 50.85 87.8686 49.9121C87.6473 49.7751 87.4262 49.6485 87.2154 49.5326C85.7822 48.7738 84.4121 48.5526 83.4742 48.9109C83.4321 48.9215 83.3793 48.9213 83.3266 48.8897Z" fill="url(#paint12_linear_506_2187)"/>
<path d="M102.315 89.9364C102.526 90.8111 103.074 91.5593 103.664 92.3391C104.254 93.119 105.013 94.4257 105.013 94.4257C105.013 94.4257 105.551 93.8037 106.025 93.5824C106.499 93.3611 106.931 93.1399 106.941 92.3706C106.952 91.6014 106.278 90.6422 105.719 90.2629C105.161 89.8835 104.823 90.0626 104.602 90.442C104.655 89.8097 104.918 89.4514 105.14 89.2617L105.119 89.2093C104.718 89.1777 104.391 88.9983 104.391 88.9983C104.318 88.9667 103.991 88.8087 103.59 88.4082L103.58 88.4188C103.875 88.8825 104.265 89.5886 104.497 90.379C104.138 89.6834 103.717 89.1143 103.179 88.9141C102.621 88.7244 102.104 89.0618 102.315 89.9364Z" fill="url(#paint13_linear_506_2187)"/>
<path d="M103.064 87.8074L103.075 87.818C103.77 88.3871 104.076 88.5451 104.318 88.6716C104.56 88.798 104.856 88.9562 105.509 89.0932C105.53 89.0932 105.551 89.1248 105.572 89.1459C105.583 89.1775 105.593 89.1987 105.572 89.2093C105.414 89.3673 105.309 89.4938 105.193 89.6203C105.151 89.673 105.109 89.7149 105.066 89.7676C105.288 89.7676 105.54 89.8521 105.814 90.0313C106.152 90.242 106.51 90.6319 106.773 91.0745C106.974 91.4012 107.206 91.9176 107.206 92.4761C107.216 93.3824 106.689 93.6246 106.183 93.867C105.688 94.0988 105.14 94.731 105.077 94.8048C105.077 94.8048 105.056 94.8153 105.035 94.8048L105.024 94.7945C105.003 94.784 104.993 94.7734 104.982 94.7524C104.898 94.6048 104.107 93.2662 103.496 92.4442C102.874 91.6223 102.231 90.7688 102 89.736C101.863 89.1248 102 88.8088 102.137 88.6613C102.326 88.4505 102.643 88.4189 102.98 88.5664C103.264 88.6928 103.549 88.9036 103.759 89.1038C103.686 88.9879 103.623 88.8718 103.559 88.7664C103.391 88.4819 103.243 88.2185 103.022 87.8708C103.001 87.8392 103.001 87.8182 103.011 87.7971C103.032 87.7971 103.043 87.7969 103.064 87.8074ZM104.887 89.9364L104.845 89.9046C104.824 89.873 104.824 89.8414 104.835 89.8203C104.94 89.7149 105.024 89.6096 105.098 89.5148C105.193 89.4094 105.277 89.304 105.393 89.188C104.834 89.051 104.539 88.9036 104.329 88.7876C104.118 88.6717 103.823 88.524 103.222 88.0393C103.38 88.3027 103.507 88.5136 103.633 88.7349C103.749 88.9351 103.876 89.1459 104.013 89.3778C104.034 89.4094 104.023 89.4514 104.023 89.4514C104.023 89.4514 103.981 89.4515 103.96 89.4199C103.77 89.1775 103.38 88.8402 103.011 88.6822C102.695 88.5452 102.411 88.5873 102.231 88.777C102.105 88.914 101.989 89.1985 102.105 89.7676C102.316 90.7476 102.948 91.5803 103.549 92.3812C104.118 93.1294 104.824 94.3202 105.014 94.6469C105.151 94.4993 105.657 93.9514 106.11 93.7406C106.626 93.4982 107.111 93.2769 107.1 92.4127C107.1 91.8964 106.879 91.4117 106.7 91.1061C106.457 90.6951 106.12 90.3367 105.814 90.1364C105.772 90.1048 105.72 90.0839 105.677 90.0628C105.382 89.9047 105.098 89.8626 104.908 89.9364H104.887Z" fill="url(#paint14_linear_506_2187)"/>
<path d="M62.3236 24.0727C62.1128 23.1875 61.5649 22.4391 60.9642 21.6488C60.3635 20.8584 59.6048 19.541 59.6048 19.541C59.6048 19.541 59.0566 20.1629 58.5824 20.3843C58.1082 20.6056 57.6654 20.8268 57.6549 21.6067C57.6444 22.3759 58.3189 23.356 58.8879 23.7353C59.457 24.1147 59.7836 23.9356 60.0155 23.5562C59.9628 24.199 59.6994 24.5574 59.4781 24.7471L59.4993 24.7998C59.9103 24.8314 60.237 25.0211 60.237 25.0211C60.3108 25.0632 60.6374 25.2211 61.0484 25.6215L61.059 25.6112C60.7534 25.137 60.3634 24.4307 60.1316 23.6298C60.4898 24.3254 60.9115 24.9051 61.4594 25.1053C62.0074 25.295 62.5343 24.9579 62.3236 24.0727Z" fill="url(#paint15_linear_506_2187)"/>
<path d="M61.5662 26.2221C61.5557 26.2115 61.5557 26.2221 61.5662 26.2221C60.8496 25.6319 60.5441 25.4741 60.3017 25.3476C60.0593 25.2212 59.7539 25.0629 59.1005 24.9154C59.0794 24.9154 59.0582 24.8837 59.0372 24.8627C59.0266 24.831 59.0161 24.8101 59.0372 24.789C59.1952 24.6309 59.3007 24.5044 59.4166 24.3674C59.4588 24.3147 59.5009 24.2725 59.543 24.2198C59.3217 24.2198 59.0584 24.1355 58.7844 23.9564C58.4366 23.7456 58.0782 23.3451 57.8147 22.9025C57.6145 22.5653 57.3828 22.0489 57.3722 21.4904C57.3617 20.5735 57.8885 20.3207 58.4049 20.0888C58.9002 19.857 59.4586 19.2143 59.5218 19.151C59.5323 19.1405 59.5429 19.1405 59.5639 19.151L59.5745 19.1616C59.5851 19.1722 59.6061 19.1827 59.6167 19.2038C59.701 19.3513 60.5019 20.7108 61.1237 21.5328C61.756 22.3653 62.4094 23.2186 62.6307 24.2619C62.7677 24.8837 62.6307 25.1896 62.4937 25.3476C62.304 25.5584 61.9879 25.5898 61.6402 25.4528C61.3557 25.3263 61.0711 25.1156 60.8603 24.9154C60.9341 25.0313 60.9974 25.1474 61.0607 25.2528C61.2293 25.5373 61.3873 25.8007 61.5981 26.159C61.6191 26.1906 61.6189 26.2116 61.6083 26.2327C61.5978 26.2327 61.5768 26.2326 61.5662 26.2221ZM59.7222 24.0619C59.7327 24.0724 59.7538 24.0829 59.7643 24.104C59.7854 24.1356 59.7854 24.1672 59.7749 24.1883C59.6695 24.3042 59.5852 24.3989 59.5009 24.4938C59.4061 24.5992 59.3216 24.7046 59.2057 24.8205C59.7747 24.9575 60.0595 25.105 60.2808 25.2209C60.5021 25.3368 60.7865 25.4951 61.3977 25.9693C61.2396 25.7058 61.1131 25.4843 60.9761 25.263C60.8602 25.0628 60.7338 24.8523 60.5863 24.6099C60.5652 24.5783 60.5651 24.5464 60.5757 24.5359C60.5862 24.5254 60.618 24.5361 60.639 24.5677C60.8393 24.8101 61.2187 25.1577 61.5981 25.3158C61.9142 25.4528 62.2091 25.4106 62.3882 25.2209C62.5147 25.0839 62.6414 24.7994 62.5149 24.2198C62.3042 23.2292 61.6719 22.3861 61.0607 21.5852C60.4811 20.8265 59.7748 19.6253 59.5745 19.2986C59.4375 19.4567 58.9319 20.0048 58.4682 20.2155C57.9519 20.4579 57.4566 20.6896 57.4671 21.5643C57.4671 22.0912 57.6884 22.5654 57.8781 22.8816C58.1205 23.2926 58.4576 23.6613 58.7738 23.8615C58.8159 23.8931 58.8686 23.9142 58.9108 23.9458C59.2058 24.1038 59.4904 24.1462 59.6906 24.0725C59.7012 24.0619 59.7116 24.0619 59.7222 24.0619Z" fill="url(#paint16_linear_506_2187)"/>
<path d="M26.8639 216.572C25.6941 217.341 24.5771 217.299 24.3663 216.466L12.5321 170.73C12.3108 169.898 13.08 168.591 14.2498 167.822L99.6301 111.073C100.8 110.304 101.917 110.346 102.128 111.19L113.962 156.925C114.184 157.758 113.414 159.065 112.245 159.834L26.8639 216.572Z" fill="url(#paint17_linear_506_2187)"/>
<path d="M27.1599 215.971C26.0113 216.74 24.8941 216.687 24.6833 215.865L13.0176 170.783C12.8068 169.961 13.5654 168.675 14.7246 167.906L99.3467 111.664C100.495 110.894 101.612 110.947 101.823 111.769L113.489 156.852C113.699 157.674 112.941 158.959 111.782 159.728L27.1599 215.971Z" fill="url(#paint18_linear_506_2187)"/>
<path d="M66.6783 165.461C69.1653 166.631 79.8616 160.772 78.3968 153.869L78.4074 153.858C78.3968 153.827 78.3861 153.806 78.3755 153.774C78.365 153.743 78.3652 153.711 78.3546 153.679L78.344 153.69C76.3312 147.156 66.1829 155.144 64.9394 158.791C64.7286 151.129 58.0791 154.449 54.9598 157.146C51.9248 159.771 50.5863 162.732 50.9446 165.64C51.3029 168.549 54.7067 168.454 56.3401 168.106C52.9784 169.487 50.1121 170.014 47.8991 169.929L47.7515 170.161C48.858 171.057 49.2059 172.669 49.3218 173.154H49.3112C49.3112 173.154 49.9013 174.924 49.4376 177.116H49.6167C51.1448 174.534 53.4738 171.51 56.4877 168.654C55.1705 170.267 52.7362 174.06 53.7689 176.526C54.8017 178.992 57.0568 179.561 60.3553 177.97C63.7486 176.326 69.9135 171.12 66.6783 165.461Z" fill="url(#paint19_linear_506_2187)"/>
<path d="M45.0977 169.086C45.0766 169.012 45.1082 168.907 45.182 168.802C45.2874 168.665 45.4453 168.559 45.5718 168.559C47.2263 168.559 49.2288 168.538 50.7463 168.496C50.0403 167.959 49.6185 167.105 49.3551 165.704C48.8387 162.953 50.7038 159.275 54.1077 156.324C56.2259 154.491 59.4824 152.594 62.001 152.467C64.0771 152.373 65.3204 153.448 65.6998 155.692C66.88 153.806 69.3987 151.698 72.0121 150.529C73.9195 149.675 78.5142 148.179 79.9158 152.858C80.9274 157.652 77.1023 161.72 75.4057 163.238C73.0029 165.398 70.2417 166.789 68.5556 166.778C69.2827 168.791 68.872 170.962 67.365 173.238C65.5314 175.999 62.391 178.36 60.0936 179.466C56.3842 181.247 53.444 180.763 52.601 178.233C52.5272 178.033 52.4745 177.833 52.4218 177.643C52.1479 176.589 52.1161 175.63 52.3585 174.619C51.4944 175.915 50.3036 177.686 48.5964 180.288C48.5016 180.436 48.3433 180.541 48.2063 180.552C48.0693 180.562 48.0062 180.468 48.0378 180.331C48.7333 177.496 47.9219 173.966 47.9114 173.934C47.806 173.607 46.7627 170.551 45.1399 169.15C45.1188 169.139 45.1083 169.107 45.0977 169.086ZM52.5691 168.538C52.5797 168.601 52.5694 168.675 52.5167 168.759C52.4324 168.917 52.2533 169.055 52.1057 169.055C50.9571 169.128 48.4699 169.181 46.2674 169.192C47.6057 170.762 48.4383 173.217 48.5437 173.523C48.5542 173.576 49.1971 176.358 48.8704 179.055C51.0413 175.757 52.2424 173.976 53.0644 172.764C53.1698 172.606 53.3596 172.501 53.486 172.511C53.623 172.522 53.6653 172.648 53.5915 172.817C53.033 173.997 52.5796 175.357 53.0644 177.243C53.1171 177.433 53.17 177.622 53.2332 177.812C54.0236 180.172 56.658 180.594 60.1145 178.929C62.2643 177.896 65.194 175.704 66.8906 173.143C68.4292 170.825 68.6821 168.591 67.6599 166.557C67.6072 166.452 67.6705 166.294 67.7969 166.157C67.9339 166.03 68.1025 165.967 68.1973 166.009C69.4514 166.599 72.5601 165.198 75.1419 162.879C76.7016 161.467 80.232 157.715 79.2941 153.268C77.9874 148.927 73.7405 150.297 71.9806 151.087C69.1669 152.352 66.3955 154.839 65.7737 156.641C65.721 156.788 65.5733 156.936 65.4258 156.999C65.2782 157.052 65.1623 157.009 65.1518 156.883C64.9831 154.291 63.8134 153.005 61.7058 153.1C59.3769 153.216 56.342 154.986 54.3714 156.693C51.1889 159.444 49.5132 162.742 49.9979 165.303C50.4511 167.674 51.4522 168.212 52.4534 168.433C52.5166 168.444 52.5586 168.475 52.5691 168.538Z" fill="url(#paint20_linear_506_2187)"/>
<path d="M41.1902 199.52C40.6316 199.257 38.2498 200.564 38.5765 202.102L38.5871 202.124V202.144C39.0403 203.599 41.2957 201.818 41.5697 201.007C41.6118 202.714 43.0977 201.976 43.7932 201.375C44.4677 200.785 44.7732 200.132 44.6889 199.478C44.6046 198.825 43.8562 198.846 43.4874 198.93C44.2356 198.625 44.8785 198.509 45.3633 198.53L45.3948 198.477C45.1524 198.277 45.0682 197.919 45.0471 197.813C45.0471 197.813 44.9102 197.413 45.0156 196.928H44.9735C44.6363 197.508 44.1091 198.172 43.4452 198.815C43.7403 198.456 44.2779 197.613 44.0566 197.065C43.8248 196.517 43.3294 196.391 42.5917 196.749C41.8435 197.097 40.463 198.256 41.1902 199.52Z" fill="url(#paint21_linear_506_2187)"/>
<path d="M45.9938 198.709C45.9938 198.73 45.994 198.752 45.9729 198.773C45.9518 198.804 45.9094 198.825 45.8883 198.825C45.5195 198.825 45.0771 198.825 44.7399 198.836C44.8979 198.952 44.9927 199.152 45.0454 199.458C45.1613 200.069 44.7397 200.891 43.9915 201.544C43.5173 201.955 42.7902 202.377 42.2317 202.398C41.768 202.419 41.494 202.176 41.4097 201.681C41.1462 202.103 40.5877 202.566 39.9976 202.83C39.576 203.019 38.5539 203.357 38.2378 202.313C38.0165 201.249 38.8701 200.343 39.2389 200.006C39.7763 199.521 40.3874 199.215 40.7668 199.215C40.6087 198.762 40.693 198.277 41.0302 197.771C41.4412 197.16 42.137 196.633 42.6533 196.38C43.4753 195.98 44.1392 196.085 44.3289 196.654C44.3394 196.696 44.3605 196.749 44.371 196.791C44.4342 197.023 44.4343 197.244 44.3816 197.466C44.5713 197.181 44.8346 196.781 45.2245 196.201C45.2456 196.169 45.2772 196.149 45.3088 196.138C45.3404 196.138 45.3509 196.159 45.3509 196.191C45.1928 196.823 45.3828 197.603 45.3828 197.613C45.4038 197.687 45.6356 198.372 46.0044 198.678L45.9938 198.709ZM44.3289 198.836C44.3289 198.825 44.3289 198.804 44.3395 198.783C44.3606 198.741 44.4024 198.72 44.434 198.72C44.6869 198.699 45.2456 198.688 45.7304 198.688C45.4353 198.341 45.2456 197.792 45.2245 197.719C45.2245 197.708 45.0771 197.086 45.1509 196.486C44.6661 197.223 44.4025 197.613 44.2128 197.887C44.1917 197.919 44.1495 197.951 44.1179 197.94C44.0863 197.94 44.0759 197.908 44.097 197.877C44.2235 197.613 44.3287 197.308 44.2128 196.886C44.2022 196.844 44.1917 196.802 44.1706 196.76C43.9915 196.233 43.4119 196.138 42.6321 196.507C42.1473 196.739 41.5045 197.223 41.1251 197.792C40.7879 198.309 40.7247 198.804 40.9566 199.257C40.9671 199.278 40.9567 199.32 40.9251 199.342C40.8934 199.373 40.8618 199.384 40.8302 199.373C40.5562 199.236 39.8606 199.552 39.281 200.069C38.9333 200.385 38.1428 201.217 38.3535 202.208C38.6486 203.177 39.5865 202.872 39.9869 202.693C40.6087 202.408 41.2306 201.86 41.3676 201.449C41.3781 201.418 41.4096 201.386 41.4412 201.375C41.4728 201.365 41.5046 201.376 41.5046 201.407C41.5467 201.987 41.7996 202.271 42.2738 202.25C42.7902 202.229 43.4646 201.829 43.9072 201.449C44.6133 200.838 44.9928 200.1 44.8769 199.531C44.7715 199.004 44.5502 198.888 44.3289 198.836C44.3394 198.857 44.3289 198.846 44.3289 198.836Z" fill="url(#paint22_linear_506_2187)"/>
<path d="M85.9531 127.682C86.5117 127.945 88.8935 126.639 88.5668 125.1L88.5562 125.079V125.058C88.103 123.604 85.848 125.384 85.574 126.196C85.5213 124.489 84.0459 125.227 83.3504 125.827C82.676 126.407 82.3701 127.071 82.4544 127.724C82.5388 128.367 83.2871 128.356 83.6559 128.272C82.9077 128.578 82.2648 128.694 81.7801 128.683L81.7485 128.736C81.9909 128.936 82.0751 129.294 82.0962 129.4C82.0962 129.4 82.2229 129.8 82.128 130.285H82.1702C82.5074 129.705 83.0342 129.041 83.6981 128.398C83.403 128.757 82.8654 129.6 83.0867 130.148C83.3186 130.696 83.8245 130.822 84.5516 130.474C85.2998 130.095 86.6803 128.936 85.9531 127.682Z" fill="url(#paint23_linear_506_2187)"/>
<path d="M81.1468 128.482C81.1468 128.461 81.147 128.44 81.1681 128.419C81.1891 128.388 81.2313 128.367 81.2523 128.367C81.6212 128.367 82.0639 128.367 82.4011 128.356C82.243 128.24 82.1479 128.05 82.0952 127.734C81.9793 127.123 82.3904 126.301 83.1491 125.648C83.6233 125.237 84.3504 124.815 84.9089 124.784C85.3726 124.763 85.6466 125.005 85.7309 125.5C85.9944 125.079 86.5529 124.615 87.1431 124.351C87.5646 124.162 88.5867 123.825 88.9029 124.868C89.1242 125.932 88.2706 126.839 87.9017 127.186C87.3643 127.671 86.7532 127.976 86.3738 127.976C86.5319 128.43 86.4476 128.915 86.1104 129.42C85.6994 130.032 85.004 130.558 84.4876 130.811C83.6656 131.212 83.0018 131.096 82.8121 130.537C82.8016 130.495 82.7802 130.443 82.7696 130.4C82.7064 130.169 82.7067 129.958 82.7593 129.726C82.5697 130.011 82.306 130.411 81.9161 130.991C81.895 131.022 81.8635 131.043 81.8319 131.054C81.8002 131.054 81.7897 131.033 81.7897 131.001C81.9478 130.369 81.7582 129.578 81.7582 129.578C81.7371 129.505 81.5051 128.82 81.1362 128.514C81.1573 128.493 81.1468 128.482 81.1468 128.482ZM82.8121 128.356C82.8121 128.356 82.812 128.388 82.8015 128.409C82.7804 128.44 82.7382 128.472 82.7066 128.472C82.4537 128.493 81.895 128.504 81.4102 128.504C81.7053 128.851 81.895 129.399 81.9161 129.463C81.9161 129.463 82.0638 130.095 81.9901 130.695C82.4748 129.958 82.7382 129.568 82.9279 129.294C82.9489 129.262 82.9911 129.23 83.0227 129.241C83.0544 129.241 83.0647 129.273 83.0436 129.304C82.9172 129.568 82.8119 129.873 82.9279 130.295C82.9384 130.337 82.9489 130.379 82.97 130.421C83.1491 130.948 83.7392 131.043 84.5085 130.674C84.9933 130.443 85.6362 129.958 86.0156 129.389C86.3528 128.872 86.4159 128.377 86.1841 127.924C86.1735 127.903 86.1843 127.861 86.2159 127.839C86.2475 127.808 86.2791 127.797 86.3002 127.808C86.5847 127.945 87.2697 127.629 87.8493 127.112C88.1971 126.796 88.9873 125.964 88.7765 124.973C88.4814 124.004 87.5435 124.309 87.1431 124.488C86.5213 124.773 85.8998 125.321 85.7628 125.721C85.7522 125.753 85.7204 125.785 85.6888 125.806C85.6572 125.816 85.6258 125.806 85.6258 125.774C85.5836 125.195 85.3307 124.91 84.8565 124.931C84.3401 124.952 83.6654 125.353 83.2228 125.732C82.5167 126.343 82.1375 127.081 82.2535 127.65C82.3589 128.177 82.5802 128.303 82.8015 128.345L82.8121 128.356Z" fill="url(#paint24_linear_506_2187)"/>
<path d="M90.188 124.836L90.4514 124.657C90.5252 124.784 90.5991 124.868 90.6624 124.91C90.7256 124.953 90.7993 124.963 90.8836 124.952C90.9679 124.931 91.0839 124.879 91.2104 124.794C91.3368 124.71 91.4632 124.605 91.6108 124.478C91.7478 124.352 91.9059 124.204 92.0745 124.036L92.7595 123.361L92.1797 121.211L91.5895 121.454C91.2945 121.57 91.0839 121.664 90.9364 121.749C90.7888 121.822 90.6623 121.907 90.5569 121.981C90.3461 122.139 90.1987 122.297 90.125 122.466C90.0512 122.634 90.0193 122.813 90.0404 123.024L89.777 123.214L89.2817 121.317L89.5348 121.127C89.6086 121.264 89.7667 121.327 89.988 121.306C90.2198 121.285 90.5357 121.19 90.9467 121.032L98.0286 118.271L98.2499 119.041L92.0005 125.247C91.7266 125.521 91.5265 125.732 91.3895 125.89C91.2525 126.048 91.1575 126.196 91.0943 126.333C91.031 126.47 90.9993 126.618 90.9888 126.786L90.7254 126.965L90.188 124.836ZM92.6962 120.99L93.223 122.929L96.8377 119.336L92.6962 120.99Z" fill="url(#paint25_linear_506_2187)"/>
<path d="M36.3062 202.787L36.0428 202.967C35.969 202.84 35.8954 202.756 35.8321 202.714C35.7689 202.672 35.6952 202.651 35.6109 202.672C35.5266 202.693 35.4106 202.745 35.2841 202.83C35.1577 202.914 35.0313 203.019 34.8837 203.146C34.7362 203.272 34.5886 203.42 34.42 203.589L33.735 204.263L34.3145 206.413L34.9047 206.17C35.1997 206.054 35.4211 205.959 35.5581 205.875C35.7057 205.801 35.8319 205.717 35.9373 205.643C36.1481 205.485 36.2958 205.327 36.3695 205.159C36.4433 205.001 36.4749 204.811 36.4538 204.6L36.7172 204.411L37.2125 206.307L36.9597 206.497C36.8859 206.35 36.7384 206.297 36.5065 206.318C36.2747 206.339 35.9585 206.434 35.5475 206.592L28.4659 209.353L28.2446 208.584L34.4936 202.376C34.7676 202.113 34.968 201.892 35.105 201.734C35.242 201.576 35.3367 201.428 35.3999 201.291C35.4631 201.154 35.4949 201.007 35.5054 200.838L35.7688 200.659L36.3062 202.787ZM33.7983 206.634L33.2712 204.695L29.6568 208.288L33.7983 206.634Z" fill="url(#paint26_linear_506_2187)"/>
<defs>
<linearGradient id="paint0_linear_506_2187" x1="20.191" y1="108.387" x2="-26.1492" y2="61.09" gradientUnits="userSpaceOnUse">
<stop stop-color="#CDCCCB"/>
<stop offset="0.9947" stop-color="#B6B4B3"/>
</linearGradient>
<linearGradient id="paint1_linear_506_2187" x1="20.3914" y1="107.789" x2="-25.7696" y2="61.9082" gradientUnits="userSpaceOnUse">
<stop stop-color="#F3F5F4"/>
<stop offset="0.7063" stop-color="#E5E5E4"/>
<stop offset="0.9947" stop-color="#D4D2D1"/>
</linearGradient>
<linearGradient id="paint2_linear_506_2187" x1="20.2498" y1="106.6" x2="-26.8102" y2="60.2941" gradientUnits="userSpaceOnUse">
<stop stop-color="#EF0A07"/>
<stop offset="1" stop-color="#C70000"/>
</linearGradient>
<linearGradient id="paint3_linear_506_2187" x1="19.9914" y1="106.864" x2="-27.0683" y2="60.5571" gradientUnits="userSpaceOnUse">
<stop stop-color="#EF0A07"/>
<stop offset="1" stop-color="#C70000"/>
</linearGradient>
<linearGradient id="paint4_linear_506_2187" x1="40.4743" y1="86.0413" x2="-6.58296" y2="39.7377" gradientUnits="userSpaceOnUse">
<stop stop-color="#EF0A07"/>
<stop offset="1" stop-color="#C70000"/>
</linearGradient>
<linearGradient id="paint5_linear_506_2187" x1="40.4222" y1="86.0985" x2="-6.63543" y2="39.7922" gradientUnits="userSpaceOnUse">
<stop stop-color="#EF0A07"/>
<stop offset="1" stop-color="#C70000"/>
</linearGradient>
<linearGradient id="paint6_linear_506_2187" x1="48.015" y1="78.3823" x2="0.956763" y2="32.0786" gradientUnits="userSpaceOnUse">
<stop stop-color="#EF0A07"/>
<stop offset="1" stop-color="#C70000"/>
</linearGradient>
<linearGradient id="paint7_linear_506_2187" x1="120.624" y1="64.0431" x2="43.9935" y2="50.1733" gradientUnits="userSpaceOnUse">
<stop stop-color="#CDCCCB"/>
<stop offset="0.9947" stop-color="#B6B4B3"/>
</linearGradient>
<linearGradient id="paint8_linear_506_2187" x1="120.14" y1="63.9555" x2="44.4772" y2="50.2608" gradientUnits="userSpaceOnUse">
<stop stop-color="#F3F5F4"/>
<stop offset="0.7063" stop-color="#E5E5E4"/>
<stop offset="0.9947" stop-color="#D4D2D1"/>
</linearGradient>
<linearGradient id="paint9_linear_506_2187" x1="109.475" y1="95.9082" x2="72.7797" y2="120.054" gradientUnits="userSpaceOnUse">
<stop stop-color="#2C2C28"/>
<stop offset="0.0245" stop-color="#2B2B27"/>
<stop offset="0.63" stop-color="#111511"/>
<stop offset="0.9947" stop-color="#080D09"/>
</linearGradient>
<linearGradient id="paint10_linear_506_2187" x1="91.3207" y1="-5.47128" x2="54.6251" y2="18.674" gradientUnits="userSpaceOnUse">
<stop stop-color="#2C2C28"/>
<stop offset="0.0245" stop-color="#2B2B27"/>
<stop offset="0.63" stop-color="#111511"/>
<stop offset="0.9947" stop-color="#080D09"/>
</linearGradient>
<linearGradient id="paint11_linear_506_2187" x1="108.444" y1="61.0266" x2="53.7994" y2="51.3021" gradientUnits="userSpaceOnUse">
<stop stop-color="#2C2C28"/>
<stop offset="0.0245" stop-color="#2B2B27"/>
<stop offset="0.63" stop-color="#111511"/>
<stop offset="0.9947" stop-color="#080D09"/>
</linearGradient>
<linearGradient id="paint12_linear_506_2187" x1="96.1815" y1="44.4305" x2="67.2907" y2="63.4391" gradientUnits="userSpaceOnUse">
<stop stop-color="#2C2C28"/>
<stop offset="0.0245" stop-color="#2B2B27"/>
<stop offset="0.63" stop-color="#111511"/>
<stop offset="0.9947" stop-color="#080D09"/>
</linearGradient>
<linearGradient id="paint13_linear_506_2187" x1="110.327" y1="92.4909" x2="55.6837" y2="82.766" gradientUnits="userSpaceOnUse">
<stop stop-color="#2C2C28"/>
<stop offset="0.0245" stop-color="#2B2B27"/>
<stop offset="0.63" stop-color="#111511"/>
<stop offset="0.9947" stop-color="#080D09"/>
</linearGradient>
<linearGradient id="paint14_linear_506_2187" x1="107.674" y1="88.9304" x2="78.7871" y2="107.938" gradientUnits="userSpaceOnUse">
<stop stop-color="#2C2C28"/>
<stop offset="0.0245" stop-color="#2B2B27"/>
<stop offset="0.63" stop-color="#111511"/>
<stop offset="0.9947" stop-color="#080D09"/>
</linearGradient>
<linearGradient id="paint15_linear_506_2187" x1="108.131" y1="31.0829" x2="53.4867" y2="21.3569" gradientUnits="userSpaceOnUse">
<stop stop-color="#2C2C28"/>
<stop offset="0.0245" stop-color="#2B2B27"/>
<stop offset="0.63" stop-color="#111511"/>
<stop offset="0.9947" stop-color="#080D09"/>
</linearGradient>
<linearGradient id="paint16_linear_506_2187" x1="85.4053" y1="6.33837" x2="56.5174" y2="25.3449" gradientUnits="userSpaceOnUse">
<stop stop-color="#2C2C28"/>
<stop offset="0.0245" stop-color="#2B2B27"/>
<stop offset="0.63" stop-color="#111511"/>
<stop offset="0.9947" stop-color="#080D09"/>
</linearGradient>
<linearGradient id="paint17_linear_506_2187" x1="56.943" y1="139.441" x2="83.2875" y2="179.076" gradientUnits="userSpaceOnUse">
<stop stop-color="#CDCCCB"/>
<stop offset="0.9947" stop-color="#B6B4B3"/>
</linearGradient>
<linearGradient id="paint18_linear_506_2187" x1="57.0329" y1="139.786" x2="83.0043" y2="178.859" gradientUnits="userSpaceOnUse">
<stop stop-color="#F3F5F4"/>
<stop offset="0.7063" stop-color="#E5E5E4"/>
<stop offset="0.9947" stop-color="#D4D2D1"/>
</linearGradient>
<linearGradient id="paint19_linear_506_2187" x1="56.797" y1="140.205" x2="82.6859" y2="178.395" gradientUnits="userSpaceOnUse">
<stop stop-color="#2C2C28"/>
<stop offset="0.0245" stop-color="#2B2B27"/>
<stop offset="0.63" stop-color="#111511"/>
<stop offset="0.9947" stop-color="#080D09"/>
</linearGradient>
<linearGradient id="paint20_linear_506_2187" x1="56.5669" y1="140.362" x2="82.4558" y2="178.551" gradientUnits="userSpaceOnUse">
<stop stop-color="#2C2C28"/>
<stop offset="0.0245" stop-color="#2B2B27"/>
<stop offset="0.63" stop-color="#111511"/>
<stop offset="0.9947" stop-color="#080D09"/>
</linearGradient>
<linearGradient id="paint21_linear_506_2187" x1="30.1611" y1="158.264" x2="56.0498" y2="196.454" gradientUnits="userSpaceOnUse">
<stop stop-color="#2C2C28"/>
<stop offset="0.0245" stop-color="#2B2B27"/>
<stop offset="0.63" stop-color="#111511"/>
<stop offset="0.9947" stop-color="#080D09"/>
</linearGradient>
<linearGradient id="paint22_linear_506_2187" x1="30.2108" y1="158.231" x2="56.0989" y2="196.42" gradientUnits="userSpaceOnUse">
<stop stop-color="#2C2C28"/>
<stop offset="0.0245" stop-color="#2B2B27"/>
<stop offset="0.63" stop-color="#111511"/>
<stop offset="0.9947" stop-color="#080D09"/>
</linearGradient>
<linearGradient id="paint23_linear_506_2187" x1="83.7273" y1="121.949" x2="109.618" y2="160.142" gradientUnits="userSpaceOnUse">
<stop stop-color="#2C2C28"/>
<stop offset="0.0245" stop-color="#2B2B27"/>
<stop offset="0.63" stop-color="#111511"/>
<stop offset="0.9947" stop-color="#080D09"/>
</linearGradient>
<linearGradient id="paint24_linear_506_2187" x1="83.6744" y1="121.985" x2="109.565" y2="160.175" gradientUnits="userSpaceOnUse">
<stop stop-color="#2C2C28"/>
<stop offset="0.0245" stop-color="#2B2B27"/>
<stop offset="0.63" stop-color="#111511"/>
<stop offset="0.9947" stop-color="#080D09"/>
</linearGradient>
<linearGradient id="paint25_linear_506_2187" x1="92.5155" y1="115.99" x2="118.405" y2="154.179" gradientUnits="userSpaceOnUse">
<stop stop-color="#2C2C28"/>
<stop offset="0.0245" stop-color="#2B2B27"/>
<stop offset="0.63" stop-color="#111511"/>
<stop offset="0.9947" stop-color="#080D09"/>
</linearGradient>
<linearGradient id="paint26_linear_506_2187" x1="20.726" y1="164.658" x2="46.6152" y2="202.847" gradientUnits="userSpaceOnUse">
<stop stop-color="#2C2C28"/>
<stop offset="0.0245" stop-color="#2B2B27"/>
<stop offset="0.63" stop-color="#111511"/>
<stop offset="0.9947" stop-color="#080D09"/>
</linearGradient>
</defs>
</svg>
