<svg width="78" height="182" viewBox="0 0 78 182" fill="none" xmlns="http://www.w3.org/2000/svg">
<path d="M36.9174 78.3706C34.5932 66.3694 27.5251 55.0046 17.1591 53.9721L21.4358 51.6576C27.5995 48.3934 36.4576 56.7394 41.2157 70.3128C45.9738 83.8796 44.8291 97.5309 38.6654 100.795L34.1014 103.216C37.4033 96.067 38.6386 86.3259 36.9174 78.3706Z" fill="url(#paint0_linear_506_16475)"/>
<path d="M21.4358 51.6495C21.921 51.3895 22.4746 51.1694 23.0745 51.0599L18.2141 53.8991C17.992 53.864 17.3865 53.9927 17.1589 53.9705L21.4358 51.6495Z" fill="url(#paint1_linear_506_16475)"/>
<path d="M29.3441 52.6659C31.0734 53.7952 32.8072 55.4434 34.4509 57.5311L28.8203 60.5163C27.1745 58.6101 25.318 57.0321 23.271 55.8859L29.3441 52.6659Z" fill="url(#paint2_linear_506_16475)"/>
<path d="M34.9874 102.195L40.1295 99.7484C39.7063 100.132 39.145 100.547 38.6545 100.807L33.7386 103.405C33.8202 103.225 34.9058 102.376 34.9874 102.195Z" fill="url(#paint3_linear_506_16475)"/>
<path d="M44.1152 85.1251C44.2179 88.0305 44.0054 90.7117 43.4847 93.0327L37.7744 96.0559C38.2235 93.5202 38.3505 90.8898 38.2447 88.2372L44.1152 85.1251Z" fill="url(#paint4_linear_506_16475)"/>
<path d="M33.9594 68.8292L39.4566 65.9199C40.0862 67.3083 40.6778 68.774 41.2157 70.3039C41.7534 71.8402 42.2169 73.3756 42.6065 74.8972L36.8374 77.9524C36.192 74.8006 35.2227 71.7032 33.9594 68.8292Z" fill="url(#paint5_linear_506_16475)"/>
<path d="M23.9041 79.3748L24.3454 84.5144L23.1345 85.2062C22.4996 83.8178 21.9133 82.3523 21.3755 80.8159C20.8378 79.2796 20.3741 77.7505 19.9898 76.229L21.1368 75.5686L23.9041 79.3748Z" fill="#0000FF"/>
<path d="M31.1686 91.5848L33.5603 96.2292L33.3892 98.5544C31.6594 97.4575 29.9254 95.8355 28.2761 93.7801L28.4355 91.539L31.1686 91.5848Z" fill="#0000FF"/>
<path d="M21.7413 64.5184L19.9773 67.1419L18.4525 65.7494C18.3655 62.8571 18.5989 60.1956 19.1406 57.8943L20.5553 59.1884L21.7413 64.5184Z" fill="#0000FF"/>
<path d="M33.6969 103.36C39.8339 100.109 40.9569 86.4962 36.209 72.9554C31.4611 59.4146 22.6348 51.0691 16.5031 54.3207C10.3661 57.5723 9.24313 71.1848 13.991 84.7256C18.7389 98.2663 27.5652 106.612 33.6969 103.36Z" fill="url(#paint6_linear_506_16475)"/>
<path d="M31.6233 97.3969C36.2834 94.9314 37.1495 84.6152 33.554 74.3619C29.9585 64.1087 23.2692 57.7984 18.6091 60.2639C13.9491 62.7294 13.083 73.0456 16.6785 83.2989C20.274 93.5521 26.9633 99.8624 31.6233 97.3969Z" fill="#800000"/>
<path d="M33.186 74.5514C29.7493 64.7538 23.3375 58.706 18.8854 61.0639C14.4333 63.4217 13.6042 73.3106 17.0409 83.1081C20.4777 92.9057 26.8894 98.9533 31.3416 96.5954C35.7937 94.2376 36.6228 84.3489 33.186 74.5514ZM17.3769 82.9306C14.0836 73.5432 14.8812 64.0689 19.1468 61.8061C23.4124 59.5433 29.5619 65.3479 32.8553 74.7353C36.1487 84.1227 35.3511 93.597 31.0856 95.8598C26.8201 98.1161 20.6703 92.318 17.3769 82.9306Z" fill="url(#paint7_linear_506_16475)"/>
<path d="M30.7578 94.9237C34.7994 92.7813 35.5481 83.8444 32.4289 74.9518C29.3149 66.0657 23.5109 60.5894 19.4693 62.7317C15.4277 64.8741 14.679 73.8108 17.7982 82.7034C20.9174 91.5961 26.7162 97.0661 30.7578 94.9237Z" fill="#B00000"/>
<path d="M30.0575 92.8032C33.5819 90.9398 34.2425 83.1689 31.5382 75.4545C28.834 67.7402 23.784 62.9925 20.2649 64.8624C16.7406 66.7257 16.0801 74.4969 18.7844 82.2112C21.4886 89.9255 26.5332 94.6665 30.0575 92.8032Z" fill="#800000"/>
<path d="M29.9384 92.5849C33.3935 90.7531 34.0313 83.1116 31.3679 75.5144C28.7046 67.9172 23.744 63.2419 20.2943 65.0673C16.8392 66.8991 16.2013 74.5406 18.8646 82.1378C21.5279 89.7414 26.4834 94.4167 29.9384 92.5849Z" fill="url(#paint8_linear_506_16475)"/>
<path d="M16.4822 83.302L16.9236 88.4416L15.7073 89.1334C15.0724 87.745 14.4861 86.2795 13.9483 84.7431C13.4106 83.2068 12.9469 81.6777 12.5626 80.1562L13.7095 79.5023L16.4822 83.302Z" fill="url(#paint9_linear_506_16475)"/>
<path d="M33.9207 74.2617L33.4793 69.1286L34.5249 68.5319C35.1545 69.9202 35.746 71.386 36.2838 72.9158C36.8216 74.4522 37.2852 75.9876 37.6748 77.5092L36.6985 78.0678L33.9207 74.2617Z" fill="url(#paint10_linear_506_16475)"/>
<path d="M31.8657 97.9244L34.8101 99.3536L35.6969 101.821C35.1116 102.475 34.4535 103.005 33.7283 103.392C33.0618 103.747 32.3598 103.965 31.6383 104.054L30.7771 101.658L31.8657 97.9244Z" fill="url(#paint11_linear_506_16475)"/>
<path d="M18.5369 59.639L15.5927 58.2098L14.6802 55.6708C15.2277 55.0875 15.8373 54.6151 16.5038 54.2601C17.2343 53.8734 17.9998 53.6557 18.7901 53.581L19.6257 55.9053L18.5369 59.639Z" fill="url(#paint12_linear_506_16475)"/>
<path d="M23.7467 95.5184L26.1384 100.163L25.9726 102.488C24.2429 101.391 22.5089 99.769 20.8596 97.7072L21.0243 95.4727L23.7467 95.5184Z" fill="url(#paint13_linear_506_16475)"/>
<path d="M26.6503 62.0536L24.2587 57.4094L24.4114 55.2784C26.1408 56.4078 27.8746 58.0558 29.5182 60.1435L29.3781 62.0995L26.6503 62.0536Z" fill="url(#paint14_linear_506_16475)"/>
<path d="M36.0776 89.126L37.847 86.5026L39.1882 87.7376C39.291 90.6429 39.0786 93.3239 38.5527 95.6383L37.2636 94.456L36.0776 89.126Z" fill="url(#paint15_linear_506_16475)"/>
<path d="M14.3195 68.4426L12.5501 71.0663L11.0253 69.6736C10.9376 68.1621 10.9973 66.7301 11.1251 65.3573C11.2408 64.1076 11.4091 62.8845 11.7134 61.8185L13.1281 63.1128L14.3195 68.4426Z" fill="url(#paint16_linear_506_16475)"/>
<path d="M31.54 73.5354C31.113 72.4866 30.6377 71.4759 30.1298 70.5363L29.8704 70.9611C30.3523 71.855 30.8017 72.8134 31.2083 73.8036L31.54 73.5354ZM32.6667 76.7578L32.2786 76.8633C32.5892 77.9043 32.8413 78.964 33.0406 80.0101L33.4743 80.0735C33.265 78.9754 32.9925 77.8638 32.6667 76.7578ZM28.498 67.9043C27.925 67.1001 27.3298 66.3733 26.7228 65.7501L26.6404 66.4234C27.216 67.0202 27.7852 67.7078 28.327 68.4663L28.498 67.9043ZM33.9065 83.3458L33.4536 83.1137C33.5316 84.1194 33.5462 85.0984 33.5034 86.0184L33.9595 86.4128C34.0031 85.4345 33.9838 84.4034 33.9065 83.3458ZM24.877 64.1591C24.2569 63.7368 23.641 63.4117 23.0395 63.2099L23.1464 64.0152C23.7162 64.2101 24.3006 64.5087 24.8891 64.9112L24.877 64.1591ZM33.6246 89.1444L33.1861 88.6141C33.0228 89.4159 32.7967 90.1457 32.5189 90.7841L32.9189 91.437C33.2131 90.7599 33.4502 89.9915 33.6246 89.1444ZM21.2944 62.9491C20.7378 62.9748 20.2116 63.1241 19.7157 63.3839L19.9922 64.178C20.4614 63.9308 20.961 63.7944 21.4858 63.7683L21.2944 62.9491ZM31.8702 93.1683L31.5241 92.4315C31.1478 92.8808 30.7199 93.2321 30.2507 93.4793L30.224 93.492L30.5058 94.2862L30.5325 94.2736C31.023 94.0138 31.4725 93.6432 31.8702 93.1683ZM18.7187 65.2194L18.3728 64.4762C17.9697 64.951 17.6184 65.5303 17.3241 66.2074L17.7242 66.8605C18.002 66.2221 18.3371 65.6686 18.7187 65.2194ZM28.7251 93.8954C28.195 93.9214 27.6398 93.8368 27.07 93.642L27.1769 94.447C27.7783 94.6552 28.3652 94.7466 28.9218 94.7209L28.7251 93.8954ZM17.0517 69.024L16.6131 68.4936C16.4388 69.3343 16.327 70.2534 16.2782 71.2252L16.7344 71.6196C16.7774 70.6932 16.8885 69.8194 17.0517 69.024ZM25.3274 92.7329C24.7389 92.3304 24.1516 91.8176 23.5761 91.2208L23.4937 91.894C24.1007 92.5236 24.7248 93.0562 25.3395 93.485L25.3274 92.7329ZM16.7788 74.5243L16.326 74.2919C16.4032 75.356 16.549 76.4532 16.7582 77.5578L17.1919 77.6214C16.9926 76.5688 16.8514 75.53 16.7788 74.5243ZM21.8896 89.1715C21.3478 88.4065 20.8282 87.564 20.3463 86.6701L20.0868 87.0947C20.5946 88.0408 21.1401 88.9291 21.7132 89.7334L21.8896 89.1715ZM17.9433 80.7615L17.5553 80.867C17.7181 81.4264 17.9021 81.9926 18.0968 82.546L18.0967 82.5525C18.2811 83.0733 18.4761 83.5942 18.6819 84.0959L19.0137 83.8277C18.8181 83.3521 18.6334 82.8572 18.4592 82.3624C18.2749 81.8286 18.1011 81.2949 17.9433 80.7615Z" fill="url(#paint17_linear_506_16475)"/>
<g style="mix-blend-mode:plus-lighter">
<path d="M13.9912 84.7264C9.24334 71.1856 10.3716 57.5732 16.5033 54.3216C17.6923 53.6941 18.982 53.5023 20.3253 53.7L27.7686 103.387C22.7348 101.259 17.3461 94.2896 13.9912 84.7264Z" fill="url(#paint18_linear_506_16475)"/>
</g>
<path d="M87.6173 160.289L82.7355 162.7C78.6744 164.7 71.3654 153.987 66.4047 138.765C61.4439 123.542 60.7114 109.583 64.7725 107.584L69.6597 105.179C69.6597 105.179 64.4631 112.604 72.6879 136.124C80.4414 158.316 87.6173 160.289 87.6173 160.289Z" fill="url(#paint19_linear_506_16475)"/>
<path d="M72.8318 118.065L70.5867 112.683L70.4407 110.302C71.8102 111.836 73.2367 113.921 74.6578 116.447L74.7944 118.743L72.8318 118.065Z" fill="#0000FF"/>
<path d="M81.8193 157.424L76.9268 159.835C75.5577 158.269 74.121 156.152 72.7053 153.607L77.5871 151.202L81.8193 157.424Z" fill="url(#paint20_linear_506_16475)"/>
<path d="M69.6494 105.171L64.7678 107.562C64.448 107.72 64.159 107.95 63.8957 108.258L69.2845 106.002C69.4548 105.492 69.6494 105.171 69.6494 105.171Z" fill="url(#paint21_linear_506_16475)"/>
<path d="M67.0702 112.148L62.1777 114.559C62.0652 116.858 62.2177 119.602 62.6206 122.654L67.5024 120.243L67.0702 112.148Z" fill="url(#paint22_linear_506_16475)"/>
<path d="M73.0492 141.328L68.1622 143.732C67.5509 142.143 66.9616 140.483 66.3996 138.765C65.8376 137.04 65.3336 135.336 64.877 133.664L69.764 131.26L73.0492 141.328Z" fill="url(#paint23_linear_506_16475)"/>
<path d="M69.6755 105.217C65.6357 107.21 66.379 121.137 71.3295 136.333C76.2799 151.53 83.5732 162.229 87.6129 160.242C91.6526 158.256 90.9094 144.322 85.9589 129.126C81.0033 113.923 73.7153 103.224 69.6755 105.217Z" fill="url(#paint24_linear_506_16475)"/>
<path d="M71.8462 111.91C68.7765 113.422 69.3328 123.969 73.0828 135.476C76.8328 146.975 82.3562 155.074 85.426 153.561C88.4958 152.049 87.9394 141.502 84.1895 129.996C80.4395 118.496 74.9107 110.398 71.8462 111.91Z" fill="#800000"/>
<path d="M73.3176 135.353C76.8989 146.338 82.0996 153.96 85.0096 152.523C87.9195 151.087 87.4566 141.137 83.8752 130.151C80.2938 119.166 75.0717 111.57 72.1617 113.007C69.2519 114.436 69.7363 124.361 73.3176 135.353ZM83.6407 130.265C87.0125 140.62 87.5122 150.148 84.7515 151.509C81.9908 152.869 76.9983 145.555 73.6266 135.201C70.2548 124.847 69.7551 115.318 72.5158 113.957C75.2765 112.597 80.2636 119.911 83.6407 130.265Z" fill="url(#paint25_linear_506_16475)"/>
<path d="M72.7507 114.681C70.0913 115.99 70.5692 125.136 73.8238 135.107C77.073 145.077 81.8624 152.097 84.5218 150.787C87.1812 149.478 86.7034 140.331 83.4489 130.361C80.1996 120.391 75.4049 113.364 72.7507 114.681Z" fill="#B00000"/>
<path d="M73.5156 117.145C71.2026 118.284 71.6051 126.198 74.415 134.821C77.2249 143.444 81.3796 149.503 83.6873 148.364C86.0003 147.225 85.5975 139.312 82.7877 130.689C79.9777 122.072 75.8286 116.006 73.5156 117.145Z" fill="#800000"/>
<path d="M73.6037 117.303C71.3333 118.423 71.7422 126.239 74.5162 134.765C77.2955 143.29 81.3873 149.29 83.663 148.171C85.9334 147.05 85.5243 139.234 82.7503 130.709C79.9764 122.183 75.8741 116.176 73.6037 117.303Z" fill="url(#paint26_linear_506_16475)"/>
<path d="M72.8282 135.485L73.7318 140.942L73.0491 141.329C72.4378 139.74 71.8486 138.08 71.2865 136.361C70.7245 134.637 70.2205 132.932 69.7639 131.261L70.4041 130.899L72.8282 135.485Z" fill="url(#paint27_linear_506_16475)"/>
<path d="M71.6097 111.295L69.3311 109.135L68.411 106.363C68.7567 105.809 69.1694 105.406 69.6437 105.172C70.0808 104.957 70.5585 104.884 71.0661 104.962L71.9556 107.65L71.6097 111.295Z" fill="url(#paint28_linear_506_16475)"/>
<path d="M77.7185 115.655L75.4683 110.273L75.3274 107.892C76.6916 109.426 78.1234 111.511 79.5446 114.037L79.6812 116.333L77.7185 115.655Z" fill="url(#paint29_linear_506_16475)"/>
<path d="M79.4364 149.864L81.6814 155.245L81.814 157.432C80.4448 155.866 79.0134 153.748 77.5925 151.203L77.4735 149.198L79.4364 149.864Z" fill="url(#paint30_linear_506_16475)"/>
<path d="M69.5829 119.512L68.6118 121.84L67.5077 120.252C67.1047 117.206 66.9525 114.456 67.0649 112.163L68.122 113.686L69.5829 119.512Z" fill="url(#paint31_linear_506_16475)"/>
<path d="M74.619 136.789C75.0444 137.981 75.5019 139.14 75.9708 140.235L76.1079 139.848C75.6596 138.805 75.2277 137.711 74.8229 136.578L74.619 136.789ZM73.4441 133.171L73.7145 133.148C73.3735 131.99 73.0697 130.833 72.8079 129.695L72.492 129.529C72.7637 130.725 73.0826 131.954 73.4441 133.171ZM77.4432 143.351C77.9454 144.317 78.4591 145.211 78.9635 146.001L78.9452 145.321C78.4615 144.569 77.979 143.721 77.5026 142.807L77.4432 143.351ZM71.8031 126.033L72.1537 126.381C71.9865 125.316 71.8611 124.29 71.7878 123.343L71.4177 122.833C71.4957 123.832 71.6259 124.91 71.8031 126.033ZM80.4748 148.075C80.9657 148.658 81.4475 149.13 81.8989 149.479L81.7292 148.615C81.2987 148.286 80.8432 147.839 80.3784 147.283L80.4748 148.075ZM71.3454 120.051L71.7189 120.704C71.7444 119.907 71.8218 119.201 71.9509 118.593L71.5895 117.824C71.4599 118.464 71.3767 119.209 71.3454 120.051ZM83.1835 150.156C83.5797 150.251 83.9454 150.223 84.2652 150.065L83.9741 149.173C83.665 149.325 83.3203 149.354 82.9453 149.258L83.1835 150.156ZM72.1487 116.256L72.4829 117.102C72.7047 116.723 72.9728 116.447 73.2765 116.302L73.2979 116.295L73.0067 115.404L72.9906 115.41C72.6602 115.568 72.3814 115.85 72.1487 116.256ZM84.7784 148.373L85.1125 149.226C85.3452 148.821 85.5369 148.298 85.6717 147.664L85.31 146.895C85.1757 147.49 85.0002 147.993 84.7784 148.373ZM74.3266 116.211C74.7016 116.306 75.1123 116.525 75.5481 116.854L75.3784 115.99C74.9217 115.641 74.4899 115.409 74.0938 115.307L74.3266 116.211ZM85.5421 144.784L85.9158 145.437C85.9471 144.601 85.9212 143.667 85.8484 142.668L85.4784 142.158C85.5464 143.105 85.5675 143.994 85.5421 144.784ZM76.8987 118.199C77.3688 118.756 77.8482 119.416 78.3317 120.174L78.3134 119.493C77.8038 118.703 77.2983 118.003 76.8074 117.414L76.8987 118.199ZM85.1124 139.12L85.4633 139.468C85.2861 138.344 85.0565 137.168 84.7848 135.972L84.4689 135.806C84.7255 136.937 84.9451 138.055 85.1124 139.12ZM79.7743 122.687C80.2506 123.607 80.7207 124.605 81.169 125.647L81.3061 125.26C80.832 124.159 80.3413 123.109 79.8337 122.144L79.7743 122.687ZM83.5675 132.353L83.8379 132.33C83.6547 131.706 83.461 131.081 83.2567 130.456L83.2567 130.45C83.0678 129.864 82.8682 129.278 82.6632 128.705L82.4541 128.91C82.6489 129.451 82.8382 130.011 83.0222 130.564C83.2057 131.162 83.3945 131.761 83.5675 132.353Z" fill="url(#paint32_linear_506_16475)"/>
<g style="mix-blend-mode:plus-lighter">
<path d="M85.9585 129.121C90.9089 144.318 91.6522 158.251 87.6125 160.238C86.845 160.617 85.9613 160.535 85.0029 160.057L73.0947 105.882C77.0982 108.659 82.1982 117.595 85.9585 129.121Z" fill="url(#paint33_linear_506_16475)"/>
</g>
<path d="M52.1645 5.48731L55.4061 1.59156C58.0993 -1.64315 66.8376 3.8946 74.9225 13.9686C83.0076 24.0361 87.3754 34.8238 84.6821 38.0649L81.4406 41.9607C81.4406 41.9607 83.5715 33.9546 70.6283 18.6167C58.4217 4.14325 52.1645 5.48731 52.1645 5.48731Z" fill="url(#paint34_linear_506_16475)"/>
<path d="M52.1648 5.48833L55.4063 1.59257C55.616 1.3358 55.8675 1.13786 56.1554 0.985754L52.748 5.45658C52.3614 5.44544 52.1648 5.48833 52.1648 5.48833Z" fill="url(#paint35_linear_506_16475)"/>
<path d="M66.2373 24.2819L68.4359 28.2433L67.9245 28.9178C67.0043 27.9019 66.0796 26.8211 65.1662 25.6821C64.2528 24.5431 63.3871 23.3984 62.5744 22.2541L63.0591 21.6117L66.2373 24.2819Z" fill="#0000FF"/>
<path d="M75.4085 33.0116L78.658 36.37L79.4199 38.2006C77.9128 37.5341 76.2092 36.4636 74.388 35.035L73.657 33.2692L75.4085 33.0116Z" fill="#0000FF"/>
<path d="M57.5643 5.40945L60.8113 1.50723C62.3288 2.19322 64.0478 3.28992 65.8687 4.73801L62.6272 8.63377L57.5643 5.40945Z" fill="url(#paint36_linear_506_16475)"/>
<path d="M59.3171 12.9125L59.1735 15.1601L57.6853 14.2413C56.5522 11.9912 55.7034 9.88707 55.1906 8.03338L56.5685 8.88621L59.3171 12.9125Z" fill="#0000FF"/>
<path d="M68.9279 14.6297L72.1695 10.7338C73.0897 11.7497 74.0091 12.8304 74.9226 13.9629C75.836 15.1019 76.7016 16.2532 77.5196 17.3975L74.2779 21.2932L68.9279 14.6297Z" fill="url(#paint37_linear_506_16475)"/>
<path d="M81.4089 41.934C84.0913 38.7121 79.7179 27.9503 71.6486 17.896C63.5793 7.84163 54.8622 2.30418 52.1797 5.52606C49.4972 8.74793 53.8707 19.5097 61.94 29.5641C70.0146 39.6185 78.7317 45.1559 81.4089 41.934Z" fill="url(#paint38_linear_506_16475)"/>
<path d="M77.865 37.5014C79.9023 35.0561 76.5993 26.9002 70.4872 19.2939C64.3752 11.6811 57.7768 7.49806 55.7395 9.94333C53.7021 12.3886 57.0051 20.5446 63.1172 28.1509C69.2293 35.7637 75.8329 39.9467 77.865 37.5014Z" fill="#060606"/>
<path d="M70.3316 19.4884C64.4962 12.216 58.2817 8.27752 56.3517 10.6009C54.4218 12.9243 57.4917 20.6367 63.3271 27.909C69.1624 35.1814 75.3879 39.0876 77.3178 36.7642C79.2477 34.4408 76.167 26.7543 70.3316 19.4884ZM63.483 27.7164C57.9869 20.8695 55.003 13.5017 56.8361 11.3003C58.6692 9.09895 64.6313 12.8788 70.1273 19.7322C75.6234 26.5791 78.6074 33.9469 76.7796 36.1484C74.9465 38.3498 68.9791 34.5634 63.483 27.7164Z" fill="url(#paint39_linear_506_16475)"/>
<path d="M76.3933 35.6686C78.1565 33.5507 75.2962 26.4827 69.9984 19.8845C64.7007 13.2863 58.9803 9.65853 57.2118 11.7764C55.4485 13.9009 58.3089 20.9622 63.6066 27.5604C68.9044 34.1586 74.6301 37.7866 76.3933 35.6686Z" fill="#242424"/>
<path d="M75.1098 34.0217C76.6419 32.1797 74.178 26.0565 69.5953 20.355C65.0178 14.6536 60.0596 11.5211 58.5275 13.3631C56.9954 15.2051 59.4647 21.3285 64.0422 27.0299C68.6249 32.7379 73.5777 35.8637 75.1098 34.0217Z" fill="#060606"/>
<path d="M74.9997 33.9347C76.5049 32.1247 74.0613 26.0796 69.5307 20.4436C65.0055 14.8012 60.1106 11.7018 58.6053 13.5117C57.0948 15.3281 59.5436 21.3669 64.0689 27.0029C68.5995 32.6454 73.4945 35.7446 74.9997 33.9347Z" fill="url(#paint40_linear_506_16475)"/>
<path d="M62.9952 28.1769L65.1938 32.1383L64.6823 32.8128C63.7621 31.797 62.8374 30.7163 61.924 29.5773C61.0106 28.4384 60.1449 27.2934 59.3322 26.1492L59.8167 25.5067L62.9952 28.1769Z" fill="url(#paint41_linear_506_16475)"/>
<path d="M70.6848 19.1752L68.4862 15.2137L68.9277 14.6293C69.8479 15.6452 70.7673 16.7257 71.6808 17.8582C72.5942 18.9972 73.4597 20.1485 74.2776 21.2928L73.8685 21.839L70.6848 19.1752Z" fill="url(#paint42_linear_506_16475)"/>
<path d="M55.4648 9.46246L53.0637 8.67504L51.5342 6.78969C51.6623 6.27264 51.8742 5.83421 52.1644 5.48765C52.4815 5.10901 52.8873 4.84821 53.3606 4.70482L54.7597 6.42658L55.4648 9.46246Z" fill="url(#paint43_linear_506_16475)"/>
<path d="M72.1663 36.91L75.4158 40.2681L76.1777 42.0989C74.6706 41.4325 72.967 40.3618 71.1458 38.9331L70.4148 37.1676L72.1663 36.91Z" fill="url(#paint44_linear_506_16475)"/>
<path d="M61.5138 10.4498L58.2643 7.09163L57.5695 5.4108C59.087 6.09679 60.806 7.19349 62.6269 8.64159L63.2705 10.1857L61.5138 10.4498Z" fill="url(#paint45_linear_506_16475)"/>
<path d="M77.6048 30.5439L77.7485 28.2961L79.0632 29.1094C80.2121 31.3662 81.0766 33.4833 81.6104 35.3502L80.3535 34.5702L77.6048 30.5439Z" fill="url(#paint46_linear_506_16475)"/>
<path d="M56.0759 16.8081L55.9323 19.0493L54.4441 18.1303C53.311 15.8802 52.4621 13.7761 51.9494 11.9224L53.3271 12.7752L56.0759 16.8081Z" fill="url(#paint47_linear_506_16475)"/>
<path d="M68.9034 18.8749C68.2399 18.1019 67.5653 17.3677 66.89 16.6919L66.8856 17.0549C67.5242 17.6978 68.1675 18.3993 68.7945 19.1264L68.9034 18.8749ZM70.8242 21.2706L70.6161 21.3977C71.2 22.1761 71.7572 22.9737 72.2721 23.7708L72.5688 23.7744C72.0279 22.9316 71.4395 22.0883 70.8242 21.2706ZM64.8678 14.8069C64.2071 14.2415 63.5562 13.7411 62.9361 13.3187L63.1363 13.8527C63.7248 14.2552 64.3389 14.7293 64.9682 15.262L64.8678 14.8069ZM74.0644 26.2752L73.6899 26.1411C74.115 26.9176 74.4926 27.6806 74.8069 28.4104L75.2435 28.662C74.9084 27.893 74.5155 27.0909 74.0644 26.2752ZM61.1738 12.2862C60.6207 12.0202 60.1091 11.8391 59.6545 11.7493L60.0231 12.3696C60.4565 12.4591 60.9419 12.627 61.4633 12.8796L61.1738 12.2862ZM76.0544 30.837L75.5768 30.4682C75.7703 31.1123 75.9008 31.7101 75.9634 32.2359L76.4611 32.6957C76.3936 32.1439 76.2582 31.5136 76.0544 30.837ZM58.4467 11.7411C58.1066 11.8278 57.8237 11.9995 57.6087 12.2563L58.0837 12.8454C58.288 12.6015 58.5549 12.4362 58.8791 12.3558L58.4467 11.7411ZM76.4433 34.1735L75.9465 33.636C75.8729 34.0305 75.7364 34.3531 75.5322 34.597L75.5215 34.6097L75.9965 35.1988L76.0072 35.1861C76.2222 34.9294 76.3695 34.5875 76.4433 34.1735ZM57.6643 13.7996L57.1675 13.262C57.0883 13.676 57.0824 14.1687 57.1498 14.727L57.6475 15.1933C57.585 14.661 57.5907 14.1941 57.6643 13.7996ZM74.721 35.0928C74.3969 35.1732 74.0102 35.1685 73.5769 35.079L73.9455 35.6928C74.4053 35.7891 74.8133 35.794 75.1534 35.7074L74.721 35.0928ZM58.0288 16.9546L57.5512 16.5859C57.7549 17.2625 58.027 17.9917 58.3568 18.7606L58.7934 19.0187C58.479 18.2954 58.2171 17.5987 58.0288 16.9546ZM72.1314 34.5625C71.6099 34.3099 71.0418 33.9788 70.4533 33.5763L70.6534 34.1102C71.2735 34.5326 71.8679 34.8834 72.421 35.1494L72.1314 34.5625ZM59.9052 21.2816L59.5306 21.1473C59.9763 21.9695 60.4801 22.8118 61.021 23.6481L61.3176 23.6516C60.8027 22.861 60.3302 22.0646 59.9052 21.2816ZM68.6214 32.1605C67.9921 31.6213 67.3478 31.0236 66.7092 30.3742L66.7049 30.7371C67.3801 31.4195 68.0612 32.0501 68.722 32.6155L68.6214 32.1605ZM62.9736 26.0313L62.7655 26.1584C63.0783 26.577 63.407 27.0024 63.7358 27.4083C64.0491 27.7945 64.3676 28.1808 64.6863 28.5541L64.7952 28.3026C64.4922 27.9489 64.1893 27.5888 63.8971 27.2158C63.5839 26.8295 63.2708 26.4303 62.9736 26.0313Z" fill="url(#paint48_linear_506_16475)"/>
<path d="M35.9793 90.3183C28.0984 106.391 25.8947 127.912 36.172 142.459L29.5596 139.443C20.0874 135.011 17.7659 114.453 24.3703 93.5233C30.98 72.5932 44.0148 59.2215 53.4922 63.653L60.5094 66.9334C50.7671 70.4202 41.0058 79.43 35.9793 90.3183Z" fill="url(#paint49_linear_506_16475)"/>
<path d="M29.5542 139.449C28.8062 139.096 28.0171 138.62 27.2781 137.963L34.9742 141.174C35.1875 141.494 35.9426 142.145 36.1665 142.465L29.5542 139.449Z" fill="url(#paint50_linear_506_16475)"/>
<path d="M21.9087 128.096C21.0181 124.63 20.5796 120.586 20.6114 116.185L29.2617 120.231C29.3911 124.439 30.0248 128.563 31.2334 132.461L21.9087 128.096Z" fill="url(#paint51_linear_506_16475)"/>
<path d="M58.6663 66.8846L51.0062 62.8899C51.794 63.0225 52.7601 63.3 53.5082 63.6461L61.0626 67.1859C60.8232 67.2738 58.9059 66.7903 58.6663 66.8846Z" fill="url(#paint52_linear_506_16475)"/>
<path d="M34.0668 73.6345C36.464 70.3379 39.0175 67.6979 41.5881 65.849L50.3649 69.9545C47.6897 72.1328 45.2731 74.8328 43.091 77.8597L34.0668 73.6345Z" fill="url(#paint53_linear_506_16475)"/>
<path d="M30.9181 104.532L22.4732 100.587C22.994 98.2527 23.6264 95.9007 24.3701 93.537C25.1192 91.167 25.9518 88.8951 26.8466 86.7408L35.713 90.8863C33.6751 95.1337 32.0352 99.7618 30.9181 104.532Z" fill="url(#paint54_linear_506_16475)"/>
<path d="M50.8777 106.079L54.8406 99.9162L56.7486 100.73C56.2278 103.064 55.5955 105.422 54.8464 107.793C54.0974 110.156 53.27 112.428 52.3751 114.582L50.5674 113.809L50.8777 106.079Z" fill="#0000FF"/>
<path d="M53.6096 83.377L55.0428 75.2263L57.2323 72.9126C58.1499 76.3399 58.6153 80.3581 58.6155 84.7402L56.5066 86.9643L53.6096 83.377Z" fill="#0000FF"/>
<path d="M40.3554 125.048L44.5263 124.483L44.961 127.976C42.5536 131.233 39.9952 133.834 37.4253 135.631L37.0246 132.392L40.3554 125.048Z" fill="#0000FF"/>
<path d="M61.0669 67.2836C51.6422 62.8721 38.6498 76.2381 32.0512 97.1229C25.4526 118.014 27.7483 138.52 37.1783 142.932C46.603 147.343 59.5955 133.977 66.194 113.092C72.7926 92.2075 70.4917 71.6886 61.0669 67.2836Z" fill="url(#paint55_linear_506_16475)"/>
<path d="M58.143 76.4619C50.9836 73.1149 41.1297 83.2188 36.1393 99.0343C31.1435 114.85 32.9005 130.383 40.0599 133.737C47.2193 137.084 57.0733 126.98 62.069 111.164C67.0648 95.349 65.3025 79.8088 58.143 76.4619Z" fill="#060606"/>
<path d="M36.6975 99.3002C31.9274 114.412 33.6074 129.303 40.4455 132.503C47.2835 135.704 56.7299 126.01 61.4999 110.905C66.27 95.793 64.59 80.9021 57.7467 77.7015C50.9139 74.5011 41.4676 84.1887 36.6975 99.3002ZM60.9889 110.659C56.4172 125.137 47.3625 134.428 40.8089 131.36C34.2554 128.293 32.642 114.019 37.2138 99.5399C41.7855 85.0613 50.8402 75.7707 57.3938 78.8381C63.9473 81.9055 65.5607 96.18 60.9889 110.659Z" fill="url(#paint56_linear_506_16475)"/>
<path d="M56.9422 80.2717C50.7363 77.3705 42.1913 86.129 37.8619 99.8456C33.5325 113.556 35.0548 127.025 41.2607 129.926C47.4666 132.828 56.0064 124.069 60.3412 110.352C64.6705 96.6423 63.148 83.1728 56.9422 80.2717Z" fill="#242424"/>
<path d="M55.8594 83.4949C50.449 80.9663 43.0146 88.5585 39.258 100.46C35.5014 112.362 36.8385 124.06 42.2488 126.595C47.6593 129.124 55.0936 121.531 58.8502 109.629C62.6068 97.721 61.2698 86.0235 55.8594 83.4949Z" fill="#060606"/>
<path d="M55.8021 83.8809C50.4971 81.399 43.1964 88.8889 39.4949 100.61C35.7935 112.331 37.0958 123.84 42.4008 126.322C47.7058 128.804 55.0065 121.314 58.7079 109.593C62.4094 97.8719 61.1072 86.3563 55.8021 83.8809Z" fill="url(#paint57_linear_506_16475)"/>
<path d="M62.2776 111.407L66.2459 105.244L68.1539 106.058C67.6331 108.392 67.0006 110.751 66.2515 113.121C65.5025 115.484 64.6753 117.75 63.7804 119.91L61.9726 119.137L62.2776 111.407Z" fill="url(#paint58_linear_506_16475)"/>
<path d="M35.6564 98.6648L31.6934 104.827L30.049 104.127C30.5699 101.793 31.2021 99.4408 31.9458 97.0772C32.6948 94.7072 33.5222 92.4354 34.4223 90.2811L35.9614 90.9414L35.6564 98.6648Z" fill="url(#paint59_linear_506_16475)"/>
<path d="M58.3392 75.5688L56.4011 70.2039L57.5812 66.3675C58.778 66.4144 59.9456 66.6812 61.0624 67.2067C62.0897 67.6859 63.0299 68.3519 63.8833 69.1919L62.7366 72.9121L58.3392 75.5688Z" fill="url(#paint60_linear_506_16475)"/>
<path d="M39.5952 134.509L41.5331 139.874L40.32 143.82C39.2243 143.742 38.1573 143.476 37.1353 142.997C36.0185 142.471 34.9997 141.727 34.0841 140.776L35.1924 137.165L39.5952 134.509Z" fill="url(#paint61_linear_506_16475)"/>
<path d="M65.01 88.7053L66.4432 80.5547L68.6327 78.2408C69.5503 81.6681 70.0157 85.6865 70.0159 90.0687L67.907 92.2926L65.01 88.7053Z" fill="url(#paint62_linear_506_16475)"/>
<path d="M32.9294 121.367L31.4962 129.518L29.4893 131.633C28.5987 128.167 28.16 124.123 28.1919 119.722L30.0378 117.773L32.9294 121.367Z" fill="url(#paint63_linear_506_16475)"/>
<path d="M46.1841 79.6937L42.0131 80.2593L41.6318 77.182C44.029 73.8854 46.5826 71.2453 49.1478 69.4028L49.5148 72.3568L46.1841 79.6937Z" fill="url(#paint64_linear_506_16475)"/>
<path d="M51.7558 130.383L55.9267 129.817L56.3614 133.31C55.1536 135.065 53.843 136.553 52.5185 137.873C51.3119 139.084 50.0694 140.19 48.8257 140.966L48.425 137.726L51.7558 130.383Z" fill="url(#paint65_linear_506_16475)"/>
<path d="M37.5964 102.545C37.1522 104.238 36.7871 105.951 36.5231 107.634L37.1711 107.505C37.4235 105.907 37.7662 104.284 38.1881 102.682L37.5964 102.545ZM39.1663 97.5722L39.6807 97.9608C40.2502 96.4249 40.8879 94.9416 41.5828 93.5498L41.1718 92.9225C40.4443 94.3852 39.7686 95.9524 39.1663 97.5722ZM35.997 112.612C35.9193 114.225 35.9375 115.788 36.0469 117.261L36.722 116.634C36.617 115.239 36.5977 113.754 36.6744 112.225L35.997 112.612ZM43.5314 88.8022L43.8179 89.6419C44.6058 88.4457 45.4348 87.36 46.2833 86.4173L46.1312 85.4042C45.2345 86.3982 44.3571 87.5416 43.5314 88.8022ZM36.6648 121.378C36.9621 122.646 37.3509 123.791 37.8263 124.789L38.4054 123.772C37.9612 122.826 37.5875 121.739 37.3054 120.537L36.6648 121.378ZM48.8532 82.8571L48.8659 84.0047C49.7373 83.3475 50.6122 82.8457 51.464 82.506L51.59 81.2758C50.6905 81.628 49.7675 82.1615 48.8532 82.8571ZM39.4802 127.337C40.1024 128.025 40.8008 128.552 41.554 128.911L41.9449 127.684C41.2285 127.345 40.567 126.845 39.9761 126.196L39.4802 127.337ZM54.2191 80.7371L53.9548 81.9916C54.7495 81.9947 55.521 82.1596 56.2374 82.4988L56.2796 82.5187L56.6652 81.2917L56.6231 81.2718C55.8698 80.9191 55.0614 80.7408 54.2191 80.7371ZM44.2221 128.198L43.9579 129.452C44.8003 129.456 45.6871 129.279 46.5867 128.927L46.7181 127.697C45.861 128.036 45.022 128.201 44.2221 128.198ZM58.2429 84.0269C58.8337 84.6822 59.3589 85.4989 59.8083 86.4508L60.3927 85.44C59.9227 84.436 59.3661 83.5736 58.744 82.879L58.2429 84.0269ZM49.3107 126.211L49.3234 127.358C50.2376 126.669 51.1591 125.818 52.0506 124.818L51.8987 123.798C51.0502 124.747 50.1768 125.56 49.3107 126.211ZM60.8976 89.6921C61.1798 90.8947 61.3759 92.2065 61.4756 93.608L62.1507 92.9809C62.0413 91.508 61.8356 90.1182 61.5382 88.857L60.8976 89.6921ZM54.3585 120.587L54.645 121.433C55.476 120.172 56.2715 118.788 57.0044 117.325L56.5987 116.698C55.9039 118.077 55.1517 119.39 54.3585 120.587ZM61.5232 98.0168C61.4464 99.5522 61.2789 101.138 61.0211 102.743L61.669 102.615C61.9384 100.926 62.1174 99.2554 62.1952 97.6357L61.5232 98.0168ZM58.5009 112.281L59.0155 112.669C59.3221 111.843 59.6131 110.991 59.8829 110.145L59.883 110.139C60.1364 109.331 60.3741 108.511 60.5905 107.697L59.9988 107.56C59.7934 108.335 59.567 109.111 59.3246 109.879L59.3245 109.886C59.0711 110.693 58.7911 111.5 58.5009 112.281Z" fill="url(#paint66_linear_506_16475)"/>
<path d="M8.06151 144.653C8.68519 159.335 14.9812 174.509 26.9322 178.433L21.5242 180.035C13.7351 182.255 4.82421 170.148 1.62403 152.99C-1.57615 135.831 2.14513 120.125 9.93416 117.905L15.7004 116.265C10.579 123.763 7.43558 134.87 8.06151 144.653Z" fill="url(#paint67_linear_506_16475)"/>
<path d="M21.519 180.027C20.9036 180.2 20.215 180.317 19.4942 180.287L25.6802 178.229C25.9346 178.322 26.6667 178.338 26.9269 178.425L21.519 180.027Z" fill="url(#paint68_linear_506_16475)"/>
<path d="M12.4326 176.771C10.6028 174.998 8.86582 172.608 7.29926 169.726L14.4102 167.7C16.0077 170.366 17.9044 172.703 20.0963 174.584L12.4326 176.771Z" fill="url(#paint69_linear_506_16475)"/>
<path d="M14.4794 117.208L8.03316 118.735C8.59942 118.394 9.3246 118.056 9.94562 117.882L16.1563 116.116C16.0234 116.302 14.6009 117.022 14.4794 117.208Z" fill="url(#paint70_linear_506_16475)"/>
<path d="M0.809303 134.837C1.19708 131.403 1.91575 128.312 2.92919 125.733L10.1427 123.68C9.17137 126.531 8.56673 129.588 8.22789 132.731L0.809303 134.837Z" fill="url(#paint71_linear_506_16475)"/>
<path d="M9.85934 156.611L2.91917 158.591C2.42412 156.792 1.98674 154.925 1.62395 152.989C1.26124 151.046 0.989043 149.125 0.801668 147.24L8.08945 145.16C8.28711 149.019 8.87626 152.903 9.85934 156.611Z" fill="url(#paint72_linear_506_16475)"/>
<path d="M23.4738 146.867L23.8488 140.73L25.3879 140.234C25.8886 142.033 26.3202 143.907 26.683 145.843C27.0458 147.779 27.318 149.7 27.5054 151.585L26.046 152.054L23.4738 146.867Z" fill="#0000FF"/>
<path d="M17.0939 130.65L15.1 124.582L15.7002 121.9C17.5304 123.638 19.2793 125.994 20.852 128.841L20.2702 131.418L17.0939 130.65Z" fill="#0000FF"/>
<path d="M23.4047 164.863L25.929 162.246L27.466 164.279C27.0615 167.693 26.3206 170.755 25.2904 173.306L23.8652 171.42L23.4047 164.863Z" fill="#0000FF"/>
<path d="M16.1895 116.18C8.44042 118.386 4.74232 134.058 7.93724 151.182C11.1322 168.306 20.0036 180.398 27.7528 178.185C35.5019 175.978 39.2 160.306 36.0051 143.183C32.8102 126.059 23.9387 113.974 16.1895 116.18Z" fill="url(#paint73_linear_506_16475)"/>
<path d="M17.5751 123.716C11.6892 125.396 8.87719 137.264 11.2932 150.23C13.7092 163.196 20.4471 172.345 26.333 170.672C32.2189 168.992 35.0307 157.124 32.6147 144.157C30.1987 131.191 23.4611 122.036 17.5751 123.716Z" fill="#800000"/>
<path d="M11.7548 150.096C14.0642 162.485 20.5227 171.255 26.1408 169.655C31.7646 168.055 34.4627 156.672 32.1476 144.29C29.8382 131.902 23.3797 123.132 17.7615 124.732C12.1434 126.332 9.44538 137.708 11.7548 150.096ZM31.7317 144.404C33.9451 156.277 31.3606 167.182 25.9761 168.715C20.5859 170.248 14.4014 161.843 12.188 149.97C9.97457 138.096 12.5591 127.191 17.9436 125.658C23.3281 124.125 29.5182 132.537 31.7317 144.404Z" fill="url(#paint74_linear_506_16475)"/>
<path d="M18.1623 126.842C13.057 128.295 10.6219 138.583 12.718 149.822C14.8141 161.062 20.6524 168.997 25.752 167.544C30.8573 166.091 33.2924 155.803 31.1963 144.563C29.1003 133.317 23.2619 125.388 18.1623 126.842Z" fill="#B00000"/>
<path d="M18.6071 129.513C14.1571 130.78 12.0277 139.717 13.8465 149.473C15.6652 159.229 20.7496 166.114 25.1996 164.847C29.6496 163.581 31.7788 154.643 29.9601 144.887C28.1414 135.124 23.0572 128.247 18.6071 129.513Z" fill="#800000"/>
<path d="M18.7114 129.794C14.3469 131.034 12.2649 139.833 14.0569 149.443C15.849 159.053 20.838 165.832 25.2027 164.585C29.5672 163.345 31.6492 154.546 29.8571 144.943C28.0649 135.34 23.0703 128.554 18.7114 129.794Z" fill="url(#paint75_linear_506_16475)"/>
<path d="M32.847 144.202L33.222 138.065L34.7668 137.569C35.2618 139.368 35.6993 141.242 36.0621 143.178C36.4249 145.114 36.6969 147.035 36.8843 148.92L35.4251 149.389L32.847 144.202Z" fill="url(#paint76_linear_506_16475)"/>
<path d="M10.8504 150.244L10.4756 156.382L9.14734 156.811C8.65221 155.019 8.21474 153.145 7.85194 151.209C7.48924 149.266 7.21722 147.345 7.02984 145.46L8.27249 145.058L10.8504 150.244Z" fill="url(#paint77_linear_506_16475)"/>
<path d="M17.3847 123.024L14.1887 120.582L13.5791 117.455C14.3815 116.839 15.2387 116.384 16.156 116.124C16.9993 115.884 17.852 115.811 18.7141 115.898L19.302 118.934L17.3847 123.024Z" fill="url(#paint78_linear_506_16475)"/>
<path d="M26.3069 171.415L29.5027 173.857L30.1283 177.075C29.3836 177.615 28.5896 178.015 27.7463 178.255C26.8289 178.515 25.8913 178.573 24.9501 178.458L24.378 175.512L26.3069 171.415Z" fill="url(#paint79_linear_506_16475)"/>
<path d="M26.4675 127.978L24.4738 121.91L25.0738 119.228C26.904 120.966 28.6529 123.322 30.2256 126.169L29.6437 128.753L26.4675 127.978Z" fill="url(#paint80_linear_506_16475)"/>
<path d="M17.2245 166.462L19.2182 172.531L18.6663 174.991C16.8365 173.218 15.0993 170.828 13.5327 167.953L14.0425 165.694L17.2245 166.462Z" fill="url(#paint81_linear_506_16475)"/>
<path d="M10.9137 132.252L8.38944 134.862L7.03135 133.067C7.41904 129.639 8.13771 126.549 9.15124 123.962L10.4536 125.68L10.9137 132.252Z" fill="url(#paint82_linear_506_16475)"/>
<path d="M32.7778 162.19L35.3023 159.573L36.845 161.607C36.6872 163.397 36.3604 165.068 35.9723 166.641C35.62 168.075 35.2057 169.466 34.6691 170.641L33.2439 168.755L32.7778 162.19Z" fill="url(#paint83_linear_506_16475)"/>
<path d="M13.5125 151.723C13.8314 153.061 14.2074 154.372 14.6411 155.607L15.0154 155.174C14.6094 154.001 14.2495 152.76 13.9468 151.492L13.5125 151.723ZM12.7496 147.642L13.2213 147.62C13.0439 146.319 12.9289 145.011 12.8819 143.732L12.3902 143.546C12.4422 144.887 12.5617 146.271 12.7496 147.642ZM16.0864 159.126C16.6127 160.216 17.1854 161.224 17.7878 162.12L18.0016 161.352C17.4326 160.504 16.8876 159.546 16.3833 158.511L16.0864 159.126ZM12.4548 139.6L12.9441 139.995C13.0323 138.794 13.1825 137.643 13.3941 136.575L12.9297 136C12.7003 137.123 12.5438 138.336 12.4548 139.6ZM19.6732 164.464C20.3239 165.125 20.9875 165.661 21.6584 166.058L21.6759 165.085C21.0444 164.71 20.4088 164.202 19.7917 163.576L19.6732 164.464ZM13.7964 132.87L14.2192 133.604C14.5536 132.712 14.9438 131.911 15.3778 131.235L15.0191 130.369C14.5619 131.086 14.1484 131.929 13.7964 132.87ZM23.6537 166.818C24.311 166.931 24.9532 166.897 25.5742 166.723L25.3876 165.714C24.795 165.88 24.1871 165.908 23.5637 165.803L23.6537 166.818ZM16.5507 128.609L16.8287 129.571C17.3506 129.14 17.9107 128.841 18.5032 128.674L18.5375 128.668L18.3509 127.658L18.3166 127.671C17.6899 127.838 17.0956 128.157 16.5507 128.609ZM27.0675 164.831L27.3457 165.793C27.8962 165.341 28.4144 164.75 28.8772 164.04L28.5185 163.174C28.0789 163.843 27.5895 164.399 27.0675 164.831ZM20.3612 128.579C20.9845 128.69 21.6233 128.934 22.2547 129.31L22.272 128.337C21.6011 127.94 20.9342 127.675 20.2712 127.563L20.3612 128.579ZM29.6829 160.798L30.1055 161.539C30.4575 160.599 30.7484 159.553 30.9777 158.423L30.5134 157.841C30.2904 158.915 30.0173 159.905 29.6829 160.798ZM24.1329 130.826C24.7499 131.459 25.3485 132.21 25.9174 133.057L26.1312 132.289C25.5287 131.392 24.8966 130.599 24.2459 129.939L24.1329 130.826ZM30.9633 154.428L31.4526 154.823C31.5474 153.56 31.5633 152.233 31.5171 150.884L31.0255 150.691C31.0726 151.97 31.0516 153.227 30.9633 154.428ZM27.5356 135.905C28.0341 136.946 28.4975 138.063 28.9035 139.242L29.2835 138.809C28.8556 137.567 28.3644 136.38 27.8381 135.29L27.5356 135.905ZM30.6862 146.802L31.1635 146.78C31.0697 146.078 30.9534 145.367 30.8255 144.671C30.7029 144.01 30.5633 143.341 30.4121 142.7L29.9776 142.931C30.1236 143.544 30.2523 144.171 30.3696 144.798L30.3695 144.805C30.4866 145.459 30.5977 146.134 30.6862 146.802Z" fill="url(#paint84_linear_506_16475)"/>
<g style="mix-blend-mode:plus-lighter">
<path d="M36.0052 143.19C39.2001 160.314 35.5077 175.986 27.7529 178.192C26.2486 178.619 24.7055 178.503 23.1679 177.928L23.1273 117.709C28.6575 121.514 33.7491 131.087 36.0052 143.19Z" fill="url(#paint85_linear_506_16475)"/>
</g>
<defs>
<linearGradient id="paint0_linear_506_16475" x1="24.3263" y1="48.9613" x2="49.264" y2="95.7676" gradientUnits="userSpaceOnUse">
<stop stop-color="#B00000"/>
<stop offset="1" stop-color="#800000"/>
</linearGradient>
<linearGradient id="paint1_linear_506_16475" x1="19.7273" y1="51.409" x2="44.6847" y2="98.2526" gradientUnits="userSpaceOnUse">
<stop stop-color="#ADACAB"/>
<stop offset="0.9947" stop-color="#94908E"/>
</linearGradient>
<linearGradient id="paint2_linear_506_16475" x1="25.8485" y1="48.1497" x2="50.7858" y2="94.9552" gradientUnits="userSpaceOnUse">
<stop stop-color="#ADACAB"/>
<stop offset="0.9947" stop-color="#94908E"/>
</linearGradient>
<linearGradient id="paint3_linear_506_16475" x1="19.3183" y1="51.6291" x2="44.2548" y2="98.4353" gradientUnits="userSpaceOnUse">
<stop stop-color="#ADACAB"/>
<stop offset="0.9947" stop-color="#94908E"/>
</linearGradient>
<linearGradient id="paint4_linear_506_16475" x1="25.9572" y1="48.0892" x2="50.8947" y2="94.8964" gradientUnits="userSpaceOnUse">
<stop stop-color="#ADACAB"/>
<stop offset="0.9947" stop-color="#94908E"/>
</linearGradient>
<linearGradient id="paint5_linear_506_16475" x1="29.226" y1="46.3484" x2="54.164" y2="93.1544" gradientUnits="userSpaceOnUse">
<stop stop-color="#ADACAB"/>
<stop offset="0.9947" stop-color="#94908E"/>
</linearGradient>
<linearGradient id="paint6_linear_506_16475" x1="11.4903" y1="70.9172" x2="42.001" y2="82.8707" gradientUnits="userSpaceOnUse">
<stop stop-color="#FF1916"/>
<stop offset="1" stop-color="#D10000"/>
</linearGradient>
<linearGradient id="paint7_linear_506_16475" x1="38.1959" y1="84.8464" x2="12.31" y2="76.8036" gradientUnits="userSpaceOnUse">
<stop stop-color="#F3F5F4"/>
<stop offset="0.7063" stop-color="#E5E5E4"/>
<stop offset="0.9947" stop-color="#D4D2D1"/>
</linearGradient>
<linearGradient id="paint8_linear_506_16475" x1="16.838" y1="72.3625" x2="35.5172" y2="82.1548" gradientUnits="userSpaceOnUse">
<stop stop-color="#FF3633"/>
<stop offset="1" stop-color="#F11B1A"/>
</linearGradient>
<linearGradient id="paint9_linear_506_16475" x1="7.77324" y1="80.2803" x2="38.343" y2="92.2571" gradientUnits="userSpaceOnUse">
<stop stop-color="#F3F5F4"/>
<stop offset="0.7063" stop-color="#E5E5E4"/>
<stop offset="0.9947" stop-color="#D4D2D1"/>
</linearGradient>
<linearGradient id="paint10_linear_506_16475" x1="15.1685" y1="61.4057" x2="45.7362" y2="73.3823" gradientUnits="userSpaceOnUse">
<stop stop-color="#F3F5F4"/>
<stop offset="0.7063" stop-color="#E5E5E4"/>
<stop offset="0.9947" stop-color="#D4D2D1"/>
</linearGradient>
<linearGradient id="paint11_linear_506_16475" x1="5.66278" y1="85.6683" x2="36.2308" y2="97.6444" gradientUnits="userSpaceOnUse">
<stop stop-color="#F3F5F4"/>
<stop offset="0.7063" stop-color="#E5E5E4"/>
<stop offset="0.9947" stop-color="#D4D2D1"/>
</linearGradient>
<linearGradient id="paint12_linear_506_16475" x1="17.3011" y1="55.9612" x2="47.8681" y2="67.9373" gradientUnits="userSpaceOnUse">
<stop stop-color="#F3F5F4"/>
<stop offset="0.7063" stop-color="#E5E5E4"/>
<stop offset="0.9947" stop-color="#D4D2D1"/>
</linearGradient>
<linearGradient id="paint13_linear_506_16475" x1="4.97393" y1="87.4264" x2="35.5423" y2="99.4023" gradientUnits="userSpaceOnUse">
<stop stop-color="#F3F5F4"/>
<stop offset="0.7063" stop-color="#E5E5E4"/>
<stop offset="0.9947" stop-color="#D4D2D1"/>
</linearGradient>
<linearGradient id="paint14_linear_506_16475" x1="17.9667" y1="54.2645" x2="48.5328" y2="66.2394" gradientUnits="userSpaceOnUse">
<stop stop-color="#F3F5F4"/>
<stop offset="0.7063" stop-color="#E5E5E4"/>
<stop offset="0.9947" stop-color="#D4D2D1"/>
</linearGradient>
<linearGradient id="paint15_linear_506_16475" x1="9.97971" y1="74.6448" x2="40.5493" y2="86.6212" gradientUnits="userSpaceOnUse">
<stop stop-color="#F3F5F4"/>
<stop offset="0.7063" stop-color="#E5E5E4"/>
<stop offset="0.9947" stop-color="#D4D2D1"/>
</linearGradient>
<linearGradient id="paint16_linear_506_16475" x1="12.9986" y1="66.9418" x2="43.5651" y2="78.9173" gradientUnits="userSpaceOnUse">
<stop stop-color="#F3F5F4"/>
<stop offset="0.7063" stop-color="#E5E5E4"/>
<stop offset="0.9947" stop-color="#D4D2D1"/>
</linearGradient>
<linearGradient id="paint17_linear_506_16475" x1="38.257" y1="84.8584" x2="12.3716" y2="76.8154" gradientUnits="userSpaceOnUse">
<stop stop-color="#F3F5F4"/>
<stop offset="0.7063" stop-color="#E5E5E4"/>
<stop offset="0.9947" stop-color="#D4D2D1"/>
</linearGradient>
<linearGradient id="paint18_linear_506_16475" x1="11.7282" y1="79.7003" x2="34.1816" y2="78.2455" gradientUnits="userSpaceOnUse">
<stop stop-color="#727272"/>
<stop offset="0.2297" stop-color="#515151"/>
<stop offset="0.5743" stop-color="#252525"/>
<stop offset="0.8427" stop-color="#0A0A0A"/>
<stop offset="1"/>
</linearGradient>
<linearGradient id="paint19_linear_506_16475" x1="81.6142" y1="163.657" x2="55.7596" y2="111.213" gradientUnits="userSpaceOnUse">
<stop stop-color="#B00000"/>
<stop offset="1" stop-color="#800000"/>
</linearGradient>
<linearGradient id="paint20_linear_506_16475" x1="80.1532" y1="164.376" x2="54.2993" y2="111.933" gradientUnits="userSpaceOnUse">
<stop stop-color="#ADACAB"/>
<stop offset="0.9947" stop-color="#94908E"/>
</linearGradient>
<linearGradient id="paint21_linear_506_16475" x1="84.8302" y1="162.107" x2="58.9605" y2="109.632" gradientUnits="userSpaceOnUse">
<stop stop-color="#ADACAB"/>
<stop offset="0.9947" stop-color="#94908E"/>
</linearGradient>
<linearGradient id="paint22_linear_506_16475" x1="80.1614" y1="164.373" x2="54.3064" y2="111.928" gradientUnits="userSpaceOnUse">
<stop stop-color="#ADACAB"/>
<stop offset="0.9947" stop-color="#94908E"/>
</linearGradient>
<linearGradient id="paint23_linear_506_16475" x1="78.0015" y1="165.439" x2="52.1468" y2="112.995" gradientUnits="userSpaceOnUse">
<stop stop-color="#ADACAB"/>
<stop offset="0.9947" stop-color="#94908E"/>
</linearGradient>
<linearGradient id="paint24_linear_506_16475" x1="90.2015" y1="142.199" x2="64.7906" y2="128.231" gradientUnits="userSpaceOnUse">
<stop stop-color="#FF1916"/>
<stop offset="1" stop-color="#D10000"/>
</linearGradient>
<linearGradient id="paint25_linear_506_16475" x1="72.1603" y1="113" x2="90.3471" y2="149.89" gradientUnits="userSpaceOnUse">
<stop stop-color="#F3F5F4"/>
<stop offset="0.7063" stop-color="#E5E5E4"/>
<stop offset="0.9947" stop-color="#D4D2D1"/>
</linearGradient>
<linearGradient id="paint26_linear_506_16475" x1="84.7154" y1="139.272" x2="68.3985" y2="127.536" gradientUnits="userSpaceOnUse">
<stop stop-color="#FF3633"/>
<stop offset="1" stop-color="#F11B1A"/>
</linearGradient>
<linearGradient id="paint27_linear_506_16475" x1="86.7959" y1="148.46" x2="61.3441" y2="134.471" gradientUnits="userSpaceOnUse">
<stop stop-color="#F3F5F4"/>
<stop offset="0.7063" stop-color="#E5E5E4"/>
<stop offset="0.9947" stop-color="#D4D2D1"/>
</linearGradient>
<linearGradient id="paint28_linear_506_16475" x1="97.2817" y1="129.386" x2="71.8273" y2="115.395" gradientUnits="userSpaceOnUse">
<stop stop-color="#F3F5F4"/>
<stop offset="0.7063" stop-color="#E5E5E4"/>
<stop offset="0.9947" stop-color="#D4D2D1"/>
</linearGradient>
<linearGradient id="paint29_linear_506_16475" x1="97.5083" y1="128.975" x2="72.054" y2="114.984" gradientUnits="userSpaceOnUse">
<stop stop-color="#F3F5F4"/>
<stop offset="0.7063" stop-color="#E5E5E4"/>
<stop offset="0.9947" stop-color="#D4D2D1"/>
</linearGradient>
<linearGradient id="paint30_linear_506_16475" x1="82.9148" y1="155.523" x2="57.4625" y2="141.533" gradientUnits="userSpaceOnUse">
<stop stop-color="#F3F5F4"/>
<stop offset="0.7063" stop-color="#E5E5E4"/>
<stop offset="0.9947" stop-color="#D4D2D1"/>
</linearGradient>
<linearGradient id="paint31_linear_506_16475" x1="92.8301" y1="137.484" x2="67.3768" y2="123.494" gradientUnits="userSpaceOnUse">
<stop stop-color="#F3F5F4"/>
<stop offset="0.7063" stop-color="#E5E5E4"/>
<stop offset="0.9947" stop-color="#D4D2D1"/>
</linearGradient>
<linearGradient id="paint32_linear_506_16475" x1="72.9969" y1="115.401" x2="88.9478" y2="147.756" gradientUnits="userSpaceOnUse">
<stop stop-color="#F3F5F4"/>
<stop offset="0.7063" stop-color="#E5E5E4"/>
<stop offset="0.9947" stop-color="#D4D2D1"/>
</linearGradient>
<linearGradient id="paint33_linear_506_16475" x1="87.9344" y1="130.537" x2="71.9416" y2="134.049" gradientUnits="userSpaceOnUse">
<stop stop-color="#727272"/>
<stop offset="0.2297" stop-color="#515151"/>
<stop offset="0.5743" stop-color="#252525"/>
<stop offset="0.8427" stop-color="#0A0A0A"/>
<stop offset="1"/>
</linearGradient>
<linearGradient id="paint34_linear_506_16475" x1="56.0365" y1="0.37852" x2="91.9391" y2="30.2466" gradientUnits="userSpaceOnUse">
<stop stop-color="#141718"/>
<stop offset="1" stop-color="#06090A"/>
</linearGradient>
<linearGradient id="paint35_linear_506_16475" x1="53.9142" y1="2.93092" x2="89.7949" y2="32.7814" gradientUnits="userSpaceOnUse">
<stop stop-color="#ADACAB"/>
<stop offset="0.9947" stop-color="#94908E"/>
</linearGradient>
<linearGradient id="paint36_linear_506_16475" x1="57.007" y1="-0.788006" x2="92.9102" y2="29.0808" gradientUnits="userSpaceOnUse">
<stop stop-color="#ADACAB"/>
<stop offset="0.9947" stop-color="#94908E"/>
</linearGradient>
<linearGradient id="paint37_linear_506_16475" x1="58.4335" y1="-2.50313" x2="94.3379" y2="27.3669" gradientUnits="userSpaceOnUse">
<stop stop-color="#ADACAB"/>
<stop offset="0.9947" stop-color="#94908E"/>
</linearGradient>
<linearGradient id="paint38_linear_506_16475" x1="55.0119" y1="20.9036" x2="78.5538" y2="24.7667" gradientUnits="userSpaceOnUse">
<stop stop-color="#333637"/>
<stop offset="1" stop-color="#1F2223"/>
</linearGradient>
<linearGradient id="paint39_linear_506_16475" x1="77.3177" y1="36.7616" x2="52.0634" y2="15.752" gradientUnits="userSpaceOnUse">
<stop stop-color="#F3F5F4"/>
<stop offset="0.7063" stop-color="#E5E5E4"/>
<stop offset="0.9947" stop-color="#D4D2D1"/>
</linearGradient>
<linearGradient id="paint40_linear_506_16475" x1="60.18" y1="20.999" x2="75.9053" y2="25.3738" gradientUnits="userSpaceOnUse">
<stop stop-color="#4D4F50"/>
<stop offset="0.4028" stop-color="#3F4142"/>
<stop offset="1" stop-color="#2E3132"/>
</linearGradient>
<linearGradient id="paint41_linear_506_16475" x1="53.9549" y1="27.1751" x2="77.5374" y2="31.0455" gradientUnits="userSpaceOnUse">
<stop stop-color="#F3F5F4"/>
<stop offset="0.7063" stop-color="#E5E5E4"/>
<stop offset="0.9947" stop-color="#D4D2D1"/>
</linearGradient>
<linearGradient id="paint42_linear_506_16475" x1="56.0272" y1="14.551" x2="79.6086" y2="18.4202" gradientUnits="userSpaceOnUse">
<stop stop-color="#F3F5F4"/>
<stop offset="0.7063" stop-color="#E5E5E4"/>
<stop offset="0.9947" stop-color="#D4D2D1"/>
</linearGradient>
<linearGradient id="paint43_linear_506_16475" x1="57.1452" y1="7.73979" x2="80.7265" y2="11.6092" gradientUnits="userSpaceOnUse">
<stop stop-color="#F3F5F4"/>
<stop offset="0.7063" stop-color="#E5E5E4"/>
<stop offset="0.9947" stop-color="#D4D2D1"/>
</linearGradient>
<linearGradient id="paint44_linear_506_16475" x1="52.774" y1="34.3747" x2="76.3552" y2="38.2443" gradientUnits="userSpaceOnUse">
<stop stop-color="#F3F5F4"/>
<stop offset="0.7063" stop-color="#E5E5E4"/>
<stop offset="0.9947" stop-color="#D4D2D1"/>
</linearGradient>
<linearGradient id="paint45_linear_506_16475" x1="57.2076" y1="7.36625" x2="80.7883" y2="11.2357" gradientUnits="userSpaceOnUse">
<stop stop-color="#F3F5F4"/>
<stop offset="0.7063" stop-color="#E5E5E4"/>
<stop offset="0.9947" stop-color="#D4D2D1"/>
</linearGradient>
<linearGradient id="paint46_linear_506_16475" x1="54.1974" y1="25.7164" x2="77.7767" y2="29.5857" gradientUnits="userSpaceOnUse">
<stop stop-color="#F3F5F4"/>
<stop offset="0.7063" stop-color="#E5E5E4"/>
<stop offset="0.9947" stop-color="#D4D2D1"/>
</linearGradient>
<linearGradient id="paint47_linear_506_16475" x1="55.8005" y1="15.9344" x2="79.3809" y2="19.8037" gradientUnits="userSpaceOnUse">
<stop stop-color="#F3F5F4"/>
<stop offset="0.7063" stop-color="#E5E5E4"/>
<stop offset="0.9947" stop-color="#D4D2D1"/>
</linearGradient>
<linearGradient id="paint48_linear_506_16475" x1="75.9996" y1="35.1964" x2="53.8497" y2="16.7694" gradientUnits="userSpaceOnUse">
<stop stop-color="#F3F5F4"/>
<stop offset="0.7063" stop-color="#E5E5E4"/>
<stop offset="0.9947" stop-color="#D4D2D1"/>
</linearGradient>
<linearGradient id="paint49_linear_506_16475" x1="24.1133" y1="138.631" x2="58.338" y2="64.9697" gradientUnits="userSpaceOnUse">
<stop stop-color="#141718"/>
<stop offset="1" stop-color="#06090A"/>
</linearGradient>
<linearGradient id="paint50_linear_506_16475" x1="31.1892" y1="141.919" x2="65.4215" y2="68.2426" gradientUnits="userSpaceOnUse">
<stop stop-color="#ADACAB"/>
<stop offset="0.9947" stop-color="#94908E"/>
</linearGradient>
<linearGradient id="paint51_linear_506_16475" x1="21.7709" y1="137.541" x2="55.9957" y2="63.8801" gradientUnits="userSpaceOnUse">
<stop stop-color="#ADACAB"/>
<stop offset="0.9947" stop-color="#94908E"/>
</linearGradient>
<linearGradient id="paint52_linear_506_16475" x1="31.8202" y1="142.217" x2="66.0477" y2="68.5514" gradientUnits="userSpaceOnUse">
<stop stop-color="#ADACAB"/>
<stop offset="0.9947" stop-color="#94908E"/>
</linearGradient>
<linearGradient id="paint53_linear_506_16475" x1="21.6037" y1="137.466" x2="55.8294" y2="63.8028" gradientUnits="userSpaceOnUse">
<stop stop-color="#ADACAB"/>
<stop offset="0.9947" stop-color="#94908E"/>
</linearGradient>
<linearGradient id="paint54_linear_506_16475" x1="16.5724" y1="135.128" x2="50.7966" y2="61.4667" gradientUnits="userSpaceOnUse">
<stop stop-color="#ADACAB"/>
<stop offset="0.9947" stop-color="#94908E"/>
</linearGradient>
<linearGradient id="paint55_linear_506_16475" x1="56.9442" y1="131.354" x2="33.4316" y2="79.2649" gradientUnits="userSpaceOnUse">
<stop stop-color="#333637"/>
<stop offset="1" stop-color="#1F2223"/>
</linearGradient>
<linearGradient id="paint56_linear_506_16475" x1="57.9985" y1="128.587" x2="34.6206" y2="87.7009" gradientUnits="userSpaceOnUse">
<stop stop-color="#F3F5F4"/>
<stop offset="0.7063" stop-color="#E5E5E4"/>
<stop offset="0.9947" stop-color="#D4D2D1"/>
</linearGradient>
<linearGradient id="paint57_linear_506_16475" x1="52.4313" y1="122.855" x2="42.3223" y2="87.5607" gradientUnits="userSpaceOnUse">
<stop stop-color="#4D4F50"/>
<stop offset="0.4028" stop-color="#3F4142"/>
<stop offset="1" stop-color="#2E3132"/>
</linearGradient>
<linearGradient id="paint58_linear_506_16475" x1="69.0511" y1="125.976" x2="45.494" y2="73.7885" gradientUnits="userSpaceOnUse">
<stop stop-color="#F3F5F4"/>
<stop offset="0.7063" stop-color="#E5E5E4"/>
<stop offset="0.9947" stop-color="#D4D2D1"/>
</linearGradient>
<linearGradient id="paint59_linear_506_16475" x1="44.7534" y1="136.944" x2="21.1961" y2="84.756" gradientUnits="userSpaceOnUse">
<stop stop-color="#F3F5F4"/>
<stop offset="0.7063" stop-color="#E5E5E4"/>
<stop offset="0.9947" stop-color="#D4D2D1"/>
</linearGradient>
<linearGradient id="paint60_linear_506_16475" x1="75.9878" y1="122.842" x2="52.4315" y2="70.6571" gradientUnits="userSpaceOnUse">
<stop stop-color="#F3F5F4"/>
<stop offset="0.7063" stop-color="#E5E5E4"/>
<stop offset="0.9947" stop-color="#D4D2D1"/>
</linearGradient>
<linearGradient id="paint61_linear_506_16475" x1="37.7439" y1="140.107" x2="14.1877" y2="87.9218" gradientUnits="userSpaceOnUse">
<stop stop-color="#F3F5F4"/>
<stop offset="0.7063" stop-color="#E5E5E4"/>
<stop offset="0.9947" stop-color="#D4D2D1"/>
</linearGradient>
<linearGradient id="paint62_linear_506_16475" x1="78.2532" y1="121.823" x2="54.6956" y2="69.6349" gradientUnits="userSpaceOnUse">
<stop stop-color="#F3F5F4"/>
<stop offset="0.7063" stop-color="#E5E5E4"/>
<stop offset="0.9947" stop-color="#D4D2D1"/>
</linearGradient>
<linearGradient id="paint63_linear_506_16475" x1="35.5555" y1="141.097" x2="11.9976" y2="88.9091" gradientUnits="userSpaceOnUse">
<stop stop-color="#F3F5F4"/>
<stop offset="0.7063" stop-color="#E5E5E4"/>
<stop offset="0.9947" stop-color="#D4D2D1"/>
</linearGradient>
<linearGradient id="paint64_linear_506_16475" x1="61.8" y1="129.252" x2="38.2414" y2="77.0618" gradientUnits="userSpaceOnUse">
<stop stop-color="#F3F5F4"/>
<stop offset="0.7063" stop-color="#E5E5E4"/>
<stop offset="0.9947" stop-color="#D4D2D1"/>
</linearGradient>
<linearGradient id="paint65_linear_506_16475" x1="51.882" y1="133.726" x2="28.3256" y2="81.5405" gradientUnits="userSpaceOnUse">
<stop stop-color="#F3F5F4"/>
<stop offset="0.7063" stop-color="#E5E5E4"/>
<stop offset="0.9947" stop-color="#D4D2D1"/>
</linearGradient>
<linearGradient id="paint66_linear_506_16475" x1="57.9794" y1="128.597" x2="34.6015" y2="87.7104" gradientUnits="userSpaceOnUse">
<stop stop-color="#F3F5F4"/>
<stop offset="0.7063" stop-color="#E5E5E4"/>
<stop offset="0.9947" stop-color="#D4D2D1"/>
</linearGradient>
<linearGradient id="paint67_linear_506_16475" x1="17.6639" y1="182.427" x2="-0.257287" y2="120.123" gradientUnits="userSpaceOnUse">
<stop stop-color="#B00000"/>
<stop offset="1" stop-color="#800000"/>
</linearGradient>
<linearGradient id="paint68_linear_506_16475" x1="23.4759" y1="180.755" x2="5.55301" y2="118.446" gradientUnits="userSpaceOnUse">
<stop stop-color="#ADACAB"/>
<stop offset="0.9947" stop-color="#94908E"/>
</linearGradient>
<linearGradient id="paint69_linear_506_16475" x1="15.7409" y1="182.98" x2="-2.17984" y2="120.677" gradientUnits="userSpaceOnUse">
<stop stop-color="#ADACAB"/>
<stop offset="0.9947" stop-color="#94908E"/>
</linearGradient>
<linearGradient id="paint70_linear_506_16475" x1="23.9903" y1="180.59" x2="6.07368" y2="118.301" gradientUnits="userSpaceOnUse">
<stop stop-color="#ADACAB"/>
<stop offset="0.9947" stop-color="#94908E"/>
</linearGradient>
<linearGradient id="paint71_linear_506_16475" x1="15.6034" y1="183.02" x2="-2.31803" y2="120.715" gradientUnits="userSpaceOnUse">
<stop stop-color="#ADACAB"/>
<stop offset="0.9947" stop-color="#94908E"/>
</linearGradient>
<linearGradient id="paint72_linear_506_16475" x1="11.4721" y1="184.207" x2="-6.44746" y2="121.904" gradientUnits="userSpaceOnUse">
<stop stop-color="#ADACAB"/>
<stop offset="0.9947" stop-color="#94908E"/>
</linearGradient>
<linearGradient id="paint73_linear_506_16475" x1="36.5244" y1="160.031" x2="1.97292" y2="139.591" gradientUnits="userSpaceOnUse">
<stop stop-color="#FF1916"/>
<stop offset="1" stop-color="#D10000"/>
</linearGradient>
<linearGradient id="paint74_linear_506_16475" x1="36.219" y1="157.666" x2="6.54702" y2="143.033" gradientUnits="userSpaceOnUse">
<stop stop-color="#F3F5F4"/>
<stop offset="0.7063" stop-color="#E5E5E4"/>
<stop offset="0.9947" stop-color="#D4D2D1"/>
</linearGradient>
<linearGradient id="paint75_linear_506_16475" x1="30.517" y1="156.937" x2="9.86454" y2="141.22" gradientUnits="userSpaceOnUse">
<stop stop-color="#FF3633"/>
<stop offset="1" stop-color="#F11B1A"/>
</linearGradient>
<linearGradient id="paint76_linear_506_16475" x1="42.5106" y1="150.021" x2="7.89414" y2="129.542" gradientUnits="userSpaceOnUse">
<stop stop-color="#F3F5F4"/>
<stop offset="0.7063" stop-color="#E5E5E4"/>
<stop offset="0.9947" stop-color="#D4D2D1"/>
</linearGradient>
<linearGradient id="paint77_linear_506_16475" x1="30.5576" y1="170.222" x2="-4.05685" y2="149.745" gradientUnits="userSpaceOnUse">
<stop stop-color="#F3F5F4"/>
<stop offset="0.7063" stop-color="#E5E5E4"/>
<stop offset="0.9947" stop-color="#D4D2D1"/>
</linearGradient>
<linearGradient id="paint78_linear_506_16475" x1="45.92" y1="144.252" x2="11.3054" y2="123.775" gradientUnits="userSpaceOnUse">
<stop stop-color="#F3F5F4"/>
<stop offset="0.7063" stop-color="#E5E5E4"/>
<stop offset="0.9947" stop-color="#D4D2D1"/>
</linearGradient>
<linearGradient id="paint79_linear_506_16475" x1="27.1111" y1="176.051" x2="-7.50291" y2="155.573" gradientUnits="userSpaceOnUse">
<stop stop-color="#F3F5F4"/>
<stop offset="0.7063" stop-color="#E5E5E4"/>
<stop offset="0.9947" stop-color="#D4D2D1"/>
</linearGradient>
<linearGradient id="paint80_linear_506_16475" x1="47.0352" y1="142.372" x2="12.4198" y2="121.894" gradientUnits="userSpaceOnUse">
<stop stop-color="#F3F5F4"/>
<stop offset="0.7063" stop-color="#E5E5E4"/>
<stop offset="0.9947" stop-color="#D4D2D1"/>
</linearGradient>
<linearGradient id="paint81_linear_506_16475" x1="26.0349" y1="177.87" x2="-8.58109" y2="157.391" gradientUnits="userSpaceOnUse">
<stop stop-color="#F3F5F4"/>
<stop offset="0.7063" stop-color="#E5E5E4"/>
<stop offset="0.9947" stop-color="#D4D2D1"/>
</linearGradient>
<linearGradient id="paint82_linear_506_16475" x1="38.9429" y1="156.054" x2="4.32558" y2="135.575" gradientUnits="userSpaceOnUse">
<stop stop-color="#F3F5F4"/>
<stop offset="0.7063" stop-color="#E5E5E4"/>
<stop offset="0.9947" stop-color="#D4D2D1"/>
</linearGradient>
<linearGradient id="paint83_linear_506_16475" x1="34.0647" y1="164.297" x2="-0.552197" y2="143.817" gradientUnits="userSpaceOnUse">
<stop stop-color="#F3F5F4"/>
<stop offset="0.7063" stop-color="#E5E5E4"/>
<stop offset="0.9947" stop-color="#D4D2D1"/>
</linearGradient>
<linearGradient id="paint84_linear_506_16475" x1="36.2098" y1="157.684" x2="6.53844" y2="143.051" gradientUnits="userSpaceOnUse">
<stop stop-color="#F3F5F4"/>
<stop offset="0.7063" stop-color="#E5E5E4"/>
<stop offset="0.9947" stop-color="#D4D2D1"/>
</linearGradient>
<linearGradient id="paint85_linear_506_16475" x1="37.7799" y1="149.67" x2="11.0777" y2="147.454" gradientUnits="userSpaceOnUse">
<stop stop-color="#727272"/>
<stop offset="0.2297" stop-color="#515151"/>
<stop offset="0.5743" stop-color="#252525"/>
<stop offset="0.8427" stop-color="#0A0A0A"/>
<stop offset="1"/>
</linearGradient>
</defs>
</svg>
