<svg width="95" height="196" viewBox="0 0 95 196" fill="none" xmlns="http://www.w3.org/2000/svg">
<path d="M5.22192 82.6691C4.5099 70.4657 -0.988579 58.2638 -11.1261 55.8657L-6.58018 54.1389C-0.0380651 51.7209 7.63492 61.168 10.5509 75.2524C13.4678 89.3305 10.5228 102.709 3.98064 105.127L-0.864224 106.922C3.35671 100.274 5.87296 90.7824 5.22192 82.6691Z" fill="url(#paint0_linear_506_16273)"/>
<path d="M1.12447 56.187C2.6888 57.5358 4.18866 59.3993 5.54092 61.6866L-0.435755 63.8987C-1.81426 61.7911 -3.44507 59.9808 -5.32204 58.5733L1.12447 56.187Z" fill="url(#paint1_linear_506_16273)"/>
<path d="M0.149841 106.027L5.57096 104.284C5.10064 104.608 4.48932 104.945 3.96865 105.138L-1.24844 107.061C-1.14358 106.893 0.0449767 106.195 0.149841 106.027Z" fill="url(#paint2_linear_506_16273)"/>
<path d="M11.4605 90.3185C11.177 93.2119 10.6108 95.8412 9.78693 98.0726L3.72608 100.312C4.50749 97.8581 4.98219 95.2678 5.22914 92.6246L11.4605 90.3185Z" fill="url(#paint3_linear_506_16273)"/>
<path d="M3.5558 72.8197L9.39025 70.6652C9.83017 72.1248 10.2222 73.656 10.5524 75.2437C10.8817 76.8378 11.1374 78.4211 11.3218 79.9809L5.19846 82.244C4.97672 79.0345 4.42682 75.8359 3.5558 72.8197Z" fill="url(#paint4_linear_506_16273)"/>
<path d="M-2.22825 95.0042L-0.473662 99.9248L-0.95163 102.207C-2.52065 100.89 -4.02417 99.0524 -5.38636 96.7965L-4.93113 94.5964L-2.22825 95.0042Z" fill="#0000FF"/>
<path d="M-1.28413 107.011C5.2299 104.602 8.14827 91.2587 5.23809 77.2078C2.32791 63.157 -5.31359 53.7147 -11.8224 56.1244C-18.3364 58.5333 -21.2548 71.8766 -18.3446 85.9275C-15.4344 99.9783 -7.79292 109.421 -1.28413 107.011Z" fill="url(#paint5_linear_506_16273)"/>
<path d="M-2.5486 100.825C2.39725 98.9995 4.62384 88.8893 2.41988 78.2498C0.215915 67.6103 -5.5774 60.4686 -10.5233 62.2943C-15.4691 64.12 -17.6957 74.2302 -15.4917 84.8697C-13.2878 95.5092 -7.49445 102.651 -2.5486 100.825Z" fill="#800000"/>
<path d="M2.03011 78.3887C-0.0769483 68.2219 -5.62999 61.3773 -10.3555 63.1238C-15.081 64.8704 -17.2142 74.562 -15.1072 84.7288C-13.0001 94.8956 -7.44706 101.74 -2.72157 99.9935C2.00392 98.2469 4.13716 88.5555 2.03011 78.3887ZM-14.7506 84.5974C-16.7699 74.8561 -14.7228 65.5713 -10.1948 63.8942C-5.66688 62.217 -0.34143 68.7859 1.67789 78.5272C3.6972 88.2685 1.65027 97.5532 -2.87771 99.2304C-7.40474 100.901 -12.7313 94.3386 -14.7506 84.5974Z" fill="url(#paint6_linear_506_16273)"/>
<path d="M-3.07847 98.2592C1.21154 96.6717 3.13884 87.913 1.22653 78.6853C-0.681474 69.4647 -5.70795 63.267 -9.99796 64.8545C-14.288 66.4419 -16.2152 75.2004 -14.3029 84.4281C-12.3906 93.6559 -7.36849 99.8466 -3.07847 98.2592Z" fill="#B00000"/>
<path d="M-3.49129 96.0644C0.249036 94.6849 1.93442 87.0703 0.277104 79.0654C-1.38022 71.0606 -5.75591 65.6851 -9.49193 67.0718C-13.2323 68.4513 -14.9175 76.0661 -13.2602 84.071C-11.6029 92.0758 -7.23162 97.444 -3.49129 96.0644Z" fill="#800000"/>
<path d="M-3.58045 95.8323C0.087046 94.475 1.73255 86.9855 0.100301 79.1022C-1.53195 71.219 -5.82871 65.927 -9.49003 67.2788C-13.1575 68.6362 -14.8032 76.1256 -13.1709 84.0089C-11.5396 91.8986 -7.24795 97.1897 -3.58045 95.8323Z" fill="url(#paint7_linear_506_16273)"/>
<path d="M2.79679 78.199L3.04 73.0527L4.15555 72.5999C4.59547 74.0595 4.98734 75.5907 5.31753 77.1784C5.64679 78.7725 5.90272 80.3558 6.08708 81.9157L5.04531 82.3398L2.79679 78.199Z" fill="url(#paint8_linear_506_16273)"/>
<path d="M-2.37799 101.38L0.350843 103.187L0.902574 105.751C0.235639 106.321 -0.486939 106.76 -1.25699 107.047C-1.96469 107.31 -2.68942 107.433 -3.41636 107.425L-3.95218 104.937L-2.37799 101.38Z" fill="url(#paint9_linear_506_16273)"/>
<path d="M-2.78996 65.1346L-4.54458 60.2142L-4.11055 58.1224C-2.54622 59.4711 -1.04634 61.3344 0.30593 63.6217L-0.0923875 65.5419L-2.78996 65.1346Z" fill="url(#paint10_linear_506_16273)"/>
<path d="M2.96341 93.2182L5.06503 90.8525L6.23067 92.2545C5.94717 95.1478 5.38111 97.777 4.55292 100.001L3.43208 98.6583L2.96341 93.2182Z" fill="url(#paint11_linear_506_16273)"/>
<path d="M0.533344 77.1635C0.249132 76.0673 -0.0879116 75.0026 -0.46668 74.0039L-0.780161 74.3905C-0.421043 75.3404 -0.102736 76.3499 0.168942 77.3854L0.533344 77.1635ZM1.22273 80.5068L0.824003 80.56C0.993832 81.6329 1.10319 82.7167 1.162 83.78L1.58343 83.9003C1.52163 82.7842 1.39892 81.6462 1.22273 80.5068ZM-1.73499 71.1787C-2.19633 70.3056 -2.68986 69.5063 -3.2089 68.8081L-3.37978 69.4645C-2.88845 70.1324 -2.41549 70.8894 -1.97904 71.713L-1.73499 71.1787ZM1.5778 87.2011L1.15978 86.9109C1.10365 87.9181 0.988329 88.8904 0.823822 89.7966L1.22367 90.248C1.39661 89.2841 1.51418 88.2596 1.5778 87.2011ZM-4.82736 66.9864C-5.38593 66.4855 -5.9533 66.0816 -6.52276 65.8019L-6.52363 66.6142C-5.98469 66.8829 -5.44503 67.2564 -4.9151 67.7334L-4.82736 66.9864ZM0.529434 92.911L0.165096 92.3272C-0.103107 93.1004 -0.423915 93.7937 -0.784012 94.3897L-0.474092 95.0899C-0.0926471 94.4577 0.244189 93.7275 0.529434 92.911ZM-8.21783 65.3119C-8.77291 65.2636 -9.31433 65.3418 -9.84023 65.5335L-9.67155 66.3572C-9.17372 66.1745 -8.66037 66.1055 -8.13674 66.1492L-8.21783 65.3119ZM-1.74308 96.6667L-1.98848 95.8906C-2.42099 96.286 -2.89175 96.5775 -3.38958 96.7602L-3.4177 96.7693L-3.24373 97.5938L-3.21564 97.5849C-2.69497 97.3924 -2.20031 97.0847 -1.74308 96.6667ZM-11.0719 67.2206L-11.3162 66.438C-11.7787 66.8552 -12.2037 67.3828 -12.5852 68.0149L-12.2753 68.7153C-11.9152 68.1194 -11.5097 67.6152 -11.0719 67.2206ZM-4.95687 96.9703C-5.48574 96.9258 -6.02481 96.7683 -6.56375 96.4996L-6.5646 97.3118C-5.99608 97.5979 -5.42649 97.7663 -4.87141 97.8146L-4.95687 96.9703ZM-13.2287 70.7705L-13.5931 70.1867C-13.8774 70.9967 -14.1101 71.8929 -14.2873 72.8497L-13.8875 73.3011C-13.722 72.3885 -13.496 71.5372 -13.2287 70.7705ZM-8.1704 95.3675C-8.70033 94.8905 -9.21439 94.3043 -9.70572 93.6364L-9.8766 94.2928C-9.3585 94.9974 -8.81052 95.6081 -8.25813 96.1146L-8.1704 95.3675ZM-14.2287 76.186L-14.6467 75.8957C-14.7112 76.9606 -14.7122 78.0674 -14.6514 79.19L-14.23 79.3105C-14.2878 78.2408 -14.2901 77.1924 -14.2287 76.186ZM-11.1055 91.3816C-11.5411 90.5515 -11.9444 89.6476 -12.3035 88.6977L-12.6169 89.0841C-12.2391 90.0892 -11.8162 91.042 -11.3549 91.9151L-11.1055 91.3816ZM-13.9016 82.5225L-14.3002 82.5757C-14.213 83.1518 -14.1057 83.7373 -13.9862 84.3116L-13.9871 84.3181C-13.8734 84.8588 -13.7492 85.4009 -13.6117 85.9255L-13.2473 85.7036C-13.3781 85.2063 -13.4956 84.6912 -13.6026 84.1777C-13.7145 83.6242 -13.8159 83.0722 -13.9016 82.5225Z" fill="url(#paint12_linear_506_16273)"/>
<g style="mix-blend-mode:plus-lighter">
<path d="M-18.3447 85.9283C-21.2548 71.8774 -18.3312 58.5349 -11.8225 56.1252C-10.5608 55.661 -9.25702 55.6418 -7.95183 56.0159L-7.16382 106.251C-11.8709 103.474 -16.2877 95.8519 -18.3447 85.9283Z" fill="url(#paint13_linear_506_16273)"/>
</g>
<path d="M44.6101 170.588L39.4517 172.33C35.1613 173.773 29.3376 162.186 26.4394 146.44C23.5413 130.694 24.6665 116.761 28.9569 115.318L34.1198 113.583C34.1198 113.583 27.9844 120.253 33.0174 144.656C37.7592 167.681 44.6101 170.588 44.6101 170.588Z" fill="url(#paint14_linear_506_16273)"/>
<path d="M44.6101 170.588L39.4517 172.33C39.1137 172.445 38.766 172.479 38.4086 172.433L44.0257 170.228C44.3932 170.497 44.6101 170.588 44.6101 170.588Z" fill="url(#paint15_linear_506_16273)"/>
<path d="M40.2031 141.9L40.0309 136.372L40.8776 136.037C41.2718 137.7 41.6409 139.424 41.9649 141.201C42.2941 142.978 42.5676 144.735 42.7933 146.451L41.9913 146.773L40.2031 141.9Z" fill="#0000FF"/>
<path d="M35.5545 126.776L34.0431 121.144L34.214 118.764C35.3681 120.466 36.5055 122.722 37.5791 125.414L37.4099 127.708L35.5545 126.776Z" fill="#0000FF"/>
<path d="M39.243 166.979L34.074 168.72C32.9246 166.986 31.7814 164.697 30.7158 161.987L35.8733 160.251L39.243 166.979Z" fill="url(#paint16_linear_506_16273)"/>
<path d="M34.1104 113.573L28.9548 115.296C28.6168 115.411 28.2999 115.6 27.9981 115.87L33.6384 114.349C33.8749 113.866 34.1104 113.573 34.1104 113.573Z" fill="url(#paint17_linear_506_16273)"/>
<path d="M30.6286 120.147L25.4597 121.887C25.0432 124.152 24.8304 126.892 24.825 129.97L29.9835 128.228L30.6286 120.147Z" fill="url(#paint18_linear_506_16273)"/>
<path d="M41.296 158.166L42.5674 155.987L43.572 157.942C43.5538 160.998 43.3279 163.717 42.9056 165.948L41.9757 164.141L41.296 158.166Z" fill="#0000FF"/>
<path d="M32.6849 149.862L27.5221 151.597C27.127 149.941 26.7632 148.217 26.4339 146.44C26.1056 144.656 25.8321 142.9 25.6012 141.182L30.764 139.447L32.6849 149.862Z" fill="url(#paint19_linear_506_16273)"/>
<path d="M34.1301 113.623C29.8617 115.063 28.7515 128.965 31.6429 144.683C34.5342 160.402 40.3441 171.974 44.6116 170.541C48.8792 169.107 49.9903 155.199 47.0989 139.48C44.2032 123.754 38.3986 112.183 34.1301 113.623Z" fill="url(#paint20_linear_506_16273)"/>
<path d="M35.3941 120.544C32.1509 121.636 31.3036 132.164 33.4945 144.066C35.6863 155.961 40.0869 164.721 43.3301 163.629C46.5734 162.537 47.4207 152.009 45.2298 140.107C43.038 128.212 38.6321 119.452 35.3941 120.544Z" fill="#800000"/>
<path d="M33.7433 143.975C35.8361 155.339 39.9801 163.582 43.0549 162.545C46.1296 161.507 46.9903 151.583 44.8975 140.22C42.8047 128.856 38.6359 120.635 35.5612 121.673C32.4874 122.705 31.6514 132.605 33.7433 143.975ZM44.6499 140.302C46.6188 151.012 45.8503 160.523 42.9336 161.505C40.0169 162.487 36.0385 154.576 34.0697 143.866C32.1009 133.156 32.8694 123.645 35.7861 122.662C38.7028 121.68 42.6759 129.591 44.6499 140.302Z" fill="url(#paint21_linear_506_16273)"/>
<path d="M35.923 123.411C33.1134 124.356 32.3742 133.485 34.2777 143.799C36.176 154.112 39.9921 161.705 42.8017 160.759C45.6114 159.814 46.3508 150.685 44.4472 140.371C42.5489 130.058 38.7284 122.458 35.923 123.411Z" fill="#B00000"/>
<path d="M36.3546 125.955C33.911 126.777 33.2606 134.674 34.902 143.594C36.5435 152.513 39.8579 159.07 42.2962 158.247C44.7399 157.425 45.3902 149.528 43.7487 140.608C42.1063 131.695 38.7983 125.133 36.3546 125.955Z" fill="#800000"/>
<path d="M36.421 126.123C34.0221 126.932 33.3908 134.733 35.0097 143.551C36.6337 152.37 39.8937 158.86 42.2978 158.052C44.6967 157.243 45.3278 149.441 43.709 140.623C42.0902 131.805 38.8208 125.307 36.421 126.123Z" fill="url(#paint22_linear_506_16273)"/>
<path d="M45.3606 140.165L45.1885 134.637L46.0351 134.302C46.4293 135.965 46.7983 137.689 47.1223 139.466C47.4516 141.243 47.725 142.999 47.9507 144.716L47.1489 145.038L45.3606 140.165Z" fill="url(#paint23_linear_506_16273)"/>
<path d="M33.2408 144.042L33.4129 149.57L32.6848 149.863C32.2897 148.207 31.9258 146.483 31.5966 144.706C31.2683 142.922 30.9948 141.165 30.7638 139.448L31.4464 139.174L33.2408 144.042Z" fill="url(#paint24_linear_506_16273)"/>
<path d="M35.2412 119.904L33.2693 117.461L32.725 114.59C33.141 114.088 33.6036 113.743 34.1048 113.574C34.5665 113.418 35.0495 113.41 35.5424 113.554L36.0676 116.336L35.2412 119.904Z" fill="url(#paint25_linear_506_16273)"/>
<path d="M43.3605 164.3L45.3324 166.743L45.8908 169.701C45.5008 170.135 45.0762 170.44 44.6145 170.595C44.1081 170.763 43.5797 170.752 43.0381 170.574L42.5281 167.873L43.3605 164.3Z" fill="url(#paint26_linear_506_16273)"/>
<path d="M40.7181 125.035L39.2015 119.403L39.3776 117.024C40.5265 118.725 41.669 120.981 42.7427 123.673L42.5735 125.968L40.7181 125.035Z" fill="url(#paint27_linear_506_16273)"/>
<path d="M37.8839 159.169L39.3953 164.801L39.2368 166.986C38.0874 165.252 36.9495 162.964 35.8787 160.252L36.0266 158.25L37.8839 159.169Z" fill="url(#paint28_linear_506_16273)"/>
<path d="M32.1425 127.779L30.8711 129.958L29.9875 128.237C29.9919 125.165 30.2058 122.419 30.6214 120.161L31.4672 121.81L32.1425 127.779Z" fill="url(#paint29_linear_506_16273)"/>
<path d="M46.4542 156.425L47.7256 154.246L48.7312 156.195C48.7129 159.251 48.4871 161.97 48.0648 164.201L47.1349 162.394L46.4542 156.425Z" fill="url(#paint30_linear_506_16273)"/>
<path d="M34.843 145.572C35.1066 146.809 35.4063 148.019 35.7259 149.166L35.9131 148.8C35.607 147.708 35.3241 146.566 35.073 145.389L34.843 145.572ZM34.1583 141.83L34.4293 141.843C34.2449 140.65 34.0973 139.462 33.9887 138.3L33.6976 138.094C33.8082 139.315 33.9613 140.576 34.1583 141.83ZM36.7719 152.45C37.1417 153.474 37.5323 154.428 37.9274 155.279L37.9995 154.601C37.6198 153.793 37.254 152.888 36.9029 151.919L36.7719 152.45ZM33.4783 134.537L33.7798 134.929C33.7552 133.851 33.7671 132.817 33.82 131.869L33.5208 131.314C33.4657 132.315 33.4517 133.4 33.4783 134.537ZM39.1503 157.534C39.5597 158.177 39.9745 158.709 40.3756 159.115L40.322 158.236C39.939 157.852 39.5467 157.35 39.1599 156.736L39.1503 157.534ZM33.818 128.547L34.1017 129.244C34.2327 128.457 34.403 127.768 34.6116 127.183L34.3554 126.372C34.142 126.99 33.9608 127.716 33.818 128.547ZM41.5591 159.956C41.9391 160.103 42.3054 160.124 42.6433 160.009L42.473 159.087C42.1465 159.197 41.8011 159.179 41.4421 159.035L41.5591 159.956ZM35.1177 124.892L35.3366 125.775C35.6068 125.428 35.9091 125.191 36.2294 125.087L36.2515 125.084L36.081 124.161L36.0642 124.165C35.7158 124.278 35.4021 124.521 35.1177 124.892ZM43.3764 158.4L43.5944 159.29C43.8788 158.919 44.1381 158.426 44.3558 157.816L44.0994 157.006C43.8874 157.577 43.6466 158.053 43.3764 158.4ZM37.2823 125.136C37.6413 125.28 38.0194 125.551 38.4076 125.936L38.354 125.057C37.9477 124.65 37.5505 124.363 37.1714 124.209L37.2823 125.136ZM44.6093 154.945L44.8931 155.641C45.0349 154.817 45.1331 153.888 45.1935 152.888L44.8944 152.333C44.8362 153.281 44.7393 154.165 44.6093 154.945ZM39.5679 127.448C39.96 128.062 40.3476 128.781 40.7264 129.596L40.7985 128.918C40.3982 128.067 39.99 127.307 39.5816 126.658L39.5679 127.448ZM44.9346 149.273L45.2362 149.665C45.2096 148.527 45.138 147.331 45.0274 146.11L44.7363 145.904C44.8406 147.059 44.91 148.195 44.9346 149.273ZM41.8229 132.278C42.1731 133.253 42.5066 134.304 42.8128 135.397L43 135.031C42.6761 133.877 42.329 132.771 41.9539 131.747L41.8229 132.278ZM44.3007 142.361L44.5718 142.375C44.473 141.732 44.3639 141.087 44.2442 140.44L44.2451 140.434C44.1355 139.828 44.0154 139.221 43.8882 138.626L43.6538 138.802C43.7752 139.363 43.8885 139.943 43.9976 140.516C44.1001 141.133 44.2078 141.752 44.3007 142.361Z" fill="url(#paint31_linear_506_16273)"/>
<g style="mix-blend-mode:plus-lighter">
<path d="M47.0996 139.475C49.991 155.194 48.8799 169.103 44.6123 170.536C43.8013 170.811 42.9363 170.612 42.0498 170.011L37.4314 114.735C41.0312 118.019 44.9011 127.553 47.0996 139.475Z" fill="url(#paint32_linear_506_16273)"/>
</g>
<path d="M65.0871 54.6622C58.4331 65.2851 55.3192 80.0412 61.3742 90.7782L57.0085 88.2668C50.7625 84.5899 50.6691 70.2038 56.7973 56.1436C62.9255 42.0834 72.957 33.6637 79.203 37.3406L83.8266 40.0664C76.8157 41.846 69.379 47.4544 65.0871 54.6622Z" fill="url(#paint33_linear_506_16273)"/>
<path d="M57.0085 88.2668C56.5152 87.9786 56.0036 87.5959 55.5422 87.0896L60.6434 89.8068C60.7635 90.0471 61.2427 90.5428 61.3743 90.7782L57.0085 88.2668Z" fill="url(#paint34_linear_506_16273)"/>
<path d="M52.5383 79.9109C52.1797 77.4544 52.1695 74.6296 52.5131 71.5812L58.2163 74.9431C57.9981 77.8657 58.1319 80.761 58.6851 83.5342L52.5383 79.9109Z" fill="url(#paint35_linear_506_16273)"/>
<path d="M82.5599 39.9067L77.5434 36.6453C78.0792 36.7891 78.7328 37.0417 79.2261 37.3299L84.2036 40.2714C84.0256 40.3174 82.7336 39.8534 82.5599 39.9067Z" fill="url(#paint36_linear_506_16273)"/>
<path d="M64.9937 42.9875C66.8997 40.8618 68.8668 39.1971 70.7857 38.0821L76.5732 41.489C74.5586 42.8192 72.6802 44.5363 70.9439 46.4903L64.9937 42.9875Z" fill="url(#paint37_linear_506_16273)"/>
<path d="M60.5278 64.1764L54.9621 60.9001C55.4927 59.3203 56.1056 57.7263 56.7972 56.1437C57.4898 54.5548 58.2369 53.0329 59.0198 51.5947L64.8665 55.0364C63.1385 57.8497 61.6579 60.9481 60.5278 64.1764Z" fill="url(#paint38_linear_506_16273)"/>
<path d="M74.2631 66.54L77.4672 62.5274L78.7317 63.2165C78.1959 64.7956 77.5829 66.3897 76.8894 67.985C76.1969 69.5739 75.456 71.0902 74.6731 72.5284L73.4782 71.8756L74.2631 66.54Z" fill="#0000FF"/>
<path d="M77.8347 50.997L79.4327 45.4461L81.1231 43.9898C81.5063 46.4237 81.5351 49.2318 81.21 52.2632L79.5806 53.6692L77.8347 50.997Z" fill="#0000FF"/>
<path d="M65.5634 78.9977L68.4989 78.8762L68.5435 81.3197C66.6308 83.4182 64.6683 85.051 62.7488 86.1331L62.7053 83.8667L65.5634 78.9977Z" fill="#0000FF"/>
<path d="M84.1939 40.337C77.9775 36.6775 67.9794 45.0891 61.8654 59.1252C55.7461 73.1605 55.824 87.5051 62.0395 91.171C68.2559 94.8305 78.2541 86.4189 84.3733 72.3836C90.4873 58.3475 90.4103 43.9965 84.1939 40.337Z" fill="url(#paint39_linear_506_16273)"/>
<path d="M81.4886 46.5069C76.7658 43.7273 69.1873 50.088 64.556 60.7181C59.9246 71.3483 59.997 82.2135 64.7146 84.9924C69.4373 87.7721 77.0158 81.4113 81.6472 70.7812C86.2837 60.1518 86.2113 49.2866 81.4886 46.5069Z" fill="#060606"/>
<path d="M64.9269 60.928C60.5049 71.0777 60.5718 81.5033 65.0771 84.1595C69.5876 86.8164 76.8547 80.718 81.2776 70.5618C85.7005 60.4057 85.6327 49.9865 81.1274 47.3303C76.6222 44.6742 69.3489 50.7783 64.9269 60.928ZM80.9428 70.3622C76.6999 80.0926 69.7369 85.9408 65.4143 83.3899C61.0908 80.8454 61.0294 70.8594 65.2671 61.1282C69.51 51.3978 76.4719 45.5562 80.7953 48.1007C85.1188 50.6451 85.1805 60.631 80.9428 70.3622Z" fill="url(#paint40_linear_506_16273)"/>
<path d="M80.3765 49.0606C76.2853 46.6484 69.7132 52.1669 65.6957 61.38C61.6783 70.5931 61.7419 80.016 65.833 82.4283C69.9242 84.8405 76.4964 79.3219 80.5138 70.1088C84.5313 60.8957 84.4677 51.4729 80.3765 49.0606Z" fill="#242424"/>
<path d="M79.3862 51.2237C75.8169 49.1235 70.1022 53.9028 66.6153 61.9029C63.1293 69.8966 63.1961 78.0883 66.7654 80.1884C70.3346 82.2886 76.0492 77.5094 79.5352 69.5157C83.0178 61.5084 82.9554 53.3239 79.3862 51.2237Z" fill="#060606"/>
<path d="M79.3209 51.4891C75.8213 49.4253 70.2069 54.1407 66.7702 62.0171C63.3388 69.8943 63.3885 77.9459 66.8891 80.0033C70.3887 82.0671 76.003 77.3519 79.4397 69.4754C82.8702 61.6047 82.8162 53.5457 79.3209 51.4891Z" fill="url(#paint41_linear_506_16273)"/>
<path d="M81.7799 70.9711L84.984 66.9585L86.2485 67.6476C85.7127 69.2267 85.0998 70.8208 84.4063 72.4162C83.7137 74.0051 82.9676 75.5206 82.1899 76.9595L80.9951 76.3068L81.7799 70.9711Z" fill="url(#paint42_linear_506_16273)"/>
<path d="M64.2512 60.4221L61.0471 64.4347L59.9609 63.8438C60.4967 62.2647 61.1045 60.6699 61.7961 59.0874C62.4896 57.4921 63.2356 55.9763 64.0186 54.5382L65.0404 55.0937L64.2512 60.4221Z" fill="url(#paint43_linear_506_16273)"/>
<path d="M81.6946 45.9022L80.7459 42.0624L81.8452 39.4848C82.6752 39.5929 83.461 39.8582 84.2013 40.2874C84.8764 40.6873 85.4803 41.2081 86.0139 41.8428L84.9468 44.3464L81.6946 45.9022Z" fill="url(#paint44_linear_506_16273)"/>
<path d="M64.3414 85.4936L65.2901 89.3332L64.1586 91.9849C63.4056 91.8618 62.6881 91.6062 62.0078 91.2055C61.2736 90.7707 60.6206 90.1839 60.0553 89.4725L61.0903 87.0428L64.3414 85.4936Z" fill="url(#paint45_linear_506_16273)"/>
<path d="M85.3521 55.4222L86.9501 49.8713L88.6404 48.4149C89.0237 50.8489 89.0525 53.6569 88.7274 56.6883L87.0979 58.0946L85.3521 55.4222Z" fill="url(#paint46_linear_506_16273)"/>
<path d="M60.6846 75.9649L59.0867 81.5158L57.5366 82.8551C57.1728 80.3978 57.1679 77.5737 57.5115 74.5253L58.9328 73.2982L60.6846 75.9649Z" fill="url(#paint47_linear_506_16273)"/>
<path d="M72.9559 47.9644L70.0203 48.0859L69.9818 45.9316C71.8878 43.8059 73.8548 42.1412 75.7737 41.0262L75.8088 43.0946L72.9559 47.9644Z" fill="url(#paint48_linear_506_16273)"/>
<path d="M73.0761 83.4221L76.0117 83.3008L76.0561 85.7441C75.0872 86.8799 74.0711 87.8254 73.0551 88.6596C72.131 89.4155 71.1838 90.1093 70.266 90.5648L70.2223 88.2983L73.0761 83.4221Z" fill="url(#paint49_linear_506_16273)"/>
<path d="M65.3069 63.2373C64.8724 64.3792 64.4936 65.5423 64.1867 66.6897L64.6493 66.6393C64.9424 65.5489 65.3012 64.4482 65.7115 63.3618L65.3069 63.2373ZM66.7696 59.8939L67.0947 60.1969C67.6033 59.1706 68.1546 58.1833 68.7382 57.2663L68.5003 56.8057C67.8882 57.771 67.3024 58.8122 66.7696 59.8939ZM63.4582 70.101C63.2847 71.2155 63.1806 72.2942 63.1531 73.3252L63.6652 72.935C63.6947 71.9633 63.7913 70.9358 63.9564 69.8791L63.4582 70.101ZM70.4425 54.1024L70.5792 54.7053C71.2123 53.9265 71.8709 53.2302 72.5258 52.6315L72.496 51.9196C71.7987 52.5514 71.1074 53.2889 70.4425 54.1024ZM63.2773 76.2127C63.3929 77.1074 63.5784 77.927 63.8321 78.6454L64.3092 77.9814C64.0717 77.2982 63.8912 76.5186 63.7848 75.6711L63.2773 76.2127ZM74.57 50.3294L74.4966 51.1243C75.1497 50.7219 75.7912 50.4357 76.4062 50.257L76.5884 49.4124C75.94 49.5993 75.2582 49.9059 74.57 50.3294ZM64.7895 80.5213C65.1695 81.0354 65.6178 81.4482 66.1101 81.7428L66.4714 80.9178C65.9982 80.639 65.5795 80.2436 65.2168 79.7583L64.7895 80.5213ZM78.4539 49.2131L78.1796 50.0641C78.7337 50.1188 79.2501 50.2859 79.7233 50.5647L79.7529 50.5822L80.1143 49.7572L80.0848 49.7397C79.582 49.4435 79.0352 49.2653 78.4539 49.2131ZM68.0142 81.4248L67.7348 82.2748C68.3204 82.3342 68.9456 82.2684 69.5939 82.0814L69.7763 81.2366C69.1613 81.4154 68.5683 81.4796 68.0142 81.4248ZM81.0014 51.7472C81.3632 52.2389 81.6663 52.8401 81.909 53.5241L82.386 52.8601C82.1332 52.1353 81.8131 51.5054 81.4288 50.9842L81.0014 51.7472ZM71.69 80.3765L71.6116 81.1707C72.2989 80.7536 72.9978 80.2203 73.6898 79.5877L73.66 78.8759C73.0051 79.4746 72.3421 79.9805 71.69 80.3765ZM82.4273 55.84C82.5337 56.6875 82.5691 57.6165 82.5396 58.5883L83.0518 58.1979C83.0836 57.1741 83.0439 56.1988 82.9284 55.3041L82.4273 55.84ZM75.6108 76.8091L75.7475 77.4122C76.4186 76.5931 77.0705 75.686 77.6878 74.7215L77.4501 74.261C76.8673 75.1715 76.2439 76.0303 75.6108 76.8091ZM82.2432 61.6435C82.0782 62.7002 81.8435 63.7927 81.5451 64.8824L82.0067 64.8383C82.3188 63.6917 82.5618 62.5415 82.7415 61.4214L82.2432 61.6435ZM79.0944 71.3241L79.4195 71.6271C79.6925 71.0774 79.9578 70.507 80.2075 69.9342L80.2084 69.9277C80.4429 69.3855 80.6679 68.8354 80.8824 68.2837L80.4838 68.1533C80.2845 68.6745 80.0685 69.1998 79.8492 69.7115C79.6085 70.2594 79.3575 70.8057 79.0944 71.3241Z" fill="url(#paint50_linear_506_16273)"/>
<path d="M30.0002 12.4517L33.7298 9.02021C36.8282 6.17125 44.7549 12.819 51.4324 23.8762C58.1109 34.927 61.0095 46.1986 57.9101 49.054L54.1806 52.4855C54.1806 52.4855 57.3544 44.8327 46.5597 27.9137C36.3803 11.9493 30.0002 12.4517 30.0002 12.4517Z" fill="url(#paint51_linear_506_16273)"/>
<path d="M30.0003 12.4527L33.7299 9.02123C33.9718 8.79454 34.2473 8.6317 34.5528 8.51912L30.5826 12.4986C30.2009 12.4363 30.0003 12.4527 30.0003 12.4527Z" fill="url(#paint52_linear_506_16273)"/>
<path d="M41.4558 32.9466L43.1096 37.1645L42.5133 37.7653C41.7359 36.6363 40.9627 35.4424 40.2084 34.1923C39.4541 32.9423 38.7479 31.6928 38.0941 30.4509L38.6598 29.8784L41.4558 32.9466Z" fill="#0000FF"/>
<path d="M49.3885 42.8154L52.1639 46.5751L52.6763 48.4905C51.2708 47.6301 49.7242 46.3431 48.1086 44.6856L47.6183 42.8385L49.3885 42.8154Z" fill="#0000FF"/>
<path d="M35.3627 13.0906L39.0985 9.65346C40.5116 10.5346 42.07 11.8496 43.6828 13.5264L39.9532 16.9579L35.3627 13.0906Z" fill="url(#paint53_linear_506_16273)"/>
<path d="M54.1808 52.485L57.9138 49.0671C58.161 48.8411 58.3674 48.5635 58.5377 48.2412L54.3599 51.6989C54.2976 52.1615 54.1808 52.485 54.1808 52.485Z" fill="url(#paint54_linear_506_16273)"/>
<path d="M55.2167 45.9801L58.9525 42.5432C58.671 40.622 58.0959 38.4023 57.2511 36.0123L53.5216 39.4438L55.2167 45.9801Z" fill="url(#paint55_linear_506_16273)"/>
<path d="M36.1052 20.7599L35.6647 22.9686L34.3115 21.8605C33.4868 19.48 32.9245 17.2819 32.6621 15.3766L33.9148 16.4046L36.1052 20.7599Z" fill="#0000FF"/>
<path d="M45.4035 23.7366L49.1331 20.3049C49.9104 21.4338 50.6784 22.627 51.4336 23.8706C52.1879 25.1207 52.8932 26.3766 53.5522 27.6193L49.8224 31.0507L45.4035 23.7366Z" fill="url(#paint56_linear_506_16273)"/>
<path d="M54.1531 52.4549C57.2392 49.6172 54.3316 38.3704 47.667 27.3348C41.0023 16.2991 33.0966 9.65447 30.0106 12.4921C26.9245 15.3298 29.8321 26.5765 36.4967 37.6122C43.1666 48.6487 51.0723 55.2933 54.1531 52.4549Z" fill="url(#paint57_linear_506_16273)"/>
<path d="M51.2284 47.5914C53.572 45.4379 51.3798 36.916 46.3304 28.5663C41.282 20.2101 35.2967 15.189 32.9531 17.3425C30.6094 19.496 32.8016 28.0179 37.851 36.3677C42.8994 44.7238 48.8899 49.7457 51.2284 47.5914Z" fill="#060606"/>
<path d="M46.1506 28.7384C41.3312 20.7564 35.6939 16.0286 33.4729 18.0755C31.2519 20.1224 33.2719 28.1738 38.0912 36.1558C42.9106 44.1378 48.563 48.8351 50.784 46.7881C53.005 44.7412 50.9708 36.714 46.1506 28.7384ZM38.2713 35.9856C33.7318 28.4702 31.7513 20.7718 33.8602 18.833C35.9691 16.8941 41.3772 21.4313 45.9158 28.953C50.4553 36.4684 52.4358 44.1668 50.3322 46.1064C48.2233 48.0452 42.8108 43.5009 38.2713 35.9856Z" fill="url(#paint58_linear_506_16273)"/>
<path d="M50.0126 45.5797C52.0412 43.7142 50.1435 36.3293 45.7675 29.0868C41.3916 21.8443 36.2029 17.49 34.1691 19.3546C32.1396 21.2265 34.0383 28.6047 38.4142 35.8472C42.7902 43.0898 47.9841 47.4451 50.0126 45.5797Z" fill="#242424"/>
<path d="M48.9591 43.7771C50.7219 42.1545 49.0919 35.7587 45.3057 29.4998C41.5248 23.2417 37.0259 19.4793 35.263 21.1018C33.5002 22.7244 35.1356 29.1212 38.9165 35.3793C42.7017 41.6446 47.1962 45.3996 48.9591 43.7771Z" fill="#060606"/>
<path d="M48.8614 43.6762C50.5933 42.0819 48.9731 35.7661 45.2299 29.579C41.493 23.3863 37.0523 19.6651 35.3203 21.2594C33.5822 22.8594 35.2086 29.1697 38.9465 35.356C42.6887 41.5495 47.1294 45.2705 48.8614 43.6762Z" fill="url(#paint59_linear_506_16273)"/>
<path d="M37.7268 36.3773L39.3806 40.5952L38.7842 41.196C38.0069 40.0671 37.2336 38.8733 36.4794 37.6233C35.7251 36.3732 35.0189 35.1236 34.3651 33.8817L34.9306 33.3091L37.7268 36.3773Z" fill="url(#paint60_linear_506_16273)"/>
<path d="M46.5421 28.4749L44.8883 24.2568L45.4034 23.7361C46.1807 24.865 46.9487 26.058 47.7039 27.3016C48.4582 28.5516 49.1634 29.8075 49.8223 31.0502L49.3444 31.5373L46.5421 28.4749Z" fill="url(#paint61_linear_506_16273)"/>
<path d="M51.5294 48.0242L53.8047 49.1231L55.0312 51.1365C54.8272 51.6897 54.5463 52.1465 54.1818 52.4798C53.8472 52.7912 53.4551 52.9829 53.0133 53.0756L51.8205 51.126L51.5294 48.0242Z" fill="url(#paint62_linear_506_16273)"/>
<path d="M32.7446 16.8294L30.4691 15.7305L29.2031 13.659C29.3987 13.1635 29.6668 12.757 30.0005 12.452C30.365 12.1188 30.8018 11.9141 31.2899 11.8347L32.4483 13.7268L32.7446 16.8294Z" fill="url(#paint63_linear_506_16273)"/>
<path d="M45.6587 46.2495L48.4342 50.0089L48.9465 51.9246C47.5411 51.0642 45.9945 49.777 44.3789 48.1194L43.8885 46.2725L45.6587 46.2495Z" fill="url(#paint64_linear_506_16273)"/>
<path d="M38.609 18.6102L35.8335 14.8508L35.3678 13.0927C36.7809 13.9739 38.3393 15.2888 39.9521 16.9656L40.3852 18.5815L38.609 18.6102Z" fill="url(#paint65_linear_506_16273)"/>
<path d="M51.8931 40.6608L52.3336 38.452L53.5288 39.4324C54.3683 41.8216 54.9444 44.0347 55.2258 45.9559L54.0835 45.0161L51.8931 40.6608Z" fill="url(#paint66_linear_506_16273)"/>
<path d="M32.376 24.1912L31.9364 26.3936L30.5833 25.2853C29.7586 22.9048 29.1963 20.7067 28.9339 18.8014L30.1864 19.8294L32.376 24.1912Z" fill="url(#paint67_linear_506_16273)"/>
<path d="M44.816 27.9409C44.2609 27.0868 43.6896 26.2696 43.1099 25.5102L43.0574 25.8694C43.6051 26.5914 44.1497 27.3719 44.6747 28.1758L44.816 27.9409ZM46.4021 30.5702L46.1789 30.6685C46.6545 31.5176 47.101 32.382 47.5057 33.2404L47.7992 33.2832C47.3749 32.3762 46.9035 31.4623 46.4021 30.5702ZM41.3556 23.3737C40.7757 22.7256 40.1968 22.1433 39.6383 21.6424L39.7659 22.1983C40.2958 22.6753 40.8416 23.2266 41.3947 23.838L41.3556 23.3737ZM48.9499 35.9603L48.5966 35.7777C48.9149 36.6038 49.188 37.4101 49.4028 38.1751L49.8021 38.4824C49.572 37.6757 49.2889 36.8286 48.9499 35.9603ZM38.0285 20.3853C37.5156 20.0483 37.0324 19.801 36.5938 19.6517L36.8769 20.3154C37.2945 20.4616 37.7534 20.6923 38.2367 21.0119L38.0285 20.3853ZM50.3175 40.7457L49.8929 40.3168C49.9993 40.9809 50.0494 41.5907 50.0417 42.1202L50.474 42.642C50.4803 42.0861 50.4297 41.4434 50.3175 40.7457ZM35.3978 19.4834C35.0492 19.5242 34.746 19.6569 34.4988 19.8828L34.8915 20.5298C35.1263 20.3151 35.4128 20.1867 35.7448 20.15L35.3978 19.4834ZM50.2604 44.1043L49.8393 43.5057C49.714 43.8869 49.536 44.1886 49.3012 44.4032L49.2889 44.4144L49.6816 45.0613L49.6939 45.0501C49.941 44.8242 50.1323 44.5049 50.2604 44.1043ZM34.3492 21.4199L33.9281 20.8212C33.7947 21.221 33.7235 21.7085 33.7163 22.2709L34.1478 22.7991C34.1565 22.2632 34.2239 21.8012 34.3492 21.4199ZM48.4314 44.7871C48.0995 44.8238 47.7168 44.7679 47.2992 44.6217L47.5832 45.279C48.0261 45.4354 48.4299 45.4944 48.7785 45.4536L48.4314 44.7871ZM34.2922 24.5954L33.8676 24.1666C33.9798 24.8643 34.1528 25.6231 34.3777 26.429L34.7763 26.7427C34.5605 25.984 34.3933 25.2588 34.2922 24.5954ZM45.935 43.9181C45.4516 43.5985 44.9324 43.195 44.4025 42.718L44.5301 43.2738C45.0886 43.7746 45.6313 44.2012 46.1442 44.5382L45.935 43.9181ZM35.5781 29.1331L35.2246 28.9503C35.5573 29.8243 35.945 30.7259 36.3702 31.6266L36.6638 31.6694C36.2582 30.8175 35.8955 29.9655 35.5781 29.1331ZM42.7745 41.0718C42.2223 40.4539 41.6629 39.776 41.1162 39.0476L41.0637 39.4068C41.6425 40.1727 42.234 40.888 42.8139 41.5361L42.7745 41.0718ZM37.9895 34.2477L37.7664 34.3461C38.0209 34.8025 38.2902 35.2677 38.5624 35.7136C38.8216 36.138 39.0861 36.563 39.3525 36.9754L39.4938 36.7405C39.2404 36.3497 38.9879 35.9527 38.7477 35.5442C38.4885 35.1198 38.2312 34.6826 37.9895 34.2477Z" fill="url(#paint68_linear_506_16273)"/>
<path d="M2.70769 94.3868C-7.23511 109.272 -12.2735 130.311 -4.01624 146.093L-10.1703 142.226C-18.971 136.578 -18.5457 115.893 -9.22389 96.0239C0.103161 76.1553 14.7963 64.6304 23.6022 70.2797L30.1224 74.4616C20.0037 76.6256 9.13375 84.2613 2.70769 94.3868Z" fill="url(#paint69_linear_506_16273)"/>
<path d="M28.3023 74.1689L21.2396 69.1936C22.0028 69.4295 22.9236 69.8326 23.6192 70.2749L30.6375 74.7853C30.3885 74.8407 28.5522 74.1071 28.3023 74.1689Z" fill="url(#paint70_linear_506_16273)"/>
<path d="M3.02437 77.5968C5.83767 74.6472 8.7187 72.3692 11.5118 70.8775L19.6666 76.1107C16.7261 77.915 13.9728 80.2706 11.4085 82.9815L3.02437 77.5968Z" fill="url(#paint71_linear_506_16273)"/>
<path d="M-4.19378 107.804L-12.0408 102.773C-11.215 100.529 -10.2763 98.2817 -9.22573 96.0376C-8.16895 93.7878 -7.04238 91.6464 -5.86976 89.6298L2.36853 94.9146C-0.214648 98.8542 -2.4539 103.224 -4.19378 107.804Z" fill="url(#paint72_linear_506_16273)"/>
<path d="M15.3845 111.984L20.1297 106.401L21.913 107.461C21.0872 109.705 20.1477 111.959 19.0909 114.209C18.0351 116.452 16.9137 118.594 15.741 120.611L14.0518 119.604L15.3845 111.984Z" fill="#0000FF"/>
<path d="M21.1028 89.8449L23.6043 81.9563L26.0814 79.9534C26.5363 83.4721 26.4648 87.5166 25.8838 91.86L23.4985 93.7848L21.1028 89.8449Z" fill="#0000FF"/>
<path d="M2.43929 129.39L6.64844 129.383L6.61608 132.903C3.79792 135.812 0.917138 138.051 -1.86842 139.491L-1.83597 136.227L2.43929 129.39Z" fill="#0000FF"/>
<path d="M30.6287 74.8828C21.8724 69.2604 7.22207 80.7852 -2.08794 100.61C-11.3989 120.442 -11.8429 141.071 -3.08128 146.694C5.6751 152.317 20.3254 140.792 29.6354 120.967C38.9454 101.142 39.3861 80.4988 30.6287 74.8828Z" fill="url(#paint73_linear_506_16273)"/>
<path d="M26.5135 83.5922C19.8612 79.3253 8.75434 88.0332 1.7105 103.047C-5.33859 118.06 -5.65712 133.69 0.994261 137.963C7.64658 142.23 18.7535 133.522 25.8026 118.509C32.8516 103.496 33.1658 87.8591 26.5135 83.5922Z" fill="#060606"/>
<path d="M2.22862 103.385C-4.50341 117.73 -4.81309 132.712 1.54009 136.791C7.89327 140.871 18.5419 132.515 25.273 118.176C32.0051 103.83 32.3147 88.8481 25.9563 84.7683C19.6083 80.69 8.96065 89.0393 2.22862 103.385ZM24.7991 117.864C18.3476 131.609 8.14082 139.616 2.05195 135.707C-4.03691 131.797 -3.74297 117.435 2.70853 103.691C9.16003 89.9463 19.3669 81.9386 25.4557 85.8481C31.5446 89.7575 31.2506 104.12 24.7991 117.864Z" fill="url(#paint74_linear_506_16273)"/>
<path d="M24.8175 87.209C19.0512 83.5104 9.42017 91.0583 3.30988 104.08C-2.79948 117.094 -3.07693 130.647 2.6894 134.345C8.45573 138.044 18.0816 130.495 24.1972 117.475C30.3065 104.46 30.5838 90.9076 24.8175 87.209Z" fill="#242424"/>
<path d="M23.3172 90.2602C18.29 87.0365 9.91441 93.5757 4.61257 104.874C-0.689271 116.173 -0.915344 127.944 4.111 131.175C9.13829 134.398 17.5138 127.859 22.8157 116.561C28.1185 105.256 28.3445 93.484 23.3172 90.2602Z" fill="#060606"/>
<path d="M23.2091 90.6351C18.2801 87.4716 10.0506 93.9272 4.82738 105.054C-0.395811 116.181 -0.631388 127.761 4.29762 130.924C9.22663 134.088 17.4562 127.632 22.6793 116.506C27.9025 105.379 28.1391 93.7923 23.2091 90.6351Z" fill="url(#paint75_linear_506_16273)"/>
<path d="M25.9772 118.777L30.7277 113.195L32.5109 114.255C31.6851 116.499 30.7455 118.753 29.6887 121.002C28.6328 123.246 27.5125 125.382 26.3389 127.405L24.6497 126.398L25.9772 118.777Z" fill="url(#paint76_linear_506_16273)"/>
<path d="M1.28048 102.617L-3.46473 108.199L-5.00169 107.287C-4.17594 105.043 -3.2374 102.795 -2.1868 100.551C-1.13003 98.3013 -0.0087264 96.1594 1.16914 94.1435L2.60711 95.0021L1.28048 102.617Z" fill="url(#paint77_linear_506_16273)"/>
<path d="M26.8264 82.733L25.617 77.1585L27.2954 73.5125C28.4754 73.7176 29.5973 74.1369 30.6345 74.806C31.5892 75.4171 32.4328 76.2019 33.1672 77.1478L31.5373 80.683L26.8264 82.733Z" fill="url(#paint78_linear_506_16273)"/>
<path d="M0.43088 138.666L1.64014 144.241L-0.0855806 147.991C-1.16127 147.769 -2.18355 147.364 -3.133 146.754C-4.17025 146.085 -5.08124 145.211 -5.86269 144.147L-4.28536 140.716L0.43088 138.666Z" fill="url(#paint79_linear_506_16273)"/>
<path d="M31.6959 96.6381L34.1973 88.7496L36.6744 86.7465C37.1293 90.2653 37.0577 94.3099 36.4767 98.6534L34.0915 100.578L31.6959 96.6381Z" fill="url(#paint80_linear_506_16273)"/>
<path d="M14.2311 85.2094L10.022 85.2168L10.0521 82.1162C12.8654 79.1666 15.7466 76.8884 18.5335 75.4024L18.5054 78.379L14.2311 85.2094Z" fill="url(#paint81_linear_506_16273)"/>
<path d="M13.0313 136.19L17.2405 136.182L17.2081 139.702C15.7781 141.281 14.2818 142.583 12.794 143.715C11.4375 144.755 10.0593 145.687 8.72362 146.291L8.75607 143.027L13.0313 136.19Z" fill="url(#paint82_linear_506_16273)"/>
<path d="M2.68907 106.72C2.02422 108.339 1.43513 109.989 0.950379 111.621L1.60963 111.58C2.07172 110.029 2.62663 108.466 3.25739 106.934L2.68907 106.72ZM4.9045 101.999L5.36288 102.453C6.13104 101.006 6.95983 99.6203 7.83318 98.333L7.50898 97.6567C6.59388 99.01 5.71629 100.474 4.9045 101.999ZM-0.231354 116.486C-0.52233 118.075 -0.711526 119.626 -0.798426 121.1L-0.0460983 120.568C0.0347982 119.172 0.212639 117.697 0.491434 116.192L-0.231354 116.486ZM10.3941 93.8857L10.5668 94.756C11.5064 93.6748 12.472 92.7087 13.438 91.8869L13.4216 90.8625C12.401 91.7288 11.3798 92.7458 10.3941 93.8857ZM-0.731988 125.263C-0.605437 126.559 -0.372016 127.746 -0.0331308 128.798L0.675754 127.867C0.360824 126.871 0.13468 125.744 0.0144863 124.514L-0.731988 125.263ZM16.4574 88.6989L16.3177 89.838C17.2687 89.3022 18.2024 88.9209 19.0917 88.6971L19.3798 87.4945C18.4414 87.7243 17.4558 88.1307 16.4574 88.6989ZM1.26828 131.543C1.79367 132.308 2.41599 132.922 3.11497 133.378L3.6651 132.214C3 131.783 2.41072 131.199 1.91116 130.477L1.26828 131.543ZM22.057 87.3093L21.6287 88.5176C22.416 88.626 23.1588 88.8918 23.8239 89.3231L23.863 89.3484L24.408 88.1833L24.3689 88.158C23.669 87.7086 22.8914 87.4247 22.057 87.3093ZM5.85403 133.025L5.4259 134.233C6.26029 134.349 7.16282 134.291 8.10116 134.061L8.39453 132.859C7.5 133.082 6.64648 133.134 5.85403 133.025ZM25.609 91.1036C26.1076 91.8315 26.5199 92.7106 26.8391 93.7137L27.5524 92.7893C27.2197 91.7319 26.7824 90.8033 26.2579 90.0323L25.609 91.1036ZM11.1613 131.73L11.0217 132.869C12.0192 132.308 13.0455 131.586 14.0618 130.713L14.0463 129.682C13.0795 130.511 12.106 131.2 11.1613 131.73ZM27.4889 97.0708C27.6091 98.3003 27.6296 99.6265 27.5425 101.029L28.2948 100.497C28.3817 99.0224 28.3621 97.6176 28.2346 96.3281L27.4889 97.0708ZM16.9104 126.825L17.0821 127.702C18.073 126.563 19.045 125.296 19.9654 123.944L19.6464 123.268C18.775 124.543 17.8552 125.745 16.9104 126.825ZM27.005 105.405C26.7252 106.917 26.3488 108.466 25.8806 110.023L26.5398 109.981C27.0307 108.343 27.4296 106.711 27.7216 105.116L27.005 105.405ZM22.1177 119.142L22.5762 119.595C22.9897 118.817 23.3911 118.011 23.7707 117.209L23.7717 117.202C24.1299 116.436 24.4743 115.654 24.7968 114.876L24.2285 114.662C23.9221 115.403 23.5948 116.141 23.2527 116.871L23.2517 116.877C22.8935 117.644 22.5089 118.407 22.1177 119.142Z" fill="url(#paint83_linear_506_16273)"/>
<path d="M-20.3368 117.396C-28.3101 118.555 -34.0539 133.598 -33.1581 150.994C-32.2624 168.39 -25.073 181.552 -17.0987 180.386C-9.12541 179.227 -3.38158 164.184 -4.27733 146.788C-5.17308 129.391 -12.3635 116.236 -20.3368 117.396Z" fill="url(#paint84_linear_506_16273)"/>
<g style="mix-blend-mode:plus-lighter">
<path d="M-4.27809 146.795C-3.38234 164.191 -9.12056 179.235 -17.0995 180.394C-18.647 180.617 -20.1612 180.297 -21.609 179.524L-13.663 119.832C-8.68616 124.336 -4.90914 134.5 -4.27809 146.795Z" fill="url(#paint85_linear_506_16273)"/>
</g>
<defs>
<linearGradient id="paint0_linear_506_16273" x1="-3.35767" y1="51.8497" x2="15.1524" y2="101.55" gradientUnits="userSpaceOnUse">
<stop stop-color="#B00000"/>
<stop offset="1" stop-color="#800000"/>
</linearGradient>
<linearGradient id="paint1_linear_506_16273" x1="-1.74127" y1="51.2472" x2="16.7684" y2="100.946" gradientUnits="userSpaceOnUse">
<stop stop-color="#ADACAB"/>
<stop offset="0.9947" stop-color="#94908E"/>
</linearGradient>
<linearGradient id="paint2_linear_506_16273" x1="-8.67484" y1="53.8299" x2="9.83394" y2="103.53" gradientUnits="userSpaceOnUse">
<stop stop-color="#ADACAB"/>
<stop offset="0.9947" stop-color="#94908E"/>
</linearGradient>
<linearGradient id="paint3_linear_506_16273" x1="-1.62536" y1="51.2017" x2="16.8843" y2="100.903" gradientUnits="userSpaceOnUse">
<stop stop-color="#ADACAB"/>
<stop offset="0.9947" stop-color="#94908E"/>
</linearGradient>
<linearGradient id="paint4_linear_506_16273" x1="1.84562" y1="49.9097" x2="20.3559" y2="99.6096" gradientUnits="userSpaceOnUse">
<stop stop-color="#ADACAB"/>
<stop offset="0.9947" stop-color="#94908E"/>
</linearGradient>
<linearGradient id="paint5_linear_506_16273" x1="-18.9919" y1="71.9094" x2="9.66401" y2="87.8036" gradientUnits="userSpaceOnUse">
<stop stop-color="#FF1916"/>
<stop offset="1" stop-color="#D10000"/>
</linearGradient>
<linearGradient id="paint6_linear_506_16273" x1="5.63039" y1="89.2572" x2="-18.9602" y2="77.8525" gradientUnits="userSpaceOnUse">
<stop stop-color="#F3F5F4"/>
<stop offset="0.7063" stop-color="#E5E5E4"/>
<stop offset="0.9947" stop-color="#D4D2D1"/>
</linearGradient>
<linearGradient id="paint7_linear_506_16273" x1="-13.8833" y1="74.0512" x2="3.33228" y2="86.2343" gradientUnits="userSpaceOnUse">
<stop stop-color="#FF3633"/>
<stop offset="1" stop-color="#F11B1A"/>
</linearGradient>
<linearGradient id="paint8_linear_506_16273" x1="-14.0848" y1="62.9697" x2="14.6245" y2="78.8943" gradientUnits="userSpaceOnUse">
<stop stop-color="#F3F5F4"/>
<stop offset="0.7063" stop-color="#E5E5E4"/>
<stop offset="0.9947" stop-color="#D4D2D1"/>
</linearGradient>
<linearGradient id="paint9_linear_506_16273" x1="-26.7241" y1="85.7574" x2="1.98559" y2="101.682" gradientUnits="userSpaceOnUse">
<stop stop-color="#F3F5F4"/>
<stop offset="0.7063" stop-color="#E5E5E4"/>
<stop offset="0.9947" stop-color="#D4D2D1"/>
</linearGradient>
<linearGradient id="paint10_linear_506_16273" x1="-10.3639" y1="56.2626" x2="18.3441" y2="72.1855" gradientUnits="userSpaceOnUse">
<stop stop-color="#F3F5F4"/>
<stop offset="0.7063" stop-color="#E5E5E4"/>
<stop offset="0.9947" stop-color="#D4D2D1"/>
</linearGradient>
<linearGradient id="paint11_linear_506_16273" x1="-20.9835" y1="75.4038" x2="7.72776" y2="91.3285" gradientUnits="userSpaceOnUse">
<stop stop-color="#F3F5F4"/>
<stop offset="0.7063" stop-color="#E5E5E4"/>
<stop offset="0.9947" stop-color="#D4D2D1"/>
</linearGradient>
<linearGradient id="paint12_linear_506_16273" x1="5.68936" y1="89.2773" x2="-18.9008" y2="77.8724" gradientUnits="userSpaceOnUse">
<stop stop-color="#F3F5F4"/>
<stop offset="0.7063" stop-color="#E5E5E4"/>
<stop offset="0.9947" stop-color="#D4D2D1"/>
</linearGradient>
<linearGradient id="paint13_linear_506_16273" x1="-19.9211" y1="80.6465" x2="2.52686" y2="82.1823" gradientUnits="userSpaceOnUse">
<stop stop-color="#727272"/>
<stop offset="0.2297" stop-color="#515151"/>
<stop offset="0.5743" stop-color="#252525"/>
<stop offset="0.8427" stop-color="#0A0A0A"/>
<stop offset="1"/>
</linearGradient>
<linearGradient id="paint14_linear_506_16273" x1="38.2135" y1="173.13" x2="19.5423" y2="117.72" gradientUnits="userSpaceOnUse">
<stop stop-color="#B00000"/>
<stop offset="1" stop-color="#800000"/>
</linearGradient>
<linearGradient id="paint15_linear_506_16273" x1="41.5944" y1="171.99" x2="22.9297" y2="116.596" gradientUnits="userSpaceOnUse">
<stop stop-color="#ADACAB"/>
<stop offset="0.9947" stop-color="#94908E"/>
</linearGradient>
<linearGradient id="paint16_linear_506_16273" x1="36.6697" y1="173.649" x2="17.9992" y2="118.24" gradientUnits="userSpaceOnUse">
<stop stop-color="#ADACAB"/>
<stop offset="0.9947" stop-color="#94908E"/>
</linearGradient>
<linearGradient id="paint17_linear_506_16273" x1="41.6062" y1="172.02" x2="22.9242" y2="116.578" gradientUnits="userSpaceOnUse">
<stop stop-color="#ADACAB"/>
<stop offset="0.9947" stop-color="#94908E"/>
</linearGradient>
<linearGradient id="paint18_linear_506_16273" x1="36.6782" y1="173.647" x2="18.0067" y2="118.236" gradientUnits="userSpaceOnUse">
<stop stop-color="#ADACAB"/>
<stop offset="0.9947" stop-color="#94908E"/>
</linearGradient>
<linearGradient id="paint19_linear_506_16273" x1="34.3959" y1="174.416" x2="15.7247" y2="119.007" gradientUnits="userSpaceOnUse">
<stop stop-color="#ADACAB"/>
<stop offset="0.9947" stop-color="#94908E"/>
</linearGradient>
<linearGradient id="paint20_linear_506_16273" x1="49.5703" y1="153" x2="26.2362" y2="135.786" gradientUnits="userSpaceOnUse">
<stop stop-color="#FF1916"/>
<stop offset="1" stop-color="#D10000"/>
</linearGradient>
<linearGradient id="paint21_linear_506_16273" x1="35.5606" y1="121.667" x2="48.6944" y2="160.643" gradientUnits="userSpaceOnUse">
<stop stop-color="#F3F5F4"/>
<stop offset="0.7063" stop-color="#E5E5E4"/>
<stop offset="0.9947" stop-color="#D4D2D1"/>
</linearGradient>
<linearGradient id="paint22_linear_506_16273" x1="44.521" y1="149.372" x2="29.9047" y2="135.575" gradientUnits="userSpaceOnUse">
<stop stop-color="#FF3633"/>
<stop offset="1" stop-color="#F11B1A"/>
</linearGradient>
<linearGradient id="paint23_linear_506_16273" x1="53.773" y1="147.359" x2="30.3999" y2="130.116" gradientUnits="userSpaceOnUse">
<stop stop-color="#F3F5F4"/>
<stop offset="0.7063" stop-color="#E5E5E4"/>
<stop offset="0.9947" stop-color="#D4D2D1"/>
</linearGradient>
<linearGradient id="paint24_linear_506_16273" x1="45.3644" y1="158.755" x2="21.9928" y2="141.513" gradientUnits="userSpaceOnUse">
<stop stop-color="#F3F5F4"/>
<stop offset="0.7063" stop-color="#E5E5E4"/>
<stop offset="0.9947" stop-color="#D4D2D1"/>
</linearGradient>
<linearGradient id="paint25_linear_506_16273" x1="58.2873" y1="141.24" x2="34.9132" y2="123.997" gradientUnits="userSpaceOnUse">
<stop stop-color="#F3F5F4"/>
<stop offset="0.7063" stop-color="#E5E5E4"/>
<stop offset="0.9947" stop-color="#D4D2D1"/>
</linearGradient>
<linearGradient id="paint26_linear_506_16273" x1="40.8313" y1="164.901" x2="17.4579" y2="147.659" gradientUnits="userSpaceOnUse">
<stop stop-color="#F3F5F4"/>
<stop offset="0.7063" stop-color="#E5E5E4"/>
<stop offset="0.9947" stop-color="#D4D2D1"/>
</linearGradient>
<linearGradient id="paint27_linear_506_16273" x1="58.5667" y1="140.862" x2="35.1927" y2="123.619" gradientUnits="userSpaceOnUse">
<stop stop-color="#F3F5F4"/>
<stop offset="0.7063" stop-color="#E5E5E4"/>
<stop offset="0.9947" stop-color="#D4D2D1"/>
</linearGradient>
<linearGradient id="paint28_linear_506_16273" x1="40.581" y1="165.24" x2="17.209" y2="147.998" gradientUnits="userSpaceOnUse">
<stop stop-color="#F3F5F4"/>
<stop offset="0.7063" stop-color="#E5E5E4"/>
<stop offset="0.9947" stop-color="#D4D2D1"/>
</linearGradient>
<linearGradient id="paint29_linear_506_16273" x1="52.8008" y1="148.675" x2="29.4278" y2="131.433" gradientUnits="userSpaceOnUse">
<stop stop-color="#F3F5F4"/>
<stop offset="0.7063" stop-color="#E5E5E4"/>
<stop offset="0.9947" stop-color="#D4D2D1"/>
</linearGradient>
<linearGradient id="paint30_linear_506_16273" x1="46.2873" y1="157.505" x2="22.916" y2="140.264" gradientUnits="userSpaceOnUse">
<stop stop-color="#F3F5F4"/>
<stop offset="0.7063" stop-color="#E5E5E4"/>
<stop offset="0.9947" stop-color="#D4D2D1"/>
</linearGradient>
<linearGradient id="paint31_linear_506_16273" x1="36.0717" y1="124.157" x2="47.5908" y2="158.342" gradientUnits="userSpaceOnUse">
<stop stop-color="#F3F5F4"/>
<stop offset="0.7063" stop-color="#E5E5E4"/>
<stop offset="0.9947" stop-color="#D4D2D1"/>
</linearGradient>
<linearGradient id="paint32_linear_506_16273" x1="48.8703" y1="141.141" x2="32.553" y2="142.501" gradientUnits="userSpaceOnUse">
<stop stop-color="#727272"/>
<stop offset="0.2297" stop-color="#515151"/>
<stop offset="0.5743" stop-color="#252525"/>
<stop offset="0.8427" stop-color="#0A0A0A"/>
<stop offset="1"/>
</linearGradient>
<linearGradient id="paint33_linear_506_16273" x1="53.2939" y1="87.3484" x2="82.0221" y2="38.2954" gradientUnits="userSpaceOnUse">
<stop stop-color="#141718"/>
<stop offset="1" stop-color="#06090A"/>
</linearGradient>
<linearGradient id="paint34_linear_506_16273" x1="57.9598" y1="90.0819" x2="86.7141" y2="40.9874" gradientUnits="userSpaceOnUse">
<stop stop-color="#ADACAB"/>
<stop offset="0.9947" stop-color="#94908E"/>
</linearGradient>
<linearGradient id="paint35_linear_506_16273" x1="51.7477" y1="86.4445" x2="80.4787" y2="37.3884" gradientUnits="userSpaceOnUse">
<stop stop-color="#ADACAB"/>
<stop offset="0.9947" stop-color="#94908E"/>
</linearGradient>
<linearGradient id="paint36_linear_506_16273" x1="58.3687" y1="90.3464" x2="87.1097" y2="41.2735" gradientUnits="userSpaceOnUse">
<stop stop-color="#ADACAB"/>
<stop offset="0.9947" stop-color="#94908E"/>
</linearGradient>
<linearGradient id="paint37_linear_506_16273" x1="51.6404" y1="86.376" x2="80.3669" y2="37.3257" gradientUnits="userSpaceOnUse">
<stop stop-color="#ADACAB"/>
<stop offset="0.9947" stop-color="#94908E"/>
</linearGradient>
<linearGradient id="paint38_linear_506_16273" x1="48.3206" y1="84.436" x2="77.0496" y2="35.3815" gradientUnits="userSpaceOnUse">
<stop stop-color="#ADACAB"/>
<stop offset="0.9947" stop-color="#94908E"/>
</linearGradient>
<linearGradient id="paint39_linear_506_16273" x1="76.6085" y1="84.4309" x2="63.8287" y2="46.9547" gradientUnits="userSpaceOnUse">
<stop stop-color="#333637"/>
<stop offset="1" stop-color="#1F2223"/>
</linearGradient>
<linearGradient id="paint40_linear_506_16273" x1="77.5443" y1="82.5819" x2="64.1598" y2="52.8469" gradientUnits="userSpaceOnUse">
<stop stop-color="#F3F5F4"/>
<stop offset="0.7063" stop-color="#E5E5E4"/>
<stop offset="0.9947" stop-color="#D4D2D1"/>
</linearGradient>
<linearGradient id="paint41_linear_506_16273" x1="74.1045" y1="78.2555" x2="69.4216" y2="53.2176" gradientUnits="userSpaceOnUse">
<stop stop-color="#4D4F50"/>
<stop offset="0.4028" stop-color="#3F4142"/>
<stop offset="1" stop-color="#2E3132"/>
</linearGradient>
<linearGradient id="paint42_linear_506_16273" x1="85.4051" y1="81.4903" x2="72.6018" y2="43.9438" gradientUnits="userSpaceOnUse">
<stop stop-color="#F3F5F4"/>
<stop offset="0.7063" stop-color="#E5E5E4"/>
<stop offset="0.9947" stop-color="#D4D2D1"/>
</linearGradient>
<linearGradient id="paint43_linear_506_16273" x1="67.7389" y1="87.5106" x2="54.936" y2="49.9635" gradientUnits="userSpaceOnUse">
<stop stop-color="#F3F5F4"/>
<stop offset="0.7063" stop-color="#E5E5E4"/>
<stop offset="0.9947" stop-color="#D4D2D1"/>
</linearGradient>
<linearGradient id="paint44_linear_506_16273" x1="90.4497" y1="79.7695" x2="77.646" y2="42.2234" gradientUnits="userSpaceOnUse">
<stop stop-color="#F3F5F4"/>
<stop offset="0.7063" stop-color="#E5E5E4"/>
<stop offset="0.9947" stop-color="#D4D2D1"/>
</linearGradient>
<linearGradient id="paint45_linear_506_16273" x1="62.6408" y1="89.2508" x2="49.8387" y2="51.7066" gradientUnits="userSpaceOnUse">
<stop stop-color="#F3F5F4"/>
<stop offset="0.7063" stop-color="#E5E5E4"/>
<stop offset="0.9947" stop-color="#D4D2D1"/>
</linearGradient>
<linearGradient id="paint46_linear_506_16273" x1="92.096" y1="79.208" x2="79.2921" y2="41.6599" gradientUnits="userSpaceOnUse">
<stop stop-color="#F3F5F4"/>
<stop offset="0.7063" stop-color="#E5E5E4"/>
<stop offset="0.9947" stop-color="#D4D2D1"/>
</linearGradient>
<linearGradient id="paint47_linear_506_16273" x1="61.0503" y1="89.7928" x2="48.2457" y2="52.2458" gradientUnits="userSpaceOnUse">
<stop stop-color="#F3F5F4"/>
<stop offset="0.7063" stop-color="#E5E5E4"/>
<stop offset="0.9947" stop-color="#D4D2D1"/>
</linearGradient>
<linearGradient id="paint48_linear_506_16273" x1="80.1329" y1="83.2844" x2="67.3293" y2="45.7386" gradientUnits="userSpaceOnUse">
<stop stop-color="#F3F5F4"/>
<stop offset="0.7063" stop-color="#E5E5E4"/>
<stop offset="0.9947" stop-color="#D4D2D1"/>
</linearGradient>
<linearGradient id="paint49_linear_506_16273" x1="72.921" y1="85.7451" x2="60.117" y2="48.1983" gradientUnits="userSpaceOnUse">
<stop stop-color="#F3F5F4"/>
<stop offset="0.7063" stop-color="#E5E5E4"/>
<stop offset="0.9947" stop-color="#D4D2D1"/>
</linearGradient>
<linearGradient id="paint50_linear_506_16273" x1="77.5303" y1="82.5886" x2="64.1455" y2="52.8527" gradientUnits="userSpaceOnUse">
<stop stop-color="#F3F5F4"/>
<stop offset="0.7063" stop-color="#E5E5E4"/>
<stop offset="0.9947" stop-color="#D4D2D1"/>
</linearGradient>
<linearGradient id="paint51_linear_506_16273" x1="34.5155" y1="7.90149" x2="66.1399" y2="42.2672" gradientUnits="userSpaceOnUse">
<stop stop-color="#141718"/>
<stop offset="1" stop-color="#06090A"/>
</linearGradient>
<linearGradient id="paint52_linear_506_16273" x1="32.0734" y1="10.1499" x2="63.6783" y2="44.4952" gradientUnits="userSpaceOnUse">
<stop stop-color="#ADACAB"/>
<stop offset="0.9947" stop-color="#94908E"/>
</linearGradient>
<linearGradient id="paint53_linear_506_16273" x1="35.6322" y1="6.87398" x2="67.2571" y2="41.2405" gradientUnits="userSpaceOnUse">
<stop stop-color="#ADACAB"/>
<stop offset="0.9947" stop-color="#94908E"/>
</linearGradient>
<linearGradient id="paint54_linear_506_16273" x1="32.0807" y1="10.1729" x2="63.6892" y2="44.5215" gradientUnits="userSpaceOnUse">
<stop stop-color="#ADACAB"/>
<stop offset="0.9947" stop-color="#94908E"/>
</linearGradient>
<linearGradient id="paint55_linear_506_16273" x1="35.6264" y1="6.88117" x2="67.2493" y2="41.2455" gradientUnits="userSpaceOnUse">
<stop stop-color="#ADACAB"/>
<stop offset="0.9947" stop-color="#94908E"/>
</linearGradient>
<linearGradient id="paint56_linear_506_16273" x1="37.2739" y1="5.36325" x2="68.8998" y2="39.7311" gradientUnits="userSpaceOnUse">
<stop stop-color="#ADACAB"/>
<stop offset="0.9947" stop-color="#94908E"/>
</linearGradient>
<linearGradient id="paint57_linear_506_16273" x1="30.7784" y1="28.1095" x2="53.6" y2="35.0605" gradientUnits="userSpaceOnUse">
<stop stop-color="#333637"/>
<stop offset="1" stop-color="#1F2223"/>
</linearGradient>
<linearGradient id="paint58_linear_506_16273" x1="50.7843" y1="46.7856" x2="28.5393" y2="22.6123" gradientUnits="userSpaceOnUse">
<stop stop-color="#F3F5F4"/>
<stop offset="0.7063" stop-color="#E5E5E4"/>
<stop offset="0.9947" stop-color="#D4D2D1"/>
</linearGradient>
<linearGradient id="paint59_linear_506_16273" x1="35.8881" y1="28.8894" x2="50.8943" y2="35.311" gradientUnits="userSpaceOnUse">
<stop stop-color="#4D4F50"/>
<stop offset="0.4028" stop-color="#3F4142"/>
<stop offset="1" stop-color="#2E3132"/>
</linearGradient>
<linearGradient id="paint60_linear_506_16273" x1="28.8992" y1="34.1854" x2="51.7602" y2="41.1491" gradientUnits="userSpaceOnUse">
<stop stop-color="#F3F5F4"/>
<stop offset="0.7063" stop-color="#E5E5E4"/>
<stop offset="0.9947" stop-color="#D4D2D1"/>
</linearGradient>
<linearGradient id="paint61_linear_506_16273" x1="32.6272" y1="21.9476" x2="55.4872" y2="28.91" gradientUnits="userSpaceOnUse">
<stop stop-color="#F3F5F4"/>
<stop offset="0.7063" stop-color="#E5E5E4"/>
<stop offset="0.9947" stop-color="#D4D2D1"/>
</linearGradient>
<linearGradient id="paint62_linear_506_16273" x1="26.897" y1="40.7573" x2="49.7579" y2="47.7203" gradientUnits="userSpaceOnUse">
<stop stop-color="#F3F5F4"/>
<stop offset="0.7063" stop-color="#E5E5E4"/>
<stop offset="0.9947" stop-color="#D4D2D1"/>
</linearGradient>
<linearGradient id="paint63_linear_506_16273" x1="34.6386" y1="15.3448" x2="57.4984" y2="22.3074" gradientUnits="userSpaceOnUse">
<stop stop-color="#F3F5F4"/>
<stop offset="0.7063" stop-color="#E5E5E4"/>
<stop offset="0.9947" stop-color="#D4D2D1"/>
</linearGradient>
<linearGradient id="paint64_linear_506_16273" x1="26.7739" y1="41.1648" x2="49.6336" y2="48.1276" gradientUnits="userSpaceOnUse">
<stop stop-color="#F3F5F4"/>
<stop offset="0.7063" stop-color="#E5E5E4"/>
<stop offset="0.9947" stop-color="#D4D2D1"/>
</linearGradient>
<linearGradient id="paint65_linear_506_16273" x1="34.7498" y1="14.9829" x2="57.609" y2="21.9454" gradientUnits="userSpaceOnUse">
<stop stop-color="#F3F5F4"/>
<stop offset="0.7063" stop-color="#E5E5E4"/>
<stop offset="0.9947" stop-color="#D4D2D1"/>
</linearGradient>
<linearGradient id="paint66_linear_506_16273" x1="29.3327" y1="32.7717" x2="52.1905" y2="39.7339" gradientUnits="userSpaceOnUse">
<stop stop-color="#F3F5F4"/>
<stop offset="0.7063" stop-color="#E5E5E4"/>
<stop offset="0.9947" stop-color="#D4D2D1"/>
</linearGradient>
<linearGradient id="paint67_linear_506_16273" x1="32.219" y1="23.2887" x2="55.0779" y2="30.2511" gradientUnits="userSpaceOnUse">
<stop stop-color="#F3F5F4"/>
<stop offset="0.7063" stop-color="#E5E5E4"/>
<stop offset="0.9947" stop-color="#D4D2D1"/>
</linearGradient>
<linearGradient id="paint68_linear_506_16273" x1="49.685" y1="45.0594" x2="30.1745" y2="23.8576" gradientUnits="userSpaceOnUse">
<stop stop-color="#F3F5F4"/>
<stop offset="0.7063" stop-color="#E5E5E4"/>
<stop offset="0.9947" stop-color="#D4D2D1"/>
</linearGradient>
<linearGradient id="paint69_linear_506_16273" x1="-15.4608" y1="140.699" x2="28.2306" y2="72.2274" gradientUnits="userSpaceOnUse">
<stop stop-color="#141718"/>
<stop offset="1" stop-color="#06090A"/>
</linearGradient>
<linearGradient id="paint70_linear_506_16273" x1="-8.29725" y1="145.276" x2="35.3974" y2="76.7999" gradientUnits="userSpaceOnUse">
<stop stop-color="#ADACAB"/>
<stop offset="0.9947" stop-color="#94908E"/>
</linearGradient>
<linearGradient id="paint71_linear_506_16273" x1="-17.7939" y1="139.212" x2="25.8987" y2="70.7381" gradientUnits="userSpaceOnUse">
<stop stop-color="#ADACAB"/>
<stop offset="0.9947" stop-color="#94908E"/>
</linearGradient>
<linearGradient id="paint72_linear_506_16273" x1="-22.4703" y1="136.227" x2="21.2205" y2="67.7552" gradientUnits="userSpaceOnUse">
<stop stop-color="#ADACAB"/>
<stop offset="0.9947" stop-color="#94908E"/>
</linearGradient>
<linearGradient id="paint73_linear_506_16273" x1="18.0455" y1="137.84" x2="1.64857" y2="83.0932" gradientUnits="userSpaceOnUse">
<stop stop-color="#333637"/>
<stop offset="1" stop-color="#1F2223"/>
</linearGradient>
<linearGradient id="paint74_linear_506_16273" x1="19.4575" y1="135.238" x2="1.70832" y2="91.6124" gradientUnits="userSpaceOnUse">
<stop stop-color="#F3F5F4"/>
<stop offset="0.7063" stop-color="#E5E5E4"/>
<stop offset="0.9947" stop-color="#D4D2D1"/>
</linearGradient>
<linearGradient id="paint75_linear_506_16273" x1="14.6994" y1="128.818" x2="9.36038" y2="92.4947" gradientUnits="userSpaceOnUse">
<stop stop-color="#4D4F50"/>
<stop offset="0.4028" stop-color="#3F4142"/>
<stop offset="1" stop-color="#2E3132"/>
</linearGradient>
<linearGradient id="paint76_linear_506_16273" x1="30.7587" y1="134.115" x2="14.3308" y2="79.2649" gradientUnits="userSpaceOnUse">
<stop stop-color="#F3F5F4"/>
<stop offset="0.7063" stop-color="#E5E5E4"/>
<stop offset="0.9947" stop-color="#D4D2D1"/>
</linearGradient>
<linearGradient id="paint77_linear_506_16273" x1="5.22064" y1="141.764" x2="-11.2075" y2="86.9131" gradientUnits="userSpaceOnUse">
<stop stop-color="#F3F5F4"/>
<stop offset="0.7063" stop-color="#E5E5E4"/>
<stop offset="0.9947" stop-color="#D4D2D1"/>
</linearGradient>
<linearGradient id="paint78_linear_506_16273" x1="38.0498" y1="131.929" x2="21.6223" y2="77.0813" gradientUnits="userSpaceOnUse">
<stop stop-color="#F3F5F4"/>
<stop offset="0.7063" stop-color="#E5E5E4"/>
<stop offset="0.9947" stop-color="#D4D2D1"/>
</linearGradient>
<linearGradient id="paint79_linear_506_16273" x1="-2.14655" y1="143.97" x2="-18.5739" y2="89.1215" gradientUnits="userSpaceOnUse">
<stop stop-color="#F3F5F4"/>
<stop offset="0.7063" stop-color="#E5E5E4"/>
<stop offset="0.9947" stop-color="#D4D2D1"/>
</linearGradient>
<linearGradient id="paint80_linear_506_16273" x1="40.43" y1="131.22" x2="24.0017" y2="76.3683" gradientUnits="userSpaceOnUse">
<stop stop-color="#F3F5F4"/>
<stop offset="0.7063" stop-color="#E5E5E4"/>
<stop offset="0.9947" stop-color="#D4D2D1"/>
</linearGradient>
<linearGradient id="paint81_linear_506_16273" x1="23.1367" y1="136.401" x2="6.70761" y2="81.5474" gradientUnits="userSpaceOnUse">
<stop stop-color="#F3F5F4"/>
<stop offset="0.7063" stop-color="#E5E5E4"/>
<stop offset="0.9947" stop-color="#D4D2D1"/>
</linearGradient>
<linearGradient id="paint82_linear_506_16273" x1="12.7132" y1="139.52" x2="-3.71436" y2="84.6715" gradientUnits="userSpaceOnUse">
<stop stop-color="#F3F5F4"/>
<stop offset="0.7063" stop-color="#E5E5E4"/>
<stop offset="0.9947" stop-color="#D4D2D1"/>
</linearGradient>
<linearGradient id="paint83_linear_506_16273" x1="19.4369" y1="135.246" x2="1.68793" y2="91.6193" gradientUnits="userSpaceOnUse">
<stop stop-color="#F3F5F4"/>
<stop offset="0.7063" stop-color="#E5E5E4"/>
<stop offset="0.9947" stop-color="#D4D2D1"/>
</linearGradient>
<linearGradient id="paint84_linear_506_16273" x1="-5.99706" y1="163.556" x2="-37.5325" y2="138.714" gradientUnits="userSpaceOnUse">
<stop stop-color="#FF1916"/>
<stop offset="1" stop-color="#D10000"/>
</linearGradient>
<linearGradient id="paint85_linear_506_16273" x1="-3.37838" y1="153.453" x2="-29.5508" y2="147.715" gradientUnits="userSpaceOnUse">
<stop stop-color="#727272"/>
<stop offset="0.2297" stop-color="#515151"/>
<stop offset="0.5743" stop-color="#252525"/>
<stop offset="0.8427" stop-color="#0A0A0A"/>
<stop offset="1"/>
</linearGradient>
</defs>
</svg>
