<svg width="109" height="195" viewBox="0 0 109 195" fill="none" xmlns="http://www.w3.org/2000/svg">
<path d="M147.453 139.434C147.885 140.951 147.205 142.559 145.943 143.039L76.7827 169.105C75.5212 169.585 74.1544 168.737 73.7233 167.221L42.2415 56.0857C41.8104 54.5693 42.4898 52.9613 43.7513 52.4816L112.912 26.4144C114.174 25.9347 115.541 26.7828 115.972 28.2992L147.453 139.434Z" fill="url(#paint0_linear_57_1289)"/>
<path d="M146.825 139.145C147.252 140.645 146.59 142.248 145.335 142.716L77.1571 168.378C75.9126 168.853 74.5563 168.01 74.129 166.511L42.864 56.3712C42.4366 54.8719 43.0984 53.2686 44.3475 52.8111L112.525 27.1487C113.77 26.6742 115.126 27.5167 115.553 29.0161L146.825 139.145Z" fill="url(#paint1_linear_57_1289)"/>
<path d="M97.6663 76.5473C92.0022 79.0838 91.7782 87.0561 91.7782 87.0561L91.7935 87.0795C91.7935 87.0795 87.5236 80.7951 81.6419 82.6013C75.7603 84.4075 73.0706 92.4064 75.9766 98.2899C78.8827 104.173 86.948 107.214 91.8545 109.52C96.7673 111.816 99.7472 115.152 99.7472 115.152L99.7427 115.136C99.7427 115.136 100.443 110.417 103.229 105.223C106.015 100.028 110.958 92.0954 110.287 85.3756C109.617 78.6558 103.33 74.0108 97.6663 76.5473Z" fill="url(#paint2_linear_57_1289)"/>
<path d="M100.683 118.183C100.815 118.13 100.918 118.002 100.949 117.847C100.963 117.797 101.894 112.753 104.822 107.036L105.684 105.362C109.214 98.4968 113.617 89.9641 112.307 84.1548C111.442 80.3161 109.085 76.8801 105.993 74.9472C103.269 73.2561 100.324 72.933 97.6533 74.122C92.6417 76.3308 91.1462 81.0204 90.7271 83.1091C89.3115 81.7144 85.7161 78.943 80.5289 80.5753C77.7761 81.4288 75.5394 83.7034 74.2162 86.9096C72.7051 90.5682 72.5736 94.9533 73.8341 98.6326C75.7738 104.23 83.3341 107.972 89.9995 111.253L91.4196 111.959C96.7069 114.587 100.251 118.077 100.278 118.106C100.413 118.199 100.551 118.236 100.683 118.183ZM80.7279 81.4388C86.406 79.6588 90.0248 83.5228 90.6883 84.3097C90.7939 84.4284 90.9541 84.478 91.0971 84.4312C91.2462 84.3735 91.3441 84.2285 91.3705 84.0567C91.504 82.9683 92.4431 77.3815 97.9378 74.963C100.377 73.899 103.106 74.1689 105.613 75.7341C108.526 77.5493 110.743 80.7749 111.542 84.3743C112.761 89.814 108.457 98.1744 104.997 104.893L104.129 106.577C101.766 111.211 100.684 115.334 100.319 116.951C99.1431 115.896 96.0011 113.243 91.7518 111.13L90.321 110.417C84.1202 107.362 76.3954 103.554 74.5723 98.2825C73.3724 94.8252 73.5051 90.7146 74.9308 87.28C76.0862 84.4661 78.0002 82.4508 80.3165 81.5749C80.4594 81.5281 80.5912 81.4748 80.7279 81.4388Z" fill="url(#paint3_linear_57_1289)"/>
<path d="M57.8413 69.967C56.6327 70.5053 56.5831 72.2034 56.5831 72.2034C56.5831 72.2034 55.6696 70.8689 54.4191 71.2534C53.1685 71.6378 52.5968 73.3361 53.2122 74.5844C53.8276 75.8327 55.5429 76.4798 56.5932 76.9724C57.6435 77.4649 58.2775 78.177 58.2775 78.177C58.2775 78.177 58.4344 77.1742 59.0121 76.0695C59.607 74.9602 60.6493 73.2752 60.5155 71.845C60.3879 70.4041 59.0562 69.418 57.8413 69.967Z" fill="url(#paint4_linear_57_1289)"/>
<path d="M58.4866 78.8163C58.5208 78.8073 58.5394 78.775 58.541 78.7472C58.541 78.7472 58.7409 77.6685 59.3699 76.4496L59.5472 76.0915C60.302 74.6287 61.2338 72.808 60.954 71.5812C60.769 70.769 60.2657 70.0317 59.6038 69.6199C59.0289 69.2585 58.3982 69.1956 57.8343 69.4449C56.764 69.9193 56.4502 70.918 56.3586 71.3542C56.0556 71.0494 55.291 70.4629 54.188 70.8177C53.6054 70.9986 53.1238 71.4828 52.8443 72.1701C52.5259 72.95 52.4965 73.8827 52.7669 74.6724C53.1834 75.8632 54.7842 76.6595 56.2105 77.3552L56.5162 77.5036C57.6411 78.0681 58.4026 78.8107 58.4026 78.8107C58.4244 78.8233 58.4633 78.8316 58.4866 78.8163ZM54.2396 71.0056C55.4451 70.6238 56.2188 71.4457 56.3664 71.6174C56.3928 71.6471 56.4205 71.649 56.4547 71.64C56.4889 71.631 56.5076 71.5987 56.5153 71.56C56.5448 71.3324 56.7403 70.1359 57.9194 69.6238C58.443 69.3942 59.0179 69.4537 59.5493 69.7899C60.1677 70.1765 60.6401 70.8671 60.8111 71.628C61.0723 72.7865 60.1545 74.5576 59.4183 75.9879L59.2304 76.3399C58.7318 77.3321 58.4925 78.201 58.4226 78.5491C58.1771 78.3208 57.5014 77.7571 56.6002 77.3076L56.2942 77.1591C54.972 76.5091 53.3328 75.705 52.935 74.5825C52.6785 73.8442 52.7156 72.9732 53.0091 72.2365C53.2499 71.6418 53.6616 71.2037 54.154 71.0281C54.1882 71.0191 54.2116 71.0038 54.2396 71.0056Z" fill="url(#paint5_linear_57_1289)"/>
<path d="M59.3695 65.8207L59.2653 65.4727C59.0447 65.5034 58.855 65.4801 58.7012 65.4199C58.5473 65.3597 58.397 65.2437 58.2602 65.0783C58.1235 64.9128 57.9353 64.66 57.7177 64.3327L52.5898 56.617L51.4188 57.0905L51.3734 66.6913C51.3766 67.24 51.3238 67.6842 51.2275 68.0026C51.1421 68.3273 50.9666 68.5571 50.7289 68.693L50.8565 69.0255L53.7227 67.9497L53.6123 67.6127C53.3109 67.6829 53.07 67.6728 52.8944 67.6C52.708 67.5209 52.5775 67.3448 52.475 67.0696C52.4268 66.9266 52.3909 66.762 52.3567 66.5695C52.3225 66.377 52.3162 66.0857 52.3162 65.6827L52.31 64.8878L55.5676 63.6353L56.1268 64.4771C56.2667 64.6876 56.391 64.8746 56.4874 65.0599C56.5791 65.2281 56.6537 65.4008 56.7066 65.5609C56.7532 65.7317 56.7733 65.8728 56.7438 65.9996C56.7205 66.1157 56.6523 66.2344 56.5684 66.3298C56.4674 66.4297 56.3152 66.543 56.1054 66.6807L56.2157 67.0181L59.3695 65.8207ZM52.2344 58.5699L55.2131 63.042L52.271 64.1744L52.2344 58.5699Z" fill="url(#paint6_linear_57_1289)"/>
<defs>
<linearGradient id="paint0_linear_57_1289" x1="57.9801" y1="111.651" x2="133.53" y2="90.2541" gradientUnits="userSpaceOnUse">
<stop stop-color="#CDCCCB"/>
<stop offset="0.9947" stop-color="#B6B4B3"/>
</linearGradient>
<linearGradient id="paint1_linear_57_1289" x1="58.1274" y1="110.899" x2="132.647" y2="90.8128" gradientUnits="userSpaceOnUse">
<stop stop-color="#F3F5F4"/>
<stop offset="0.7063" stop-color="#E5E5E4"/>
<stop offset="0.9947" stop-color="#D4D2D1"/>
</linearGradient>
<linearGradient id="paint2_linear_57_1289" x1="59.0075" y1="109.76" x2="134.7" y2="89.7593" gradientUnits="userSpaceOnUse">
<stop stop-color="#EF0A07"/>
<stop offset="1" stop-color="#C70000"/>
</linearGradient>
<linearGradient id="paint3_linear_57_1289" x1="59.1187" y1="110.184" x2="134.81" y2="90.1811" gradientUnits="userSpaceOnUse">
<stop stop-color="#EF0A07"/>
<stop offset="1" stop-color="#C70000"/>
</linearGradient>
<linearGradient id="paint4_linear_57_1289" x1="50.3888" y1="76.757" x2="126.077" y2="56.7566" gradientUnits="userSpaceOnUse">
<stop stop-color="#EF0A07"/>
<stop offset="1" stop-color="#C70000"/>
</linearGradient>
<linearGradient id="paint5_linear_57_1289" x1="50.4088" y1="76.8465" x2="126.098" y2="56.843" gradientUnits="userSpaceOnUse">
<stop stop-color="#EF0A07"/>
<stop offset="1" stop-color="#C70000"/>
</linearGradient>
<linearGradient id="paint6_linear_57_1289" x1="47.1672" y1="64.4119" x2="122.855" y2="44.4124" gradientUnits="userSpaceOnUse">
<stop stop-color="#EF0A07"/>
<stop offset="1" stop-color="#C70000"/>
</linearGradient>
</defs>
</svg>
