<svg width="84" height="69" viewBox="0 0 84 69" fill="none" xmlns="http://www.w3.org/2000/svg">
<path d="M39.317 54.7082C16.8678 53.2095 -6.22985 41.0815 -12.0122 18.6217L-14.5631 28.709C-18.1027 43.2393 0.254172 60.1929 26.4449 66.5705C52.6355 72.9481 76.7322 66.3366 80.2718 51.8063L82.8866 41.0495C71.3219 50.4671 54.2724 56.1007 39.317 54.7082Z" fill="url(#paint0_linear_57_1234)"/>
<path d="M-9.7373 45.801C-7.05871 49.2661 -3.43406 52.5716 0.945229 55.5691L4.17639 42.3038C0.126616 39.2532 -3.41282 35.65 -6.25085 31.5045L-9.7373 45.801Z" fill="url(#paint1_linear_57_1234)"/>
<path d="M81.422 43.3136L78.9668 55.3459C79.4983 54.2936 80.0298 52.9437 80.3062 51.7851L83.1228 40.1992C82.8358 40.4437 81.709 43.0904 81.422 43.3136Z" fill="url(#paint2_linear_57_1234)"/>
<path d="M54.1992 68.5051C59.4607 67.8568 64.2017 66.5812 68.1664 64.7423L71.4401 51.2857C67.0608 53.0395 62.3733 54.1024 57.5582 54.6657L54.1992 68.5051Z" fill="url(#paint3_linear_57_1234)"/>
<path d="M21.0573 51.0729L17.9004 64.0196C20.6428 64.9869 23.4913 65.8478 26.4462 66.5706C29.4118 67.2934 32.3454 67.8462 35.2259 68.2395L38.5424 54.6443C32.6431 54.1873 26.7121 52.9968 21.0573 51.0729Z" fill="url(#paint4_linear_57_1234)"/>
<path d="M36.2142 25.8072L45.6105 25.2437L46.3971 22.3739C43.6548 21.396 40.7952 20.5458 37.8403 19.823C34.8853 19.1002 31.9518 18.5473 29.0713 18.154L28.3271 20.8753L36.2142 25.8072Z" fill="#0000FF"/>
<path d="M60.9062 38.1158L70.1537 41.9851L74.2672 40.9221C71.6417 37.4569 68.0704 34.13 63.7443 31.1219L59.79 32.1527L60.9062 38.1158Z" fill="#0000FF"/>
<path d="M8.68359 25.5309L12.7332 20.8646L9.6509 17.9416C4.42127 18.6219 -0.276994 19.9398 -4.19922 21.8105L-1.3398 24.5211L8.68359 25.5309Z" fill="#0000FF"/>
<path d="M83.0276 40.1355C79.5093 54.5914 55.4657 61.1603 29.3282 54.7933C3.19064 48.4263 -15.1448 31.547 -11.6159 17.0911C-8.0976 2.63519 15.946 -3.93372 42.0835 2.43325C68.221 8.80022 86.5459 25.6796 83.0276 40.1355Z" fill="url(#paint5_linear_57_1234)"/>
<path d="M71.5244 37.3718C68.8458 48.3519 50.6378 53.3479 30.846 48.5328C11.0542 43.7177 -2.81692 30.8986 -0.148957 19.9185C2.52963 8.93838 20.7376 3.94272 40.5295 8.75781C60.3213 13.5729 74.203 26.3917 71.5244 37.3718Z" fill="#800000"/>
<path d="M31.06 47.6716C12.1504 43.0691 -1.14669 30.7815 1.40435 20.3009C3.95539 9.80978 21.4192 5.01597 40.3181 9.6291C59.2277 14.2316 72.5251 26.5192 69.9741 36.9998C67.423 47.4803 49.9695 52.2741 31.06 47.6716ZM40.1375 10.405C22.0144 5.99385 5.28384 10.5858 2.83909 20.6305C0.394346 30.6859 13.139 42.4524 31.2621 46.8636C49.3851 51.2747 66.1157 46.6828 68.5604 36.6381C71.0052 26.5934 58.2498 14.8162 40.1375 10.405Z" fill="url(#paint6_linear_57_1234)"/>
<path d="M66.753 36.2025C64.4358 45.7264 48.6514 50.0526 31.4957 45.8752C14.3399 41.6979 2.30736 30.5902 4.62456 21.0769C6.94175 11.553 22.7265 7.22685 39.8822 11.4042C57.0486 15.5815 69.0702 26.6892 66.753 36.2025Z" fill="#B00000"/>
<path d="M62.6742 35.3095C60.6546 43.611 46.943 47.3953 32.0513 43.7707C17.1596 40.1461 6.72163 30.4733 8.7412 22.1717C10.7608 13.8702 24.4724 10.0863 39.3641 13.7109C54.2664 17.3355 64.6937 27.008 62.6742 35.3095Z" fill="#800000"/>
<path d="M62.2466 35.1078C60.2695 43.2499 46.7703 46.9487 32.1018 43.3773C17.4333 39.8058 7.15473 30.3139 9.14242 22.1718C11.1195 14.0297 24.6186 10.3309 39.2765 13.9023C53.9343 17.4738 64.2236 26.9764 62.2466 35.1078Z" fill="url(#paint7_linear_57_1234)"/>
<path d="M40.4651 8.32219L49.8615 7.75874L50.6481 4.87823C47.9058 3.91097 45.0465 3.04977 42.0916 2.32697C39.1366 1.60418 36.2028 1.05164 33.3223 0.658356L32.5781 3.37927L40.4651 8.32219Z" fill="url(#paint8_linear_57_1234)"/>
<path d="M30.8168 49.3618L21.4205 49.9249L20.7402 52.4016C23.472 53.3689 26.3311 54.2301 29.2861 54.9529C32.2516 55.6757 35.1856 56.2282 38.0661 56.6215L38.7038 54.3044L30.8168 49.3618Z" fill="url(#paint9_linear_57_1234)"/>
<path d="M72.5791 37.7438L76.2569 43.7816L81.0296 44.9931C81.9862 43.505 82.6982 41.9107 83.1127 40.1994C83.4954 38.6263 83.6231 37.0317 83.5062 35.4161L78.8718 34.247L72.5791 37.7438Z" fill="url(#paint10_linear_57_1234)"/>
<path d="M65.1676 20.6307L74.4151 24.4996L78.5285 23.437C75.9031 19.9718 72.3317 16.6449 68.0056 13.6367L64.041 14.6676L65.1676 20.6307Z" fill="url(#paint11_linear_57_1234)"/>
<path d="M6.12354 37.0635L-3.12393 33.1946L-6.89746 34.1723C-4.21887 37.6375 -0.594288 40.9433 3.77437 43.9407L7.23941 43.0373L6.12354 37.0635Z" fill="url(#paint12_linear_57_1234)"/>
<path d="M58.3439 49.6489L54.3047 54.3152L57.0259 56.8979C62.2768 56.2495 67.0174 54.9739 70.9928 53.1351L68.3887 50.6584L58.3439 49.6489Z" fill="url(#paint13_linear_57_1234)"/>
<path d="M12.9463 8.04569L16.9958 3.37914L13.9136 0.445435C11.1712 0.700539 8.60938 1.27458 6.19652 1.96549C3.99625 2.59262 1.85972 3.33676 0.0527344 4.31466L2.91216 7.02519L12.9463 8.04569Z" fill="url(#paint14_linear_57_1234)"/>
<path d="M28.6025 44.3447C26.5616 43.7175 24.5632 42.9841 22.6819 42.1444L23.3517 41.4534C25.1374 42.24 27.0293 42.9417 28.9638 43.5369L28.6025 44.3447ZM34.8312 45.8647L34.8737 44.9824C36.8614 45.3438 38.8596 45.5885 40.8154 45.7054L41.0918 46.6299C39.0403 46.5024 36.9252 46.2474 34.8312 45.8647ZM17.3247 39.3596C15.6665 38.3498 14.1358 37.255 12.7752 36.107L13.9553 35.7242C15.2415 36.8084 16.6978 37.8503 18.2709 38.8175L17.3247 39.3596ZM47.1295 46.5981L46.5343 45.6733C48.3731 45.5351 50.1374 45.2801 51.7743 44.9081L52.646 45.7904C50.924 46.1943 49.0641 46.46 47.1295 46.5981ZM9.22521 32.5248C8.22605 31.2918 7.41808 30.0376 6.82284 28.7727L8.3111 28.762C8.87446 29.9525 9.63965 31.1539 10.5857 32.3231L9.22521 32.5248ZM57.4504 44.2386L56.3345 43.4305C57.7057 42.8247 58.9385 42.1125 59.9802 41.3153L61.2982 42.0062C60.1927 42.8459 58.896 43.6008 57.4504 44.2386ZM5.69626 25.0206C5.53682 23.7876 5.60058 22.5864 5.87694 21.4278L7.41808 21.7998C7.15235 22.9053 7.09929 24.0428 7.2481 25.212L5.69626 25.0206ZM64.0194 39.1789L62.5526 38.6368C63.2222 37.6696 63.6898 36.6279 63.9555 35.5225L63.9662 35.4586L65.5077 35.8306L65.4863 35.8945C65.2205 37.0637 64.721 38.1691 64.0194 39.1789ZM8.79994 18.6751L7.33309 18.1327C8.03463 17.1123 8.9488 16.1557 10.0436 15.3054L11.3616 15.9963C10.3305 16.8041 9.46959 17.7078 8.79994 18.6751ZM64.1362 32.0467C63.9768 30.8775 63.6155 29.6761 63.0521 28.4856L64.5404 28.4753C65.1356 29.7402 65.5289 30.9945 65.6884 32.2381L64.1362 32.0467ZM15.0183 13.8703L13.8914 13.0626C15.337 12.4248 16.9422 11.904 18.6748 11.5001L19.5568 12.3824C17.9092 12.7757 16.3895 13.2644 15.0183 13.8703ZM60.7668 24.9356C59.8102 23.7664 58.6729 22.629 57.3868 21.5449L58.5666 21.1621C59.9271 22.3101 61.1281 23.5112 62.1273 24.7442L60.7668 24.9356ZM24.7864 11.6172L24.1912 10.6923C26.1257 10.5435 28.1561 10.5436 30.2182 10.6606L30.505 11.585C28.5492 11.4681 26.6253 11.479 24.7864 11.6172ZM53.0605 18.4516C51.4767 17.4949 49.7761 16.6022 47.9797 15.8156L48.6492 15.114C50.5413 15.9431 52.3486 16.8893 54.0067 17.8991L53.0605 18.4516ZM36.447 12.3081L36.4895 11.4151C37.563 11.6064 38.6473 11.8402 39.7103 12.0953C40.72 12.3398 41.7404 12.6161 42.7183 12.9137L42.3569 13.7217C41.4215 13.4348 40.4648 13.1797 39.5082 12.9458H39.4975C38.4983 12.712 37.4674 12.4888 36.447 12.3081Z" fill="url(#paint15_linear_57_1234)"/>
<g style="mix-blend-mode:plus-lighter">
<path d="M42.0707 2.43319C15.9331 -3.93378 -8.11044 2.6245 -11.6288 17.091C-12.309 19.8972 -12.1602 22.7885 -11.3099 25.6797L80.8145 27.1144C75.0959 16.6764 60.5444 6.9294 42.0707 2.43319Z" fill="url(#paint16_linear_57_1234)"/>
</g>
<defs>
<linearGradient id="paint0_linear_57_1234" x1="-18.2939" y1="35.8811" x2="79.3809" y2="59.8875" gradientUnits="userSpaceOnUse">
<stop stop-color="#B00000"/>
<stop offset="1" stop-color="#800000"/>
</linearGradient>
<linearGradient id="paint1_linear_57_1234" x1="-19.1749" y1="39.4681" x2="78.4972" y2="63.4738" gradientUnits="userSpaceOnUse">
<stop stop-color="#ADACAB"/>
<stop offset="0.9947" stop-color="#94908E"/>
</linearGradient>
<linearGradient id="paint2_linear_57_1234" x1="-15.3663" y1="24.0799" x2="82.2848" y2="48.0802" gradientUnits="userSpaceOnUse">
<stop stop-color="#ADACAB"/>
<stop offset="0.9947" stop-color="#94908E"/>
</linearGradient>
<linearGradient id="paint3_linear_57_1234" x1="-19.239" y1="39.7248" x2="78.4364" y2="63.7315" gradientUnits="userSpaceOnUse">
<stop stop-color="#ADACAB"/>
<stop offset="0.9947" stop-color="#94908E"/>
</linearGradient>
<linearGradient id="paint4_linear_57_1234" x1="-21.131" y1="47.4313" x2="76.5415" y2="71.4355" gradientUnits="userSpaceOnUse">
<stop stop-color="#ADACAB"/>
<stop offset="0.9947" stop-color="#94908E"/>
</linearGradient>
<linearGradient id="paint5_linear_57_1234" x1="16.3176" y1="1.08101" x2="57.1337" y2="59.0497" gradientUnits="userSpaceOnUse">
<stop stop-color="#FF1916"/>
<stop offset="1" stop-color="#D10000"/>
</linearGradient>
<linearGradient id="paint6_linear_57_1234" x1="19.9313" y1="1.70603" x2="49.858" y2="52.8462" gradientUnits="userSpaceOnUse">
<stop stop-color="#F3F5F4"/>
<stop offset="0.7063" stop-color="#E5E5E4"/>
<stop offset="0.9947" stop-color="#D4D2D1"/>
</linearGradient>
<linearGradient id="paint7_linear_57_1234" x1="20.9404" y1="12.3963" x2="51.0523" y2="45.5549" gradientUnits="userSpaceOnUse">
<stop stop-color="#FF3633"/>
<stop offset="1" stop-color="#F11B1A"/>
</linearGradient>
<linearGradient id="paint8_linear_57_1234" x1="31.7412" y1="-9.89838" x2="72.6343" y2="48.1792" gradientUnits="userSpaceOnUse">
<stop stop-color="#F3F5F4"/>
<stop offset="0.7063" stop-color="#E5E5E4"/>
<stop offset="0.9947" stop-color="#D4D2D1"/>
</linearGradient>
<linearGradient id="paint9_linear_57_1234" x1="0.617233" y1="12.0208" x2="41.5079" y2="70.0952" gradientUnits="userSpaceOnUse">
<stop stop-color="#F3F5F4"/>
<stop offset="0.7063" stop-color="#E5E5E4"/>
<stop offset="0.9947" stop-color="#D4D2D1"/>
</linearGradient>
<linearGradient id="paint10_linear_57_1234" x1="40.63" y1="-16.1508" x2="81.5201" y2="41.9239" gradientUnits="userSpaceOnUse">
<stop stop-color="#F3F5F4"/>
<stop offset="0.7063" stop-color="#E5E5E4"/>
<stop offset="0.9947" stop-color="#D4D2D1"/>
</linearGradient>
<linearGradient id="paint11_linear_57_1234" x1="43.5271" y1="-18.1949" x2="84.4185" y2="39.881" gradientUnits="userSpaceOnUse">
<stop stop-color="#F3F5F4"/>
<stop offset="0.7063" stop-color="#E5E5E4"/>
<stop offset="0.9947" stop-color="#D4D2D1"/>
</linearGradient>
<linearGradient id="paint12_linear_57_1234" x1="-11.1666" y1="20.314" x2="29.7264" y2="78.3906" gradientUnits="userSpaceOnUse">
<stop stop-color="#F3F5F4"/>
<stop offset="0.7063" stop-color="#E5E5E4"/>
<stop offset="0.9947" stop-color="#D4D2D1"/>
</linearGradient>
<linearGradient id="paint13_linear_57_1234" x1="22.447" y1="-3.35643" x2="63.3402" y2="54.7229" gradientUnits="userSpaceOnUse">
<stop stop-color="#F3F5F4"/>
<stop offset="0.7063" stop-color="#E5E5E4"/>
<stop offset="0.9947" stop-color="#D4D2D1"/>
</linearGradient>
<linearGradient id="paint14_linear_57_1234" x1="9.74642" y1="5.5892" x2="50.6421" y2="63.6671" gradientUnits="userSpaceOnUse">
<stop stop-color="#F3F5F4"/>
<stop offset="0.7063" stop-color="#E5E5E4"/>
<stop offset="0.9947" stop-color="#D4D2D1"/>
</linearGradient>
<linearGradient id="paint15_linear_57_1234" x1="19.902" y1="1.72289" x2="49.8285" y2="52.8618" gradientUnits="userSpaceOnUse">
<stop stop-color="#F3F5F4"/>
<stop offset="0.7063" stop-color="#E5E5E4"/>
<stop offset="0.9947" stop-color="#D4D2D1"/>
</linearGradient>
<linearGradient id="paint16_linear_57_1234" x1="32.1903" y1="-1.03518" x2="36.5183" y2="48.875" gradientUnits="userSpaceOnUse">
<stop stop-color="#727272"/>
<stop offset="0.2297" stop-color="#515151"/>
<stop offset="0.5743" stop-color="#252525"/>
<stop offset="0.8427" stop-color="#0A0A0A"/>
<stop offset="1"/>
</linearGradient>
</defs>
</svg>
