<svg width="107" height="165" viewBox="0 0 107 165" fill="none" xmlns="http://www.w3.org/2000/svg">
<path d="M80.06 72.9684C80.06 72.9684 82.0894 71.6398 82.8846 70.8549C83.2615 70.4814 83.4427 69.8742 83.3425 69.3033C83.1517 68.1793 82.8563 67.0191 82.8563 67.0191L60.6073 43.6053C60.6073 43.6053 58.2865 43.1385 57.1748 43.2378C56.7173 43.2767 56.1377 43.4897 55.6237 43.8524C54.9076 44.3553 53.9444 45.2001 53.9444 45.2001L46.0384 77.6205C46.0384 77.6205 46.2871 78.7518 47.4148 79.4388C47.8084 79.6815 48.2601 79.746 48.9197 79.8525C52.5874 80.4555 80.06 72.9684 80.06 72.9684Z" fill="#B30000"/>
<path d="M60.7923 65.7094C61.0745 67.3165 60.5033 69.2153 59.5208 69.9392L47.9575 78.474C47.0256 79.163 46.0757 78.4338 45.8428 76.8463L42.9188 56.516C42.6953 55.0315 43.2081 53.6815 44.0967 52.9696L55.1234 44.1846C56.0626 43.4377 57.033 44.0477 57.2966 45.5492L60.7923 65.7094Z" fill="url(#paint0_linear_506_15386)"/>
<path d="M82.9119 67.1667C83.2335 68.6753 82.426 69.8373 81.1047 69.7489L64.5036 68.6351C63.0697 68.538 61.6742 67.17 61.393 65.5932L57.8904 45.7916C57.6278 44.3205 58.548 43.2674 59.9388 43.4417L76.0415 45.4039C77.3224 45.5604 78.599 46.8229 78.8993 48.235L82.9119 67.1667Z" fill="url(#paint1_linear_506_15386)"/>
<path d="M73.5969 57.1133C73.9228 58.7585 72.92 59.9875 71.3545 59.8612C69.7706 59.7295 68.2232 58.2662 67.9055 56.5933C67.5911 54.9265 68.6247 53.7116 70.2003 53.871C71.7636 54.0216 73.2742 55.474 73.5969 57.1133Z" fill="url(#paint2_linear_506_15386)"/>
<g style="mix-blend-mode:plus-lighter">
<path d="M82.9119 67.1667C83.2335 68.6753 82.426 69.8373 81.1047 69.7489L64.5036 68.6351C63.0697 68.538 61.6742 67.17 61.393 65.5932L57.8904 45.7916C57.6278 44.3205 58.548 43.2674 59.9388 43.4417L76.0415 45.4039C77.3224 45.5604 78.599 46.8229 78.8993 48.235L82.9119 67.1667Z" fill="url(#paint3_linear_506_15386)"/>
</g>
<g style="mix-blend-mode:screen">
<path d="M67.8906 63.3928C62.4082 58.9471 60.1843 51.4204 57.9193 44.703C57.8293 45.0218 57.8106 45.3869 57.8871 45.7855L61.3897 65.5871C61.6741 67.1698 63.0697 68.5379 64.5004 68.6289L81.1014 69.7427C82.4227 69.8312 83.2242 68.6724 82.9086 67.1605C82.9086 67.1605 72.4812 67.1165 67.8906 63.3928Z" fill="url(#paint4_linear_506_15386)"/>
</g>
<path d="M71.0994 79.1394C69.7379 80.076 68.1252 80.5619 66.5129 80.4918L49.9623 79.9141C48.143 79.8324 48.0382 78.9243 49.5278 77.9107L59.8522 70.254C61.3152 69.2626 63.8954 69.1953 65.6012 69.3384L80.8431 70.3225C82.3631 70.4502 82.4964 71.2963 81.1529 72.2232L71.0994 79.1394Z" fill="url(#paint5_linear_506_15386)"/>
<path d="M52.8298 60.1885C53.0626 61.6757 52.5559 63.4084 51.6897 64.0619C50.8322 64.7029 49.9536 64.0199 49.7301 62.5355C49.507 61.0662 50.0115 59.358 50.8626 58.7051C51.7136 58.0521 52.5943 58.7105 52.8298 60.1885Z" fill="url(#paint6_linear_506_15386)"/>
<path d="M50.2541 68.9437C50.4819 70.4645 49.9671 72.2245 49.1031 72.8536C48.2452 73.4794 47.3772 72.7447 47.1587 71.2267C46.9466 69.7206 47.4563 67.994 48.3019 67.3594C49.1566 66.7276 50.0296 67.4289 50.2541 68.9437Z" fill="url(#paint7_linear_506_15386)"/>
<path d="M55.2823 51.3613C55.5228 52.8057 55.0188 54.5291 54.1558 55.1885C53.2928 55.8479 52.4126 55.2046 52.1813 53.763C51.9532 52.3272 52.4554 50.6435 53.3 49.9786C54.1538 49.3164 55.039 49.9261 55.2823 51.3613Z" fill="url(#paint8_linear_506_15386)"/>
<path d="M57.3565 63.6923C57.6151 65.2272 57.0978 67.0118 56.2013 67.6662C55.3107 68.3174 54.3885 67.5963 54.1483 66.0668C53.9053 64.5465 54.4175 62.7957 55.2989 62.1418C56.1738 61.4759 57.1044 62.1692 57.3565 63.6923Z" fill="url(#paint9_linear_506_15386)"/>
<path d="M48.4233 56.6895C48.6362 58.1257 48.1313 59.8187 47.3042 60.4587C46.4738 61.0928 45.6419 60.4388 45.4382 59.0054C45.2377 57.5779 45.7345 55.9125 46.5557 55.2756C47.3676 54.6361 48.2077 55.2625 48.4233 56.6895Z" fill="url(#paint10_linear_506_15386)"/>
<path d="M74.8645 72.1803C76.1568 72.3153 76.4876 72.97 75.6186 73.6326C74.7497 74.2953 73.0163 74.7152 71.7391 74.5798C70.456 74.4475 70.1013 73.8057 70.9518 73.1376C71.8056 72.4754 73.5629 72.0426 74.8645 72.1803Z" fill="url(#paint11_linear_506_15386)"/>
<path d="M58.07 76.1026C59.3683 76.2343 59.7649 76.8536 58.9681 77.4926C58.1832 78.1253 56.51 78.528 55.2333 78.4077C53.9474 78.2847 53.5297 77.6692 54.3053 77.0338C55.0777 76.3925 56.7716 75.9708 58.07 76.1026Z" fill="url(#paint12_linear_506_15386)"/>
<path d="M66.7448 74.0607C68.0371 74.1957 68.4037 74.8311 67.5678 75.4836C66.7379 76.1328 65.0377 76.5425 63.7578 76.4162C62.4746 76.284 62.0841 75.6615 62.9048 75.0095C63.7223 74.3516 65.4464 73.929 66.7448 74.0607Z" fill="url(#paint13_linear_506_15386)"/>
<path opacity="0.5" d="M71.0994 79.1394C69.7379 80.076 68.1252 80.5619 66.5129 80.4918L49.9623 79.9141C48.143 79.8324 48.0382 78.9243 49.5278 77.9107L59.8522 70.254C61.3152 69.2626 63.8954 69.1953 65.6012 69.3384L80.8431 70.3225C82.3631 70.4502 82.4964 71.2963 81.1529 72.2232L71.0994 79.1394Z" fill="url(#paint14_linear_506_15386)"/>
<g style="mix-blend-mode:plus-lighter">
<path d="M60.7923 65.7094C61.0745 67.3165 60.5033 69.2153 59.5208 69.9392L47.9575 78.474C47.0256 79.163 46.0757 78.4338 45.8428 76.8463L42.9188 56.516C42.6953 55.0315 43.2081 53.6815 44.0967 52.9696L55.1234 44.1846C56.0626 43.4377 57.033 44.0477 57.2966 45.5492L60.7923 65.7094Z" fill="url(#paint15_linear_506_15386)"/>
</g>
<path opacity="0.8" d="M50.6138 48.1349C50.6138 48.1349 45.5444 52.1639 44.2449 53.3294C42.9454 54.4949 43.2156 55.7226 43.4292 57.5598C43.6889 59.7965 44.91 66.5534 44.91 66.5534C44.91 66.5534 44.1705 58.4172 44.1175 57.2341C44.0284 55.2988 44.4152 54.4723 45.6806 53.0011C46.7027 51.808 50.6138 48.1349 50.6138 48.1349Z" fill="white"/>
<path opacity="0.8" d="M59.8182 62.4928C59.8182 62.4928 60.6166 65.9971 60.4647 67.044C60.2941 68.1704 60.17 68.7547 58.8986 69.9436C57.8426 70.9312 56.1998 72.0044 56.1998 72.0044C56.1998 72.0044 57.4845 70.7542 58.4501 69.5993C59.1845 68.7162 59.6259 67.32 59.6869 66.9474C59.9975 65.0662 59.8182 62.4928 59.8182 62.4928Z" fill="white"/>
<path d="M83.5239 102.905C83.5239 102.905 59.5196 99.3179 58.2679 99.3153C57.0162 99.3127 54.5674 98.9231 51.6427 100.851C48.718 102.779 36.5714 111.12 36.5714 111.12L40.6627 146.703C40.6627 146.703 40.982 148.522 41.9591 149.63C42.8413 150.619 45.4451 150.825 45.4451 150.825L88.6411 141.028C88.6411 141.028 90.286 140.031 91.132 139.412C92.2394 138.605 93.3669 136.807 92.857 134.25C91.9535 129.737 87.162 106.48 87.162 106.48L83.5239 102.905Z" fill="#B30000"/>
<path d="M62.8718 130.477C63.3717 132.529 65.0943 134.06 67.0264 134.251L90.1638 136.848C91.9984 137.029 93.152 135.58 92.7423 133.594L87.2669 106.902C86.8312 104.768 84.9098 102.812 82.9785 102.552L59.0059 99.2946C56.9646 99.0165 55.7421 100.596 56.2809 102.82L62.8718 130.477Z" fill="url(#paint16_linear_506_15386)"/>
<path d="M40.3046 145.368C40.745 147.839 42.2473 149.034 43.6606 148.007L60.1956 136.006C62.3272 134.452 62.5151 132.63 61.9592 130.345L55.2252 102.48C54.7563 100.542 53.137 99.8737 51.917 100.672L36.7785 110.645C35.4932 111.495 34.7391 113.855 35.1062 115.933L40.3046 145.368Z" fill="url(#paint17_linear_506_15386)"/>
<path d="M43.9939 148.514L58.4758 137.954C60.0001 136.791 62.9723 134.921 65.824 135.086C65.824 135.086 81.929 136.838 87.7438 137.515C90.9486 137.89 91.4655 139.046 90.1685 140.002L73.9421 150.918C72.2941 152.11 70.7304 152.515 67.7529 152.219L45.6261 150.819C43.5365 150.737 42.8243 149.463 43.9939 148.514Z" fill="url(#paint18_linear_506_15386)"/>
<path d="M48.3004 116.681C49.407 117.657 50.8531 116.806 51.5272 114.798C52.1926 112.802 51.8397 110.407 50.7488 109.446C49.6519 108.487 48.2201 109.308 47.5422 111.295C46.8525 113.288 47.1938 115.705 48.3004 116.681Z" fill="url(#paint19_linear_506_15386)"/>
<path d="M42.8053 139.471C43.9056 140.536 45.4515 139.669 46.2464 137.542C47.0357 135.432 46.7902 132.879 45.6964 131.826C44.6058 130.78 43.0774 131.621 42.2723 133.716C41.4678 135.826 41.7051 138.406 42.8053 139.471Z" fill="url(#paint20_linear_506_15386)"/>
<path d="M81.518 127.66C82.0092 129.725 83.7846 131.482 85.471 131.589C87.1423 131.697 88.0948 130.132 87.6078 128.103C87.1235 126.065 85.3783 124.308 83.7001 124.173C82.0036 124.032 81.0268 125.595 81.518 127.66Z" fill="url(#paint21_linear_506_15386)"/>
<path d="M67.2057 126.629C67.7204 128.766 69.6166 130.589 71.4157 130.705C73.2055 130.818 74.2326 129.205 73.728 127.101C73.2234 124.997 71.3634 123.17 69.5633 123.023C67.7541 122.875 66.6909 124.491 67.2057 126.629Z" fill="url(#paint22_linear_506_15386)"/>
<path d="M77.3974 110.446C77.8951 112.523 79.6941 114.353 81.3981 114.535C83.0897 114.709 84.062 113.196 83.5713 111.145C83.0806 109.095 81.3212 107.268 79.6162 107.055C77.8993 106.849 76.8997 108.369 77.3974 110.446Z" fill="url(#paint23_linear_506_15386)"/>
<path d="M62.8965 108.807C63.4177 110.956 65.3346 112.86 67.1573 113.048C68.9707 113.233 70.0174 111.672 69.5064 109.556C68.9921 107.434 67.118 105.537 65.2912 105.313C63.4491 105.089 62.372 106.651 62.8965 108.807Z" fill="url(#paint24_linear_506_15386)"/>
<path d="M60.285 141.838C62.0648 142.019 64.5195 141.448 65.7946 140.566C67.0665 139.678 66.6709 138.803 64.8938 138.614C63.1075 138.422 60.6073 138.994 59.3327 139.891C58.0641 140.785 58.4959 141.656 60.285 141.838Z" fill="url(#paint25_linear_506_15386)"/>
<path d="M68.9471 142.713C70.669 142.886 73.0845 142.329 74.3509 141.459C75.6233 140.586 75.2678 139.729 73.5394 139.544C71.8018 139.356 69.3593 139.92 68.0842 140.802C66.821 141.678 67.2127 142.531 68.9471 142.713Z" fill="url(#paint26_linear_506_15386)"/>
<path d="M77.3418 143.555C79.015 143.723 81.3851 143.168 82.646 142.316C83.9129 141.462 83.5942 140.615 81.9238 140.438C80.2441 140.257 77.8378 140.817 76.5682 141.681C75.3078 142.547 75.6595 143.384 77.3418 143.555Z" fill="url(#paint27_linear_506_15386)"/>
<path d="M51.5344 147.965C53.3166 148.121 55.75 147.555 56.9833 146.695C58.2225 145.832 57.7917 144.992 56.0123 144.827C54.2205 144.654 51.7447 145.228 50.5119 146.103C49.2759 146.971 49.7431 147.807 51.5344 147.965Z" fill="url(#paint28_linear_506_15386)"/>
<path d="M60.2085 148.733C61.9359 148.888 64.3271 148.328 65.5609 147.484C66.8007 146.636 66.4099 145.813 64.6852 145.65C62.9454 145.486 60.5239 146.047 59.2847 146.909C58.0481 147.763 58.4751 148.582 60.2085 148.733Z" fill="url(#paint29_linear_506_15386)"/>
<path d="M68.6315 149.482C70.3101 149.632 72.653 149.084 73.8841 148.249C75.1151 147.413 74.7644 146.607 73.0885 146.448C71.4034 146.286 69.0215 146.848 67.7845 147.687C66.5567 148.528 66.9376 149.333 68.6315 149.482Z" fill="url(#paint30_linear_506_15386)"/>
<g style="mix-blend-mode:plus-lighter">
<path d="M40.3046 145.368C40.745 147.839 42.2473 149.034 43.6606 148.007L60.1956 136.006C62.3272 134.452 62.5151 132.63 61.9592 130.345L55.2252 102.48C54.7563 100.542 53.137 99.8737 51.917 100.672L36.7785 110.645C35.4932 111.495 34.7391 113.855 35.1062 115.933L40.3046 145.368Z" fill="url(#paint31_linear_506_15386)"/>
</g>
<path opacity="0.5" d="M43.9939 148.514L58.4758 137.954C60.0001 136.791 62.9723 134.921 65.824 135.086C65.824 135.086 81.929 136.838 87.7438 137.515C90.9486 137.89 91.4655 139.046 90.1685 140.002L73.9421 150.918C72.2941 152.11 70.7304 152.515 67.7529 152.219L45.6261 150.819C43.5365 150.737 42.8243 149.463 43.9939 148.514Z" fill="url(#paint32_linear_506_15386)"/>
<path opacity="0.8" d="M69.9615 102.017C69.9615 102.017 80.2138 102.665 82.8261 103.228C85.4384 103.792 86.065 105.337 86.7573 108.088C87.4496 110.84 89.4073 120.972 89.4073 120.972C89.4073 120.972 85.9804 109.449 85.1184 107.855C84.2564 106.26 83.5077 104.789 80.6142 104.077C78.2934 103.51 69.9615 102.017 69.9615 102.017Z" fill="white"/>
<path opacity="0.8" d="M62.2339 125.187C62.2339 125.187 63.0488 129.493 63.4654 130.65C64.1259 132.5 64.5409 132.939 66.8916 133.49C68.872 133.955 71.2267 133.871 71.2267 133.871C71.2267 133.871 68.5748 133.406 66.5775 132.695C65.0288 132.143 64.3933 130.881 64.1653 130.402C63.0373 128.087 62.2339 125.187 62.2339 125.187Z" fill="white"/>
<defs>
<linearGradient id="paint0_linear_506_15386" x1="42.6466" y1="60.9341" x2="61.3353" y2="61.6921" gradientUnits="userSpaceOnUse">
<stop stop-color="#FF2522"/>
<stop offset="1" stop-color="#E00A09"/>
</linearGradient>
<linearGradient id="paint1_linear_506_15386" x1="59.5058" y1="58.8121" x2="80.9087" y2="54.4469" gradientUnits="userSpaceOnUse">
<stop stop-color="#BB0000"/>
<stop offset="1" stop-color="#800000"/>
</linearGradient>
<linearGradient id="paint2_linear_506_15386" x1="68.5087" y1="58.0747" x2="72.9979" y2="55.6481" gradientUnits="userSpaceOnUse">
<stop stop-color="#C5C3C2"/>
<stop offset="0.3134" stop-color="#B8B6B5"/>
<stop offset="0.8959" stop-color="#959392"/>
<stop offset="0.9947" stop-color="#8E8C8B"/>
</linearGradient>
<linearGradient id="paint3_linear_506_15386" x1="59.402" y1="57.3508" x2="81.3191" y2="55.8257" gradientUnits="userSpaceOnUse">
<stop stop-color="#AA1D1D"/>
<stop offset="0.0386" stop-color="#991A1A"/>
<stop offset="0.1411" stop-color="#701313"/>
<stop offset="0.2501" stop-color="#4E0D0D"/>
<stop offset="0.3651" stop-color="#310808"/>
<stop offset="0.4879" stop-color="#1B0505"/>
<stop offset="0.6224" stop-color="#0C0202"/>
<stop offset="0.7775" stop-color="#030000"/>
<stop offset="1"/>
</linearGradient>
<linearGradient id="paint4_linear_506_15386" x1="52.8291" y1="74.6452" x2="77.1783" y2="49.8713" gradientUnits="userSpaceOnUse">
<stop stop-color="#727272"/>
<stop offset="0.2297" stop-color="#515151"/>
<stop offset="0.5743" stop-color="#252525"/>
<stop offset="0.8427" stop-color="#0A0A0A"/>
<stop offset="1"/>
</linearGradient>
<linearGradient id="paint5_linear_506_15386" x1="50.5284" y1="82.86" x2="79.445" y2="66.3294" gradientUnits="userSpaceOnUse">
<stop stop-color="#8F0000"/>
<stop offset="1" stop-color="#6F0000"/>
</linearGradient>
<linearGradient id="paint6_linear_506_15386" x1="49.4134" y1="62.388" x2="53.1524" y2="60.367" gradientUnits="userSpaceOnUse">
<stop stop-color="#F3F5F4"/>
<stop offset="0.2848" stop-color="#E5E5E4"/>
<stop offset="0.838" stop-color="#BFBDBB"/>
<stop offset="0.9947" stop-color="#B3B0AE"/>
</linearGradient>
<linearGradient id="paint7_linear_506_15386" x1="46.8376" y1="71.1138" x2="50.5841" y2="69.0887" gradientUnits="userSpaceOnUse">
<stop stop-color="#F3F5F4"/>
<stop offset="0.2848" stop-color="#E5E5E4"/>
<stop offset="0.838" stop-color="#BFBDBB"/>
<stop offset="0.9947" stop-color="#B3B0AE"/>
</linearGradient>
<linearGradient id="paint8_linear_506_15386" x1="51.8702" y1="53.5916" x2="55.6002" y2="51.5754" gradientUnits="userSpaceOnUse">
<stop stop-color="#F3F5F4"/>
<stop offset="0.2848" stop-color="#E5E5E4"/>
<stop offset="0.838" stop-color="#BFBDBB"/>
<stop offset="0.9947" stop-color="#B3B0AE"/>
</linearGradient>
<linearGradient id="paint9_linear_506_15386" x1="53.8378" y1="65.9322" x2="57.6711" y2="63.8602" gradientUnits="userSpaceOnUse">
<stop stop-color="#F3F5F4"/>
<stop offset="0.2848" stop-color="#E5E5E4"/>
<stop offset="0.838" stop-color="#BFBDBB"/>
<stop offset="0.9947" stop-color="#B3B0AE"/>
</linearGradient>
<linearGradient id="paint10_linear_506_15386" x1="45.1088" y1="58.8485" x2="48.7544" y2="56.8779" gradientUnits="userSpaceOnUse">
<stop stop-color="#F3F5F4"/>
<stop offset="0.2848" stop-color="#E5E5E4"/>
<stop offset="0.838" stop-color="#BFBDBB"/>
<stop offset="0.9947" stop-color="#B3B0AE"/>
</linearGradient>
<linearGradient id="paint11_linear_506_15386" x1="72.2512" y1="74.6262" x2="74.5746" y2="71.8384" gradientUnits="userSpaceOnUse">
<stop stop-color="#A6A4A3"/>
<stop offset="0.9947" stop-color="#7F7D7C"/>
</linearGradient>
<linearGradient id="paint12_linear_506_15386" x1="54.1903" y1="78.1503" x2="59.0068" y2="76.3935" gradientUnits="userSpaceOnUse">
<stop stop-color="#A6A4A3"/>
<stop offset="0.9947" stop-color="#7F7D7C"/>
</linearGradient>
<linearGradient id="paint13_linear_506_15386" x1="64.1958" y1="76.5113" x2="66.6561" y2="73.5283" gradientUnits="userSpaceOnUse">
<stop stop-color="#A6A4A3"/>
<stop offset="0.9947" stop-color="#7F7D7C"/>
</linearGradient>
<linearGradient id="paint14_linear_506_15386" x1="59.0032" y1="68.7889" x2="71.5094" y2="81.3828" gradientUnits="userSpaceOnUse">
<stop stop-color="white"/>
<stop offset="0.1876" stop-color="#DBC0C0"/>
<stop offset="0.4076" stop-color="#B57C7C"/>
<stop offset="0.6069" stop-color="#974747"/>
<stop offset="0.7783" stop-color="#812020"/>
<stop offset="0.915" stop-color="#740909"/>
<stop offset="1" stop-color="#6F0000"/>
</linearGradient>
<linearGradient id="paint15_linear_506_15386" x1="38.1238" y1="64.6963" x2="65.1408" y2="57.8723" gradientUnits="userSpaceOnUse">
<stop stop-color="#727272"/>
<stop offset="0.2297" stop-color="#515151"/>
<stop offset="0.5743" stop-color="#252525"/>
<stop offset="0.8427" stop-color="#0A0A0A"/>
<stop offset="1"/>
</linearGradient>
<linearGradient id="paint16_linear_506_15386" x1="85.9362" y1="103.31" x2="62.5203" y2="132.726" gradientUnits="userSpaceOnUse">
<stop stop-color="#FF2522"/>
<stop offset="1" stop-color="#E00A09"/>
</linearGradient>
<linearGradient id="paint17_linear_506_15386" x1="60.548" y1="131.597" x2="31.3129" y2="114.915" gradientUnits="userSpaceOnUse">
<stop stop-color="#BB0000"/>
<stop offset="1" stop-color="#800000"/>
</linearGradient>
<linearGradient id="paint18_linear_506_15386" x1="75.2781" y1="134.588" x2="59.3375" y2="153.428" gradientUnits="userSpaceOnUse">
<stop stop-color="#8F0000"/>
<stop offset="1" stop-color="#6F0000"/>
</linearGradient>
<linearGradient id="paint19_linear_506_15386" x1="51.7887" y1="115.967" x2="46.9877" y2="109.816" gradientUnits="userSpaceOnUse">
<stop stop-color="#C5C3C2"/>
<stop offset="0.3134" stop-color="#B8B6B5"/>
<stop offset="0.8959" stop-color="#959392"/>
<stop offset="0.9947" stop-color="#8E8C8B"/>
</linearGradient>
<linearGradient id="paint20_linear_506_15386" x1="46.8032" y1="137.254" x2="41.8748" y2="134.162" gradientUnits="userSpaceOnUse">
<stop stop-color="#C5C3C2"/>
<stop offset="0.3134" stop-color="#B8B6B5"/>
<stop offset="0.8959" stop-color="#959392"/>
<stop offset="0.9947" stop-color="#8E8C8B"/>
</linearGradient>
<linearGradient id="paint21_linear_506_15386" x1="87.8791" y1="129.683" x2="81.2818" y2="126.093" gradientUnits="userSpaceOnUse">
<stop stop-color="#F3F5F4"/>
<stop offset="0.2093" stop-color="#EDEFEE"/>
<stop offset="0.5003" stop-color="#DDDDDC"/>
<stop offset="0.8378" stop-color="#C2C0BE"/>
<stop offset="0.9947" stop-color="#B3B0AE"/>
</linearGradient>
<linearGradient id="paint22_linear_506_15386" x1="73.3519" y1="129.932" x2="67.6437" y2="123.855" gradientUnits="userSpaceOnUse">
<stop stop-color="#F3F5F4"/>
<stop offset="0.2848" stop-color="#E5E5E4"/>
<stop offset="0.838" stop-color="#BFBDBB"/>
<stop offset="0.9947" stop-color="#B3B0AE"/>
</linearGradient>
<linearGradient id="paint23_linear_506_15386" x1="83.8703" y1="113.69" x2="77.2518" y2="108.03" gradientUnits="userSpaceOnUse">
<stop stop-color="#F3F5F4"/>
<stop offset="0.2848" stop-color="#E5E5E4"/>
<stop offset="0.838" stop-color="#BFBDBB"/>
<stop offset="0.9947" stop-color="#B3B0AE"/>
</linearGradient>
<linearGradient id="paint24_linear_506_15386" x1="69.4713" y1="112.037" x2="62.7254" y2="106.142" gradientUnits="userSpaceOnUse">
<stop stop-color="#F3F5F4"/>
<stop offset="0.2848" stop-color="#E5E5E4"/>
<stop offset="0.838" stop-color="#BFBDBB"/>
<stop offset="0.9947" stop-color="#B3B0AE"/>
</linearGradient>
<linearGradient id="paint25_linear_506_15386" x1="63.4005" y1="141.854" x2="61.6119" y2="138.335" gradientUnits="userSpaceOnUse">
<stop stop-color="#A6A4A3"/>
<stop offset="0.9947" stop-color="#7F7D7C"/>
</linearGradient>
<linearGradient id="paint26_linear_506_15386" x1="72.0557" y1="142.818" x2="70.4295" y2="139.494" gradientUnits="userSpaceOnUse">
<stop stop-color="#A6A4A3"/>
<stop offset="0.9947" stop-color="#7F7D7C"/>
</linearGradient>
<linearGradient id="paint27_linear_506_15386" x1="80.2437" y1="143.443" x2="78.8561" y2="140.247" gradientUnits="userSpaceOnUse">
<stop stop-color="#A6A4A3"/>
<stop offset="0.9947" stop-color="#7F7D7C"/>
</linearGradient>
<linearGradient id="paint28_linear_506_15386" x1="54.3859" y1="147.751" x2="52.6337" y2="143.984" gradientUnits="userSpaceOnUse">
<stop stop-color="#A6A4A3"/>
<stop offset="0.9947" stop-color="#7F7D7C"/>
</linearGradient>
<linearGradient id="paint29_linear_506_15386" x1="63.3563" y1="148.854" x2="61.4115" y2="145.362" gradientUnits="userSpaceOnUse">
<stop stop-color="#A6A4A3"/>
<stop offset="0.9947" stop-color="#7F7D7C"/>
</linearGradient>
<linearGradient id="paint30_linear_506_15386" x1="71.6174" y1="149.444" x2="69.8324" y2="146.036" gradientUnits="userSpaceOnUse">
<stop stop-color="#A6A4A3"/>
<stop offset="0.9947" stop-color="#7F7D7C"/>
</linearGradient>
<linearGradient id="paint31_linear_506_15386" x1="63.4087" y1="113.144" x2="31.6277" y2="135.32" gradientUnits="userSpaceOnUse">
<stop stop-color="#AA1D1D"/>
<stop offset="0.0386" stop-color="#991A1A"/>
<stop offset="0.1411" stop-color="#701313"/>
<stop offset="0.2501" stop-color="#4E0D0D"/>
<stop offset="0.3651" stop-color="#310808"/>
<stop offset="0.4879" stop-color="#1B0505"/>
<stop offset="0.6224" stop-color="#0C0202"/>
<stop offset="0.7775" stop-color="#030000"/>
<stop offset="1"/>
</linearGradient>
<linearGradient id="paint32_linear_506_15386" x1="70.8672" y1="134.751" x2="63.2983" y2="153.949" gradientUnits="userSpaceOnUse">
<stop stop-color="white"/>
<stop offset="0.1251" stop-color="#EADADA"/>
<stop offset="0.4496" stop-color="#B67E7E"/>
<stop offset="0.7134" stop-color="#903A3A"/>
<stop offset="0.9031" stop-color="#781010"/>
<stop offset="1" stop-color="#6F0000"/>
</linearGradient>
</defs>
</svg>
