<svg width="64" height="61" viewBox="0 0 64 61" fill="none" xmlns="http://www.w3.org/2000/svg">
<path d="M38.7033 47.8744C58.3471 46.563 78.5583 35.9506 83.618 16.2976L85.8502 25.1243C88.9474 37.8388 72.8845 52.6737 49.9668 58.2543C27.0491 63.8349 5.9638 58.0496 2.86656 45.3352L0.578491 35.9226C10.698 44.1633 25.6168 49.0929 38.7033 47.8744Z" fill="url(#paint0_linear_57_1014)"/>
<path d="M1.86037 37.9038L4.00879 48.4324C3.54374 47.5116 3.07862 46.3305 2.8368 45.3166L0.372176 35.1786C0.623303 35.3925 1.60924 37.7084 1.86037 37.9038Z" fill="url(#paint1_linear_57_1014)"/>
<path d="M25.6807 59.9472C21.0767 59.3798 16.9282 58.2637 13.4589 56.6546L10.5943 44.8796C14.4264 46.4142 18.5281 47.3443 22.7415 47.8372L25.6807 59.9472Z" fill="url(#paint2_linear_57_1014)"/>
<path d="M54.681 44.6934L57.4434 56.0222C55.0437 56.8686 52.5512 57.6219 49.9655 58.2544C47.3705 58.8868 44.8035 59.3706 42.283 59.7147L39.3809 47.8185C44.543 47.4186 49.7328 46.3769 54.681 44.6934Z" fill="url(#paint3_linear_57_1014)"/>
<path d="M41.4179 22.5851L33.1958 22.092L32.5075 19.5809C34.9072 18.7252 37.4094 17.9812 39.995 17.3487C42.5807 16.7162 45.1476 16.2325 47.6682 15.8883L48.3193 18.2695L41.4179 22.5851Z" fill="#0000FF"/>
<path d="M19.8124 33.3556L11.7205 36.7413L8.12109 35.8111C10.4184 32.779 13.5435 29.8678 17.329 27.2356L20.7891 28.1377L19.8124 33.3556Z" fill="#0000FF"/>
<path d="M65.5084 22.3433L61.9649 18.2602L64.662 15.7025C69.238 16.2977 73.3492 17.4509 76.7812 19.0879L74.2792 21.4597L65.5084 22.3433Z" fill="#0000FF"/>
<path d="M0.455696 35.1229C3.53433 47.7722 24.5732 53.5202 47.4444 47.9489C70.3156 42.3776 86.3597 27.6077 83.2718 14.9583C80.1932 2.3089 59.1543 -3.4391 36.2831 2.1322C13.4119 7.70351 -2.62294 22.4735 0.455696 35.1229Z" fill="url(#paint4_linear_57_1014)"/>
<path d="M10.5204 32.7046C12.8642 42.3125 28.7968 46.6842 46.1153 42.4708C63.4338 38.2575 75.5714 27.0403 73.2369 17.4323C70.893 7.82439 54.9604 3.45303 37.642 7.66639C20.3235 11.8797 8.17651 23.0966 10.5204 32.7046Z" fill="#800000"/>
<path d="M45.9294 41.7172C62.4759 37.6899 74.1112 26.9378 71.879 17.767C69.6467 8.58691 54.3654 4.39217 37.8282 8.42881C21.2817 12.4561 9.64601 23.2082 11.8783 32.379C14.1105 41.5498 29.3829 45.7446 45.9294 41.7172ZM37.9863 9.10776C53.8445 5.24784 68.4843 9.26593 70.6235 18.0554C72.7628 26.8541 61.6107 37.1502 45.7525 41.0102C29.8943 44.8701 15.2545 40.852 13.1152 32.0625C10.976 23.2731 22.1373 12.9677 37.9863 9.10776Z" fill="url(#paint5_linear_57_1014)"/>
<path d="M14.6952 31.6814C16.7228 40.0151 30.5347 43.8006 45.5465 40.1453C60.5583 36.49 71.0872 26.7704 69.0596 18.446C67.032 10.1123 53.2198 6.32676 38.208 9.98206C23.1868 13.6374 12.6675 23.357 14.6952 31.6814Z" fill="#B00000"/>
<path d="M18.2649 30.9C20.0321 38.1641 32.0302 41.4754 45.061 38.3038C58.0917 35.1321 67.2252 26.6681 65.458 19.404C63.6908 12.1399 51.6927 8.82883 38.662 12.0005C25.6219 15.1721 16.4977 23.6359 18.2649 30.9Z" fill="#800000"/>
<path d="M18.6402 30.7235C20.3702 37.848 32.1824 41.0846 45.0178 37.9595C57.8532 34.8344 66.8473 26.5286 65.108 19.404C63.3781 12.2795 51.5659 9.04285 38.7398 12.168C25.9137 15.2931 16.9102 23.6082 18.6402 30.7235Z" fill="url(#paint6_linear_57_1014)"/>
<path d="M37.6992 7.28522L29.4771 6.79218L28.7888 4.27165C31.1884 3.42526 33.6903 2.67168 36.276 2.03921C38.8617 1.40674 41.4289 0.923254 43.9494 0.579117L44.6006 2.96L37.6992 7.28522Z" fill="url(#paint7_linear_57_1014)"/>
<path d="M46.1416 43.1962L54.3638 43.689L54.959 45.8561C52.5686 46.7025 50.0668 47.4561 47.4811 48.0885C44.8861 48.721 42.3189 49.2045 39.7983 49.5486L39.2403 47.5211L46.1416 43.1962Z" fill="url(#paint8_linear_57_1014)"/>
<path d="M9.59863 33.0301L6.38041 38.3133L2.2042 39.3735C1.36711 38.0713 0.744094 36.6763 0.381355 35.1788C0.0465183 33.8023 -0.0652599 32.407 0.0370512 30.9932L4.09234 29.9703L9.59863 33.0301Z" fill="url(#paint9_linear_57_1014)"/>
<path d="M16.0835 18.0556L7.99171 21.441L4.39228 20.5111C6.68963 17.479 9.81468 14.5678 13.6002 11.9356L17.0693 12.8377L16.0835 18.0556Z" fill="url(#paint10_linear_57_1014)"/>
<path d="M22.0544 43.4474L25.5889 47.5305L23.2077 49.7905C18.613 49.2231 14.4648 48.107 10.9862 46.4979L13.2649 44.3307L22.0544 43.4474Z" fill="url(#paint11_linear_57_1014)"/>
<path d="M61.7793 7.04326L58.2358 2.95988L60.9329 0.392792C63.3325 0.616016 65.5742 1.11832 67.6855 1.72289C69.6108 2.27165 71.4804 2.92279 73.0615 3.77849L70.5594 6.15029L61.7793 7.04326Z" fill="url(#paint12_linear_57_1014)"/>
<path d="M48.0784 38.806C49.8642 38.2573 51.6129 37.6155 53.2592 36.8807L52.673 36.2761C51.1104 36.9644 49.455 37.5784 47.7622 38.0993L48.0784 38.806ZM42.628 40.1361L42.5909 39.3641C40.8516 39.6803 39.1031 39.8945 37.3917 39.9968L37.1498 40.8057C38.9449 40.6941 40.7957 40.471 42.628 40.1361ZM57.9468 34.4439C59.3978 33.5603 60.7372 32.6023 61.9278 31.5978L60.8951 31.2629C59.7697 32.2116 58.4954 33.1232 57.1189 33.9696L57.9468 34.4439ZM31.8667 40.7779L32.3875 39.9687C30.7784 39.8478 29.2346 39.6246 27.8023 39.2991L27.0396 40.0711C28.5464 40.4246 30.1739 40.657 31.8667 40.7779ZM65.0341 28.4633C65.9084 27.3844 66.6154 26.2869 67.1363 25.1801L65.834 25.1707C65.3411 26.2124 64.6715 27.2637 63.8437 28.2868L65.0341 28.4633ZM22.8356 38.7132L23.812 38.0062C22.6122 37.476 21.5334 36.8528 20.6219 36.1552L19.4686 36.7598C20.4359 37.4946 21.5706 38.1552 22.8356 38.7132ZM68.1221 21.8969C68.2616 20.818 68.2058 19.7668 67.964 18.753L66.6154 19.0786C66.848 20.0459 66.8944 21.0412 66.7642 22.0643L68.1221 21.8969ZM17.0874 34.2858L18.371 33.8115C17.785 32.9651 17.3759 32.0536 17.1434 31.0863L17.134 31.0304L15.7852 31.356L15.8039 31.4119C16.0364 32.435 16.4736 33.4022 17.0874 34.2858ZM65.4063 16.3443L66.6898 15.8697C66.0759 14.9768 65.276 14.1398 64.318 13.3957L63.1648 14.0003C64.0669 14.7072 64.8203 15.4979 65.4063 16.3443ZM16.9853 28.0449C17.1248 27.0218 17.4409 25.9706 17.9339 24.9289L16.6316 24.9198C16.1107 26.0266 15.7666 27.1242 15.6271 28.2124L16.9853 28.0449ZM59.965 12.14L60.951 11.4332C59.6861 10.8752 58.2815 10.4194 56.7655 10.066L55.9937 10.838C57.4354 11.1821 58.7651 11.6098 59.965 12.14ZM19.9336 21.8225C20.7706 20.7994 21.7658 19.8042 22.8912 18.8555L21.8589 18.5205C20.6683 19.525 19.6174 20.5761 18.7431 21.655L19.9336 21.8225ZM51.4176 10.1684L51.9384 9.35918C50.2456 9.22897 48.469 9.22906 46.6646 9.33137L46.4137 10.1403C48.1251 10.038 49.8085 10.0475 51.4176 10.1684ZM26.6768 16.1487C28.0627 15.3116 29.5508 14.5305 31.1227 13.8422L30.5368 13.2283C28.8813 13.9537 27.2998 14.7818 25.8489 15.6654L26.6768 16.1487ZM41.2142 10.773L41.177 9.99159C40.2376 10.159 39.2888 10.3636 38.3587 10.5868C37.4751 10.8007 36.5823 11.0425 35.7267 11.3029L36.0429 12.01C36.8613 11.7589 37.6985 11.5357 38.5356 11.331H38.5449C39.4192 11.1264 40.3213 10.9311 41.2142 10.773Z" fill="url(#paint13_linear_57_1014)"/>
<g style="mix-blend-mode:plus-lighter">
<path d="M36.2931 2.13211C59.1643 -3.43919 80.2032 2.29951 83.2818 14.9582C83.8771 17.4137 83.7469 19.9437 83.0028 22.4735L2.39103 23.729C7.39497 14.5954 20.128 6.06644 36.2931 2.13211Z" fill="url(#paint14_linear_57_1014)"/>
</g>
<defs>
<linearGradient id="paint0_linear_57_1014" x1="89.1147" y1="31.4001" x2="3.64606" y2="52.4065" gradientUnits="userSpaceOnUse">
<stop stop-color="#B00000"/>
<stop offset="1" stop-color="#800000"/>
</linearGradient>
<linearGradient id="paint1_linear_57_1014" x1="86.5533" y1="21.0737" x2="1.10543" y2="42.0747" gradientUnits="userSpaceOnUse">
<stop stop-color="#ADACAB"/>
<stop offset="0.9947" stop-color="#94908E"/>
</linearGradient>
<linearGradient id="paint2_linear_57_1014" x1="89.9415" y1="34.7635" x2="4.47239" y2="55.7701" gradientUnits="userSpaceOnUse">
<stop stop-color="#ADACAB"/>
<stop offset="0.9947" stop-color="#94908E"/>
</linearGradient>
<linearGradient id="paint3_linear_57_1014" x1="91.5971" y1="41.5069" x2="6.13047" y2="62.5113" gradientUnits="userSpaceOnUse">
<stop stop-color="#ADACAB"/>
<stop offset="0.9947" stop-color="#94908E"/>
</linearGradient>
<linearGradient id="paint4_linear_57_1014" x1="58.8291" y1="0.948945" x2="23.1137" y2="51.6734" gradientUnits="userSpaceOnUse">
<stop stop-color="#FF1916"/>
<stop offset="1" stop-color="#D10000"/>
</linearGradient>
<linearGradient id="paint5_linear_57_1014" x1="55.6673" y1="1.49587" x2="29.4805" y2="46.2451" gradientUnits="userSpaceOnUse">
<stop stop-color="#F3F5F4"/>
<stop offset="0.7063" stop-color="#E5E5E4"/>
<stop offset="0.9947" stop-color="#D4D2D1"/>
</linearGradient>
<linearGradient id="paint6_linear_57_1014" x1="54.7844" y1="10.8502" x2="28.4355" y2="39.865" gradientUnits="userSpaceOnUse">
<stop stop-color="#FF3633"/>
<stop offset="1" stop-color="#F11B1A"/>
</linearGradient>
<linearGradient id="paint7_linear_57_1014" x1="45.3329" y1="-8.65836" x2="9.55014" y2="42.1614" gradientUnits="userSpaceOnUse">
<stop stop-color="#F3F5F4"/>
<stop offset="0.7063" stop-color="#E5E5E4"/>
<stop offset="0.9947" stop-color="#D4D2D1"/>
</linearGradient>
<linearGradient id="paint8_linear_57_1014" x1="72.5673" y1="10.5216" x2="36.7866" y2="61.3385" gradientUnits="userSpaceOnUse">
<stop stop-color="#F3F5F4"/>
<stop offset="0.7063" stop-color="#E5E5E4"/>
<stop offset="0.9947" stop-color="#D4D2D1"/>
</linearGradient>
<linearGradient id="paint9_linear_57_1014" x1="37.5551" y1="-14.1294" x2="1.77498" y2="36.6878" gradientUnits="userSpaceOnUse">
<stop stop-color="#F3F5F4"/>
<stop offset="0.7063" stop-color="#E5E5E4"/>
<stop offset="0.9947" stop-color="#D4D2D1"/>
</linearGradient>
<linearGradient id="paint10_linear_57_1014" x1="35.0196" y1="-15.9181" x2="-0.761604" y2="34.9001" gradientUnits="userSpaceOnUse">
<stop stop-color="#F3F5F4"/>
<stop offset="0.7063" stop-color="#E5E5E4"/>
<stop offset="0.9947" stop-color="#D4D2D1"/>
</linearGradient>
<linearGradient id="paint11_linear_57_1014" x1="53.4654" y1="-2.93399" x2="17.6825" y2="47.8873" gradientUnits="userSpaceOnUse">
<stop stop-color="#F3F5F4"/>
<stop offset="0.7063" stop-color="#E5E5E4"/>
<stop offset="0.9947" stop-color="#D4D2D1"/>
</linearGradient>
<linearGradient id="paint12_linear_57_1014" x1="64.5792" y1="4.89375" x2="28.7942" y2="55.7138" gradientUnits="userSpaceOnUse">
<stop stop-color="#F3F5F4"/>
<stop offset="0.7063" stop-color="#E5E5E4"/>
<stop offset="0.9947" stop-color="#D4D2D1"/>
</linearGradient>
<linearGradient id="paint13_linear_57_1014" x1="55.6916" y1="1.51062" x2="29.5049" y2="46.2588" gradientUnits="userSpaceOnUse">
<stop stop-color="#F3F5F4"/>
<stop offset="0.7063" stop-color="#E5E5E4"/>
<stop offset="0.9947" stop-color="#D4D2D1"/>
</linearGradient>
<linearGradient id="paint14_linear_57_1014" x1="44.9388" y1="-0.902829" x2="41.1516" y2="42.7702" gradientUnits="userSpaceOnUse">
<stop stop-color="#727272"/>
<stop offset="0.2297" stop-color="#515151"/>
<stop offset="0.5743" stop-color="#252525"/>
<stop offset="0.8427" stop-color="#0A0A0A"/>
<stop offset="1"/>
</linearGradient>
</defs>
</svg>
