<svg width="59" height="104" viewBox="0 0 59 104" fill="none" xmlns="http://www.w3.org/2000/svg">
<path d="M-31.4941 77.7482C-31.4941 77.7482 -31.0023 83.5812 -30.2486 86.1699C-29.8881 87.3987 -28.8072 88.4801 -27.48 88.9225C-24.8749 89.8072 -22.0729 90.5115 -22.0729 90.5115L53.1637 70.1461C53.1637 70.1461 56.8178 65.755 57.8828 63.2809C58.3251 62.2651 58.538 60.7902 58.3578 59.2829C58.112 57.1857 57.4238 54.1712 57.4238 54.1712L-2.33001 0.184616C-2.33001 0.184616 -5.01706 -0.585532 -7.76962 1.02013C-8.7363 1.5772 -9.39162 2.46221 -10.3747 3.74019C-15.8634 10.8346 -31.4941 77.7482 -31.4941 77.7482Z" fill="#B30000"/>
<path d="M6.02574 45.174C2.29011 43.9288 -1.08531 40.5373 -1.49492 37.6208L-6.34452 3.27912C-6.73775 0.51017 -4.09972 -0.669563 -0.462399 0.657569L46.0526 17.7794C49.4605 19.0083 51.7382 21.6462 52.2297 24.3496L58.2263 57.8393C58.7343 60.6901 56.3256 62.0501 52.8357 60.8868L6.02574 45.174Z" fill="url(#paint0_linear_59_2541)"/>
<path d="M-22.4497 90.4598C-26.0215 89.4112 -27.5618 86.3635 -25.8578 83.6601L-4.44336 49.6954C-2.59192 46.7626 1.91376 45.3699 5.58386 46.5823L51.6403 61.8692C55.0647 62.9997 56.2445 66.1617 54.2784 68.9143L31.6349 100.847C29.8326 103.387 25.6876 104.649 22.3452 103.666L-22.4497 90.4598Z" fill="url(#paint1_linear_59_2541)"/>
<path d="M9.58131 82.2218C5.7146 81.0257 4.25631 77.4867 6.32074 74.3081C8.41793 71.0968 13.3001 69.4908 17.216 70.736C21.1154 71.9812 22.5084 75.5695 20.362 78.7317C18.2485 81.8775 13.4316 83.4178 9.58131 82.2218Z" fill="url(#paint2_linear_59_2541)"/>
<g style="mix-blend-mode:plus-lighter">
<path d="M-22.4497 90.4598C-26.0215 89.4112 -27.5618 86.3635 -25.8578 83.6601L-4.44336 49.6954C-2.59192 46.7626 1.91376 45.3699 5.58386 46.5823L51.6403 61.8692C55.0647 62.9997 56.2445 66.1617 54.2784 68.9143L31.6349 100.847C29.8326 103.387 25.6876 104.649 22.3452 103.666L-22.4497 90.4598Z" fill="url(#paint3_linear_59_2541)"/>
</g>
<g style="mix-blend-mode:screen">
<path d="M2.79889 62.9012C18.5279 56.3638 37.0585 60.2797 53.918 63.1797C53.3445 62.6226 52.5908 62.1641 51.6569 61.8692L5.60045 46.5823C1.91397 45.3699 -2.59172 46.7626 -4.42676 49.6954L-25.8412 83.6601C-27.5452 86.3635 -26.0049 89.3948 -22.4331 90.4598C-22.4331 90.4598 -10.3741 68.3735 2.79889 62.9012Z" fill="url(#paint4_linear_59_2541)"/>
</g>
<path d="M26.8839 34.6047C23.4596 33.3923 20.3625 30.3283 19.9693 27.7396C19.5925 25.1836 22.0505 24.1022 25.4584 25.331C28.8336 26.5435 31.8809 29.5747 32.2906 32.1307C32.7002 34.6866 30.2919 35.8008 26.8839 34.6047Z" fill="url(#paint5_linear_59_2541)"/>
<path d="M11.2523 19.0905C7.76247 17.8289 4.61676 14.7163 4.27269 12.1603C3.92862 9.62077 6.48433 8.62131 9.95781 9.89929C13.3985 11.1773 16.4791 14.2407 16.856 16.7639C17.2164 19.3035 14.7258 20.3521 11.2523 19.0905Z" fill="url(#paint6_linear_59_2541)"/>
<path d="M42.8086 49.9403C39.4662 48.7934 36.3861 45.7458 35.9765 43.1571C35.5669 40.5684 37.9426 39.4378 41.2686 40.6011C44.5782 41.7644 47.5764 44.7627 48.0187 47.3187C48.4447 49.891 46.1347 51.0708 42.8086 49.9403Z" fill="url(#paint7_linear_59_2541)"/>
<path d="M14.2503 40.1942C10.6949 38.9818 7.50013 35.8358 7.13967 33.1816C6.77921 30.5437 9.36816 29.4133 12.8908 30.6585C16.397 31.8874 19.5261 34.9837 19.9029 37.6052C20.3125 40.2267 17.773 41.4067 14.2503 40.1942Z" fill="url(#paint8_linear_59_2541)"/>
<path d="M39.368 29.2661C36.0747 28.0701 33.0599 25.0554 32.6503 22.565C32.2571 20.0745 34.6001 19.059 37.8769 20.2714C41.1374 21.4839 44.103 24.4495 44.5126 26.9236C44.9386 29.3812 42.6448 30.4458 39.368 29.2661Z" fill="url(#paint9_linear_59_2541)"/>
<g style="mix-blend-mode:plus-lighter">
<path d="M6.02574 45.174C2.29011 43.9288 -1.08531 40.5373 -1.49492 37.6208L-6.34452 3.27912C-6.73775 0.51017 -4.09972 -0.669563 -0.462399 0.657569L46.0526 17.7794C49.4605 19.0083 51.7382 21.6462 52.2297 24.3496L58.2263 57.8393C58.7343 60.6901 56.3256 62.0501 52.8357 60.8868L6.02574 45.174Z" fill="url(#paint10_linear_59_2541)"/>
</g>
<path opacity="0.8" d="M55.0156 43.7325C55.0156 43.7325 52.2796 28.3472 51.2965 24.2511C50.3135 20.155 47.3971 19.3198 43.2519 17.6649C38.2055 15.6497 22.4599 10.4883 22.4599 10.4883C22.4599 10.4883 40.581 18.2548 43.1534 19.5C47.3642 21.5316 48.6748 23.301 50.346 27.6756C51.7059 31.2147 55.0156 43.7325 55.0156 43.7325Z" fill="white"/>
<path opacity="0.8" d="M13.9727 46.7977C13.9727 46.7977 5.61698 44.4714 3.56894 42.9477C1.37343 41.2928 0.275326 40.3588 -0.789656 36.2955C-1.67441 32.9203 -2.06768 28.2014 -2.06768 28.2014C-2.06768 28.2014 -0.887646 32.3633 0.45587 35.7385C1.48808 38.3109 3.94555 40.8501 4.66646 41.4071C8.30378 44.2252 13.9727 46.7977 13.9727 46.7977Z" fill="white"/>
<defs>
<linearGradient id="paint0_linear_59_2541" x1="36.9856" y1="12.1316" x2="13.931" y2="50.9365" gradientUnits="userSpaceOnUse">
<stop stop-color="#FF2522"/>
<stop offset="1" stop-color="#E00A09"/>
</linearGradient>
<linearGradient id="paint1_linear_59_2541" x1="22.1452" y1="50.3573" x2="6.85207" y2="100.803" gradientUnits="userSpaceOnUse">
<stop stop-color="#BB0000"/>
<stop offset="1" stop-color="#800000"/>
</linearGradient>
<linearGradient id="paint2_linear_59_2541" x1="13.379" y1="70.3166" x2="13.379" y2="82.6313" gradientUnits="userSpaceOnUse">
<stop stop-color="#C5C3C2"/>
<stop offset="0.3134" stop-color="#B8B6B5"/>
<stop offset="0.8959" stop-color="#959392"/>
<stop offset="0.9947" stop-color="#8E8C8B"/>
</linearGradient>
<linearGradient id="paint3_linear_59_2541" x1="25.3664" y1="51.8139" x2="3.45395" y2="100.092" gradientUnits="userSpaceOnUse">
<stop stop-color="#AA1D1D"/>
<stop offset="0.0386" stop-color="#991A1A"/>
<stop offset="0.1411" stop-color="#701313"/>
<stop offset="0.2501" stop-color="#4E0D0D"/>
<stop offset="0.3651" stop-color="#310808"/>
<stop offset="0.4879" stop-color="#1B0505"/>
<stop offset="0.6224" stop-color="#0C0202"/>
<stop offset="0.7775" stop-color="#030000"/>
<stop offset="1"/>
</linearGradient>
<linearGradient id="paint4_linear_59_2541" x1="-3.80584" y1="18.0145" x2="20.8461" y2="98.1342" gradientUnits="userSpaceOnUse">
<stop stop-color="#727272"/>
<stop offset="0.2297" stop-color="#515151"/>
<stop offset="0.5743" stop-color="#252525"/>
<stop offset="0.8427" stop-color="#0A0A0A"/>
<stop offset="1"/>
</linearGradient>
<linearGradient id="paint5_linear_59_2541" x1="26.1348" y1="24.828" x2="26.1348" y2="35.0848" gradientUnits="userSpaceOnUse">
<stop stop-color="#F3F5F4"/>
<stop offset="0.2848" stop-color="#E5E5E4"/>
<stop offset="0.838" stop-color="#BFBDBB"/>
<stop offset="0.9947" stop-color="#B3B0AE"/>
</linearGradient>
<linearGradient id="paint6_linear_59_2541" x1="10.566" y1="9.34714" x2="10.566" y2="19.6246" gradientUnits="userSpaceOnUse">
<stop stop-color="#F3F5F4"/>
<stop offset="0.2848" stop-color="#E5E5E4"/>
<stop offset="0.838" stop-color="#BFBDBB"/>
<stop offset="0.9947" stop-color="#B3B0AE"/>
</linearGradient>
<linearGradient id="paint7_linear_59_2541" x1="41.9894" y1="40.1374" x2="41.9894" y2="50.3695" gradientUnits="userSpaceOnUse">
<stop stop-color="#F3F5F4"/>
<stop offset="0.2848" stop-color="#E5E5E4"/>
<stop offset="0.838" stop-color="#BFBDBB"/>
<stop offset="0.9947" stop-color="#B3B0AE"/>
</linearGradient>
<linearGradient id="paint8_linear_59_2541" x1="13.5328" y1="30.1539" x2="13.5328" y2="40.6693" gradientUnits="userSpaceOnUse">
<stop stop-color="#F3F5F4"/>
<stop offset="0.2848" stop-color="#E5E5E4"/>
<stop offset="0.838" stop-color="#BFBDBB"/>
<stop offset="0.9947" stop-color="#B3B0AE"/>
</linearGradient>
<linearGradient id="paint9_linear_59_2541" x1="38.588" y1="19.752" x2="38.588" y2="29.7528" gradientUnits="userSpaceOnUse">
<stop stop-color="#F3F5F4"/>
<stop offset="0.2848" stop-color="#E5E5E4"/>
<stop offset="0.838" stop-color="#BFBDBB"/>
<stop offset="0.9947" stop-color="#B3B0AE"/>
</linearGradient>
<linearGradient id="paint10_linear_59_2541" x1="34.1888" y1="-1.78698" x2="17.6732" y2="63.3985" gradientUnits="userSpaceOnUse">
<stop stop-color="#727272"/>
<stop offset="0.2297" stop-color="#515151"/>
<stop offset="0.5743" stop-color="#252525"/>
<stop offset="0.8427" stop-color="#0A0A0A"/>
<stop offset="1"/>
</linearGradient>
</defs>
</svg>
