<svg width="89" height="137" viewBox="0 0 89 137" fill="none" xmlns="http://www.w3.org/2000/svg">
<g id="Group 118">
<g id="Group">
<path id="Vector" d="M72.3252 57.4073C72.9222 57.9911 73.035 58.9131 72.5839 59.4703L47.7957 89.9099C47.3447 90.4671 46.4955 90.4406 45.8986 89.8568L2.19928 47.0462C1.60229 46.4625 1.48952 45.5407 1.94057 44.9835L26.7288 14.5437C27.1798 13.9865 28.0289 14.013 28.6259 14.5967L72.3252 57.4073Z" fill="url(#paint0_linear_506_4676)"/>
<g id="Group_2">
<path id="Vector_2" d="M71.9419 57.4404C72.5323 58.0175 72.6517 58.9328 72.2006 59.4833L47.7639 89.492C47.3194 90.0425 46.4771 90.016 45.8867 89.4389L2.57875 47.0131C1.9884 46.436 1.86899 45.5206 2.32005 44.9767L26.7566 14.9681C27.201 14.4175 28.0434 14.4442 28.6337 15.0213L71.9419 57.4404Z" fill="url(#paint1_linear_506_4676)"/>
<g id="Group_3">
<path id="Vector_3" d="M32.9526 41.7066C31.029 44.3864 33.0257 48.1209 33.0257 48.1209L33.0389 48.1276C33.0389 48.1276 29.4305 46.3697 27.215 48.7709C24.9995 51.1721 25.8751 55.5765 28.7539 57.5134C31.6327 59.4503 36.1234 58.7007 38.9757 58.4553C41.828 58.2032 44.0698 58.9462 44.0698 58.9462L44.0633 58.9397C44.0633 58.9397 43.1412 56.5782 43.0484 53.4407C42.9555 50.3032 43.128 45.3284 41.0518 42.4098C38.9756 39.4912 34.8763 39.0267 32.9526 41.7066Z" fill="url(#paint2_linear_506_4676)"/>
<g id="Group_4">
<path id="Vector_4" d="M45.2962 60.0937C45.3426 60.034 45.3557 59.9478 45.3292 59.8682C45.3226 59.8416 44.4205 57.2679 44.2547 53.8518L44.2084 52.8502C44.016 48.7442 43.7838 43.6367 41.6545 41.3085C40.2483 39.7696 38.265 38.8145 36.3414 38.7482C34.6499 38.6951 33.2171 39.3318 32.3084 40.5921C30.597 42.9469 31.1476 45.5074 31.5058 46.582C30.4909 46.3166 28.1161 45.9981 26.1726 48.134C25.1378 49.2616 24.7133 50.9067 24.9521 52.7374C25.2241 54.8269 26.3185 56.8833 27.8641 58.2431C30.2255 60.306 34.6697 60.0141 38.5833 59.7487L39.4191 59.6957C42.5301 59.4967 45.0706 60.1601 45.0905 60.1667C45.1768 60.1734 45.2498 60.1534 45.2962 60.0937ZM26.491 48.4789C28.6202 46.144 31.2934 46.96 31.8041 47.1457C31.8837 47.1723 31.9701 47.1524 32.0232 47.0927C32.0762 47.0264 32.0828 46.9334 32.0497 46.8471C31.8242 46.3099 30.7828 43.4842 32.66 40.9038C33.4958 39.7629 34.8158 39.1593 36.3746 39.2124C38.1854 39.2721 40.0492 40.1675 41.3626 41.6136C43.3526 43.7959 43.5848 48.7975 43.7705 52.8172L43.8169 53.8253C43.9562 56.5913 44.5466 58.7804 44.8053 59.6228C43.9894 59.4504 41.8534 59.0657 39.3527 59.2248L38.5104 59.2779C34.8688 59.5233 30.3317 59.8283 28.1096 57.8848C26.6503 56.6112 25.6287 54.681 25.3766 52.7176C25.1644 51.1123 25.5094 49.6729 26.3386 48.6514C26.3916 48.5917 26.4379 48.532 26.491 48.4789Z" fill="url(#paint3_linear_506_4676)"/>
</g>
</g>
<g id="Group_5">
<path id="Vector_5" d="M12.9023 49.2684C12.4911 49.8388 12.9155 50.6348 12.9155 50.6348C12.9155 50.6348 12.1462 50.2633 11.6752 50.774C11.2043 51.2848 11.3899 52.2201 12.0001 52.6313C12.6104 53.0426 13.5656 52.8834 14.1758 52.8303C14.7861 52.7772 15.2637 52.9364 15.2637 52.9364C15.2637 52.9364 15.0714 52.4323 15.0448 51.769C15.0249 51.099 15.0581 50.0443 14.6204 49.4208C14.1826 48.7906 13.3136 48.6913 12.9023 49.2684Z" fill="url(#paint4_linear_506_4676)"/>
<g id="Group_6">
<path id="Vector_6" d="M15.5276 53.1754C15.5408 53.1621 15.5409 53.1423 15.5342 53.129C15.5342 53.129 15.3417 52.5785 15.3085 51.8488L15.2954 51.6365C15.2556 50.7609 15.2025 49.6731 14.7514 49.1822C14.453 48.8572 14.0285 48.6516 13.6172 48.6383C13.259 48.6251 12.9539 48.7643 12.7616 49.0296C12.3967 49.5337 12.5161 50.0778 12.5891 50.3033C12.3702 50.2436 11.8659 50.1772 11.4547 50.6349C11.2358 50.8737 11.1429 51.2253 11.196 51.6167C11.2557 52.0611 11.4878 52.4989 11.8195 52.7907C12.3236 53.2285 13.2657 53.1687 14.1014 53.109L14.2804 53.0958C14.9437 53.056 15.4877 53.1952 15.4877 53.1952C15.5009 53.1952 15.5209 53.1886 15.5276 53.1754ZM11.5278 50.7077C11.9788 50.2103 12.5492 50.3827 12.662 50.4225C12.6819 50.4292 12.6951 50.4226 12.7083 50.4094C12.7216 50.3961 12.7216 50.3762 12.715 50.3563C12.6686 50.2436 12.443 49.6399 12.8476 49.0893C13.0267 48.8439 13.3054 48.718 13.6371 48.7312C14.0218 48.7445 14.4198 48.9368 14.6984 49.242C15.1229 49.7063 15.1693 50.7674 15.2091 51.6231L15.2158 51.8355C15.249 52.4258 15.3683 52.8902 15.428 53.0693C15.2555 53.0295 14.7979 52.9499 14.2672 52.983L14.0881 52.9962C13.312 53.0493 12.3503 53.1158 11.8727 52.7045C11.5609 52.4325 11.3486 52.0212 11.2889 51.6033C11.2425 51.265 11.3155 50.9532 11.4946 50.7409C11.5078 50.7277 11.5145 50.7144 11.5278 50.7077Z" fill="url(#paint5_linear_506_4676)"/>
</g>
</g>
<g id="Group_7">
<path id="Vector_7" d="M12.4878 46.9598L12.3485 46.8272C12.2557 46.9002 12.1627 46.9401 12.0765 46.9534C11.9902 46.9666 11.8909 46.9533 11.7848 46.9135C11.6786 46.8737 11.526 46.8074 11.3402 46.7145L6.9623 44.5256L6.55117 45.0562L9.05845 49.4938C9.20438 49.7459 9.29719 49.9647 9.33699 50.1372C9.38342 50.3096 9.3636 50.4623 9.29064 50.5884L9.43659 50.7076L10.4647 49.4473L10.3255 49.3214C10.2061 49.4341 10.0932 49.4937 9.99367 49.507C9.88754 49.5203 9.78149 49.4739 9.66209 49.3744C9.60239 49.3213 9.54259 49.255 9.47626 49.1754C9.40993 49.0958 9.33037 48.9632 9.22424 48.7774L9.01209 48.4127L10.1728 46.9665L10.6503 47.2054C10.7697 47.2651 10.8759 47.3182 10.9688 47.3779C11.055 47.4309 11.1346 47.4906 11.201 47.5503C11.2673 47.6167 11.3136 47.6763 11.3335 47.7426C11.3534 47.8023 11.3535 47.8753 11.3402 47.9416C11.3203 48.0146 11.2805 48.1074 11.2208 48.2268L11.3601 48.353L12.4878 46.9598ZM7.31392 45.5206L9.8544 46.7876L8.80643 48.0942L7.31392 45.5206Z" fill="url(#paint6_linear_506_4676)"/>
</g>
<g id="Group_8">
<path id="Vector_8" d="M61.622 55.1983C62.0332 54.6278 61.6086 53.8319 61.6086 53.8319C61.6086 53.8319 62.3781 54.2034 62.8491 53.6926C63.32 53.1819 63.1342 52.2466 62.524 51.8353C61.9137 51.4241 60.9585 51.5833 60.3483 51.6363C59.738 51.6894 59.2671 51.5303 59.2671 51.5303C59.2671 51.5303 59.4594 52.0344 59.4859 52.6977C59.5058 53.3676 59.466 54.4223 59.9104 55.0459C60.3416 55.6694 61.2107 55.7687 61.622 55.1983Z" fill="url(#paint7_linear_506_4676)"/>
<g id="Group_9">
<path id="Vector_9" d="M58.9947 51.2847C58.988 51.298 58.9815 51.318 58.9882 51.3313C58.9882 51.3313 59.1806 51.8818 59.2204 52.6114L59.2335 52.8236C59.2733 53.6992 59.3264 54.7872 59.7775 55.278C60.0759 55.6031 60.5006 55.8087 60.9052 55.822C61.2634 55.8352 61.5685 55.6958 61.7608 55.4305C62.1257 54.9263 62.0063 54.3825 61.9333 54.157C62.1456 54.2167 62.6563 54.2829 63.0675 53.8252C63.2864 53.5864 63.3793 53.235 63.3262 52.8436C63.2665 52.3992 63.0344 51.9614 62.7027 51.6695C62.1986 51.2318 61.2568 51.2914 60.421 51.3511L60.2418 51.3643C59.5785 51.4041 59.0345 51.2649 59.0345 51.2649C59.0213 51.2649 59.0013 51.2715 58.9947 51.2847ZM62.9946 53.7523C62.5436 54.2498 61.973 54.0774 61.8602 54.0376C61.8403 54.0309 61.8271 54.0374 61.8139 54.0507C61.8006 54.064 61.8006 54.0841 61.8072 54.104C61.8536 54.2167 62.0792 54.8202 61.6746 55.3708C61.4955 55.6162 61.2168 55.7423 60.8851 55.7291C60.5004 55.7158 60.1024 55.5235 59.8238 55.2183C59.3993 54.754 59.3529 53.6926 59.3131 52.837L59.2999 52.6246C59.2734 52.0343 59.1473 51.5701 59.0876 51.391C59.26 51.4308 59.7178 51.5104 60.2485 51.4772L60.4274 51.4639C61.2035 51.4108 62.1654 51.3446 62.643 51.7625C62.9548 52.0344 63.1669 52.4456 63.2266 52.8635C63.2731 53.2018 63.2003 53.5136 63.0212 53.7258C63.0212 53.7258 63.0079 53.7457 62.9946 53.7523Z" fill="url(#paint8_linear_506_4676)"/>
</g>
</g>
<g id="Group_10">
<path id="Vector_10" d="M62.0328 57.5002L62.172 57.6328C62.2649 57.5598 62.3579 57.5202 62.4441 57.5069C62.5303 57.4936 62.6299 57.5068 62.736 57.5466C62.8421 57.5864 62.9947 57.6527 63.187 57.7455L67.5649 59.9346L67.9761 59.4038L65.4688 54.9662C65.3229 54.7141 65.2301 54.4953 65.1903 54.3229C65.1438 54.1504 65.1636 53.9979 65.2366 53.8719L65.0907 53.7524L64.0625 55.0128L64.2018 55.1387C64.3212 55.0259 64.4341 54.9663 64.5336 54.953C64.6397 54.9398 64.7458 54.9861 64.8652 55.0856C64.9248 55.1387 64.9913 55.205 65.051 55.2846C65.1107 55.3642 65.1969 55.4969 65.303 55.6826L65.5151 56.0476L64.3544 57.4935L63.8769 57.2547C63.7575 57.195 63.6513 57.1419 63.5585 57.0822C63.4722 57.0291 63.3926 56.9694 63.3263 56.9097C63.26 56.8434 63.2136 56.7837 63.1937 56.7174C63.1738 56.6577 63.1671 56.5848 63.187 56.5184C63.2069 56.4455 63.2468 56.3526 63.3065 56.2332L63.1672 56.1073L62.0328 57.5002ZM67.2066 58.9397L64.6662 57.6727L65.7141 56.366L67.2066 58.9397Z" fill="url(#paint9_linear_506_4676)"/>
</g>
</g>
</g>
<g id="Group_11">
<path id="Vector_11" d="M3.83659 3.24822C3.91619 2.57827 3.53796 2.27316 2.98741 2.56502L-27.021 18.3917C-27.5716 18.6836 -28.0756 19.4531 -28.1552 20.1231L-33.9394 69.1025C-34.019 69.7725 -33.641 70.0776 -33.0904 69.7857L-3.08181 53.9588C-2.53126 53.6736 -2.0272 52.8976 -1.9476 52.2276L3.83659 3.24822Z" fill="url(#paint10_linear_506_4676)"/>
<g id="Group_12">
<path id="Vector_12" d="M3.58414 3.58672C3.66374 2.9234 3.2856 2.61829 2.74831 2.90352L-26.8358 18.5047C-27.3731 18.7899 -27.8771 19.5594 -27.9567 20.2227L-33.6945 68.7643C-33.7741 69.4276 -33.396 69.7329 -32.8587 69.4477L-3.27475 53.8463C-2.73746 53.5611 -2.2333 52.7917 -2.1537 52.135L3.58414 3.58672Z" fill="url(#paint11_linear_506_4676)"/>
<g id="Group_13">
<path id="Vector_13" d="M-1.12421 11.8383L-1.10417 11.6859C-1.19703 11.719 -1.27008 11.7322 -1.31651 11.7322C-1.36295 11.7322 -1.39616 11.719 -1.40943 11.6859C-1.42933 11.6527 -1.42922 11.5997 -1.42259 11.5201C-1.41595 11.4471 -1.39608 11.3673 -1.36955 11.2678C-1.34302 11.175 -1.30323 11.069 -1.2568 10.9429L-1.08433 10.4587L0.328421 9.7223L0.37498 9.99436C0.401512 10.127 0.414656 10.2331 0.414656 10.3061C0.414656 10.3791 0.408131 10.4521 0.401498 10.5184C0.381598 10.6445 0.335192 10.7572 0.262227 10.85C0.195895 10.9429 0.0963553 11.0292 -0.0296751 11.1154L-0.0561934 11.2678L1.19077 10.6112L1.21729 10.4587C1.11115 10.4985 1.03164 10.4786 0.971942 10.399C0.912243 10.3194 0.865837 10.1868 0.832671 10.001L0.19583 6.75732L-0.314897 7.01603L-1.92016 11.4668C-1.99312 11.6592 -2.04624 11.8119 -2.09931 11.918C-2.14574 12.0242 -2.19872 12.1169 -2.25841 12.1899C-2.31811 12.2629 -2.39106 12.336 -2.48392 12.4089L-2.50396 12.5614L-1.12421 11.8383ZM0.301903 9.47695L-0.978256 10.1403L-0.0430354 7.55995L0.301903 9.47695Z" fill="url(#paint12_linear_506_4676)"/>
</g>
<g id="Group_14">
<path id="Vector_14" d="M-2.47291 15.3805C-2.34025 14.8233 -1.99534 14.3523 -1.61725 13.8548C-1.23916 13.3573 -0.761581 12.5281 -0.761581 12.5281C-0.761581 12.5281 -0.416554 12.9195 -0.118061 13.0588C0.180433 13.1981 0.45911 13.3374 0.465744 13.8283C0.472377 14.3125 0.047824 14.9294 -0.310368 15.1682C-0.66856 15.4069 -0.874153 15.2942 -1.02008 15.0554C-0.986917 15.46 -0.821121 15.6856 -0.681824 15.805L-0.695185 15.8382C-0.953879 15.8581 -1.15956 15.9775 -1.15956 15.9775C-1.20599 16.004 -1.41159 16.1033 -1.67028 16.3554L-1.67696 16.3489C-1.4846 16.0504 -1.23909 15.6059 -1.09316 15.1018C-1.31869 15.5395 -1.58406 15.9045 -1.92899 16.0305C-2.27391 16.1499 -2.60558 15.9377 -2.47291 15.3805Z" fill="url(#paint13_linear_506_4676)"/>
<g id="Group_15">
<path id="Vector_15" d="M-1.99593 16.7334C-1.98929 16.7267 -1.98929 16.7334 -1.99593 16.7334C-1.54487 16.3619 -1.35254 16.2626 -1.19998 16.183C-1.04741 16.1034 -0.855164 16.0038 -0.443906 15.9109C-0.43064 15.9109 -0.417294 15.891 -0.404028 15.8777C-0.397395 15.8578 -0.390762 15.8446 -0.404028 15.8313C-0.503526 15.7318 -0.569929 15.6522 -0.642894 15.566C-0.669426 15.5328 -0.695915 15.5062 -0.722448 15.473C-0.583151 15.473 -0.417382 15.42 -0.244919 15.3073C-0.026024 15.1746 0.199574 14.9225 0.365403 14.6439C0.491434 14.4316 0.637312 14.1066 0.643945 13.755C0.650578 13.1779 0.318973 13.0188 -0.00605327 12.8728C-0.317813 12.7269 -0.669289 12.3224 -0.709088 12.2826C-0.715721 12.2759 -0.72234 12.2759 -0.735606 12.2826L-0.742286 12.2892C-0.748919 12.2959 -0.762171 12.3025 -0.768804 12.3158C-0.82187 12.4086 -1.32603 13.2644 -1.71738 13.7817C-2.11538 14.3058 -2.52667 14.8429 -2.66597 15.4996C-2.7522 15.8909 -2.66596 16.0835 -2.57973 16.183C-2.46033 16.3156 -2.26138 16.3354 -2.04249 16.2492C-1.86339 16.1696 -1.68426 16.0369 -1.5516 15.9109C-1.59803 15.9839 -1.63791 16.0569 -1.67771 16.1232C-1.78384 16.3023 -1.8833 16.4682 -2.01597 16.6937C-2.02923 16.7136 -2.02908 16.7268 -2.02244 16.74C-2.01581 16.74 -2.00256 16.74 -1.99593 16.7334ZM-0.835201 15.3736C-0.841834 15.3803 -0.855086 15.3869 -0.861719 15.4002C-0.874985 15.4201 -0.875032 15.4399 -0.868399 15.4532C-0.802067 15.5262 -0.748996 15.5858 -0.69593 15.6455C-0.636231 15.7118 -0.583066 15.7782 -0.510101 15.8512C-0.868292 15.9374 -1.04752 16.0302 -1.18682 16.1032C-1.32612 16.1762 -1.50513 16.2758 -1.88985 16.5743C-1.79036 16.4084 -1.7107 16.269 -1.62447 16.1297C-1.55151 16.0037 -1.47199 15.8711 -1.37913 15.7186C-1.36586 15.6987 -1.36581 15.6787 -1.37245 15.672C-1.37908 15.6654 -1.39906 15.6722 -1.41232 15.6921C-1.53836 15.8446 -1.77717 16.0634 -2.01597 16.1629C-2.21496 16.2491 -2.40057 16.2226 -2.51333 16.1032C-2.59293 16.017 -2.67269 15.8379 -2.59309 15.473C-2.46043 14.8495 -2.06243 14.3189 -1.67771 13.8147C-1.31288 13.3372 -0.868317 12.5811 -0.742286 12.3755C-0.656055 12.475 -0.337792 12.8199 -0.0459318 12.9526C0.279094 13.1052 0.590862 13.251 0.584229 13.8016C0.584229 14.1332 0.444922 14.4317 0.325525 14.6307C0.172962 14.8894 -0.0392435 15.1215 -0.238239 15.2475C-0.264772 15.2674 -0.297941 15.2807 -0.324474 15.3006C-0.510203 15.4001 -0.689332 15.4268 -0.815363 15.3803C-0.821996 15.3737 -0.828568 15.3736 -0.835201 15.3736Z" fill="url(#paint14_linear_506_4676)"/>
</g>
</g>
</g>
</g>
<g id="Group_16">
<path id="Vector_16" d="M62.9153 1.3251C63.0679 0.469416 63.5457 0.0183528 63.9967 0.323479L88.4199 16.9726C88.8643 17.2778 89.1031 18.2198 88.9572 19.0755L77.9926 81.9911C77.8467 82.8468 77.3626 83.2978 76.9181 82.9927L52.4947 66.3435C52.0503 66.0384 51.8115 65.0964 51.9575 64.2407L62.9153 1.3251Z" fill="url(#paint15_linear_506_4676)"/>
<g id="Group_17">
<path id="Vector_17" d="M63.0532 1.73628C63.1991 0.88723 63.6767 0.442847 64.1145 0.74134L88.193 17.1518C88.6308 17.4503 88.8697 18.3856 88.7237 19.2346L77.8586 81.5867C77.7127 82.4357 77.235 82.8801 76.7972 82.5816L52.7188 66.1711C52.281 65.8726 52.0421 64.9374 52.188 64.0883L63.0532 1.73628Z" fill="url(#paint16_linear_506_4676)"/>
<g id="Group_18">
<path id="Vector_18" d="M68.6002 52.2876C68.6002 52.2876 72.5138 46.0393 75.1538 44.8718C72.8455 38.3448 72.3016 31.0415 72.3016 31.0415C72.3016 31.0415 69.5952 36.1292 65.748 38.4575C67.466 42.5966 68.6002 52.2876 68.6002 52.2876Z" fill="url(#paint17_linear_506_4676)"/>
<g id="Group_19">
<path id="Vector_19" d="M72.4928 29.2308C72.4596 29.2905 69.3421 35.0946 64.9774 37.728C64.9376 37.7479 64.9112 37.8074 64.8979 37.8804C64.8846 37.9534 64.8979 38.0331 64.9244 38.0994C66.8613 42.7758 68.1813 53.8465 68.188 53.9593C68.2079 54.1318 68.3338 54.2114 68.4001 54.1053C68.4465 54.0323 72.9307 46.9214 75.9157 45.5948C75.9555 45.5749 75.9886 45.5218 76.0019 45.4555C76.0152 45.3825 76.0085 45.303 75.9886 45.2367C73.3751 37.8473 72.725 29.4695 72.7183 29.3833C72.7117 29.2904 72.6785 29.211 72.6321 29.1778C72.579 29.1513 72.5326 29.1711 72.4928 29.2308ZM68.3936 53.4751C68.1416 51.4387 66.9608 42.5038 65.2362 38.0928C68.9773 35.7512 71.7832 31.1544 72.5062 29.9073C72.6853 31.7713 73.4613 38.8092 75.6768 45.2168C72.9373 46.5833 69.2294 52.1816 68.3936 53.4751Z" fill="url(#paint18_linear_506_4676)"/>
</g>
</g>
<g id="Group_20">
<path id="Vector_20" d="M76.6355 70.3101C76.6355 70.3101 77.5973 68.7779 78.2407 68.4927C77.6769 66.8941 77.5444 65.103 77.5444 65.103C77.5444 65.103 76.881 66.35 75.9391 66.9204C76.357 67.9353 76.6355 70.3101 76.6355 70.3101Z" fill="url(#paint19_linear_506_4676)"/>
<g id="Group_21">
<path id="Vector_21" d="M77.5922 64.6522C77.5856 64.6654 76.8161 66.0915 75.7481 66.735C75.7481 66.735 75.7283 66.7549 75.7283 66.7748C75.7283 66.7947 75.7283 66.8146 75.735 66.8279C76.2126 67.9754 76.531 70.6884 76.5376 70.7149C76.5442 70.7547 76.5707 70.7746 76.5906 70.7481C76.6039 70.7282 77.6983 68.9837 78.4345 68.6586C78.4345 68.6586 78.4546 68.6387 78.4546 68.6254C78.4546 68.6122 78.4546 68.5857 78.4546 68.5724C77.8112 66.7615 77.652 64.7053 77.652 64.6854C77.652 64.6655 77.6454 64.6456 77.6321 64.6323C77.6122 64.6323 77.5989 64.6389 77.5922 64.6522ZM76.5839 70.5955C76.5242 70.098 76.2324 67.909 75.8078 66.8212C76.7232 66.2441 77.4131 65.123 77.5922 64.8113C77.6387 65.269 77.8244 66.9937 78.3684 68.5657C77.6984 68.9106 76.7896 70.2837 76.5839 70.5955Z" fill="url(#paint20_linear_506_4676)"/>
</g>
</g>
<g id="Group_22">
<path id="Vector_22" d="M63.3396 18.3921C63.3396 18.3921 64.3014 16.8598 64.9448 16.5745C64.381 14.9759 64.2485 13.1851 64.2485 13.1851C64.2485 13.1851 63.5851 14.432 62.6432 15.0025C63.0611 16.0173 63.3396 18.3921 63.3396 18.3921Z" fill="url(#paint21_linear_506_4676)"/>
<g id="Group_23">
<path id="Vector_23" d="M64.2936 12.7405C64.287 12.7538 63.5176 14.1801 62.4497 14.8235C62.4497 14.8235 62.4296 14.8433 62.4296 14.8632C62.4296 14.8831 62.4297 14.903 62.4363 14.9162C62.9139 16.0638 63.2323 18.7767 63.239 18.8033C63.2456 18.8431 63.2721 18.863 63.292 18.8365C63.3053 18.8166 64.3998 17.072 65.1361 16.747C65.1494 16.7404 65.156 16.7271 65.156 16.7138C65.1626 16.6939 65.1559 16.674 65.1493 16.6608C64.5059 14.8499 64.3466 12.7936 64.3466 12.7737C64.3466 12.7538 64.3334 12.734 64.3268 12.7207C64.3268 12.7207 64.3069 12.7273 64.2936 12.7405ZM63.292 18.684C63.2323 18.1866 62.9404 15.9976 62.5159 14.9098C63.4313 14.3327 64.1212 13.2116 64.3003 12.8999C64.3467 13.3575 64.5325 15.0822 65.0764 16.6543C64.4064 16.9926 63.4976 18.3657 63.292 18.684Z" fill="url(#paint22_linear_506_4676)"/>
</g>
</g>
<g id="Group_24">
<path id="Vector_24" d="M74.8793 70.7214L74.8461 70.9204C74.9124 71 74.9656 71.0863 74.9987 71.1791C75.0319 71.272 75.0517 71.3847 75.0649 71.5107C75.0782 71.6434 75.085 71.829 75.085 72.0745L75.1645 77.6463L75.5823 77.9117L77.3202 73.6133C77.4197 73.3679 77.5127 73.1889 77.5989 73.0828C77.6852 72.9766 77.7712 72.9369 77.8641 72.9767L77.8906 72.7777L76.8759 72.0878L76.8493 72.2868C76.9488 72.3797 77.0152 72.4791 77.055 72.5919C77.0948 72.7046 77.1014 72.8374 77.0815 73.0032C77.0683 73.0894 77.0483 73.1822 77.0218 73.2751C76.9953 73.3746 76.9488 73.5074 76.8759 73.6931L76.7366 74.0512L75.5823 73.2818L75.5757 72.6781C75.5757 72.5255 75.5757 72.3862 75.5757 72.2735C75.5823 72.1541 75.5891 72.0479 75.6024 71.955C75.6156 71.8555 75.642 71.7827 75.6686 71.7429C75.6951 71.6965 75.7349 71.6698 75.7813 71.6698C75.8278 71.6632 75.8942 71.6765 75.9738 71.703L76.0068 71.504L74.8793 70.7214ZM75.6155 76.9034L75.5692 73.673L76.6105 74.3696L75.6155 76.9034Z" fill="url(#paint23_linear_506_4676)"/>
</g>
<g id="Group_25">
<path id="Vector_25" d="M66.0391 12.6081L66.0723 12.4091C66.0059 12.3295 65.9528 12.2433 65.9196 12.1571C65.8865 12.0642 65.8667 11.9513 65.8534 11.8253C65.8402 11.6926 65.8334 11.507 65.8334 11.2615L65.7538 5.6897L65.336 5.42432L63.598 9.72269C63.4985 9.96811 63.4057 10.1471 63.3194 10.2533C63.2332 10.3594 63.1469 10.3993 63.0541 10.3595L63.0275 10.5585L64.0425 11.2484L64.069 11.0494C63.9695 10.9565 63.9032 10.8569 63.8634 10.7441C63.8236 10.638 63.8169 10.4988 63.8368 10.333C63.8501 10.2468 63.87 10.1538 63.8966 10.0609C63.9231 9.96145 63.9695 9.82223 64.0425 9.64313L64.1818 9.27835L65.336 10.0478L65.3425 10.6514C65.3425 10.804 65.3425 10.9431 65.3425 11.0559C65.3359 11.1753 65.3293 11.2814 65.316 11.3743C65.3027 11.4738 65.2763 11.5468 65.2498 11.5866C65.2233 11.6331 65.1835 11.6595 65.137 11.6595C65.0906 11.6662 65.0241 11.6529 64.9445 11.6263L64.9113 11.8253L66.0391 12.6081ZM65.3028 6.41946L65.3492 9.64981L64.3079 8.95325L65.3028 6.41946Z" fill="url(#paint24_linear_506_4676)"/>
</g>
</g>
</g>
<g id="Group_26">
<path id="Vector_26" d="M19.8472 136.547C20.5835 137.031 21.2866 137.005 21.4192 136.481L28.8682 107.693C29.0075 107.169 28.5233 106.346 27.787 105.862L-25.9549 70.1423C-26.6912 69.6581 -27.3943 69.6847 -27.527 70.2154L-34.9762 99.0034C-35.1155 99.5274 -34.6313 100.35 -33.895 100.834L19.8472 136.547Z" fill="url(#paint25_linear_506_4676)"/>
<g id="Group_27">
<path id="Vector_27" d="M19.6606 136.169C20.3836 136.654 21.0868 136.62 21.2195 136.103L28.5624 107.726C28.695 107.209 28.2175 106.4 27.4879 105.915L-25.7768 70.514C-26.4998 70.0298 -27.2028 70.063 -27.3355 70.5804L-34.6784 98.9572C-34.811 99.4746 -34.3335 100.284 -33.6039 100.768L19.6606 136.169Z" fill="url(#paint26_linear_506_4676)"/>
<g id="Group_28">
<path id="Vector_28" d="M-5.21362 104.376C-6.77905 105.113 -13.5117 101.424 -12.5897 97.0797L-12.5964 97.073C-12.5898 97.0531 -12.583 97.0399 -12.5764 97.02C-12.5697 97.0001 -12.5698 96.9802 -12.5632 96.9603L-12.5565 96.9669C-11.2896 92.8544 -4.90181 97.8824 -4.11909 100.177C-3.98643 95.3551 0.19905 97.4446 2.16247 99.1427C4.07283 100.794 4.91532 102.658 4.68979 104.489C4.46427 106.32 2.32179 106.26 1.29365 106.041C3.40963 106.91 5.21382 107.242 6.60679 107.189L6.69971 107.335C6.00322 107.899 5.78421 108.913 5.71125 109.219H5.71793C5.71793 109.219 5.34651 110.333 5.63837 111.712H5.52562C4.56381 110.087 3.09782 108.184 1.20073 106.386C2.02988 107.401 3.56212 109.789 2.91207 111.341C2.26201 112.893 0.842513 113.252 -1.23367 112.25C-3.36956 111.215 -7.25001 107.938 -5.21362 104.376Z" fill="url(#paint27_linear_506_4676)"/>
<g id="Group_29">
<path id="Vector_29" d="M8.36999 106.658C8.38325 106.612 8.36338 106.545 8.31695 106.479C8.25062 106.393 8.1512 106.326 8.07161 106.326C7.0302 106.326 5.76971 106.313 4.81453 106.287C5.25895 105.948 5.52441 105.411 5.69024 104.529C6.01526 102.798 4.84126 100.482 2.69874 98.6252C1.36548 97.471 -0.684333 96.2771 -2.26966 96.1975C-3.5764 96.1378 -4.359 96.8144 -4.59779 98.2272C-5.34071 97.0399 -6.92603 95.7133 -8.57106 94.977C-9.77167 94.4398 -12.6637 93.4979 -13.5459 96.443C-14.1827 99.4611 -11.775 102.021 -10.7071 102.977C-9.19473 104.336 -7.45667 105.212 -6.39536 105.205C-6.85305 106.472 -6.59452 107.839 -5.64597 109.272C-4.4918 111.009 -2.51509 112.495 -1.06906 113.192C1.26582 114.313 3.11647 114.008 3.64712 112.416C3.69356 112.29 3.72671 112.164 3.75988 112.044C3.93234 111.381 3.95232 110.777 3.79975 110.14C4.34368 110.956 5.09319 112.071 6.16776 113.709C6.22746 113.802 6.32708 113.868 6.41331 113.875C6.49954 113.882 6.53928 113.822 6.51938 113.736C6.08159 111.951 6.5923 109.729 6.59894 109.709C6.66527 109.504 7.32196 107.58 8.34347 106.698C8.35673 106.691 8.36335 106.671 8.36999 106.658ZM3.66716 106.313C3.66053 106.353 3.66699 106.399 3.70016 106.452C3.75322 106.552 3.866 106.638 3.95886 106.638C4.68188 106.685 6.24742 106.718 7.63375 106.724C6.79134 107.713 6.26729 109.258 6.20096 109.451C6.19433 109.484 5.78967 111.235 5.9953 112.933C4.62886 110.857 3.87281 109.736 3.35542 108.973C3.28909 108.873 3.16964 108.807 3.09004 108.814C3.00381 108.82 2.97721 108.9 3.02364 109.006C3.3752 109.749 3.66055 110.605 3.35542 111.792C3.32226 111.912 3.28895 112.031 3.24915 112.15C2.75166 113.636 1.09347 113.902 -1.08222 112.854C-2.43539 112.203 -4.27945 110.824 -5.34739 109.212C-6.31583 107.753 -6.47502 106.346 -5.8316 105.066C-5.79843 105 -5.83823 104.9 -5.91783 104.814C-6.00406 104.734 -6.11016 104.695 -6.16986 104.721C-6.9592 105.093 -8.91597 104.21 -10.5411 102.751C-11.5228 101.862 -13.745 99.5007 -13.1547 96.7015C-12.3321 93.9687 -9.65897 94.8312 -8.55123 95.3287C-6.78017 96.1246 -5.03571 97.6899 -4.64435 98.8242C-4.61119 98.9171 -4.51819 99.0099 -4.42533 99.0497C-4.33246 99.0829 -4.25949 99.0564 -4.25286 98.9768C-4.14673 97.3451 -3.41047 96.5358 -2.08383 96.5955C-0.617901 96.6684 1.29235 97.7828 2.53275 98.8574C4.53597 100.589 5.59071 102.665 5.28558 104.277C5.00035 105.769 4.37019 106.108 3.74004 106.247C3.70024 106.253 3.6738 106.273 3.66716 106.313Z" fill="url(#paint28_linear_506_4676)"/>
</g>
</g>
<g id="Group_30">
<g id="Group_31">
<path id="Vector_30" d="M10.8297 125.815C11.1813 125.649 12.6805 126.471 12.4749 127.44L12.4682 127.453V127.466C12.183 128.382 10.7633 127.261 10.5909 126.75C10.5643 127.825 9.62906 127.36 9.19127 126.982C8.76674 126.611 8.57444 126.199 8.6275 125.788C8.68057 125.377 9.15161 125.39 9.38378 125.443C8.91282 125.251 8.50814 125.178 8.20301 125.191L8.18317 125.158C8.33573 125.032 8.38873 124.807 8.402 124.74C8.402 124.74 8.48817 124.488 8.42183 124.183H8.44835C8.66061 124.548 8.9924 124.966 9.41029 125.37C9.22456 125.145 8.88618 124.614 9.02548 124.269C9.17141 123.924 9.48322 123.845 9.94754 124.07C10.4185 124.289 11.2874 125.019 10.8297 125.815Z" fill="url(#paint29_linear_506_4676)"/>
</g>
<g id="Group_32">
<path id="Vector_31" d="M7.80576 125.304C7.80576 125.317 7.80565 125.331 7.81891 125.344C7.83218 125.364 7.85889 125.377 7.87215 125.377C8.10431 125.377 8.38276 125.377 8.59503 125.384C8.49553 125.457 8.43588 125.583 8.40272 125.775C8.32975 126.16 8.59512 126.677 9.06608 127.089C9.36457 127.347 9.82221 127.613 10.1738 127.626C10.4656 127.639 10.6381 127.487 10.6912 127.175C10.857 127.44 11.2086 127.732 11.58 127.898C11.8454 128.017 12.4887 128.23 12.6877 127.573C12.827 126.903 12.2897 126.332 12.0576 126.12C11.7193 125.815 11.3346 125.623 11.0958 125.623C11.1953 125.337 11.1423 125.032 10.93 124.714C10.6713 124.329 10.2334 123.997 9.90838 123.838C9.39099 123.586 8.97313 123.652 8.85373 124.011C8.8471 124.037 8.83384 124.07 8.82721 124.097C8.78741 124.243 8.78737 124.382 8.82053 124.521C8.70113 124.342 8.53539 124.09 8.28997 123.725C8.2767 123.706 8.25683 123.692 8.23693 123.686C8.21703 123.686 8.21041 123.699 8.21041 123.719C8.30991 124.117 8.19037 124.608 8.19037 124.614C8.1771 124.661 8.03124 125.092 7.79908 125.284L7.80576 125.304ZM8.85373 125.384C8.85373 125.377 8.85368 125.364 8.84705 125.351C8.83378 125.324 8.80744 125.311 8.78754 125.311C8.62834 125.298 8.27667 125.291 7.97155 125.291C8.15727 125.072 8.2767 124.727 8.28997 124.681C8.28997 124.674 8.38275 124.283 8.33632 123.905C8.64145 124.369 8.80741 124.614 8.92681 124.787C8.94007 124.807 8.96662 124.827 8.98652 124.82C9.00642 124.82 9.01295 124.8 8.99968 124.78C8.92008 124.614 8.85384 124.422 8.92681 124.157C8.93344 124.13 8.94006 124.104 8.95332 124.077C9.06609 123.745 9.43089 123.686 9.92174 123.918C10.2269 124.064 10.6315 124.369 10.8703 124.727C11.0826 125.052 11.1223 125.364 10.9764 125.649C10.9698 125.662 10.9763 125.689 10.9962 125.702C11.0161 125.722 11.0361 125.729 11.056 125.722C11.2284 125.636 11.6662 125.835 12.031 126.16C12.2499 126.359 12.7475 126.883 12.6149 127.506C12.4291 128.117 11.8388 127.924 11.5867 127.811C11.1954 127.632 10.8039 127.288 10.7177 127.029C10.7111 127.009 10.6912 126.989 10.6713 126.982C10.6514 126.976 10.6315 126.982 10.6315 127.002C10.6049 127.367 10.4457 127.546 10.1472 127.533C9.82222 127.52 9.39771 127.268 9.11911 127.029C8.67469 126.644 8.43583 126.18 8.50879 125.822C8.57512 125.49 8.71443 125.417 8.85373 125.384C8.8471 125.397 8.85373 125.39 8.85373 125.384Z" fill="url(#paint30_linear_506_4676)"/>
</g>
</g>
<g id="Group_33">
<path id="Vector_32" d="M13.9037 127.871L14.0695 127.984C14.116 127.904 14.1623 127.851 14.2021 127.825C14.2419 127.798 14.2883 127.785 14.3414 127.798C14.3945 127.812 14.4675 127.845 14.5471 127.898C14.6267 127.951 14.7062 128.017 14.7991 128.097C14.892 128.176 14.9849 128.269 15.091 128.375L15.5222 128.8L15.1574 130.153L14.7859 130C14.6002 129.928 14.4608 129.868 14.3746 129.815C14.2817 129.768 14.2023 129.715 14.1359 129.669C14.0033 129.569 13.9103 129.47 13.8639 129.364C13.8174 129.264 13.7976 129.145 13.8108 129.012L13.645 128.893L13.3333 130.087L13.4924 130.206C13.5388 130.113 13.6317 130.08 13.7776 130.093C13.9236 130.107 14.1226 130.166 14.3813 130.266L18.8388 132.004L18.978 131.519L15.0446 127.612C14.8722 127.447 14.7461 127.307 14.6598 127.208C14.5736 127.108 14.514 127.015 14.4742 126.929C14.4344 126.843 14.4144 126.75 14.4078 126.644L14.242 126.531L13.9037 127.871ZM15.4823 130.292L15.8141 129.072L18.0892 131.334L15.4823 130.292Z" fill="url(#paint31_linear_506_4676)"/>
</g>
</g>
</g>
</g>
<defs>
<linearGradient id="paint0_linear_506_4676" x1="24.0473" y1="68.4512" x2="53.2158" y2="38.6805" gradientUnits="userSpaceOnUse">
<stop stop-color="#CDCCCB"/>
<stop offset="0.9947" stop-color="#B6B4B3"/>
</linearGradient>
<linearGradient id="paint1_linear_506_4676" x1="23.9211" y1="68.0745" x2="52.9767" y2="39.1955" gradientUnits="userSpaceOnUse">
<stop stop-color="#F3F5F4"/>
<stop offset="0.7063" stop-color="#E5E5E4"/>
<stop offset="0.9947" stop-color="#D4D2D1"/>
</linearGradient>
<linearGradient id="paint2_linear_506_4676" x1="24.0102" y1="67.3264" x2="53.6317" y2="38.1795" gradientUnits="userSpaceOnUse">
<stop stop-color="#EF0A07"/>
<stop offset="1" stop-color="#C70000"/>
</linearGradient>
<linearGradient id="paint3_linear_506_4676" x1="24.1728" y1="67.4923" x2="53.7941" y2="38.3449" gradientUnits="userSpaceOnUse">
<stop stop-color="#EF0A07"/>
<stop offset="1" stop-color="#C70000"/>
</linearGradient>
<linearGradient id="paint4_linear_506_4676" x1="11.2804" y1="54.3858" x2="40.9002" y2="25.2404" gradientUnits="userSpaceOnUse">
<stop stop-color="#EF0A07"/>
<stop offset="1" stop-color="#C70000"/>
</linearGradient>
<linearGradient id="paint5_linear_506_4676" x1="11.313" y1="54.4218" x2="40.933" y2="25.2747" gradientUnits="userSpaceOnUse">
<stop stop-color="#EF0A07"/>
<stop offset="1" stop-color="#C70000"/>
</linearGradient>
<linearGradient id="paint6_linear_506_4676" x1="6.5337" y1="49.5649" x2="36.1541" y2="20.4195" gradientUnits="userSpaceOnUse">
<stop stop-color="#EF0A07"/>
<stop offset="1" stop-color="#C70000"/>
</linearGradient>
<linearGradient id="paint7_linear_506_4676" x1="37.1527" y1="80.6782" x2="66.7718" y2="51.5322" gradientUnits="userSpaceOnUse">
<stop stop-color="#EF0A07"/>
<stop offset="1" stop-color="#C70000"/>
</linearGradient>
<linearGradient id="paint8_linear_506_4676" x1="37.1169" y1="80.6443" x2="66.7374" y2="51.499" gradientUnits="userSpaceOnUse">
<stop stop-color="#EF0A07"/>
<stop offset="1" stop-color="#C70000"/>
</linearGradient>
<linearGradient id="paint9_linear_506_4676" x1="41.8949" y1="85.5004" x2="71.5159" y2="56.3551" gradientUnits="userSpaceOnUse">
<stop stop-color="#EF0A07"/>
<stop offset="1" stop-color="#C70000"/>
</linearGradient>
<linearGradient id="paint10_linear_506_4676" x1="-39.1693" y1="40.5395" x2="9.06504" y2="31.8093" gradientUnits="userSpaceOnUse">
<stop stop-color="#CDCCCB"/>
<stop offset="0.9947" stop-color="#B6B4B3"/>
</linearGradient>
<linearGradient id="paint11_linear_506_4676" x1="-38.865" y1="40.4846" x2="8.7605" y2="31.8645" gradientUnits="userSpaceOnUse">
<stop stop-color="#F3F5F4"/>
<stop offset="0.7063" stop-color="#E5E5E4"/>
<stop offset="0.9947" stop-color="#D4D2D1"/>
</linearGradient>
<linearGradient id="paint12_linear_506_4676" x1="-20.7249" y1="-3.21556" x2="2.37282" y2="11.9825" gradientUnits="userSpaceOnUse">
<stop stop-color="#2C2C28"/>
<stop offset="0.0245" stop-color="#2B2B27"/>
<stop offset="0.63" stop-color="#111511"/>
<stop offset="0.9947" stop-color="#080D09"/>
</linearGradient>
<linearGradient id="paint13_linear_506_4676" x1="-31.3058" y1="19.793" x2="3.0894" y2="13.6711" gradientUnits="userSpaceOnUse">
<stop stop-color="#2C2C28"/>
<stop offset="0.0245" stop-color="#2B2B27"/>
<stop offset="0.63" stop-color="#111511"/>
<stop offset="0.9947" stop-color="#080D09"/>
</linearGradient>
<linearGradient id="paint14_linear_506_4676" x1="-17.0012" y1="4.21774" x2="1.18203" y2="16.1812" gradientUnits="userSpaceOnUse">
<stop stop-color="#2C2C28"/>
<stop offset="0.0245" stop-color="#2B2B27"/>
<stop offset="0.63" stop-color="#111511"/>
<stop offset="0.9947" stop-color="#080D09"/>
</linearGradient>
<linearGradient id="paint15_linear_506_4676" x1="83.4733" y1="50.5319" x2="55.1993" y2="45.6039" gradientUnits="userSpaceOnUse">
<stop stop-color="#CDCCCB"/>
<stop offset="0.9947" stop-color="#B6B4B3"/>
</linearGradient>
<linearGradient id="paint16_linear_506_4676" x1="83.2868" y1="50.4063" x2="55.4146" y2="45.5483" gradientUnits="userSpaceOnUse">
<stop stop-color="#F3F5F4"/>
<stop offset="0.7063" stop-color="#E5E5E4"/>
<stop offset="0.9947" stop-color="#D4D2D1"/>
</linearGradient>
<linearGradient id="paint17_linear_506_4676" x1="82.7077" y1="50.1263" x2="55.1141" y2="45.2413" gradientUnits="userSpaceOnUse">
<stop stop-color="#EF0A07"/>
<stop offset="1" stop-color="#C70000"/>
</linearGradient>
<linearGradient id="paint18_linear_506_4676" x1="58.5246" y1="42.1514" x2="83.208" y2="41.1347" gradientUnits="userSpaceOnUse">
<stop stop-color="#EF0A07"/>
<stop offset="1" stop-color="#C70000"/>
</linearGradient>
<linearGradient id="paint19_linear_506_4676" x1="79.3207" y1="69.2442" x2="51.7268" y2="64.3594" gradientUnits="userSpaceOnUse">
<stop stop-color="#EF0A07"/>
<stop offset="1" stop-color="#C70000"/>
</linearGradient>
<linearGradient id="paint20_linear_506_4676" x1="74.9194" y1="67.792" x2="99.6046" y2="66.7746" gradientUnits="userSpaceOnUse">
<stop stop-color="#EF0A07"/>
<stop offset="1" stop-color="#C70000"/>
</linearGradient>
<linearGradient id="paint21_linear_506_4676" x1="86.0623" y1="31.1691" x2="58.4684" y2="26.2843" gradientUnits="userSpaceOnUse">
<stop stop-color="#EF0A07"/>
<stop offset="1" stop-color="#C70000"/>
</linearGradient>
<linearGradient id="paint22_linear_506_4676" x1="42.1195" y1="16.6823" x2="66.804" y2="15.6656" gradientUnits="userSpaceOnUse">
<stop stop-color="#EF0A07"/>
<stop offset="1" stop-color="#C70000"/>
</linearGradient>
<linearGradient id="paint23_linear_506_4676" x1="74.2817" y1="74.3538" x2="99.1954" y2="73.3274" gradientUnits="userSpaceOnUse">
<stop stop-color="#EF0A07"/>
<stop offset="1" stop-color="#C70000"/>
</linearGradient>
<linearGradient id="paint24_linear_506_4676" x1="42.5638" y1="9.96435" x2="67.4791" y2="8.93778" gradientUnits="userSpaceOnUse">
<stop stop-color="#EF0A07"/>
<stop offset="1" stop-color="#C70000"/>
</linearGradient>
<linearGradient id="paint25_linear_506_4676" x1="0.914147" y1="87.9978" x2="-15.6682" y2="112.946" gradientUnits="userSpaceOnUse">
<stop stop-color="#CDCCCB"/>
<stop offset="0.9947" stop-color="#B6B4B3"/>
</linearGradient>
<linearGradient id="paint26_linear_506_4676" x1="0.857292" y1="88.2151" x2="-15.4902" y2="112.81" gradientUnits="userSpaceOnUse">
<stop stop-color="#F3F5F4"/>
<stop offset="0.7063" stop-color="#E5E5E4"/>
<stop offset="0.9947" stop-color="#D4D2D1"/>
</linearGradient>
<linearGradient id="paint27_linear_506_4676" x1="1.00607" y1="88.479" x2="-15.2895" y2="112.517" gradientUnits="userSpaceOnUse">
<stop stop-color="#2C2C28"/>
<stop offset="0.0245" stop-color="#2B2B27"/>
<stop offset="0.63" stop-color="#111511"/>
<stop offset="0.9947" stop-color="#080D09"/>
</linearGradient>
<linearGradient id="paint28_linear_506_4676" x1="1.15082" y1="88.5778" x2="-15.1447" y2="112.616" gradientUnits="userSpaceOnUse">
<stop stop-color="#2C2C28"/>
<stop offset="0.0245" stop-color="#2B2B27"/>
<stop offset="0.63" stop-color="#111511"/>
<stop offset="0.9947" stop-color="#080D09"/>
</linearGradient>
<linearGradient id="paint29_linear_506_4676" x1="17.7719" y1="99.8464" x2="1.47643" y2="123.885" gradientUnits="userSpaceOnUse">
<stop stop-color="#2C2C28"/>
<stop offset="0.0245" stop-color="#2B2B27"/>
<stop offset="0.63" stop-color="#111511"/>
<stop offset="0.9947" stop-color="#080D09"/>
</linearGradient>
<linearGradient id="paint30_linear_506_4676" x1="17.7402" y1="99.8257" x2="1.44519" y2="123.863" gradientUnits="userSpaceOnUse">
<stop stop-color="#2C2C28"/>
<stop offset="0.0245" stop-color="#2B2B27"/>
<stop offset="0.63" stop-color="#111511"/>
<stop offset="0.9947" stop-color="#080D09"/>
</linearGradient>
<linearGradient id="paint31_linear_506_4676" x1="23.7105" y1="103.871" x2="7.41481" y2="127.909" gradientUnits="userSpaceOnUse">
<stop stop-color="#2C2C28"/>
<stop offset="0.0245" stop-color="#2B2B27"/>
<stop offset="0.63" stop-color="#111511"/>
<stop offset="0.9947" stop-color="#080D09"/>
</linearGradient>
</defs>
</svg>
