<svg width="120" height="218" viewBox="0 0 120 218" fill="none" xmlns="http://www.w3.org/2000/svg">
<path d="M26.4913 126.279C25.5428 125.352 25.3637 123.887 26.0803 123.002L65.4615 74.6422C66.1781 73.757 67.5271 73.7991 68.4755 74.7265L137.901 142.74C138.849 143.667 139.029 145.132 138.312 146.017L98.9308 194.377C98.2142 195.262 96.8652 195.22 95.9167 194.293L26.4913 126.279Z" fill="url(#paint0_linear_506_4359)"/>
<path d="M27.1002 126.227C26.1623 125.31 25.9726 123.856 26.6892 122.981L65.5121 75.3059C66.2182 74.4313 67.5564 74.4734 68.4943 75.3902L137.298 142.792C138.236 143.709 138.426 145.164 137.709 146.028L98.8865 193.703C98.1805 194.577 96.8422 194.535 95.9043 193.618L27.1002 126.227Z" fill="url(#paint1_linear_506_4359)"/>
<path d="M89.0431 151.223C92.0991 146.966 88.927 141.033 88.927 141.033L88.9061 141.022C88.9061 141.022 94.6388 143.815 98.1585 140C101.678 136.185 100.287 129.188 95.7137 126.111C91.1401 123.034 84.0056 124.224 79.4742 124.614C74.9427 125.015 71.3811 123.834 71.3811 123.834L71.3914 123.845C71.3914 123.845 72.8564 127.596 73.0039 132.581C73.1514 137.566 72.8774 145.469 76.1758 150.106C79.4743 154.743 85.987 155.481 89.0431 151.223Z" fill="url(#paint2_linear_506_4359)"/>
<path d="M69.4326 122.011C69.3589 122.106 69.338 122.243 69.3802 122.369C69.3907 122.412 70.8238 126.501 71.0873 131.928L71.1609 133.519C71.4665 140.042 71.8354 148.156 75.2182 151.855C77.4523 154.3 80.6032 155.818 83.6593 155.923C86.3465 156.007 88.6228 154.996 90.0665 152.994C92.7854 149.252 91.9107 145.185 91.3416 143.477C92.954 143.899 96.7268 144.405 99.8145 141.012C101.458 139.22 102.133 136.607 101.753 133.698C101.321 130.379 99.5826 127.112 97.1272 124.951C93.3756 121.674 86.3151 122.138 80.0975 122.559L78.7696 122.643C73.8272 122.96 69.791 121.906 69.7594 121.895C69.6224 121.885 69.5064 121.916 69.4326 122.011ZM99.3086 140.464C95.9259 144.173 91.679 142.877 90.8676 142.582C90.7411 142.54 90.6039 142.571 90.5196 142.666C90.4353 142.771 90.4248 142.919 90.4775 143.056C90.8358 143.91 92.4902 148.399 89.5079 152.498C88.1801 154.311 86.083 155.27 83.6065 155.186C80.7296 155.091 77.7685 153.668 75.682 151.371C72.5205 147.904 72.1516 139.958 71.8565 133.571L71.7829 131.97C71.5616 127.575 70.6235 124.098 70.2125 122.759C71.5087 123.033 74.9022 123.644 78.8751 123.392L80.2133 123.307C85.9988 122.917 93.2068 122.433 96.7371 125.521C99.0555 127.544 100.679 130.61 101.079 133.73C101.416 136.28 100.868 138.567 99.5508 140.19C99.4665 140.285 99.393 140.379 99.3086 140.464Z" fill="url(#paint3_linear_506_4359)"/>
<path d="M120.897 139.209C121.551 138.303 120.876 137.039 120.876 137.039C120.876 137.039 122.099 137.629 122.847 136.817C123.595 136.006 123.3 134.52 122.331 133.867C121.361 133.213 119.844 133.466 118.874 133.551C117.905 133.635 117.146 133.382 117.146 133.382C117.146 133.382 117.451 134.183 117.493 135.237C117.525 136.301 117.472 137.977 118.168 138.967C118.863 139.968 120.244 140.126 120.897 139.209Z" fill="url(#paint4_linear_506_4359)"/>
<path d="M116.726 133.003C116.705 133.024 116.705 133.055 116.716 133.076C116.716 133.076 117.022 133.951 117.074 135.11L117.095 135.447C117.158 136.838 117.243 138.567 117.959 139.346C118.433 139.863 119.108 140.189 119.761 140.211C120.33 140.232 120.815 140.01 121.121 139.589C121.7 138.788 121.511 137.924 121.395 137.565C121.742 137.66 122.543 137.766 123.197 137.039C123.545 136.659 123.692 136.101 123.608 135.479C123.513 134.773 123.144 134.077 122.617 133.614C121.816 132.918 120.32 133.013 118.992 133.108L118.708 133.129C117.654 133.192 116.79 132.971 116.79 132.971C116.769 132.971 116.737 132.981 116.726 133.003ZM123.081 136.923C122.364 137.713 121.458 137.439 121.279 137.376C121.247 137.365 121.226 137.376 121.205 137.397C121.184 137.418 121.184 137.449 121.195 137.481C121.268 137.66 121.627 138.619 120.984 139.494C120.699 139.884 120.257 140.084 119.73 140.063C119.118 140.042 118.486 139.736 118.044 139.252C117.369 138.514 117.295 136.828 117.232 135.469L117.222 135.131C117.169 134.193 116.979 133.456 116.884 133.171C117.158 133.234 117.885 133.361 118.729 133.308L119.013 133.287C120.246 133.203 121.774 133.097 122.533 133.751C123.028 134.183 123.365 134.836 123.46 135.5C123.534 136.038 123.418 136.533 123.133 136.87C123.112 136.891 123.102 136.912 123.081 136.923Z" fill="url(#paint5_linear_506_4359)"/>
<path d="M43.4956 129.788C42.8422 130.695 43.5168 131.959 43.5168 131.959C43.5168 131.959 42.2942 131.369 41.546 132.181C40.7978 132.992 41.093 134.478 42.0625 135.131C43.032 135.785 44.5496 135.532 45.5191 135.447C46.4886 135.363 47.2367 135.616 47.2367 135.616C47.2367 135.616 46.9312 134.815 46.8891 133.761C46.8575 132.697 46.9208 131.021 46.2147 130.031C45.5297 129.04 44.1489 128.882 43.4956 129.788Z" fill="url(#paint6_linear_506_4359)"/>
<path d="M47.6692 136.006C47.6797 135.985 47.69 135.953 47.6795 135.932C47.6795 135.932 47.3738 135.058 47.3106 133.898L47.2897 133.561C47.2265 132.17 47.1422 130.442 46.4256 129.662C45.9513 129.145 45.2768 128.819 44.6339 128.798C44.0649 128.777 43.5801 128.998 43.2745 129.42C42.6949 130.221 42.8846 131.085 43.0005 131.443C42.6633 131.348 41.852 131.243 41.1986 131.97C40.8508 132.349 40.7033 132.908 40.7876 133.529C40.8824 134.235 41.2512 134.931 41.7781 135.395C42.579 136.09 44.0754 135.995 45.4032 135.901L45.6878 135.88C46.7416 135.816 47.6058 136.038 47.6058 136.038C47.6269 136.038 47.6587 136.027 47.6692 136.006ZM41.3144 132.086C42.031 131.295 42.9375 131.569 43.1166 131.633C43.1482 131.643 43.1692 131.633 43.1903 131.612C43.2113 131.591 43.2114 131.559 43.2009 131.527C43.1271 131.348 42.7687 130.389 43.4115 129.515C43.6961 129.125 44.1389 128.924 44.6658 128.945C45.277 128.966 45.9093 129.272 46.3519 129.757C47.0264 130.494 47.1001 132.181 47.1633 133.54L47.1842 133.877C47.2264 134.815 47.4267 135.553 47.5216 135.837C47.2476 135.774 46.5203 135.648 45.6772 135.7L45.3929 135.721C44.1599 135.806 42.6317 135.911 41.873 135.247C41.3777 134.815 41.0407 134.162 40.9458 133.498C40.872 132.96 40.9877 132.465 41.2722 132.128C41.2722 132.128 41.2933 132.096 41.3144 132.086Z" fill="url(#paint7_linear_506_4359)"/>
<path d="M42.8433 126.132L42.622 125.921C42.4745 126.037 42.3268 126.1 42.1898 126.121C42.0528 126.142 41.8947 126.121 41.7261 126.058C41.5575 125.995 41.3152 125.889 41.0095 125.742L34.0543 122.264L33.4011 123.107L37.3845 130.157C37.6163 130.558 37.7638 130.905 37.827 131.179C37.9008 131.453 37.8693 131.696 37.7533 131.896L37.9852 132.086L39.6186 130.083L39.3974 129.883C39.2077 130.063 39.0283 130.157 38.8703 130.178C38.7016 130.199 38.5332 130.126 38.3435 129.968C38.2486 129.883 38.1431 129.778 38.0482 129.652C37.9534 129.525 37.8165 129.314 37.6479 129.019L37.3108 128.439L39.1549 126.142L39.9135 126.522C40.1032 126.617 40.2719 126.701 40.4194 126.796C40.5564 126.88 40.6829 126.975 40.7883 127.07C40.8937 127.175 40.9673 127.27 40.9989 127.375C41.0305 127.47 41.0412 127.586 41.0095 127.691C40.9779 127.807 40.9146 127.955 40.8198 128.144L41.0411 128.345L42.8433 126.132ZM34.6235 123.845L38.6596 125.858L36.9947 127.934L34.6235 123.845Z" fill="url(#paint8_linear_506_4359)"/>
<path d="M41.441 215.378C41.1986 216.737 40.4396 217.454 39.723 216.969L0.921571 190.518C0.215512 190.034 -0.163797 188.537 0.0680437 187.178L17.4875 87.223C17.7194 85.8636 18.4885 85.1469 19.1946 85.6317L57.9963 112.082C58.7024 112.567 59.0817 114.064 58.8498 115.423L41.441 215.378Z" fill="url(#paint9_linear_506_4359)"/>
<path d="M41.2216 214.725C40.9897 216.074 40.2309 216.78 39.5354 216.305L1.2817 190.234C0.586177 189.76 0.206622 188.274 0.438463 186.925L17.7 87.8655C17.9319 86.5166 18.6907 85.8106 19.3862 86.2849L57.6399 112.356C58.3354 112.831 58.715 114.316 58.4831 115.665L41.2216 214.725Z" fill="url(#paint10_linear_506_4359)"/>
<path d="M32.4094 134.413C32.4094 134.413 26.1918 144.34 21.9976 146.195C25.6649 156.564 26.5289 168.167 26.5289 168.167C26.5289 168.167 30.8286 160.084 36.9407 156.385C34.2113 149.809 32.4094 134.413 32.4094 134.413Z" fill="url(#paint11_linear_506_4359)"/>
<path d="M26.225 171.044C26.2777 170.949 31.2306 161.728 38.1648 157.544C38.228 157.513 38.2701 157.418 38.2911 157.302C38.3122 157.186 38.2912 157.059 38.249 156.954C35.1719 149.525 33.0747 131.936 33.0642 131.757C33.0326 131.483 32.8325 131.357 32.7271 131.525C32.6534 131.641 25.5293 142.938 20.7871 145.046C20.7239 145.078 20.6712 145.162 20.6501 145.267C20.629 145.383 20.6397 145.51 20.6713 145.615C24.8234 157.355 25.8562 170.664 25.8668 170.801C25.8773 170.949 25.93 171.075 26.0038 171.128C26.0881 171.17 26.1618 171.138 26.225 171.044ZM32.7374 132.527C33.1379 135.762 35.0138 149.957 37.7537 156.965C31.8102 160.685 27.3525 167.988 26.2038 169.969C25.9193 167.008 24.6863 155.826 21.1666 145.647C25.5188 143.476 31.4096 134.581 32.7374 132.527Z" fill="url(#paint12_linear_506_4359)"/>
<path d="M19.6443 105.781C19.6443 105.781 18.1162 108.215 17.094 108.668C17.9897 111.208 18.2003 114.053 18.2003 114.053C18.2003 114.053 19.2542 112.072 20.7506 111.166C20.0867 109.554 19.6443 105.781 19.6443 105.781Z" fill="url(#paint13_linear_506_4359)"/>
<path d="M18.1239 114.77C18.1345 114.749 19.3571 112.483 21.0537 111.461C21.0537 111.461 21.0852 111.429 21.0852 111.397C21.0852 111.366 21.0851 111.334 21.0746 111.313C20.3159 109.49 19.81 105.18 19.7995 105.138C19.7889 105.074 19.7468 105.043 19.7152 105.085C19.6941 105.117 17.9555 107.888 16.7857 108.405C16.7857 108.405 16.7539 108.436 16.7539 108.457C16.7539 108.478 16.7539 108.52 16.7539 108.542C17.7761 111.418 18.0291 114.685 18.0291 114.717C18.0291 114.749 18.0395 114.78 18.0606 114.801C18.0922 114.801 18.1134 114.791 18.1239 114.77ZM19.7258 105.327C19.8207 106.118 20.2844 109.595 20.9588 111.324C19.5046 112.241 18.4085 114.022 18.1239 114.517C18.0502 113.79 17.755 111.05 16.8909 108.552C17.9553 108.004 19.3991 105.823 19.7258 105.327Z" fill="url(#paint14_linear_506_4359)"/>
<path d="M40.7664 188.263C40.7664 188.263 39.2383 190.698 38.2161 191.151C39.1118 193.69 39.3224 196.536 39.3224 196.536C39.3224 196.536 40.3762 194.555 41.8727 193.648C41.2088 192.036 40.7664 188.263 40.7664 188.263Z" fill="url(#paint15_linear_506_4359)"/>
<path d="M39.2511 197.242C39.2616 197.221 40.4839 194.955 42.1805 193.933C42.1805 193.933 42.2124 193.901 42.2124 193.869C42.2124 193.838 42.2123 193.806 42.2018 193.785C41.443 191.962 40.9372 187.652 40.9266 187.61C40.9161 187.547 40.874 187.515 40.8424 187.557C40.8213 187.589 39.0823 190.36 37.9126 190.877C37.8915 190.887 37.8811 190.908 37.8811 190.929C37.8705 190.961 37.8811 190.993 37.8917 191.014C38.9139 193.891 39.1668 197.157 39.1668 197.189C39.1668 197.221 39.1878 197.252 39.1983 197.273C39.1983 197.273 39.23 197.263 39.2511 197.242ZM40.8424 187.799C40.9372 188.59 41.4009 192.067 42.0754 193.796C40.6211 194.712 39.525 196.493 39.2405 196.989C39.1667 196.262 38.8716 193.522 38.0074 191.024C39.0718 190.487 40.5157 188.305 40.8424 187.799Z" fill="url(#paint16_linear_506_4359)"/>
<path d="M22.4333 105.127L22.486 104.811C22.3807 104.684 22.2962 104.547 22.2436 104.4C22.1909 104.252 22.1595 104.073 22.1384 103.873C22.1173 103.662 22.1066 103.367 22.1066 102.977L21.9802 94.1255L21.3164 93.7038L18.5554 100.533C18.3974 100.923 18.2496 101.207 18.1126 101.376C17.9756 101.544 17.8388 101.607 17.6913 101.544L17.6492 101.86L19.2614 102.956L19.3035 102.64C19.1454 102.493 19.04 102.335 18.9767 102.155C18.9135 101.976 18.903 101.765 18.9346 101.502C18.9557 101.365 18.9873 101.218 19.0295 101.07C19.0716 100.912 19.1454 100.701 19.2614 100.406L19.4826 99.8371L21.3164 101.059L21.327 102.018C21.327 102.261 21.327 102.482 21.327 102.661C21.3165 102.851 21.3056 103.02 21.2845 103.167C21.2635 103.325 21.2215 103.441 21.1794 103.504C21.1372 103.578 21.074 103.62 21.0002 103.62C20.9265 103.631 20.8209 103.61 20.6944 103.568L20.642 103.884L22.4333 105.127ZM21.2636 95.3057L21.3373 100.438L19.683 99.3312L21.2636 95.3057Z" fill="url(#paint17_linear_506_4359)"/>
<path d="M36.4783 197.452L36.4255 197.769C36.5309 197.895 36.6153 198.032 36.668 198.169C36.7207 198.316 36.7521 198.496 36.7732 198.696C36.7943 198.907 36.805 199.202 36.805 199.592L36.9314 208.444L37.5952 208.865L40.3565 202.036C40.5145 201.647 40.662 201.362 40.799 201.194C40.936 201.025 41.0731 200.962 41.2206 201.025L41.2627 200.709L39.6502 199.613L39.6081 199.929C39.7662 200.076 39.8716 200.235 39.9348 200.414C39.9981 200.582 40.0086 200.803 39.977 201.067C39.9559 201.204 39.9242 201.352 39.8821 201.499C39.8399 201.657 39.7661 201.878 39.6502 202.163L39.429 202.742L37.5952 201.52L37.5849 200.561C37.5849 200.319 37.5849 200.098 37.5849 199.918C37.5954 199.729 37.606 199.56 37.627 199.413C37.6481 199.254 37.69 199.138 37.7322 199.075C37.7744 199.001 37.8376 198.959 37.9113 198.959C37.9851 198.949 38.0907 198.97 38.2172 199.012L38.2699 198.696L36.4783 197.452ZM37.6479 207.284L37.5743 202.152L39.2286 203.259L37.6479 207.284Z" fill="url(#paint18_linear_506_4359)"/>
<path d="M109.864 0.549217C108.694 -0.22007 107.577 -0.177818 107.366 0.654701L95.5318 46.3904C95.3105 47.223 96.0798 48.5297 97.2495 49.299L182.63 106.047C183.8 106.817 184.917 106.774 185.127 105.931L196.962 60.1955C197.183 59.3629 196.414 58.0562 195.244 57.2869L109.864 0.549217Z" fill="url(#paint19_linear_506_4359)"/>
<path d="M110.16 1.1499C109.011 0.380615 107.894 0.433411 107.683 1.25539L96.0176 46.3376C95.8068 47.1596 96.5654 48.4454 97.7246 49.2147L182.347 105.457C183.495 106.226 184.612 106.174 184.823 105.352L196.489 60.269C196.699 59.4471 195.941 58.1616 194.782 57.3923L110.16 1.1499Z" fill="url(#paint20_linear_506_4359)"/>
<path d="M119.306 14.3332L119.043 14.1541C118.969 14.2806 118.895 14.3647 118.832 14.4069C118.769 14.449 118.695 14.4701 118.611 14.449C118.527 14.4279 118.411 14.3754 118.284 14.2911C118.158 14.2068 118.031 14.1014 117.884 13.975C117.736 13.8485 117.589 13.7007 117.42 13.5321L116.735 12.8577L117.315 10.7078L117.905 10.9503C118.2 11.0662 118.421 11.1613 118.558 11.2456C118.706 11.3193 118.832 11.4037 118.937 11.4774C119.148 11.6355 119.296 11.7935 119.37 11.9621C119.443 12.1202 119.475 12.3099 119.454 12.5207L119.717 12.7101L120.212 10.8133L119.96 10.6236C119.886 10.7711 119.738 10.8238 119.507 10.8027C119.275 10.7816 118.959 10.6868 118.548 10.5287L111.466 7.76777L111.245 8.53704L117.494 14.7442C117.768 15.0077 117.968 15.2287 118.105 15.3868C118.242 15.5449 118.337 15.6927 118.4 15.8296C118.463 15.9666 118.495 16.1142 118.505 16.2828L118.769 16.4619L119.306 14.3332ZM116.798 10.4866L116.271 12.4258L112.657 8.83227L116.798 10.4866Z" fill="url(#paint21_linear_506_4359)"/>
<defs>
<linearGradient id="paint0_linear_506_4359" x1="103.191" y1="108.734" x2="56.8505" y2="156.031" gradientUnits="userSpaceOnUse">
<stop stop-color="#CDCCCB"/>
<stop offset="0.9947" stop-color="#B6B4B3"/>
</linearGradient>
<linearGradient id="paint1_linear_506_4359" x1="103.391" y1="109.332" x2="57.2304" y2="155.212" gradientUnits="userSpaceOnUse">
<stop stop-color="#F3F5F4"/>
<stop offset="0.7063" stop-color="#E5E5E4"/>
<stop offset="0.9947" stop-color="#D4D2D1"/>
</linearGradient>
<linearGradient id="paint2_linear_506_4359" x1="103.25" y1="110.521" x2="56.19" y2="156.827" gradientUnits="userSpaceOnUse">
<stop stop-color="#EF0A07"/>
<stop offset="1" stop-color="#C70000"/>
</linearGradient>
<linearGradient id="paint3_linear_506_4359" x1="102.992" y1="110.257" x2="55.932" y2="156.564" gradientUnits="userSpaceOnUse">
<stop stop-color="#EF0A07"/>
<stop offset="1" stop-color="#C70000"/>
</linearGradient>
<linearGradient id="paint4_linear_506_4359" x1="123.474" y1="131.079" x2="76.4168" y2="177.383" gradientUnits="userSpaceOnUse">
<stop stop-color="#EF0A07"/>
<stop offset="1" stop-color="#C70000"/>
</linearGradient>
<linearGradient id="paint5_linear_506_4359" x1="123.422" y1="131.022" x2="76.3643" y2="177.329" gradientUnits="userSpaceOnUse">
<stop stop-color="#EF0A07"/>
<stop offset="1" stop-color="#C70000"/>
</linearGradient>
<linearGradient id="paint6_linear_506_4359" x1="82.3701" y1="89.3082" x2="35.314" y2="135.613" gradientUnits="userSpaceOnUse">
<stop stop-color="#EF0A07"/>
<stop offset="1" stop-color="#C70000"/>
</linearGradient>
<linearGradient id="paint7_linear_506_4359" x1="82.4266" y1="89.3623" x2="35.3682" y2="135.666" gradientUnits="userSpaceOnUse">
<stop stop-color="#EF0A07"/>
<stop offset="1" stop-color="#C70000"/>
</linearGradient>
<linearGradient id="paint8_linear_506_4359" x1="74.8365" y1="81.6473" x2="27.7773" y2="127.951" gradientUnits="userSpaceOnUse">
<stop stop-color="#EF0A07"/>
<stop offset="1" stop-color="#C70000"/>
</linearGradient>
<linearGradient id="paint9_linear_506_4359" x1="8.78031" y1="137.203" x2="53.6995" y2="145.032" gradientUnits="userSpaceOnUse">
<stop stop-color="#CDCCCB"/>
<stop offset="0.9947" stop-color="#B6B4B3"/>
</linearGradient>
<linearGradient id="paint10_linear_506_4359" x1="9.07624" y1="137.402" x2="53.3571" y2="145.12" gradientUnits="userSpaceOnUse">
<stop stop-color="#F3F5F4"/>
<stop offset="0.7063" stop-color="#E5E5E4"/>
<stop offset="0.9947" stop-color="#D4D2D1"/>
</linearGradient>
<linearGradient id="paint11_linear_506_4359" x1="9.99662" y1="137.847" x2="53.8349" y2="145.608" gradientUnits="userSpaceOnUse">
<stop stop-color="#EF0A07"/>
<stop offset="1" stop-color="#C70000"/>
</linearGradient>
<linearGradient id="paint12_linear_506_4359" x1="48.4164" y1="150.517" x2="9.20166" y2="152.132" gradientUnits="userSpaceOnUse">
<stop stop-color="#EF0A07"/>
<stop offset="1" stop-color="#C70000"/>
</linearGradient>
<linearGradient id="paint13_linear_506_4359" x1="15.3783" y1="107.474" x2="59.217" y2="115.235" gradientUnits="userSpaceOnUse">
<stop stop-color="#EF0A07"/>
<stop offset="1" stop-color="#C70000"/>
</linearGradient>
<linearGradient id="paint14_linear_506_4359" x1="22.3703" y1="109.781" x2="-16.8474" y2="111.398" gradientUnits="userSpaceOnUse">
<stop stop-color="#EF0A07"/>
<stop offset="1" stop-color="#C70000"/>
</linearGradient>
<linearGradient id="paint15_linear_506_4359" x1="4.66652" y1="167.964" x2="48.5052" y2="175.725" gradientUnits="userSpaceOnUse">
<stop stop-color="#EF0A07"/>
<stop offset="1" stop-color="#C70000"/>
</linearGradient>
<linearGradient id="paint16_linear_506_4359" x1="74.4793" y1="190.979" x2="35.2628" y2="192.595" gradientUnits="userSpaceOnUse">
<stop stop-color="#EF0A07"/>
<stop offset="1" stop-color="#C70000"/>
</linearGradient>
<linearGradient id="paint17_linear_506_4359" x1="23.3827" y1="99.3562" x2="-16.1979" y2="100.987" gradientUnits="userSpaceOnUse">
<stop stop-color="#EF0A07"/>
<stop offset="1" stop-color="#C70000"/>
</linearGradient>
<linearGradient id="paint18_linear_506_4359" x1="73.7737" y1="201.653" x2="34.1904" y2="203.283" gradientUnits="userSpaceOnUse">
<stop stop-color="#EF0A07"/>
<stop offset="1" stop-color="#C70000"/>
</linearGradient>
<linearGradient id="paint19_linear_506_4359" x1="139.943" y1="77.6801" x2="166.287" y2="38.0451" gradientUnits="userSpaceOnUse">
<stop stop-color="#CDCCCB"/>
<stop offset="0.9947" stop-color="#B6B4B3"/>
</linearGradient>
<linearGradient id="paint20_linear_506_4359" x1="140.033" y1="77.3352" x2="166.004" y2="38.2615" gradientUnits="userSpaceOnUse">
<stop stop-color="#F3F5F4"/>
<stop offset="0.7063" stop-color="#E5E5E4"/>
<stop offset="0.9947" stop-color="#D4D2D1"/>
</linearGradient>
<linearGradient id="paint21_linear_506_4359" x1="103.726" y1="52.4624" x2="129.615" y2="14.2738" gradientUnits="userSpaceOnUse">
<stop stop-color="#2C2C28"/>
<stop offset="0.0245" stop-color="#2B2B27"/>
<stop offset="0.63" stop-color="#111511"/>
<stop offset="0.9947" stop-color="#080D09"/>
</linearGradient>
</defs>
</svg>
