<svg width="222" height="318" viewBox="0 0 222 318" fill="none" xmlns="http://www.w3.org/2000/svg">
<path d="M-51.1115 138.992C-43.8709 125.986 -40.2304 114.497 -40.2153 99.4559C-40.2002 84.5166 -44.2289 75.815 -47.234 61.5535C-49.8761 48.9817 -51.9333 31.5483 -54.3989 19.2902C-44.7835 23.818 -39.5144 29.1452 -31.1141 36.0255C-24.0147 41.8535 -18.9927 46.1891 -10.8798 50.0391C-20.6718 34.0373 -11.5807 0 -11.5807 0C2.56262 18.8854 12.4352 43.7912 28.8929 54.9363C45.865 66.4203 60.5983 75.4254 80.8124 80.9803C95.5507 85.0427 130.675 105.001 130.675 105.001C130.675 105.001 136.448 120.663 139.387 128.267C143.608 139.159 145.947 151.21 152.27 160.868C165.274 180.725 176.76 192.173 194.277 201.158C200.978 204.593 207.568 207.801 214.829 210.689C224.661 214.61 222.12 215.759 218.948 224.399C214.567 236.334 213.493 248.718 214.814 261.599C216.099 274.12 213.195 285.983 200.731 292.489C199.037 274.732 188.241 264.897 172.853 257.005C165.637 253.307 158.997 249.33 151.464 246.26C142.433 242.577 139.902 242.749 133.206 249.381C131.779 243.831 133.266 240.836 129.263 236.743C125.859 233.263 119.309 231.29 115.024 229.19C105.333 224.44 94.6532 221.622 84.4125 218.784C93.1557 223.514 104.475 231.315 111.242 238.529C115.306 242.855 114.817 244.798 115.795 250.448C117.172 258.325 117.666 258.71 125.32 259.19C130.18 259.499 136.519 257.87 141.177 259.175C145.398 260.354 150.314 264.457 154.605 266.364C163.177 270.179 171.552 274.373 180.623 277.611C180.406 283.985 166.746 292.919 161.729 296.744C153.748 302.825 145.015 308.567 137.355 314.744C136.71 304.899 138.954 297.285 130.07 291.776C121.493 286.464 111.706 282.3 102.348 278.071C92.5203 273.634 85.663 268.044 76.2038 273.492C67.854 278.314 65.4589 285.862 65.7514 295.681C58.3091 288.933 51.3257 278.005 46.8583 268.742C43.2481 261.26 41.9875 248.678 35.826 243.254C23.1398 232.084 5.07867 238.008 -7.49655 227.556C-3.97711 224.268 8.92589 215.02 13.7412 213.887C17.9464 212.9 -3.47792 187.327 -4.36534 184.939C-7.52176 176.379 -4.12833 155.151 3.97447 147.815C14.4269 155.586 21.6776 166.888 38.0496 171.659C54.2854 176.389 70.5263 170.095 82.6578 184.155C76.0677 171.128 55.4804 164.768 44.3876 164.237C33.2948 163.711 27.461 158.283 19.5699 152.05C11.6789 145.817 0.555832 128.738 0.555832 128.738C0.555832 128.738 -3.35185 137.581 -7.46124 143.621C-11.5303 149.601 -15.7556 155.601 -17.6011 162.704C-22.1391 180.183 -3.81071 194.242 -10.0076 211.393C-12.3875 217.974 -28.699 228.33 -28.23 235.226C-18.9272 235.499 -9.37221 239.172 -0.624008 242.303C6.56111 244.868 20.5431 245.835 23.7399 252.831C27.3349 260.668 24.3399 279.022 22.9129 287.172C21.3398 296.117 13.9529 311.542 6.88884 317.354C-2.49467 307.135 -46.1903 241.934 -62.29 217.221C-68.27 208.033 -82.1259 187.311 -85 176.951C-72.2079 171.745 -57.4193 150.335 -51.1115 138.992ZM103.901 146.515C107.586 150.74 122.088 158.004 127.523 155.035C123.832 149.733 120.056 140.667 114.222 134.48C113.148 137.819 111.65 141.254 108.02 141.446C107.657 134.105 109.386 131.247 109.386 131.247C109.386 131.247 96.3625 120.957 93.0094 117.805C93.1607 124.761 99.4786 141.456 103.901 146.515Z" fill="url(#paint0_linear_57_509)"/>
<defs>
<linearGradient id="paint0_linear_57_509" x1="116.11" y1="337.494" x2="12.0862" y2="42.2589" gradientUnits="userSpaceOnUse">
<stop stop-color="#F58B1F"/>
<stop offset="1" stop-color="#EC2024"/>
</linearGradient>
</defs>
</svg>
