<svg width="92" height="230" viewBox="0 0 92 230" fill="none" xmlns="http://www.w3.org/2000/svg">
<path d="M5.94748 43.0372C4.95634 41.2489 5.6284 39.9885 7.45846 40.2124L107.113 52.1904C108.943 52.4143 111.2 54.0244 112.191 55.8127L184.557 186.59C185.548 188.379 184.877 189.639 183.047 189.415L83.3915 177.437C81.5692 177.231 79.3048 175.603 78.3137 173.815L5.94748 43.0372Z" fill="url(#paint0_linear_57_511)"/>
<path d="M7.03487 43.2309C6.04651 41.4553 6.70899 40.1977 8.48894 40.4265L106.375 52.7313C108.155 52.96 110.41 54.5822 111.399 56.3578L183.492 186.388C184.48 188.163 183.818 189.421 182.038 189.193L84.1522 176.887C82.3723 176.658 80.1166 175.036 79.136 173.279L7.03487 43.2309Z" fill="url(#paint1_linear_57_511)"/>
<path d="M29.3886 63.1608L29.1559 62.7536C29.445 62.7483 29.6573 62.7079 29.7824 62.6587C29.9075 62.6094 29.9815 62.5371 29.9784 62.4298C29.9931 62.3155 29.9306 62.1666 29.8194 61.9498C29.716 61.7518 29.5689 61.5486 29.3808 61.2971C29.2004 61.0642 28.9689 60.8084 28.696 60.5034L27.6635 59.3252L22.9936 58.7532L23.1872 59.5674C23.2713 59.9684 23.3603 60.2806 23.4458 60.4857C23.5314 60.6908 23.6346 60.8893 23.7303 61.0687C23.9317 61.4019 24.1889 61.6694 24.4943 61.8531C24.7819 62.0438 25.1513 62.1808 25.592 62.2895L25.8422 62.6899L21.7125 62.1663L21.4623 61.766C21.7949 61.7653 21.9858 61.625 22.0533 61.3379C22.1208 61.0509 22.0903 60.6288 21.9619 60.0715L19.8742 50.2781L21.5536 50.4637L31.0976 61.2725C31.5198 61.7359 31.842 62.1088 32.1094 62.3509C32.3589 62.6 32.6104 62.8046 32.8568 62.9464C33.1032 63.0882 33.3855 63.2163 33.7213 63.3229L33.954 63.7301L29.3886 63.1608ZM22.7774 58.0354L27.0044 58.5426L21.4589 52.281L22.7774 58.0354Z" fill="url(#paint2_linear_57_511)"/>
<path d="M69.7049 107.919C74.5508 114.826 81.7469 119.417 89.3986 124.199C97.0503 128.98 107.964 137.724 107.964 137.724C107.964 137.724 110.184 130.649 113.286 127.232C116.387 123.814 119.194 120.491 116.518 113.884C113.86 107.269 104.89 101.178 98.925 99.7368C92.9682 98.3145 90.85 100.888 90.3416 104.918C88.5184 99.3028 89.3613 95.4244 90.5129 93.0349L90.095 92.6334C86.6339 93.6897 83.2997 93.1511 83.2997 93.1511L83.3076 93.1699C82.5296 93.1059 79.3404 92.8146 74.5984 90.6535L74.5277 90.8334C78.6871 93.8982 84.419 98.6298 89.1398 104.738C83.7439 99.9616 78.2059 96.3941 73.0527 96.3967C67.905 96.4623 64.8668 101.03 69.7049 107.919Z" fill="url(#paint3_linear_57_511)"/>
<path d="M68.2828 87.1743C68.3264 87.179 68.3782 87.2021 68.4397 87.1997C76.2405 89.8563 79.2813 90.2493 81.7216 90.5522C84.1618 90.8552 87.2025 91.2487 93.0198 90.355C93.1966 90.3291 93.4892 90.4315 93.716 90.6252C93.9429 90.819 94.0447 91.0619 93.9942 91.1906C93.2773 93.0171 92.8348 94.4532 92.37 95.9848C92.2016 96.5297 92.0334 97.0742 91.8549 97.6448C93.6453 96.9411 96.0806 96.833 98.9612 97.4416C102.519 98.1755 106.879 100.379 110.638 103.34C113.436 105.547 117.213 109.198 119.255 113.987C122.581 121.797 119.15 125.56 115.84 129.211C112.613 132.764 110.32 139.997 110.058 140.818C110.018 140.921 109.91 140.963 109.762 140.956L109.648 140.935C109.492 140.91 109.294 140.835 109.134 140.702C107.879 139.694 96.5884 130.728 88.5934 125.711C80.4956 120.647 72.1429 115.422 66.6156 107.281C63.3138 102.421 63.3049 99.357 63.8762 97.6311C64.6742 95.2505 67.1297 93.8934 70.4638 94.0409C73.2644 94.1587 76.347 95.1014 78.7764 96.1266C77.7818 95.3425 76.8643 94.5935 75.9368 93.8701C73.5688 91.9939 71.3453 90.2137 68.3414 87.9129C68.0966 87.7263 67.9595 87.4969 67.9765 87.3379C67.9833 87.2046 68.1083 87.1559 68.2828 87.1743ZM90.9284 99.6191C90.7976 99.6052 90.6253 99.5424 90.4733 99.4281C90.2029 99.2297 90.0247 98.9519 90.0775 98.7789C90.5208 97.495 90.8753 96.3982 91.2121 95.3084C91.5916 94.0714 91.941 92.9114 92.4504 91.5363C87.3727 92.2046 84.4446 91.8324 82.2583 91.5385C80.0797 91.2632 77.1519 90.8906 70.4925 88.7209C72.7107 90.4384 74.5223 91.8803 76.4265 93.3948C78.1195 94.7529 79.8379 96.1228 81.8785 97.7142C82.1489 97.9126 82.2916 98.2047 82.2053 98.3474C82.1269 98.5088 81.8477 98.4879 81.5492 98.3224C79.0969 96.8928 74.7377 95.19 71.0881 95.0359C68.0079 94.8974 65.7515 96.1323 65.014 98.3586C64.4932 99.9558 64.4876 102.787 67.5616 107.301C72.8376 115.04 80.9691 120.135 88.8199 125.056C96.1945 129.686 106.287 137.579 109.026 139.744C109.589 138 111.776 131.657 114.76 128.374C118.127 124.657 121.325 121.137 118.164 113.72C116.254 109.249 112.762 105.878 110.175 103.827C106.694 101.082 102.676 99.0497 99.4028 98.3996C98.9253 98.3044 98.4558 98.2275 98.0118 98.1627C95.0147 97.774 92.523 98.2965 91.195 99.5581C91.1312 99.605 91.0414 99.64 90.9284 99.6191Z" fill="url(#paint4_linear_57_511)"/>
<path d="M36.9865 71.4734C35.9724 70.0442 34.4861 69.0834 32.879 68.0833C31.2719 67.0831 29.0057 65.2539 29.0057 65.2539C29.0057 65.2539 28.534 66.7236 27.8913 67.4333C27.2486 68.143 26.6594 68.8316 27.2191 70.2218C27.7709 71.5933 29.644 72.8805 30.8929 73.1728C32.1418 73.4651 32.5647 72.9289 32.678 72.101C33.0645 73.2764 32.8819 74.0882 32.646 74.5727L32.7212 74.652C33.4436 74.4332 34.1399 74.551 34.1399 74.551C34.2966 74.5765 34.9691 74.6379 35.9647 75.0734L35.9751 75.048C35.1041 74.4113 33.9176 73.4194 32.9301 72.1539C34.0546 73.148 35.2011 73.8943 36.2815 73.8829C37.354 73.8529 38.0006 72.9025 36.9865 71.4734Z" fill="url(#paint5_linear_57_511)"/>
<path d="M37.2851 75.7899C37.2594 75.7782 37.2672 75.7969 37.2851 75.7899C35.6303 75.2217 34.9942 75.1458 34.4887 75.0834C33.9832 75.0209 33.347 74.9442 32.1276 75.1188C32.0918 75.1329 32.0323 75.0909 31.9809 75.0676C31.9396 75.0186 31.9061 74.9884 31.9263 74.937C32.0778 74.5511 32.1632 74.2562 32.2587 73.9359C32.2913 73.8143 32.3315 73.7113 32.364 73.5897C31.9881 73.7374 31.4782 73.7639 30.8799 73.6291C30.1329 73.4875 29.2272 73.0165 28.4516 72.4074C27.8616 71.943 27.0852 71.1819 26.6535 70.1984C25.9563 68.5794 26.664 67.7792 27.3695 67.0232C28.0393 66.2813 28.5118 64.7686 28.5724 64.6143C28.5825 64.5885 28.6003 64.5815 28.644 64.5861L28.6699 64.5979C28.6956 64.6095 28.7391 64.6141 28.7726 64.6445C29.0252 64.8498 31.3934 66.7262 33.0588 67.7688C34.7499 68.8231 36.4923 69.9002 37.6413 71.6027C38.3348 72.6139 38.3287 73.2479 38.213 73.6197C38.0469 74.1202 37.5331 74.3869 36.8408 74.3762C36.2636 74.3419 35.624 74.1582 35.1176 73.9438C35.3288 74.1001 35.5224 74.2637 35.7079 74.4083C36.2052 74.8004 36.6689 75.1621 37.2925 75.6568C37.3517 75.6988 37.3668 75.7361 37.3645 75.7806C37.3466 75.7876 37.3108 75.8015 37.2851 75.7899ZM32.5514 73.19C32.5771 73.2017 32.6207 73.2062 32.6542 73.2366C32.7134 73.2786 32.7369 73.3345 32.7347 73.3789C32.6415 73.6549 32.5685 73.8792 32.4955 74.1037C32.4124 74.354 32.347 74.5974 32.236 74.8804C33.3043 74.7434 33.8974 74.8148 34.3593 74.8726C34.8212 74.9304 35.4216 75.0212 36.8115 75.4541C36.3477 75.0924 35.9686 74.7841 35.5718 74.4831C35.2265 74.2054 34.8559 73.9163 34.4256 73.5849C34.3664 73.5429 34.3427 73.4865 34.3528 73.4608C34.3629 73.4351 34.4248 73.433 34.484 73.475C35.0038 73.7712 35.906 74.1343 36.6677 74.1613C37.3063 74.1932 37.7761 73.9215 37.9399 73.4655C38.0533 73.138 38.0577 72.5488 37.4134 71.6053C36.3214 69.9892 34.6224 68.9162 32.9905 67.9039C31.4436 66.9452 29.3536 65.2865 28.7714 64.8408C28.6557 65.2127 28.2027 66.5223 27.5711 67.2057C26.8733 67.9803 26.2035 68.722 26.8695 70.2663C27.2599 71.2007 27.9873 71.894 28.5438 72.328C29.2601 72.8951 30.1061 73.3239 30.7916 73.4679C30.8866 73.4958 30.9917 73.498 31.0868 73.5259C31.7052 73.6092 32.2202 73.4944 32.5057 73.2299C32.5158 73.2041 32.5335 73.197 32.5514 73.19Z" fill="url(#paint6_linear_57_511)"/>
<defs>
<linearGradient id="paint0_linear_57_511" x1="165.674" y1="101.068" x2="25.6614" y2="132.273" gradientUnits="userSpaceOnUse">
<stop stop-color="#CDCCCB"/>
<stop offset="0.9947" stop-color="#B6B4B3"/>
</linearGradient>
<linearGradient id="paint1_linear_57_511" x1="164.421" y1="101.585" x2="27.1457" y2="132.702" gradientUnits="userSpaceOnUse">
<stop stop-color="#F3F5F4"/>
<stop offset="0.7063" stop-color="#E5E5E4"/>
<stop offset="0.9947" stop-color="#D4D2D1"/>
</linearGradient>
<linearGradient id="paint2_linear_57_511" x1="64.547" y1="0.058592" x2="17.6182" y2="65.4684" gradientUnits="userSpaceOnUse">
<stop stop-color="#2C2C28"/>
<stop offset="0.0245" stop-color="#2B2B27"/>
<stop offset="0.63" stop-color="#111511"/>
<stop offset="0.9947" stop-color="#080D09"/>
</linearGradient>
<linearGradient id="paint3_linear_57_511" x1="142.63" y1="104.327" x2="43.3335" y2="127.303" gradientUnits="userSpaceOnUse">
<stop stop-color="#2C2C28"/>
<stop offset="0.0245" stop-color="#2B2B27"/>
<stop offset="0.63" stop-color="#111511"/>
<stop offset="0.9947" stop-color="#080D09"/>
</linearGradient>
<linearGradient id="paint4_linear_57_511" x1="109.465" y1="83.1275" x2="72.4555" y2="134.689" gradientUnits="userSpaceOnUse">
<stop stop-color="#2C2C28"/>
<stop offset="0.0245" stop-color="#2B2B27"/>
<stop offset="0.63" stop-color="#111511"/>
<stop offset="0.9947" stop-color="#080D09"/>
</linearGradient>
<linearGradient id="paint5_linear_57_511" x1="120.092" y1="53.2712" x2="20.7952" y2="76.2442" gradientUnits="userSpaceOnUse">
<stop stop-color="#2C2C28"/>
<stop offset="0.0245" stop-color="#2B2B27"/>
<stop offset="0.63" stop-color="#111511"/>
<stop offset="0.9947" stop-color="#080D09"/>
</linearGradient>
<linearGradient id="paint6_linear_57_511" x1="63.0558" y1="24.608" x2="26.0494" y2="76.1644" gradientUnits="userSpaceOnUse">
<stop stop-color="#2C2C28"/>
<stop offset="0.0245" stop-color="#2B2B27"/>
<stop offset="0.63" stop-color="#111511"/>
<stop offset="0.9947" stop-color="#080D09"/>
</linearGradient>
</defs>
</svg>
