<svg width="95" height="123" viewBox="0 0 95 123" fill="none" xmlns="http://www.w3.org/2000/svg">
<g id="Group">
<g id="Group_2">
<g id="Group_3">
<path id="Vector" d="M78.4338 97.0144C118.243 94.3567 159.202 72.8501 169.456 33.0221L173.98 50.9099C180.256 76.6766 147.704 106.74 101.26 118.05C54.8159 129.359 12.0852 117.635 5.80844 91.8684L1.17154 72.7933C21.6793 89.4936 51.9132 99.4837 78.4338 97.0144Z" fill="url(#paint0_linear_57_433)"/>
<path id="Vector_2" d="M3.76866 76.8082L8.12256 98.1451C7.18011 96.2791 6.23752 93.8854 5.74744 91.8309L0.752742 71.2855C1.26167 71.719 3.25974 76.4124 3.76866 76.8082Z" fill="url(#paint1_linear_57_433)"/>
<path id="Vector_3" d="M52.042 121.481C42.7117 120.331 34.3045 118.069 27.2738 114.808L21.4686 90.9451C29.2345 94.0552 37.5469 95.94 46.0855 96.939L52.042 121.481Z" fill="url(#paint2_linear_57_433)"/>
<path id="Vector_4" d="M110.814 90.5679L116.412 113.526C111.549 115.242 106.498 116.768 101.258 118.05C95.9989 119.332 90.7967 120.312 85.6886 121.01L79.8075 96.9012C90.2687 96.0907 100.786 93.9796 110.814 90.5679Z" fill="url(#paint3_linear_57_433)"/>
</g>
<g id="Group_4">
<g id="Group_5">
<g id="Group_6">
<path id="Vector_5" d="M83.9358 45.764L67.2732 44.7648L65.8782 39.6758C70.7413 37.9417 75.8121 36.4339 81.0522 35.1522C86.2922 33.8704 91.4942 32.89 96.6023 32.1926L97.9219 37.0182L83.9358 45.764Z" fill="#0000FF"/>
<path id="Vector_6" d="M40.15 67.5911L23.7514 74.4525L16.457 72.5674C21.1127 66.4226 27.4458 60.5229 35.1174 55.1887L42.1294 57.0167L40.15 67.5911Z" fill="#0000FF"/>
</g>
<g id="Group_7">
<path id="Vector_7" d="M0.922852 71.1726C7.1619 96.8073 49.7985 108.456 96.1483 97.1654C142.498 85.8748 175.013 55.9426 168.755 30.3078C162.516 4.67312 119.879 -6.97556 73.5292 4.31503C27.1794 15.6056 -5.31618 45.5379 0.922852 71.1726Z" fill="url(#paint4_linear_57_433)"/>
<path id="Vector_8" d="M21.32 66.2718C26.0699 85.7429 58.3583 94.6023 93.4552 86.0636C128.552 77.525 153.15 54.7927 148.419 35.3217C143.669 15.8506 111.38 6.99176 76.2835 15.5304C41.1866 24.069 16.57 46.8007 21.32 66.2718Z" fill="#800000"/>
<g id="Group_8">
<path id="Vector_9" d="M93.0777 84.5364C126.61 76.3748 150.19 54.585 145.666 35.9999C141.142 17.3958 110.174 8.89496 76.6602 17.0755C43.1277 25.2371 19.5473 47.0268 24.0711 65.612C28.5949 84.1972 59.5453 92.6981 93.0777 84.5364ZM76.9806 18.4514C109.118 10.629 138.787 18.7719 143.122 36.5843C147.457 54.4155 124.857 75.2812 92.7194 83.1035C60.5817 90.9259 30.9132 82.783 26.578 64.9706C22.2427 47.1583 44.8618 26.2738 76.9806 18.4514Z" fill="url(#paint5_linear_57_433)"/>
</g>
<path id="Vector_10" d="M29.7815 64.1983C33.8906 81.087 61.8812 88.7587 92.3036 81.351C122.726 73.9433 144.063 54.2459 139.954 37.376C135.845 20.4872 107.854 12.8156 77.4317 20.2233C46.9904 27.6309 25.6724 47.3284 29.7815 64.1983Z" fill="#B00000"/>
<path id="Vector_11" d="M37.0162 62.6146C40.5975 77.3357 64.9124 84.0464 91.3199 77.6188C117.727 71.1913 136.237 54.0384 132.656 39.3173C129.074 24.5962 104.76 17.8861 78.352 24.3136C51.9256 30.7412 33.4348 47.8935 37.0162 62.6146Z" fill="#800000"/>
<path id="Vector_12" d="M37.7748 62.2569C41.2808 76.6953 65.219 83.2545 91.2307 76.9212C117.242 70.5879 135.47 53.7558 131.945 39.3174C128.439 24.8791 104.501 18.3199 78.5078 24.6532C52.515 30.9865 34.2689 47.8374 37.7748 62.2569Z" fill="url(#paint6_linear_57_433)"/>
<g id="Group_9">
<path id="Vector_13" d="M76.3982 14.7579L59.7356 13.7587L58.3406 8.65072C63.2037 6.93546 68.274 5.40829 73.514 4.12656C78.754 2.84482 83.9566 1.865 89.0647 1.16759L90.3843 5.9926L76.3982 14.7579Z" fill="url(#paint7_linear_57_433)"/>
<path id="Vector_14" d="M93.5086 87.5337L110.171 88.5323L111.377 92.9242C106.533 94.6394 101.463 96.1666 96.2231 97.4483C90.9642 98.7301 85.7615 99.7099 80.6534 100.407L79.5225 96.2985L93.5086 87.5337Z" fill="url(#paint8_linear_57_433)"/>
<path id="Vector_15" d="M19.4512 66.9315L12.9292 77.6382L4.46591 79.7867C2.7695 77.1478 1.50692 74.3207 0.771803 71.286C0.093235 68.4963 -0.133289 65.6687 0.0740509 62.8036L8.29233 60.7305L19.4512 66.9315Z" fill="url(#paint9_linear_57_433)"/>
<path id="Vector_16" d="M32.5931 36.5848L16.1945 43.4455L8.9 41.5611C13.5557 35.4163 19.8888 29.5166 27.5604 24.1823L34.5908 26.0104L32.5931 36.5848Z" fill="url(#paint10_linear_57_433)"/>
<path id="Vector_17" d="M44.6957 88.0428L51.8584 96.3174L47.0328 100.897C37.7214 99.7476 29.3148 97.4856 22.2652 94.2248L26.8832 89.8329L44.6957 88.0428Z" fill="url(#paint11_linear_57_433)"/>
</g>
<g id="Group_10">
<path id="Vector_18" d="M97.434 78.6368C101.053 77.5247 104.597 76.2241 107.933 74.735L106.745 73.5098C103.579 74.9046 100.224 76.1489 96.7932 77.2045L97.434 78.6368ZM86.3885 81.3323L86.3131 79.7677C82.7884 80.4085 79.2449 80.8425 75.7767 81.0499L75.2866 82.6893C78.9245 82.4631 82.6752 82.0109 86.3885 81.3323ZM117.433 69.7967C120.373 68.006 123.088 66.0646 125.501 64.0289L123.408 63.3501C121.127 65.2727 118.545 67.1202 115.755 68.8355L117.433 69.7967ZM64.5799 82.6329L65.6354 80.9929C62.3745 80.7479 59.246 80.2957 56.3432 79.6359L54.7976 81.2006C57.8511 81.9168 61.1494 82.3878 64.5799 82.6329ZM131.796 57.6766C133.568 55.4901 135 53.266 136.056 51.023L133.417 51.004C132.418 53.1151 131.061 55.2454 129.383 57.3188L131.796 57.6766ZM46.2779 78.4487L48.2567 77.0158C45.8251 75.9414 43.6389 74.6784 41.7917 73.2647L39.4545 74.49C41.4148 75.979 43.7144 77.3177 46.2779 78.4487ZM138.054 44.3693C138.336 42.1828 138.223 40.0526 137.733 37.9981L135 38.6579C135.472 40.6182 135.566 42.6353 135.302 44.7087L138.054 44.3693ZM34.6289 69.4763L37.2301 68.5151C36.0426 66.7998 35.2135 64.9526 34.7423 62.9923L34.7233 62.879L31.9898 63.5388L32.0278 63.6521C32.499 65.7255 33.3849 67.6856 34.6289 69.4763ZM132.55 33.1167L135.151 32.1549C133.907 30.3454 132.286 28.6492 130.345 27.1413L128.007 28.3665C129.836 29.799 131.362 31.4015 132.55 33.1167ZM34.4219 56.8287C34.7046 54.7554 35.3453 52.625 36.3443 50.5139L33.7051 50.4955C32.6496 52.7385 31.9521 54.9628 31.6694 57.1681L34.4219 56.8287ZM121.523 24.5964L123.521 23.1641C120.958 22.0332 118.111 21.1095 115.039 20.3933L113.475 21.9579C116.396 22.6553 119.091 23.5221 121.523 24.5964ZM40.3967 44.2186C42.0932 42.1452 44.1099 40.1284 46.3906 38.2058L44.2985 37.527C41.8858 39.5627 39.7561 41.6927 37.9842 43.8792L40.3967 44.2186ZM104.201 20.6009L105.257 18.9609C101.826 18.6971 98.2255 18.6972 94.5688 18.9046L94.0603 20.544C97.5285 20.3366 100.94 20.3559 104.201 20.6009ZM54.0624 32.7204C56.8709 31.024 59.8867 29.4409 63.0722 28.0461L61.8849 26.8019C58.5298 28.2721 55.3249 29.9501 52.3845 31.7408L54.0624 32.7204ZM83.5233 21.8262L83.4479 20.2425C81.5442 20.5818 79.6214 20.9964 77.7365 21.4488C75.9458 21.8823 74.1365 22.3723 72.4024 22.9001L73.0432 24.333C74.7019 23.8241 76.3984 23.3717 78.0949 22.957H78.1138C79.8857 22.5424 81.7138 22.1466 83.5233 21.8262Z" fill="url(#paint12_linear_57_433)"/>
</g>
</g>
</g>
</g>
</g>
<g id="Vector_19" style="mix-blend-mode:plus-lighter">
<path d="M73.5514 4.31479C119.901 -6.97579 162.538 4.65403 168.777 30.3076C169.983 35.2838 169.719 40.411 168.211 45.5379L4.84677 48.0821C14.9876 29.5724 40.7917 12.2879 73.5514 4.31479Z" fill="url(#paint13_linear_57_433)"/>
</g>
</g>
<defs>
<linearGradient id="paint0_linear_57_433" x1="180.595" y1="63.6281" x2="7.38816" y2="106.199" gradientUnits="userSpaceOnUse">
<stop stop-color="#B00000"/>
<stop offset="1" stop-color="#800000"/>
</linearGradient>
<linearGradient id="paint1_linear_57_433" x1="175.404" y1="42.7011" x2="2.23873" y2="85.2608" gradientUnits="userSpaceOnUse">
<stop stop-color="#ADACAB"/>
<stop offset="0.9947" stop-color="#94908E"/>
</linearGradient>
<linearGradient id="paint2_linear_57_433" x1="182.27" y1="70.4442" x2="9.06214" y2="113.015" gradientUnits="userSpaceOnUse">
<stop stop-color="#ADACAB"/>
<stop offset="0.9947" stop-color="#94908E"/>
</linearGradient>
<linearGradient id="paint3_linear_57_433" x1="185.627" y1="84.1102" x2="12.4234" y2="126.677" gradientUnits="userSpaceOnUse">
<stop stop-color="#ADACAB"/>
<stop offset="0.9947" stop-color="#94908E"/>
</linearGradient>
<linearGradient id="paint4_linear_57_433" x1="119.22" y1="1.91709" x2="46.8406" y2="104.713" gradientUnits="userSpaceOnUse">
<stop stop-color="#FF1916"/>
<stop offset="1" stop-color="#D10000"/>
</linearGradient>
<linearGradient id="paint5_linear_57_433" x1="112.812" y1="3.02543" x2="59.743" y2="93.7125" gradientUnits="userSpaceOnUse">
<stop stop-color="#F3F5F4"/>
<stop offset="0.7063" stop-color="#E5E5E4"/>
<stop offset="0.9947" stop-color="#D4D2D1"/>
</linearGradient>
<linearGradient id="paint6_linear_57_433" x1="111.023" y1="21.9825" x2="57.6257" y2="80.7828" gradientUnits="userSpaceOnUse">
<stop stop-color="#FF3633"/>
<stop offset="1" stop-color="#F11B1A"/>
</linearGradient>
<linearGradient id="paint7_linear_57_433" x1="91.8684" y1="-17.5527" x2="19.3524" y2="85.4365" gradientUnits="userSpaceOnUse">
<stop stop-color="#F3F5F4"/>
<stop offset="0.7063" stop-color="#E5E5E4"/>
<stop offset="0.9947" stop-color="#D4D2D1"/>
</linearGradient>
<linearGradient id="paint8_linear_57_433" x1="147.062" y1="21.3168" x2="74.55" y2="124.3" gradientUnits="userSpaceOnUse">
<stop stop-color="#F3F5F4"/>
<stop offset="0.7063" stop-color="#E5E5E4"/>
<stop offset="0.9947" stop-color="#D4D2D1"/>
</linearGradient>
<linearGradient id="paint9_linear_57_433" x1="76.1067" y1="-28.6402" x2="3.59609" y2="74.344" gradientUnits="userSpaceOnUse">
<stop stop-color="#F3F5F4"/>
<stop offset="0.7063" stop-color="#E5E5E4"/>
<stop offset="0.9947" stop-color="#D4D2D1"/>
</linearGradient>
<linearGradient id="paint10_linear_57_433" x1="70.9682" y1="-32.265" x2="-1.54465" y2="70.7213" gradientUnits="userSpaceOnUse">
<stop stop-color="#F3F5F4"/>
<stop offset="0.7063" stop-color="#E5E5E4"/>
<stop offset="0.9947" stop-color="#D4D2D1"/>
</linearGradient>
<linearGradient id="paint11_linear_57_433" x1="108.352" y1="-5.95191" x2="35.8357" y2="97.0406" gradientUnits="userSpaceOnUse">
<stop stop-color="#F3F5F4"/>
<stop offset="0.7063" stop-color="#E5E5E4"/>
<stop offset="0.9947" stop-color="#D4D2D1"/>
</linearGradient>
<linearGradient id="paint12_linear_57_433" x1="112.863" y1="3.05535" x2="59.7937" y2="93.7403" gradientUnits="userSpaceOnUse">
<stop stop-color="#F3F5F4"/>
<stop offset="0.7063" stop-color="#E5E5E4"/>
<stop offset="0.9947" stop-color="#D4D2D1"/>
</linearGradient>
<linearGradient id="paint13_linear_57_433" x1="91.0723" y1="-1.8357" x2="83.3974" y2="86.6703" gradientUnits="userSpaceOnUse">
<stop stop-color="#727272"/>
<stop offset="0.2297" stop-color="#515151"/>
<stop offset="0.5743" stop-color="#252525"/>
<stop offset="0.8427" stop-color="#0A0A0A"/>
<stop offset="1"/>
</linearGradient>
</defs>
</svg>
