<svg width="130" height="190" viewBox="0 0 130 190" fill="none" xmlns="http://www.w3.org/2000/svg">
<path d="M149.21 110.506C150.04 109.694 150.197 108.412 149.57 107.638L115.108 65.3186C114.481 64.544 113.3 64.5808 112.47 65.3923L51.717 124.91C50.887 125.722 50.7302 127.003 51.3573 127.778L85.8194 170.097C86.4465 170.872 87.627 170.835 88.4569 170.024L149.21 110.506Z" fill="url(#paint0_linear_506_15137)"/>
<path d="M148.678 110.459C149.498 109.657 149.664 108.385 149.037 107.619L115.064 65.8994C114.446 65.134 113.275 65.1709 112.454 65.9732L52.2446 124.956C51.4239 125.758 51.2579 127.031 51.8849 127.787L85.8582 169.507C86.4761 170.273 87.6472 170.235 88.4679 169.433L148.678 110.459Z" fill="url(#paint1_linear_506_15137)"/>
<path d="M94.4723 132.334C91.798 128.608 94.5739 123.416 94.5739 123.416L94.5922 123.407C94.5922 123.407 89.5756 125.851 86.4955 122.512C83.4154 119.174 84.6326 113.051 88.6349 110.358C92.6372 107.665 98.8805 108.707 102.846 109.049C106.811 109.399 109.928 108.366 109.928 108.366L109.919 108.375C109.919 108.375 108.637 111.658 108.508 116.02C108.379 120.382 108.619 127.298 105.732 131.356C102.846 135.414 97.1466 136.059 94.4723 132.334Z" fill="url(#paint2_linear_506_15137)"/>
<path d="M111.633 106.771C111.698 106.854 111.716 106.974 111.679 107.084C111.67 107.121 110.416 110.699 110.185 115.449L110.121 116.841C109.853 122.549 109.53 129.65 106.57 132.887C104.615 135.027 101.858 136.354 99.1836 136.447C96.832 136.52 94.8401 135.635 93.5767 133.883C91.1974 130.609 91.9628 127.049 92.4608 125.556C91.0498 125.924 87.7483 126.367 85.0463 123.398C83.6077 121.83 83.0175 119.543 83.3495 116.998C83.7276 114.093 85.2492 111.234 87.3979 109.344C90.6809 106.476 96.8595 106.881 102.3 107.25L103.462 107.324C107.787 107.601 111.32 106.678 111.347 106.669C111.467 106.66 111.569 106.688 111.633 106.771ZM85.4889 122.918C88.4492 126.164 92.1655 125.03 92.8756 124.772C92.9863 124.735 93.1063 124.762 93.1801 124.845C93.2539 124.938 93.2631 125.067 93.217 125.187C92.9034 125.934 91.4557 129.862 94.0655 133.45C95.2275 135.036 97.0626 135.875 99.2297 135.801C101.747 135.718 104.338 134.473 106.164 132.463C108.931 129.429 109.254 122.475 109.512 116.887L109.576 115.485C109.77 111.64 110.591 108.596 110.951 107.425C109.816 107.665 106.847 108.2 103.37 107.979L102.199 107.905C97.1363 107.564 90.8286 107.14 87.7393 109.842C85.7104 111.612 84.2901 114.296 83.9397 117.025C83.6446 119.257 84.1243 121.258 85.277 122.678C85.3508 122.761 85.4152 122.844 85.4889 122.918Z" fill="url(#paint3_linear_506_15137)"/>
<path d="M66.597 121.821C66.0253 121.028 66.6153 119.921 66.6153 119.921C66.6153 119.921 65.5457 120.437 64.891 119.727C64.2362 119.017 64.4943 117.717 65.3427 117.145C66.1911 116.574 67.5191 116.795 68.3675 116.869C69.2159 116.942 69.8799 116.721 69.8799 116.721C69.8799 116.721 69.6125 117.422 69.5757 118.344C69.548 119.276 69.5941 120.742 68.9855 121.609C68.3769 122.485 67.1688 122.623 66.597 121.821Z" fill="url(#paint4_linear_506_15137)"/>
<path d="M70.2469 116.389C70.2653 116.407 70.2654 116.435 70.2562 116.453C70.2562 116.453 69.9885 117.219 69.9424 118.233L69.9241 118.528C69.8688 119.746 69.795 121.258 69.1679 121.94C68.7529 122.392 68.1628 122.678 67.591 122.697C67.0931 122.715 66.6689 122.522 66.4014 122.153C65.8942 121.452 66.0602 120.695 66.1617 120.382C65.8573 120.465 65.1563 120.557 64.5845 119.921C64.2802 119.589 64.1511 119.1 64.2249 118.556C64.3079 117.938 64.6306 117.329 65.0917 116.924C65.7925 116.315 67.1023 116.398 68.2642 116.481L68.513 116.5C69.4352 116.555 70.1914 116.361 70.1914 116.361C70.2099 116.361 70.2377 116.371 70.2469 116.389ZM64.6861 119.82C65.3132 120.511 66.1062 120.271 66.263 120.216C66.2906 120.207 66.309 120.216 66.3274 120.234C66.3459 120.253 66.3459 120.281 66.3367 120.308C66.2722 120.465 65.9585 121.304 66.521 122.07C66.77 122.411 67.1575 122.586 67.6186 122.567C68.1535 122.549 68.7068 122.282 69.0942 121.857C69.6844 121.212 69.7489 119.737 69.8042 118.547L69.8135 118.252C69.8596 117.431 70.0254 116.785 70.1084 116.536C69.8687 116.592 69.2325 116.702 68.4947 116.656L68.2456 116.638C67.1667 116.564 65.8297 116.472 65.1657 117.044C64.7323 117.422 64.437 117.994 64.354 118.575C64.2895 119.045 64.391 119.478 64.64 119.773C64.6584 119.792 64.6677 119.81 64.6861 119.82Z" fill="url(#paint5_linear_506_15137)"/>
<path d="M66.0205 125.03L65.8269 125.215C65.6978 125.113 65.5685 125.058 65.4486 125.039C65.3288 125.021 65.1907 125.039 65.0431 125.095C64.8956 125.15 64.6833 125.242 64.4251 125.371L58.3386 128.414L57.767 127.677L61.2528 121.507C61.4557 121.157 61.5847 120.853 61.6401 120.613C61.7046 120.373 61.6771 120.161 61.5756 119.986L61.7785 119.82L63.2079 121.572L63.0143 121.747C62.8483 121.59 62.6913 121.507 62.553 121.489C62.4055 121.471 62.258 121.535 62.092 121.673C62.009 121.747 61.9259 121.839 61.8337 121.95C61.7415 122.061 61.6309 122.245 61.4833 122.503L61.1884 123.01L62.8021 125.021L63.466 124.689C63.632 124.606 63.7796 124.532 63.9087 124.449C64.0285 124.375 64.1392 124.292 64.2315 124.209C64.3237 124.117 64.3881 124.034 64.4158 123.942C64.4435 123.859 64.4435 123.757 64.4251 123.665C64.3974 123.564 64.342 123.435 64.259 123.269L64.4527 123.093L66.0205 125.03ZM58.8275 127.031L62.3594 125.27L60.9024 123.453L58.8275 127.031Z" fill="url(#paint6_linear_506_15137)"/>
<path d="M53.9932 185.801C54.1039 186.733 53.5781 187.157 52.8126 186.751L11.093 164.748C10.3276 164.342 9.62687 163.272 9.5162 162.341L1.47465 94.2465C1.36399 93.3151 1.88955 92.8909 2.65496 93.2967L44.3748 115.3C45.1403 115.697 45.841 116.776 45.9517 117.707L53.9932 185.801Z" fill="url(#paint7_linear_506_15137)"/>
<path d="M53.6425 185.331C53.7532 186.253 53.2275 186.677 52.4805 186.281L11.3508 164.591C10.6038 164.195 9.90316 163.125 9.7925 162.203L1.8154 94.717C1.70473 93.7948 2.23045 93.3704 2.97742 93.7669L44.1069 115.457C44.8538 115.853 45.5547 116.923 45.6654 117.836L53.6425 185.331Z" fill="url(#paint8_linear_506_15137)"/>
<path d="M8.35363 106.18L8.32605 105.968C8.45516 106.014 8.55644 106.032 8.62099 106.032C8.68554 106.032 8.73172 106.014 8.75016 105.968C8.77783 105.922 8.77768 105.848 8.76846 105.737C8.75001 105.635 8.73183 105.525 8.68572 105.387C8.64883 105.257 8.59323 105.11 8.52868 104.935L8.2889 104.261L6.32481 103.238L6.26036 103.616C6.22347 103.801 6.20492 103.948 6.20492 104.049C6.20492 104.151 6.20477 104.252 6.22321 104.344C6.25088 104.52 6.31568 104.677 6.41712 104.806C6.50934 104.935 6.64744 105.054 6.82266 105.174L6.85952 105.387L5.12592 104.474L5.08906 104.261C5.2366 104.317 5.34715 104.289 5.43015 104.179C5.51314 104.068 5.57773 103.883 5.63306 103.625L6.51843 99.1157L7.22848 99.4754L9.46021 105.663C9.55243 105.931 9.6355 106.143 9.70927 106.29C9.77383 106.438 9.84748 106.567 9.93048 106.668C10.0135 106.77 10.1149 106.871 10.244 106.973L10.2719 107.185L8.35363 106.18ZM6.37096 102.897L8.14143 103.819L6.84123 100.232L6.37096 102.897Z" fill="url(#paint9_linear_506_15137)"/>
<path d="M47.0968 173.859L47.1246 174.071C46.9955 174.025 46.894 174.007 46.8294 174.007C46.7649 174.007 46.7187 174.025 46.7002 174.071C46.6726 174.117 46.6727 174.191 46.6819 174.302C46.6912 174.403 46.7188 174.514 46.7557 174.652C46.7926 174.781 46.8479 174.929 46.9124 175.104L47.1522 175.777L49.1163 176.801L49.181 176.423C49.2179 176.238 49.2362 176.091 49.2362 175.989C49.2362 175.888 49.2271 175.786 49.2179 175.694C49.1902 175.519 49.1257 175.362 49.0243 175.233C48.9321 175.104 48.7937 174.984 48.6184 174.864L48.5816 174.652L50.3152 175.565L50.3521 175.777C50.2045 175.722 50.094 175.749 50.011 175.86C49.928 175.971 49.8634 176.155 49.8173 176.413L48.932 180.923L48.2219 180.563L45.9902 174.376C45.8887 174.108 45.8149 173.896 45.7411 173.748C45.6766 173.601 45.6029 173.472 45.5199 173.37C45.4369 173.269 45.3355 173.167 45.2064 173.066L45.1785 172.854L47.0968 173.859ZM49.0794 177.142L47.2997 176.22L48.5999 179.807L49.0794 177.142Z" fill="url(#paint10_linear_506_15137)"/>
<path d="M37.7526 147.226C36.8857 143.491 34.5527 140.347 32.0536 137.045C29.5545 133.744 26.3451 128.22 26.3451 128.22C26.3451 128.22 24.0581 130.848 22.057 131.78C20.0558 132.711 18.2023 133.651 18.1654 136.898C18.1193 140.144 20.9596 144.22 23.3296 145.825C25.6996 147.42 27.1107 146.682 28.079 145.059C27.8485 147.743 26.7603 149.246 25.8104 150.066L25.921 150.306C27.6455 150.435 29.0195 151.219 29.0195 151.219V151.21C29.3515 151.367 30.7072 152.022 32.404 153.728L32.4684 153.663C31.1958 151.671 29.5359 148.711 28.5768 145.336C30.08 148.259 31.8691 150.694 34.1469 151.551C36.4339 152.381 38.6194 150.952 37.7526 147.226Z" fill="url(#paint11_linear_506_15137)"/>
<path d="M34.561 156.264C34.5425 156.254 34.5239 156.236 34.4962 156.227C31.536 153.801 30.2633 153.128 29.2397 152.594C28.2161 152.059 26.9436 151.385 24.2047 150.795C24.1217 150.777 24.0112 150.685 23.9466 150.565C23.882 150.445 23.8819 150.325 23.928 150.279C24.5828 149.624 25.044 149.089 25.5327 148.517C25.7079 148.315 25.883 148.112 26.0674 147.9C25.1453 147.9 24.0478 147.54 22.8859 146.802C21.4473 145.898 19.9258 144.238 18.81 142.357C17.98 140.955 16.9839 138.779 16.9655 136.409C16.9378 132.545 19.151 131.522 21.2905 130.526C23.3746 129.557 25.7263 126.874 25.9937 126.569C26.0306 126.532 26.0859 126.532 26.1505 126.56L26.1966 126.588C26.2612 126.625 26.3348 126.689 26.381 126.772C26.7498 127.409 30.0881 133.089 32.6979 136.547C35.3446 140.042 38.0742 143.648 39.0149 148.02C39.5774 150.629 39.015 151.929 38.4433 152.566C37.6502 153.442 36.313 153.608 34.8652 152.99C33.6479 152.474 32.4583 151.561 31.573 150.722C31.8681 151.22 32.1356 151.69 32.4123 152.151C33.1131 153.341 33.7678 154.465 34.6716 155.941C34.7453 156.061 34.7636 156.181 34.7267 156.245C34.6991 156.301 34.6347 156.301 34.561 156.264ZM26.8422 147.217C26.8976 147.245 26.9622 147.3 27.0083 147.374C27.0913 147.503 27.1188 147.65 27.0634 147.715C26.63 148.185 26.2704 148.591 25.92 148.997C25.5234 149.458 25.1545 149.891 24.6749 150.389C27.045 150.952 28.2716 151.597 29.1846 152.086C30.0975 152.566 31.324 153.211 33.8692 155.24C33.2052 154.143 32.6703 153.23 32.1078 152.271C31.6098 151.413 31.1027 150.546 30.494 149.532C30.411 149.403 30.4019 149.255 30.4665 149.209C30.531 149.154 30.6507 149.209 30.7521 149.329C31.5729 150.343 33.1867 151.791 34.7729 152.464C36.1101 153.036 37.3366 152.889 38.0743 152.068C38.6 151.478 39.1257 150.279 38.6 147.853C37.6963 143.694 35.0404 140.181 32.4767 136.787C30.0698 133.596 27.0636 128.57 26.2521 127.196C25.6803 127.842 23.5406 130.166 21.6133 131.06C19.4369 132.075 17.3712 133.034 17.3989 136.704C17.4173 138.917 18.3395 140.928 19.1049 142.228C20.1377 143.971 21.5396 145.502 22.8676 146.323C23.0613 146.442 23.2547 146.553 23.4392 146.655C24.6934 147.319 25.8923 147.512 26.713 147.199C26.7499 147.189 26.7961 147.19 26.8422 147.217Z" fill="url(#paint12_linear_506_15137)"/>
<path d="M10.225 111.298C10.0405 110.532 9.56078 109.878 9.04436 109.195C8.52793 108.513 7.86405 107.369 7.86405 107.369C7.86405 107.369 7.39365 107.913 6.97867 108.107C6.56369 108.301 6.18582 108.494 6.1766 109.168C6.16738 109.841 6.75755 110.68 7.24631 111.012C7.73507 111.344 8.03005 111.187 8.22371 110.855C8.1776 111.409 7.9471 111.722 7.75344 111.888L7.77174 111.934C8.12217 111.962 8.40805 112.119 8.40805 112.119C8.4726 112.146 8.75866 112.285 9.10909 112.635L9.11837 112.626C8.86016 112.22 8.5189 111.602 8.31602 110.91C8.62956 111.519 8.99844 112.017 9.46875 112.192C9.95751 112.358 10.4094 112.063 10.225 111.298Z" fill="url(#paint13_linear_506_15137)"/>
<path d="M9.56984 113.161L9.56055 113.151C8.95191 112.653 8.68465 112.515 8.47255 112.405C8.26044 112.294 8.00217 112.155 7.43042 112.036C7.41197 112.036 7.39342 112.008 7.37497 111.989C7.36575 111.962 7.35653 111.943 7.37497 111.934C7.5133 111.796 7.60562 111.685 7.70706 111.574C7.74395 111.528 7.78077 111.492 7.81766 111.445C7.624 111.445 7.40283 111.371 7.16306 111.215C6.86796 111.03 6.55438 110.689 6.32384 110.302C6.14862 110.016 5.9456 109.564 5.9456 109.075C5.93638 108.282 6.39761 108.07 6.84026 107.858C7.27369 107.655 7.75333 107.102 7.80866 107.037C7.80866 107.037 7.82708 107.028 7.84552 107.037L7.85453 107.046C7.87297 107.056 7.88217 107.065 7.8914 107.083C7.96517 107.212 8.65701 108.384 9.19188 109.103C9.73597 109.822 10.2985 110.569 10.5014 111.473C10.6213 112.008 10.5014 112.284 10.3815 112.414C10.2155 112.598 9.93867 112.626 9.64357 112.497C9.39458 112.386 9.14583 112.202 8.96139 112.026C9.02594 112.128 9.08111 112.229 9.13644 112.322C9.28399 112.571 9.41305 112.801 9.60671 113.105C9.62515 113.133 9.62522 113.151 9.61599 113.17C9.59755 113.17 9.58828 113.17 9.56984 113.161ZM7.97442 111.298L8.01129 111.326C8.02973 111.353 8.02979 111.381 8.02057 111.399C7.92835 111.491 7.85464 111.584 7.79008 111.667C7.70709 111.759 7.63345 111.851 7.53201 111.953C8.02077 112.072 8.27882 112.201 8.46326 112.303C8.6477 112.404 8.90601 112.534 9.43166 112.958C9.29333 112.727 9.18265 112.543 9.07199 112.349C8.97055 112.174 8.85979 111.989 8.7399 111.787C8.72146 111.759 8.73062 111.722 8.73062 111.722C8.73062 111.722 8.76762 111.722 8.78606 111.75C8.95205 111.962 9.29323 112.257 9.61599 112.395C9.89265 112.515 10.1417 112.478 10.2985 112.312C10.4091 112.192 10.5105 111.943 10.4091 111.445C10.2246 110.588 9.67137 109.859 9.14573 109.158C8.64774 108.503 8.02981 107.461 7.86382 107.176C7.74393 107.305 7.30125 107.784 6.90471 107.969C6.45284 108.181 6.02868 108.374 6.03791 109.131C6.03791 109.583 6.23151 110.007 6.38828 110.274C6.60039 110.634 6.89562 110.947 7.16306 111.123C7.19995 111.15 7.24606 111.169 7.28295 111.187C7.54116 111.325 7.79013 111.362 7.95613 111.298H7.97442Z" fill="url(#paint14_linear_506_15137)"/>
<path d="M45.2216 168.934C45.4061 169.709 45.8856 170.364 46.4112 171.055C46.9369 171.747 47.6008 172.9 47.6008 172.9C47.6008 172.9 48.0805 172.356 48.4955 172.162C48.9105 171.968 49.2979 171.775 49.3071 171.092C49.3164 170.419 48.7261 169.561 48.2281 169.23C47.7302 168.898 47.4443 169.054 47.2415 169.386C47.2876 168.824 47.5181 168.51 47.7117 168.344L47.6931 168.298C47.3335 168.27 47.0476 168.104 47.0476 168.104C46.983 168.067 46.6972 167.929 46.3375 167.579L46.3282 167.588C46.5957 168.003 46.937 168.621 47.1399 169.322C46.8263 168.713 46.4574 168.206 45.9778 168.031C45.4983 167.865 45.0372 168.16 45.2216 168.934Z" fill="url(#paint15_linear_506_15137)"/>
<path d="M45.8844 167.053C45.8937 167.063 45.8937 167.053 45.8844 167.053C46.5115 167.57 46.7789 167.708 46.991 167.819C47.2031 167.929 47.4704 168.068 48.0422 168.197C48.0606 168.197 48.0792 168.225 48.0976 168.243C48.1068 168.271 48.116 168.289 48.0976 168.307C47.9593 168.446 47.8669 168.557 47.7655 168.676C47.7286 168.723 47.6918 168.759 47.6549 168.806C47.8486 168.806 48.079 168.879 48.3188 169.036C48.6231 169.221 48.9368 169.571 49.1673 169.958C49.3425 170.253 49.5453 170.705 49.5546 171.194C49.5638 171.996 49.1028 172.218 48.6509 172.421C48.2175 172.623 47.7288 173.186 47.6735 173.241C47.6643 173.25 47.6551 173.25 47.6366 173.241L47.6273 173.232C47.6181 173.223 47.5997 173.213 47.5905 173.195C47.5167 173.066 46.8158 171.876 46.2717 171.157C45.7184 170.428 45.1466 169.682 44.9529 168.769C44.833 168.225 44.9529 167.957 45.0728 167.819C45.2388 167.634 45.5154 167.607 45.8197 167.727C46.0687 167.837 46.3177 168.022 46.5022 168.197C46.4376 168.095 46.3822 167.994 46.3268 167.902C46.1793 167.653 46.041 167.422 45.8566 167.109C45.8381 167.081 45.8383 167.063 45.8476 167.044C45.8568 167.044 45.8752 167.044 45.8844 167.053ZM47.4982 168.944C47.4889 168.935 47.4705 168.925 47.4613 168.907C47.4428 168.879 47.4428 168.852 47.452 168.833C47.5442 168.732 47.618 168.649 47.6918 168.566C47.7748 168.474 47.8487 168.381 47.9501 168.28C47.4521 168.16 47.203 168.031 47.0093 167.93C46.8156 167.828 46.5668 167.69 46.0319 167.275C46.1702 167.505 46.281 167.699 46.4009 167.893C46.5023 168.068 46.6128 168.252 46.742 168.464C46.7604 168.492 46.7605 168.52 46.7512 168.529C46.742 168.538 46.7142 168.529 46.6958 168.501C46.5206 168.289 46.1886 167.985 45.8566 167.846C45.5799 167.727 45.3219 167.764 45.1651 167.93C45.0544 168.049 44.9436 168.298 45.0542 168.806C45.2387 169.672 45.792 170.41 46.3268 171.111C46.834 171.775 47.4521 172.826 47.6273 173.112C47.7472 172.974 48.1897 172.494 48.5954 172.31C49.0473 172.098 49.4808 171.895 49.4715 171.129C49.4715 170.668 49.2779 170.253 49.1119 169.977C48.8998 169.617 48.6047 169.294 48.3281 169.119C48.2912 169.091 48.2451 169.073 48.2082 169.045C47.95 168.907 47.7009 168.87 47.5257 168.934C47.5165 168.944 47.5074 168.944 47.4982 168.944Z" fill="url(#paint16_linear_506_15137)"/>
<path d="M136.128 188.475C136.34 189.664 137.004 190.292 137.631 189.867L171.586 166.721C172.204 166.296 172.536 164.987 172.333 163.797L157.089 76.3279C156.887 75.1383 156.213 74.5112 155.596 74.9354L121.641 98.0821C121.023 98.5063 120.691 99.8159 120.894 101.006L136.128 188.475Z" fill="url(#paint17_linear_506_15137)"/>
<path d="M136.32 187.903C136.523 189.084 137.187 189.701 137.796 189.286L171.271 166.471C171.88 166.057 172.212 164.756 172.009 163.576L156.903 76.8901C156.701 75.7097 156.037 75.0919 155.428 75.5069L121.953 98.3218C121.344 98.7368 121.012 100.037 121.215 101.217L136.32 187.903Z" fill="url(#paint18_linear_506_15137)"/>
<path d="M76.2521 0.480583C77.2757 -0.192612 78.2532 -0.15564 78.4377 0.572891L88.7937 40.5957C88.9874 41.3243 88.3142 42.4678 87.2906 43.141L12.5751 92.8008C11.5515 93.474 10.574 93.437 10.3896 92.6992L0.0332565 52.6764C-0.1604 51.9478 0.512741 50.8043 1.53637 50.1311L76.2521 0.480583Z" fill="url(#paint19_linear_506_15137)"/>
<path d="M75.9928 1.00629C76.998 0.333099 77.9757 0.379295 78.1601 1.0986L88.3687 40.5496C88.5531 41.2689 87.8892 42.3941 86.8748 43.0673L12.823 92.2844C11.8178 92.9576 10.8404 92.9114 10.656 92.1921L0.447449 52.7408C0.263016 52.0215 0.926872 50.8966 1.94128 50.2234L75.9928 1.00629Z" fill="url(#paint20_linear_506_15137)"/>
<path d="M41.411 45.2066C39.2346 44.183 29.8744 49.3104 31.1563 55.3507L31.147 55.36C31.1562 55.3877 31.1656 55.4061 31.1748 55.4338C31.1841 55.4614 31.1839 55.4891 31.1931 55.5168L31.2024 55.5075C32.9638 61.2251 41.8445 54.2348 42.9327 51.044C43.1171 57.7483 48.936 54.8435 51.6657 52.4827C54.3216 50.1865 55.4929 47.5951 55.1793 45.0499C54.8658 42.5047 51.8872 42.5876 50.4578 42.8919C53.3996 41.6838 55.9079 41.2227 57.8445 41.2965L57.9736 41.0936C57.0053 40.3097 56.7009 38.8988 56.5994 38.4746H56.6087C56.6087 38.4746 56.0923 36.9255 56.4981 35.0074H56.3413C55.0042 37.2667 52.9661 39.9132 50.3286 42.4123C51.4813 41.0014 53.6116 37.6817 52.7078 35.5238C51.8041 33.3659 49.8306 32.8677 46.9442 34.2602C43.9747 35.6988 38.5799 40.2545 41.411 45.2066Z" fill="url(#paint21_linear_506_15137)"/>
<path d="M60.2959 42.0345C60.3143 42.099 60.2867 42.191 60.2222 42.2833C60.1299 42.4031 59.9917 42.4955 59.8811 42.4955C58.4332 42.4955 56.6808 42.514 55.3529 42.5509C55.9707 43.0212 56.3398 43.768 56.5703 44.9945C57.0222 47.4015 55.39 50.62 52.4114 53.2021C50.5578 54.8067 47.708 56.4667 45.504 56.5773C43.6873 56.6603 42.5993 55.7197 42.2673 53.7554C41.2344 55.4061 39.0304 57.2504 36.7434 58.2741C35.0742 59.021 31.0535 60.3305 29.827 56.2359C28.9417 52.04 32.289 48.4805 33.7738 47.1525C35.8763 45.2621 38.2927 44.0448 39.7682 44.054C39.1319 42.2926 39.4913 40.3929 40.81 38.4009C42.4146 35.9848 45.1628 33.9191 47.1731 32.9508C50.4192 31.3923 52.9921 31.8165 53.7299 34.0298C53.7944 34.205 53.8405 34.3802 53.8866 34.5462C54.1264 35.4684 54.1542 36.3078 53.9421 37.1931C54.6983 36.0588 55.7403 34.5093 57.2342 32.2315C57.3172 32.1024 57.4557 32.0102 57.5756 32.001C57.6955 31.9917 57.7507 32.0747 57.7231 32.1946C57.1144 34.6753 57.8245 37.7645 57.8337 37.7922C57.9259 38.0781 58.8389 40.7525 60.259 41.979C60.2775 41.9883 60.2867 42.016 60.2959 42.0345ZM53.7577 42.514C53.7485 42.4587 53.7575 42.3942 53.8036 42.3204C53.8774 42.1821 54.0342 42.0621 54.1633 42.0621C55.1685 41.9975 57.345 41.9514 59.2723 41.9422C58.1012 40.5681 57.3726 38.4193 57.2804 38.1519C57.2712 38.1058 56.7086 35.6713 56.9945 33.3105C55.0948 36.1969 54.0436 37.7555 53.3243 38.8161C53.2321 38.9544 53.0661 39.0465 52.9554 39.0373C52.8355 39.028 52.7985 38.9174 52.8631 38.7699C53.3518 37.7371 53.7485 36.5473 53.3243 34.8966C53.2782 34.7306 53.2319 34.5647 53.1766 34.3987C52.485 32.333 50.1796 31.964 47.1549 33.4211C45.2736 34.3248 42.7099 36.2431 41.2251 38.484C39.8788 40.5128 39.6574 42.4678 40.552 44.2476C40.5981 44.3399 40.5427 44.4781 40.4321 44.598C40.3122 44.7087 40.1647 44.7641 40.0817 44.7272C38.9843 44.2108 36.2639 45.4372 34.0045 47.4661C32.6397 48.7018 29.5502 51.9849 30.371 55.8766C31.5145 59.676 35.2309 58.4769 36.771 57.7852C39.2332 56.6786 41.6585 54.5024 42.2026 52.9255C42.2487 52.7964 42.378 52.6673 42.5071 52.612C42.6362 52.5659 42.7376 52.6026 42.7468 52.7133C42.8944 54.9819 43.918 56.107 45.7623 56.024C47.8004 55.9226 50.4561 54.3733 52.1806 52.8793C54.9656 50.4724 56.432 47.5858 56.0078 45.3449C55.6112 43.27 54.7351 42.7997 53.8591 42.6061C53.8037 42.5968 53.767 42.5694 53.7577 42.514Z" fill="url(#paint22_linear_506_15137)"/>
<path d="M63.7153 15.4018C64.2041 15.6323 66.2884 14.4889 66.0025 13.1425L65.9932 13.1239V13.1056C65.5967 11.833 63.623 13.3912 63.3832 14.1013C63.3463 12.6074 62.0461 13.2531 61.4374 13.7788C60.8472 14.2952 60.5799 14.8669 60.6537 15.4386C60.7274 16.0104 61.3823 15.992 61.7051 15.9182C61.0503 16.1856 60.4877 16.287 60.0635 16.2686L60.0359 16.3147C60.248 16.4899 60.3217 16.8034 60.3401 16.8956C60.3401 16.8956 60.4599 17.2462 60.3677 17.6704H60.4046C60.6997 17.1632 61.161 16.582 61.7419 16.0195C61.4837 16.3331 61.0133 17.0709 61.2069 17.5505C61.4098 18.03 61.8433 18.1407 62.4889 17.8271C63.1436 17.5228 64.3516 16.5084 63.7153 15.4018Z" fill="url(#paint23_linear_506_15137)"/>
<path d="M59.5118 16.1117C59.5118 16.0932 59.5116 16.0747 59.53 16.0562C59.5485 16.0286 59.5856 16.0101 59.6041 16.0101C59.9268 16.0101 60.3139 16.0103 60.609 16.0011C60.4707 15.8996 60.3878 15.7242 60.3417 15.4568C60.2402 14.9219 60.6092 14.2026 61.2639 13.6309C61.6789 13.2712 62.3152 12.9024 62.8039 12.884C63.2097 12.8655 63.4495 13.0776 63.5232 13.511C63.7538 13.1421 64.2426 12.7365 64.759 12.506C65.1279 12.34 66.0223 12.0447 66.299 12.9577C66.4926 13.8891 65.7457 14.6821 65.4229 14.9772C64.9526 15.4014 64.4178 15.669 64.0858 15.669C64.2241 16.0655 64.1504 16.4897 63.8553 16.9323C63.4957 17.4672 62.8868 17.9285 62.435 18.1498C61.7157 18.5002 61.1347 18.408 60.9687 17.91C60.9595 17.8731 60.9411 17.827 60.9318 17.7901C60.8765 17.5872 60.8764 17.3936 60.9226 17.2C60.7566 17.4489 60.5261 17.7993 60.1849 18.3065C60.1665 18.3342 60.1389 18.3525 60.1112 18.3617C60.0835 18.3617 60.0743 18.3432 60.0743 18.3155C60.2127 17.7622 60.0465 17.08 60.0465 17.0708C60.028 17.0062 59.8252 16.4067 59.5025 16.1393L59.5118 16.1117ZM60.9687 16.0011C60.9687 16.0103 60.9686 16.0288 60.9594 16.0472C60.941 16.0841 60.9044 16.1024 60.8767 16.1024C60.6554 16.1208 60.1665 16.13 59.7422 16.13C60.0005 16.4343 60.1665 16.9139 60.1849 16.9785C60.1849 16.9877 60.3139 17.5318 60.2494 18.0575C60.6736 17.4119 60.9043 17.0708 61.0703 16.831C61.0888 16.8033 61.1257 16.7756 61.1533 16.7848C61.181 16.7848 61.1901 16.8126 61.1716 16.8403C61.061 17.0708 60.9689 17.3382 61.0703 17.7071C61.0795 17.744 61.0887 17.7808 61.1072 17.8177C61.2639 18.2788 61.7711 18.3617 62.4535 18.0389C62.8777 17.836 63.4403 17.412 63.7723 16.914C64.0674 16.4622 64.1227 16.0287 63.9198 15.6321C63.9106 15.6137 63.9197 15.5768 63.9474 15.5584C63.975 15.5307 64.0027 15.5216 64.0304 15.5308C64.2701 15.6507 64.8788 15.3739 65.386 14.9221C65.6903 14.6454 66.3821 13.9169 66.1977 13.05C65.9395 12.2016 65.1187 12.4691 64.7683 12.6259C64.2242 12.8749 63.68 13.3542 63.5601 13.7139C63.5509 13.7416 63.5233 13.7694 63.4957 13.7786C63.468 13.7878 63.4402 13.7784 63.4402 13.7508C63.4033 13.2436 63.182 12.9947 62.767 13.0131C62.3152 13.0316 61.725 13.3819 61.3377 13.7139C60.7198 14.2488 60.3877 14.8944 60.4892 15.3923C60.5814 15.8534 60.7751 15.955 60.9687 16.0011C60.9595 15.9826 60.9687 15.9918 60.9687 16.0011Z" fill="url(#paint24_linear_506_15137)"/>
<path d="M24.5435 78.2669C24.0547 78.0363 21.9704 79.1798 22.2563 80.5262L22.2656 80.5448V80.5631C22.6622 81.8357 24.6355 80.2774 24.8753 79.5674C24.9214 81.0613 26.2125 80.4155 26.8211 79.8899C27.4113 79.3827 27.6789 78.8018 27.6052 78.23C27.5314 77.6675 26.8765 77.6767 26.5537 77.7505C27.2085 77.483 27.7711 77.3816 28.1953 77.3908L28.2229 77.3446C28.0108 77.1694 27.9371 76.856 27.9187 76.7638C27.9187 76.7638 27.8078 76.4135 27.8908 75.9893H27.8539C27.5588 76.4965 27.0979 77.0773 26.5169 77.6399C26.7751 77.3263 27.2455 76.5887 27.0519 76.1092C26.849 75.6296 26.4063 75.5189 25.77 75.8232C25.1152 76.1552 23.9072 77.1695 24.5435 78.2669Z" fill="url(#paint25_linear_506_15137)"/>
<path d="M28.7495 77.5664C28.7495 77.5848 28.7494 77.6031 28.7309 77.6216C28.7125 77.6492 28.6756 77.6677 28.6572 77.6677C28.3344 77.6677 27.947 77.6678 27.6519 77.677C27.7903 77.7784 27.8735 77.9443 27.9196 78.221C28.021 78.7559 27.6613 79.4752 26.9973 80.0469C26.5823 80.4066 25.9461 80.7754 25.4573 80.8031C25.0516 80.8216 24.8118 80.6095 24.738 80.1761C24.5075 80.545 24.0187 80.9508 23.5023 81.1814C23.1334 81.3473 22.2389 81.6423 21.9623 80.7294C21.7686 79.798 22.5156 79.0049 22.8384 78.7006C23.3087 78.2763 23.8435 78.0091 24.1754 78.0091C24.0371 77.6125 24.1108 77.1881 24.4059 76.7455C24.7656 76.2106 25.3741 75.7496 25.826 75.5283C26.5453 75.1779 27.1263 75.2793 27.2923 75.7681C27.3015 75.805 27.3202 75.8511 27.3294 75.888C27.3847 76.0908 27.3845 76.2752 27.3384 76.4781C27.5044 76.2291 27.7351 75.8787 28.0763 75.3715C28.0948 75.3439 28.1224 75.3253 28.1501 75.3161C28.1777 75.3161 28.1869 75.3346 28.1869 75.3622C28.0486 75.9156 28.2145 76.6073 28.2145 76.6073C28.2329 76.6718 28.436 77.2714 28.7588 77.5388C28.7403 77.5573 28.7495 77.5664 28.7495 77.5664ZM27.2923 77.677C27.2923 77.677 27.2923 77.6493 27.3016 77.6308C27.32 77.6032 27.3569 77.5757 27.3846 77.5757C27.6059 77.5572 28.0948 77.5478 28.519 77.5478C28.2608 77.2435 28.0948 76.7639 28.0763 76.7086C28.0763 76.7086 27.947 76.1555 28.0116 75.6299C27.5874 76.2754 27.3569 76.6166 27.1909 76.8563C27.1725 76.884 27.1356 76.9117 27.1079 76.9025C27.0803 76.9025 27.0712 76.8747 27.0896 76.8471C27.2003 76.6165 27.2924 76.3491 27.1909 75.9803C27.1817 75.9434 27.1725 75.9065 27.1541 75.8697C26.9973 75.4086 26.4809 75.3254 25.8077 75.6482C25.3835 75.8511 24.8209 76.2753 24.4889 76.7733C24.1938 77.2252 24.1386 77.6587 24.3415 78.0552C24.3507 78.0737 24.3413 78.1105 24.3136 78.129C24.286 78.1566 24.2583 78.1658 24.2399 78.1566C23.9909 78.0367 23.3914 78.3134 22.8842 78.7653C22.5799 79.0419 21.8884 79.7705 22.0729 80.6373C22.3311 81.4858 23.1518 81.2182 23.5023 81.0615C24.0463 80.8125 24.5903 80.3329 24.7102 79.9825C24.7194 79.9548 24.7472 79.9272 24.7749 79.9087C24.8025 79.8995 24.83 79.9086 24.83 79.9363C24.8669 80.4435 25.0882 80.6927 25.5032 80.6742C25.9551 80.6558 26.5456 80.3052 26.9329 79.9732C27.5507 79.4383 27.8825 78.793 27.7811 78.295C27.6889 77.8339 27.4952 77.7232 27.3016 77.6863L27.2923 77.677Z" fill="url(#paint26_linear_506_15137)"/>
<path d="M20.8374 80.757L20.6069 80.9138C20.5424 80.8031 20.4776 80.7292 20.4223 80.6923C20.367 80.6554 20.3025 80.6462 20.2287 80.6554C20.1549 80.6739 20.0534 80.7201 19.9428 80.7939C19.8321 80.8677 19.7215 80.9599 19.5924 81.0705C19.4725 81.1812 19.3341 81.3102 19.1866 81.4578L18.5871 82.0479L19.0945 83.9293L19.611 83.7171C19.8692 83.6156 20.0534 83.5328 20.1825 83.459C20.3116 83.3945 20.4224 83.3207 20.5146 83.2561C20.6991 83.1178 20.828 82.9793 20.8926 82.8317C20.9571 82.6842 20.985 82.5276 20.9666 82.3431L21.1971 82.1771L21.6305 83.837L21.409 84.003C21.3445 83.8831 21.2061 83.8278 21.0125 83.8463C20.8096 83.8647 20.5332 83.9477 20.1735 84.086L13.9762 86.5021L13.7826 85.8289L19.2513 80.3973C19.4911 80.1576 19.6661 79.9731 19.786 79.8348C19.9059 79.6964 19.989 79.5674 20.0444 79.4475C20.0997 79.3276 20.1274 79.1983 20.1367 79.0507L20.3672 78.894L20.8374 80.757ZM18.6426 84.1229L18.1816 82.4262L15.0183 85.5706L18.6426 84.1229Z" fill="url(#paint27_linear_506_15137)"/>
<path d="M67.989 12.5429L68.2195 12.3861C68.284 12.4968 68.3485 12.5704 68.4038 12.6073C68.4592 12.6442 68.5237 12.6626 68.5974 12.6442C68.6712 12.6257 68.7727 12.5798 68.8834 12.506C68.994 12.4322 69.1047 12.34 69.2338 12.2293C69.3629 12.1187 69.492 11.9894 69.6396 11.8418L70.239 11.2517L69.7319 9.37031L69.2155 9.58251C68.9573 9.68395 68.7635 9.76709 68.6436 9.84086C68.5145 9.90541 68.404 9.97922 68.3118 10.0438C68.1274 10.1821 67.9981 10.3203 67.9336 10.4679C67.869 10.6062 67.8414 10.7723 67.8598 10.9567L67.6293 11.1225L67.1959 9.46262L67.4171 9.29658C67.4817 9.42568 67.6108 9.47178 67.8137 9.45333C68.0165 9.43489 68.2932 9.35188 68.6529 9.21356L74.85 6.79749L75.0436 7.47067L69.5751 12.9025C69.3354 13.1331 69.16 13.3265 69.0401 13.4648C68.9203 13.6032 68.8374 13.7325 68.7821 13.8524C68.7267 13.9722 68.699 14.1013 68.6898 14.2489L68.4593 14.4056L67.989 12.5429ZM70.1836 9.17669L70.6448 10.8737L73.8078 7.72902L70.1836 9.17669Z" fill="url(#paint28_linear_506_15137)"/>
<defs>
<linearGradient id="paint0_linear_506_15137" x1="82.0915" y1="95.1518" x2="122.643" y2="136.541" gradientUnits="userSpaceOnUse">
<stop stop-color="#CDCCCB"/>
<stop offset="0.9947" stop-color="#B6B4B3"/>
</linearGradient>
<linearGradient id="paint1_linear_506_15137" x1="81.916" y1="95.6753" x2="122.311" y2="135.825" gradientUnits="userSpaceOnUse">
<stop stop-color="#F3F5F4"/>
<stop offset="0.7063" stop-color="#E5E5E4"/>
<stop offset="0.9947" stop-color="#D4D2D1"/>
</linearGradient>
<linearGradient id="paint2_linear_506_15137" x1="82.04" y1="96.7154" x2="123.222" y2="137.237" gradientUnits="userSpaceOnUse">
<stop stop-color="#EF0A07"/>
<stop offset="1" stop-color="#C70000"/>
</linearGradient>
<linearGradient id="paint3_linear_506_15137" x1="82.266" y1="96.4846" x2="123.447" y2="137.007" gradientUnits="userSpaceOnUse">
<stop stop-color="#EF0A07"/>
<stop offset="1" stop-color="#C70000"/>
</linearGradient>
<linearGradient id="paint4_linear_506_15137" x1="64.3421" y1="114.706" x2="105.521" y2="155.226" gradientUnits="userSpaceOnUse">
<stop stop-color="#EF0A07"/>
<stop offset="1" stop-color="#C70000"/>
</linearGradient>
<linearGradient id="paint5_linear_506_15137" x1="64.3875" y1="114.656" x2="105.567" y2="155.178" gradientUnits="userSpaceOnUse">
<stop stop-color="#EF0A07"/>
<stop offset="1" stop-color="#C70000"/>
</linearGradient>
<linearGradient id="paint6_linear_506_15137" x1="57.7427" y1="121.408" x2="98.9229" y2="161.928" gradientUnits="userSpaceOnUse">
<stop stop-color="#EF0A07"/>
<stop offset="1" stop-color="#C70000"/>
</linearGradient>
<linearGradient id="paint7_linear_506_15137" x1="-5.79621" y1="133.957" x2="61.2621" y2="146.094" gradientUnits="userSpaceOnUse">
<stop stop-color="#CDCCCB"/>
<stop offset="0.9947" stop-color="#B6B4B3"/>
</linearGradient>
<linearGradient id="paint8_linear_506_15137" x1="-5.37292" y1="134.033" x2="60.839" y2="146.017" gradientUnits="userSpaceOnUse">
<stop stop-color="#F3F5F4"/>
<stop offset="0.7063" stop-color="#E5E5E4"/>
<stop offset="0.9947" stop-color="#D4D2D1"/>
</linearGradient>
<linearGradient id="paint9_linear_506_15137" x1="3.95966" y1="106.072" x2="36.0717" y2="84.9422" gradientUnits="userSpaceOnUse">
<stop stop-color="#2C2C28"/>
<stop offset="0.0245" stop-color="#2B2B27"/>
<stop offset="0.63" stop-color="#111511"/>
<stop offset="0.9947" stop-color="#080D09"/>
</linearGradient>
<linearGradient id="paint10_linear_506_15137" x1="19.8467" y1="194.788" x2="51.9585" y2="173.659" gradientUnits="userSpaceOnUse">
<stop stop-color="#2C2C28"/>
<stop offset="0.0245" stop-color="#2B2B27"/>
<stop offset="0.63" stop-color="#111511"/>
<stop offset="0.9947" stop-color="#080D09"/>
</linearGradient>
<linearGradient id="paint11_linear_506_15137" x1="4.86242" y1="136.596" x2="52.6812" y2="145.106" gradientUnits="userSpaceOnUse">
<stop stop-color="#2C2C28"/>
<stop offset="0.0245" stop-color="#2B2B27"/>
<stop offset="0.63" stop-color="#111511"/>
<stop offset="0.9947" stop-color="#080D09"/>
</linearGradient>
<linearGradient id="paint12_linear_506_15137" x1="15.593" y1="151.119" x2="40.8751" y2="134.485" gradientUnits="userSpaceOnUse">
<stop stop-color="#2C2C28"/>
<stop offset="0.0245" stop-color="#2B2B27"/>
<stop offset="0.63" stop-color="#111511"/>
<stop offset="0.9947" stop-color="#080D09"/>
</linearGradient>
<linearGradient id="paint13_linear_506_15137" x1="3.21425" y1="109.062" x2="51.0317" y2="117.572" gradientUnits="userSpaceOnUse">
<stop stop-color="#2C2C28"/>
<stop offset="0.0245" stop-color="#2B2B27"/>
<stop offset="0.63" stop-color="#111511"/>
<stop offset="0.9947" stop-color="#080D09"/>
</linearGradient>
<linearGradient id="paint14_linear_506_15137" x1="5.53557" y1="112.178" x2="30.8144" y2="95.5448" gradientUnits="userSpaceOnUse">
<stop stop-color="#2C2C28"/>
<stop offset="0.0245" stop-color="#2B2B27"/>
<stop offset="0.63" stop-color="#111511"/>
<stop offset="0.9947" stop-color="#080D09"/>
</linearGradient>
<linearGradient id="paint15_linear_506_15137" x1="5.1363" y1="162.8" x2="52.9547" y2="171.311" gradientUnits="userSpaceOnUse">
<stop stop-color="#2C2C28"/>
<stop offset="0.0245" stop-color="#2B2B27"/>
<stop offset="0.63" stop-color="#111511"/>
<stop offset="0.9947" stop-color="#080D09"/>
</linearGradient>
<linearGradient id="paint16_linear_506_15137" x1="25.0231" y1="184.453" x2="50.3026" y2="167.821" gradientUnits="userSpaceOnUse">
<stop stop-color="#2C2C28"/>
<stop offset="0.0245" stop-color="#2B2B27"/>
<stop offset="0.63" stop-color="#111511"/>
<stop offset="0.9947" stop-color="#080D09"/>
</linearGradient>
<linearGradient id="paint17_linear_506_15137" x1="164.709" y1="120.064" x2="125.401" y2="126.916" gradientUnits="userSpaceOnUse">
<stop stop-color="#CDCCCB"/>
<stop offset="0.9947" stop-color="#B6B4B3"/>
</linearGradient>
<linearGradient id="paint18_linear_506_15137" x1="164.45" y1="120.239" x2="125.7" y2="126.993" gradientUnits="userSpaceOnUse">
<stop stop-color="#F3F5F4"/>
<stop offset="0.7063" stop-color="#E5E5E4"/>
<stop offset="0.9947" stop-color="#D4D2D1"/>
</linearGradient>
<linearGradient id="paint19_linear_506_15137" x1="49.9302" y1="67.977" x2="26.8764" y2="33.2928" gradientUnits="userSpaceOnUse">
<stop stop-color="#CDCCCB"/>
<stop offset="0.9947" stop-color="#B6B4B3"/>
</linearGradient>
<linearGradient id="paint20_linear_506_15137" x1="49.8513" y1="67.6752" x2="27.124" y2="33.4823" gradientUnits="userSpaceOnUse">
<stop stop-color="#F3F5F4"/>
<stop offset="0.7063" stop-color="#E5E5E4"/>
<stop offset="0.9947" stop-color="#D4D2D1"/>
</linearGradient>
<linearGradient id="paint21_linear_506_15137" x1="50.058" y1="67.308" x2="27.4029" y2="33.8886" gradientUnits="userSpaceOnUse">
<stop stop-color="#2C2C28"/>
<stop offset="0.0245" stop-color="#2B2B27"/>
<stop offset="0.63" stop-color="#111511"/>
<stop offset="0.9947" stop-color="#080D09"/>
</linearGradient>
<linearGradient id="paint22_linear_506_15137" x1="50.2594" y1="67.1706" x2="27.6043" y2="33.7515" gradientUnits="userSpaceOnUse">
<stop stop-color="#2C2C28"/>
<stop offset="0.0245" stop-color="#2B2B27"/>
<stop offset="0.63" stop-color="#111511"/>
<stop offset="0.9947" stop-color="#080D09"/>
</linearGradient>
<linearGradient id="paint23_linear_506_15137" x1="73.3668" y1="51.5046" x2="50.7118" y2="18.0853" gradientUnits="userSpaceOnUse">
<stop stop-color="#2C2C28"/>
<stop offset="0.0245" stop-color="#2B2B27"/>
<stop offset="0.63" stop-color="#111511"/>
<stop offset="0.9947" stop-color="#080D09"/>
</linearGradient>
<linearGradient id="paint24_linear_506_15137" x1="73.3233" y1="51.5335" x2="50.6689" y2="18.1154" gradientUnits="userSpaceOnUse">
<stop stop-color="#2C2C28"/>
<stop offset="0.0245" stop-color="#2B2B27"/>
<stop offset="0.63" stop-color="#111511"/>
<stop offset="0.9947" stop-color="#080D09"/>
</linearGradient>
<linearGradient id="paint25_linear_506_15137" x1="26.4913" y1="83.2838" x2="3.83471" y2="49.861" gradientUnits="userSpaceOnUse">
<stop stop-color="#2C2C28"/>
<stop offset="0.0245" stop-color="#2B2B27"/>
<stop offset="0.63" stop-color="#111511"/>
<stop offset="0.9947" stop-color="#080D09"/>
</linearGradient>
<linearGradient id="paint26_linear_506_15137" x1="26.5377" y1="83.2525" x2="3.88102" y2="49.8323" gradientUnits="userSpaceOnUse">
<stop stop-color="#2C2C28"/>
<stop offset="0.0245" stop-color="#2B2B27"/>
<stop offset="0.63" stop-color="#111511"/>
<stop offset="0.9947" stop-color="#080D09"/>
</linearGradient>
<linearGradient id="paint27_linear_506_15137" x1="18.8006" y1="88.4981" x2="-3.85493" y2="55.0796" gradientUnits="userSpaceOnUse">
<stop stop-color="#2C2C28"/>
<stop offset="0.0245" stop-color="#2B2B27"/>
<stop offset="0.63" stop-color="#111511"/>
<stop offset="0.9947" stop-color="#080D09"/>
</linearGradient>
<linearGradient id="paint28_linear_506_15137" x1="81.623" y1="45.9093" x2="58.9677" y2="12.4908" gradientUnits="userSpaceOnUse">
<stop stop-color="#2C2C28"/>
<stop offset="0.0245" stop-color="#2B2B27"/>
<stop offset="0.63" stop-color="#111511"/>
<stop offset="0.9947" stop-color="#080D09"/>
</linearGradient>
</defs>
</svg>
