<svg width="173" height="190" viewBox="0 0 173 190" fill="none" xmlns="http://www.w3.org/2000/svg">
<path d="M23.1823 79.4943C22.3523 80.3058 22.1955 81.5877 22.8226 82.3623L57.2847 124.681C57.9118 125.456 59.0923 125.419 59.9223 124.608L120.676 65.0896C121.506 64.2781 121.662 62.9965 121.035 62.2219L86.5733 19.9026C85.9462 19.1279 84.7657 19.1648 83.9358 19.9763L23.1823 79.4943Z" fill="url(#paint0_linear_506_15054)"/>
<path d="M23.7152 79.5405C22.8944 80.3428 22.7284 81.6153 23.3555 82.3807L57.329 124.101C57.9469 124.866 59.118 124.829 59.9387 124.027L120.148 65.0438C120.969 64.2415 121.135 62.9688 120.508 62.2126L86.5346 20.4928C85.9168 19.7273 84.7457 19.7645 83.9249 20.5668L23.7152 79.5405Z" fill="url(#paint1_linear_506_15054)"/>
<path d="M77.9206 57.6663C80.595 61.3919 77.819 66.5839 77.819 66.5839L77.8008 66.5932C77.8008 66.5932 82.8174 64.1493 85.8975 67.4876C88.9776 70.8259 87.7603 76.9491 83.758 79.6419C79.7558 82.3347 73.5124 81.2926 69.547 80.9514C65.5816 80.601 62.4648 81.6339 62.4648 81.6339L62.4738 81.6249C62.4738 81.6249 63.7558 78.3418 63.8849 73.9799C64.014 69.6179 63.7742 62.7016 66.6607 58.6439C69.5471 54.5863 75.2463 53.9406 77.9206 57.6663Z" fill="url(#paint2_linear_506_15054)"/>
<path d="M60.7598 83.2293C60.6953 83.1463 60.677 83.0264 60.7139 82.9158C60.7232 82.8789 61.9772 79.3007 62.2078 74.5514L62.2722 73.1589C62.5396 67.4506 62.8625 60.3498 65.8227 57.113C67.7777 54.9735 70.535 53.6457 73.2094 53.5535C75.561 53.4797 77.5529 54.3648 78.8163 56.117C81.1955 59.3908 80.4301 62.9505 79.9322 64.4445C81.3431 64.0756 84.6447 63.6328 87.3467 66.6022C88.7853 68.1699 89.3754 70.4569 89.0434 73.0022C88.6653 75.9071 87.1438 78.766 84.9951 80.6565C81.7121 83.5245 75.5335 83.1186 70.0926 82.7497L68.9305 82.676C64.6055 82.3994 61.0734 83.3217 61.0457 83.3309C60.9259 83.3401 60.8244 83.3123 60.7598 83.2293ZM86.904 67.0817C83.9438 63.8356 80.2274 64.97 79.5173 65.2283C79.4067 65.2651 79.2866 65.2375 79.2128 65.1545C79.139 65.0623 79.1298 64.933 79.176 64.8131C79.4895 64.0662 80.9372 60.1377 78.3274 56.5504C77.1655 54.9642 75.3304 54.125 73.1632 54.1988C70.6457 54.2818 68.0545 55.5267 66.2285 57.5371C63.462 60.5711 63.1391 67.5246 62.8809 73.1131L62.8165 74.5146C62.6228 78.3601 61.8019 81.4035 61.4423 82.5747C62.5766 82.3349 65.5462 81.8001 69.0228 82.0214L70.1939 82.0951C75.2567 82.4363 81.5644 82.8603 84.6537 80.1583C86.6825 78.3877 88.1028 75.7043 88.4533 72.9746C88.7484 70.7429 88.2686 68.7417 87.1159 67.3215C87.0421 67.2385 86.9778 67.1555 86.904 67.0817Z" fill="url(#paint3_linear_506_15054)"/>
<path d="M105.796 68.1793C106.368 68.9724 105.778 70.0789 105.778 70.0789C105.778 70.0789 106.847 69.5625 107.502 70.2726C108.157 70.9827 107.899 72.2829 107.05 72.8547C106.202 73.4264 104.874 73.2051 104.025 73.1313C103.177 73.0575 102.513 73.2788 102.513 73.2788C102.513 73.2788 102.78 72.578 102.817 71.6558C102.845 70.7244 102.799 69.2581 103.407 68.3912C104.016 67.5151 105.224 67.377 105.796 68.1793Z" fill="url(#paint4_linear_506_15054)"/>
<path d="M102.146 73.6109C102.127 73.5925 102.127 73.5649 102.137 73.5465C102.137 73.5465 102.404 72.7811 102.45 71.7667L102.469 71.4715C102.524 70.2542 102.598 68.7419 103.225 68.0595C103.64 67.6076 104.23 67.3217 104.802 67.3033C105.3 67.2848 105.724 67.4784 105.991 67.8473C106.499 68.5481 106.333 69.3045 106.231 69.618C106.535 69.535 107.237 69.4427 107.808 70.079C108.113 70.411 108.242 70.8998 108.168 71.4439C108.085 72.0618 107.762 72.6705 107.301 73.0762C106.6 73.6849 105.291 73.6016 104.129 73.5186L103.88 73.5003C102.958 73.445 102.201 73.6385 102.201 73.6385C102.183 73.6385 102.155 73.6294 102.146 73.6109ZM107.707 70.1803C107.08 69.4887 106.287 69.7285 106.13 69.7838C106.102 69.793 106.084 69.7839 106.065 69.7655C106.047 69.747 106.047 69.7194 106.056 69.6918C106.121 69.535 106.434 68.6957 105.872 67.9303C105.623 67.5891 105.235 67.414 104.774 67.4324C104.239 67.4509 103.686 67.7183 103.299 68.1425C102.708 68.788 102.644 70.2633 102.589 71.4529L102.579 71.7482C102.533 72.5689 102.367 73.2145 102.284 73.4635C102.524 73.4081 103.16 73.2975 103.898 73.3436L104.147 73.3619C105.226 73.4356 106.563 73.5281 107.227 72.9563C107.661 72.5782 107.956 72.0063 108.039 71.4254C108.103 70.955 108.002 70.5216 107.753 70.2265C107.734 70.208 107.725 70.1895 107.707 70.1803Z" fill="url(#paint5_linear_506_15054)"/>
<path d="M106.372 64.9698L106.566 64.7854C106.695 64.8869 106.824 64.9423 106.944 64.9607C107.064 64.9792 107.202 64.9606 107.35 64.9053C107.497 64.85 107.71 64.7578 107.968 64.6287L114.054 61.5856L114.626 62.3232L111.14 68.4927C110.937 68.8431 110.808 69.1473 110.753 69.3871C110.688 69.6268 110.716 69.8392 110.817 70.0144L110.614 70.1801L109.185 68.428L109.379 68.2529C109.545 68.4097 109.701 68.4925 109.84 68.511C109.987 68.5294 110.135 68.465 110.301 68.3266C110.384 68.2529 110.467 68.1607 110.559 68.05C110.651 67.9393 110.762 67.7549 110.91 67.4967L111.204 66.9896L109.591 64.979L108.927 65.3111C108.761 65.3941 108.613 65.4679 108.484 65.5509C108.364 65.6247 108.254 65.7077 108.161 65.7907C108.069 65.8829 108.005 65.9658 107.977 66.058C107.949 66.141 107.949 66.2425 107.968 66.3347C107.995 66.4361 108.051 66.5652 108.134 66.7312L107.94 66.9065L106.372 64.9698ZM113.565 62.9688L110.033 64.7303L111.49 66.5469L113.565 62.9688Z" fill="url(#paint6_linear_506_15054)"/>
<path d="M38.0625 76.4234C37.4907 75.6303 38.081 74.5238 38.081 74.5238C38.081 74.5238 37.0112 75.0402 36.3564 74.3301C35.7017 73.6201 35.96 72.3198 36.8084 71.748C37.6568 71.1763 38.9848 71.3976 39.8332 71.4714C40.6816 71.5452 41.3363 71.3239 41.3363 71.3239C41.3363 71.3239 41.069 72.0247 41.0321 72.9469C41.0044 73.8783 41.0598 75.3446 40.4419 76.2115C39.8425 77.0783 38.6342 77.2165 38.0625 76.4234Z" fill="url(#paint7_linear_506_15054)"/>
<path d="M41.7149 70.9825C41.7241 71.0009 41.7331 71.0288 41.7239 71.0472C41.7239 71.0472 41.4565 71.8126 41.4011 72.827L41.3828 73.1219C41.3275 74.3392 41.2537 75.8518 40.6266 76.5342C40.2116 76.9861 39.6213 77.272 39.0588 77.2904C38.5608 77.3089 38.1366 77.115 37.8692 76.7461C37.362 76.0453 37.528 75.2892 37.6294 74.9757C37.3343 75.0587 36.6243 75.1507 36.0526 74.5144C35.7482 74.1824 35.6191 73.6938 35.6929 73.1498C35.7759 72.5319 36.0986 71.9232 36.5597 71.5175C37.2606 70.9088 38.57 70.9918 39.732 71.0748L39.981 71.0931C40.9032 71.1484 41.6595 70.9549 41.6595 70.9549C41.6779 70.9549 41.7057 70.964 41.7149 70.9825ZM36.1539 74.4131C36.781 75.1047 37.5742 74.865 37.731 74.8096C37.7587 74.8004 37.777 74.8095 37.7955 74.8279C37.8139 74.8464 37.814 74.8743 37.8047 74.9019C37.7402 75.0587 37.4265 75.8977 37.9891 76.6631C38.2381 77.0043 38.6256 77.1797 39.0866 77.1612C39.6215 77.1428 40.1749 76.8754 40.5622 76.4512C41.1524 75.8057 41.2169 74.3301 41.2722 73.1405L41.2905 72.8453C41.3274 72.0245 41.5027 71.3792 41.5857 71.1302C41.346 71.1856 40.7095 71.2962 39.9717 71.2501L39.723 71.2315C38.644 71.1578 37.3067 71.0657 36.6427 71.6466C36.2093 72.0247 35.9144 72.5964 35.8314 73.1773C35.7668 73.6477 35.868 74.0811 36.117 74.3762C36.117 74.3762 36.1354 74.4039 36.1539 74.4131Z" fill="url(#paint8_linear_506_15054)"/>
<path d="M37.4918 79.6236L37.2981 79.8079C37.169 79.7065 37.0398 79.6513 36.9199 79.6329C36.8 79.6144 36.6616 79.6327 36.5141 79.688C36.3665 79.7434 36.1545 79.8356 35.8871 79.9647L29.8006 83.008L29.229 82.2701L32.7148 76.1007C32.9177 75.7502 33.0467 75.446 33.102 75.2063C33.1666 74.9665 33.139 74.7545 33.0376 74.5793L33.2405 74.4132L34.6699 76.1654L34.4762 76.3404C34.3103 76.1837 34.1533 76.1008 34.015 76.0824C33.8674 76.0639 33.72 76.1284 33.554 76.2667C33.471 76.3405 33.3786 76.4327 33.2957 76.5433C33.2127 76.654 33.0928 76.8384 32.9453 77.0966L32.6503 77.604L34.264 79.6143L34.9279 79.2822C35.0939 79.1992 35.2415 79.1254 35.3706 79.0424C35.4905 78.9687 35.6012 78.8857 35.6934 78.8027C35.7856 78.7104 35.8501 78.6275 35.8778 78.5353C35.9054 78.4523 35.9147 78.3509 35.8871 78.2587C35.8594 78.1572 35.804 78.0281 35.721 77.8621L35.9146 77.6871L37.4918 79.6236ZM30.2987 81.6248L33.8306 79.8634L32.3737 78.0467L30.2987 81.6248Z" fill="url(#paint9_linear_506_15054)"/>
<path d="M118.399 4.19873C118.289 3.26732 118.815 2.84314 119.58 3.2489L161.3 25.2521C162.065 25.6579 162.766 26.7278 162.876 27.6592L170.918 95.7535C171.029 96.6849 170.503 97.1091 169.738 96.7033L128.018 74.6998C127.252 74.3032 126.552 73.2244 126.441 72.293L118.399 4.19873Z" fill="url(#paint10_linear_506_15054)"/>
<path d="M118.75 4.66904C118.639 3.74686 119.165 3.32268 119.912 3.71922L161.042 25.409C161.789 25.8055 162.489 26.8753 162.6 27.7974L170.577 95.283C170.688 96.2052 170.162 96.6296 169.415 96.2331L128.286 74.5431C127.539 74.1465 126.838 73.0768 126.727 72.1639L118.75 4.66904Z" fill="url(#paint11_linear_506_15054)"/>
<path d="M164.039 83.8204L164.067 84.0323C163.938 83.9862 163.836 83.9679 163.772 83.9679C163.707 83.9679 163.661 83.9862 163.643 84.0323C163.615 84.0784 163.615 84.1524 163.624 84.2631C163.643 84.3645 163.661 84.4751 163.707 84.6135C163.744 84.7426 163.799 84.8902 163.864 85.0654L164.104 85.7386L166.068 86.7622L166.132 86.3839C166.169 86.1995 166.188 86.052 166.188 85.9505C166.188 85.8491 166.188 85.7478 166.169 85.6556C166.142 85.4804 166.077 85.3234 165.976 85.1943C165.883 85.0652 165.745 84.9455 165.57 84.8257L165.533 84.6135L167.267 85.5264L167.304 85.7386C167.156 85.6833 167.046 85.7107 166.963 85.8213C166.88 85.932 166.815 86.1167 166.76 86.3749L165.874 90.8843L165.164 90.5246L162.932 84.3368C162.84 84.0694 162.757 83.8573 162.683 83.7098C162.619 83.5622 162.545 83.433 162.462 83.3315C162.379 83.2301 162.278 83.1288 162.149 83.0273L162.121 82.8151L164.039 83.8204ZM166.022 87.1033L164.251 86.181L165.551 89.7684L166.022 87.1033Z" fill="url(#paint12_linear_506_15054)"/>
<path d="M125.296 16.1409L125.268 15.929C125.397 15.9751 125.499 15.9935 125.563 15.9935C125.628 15.9935 125.674 15.9751 125.692 15.929C125.72 15.8829 125.72 15.8092 125.711 15.6985C125.701 15.5971 125.674 15.4862 125.637 15.3479C125.6 15.2188 125.545 15.0714 125.48 14.8962L125.24 14.223L123.276 13.1991L123.212 13.5774C123.175 13.7618 123.156 13.9093 123.156 14.0108C123.156 14.1122 123.165 14.2138 123.175 14.306C123.202 14.4812 123.267 14.6379 123.368 14.767C123.461 14.8961 123.599 15.0161 123.774 15.1359L123.811 15.3479L122.077 14.4349L122.041 14.223C122.188 14.2783 122.299 14.2506 122.382 14.14C122.465 14.0293 122.529 13.8449 122.575 13.5867L123.461 9.07706L124.171 9.43672L126.402 15.6245C126.504 15.8919 126.578 16.1043 126.651 16.2518C126.716 16.3994 126.79 16.5283 126.873 16.6298C126.956 16.7312 127.057 16.8328 127.186 16.9343L127.214 17.1462L125.296 16.1409ZM123.313 12.8581L125.093 13.7803L123.793 10.1929L123.313 12.8581Z" fill="url(#paint13_linear_506_15054)"/>
<path d="M134.64 42.7737C135.507 46.5085 137.84 49.6532 140.339 52.9547C142.838 56.2561 146.048 61.78 146.048 61.78C146.048 61.78 148.335 59.1519 150.336 58.2205C152.337 57.2891 154.19 56.3485 154.227 53.1024C154.273 49.8563 151.433 45.7801 149.063 44.1755C146.693 42.5801 145.282 43.3179 144.314 44.941C144.544 42.2574 145.632 40.7543 146.582 39.9335L146.472 39.6937C144.747 39.5646 143.373 38.7808 143.373 38.7808V38.7901C143.041 38.6333 141.686 37.9784 139.989 36.2724L139.924 36.3368C141.197 38.3288 142.857 41.2891 143.816 44.6643C142.313 41.741 140.524 39.3063 138.246 38.4487C135.959 37.6187 133.773 39.0481 134.64 42.7737Z" fill="url(#paint14_linear_506_15054)"/>
<path d="M137.832 33.7363C137.85 33.7455 137.869 33.7639 137.896 33.7731C140.857 36.1985 142.129 36.8715 143.153 37.4064C144.177 37.9413 145.449 38.6145 148.188 39.2047C148.271 39.2232 148.382 39.3153 148.446 39.4352C148.511 39.5551 148.511 39.675 148.465 39.7212C147.81 40.3759 147.349 40.9109 146.86 41.4826C146.685 41.6855 146.51 41.8882 146.325 42.1004C147.247 42.1004 148.345 42.4602 149.507 43.1979C150.945 44.1017 152.467 45.7616 153.583 47.6428C154.413 49.0445 155.409 51.2208 155.427 53.5908C155.455 57.4548 153.242 58.4784 151.102 59.4744C149.018 60.4427 146.666 63.1264 146.399 63.4307C146.362 63.4676 146.307 63.4676 146.242 63.44L146.196 63.4121C146.132 63.3752 146.058 63.3108 146.012 63.2278C145.643 62.5915 142.305 56.9108 139.695 53.4526C137.048 49.9575 134.318 46.3516 133.378 41.9805C132.815 39.3707 133.378 38.0706 133.949 37.4343C134.742 36.5582 136.08 36.392 137.528 37.0099C138.745 37.5263 139.934 38.4393 140.82 39.2785C140.525 38.7805 140.257 38.3102 139.98 37.8491C139.28 36.6595 138.625 35.5346 137.721 34.0591C137.647 33.9392 137.629 33.8191 137.666 33.7546C137.694 33.6992 137.758 33.6994 137.832 33.7363ZM145.55 42.7828C145.495 42.7552 145.431 42.6998 145.384 42.6261C145.301 42.497 145.274 42.3495 145.329 42.285C145.763 41.8147 146.122 41.4088 146.473 41.0031C146.869 40.542 147.238 40.1085 147.718 39.6105C145.348 39.048 144.121 38.4026 143.208 37.9138C142.295 37.4343 141.069 36.7886 138.523 34.7598C139.187 35.8572 139.722 36.7701 140.285 37.7292C140.783 38.5868 141.29 39.4537 141.899 40.4681C141.982 40.5972 141.991 40.7448 141.926 40.7909C141.862 40.8462 141.742 40.7909 141.641 40.671C140.82 39.6566 139.206 38.2088 137.62 37.5356C136.283 36.9638 135.056 37.1114 134.318 37.9321C133.793 38.5223 133.267 39.7212 133.793 42.1465C134.696 46.3056 137.352 49.8192 139.916 53.2129C142.323 56.4036 145.329 61.4296 146.141 62.8037C146.712 62.1581 148.852 59.8342 150.779 58.9397C152.956 57.9252 155.021 56.9662 154.994 53.2959C154.975 51.0826 154.053 49.0723 153.288 47.772C152.255 46.0291 150.853 44.4982 149.525 43.6775C149.331 43.5576 149.138 43.4468 148.954 43.3454C147.699 42.6814 146.5 42.4878 145.68 42.8014C145.643 42.8106 145.597 42.8105 145.55 42.7828Z" fill="url(#paint15_linear_506_15054)"/>
<path d="M162.168 78.7023C162.352 79.4678 162.832 80.1225 163.348 80.8049C163.865 81.4873 164.529 82.6308 164.529 82.6308C164.529 82.6308 164.999 82.0866 165.414 81.8929C165.829 81.6992 166.207 81.5057 166.216 80.8325C166.225 80.1593 165.635 79.32 165.146 78.988C164.658 78.656 164.363 78.8128 164.169 79.1447C164.215 78.5914 164.445 78.2779 164.639 78.1119L164.621 78.066C164.27 78.0384 163.985 77.8814 163.985 77.8814C163.92 77.8537 163.634 77.7154 163.283 77.365L163.274 77.3743C163.532 77.78 163.874 78.3979 164.077 79.0896C163.763 78.4809 163.394 77.9829 162.924 77.8077C162.435 77.6417 161.983 77.9369 162.168 78.7023Z" fill="url(#paint16_linear_506_15054)"/>
<path d="M162.823 76.8393L162.832 76.8486C163.441 77.3465 163.708 77.4848 163.92 77.5955C164.132 77.7061 164.39 77.8445 164.962 77.9644C164.981 77.9644 164.999 77.9921 165.018 78.0106C165.027 78.0382 165.036 78.0568 165.018 78.066C164.879 78.2043 164.787 78.315 164.686 78.4257C164.649 78.4718 164.612 78.5085 164.575 78.5546C164.769 78.5546 164.99 78.6286 165.23 78.7853C165.525 78.9698 165.838 79.311 166.069 79.6983C166.244 79.9842 166.447 80.436 166.447 80.9248C166.456 81.7179 165.995 81.9298 165.552 82.142C165.119 82.3448 164.639 82.898 164.584 82.9626C164.584 82.9626 164.565 82.9718 164.547 82.9626L164.538 82.9536C164.52 82.9444 164.51 82.9352 164.501 82.9167C164.427 82.7876 163.736 81.6162 163.201 80.8969C162.657 80.1776 162.094 79.4307 161.891 78.527C161.771 77.9921 161.891 77.7156 162.011 77.5865C162.177 77.402 162.454 77.3743 162.749 77.5034C162.998 77.6141 163.247 77.7985 163.431 77.9737C163.367 77.8723 163.311 77.7707 163.256 77.6785C163.109 77.4295 162.98 77.199 162.786 76.8947C162.767 76.867 162.767 76.8487 162.777 76.8303C162.795 76.8303 162.804 76.83 162.823 76.8393ZM164.418 78.7023L164.381 78.6745C164.363 78.6468 164.363 78.6192 164.372 78.6007C164.464 78.5085 164.538 78.4164 164.602 78.3334C164.685 78.2412 164.759 78.1489 164.861 78.0474C164.372 77.9276 164.114 77.7985 163.929 77.6971C163.745 77.5956 163.487 77.4664 162.961 77.0422C163.099 77.2727 163.21 77.4572 163.321 77.6509C163.422 77.8261 163.533 78.0106 163.653 78.2135C163.671 78.2412 163.662 78.2779 163.662 78.2779C163.662 78.2779 163.625 78.278 163.607 78.2504C163.441 78.0382 163.099 77.7431 162.777 77.6048C162.5 77.4849 162.251 77.5218 162.094 77.6878C161.983 77.8077 161.882 78.0566 161.984 78.5546C162.168 79.4122 162.721 80.1409 163.247 80.8418C163.745 81.4965 164.363 82.5385 164.529 82.8244C164.649 82.6953 165.091 82.2158 165.488 82.0314C165.94 81.8192 166.364 81.6255 166.355 80.8693C166.355 80.4175 166.161 79.9933 166.004 79.7259C165.792 79.3662 165.497 79.0526 165.23 78.8774C165.193 78.8497 165.147 78.8314 165.11 78.8129C164.851 78.6746 164.602 78.6378 164.436 78.7023H164.418Z" fill="url(#paint17_linear_506_15054)"/>
<path d="M127.171 21.0657C126.986 20.2911 126.507 19.6362 125.981 18.9446C125.456 18.2529 124.792 17.1001 124.792 17.1001C124.792 17.1001 124.312 17.6443 123.897 17.838C123.482 18.0317 123.095 18.2253 123.085 18.9077C123.076 19.5809 123.666 20.4385 124.164 20.7705C124.662 21.1025 124.948 20.9457 125.151 20.6137C125.105 21.1763 124.874 21.4899 124.681 21.6559L124.699 21.702C125.059 21.7297 125.345 21.8956 125.345 21.8956C125.409 21.9325 125.695 22.0706 126.055 22.4211L126.064 22.4121C125.797 21.9971 125.455 21.379 125.253 20.6782C125.566 21.2868 125.935 21.7942 126.415 21.9694C126.894 22.1354 127.355 21.8403 127.171 21.0657Z" fill="url(#paint18_linear_506_15054)"/>
<path d="M126.508 22.9466C126.499 22.9374 126.499 22.9466 126.508 22.9466C125.881 22.4302 125.614 22.2921 125.402 22.1814C125.189 22.0707 124.922 21.9323 124.35 21.8032C124.332 21.8032 124.313 21.7755 124.295 21.757C124.286 21.7294 124.277 21.711 124.295 21.6926C124.433 21.5542 124.526 21.4435 124.627 21.3236C124.664 21.2775 124.701 21.2406 124.738 21.1944C124.544 21.1944 124.314 21.1207 124.074 20.964C123.769 20.7795 123.456 20.429 123.225 20.0417C123.05 19.7466 122.847 19.2947 122.838 18.806C122.829 18.0037 123.29 17.7824 123.742 17.5795C124.175 17.3766 124.664 16.8142 124.719 16.7588C124.728 16.7496 124.738 16.7496 124.756 16.7588L124.765 16.7681C124.774 16.7773 124.793 16.7865 124.802 16.805C124.876 16.9341 125.577 18.1238 126.121 18.8431C126.674 19.5716 127.246 20.3183 127.44 21.2313C127.56 21.7754 127.44 22.0431 127.32 22.1814C127.154 22.3658 126.877 22.3933 126.573 22.2734C126.324 22.1628 126.075 21.9784 125.89 21.8032C125.955 21.9046 126.01 22.0062 126.066 22.0984C126.213 22.3474 126.352 22.5779 126.536 22.8915C126.554 22.9191 126.554 22.9375 126.545 22.9559C126.536 22.9559 126.517 22.9558 126.508 22.9466ZM124.894 21.0563C124.904 21.0655 124.922 21.0747 124.931 21.0931C124.95 21.1208 124.95 21.1484 124.941 21.1669C124.848 21.2683 124.775 21.3512 124.701 21.4342C124.618 21.5264 124.544 21.6187 124.442 21.7201C124.94 21.84 125.19 21.9691 125.383 22.0705C125.577 22.172 125.826 22.3104 126.361 22.7254C126.222 22.4949 126.112 22.3011 125.992 22.1074C125.89 21.9322 125.78 21.7479 125.651 21.5358C125.632 21.5081 125.632 21.4803 125.641 21.4711C125.651 21.4619 125.678 21.4713 125.697 21.4989C125.872 21.711 126.204 22.0152 126.536 22.1536C126.813 22.2734 127.071 22.2365 127.227 22.0705C127.338 21.9506 127.449 21.7016 127.338 21.1944C127.154 20.3276 126.601 19.5898 126.066 18.889C125.559 18.225 124.94 17.1739 124.765 16.888C124.645 17.0263 124.203 17.5059 123.797 17.6904C123.345 17.9025 122.912 18.1053 122.921 18.8707C122.921 19.3318 123.115 19.7468 123.281 20.0234C123.493 20.3831 123.788 20.7057 124.064 20.8809C124.101 20.9086 124.147 20.927 124.184 20.9547C124.443 21.093 124.692 21.1301 124.867 21.0655C124.876 21.0563 124.885 21.0563 124.894 21.0563Z" fill="url(#paint19_linear_506_15054)"/>
<path d="M36.2645 1.52521C36.0524 0.335593 35.3882 -0.291503 34.7611 0.132703L0.806457 23.2794C0.188592 23.7036 -0.143337 25.0133 0.0595443 26.2029L15.3031 113.672C15.506 114.862 16.1791 115.489 16.797 115.065L50.7519 91.9179C51.3698 91.4937 51.7017 90.1841 51.4988 88.9945L36.2645 1.52521Z" fill="url(#paint20_linear_506_15054)"/>
<path d="M36.0727 2.09682C35.8698 0.916426 35.2058 0.298617 34.5971 0.713601L1.12172 23.5285C0.513077 23.9435 0.180932 25.2437 0.383813 26.4241L15.4892 113.11C15.6921 114.29 16.3561 114.908 16.9648 114.493L50.4402 91.6782C51.0488 91.2632 51.381 89.963 51.1781 88.7826L36.0727 2.09682Z" fill="url(#paint21_linear_506_15054)"/>
<path d="M28.361 72.3766C28.361 72.3766 22.9201 63.6898 19.2498 62.0668C22.459 52.9925 23.2151 42.839 23.2151 42.839C23.2151 42.839 26.9777 49.9123 32.3264 53.1491C29.9379 58.9036 28.361 72.3766 28.361 72.3766Z" fill="url(#paint22_linear_506_15054)"/>
<path d="M22.9492 40.3216C22.9953 40.4046 27.3295 48.4738 33.3975 52.1349C33.4528 52.1626 33.4897 52.2454 33.5081 52.3468C33.5265 52.4483 33.5081 52.5591 33.4712 52.6513C30.7784 59.1527 28.9433 74.544 28.934 74.7007C28.9064 74.9405 28.7313 75.0512 28.6391 74.9036C28.5745 74.8022 22.3403 64.9162 18.1905 63.0718C18.1352 63.0441 18.089 62.9704 18.0706 62.8782C18.0521 62.7767 18.0615 62.6662 18.0892 62.574C21.7226 52.3008 22.6264 40.6534 22.6357 40.5336C22.6449 40.4045 22.691 40.294 22.7555 40.2479C22.8293 40.211 22.8938 40.2386 22.9492 40.3216ZM28.6481 74.0275C28.9985 71.1964 30.6401 58.7746 33.0378 52.642C27.8367 49.3867 23.9358 42.9959 22.9306 41.2622C22.6816 43.8535 21.6027 53.6381 18.5226 62.5464C22.3312 64.4461 27.4861 72.2293 28.6481 74.0275Z" fill="url(#paint23_linear_506_15054)"/>
<path d="M17.1905 97.4324C17.1905 97.4324 15.8533 95.3023 14.9587 94.9058C15.7426 92.6833 15.9269 90.1932 15.9269 90.1932C15.9269 90.1932 16.8491 91.9268 18.1586 92.7199C17.5776 94.1309 17.1905 97.4324 17.1905 97.4324Z" fill="url(#paint24_linear_506_15054)"/>
<path d="M15.86 89.5664C15.8692 89.5848 16.9391 91.5675 18.4238 92.462C18.4238 92.462 18.4514 92.4898 18.4514 92.5175C18.4514 92.5451 18.4514 92.5728 18.4421 92.5912C17.7782 94.1866 17.3355 97.9583 17.3263 97.9952C17.317 98.0505 17.2802 98.0782 17.2525 98.0414C17.2341 98.0137 15.7126 95.5883 14.689 95.1364C14.689 95.1364 14.6611 95.1087 14.6611 95.0903C14.6611 95.0718 14.6611 95.035 14.6611 95.0166C15.5557 92.499 15.777 89.6402 15.777 89.6126C15.777 89.5849 15.7861 89.5573 15.8046 89.5388C15.8322 89.5388 15.8508 89.548 15.86 89.5664ZM17.2618 97.8292C17.3448 97.1375 17.7506 94.0943 18.3408 92.5819C17.0682 91.7796 16.109 90.221 15.86 89.7876C15.7955 90.4239 15.5372 92.8217 14.781 95.0073C15.7124 95.4868 16.9759 97.3957 17.2618 97.8292Z" fill="url(#paint25_linear_506_15054)"/>
<path d="M35.6741 25.253C35.6741 25.253 34.3369 23.1226 33.4424 22.7261C34.2262 20.5036 34.4105 18.0138 34.4105 18.0138C34.4105 18.0138 35.3327 19.7474 36.6422 20.5405C36.0613 21.9514 35.6741 25.253 35.6741 25.253Z" fill="url(#paint26_linear_506_15054)"/>
<path d="M34.3482 17.3958C34.3574 17.4143 35.427 19.3972 36.9117 20.2917C36.9117 20.2917 36.9396 20.3192 36.9396 20.3469C36.9396 20.3746 36.9395 20.4022 36.9303 20.4206C36.2663 22.016 35.8237 25.7877 35.8144 25.8246C35.8052 25.88 35.7684 25.9077 35.7407 25.8708C35.7223 25.8431 34.2005 23.4177 33.1769 22.9659C33.1585 22.9567 33.1493 22.9382 33.1493 22.9197C33.1401 22.8921 33.1494 22.8644 33.1586 22.846C34.0531 20.3284 34.2745 17.4697 34.2745 17.442C34.2745 17.4143 34.2928 17.3867 34.302 17.3683C34.302 17.3683 34.3298 17.3774 34.3482 17.3958ZM35.7407 25.6589C35.8237 24.9672 36.2295 21.924 36.8197 20.4116C35.5471 19.6093 34.5879 18.0507 34.3389 17.6173C34.2744 18.2536 34.0161 20.6514 33.2599 22.837C34.1913 23.3073 35.4548 25.2162 35.7407 25.6589Z" fill="url(#paint27_linear_506_15054)"/>
<path d="M19.6311 98.0045L19.6773 98.2811C19.5851 98.3918 19.5112 98.5117 19.4651 98.6408C19.419 98.7699 19.3915 98.9265 19.373 99.1017C19.3546 99.2862 19.3452 99.5443 19.3452 99.8855L19.2346 107.632L18.6537 108.001L16.2376 102.025C16.0993 101.684 15.97 101.435 15.8501 101.287C15.7302 101.14 15.6106 101.085 15.4814 101.14L15.4446 100.863L16.8554 99.9041L16.8923 100.181C16.7539 100.31 16.6616 100.448 16.6063 100.605C16.551 100.762 16.5418 100.946 16.5695 101.177C16.5879 101.297 16.6156 101.426 16.6525 101.555C16.6894 101.693 16.7539 101.878 16.8554 102.136L17.049 102.634L18.6537 101.564L18.663 100.725C18.663 100.513 18.663 100.319 18.663 100.162C18.6538 99.9962 18.6443 99.8486 18.6259 99.7195C18.6074 99.5812 18.5707 99.4799 18.5338 99.4245C18.4969 99.36 18.4416 99.323 18.3771 99.323C18.3125 99.3137 18.2201 99.3322 18.1094 99.3691L18.0636 99.0925L19.6311 98.0045ZM18.6076 106.599L18.672 102.108L17.2243 103.076L18.6076 106.599Z" fill="url(#paint28_linear_506_15054)"/>
<path d="M31.9216 17.2116L31.8755 16.9349C31.9677 16.8243 32.0416 16.7044 32.0877 16.5845C32.1338 16.4554 32.1613 16.2985 32.1797 16.1233C32.1982 15.9388 32.2076 15.6807 32.2076 15.3395L32.3182 7.59317L32.899 7.22421L35.3154 13.2001C35.4537 13.5413 35.5828 13.7902 35.7026 13.9377C35.8225 14.0852 35.9425 14.1408 36.0716 14.0855L36.1085 14.3621L34.6974 15.3212L34.6605 15.0446C34.7988 14.9155 34.8911 14.7769 34.9464 14.6202C35.0018 14.4726 35.011 14.2791 34.9833 14.0486C34.9649 13.9287 34.9372 13.7994 34.9003 13.6703C34.8634 13.532 34.7988 13.3385 34.6974 13.0895L34.5038 12.5823L32.899 13.6521L32.89 14.4913C32.89 14.7034 32.89 14.8968 32.89 15.0536C32.8993 15.2196 32.9085 15.3671 32.9269 15.4963C32.9454 15.6346 32.982 15.7361 33.0189 15.7915C33.0558 15.856 33.1111 15.8928 33.1757 15.8928C33.2402 15.902 33.3327 15.8835 33.4433 15.8466L33.4895 16.1233L31.9216 17.2116ZM32.9452 8.60772L32.8808 13.0988L34.3284 12.1304L32.9452 8.60772Z" fill="url(#paint29_linear_506_15054)"/>
<path d="M96.1405 189.519C95.1169 190.193 94.1393 190.156 93.9549 189.427L83.5989 149.404C83.4052 148.676 84.0784 147.532 85.102 146.859L159.817 97.1992C160.841 96.526 161.819 96.563 162.003 97.3008L172.359 137.324C172.553 138.052 171.88 139.196 170.856 139.869L96.1405 189.519Z" fill="url(#paint30_linear_506_15054)"/>
<path d="M96.3997 188.994C95.3946 189.667 94.4169 189.621 94.2325 188.901L84.0239 149.45C83.8395 148.731 84.5033 147.606 85.5177 146.933L159.57 97.7156C160.575 97.0424 161.552 97.0886 161.737 97.8079L171.945 137.259C172.13 137.978 171.466 139.103 170.451 139.777L96.3997 188.994Z" fill="url(#paint31_linear_506_15054)"/>
<path d="M130.982 144.793C133.158 145.817 142.518 140.69 141.236 134.649L141.246 134.64C141.236 134.612 141.227 134.594 141.218 134.566C141.209 134.539 141.209 134.511 141.199 134.483L141.19 134.492C139.429 128.775 130.548 135.765 129.46 138.956C129.275 132.252 123.457 135.156 120.727 137.517C118.071 139.814 116.9 142.405 117.213 144.95C117.527 147.495 120.505 147.412 121.935 147.108C118.993 148.316 116.485 148.777 114.548 148.704L114.419 148.906C115.387 149.69 115.692 151.101 115.793 151.525H115.784C115.784 151.525 116.3 153.074 115.894 154.993H116.051C117.388 152.733 119.427 150.087 122.064 147.588C120.911 148.999 118.781 152.318 119.685 154.476C120.589 156.634 122.562 157.132 125.448 155.74C128.418 154.301 133.813 149.745 130.982 144.793Z" fill="url(#paint32_linear_506_15054)"/>
<path d="M112.097 147.966C112.078 147.901 112.106 147.809 112.17 147.717C112.263 147.597 112.401 147.505 112.512 147.505C113.959 147.505 115.712 147.486 117.04 147.449C116.422 146.979 116.053 146.232 115.822 145.005C115.37 142.599 117.003 139.38 119.981 136.798C121.835 135.193 124.685 133.533 126.889 133.423C128.705 133.34 129.793 134.28 130.125 136.245C131.158 134.594 133.362 132.75 135.649 131.726C137.318 130.979 141.339 129.67 142.566 133.764C143.451 137.96 140.104 141.52 138.619 142.847C136.516 144.738 134.1 145.955 132.624 145.946C133.261 147.707 132.901 149.607 131.583 151.599C129.978 154.015 127.23 156.081 125.219 157.049C121.973 158.608 119.4 158.183 118.663 155.97C118.598 155.795 118.552 155.62 118.506 155.454C118.266 154.532 118.238 153.692 118.451 152.807C117.694 153.941 116.652 155.491 115.158 157.769C115.075 157.898 114.937 157.99 114.817 157.999C114.697 158.008 114.642 157.925 114.67 157.805C115.278 155.325 114.568 152.235 114.559 152.208C114.467 151.922 113.554 149.247 112.134 148.021C112.115 148.012 112.106 147.984 112.097 147.966ZM118.635 147.486C118.644 147.541 118.635 147.606 118.589 147.68C118.515 147.818 118.358 147.938 118.229 147.938C117.224 148.002 115.048 148.049 113.12 148.058C114.291 149.432 115.02 151.581 115.112 151.848C115.121 151.894 115.684 154.329 115.398 156.69C117.298 153.803 118.349 152.244 119.068 151.184C119.16 151.046 119.327 150.954 119.437 150.963C119.557 150.972 119.594 151.083 119.529 151.23C119.041 152.263 118.644 153.453 119.068 155.103C119.114 155.269 119.161 155.435 119.216 155.601C119.908 157.667 122.213 158.036 125.238 156.579C127.119 155.675 129.683 153.757 131.167 151.516C132.514 149.487 132.735 147.532 131.841 145.752C131.795 145.66 131.85 145.522 131.96 145.402C132.08 145.291 132.228 145.236 132.311 145.273C133.408 145.789 136.129 144.563 138.388 142.534C139.753 141.298 142.842 138.015 142.022 134.123C140.878 130.324 137.162 131.523 135.622 132.215C133.159 133.321 130.734 135.498 130.19 137.075C130.144 137.204 130.015 137.333 129.886 137.388C129.756 137.434 129.655 137.397 129.646 137.287C129.498 135.018 128.475 133.893 126.63 133.976C124.592 134.077 121.936 135.627 120.212 137.121C117.427 139.528 115.961 142.414 116.385 144.655C116.781 146.73 117.657 147.2 118.534 147.394C118.589 147.403 118.626 147.431 118.635 147.486Z" fill="url(#paint33_linear_506_15054)"/>
<path d="M108.677 174.598C108.188 174.368 106.104 175.511 106.39 176.858L106.399 176.876V176.894C106.796 178.167 108.77 176.609 109.009 175.899C109.046 177.393 110.347 176.747 110.955 176.221C111.545 175.705 111.813 175.133 111.739 174.561C111.665 173.99 111.01 174.008 110.688 174.082C111.342 173.814 111.905 173.713 112.329 173.731L112.357 173.685C112.145 173.51 112.071 173.197 112.052 173.104C112.052 173.104 111.933 172.754 112.025 172.33H111.988C111.693 172.837 111.232 173.418 110.651 173.98C110.909 173.667 111.379 172.929 111.186 172.45C110.983 171.97 110.549 171.859 109.904 172.173C109.249 172.477 108.041 173.492 108.677 174.598Z" fill="url(#paint34_linear_506_15054)"/>
<path d="M112.881 173.888C112.881 173.907 112.881 173.925 112.863 173.944C112.844 173.971 112.807 173.99 112.789 173.99C112.466 173.99 112.079 173.99 111.784 173.999C111.922 174.1 112.005 174.276 112.051 174.543C112.152 175.078 111.783 175.797 111.129 176.369C110.714 176.729 110.077 177.098 109.589 177.116C109.183 177.134 108.943 176.922 108.869 176.489C108.639 176.858 108.15 177.263 107.634 177.494C107.265 177.66 106.37 177.955 106.094 177.042C105.9 176.111 106.647 175.318 106.97 175.023C107.44 174.599 107.975 174.331 108.307 174.331C108.168 173.934 108.242 173.51 108.537 173.068C108.897 172.533 109.506 172.072 109.958 171.85C110.677 171.5 111.258 171.592 111.424 172.09C111.433 172.127 111.452 172.173 111.461 172.21C111.516 172.413 111.516 172.606 111.47 172.8C111.636 172.551 111.866 172.201 112.208 171.693C112.226 171.666 112.254 171.648 112.281 171.638C112.309 171.638 112.318 171.657 112.318 171.684C112.18 172.238 112.346 172.92 112.346 172.929C112.365 172.994 112.567 173.593 112.89 173.861L112.881 173.888ZM111.424 173.999C111.424 173.99 111.424 173.971 111.433 173.953C111.452 173.916 111.488 173.898 111.516 173.898C111.737 173.879 112.226 173.87 112.65 173.87C112.392 173.566 112.226 173.086 112.208 173.022C112.208 173.012 112.079 172.468 112.143 171.943C111.719 172.588 111.488 172.929 111.322 173.169C111.304 173.197 111.267 173.224 111.239 173.215C111.212 173.215 111.203 173.187 111.221 173.16C111.332 172.929 111.424 172.662 111.322 172.293C111.313 172.256 111.304 172.219 111.285 172.182C111.129 171.721 110.621 171.638 109.939 171.961C109.515 172.164 108.952 172.588 108.62 173.086C108.325 173.538 108.27 173.971 108.473 174.368C108.482 174.386 108.473 174.423 108.445 174.442C108.418 174.469 108.39 174.478 108.362 174.469C108.122 174.349 107.514 174.626 107.007 175.078C106.702 175.355 106.01 176.083 106.195 176.95C106.453 177.798 107.274 177.531 107.624 177.374C108.168 177.125 108.713 176.646 108.832 176.286C108.842 176.258 108.869 176.231 108.897 176.221C108.925 176.212 108.952 176.222 108.952 176.249C108.989 176.756 109.211 177.005 109.626 176.987C110.077 176.968 110.668 176.618 111.055 176.286C111.673 175.751 112.005 175.106 111.903 174.608C111.811 174.147 111.618 174.045 111.424 173.999C111.433 174.017 111.424 174.008 111.424 173.999Z" fill="url(#paint35_linear_506_15054)"/>
<path d="M147.849 111.733C148.338 111.964 150.422 110.82 150.136 109.474L150.127 109.455V109.437C149.73 108.164 147.757 109.723 147.517 110.433C147.471 108.939 146.18 109.584 145.571 110.11C144.981 110.617 144.714 111.198 144.787 111.77C144.861 112.333 145.516 112.323 145.839 112.25C145.184 112.517 144.621 112.618 144.197 112.609L144.17 112.655C144.382 112.831 144.455 113.144 144.474 113.236C144.474 113.236 144.585 113.587 144.502 114.011H144.539C144.834 113.504 145.295 112.923 145.876 112.36C145.617 112.674 145.147 113.411 145.341 113.891C145.544 114.37 145.986 114.481 146.623 114.177C147.277 113.845 148.485 112.831 147.849 111.733Z" fill="url(#paint36_linear_506_15054)"/>
<path d="M143.643 112.434C143.643 112.415 143.643 112.397 143.662 112.378C143.68 112.351 143.717 112.332 143.735 112.332C144.058 112.332 144.446 112.332 144.741 112.323C144.602 112.222 144.519 112.056 144.473 111.779C144.372 111.244 144.731 110.525 145.395 109.953C145.81 109.593 146.446 109.225 146.935 109.197C147.341 109.178 147.581 109.39 147.655 109.824C147.885 109.455 148.374 109.049 148.89 108.819C149.259 108.653 150.154 108.358 150.43 109.271C150.624 110.202 149.877 110.995 149.554 111.299C149.084 111.724 148.549 111.991 148.217 111.991C148.355 112.387 148.282 112.812 147.987 113.255C147.627 113.789 147.018 114.25 146.567 114.472C145.847 114.822 145.266 114.721 145.1 114.232C145.091 114.195 145.072 114.149 145.063 114.112C145.008 113.909 145.008 113.725 145.054 113.522C144.888 113.771 144.657 114.121 144.316 114.628C144.298 114.656 144.27 114.675 144.243 114.684C144.215 114.684 144.206 114.665 144.206 114.638C144.344 114.084 144.178 113.393 144.178 113.393C144.16 113.328 143.957 112.729 143.634 112.461C143.652 112.443 143.643 112.434 143.643 112.434ZM145.1 112.323C145.1 112.323 145.1 112.351 145.091 112.369C145.073 112.397 145.036 112.424 145.008 112.424C144.787 112.443 144.298 112.452 143.874 112.452C144.132 112.757 144.298 113.236 144.316 113.291C144.316 113.291 144.446 113.844 144.381 114.37C144.805 113.725 145.036 113.383 145.202 113.144C145.22 113.116 145.257 113.088 145.285 113.097C145.312 113.097 145.321 113.125 145.303 113.153C145.192 113.383 145.1 113.651 145.202 114.02C145.211 114.057 145.22 114.093 145.238 114.13C145.395 114.591 145.912 114.675 146.585 114.352C147.009 114.149 147.572 113.725 147.904 113.227C148.199 112.775 148.254 112.341 148.051 111.945C148.042 111.926 148.051 111.889 148.079 111.871C148.107 111.843 148.134 111.834 148.153 111.843C148.402 111.963 149.001 111.687 149.508 111.235C149.813 110.958 150.504 110.23 150.32 109.363C150.061 108.514 149.241 108.782 148.89 108.939C148.346 109.188 147.802 109.667 147.682 110.018C147.673 110.045 147.645 110.073 147.618 110.091C147.59 110.1 147.563 110.091 147.563 110.064C147.526 109.556 147.304 109.307 146.889 109.326C146.437 109.344 145.847 109.695 145.46 110.027C144.842 110.562 144.51 111.207 144.611 111.705C144.704 112.166 144.897 112.277 145.091 112.314L145.1 112.323Z" fill="url(#paint37_linear_506_15054)"/>
<path d="M151.555 109.243L151.786 109.086C151.85 109.197 151.915 109.271 151.97 109.308C152.026 109.345 152.09 109.354 152.164 109.345C152.238 109.326 152.339 109.28 152.45 109.206C152.561 109.132 152.671 109.04 152.8 108.929C152.92 108.819 153.059 108.69 153.206 108.542L153.806 107.952L153.298 106.071L152.782 106.283C152.524 106.384 152.339 106.467 152.21 106.541C152.081 106.606 151.97 106.679 151.878 106.744C151.694 106.882 151.565 107.021 151.5 107.168C151.436 107.316 151.408 107.472 151.426 107.657L151.196 107.823L150.762 106.163L150.984 105.997C151.048 106.117 151.187 106.172 151.38 106.154C151.583 106.135 151.86 106.052 152.219 105.914L158.417 103.498L158.61 104.171L153.141 109.603C152.902 109.842 152.727 110.027 152.607 110.165C152.487 110.304 152.404 110.433 152.348 110.552C152.293 110.672 152.265 110.802 152.256 110.949L152.026 111.106L151.555 109.243ZM153.75 105.877L154.211 107.574L157.374 104.429L153.75 105.877Z" fill="url(#paint38_linear_506_15054)"/>
<path d="M104.403 177.457L104.173 177.614C104.108 177.503 104.044 177.43 103.989 177.393C103.933 177.356 103.869 177.337 103.795 177.356C103.721 177.374 103.62 177.42 103.509 177.494C103.398 177.568 103.288 177.66 103.159 177.771C103.03 177.881 102.9 178.011 102.753 178.158L102.153 178.748L102.661 180.63L103.177 180.417C103.435 180.316 103.629 180.233 103.749 180.159C103.878 180.095 103.988 180.021 104.081 179.956C104.265 179.818 104.394 179.68 104.459 179.532C104.523 179.394 104.551 179.228 104.533 179.043L104.763 178.878L105.197 180.537L104.975 180.703C104.911 180.574 104.782 180.528 104.579 180.547C104.376 180.565 104.099 180.648 103.74 180.786L97.5425 183.203L97.3489 182.529L102.817 177.097C103.057 176.867 103.232 176.674 103.352 176.535C103.472 176.397 103.555 176.268 103.61 176.148C103.666 176.028 103.693 175.899 103.703 175.751L103.933 175.594L104.403 177.457ZM102.209 180.823L101.748 179.126L98.5846 182.271L102.209 180.823Z" fill="url(#paint39_linear_506_15054)"/>
<defs>
<linearGradient id="paint0_linear_506_15054" x1="90.3012" y1="94.8482" x2="49.7493" y2="53.4591" gradientUnits="userSpaceOnUse">
<stop stop-color="#CDCCCB"/>
<stop offset="0.9947" stop-color="#B6B4B3"/>
</linearGradient>
<linearGradient id="paint1_linear_506_15054" x1="90.4768" y1="94.3246" x2="50.0818" y2="54.1752" gradientUnits="userSpaceOnUse">
<stop stop-color="#F3F5F4"/>
<stop offset="0.7063" stop-color="#E5E5E4"/>
<stop offset="0.9947" stop-color="#D4D2D1"/>
</linearGradient>
<linearGradient id="paint2_linear_506_15054" x1="90.353" y1="93.2846" x2="49.1713" y2="52.7628" gradientUnits="userSpaceOnUse">
<stop stop-color="#EF0A07"/>
<stop offset="1" stop-color="#C70000"/>
</linearGradient>
<linearGradient id="paint3_linear_506_15054" x1="90.1269" y1="93.5154" x2="48.9455" y2="52.9928" gradientUnits="userSpaceOnUse">
<stop stop-color="#EF0A07"/>
<stop offset="1" stop-color="#C70000"/>
</linearGradient>
<linearGradient id="paint4_linear_506_15054" x1="108.051" y1="75.2938" x2="66.8715" y2="34.7741" gradientUnits="userSpaceOnUse">
<stop stop-color="#EF0A07"/>
<stop offset="1" stop-color="#C70000"/>
</linearGradient>
<linearGradient id="paint5_linear_506_15054" x1="108.005" y1="75.3438" x2="66.8256" y2="34.8217" gradientUnits="userSpaceOnUse">
<stop stop-color="#EF0A07"/>
<stop offset="1" stop-color="#C70000"/>
</linearGradient>
<linearGradient id="paint6_linear_506_15054" x1="114.65" y1="68.5915" x2="73.4699" y2="28.0716" gradientUnits="userSpaceOnUse">
<stop stop-color="#EF0A07"/>
<stop offset="1" stop-color="#C70000"/>
</linearGradient>
<linearGradient id="paint7_linear_506_15054" x1="72.0811" y1="111.847" x2="30.9028" y2="71.3265" gradientUnits="userSpaceOnUse">
<stop stop-color="#EF0A07"/>
<stop offset="1" stop-color="#C70000"/>
</linearGradient>
<linearGradient id="paint8_linear_506_15054" x1="72.1307" y1="111.8" x2="30.9504" y2="71.2804" gradientUnits="userSpaceOnUse">
<stop stop-color="#EF0A07"/>
<stop offset="1" stop-color="#C70000"/>
</linearGradient>
<linearGradient id="paint9_linear_506_15054" x1="65.4886" y1="118.551" x2="24.3077" y2="78.0316" gradientUnits="userSpaceOnUse">
<stop stop-color="#EF0A07"/>
<stop offset="1" stop-color="#C70000"/>
</linearGradient>
<linearGradient id="paint10_linear_506_15054" x1="178.189" y1="56.0434" x2="111.131" y2="43.9061" gradientUnits="userSpaceOnUse">
<stop stop-color="#CDCCCB"/>
<stop offset="0.9947" stop-color="#B6B4B3"/>
</linearGradient>
<linearGradient id="paint11_linear_506_15054" x1="177.765" y1="55.9668" x2="111.554" y2="43.9826" gradientUnits="userSpaceOnUse">
<stop stop-color="#F3F5F4"/>
<stop offset="0.7063" stop-color="#E5E5E4"/>
<stop offset="0.9947" stop-color="#D4D2D1"/>
</linearGradient>
<linearGradient id="paint12_linear_506_15054" x1="168.433" y1="83.9282" x2="136.321" y2="105.058" gradientUnits="userSpaceOnUse">
<stop stop-color="#2C2C28"/>
<stop offset="0.0245" stop-color="#2B2B27"/>
<stop offset="0.63" stop-color="#111511"/>
<stop offset="0.9947" stop-color="#080D09"/>
</linearGradient>
<linearGradient id="paint13_linear_506_15054" x1="152.546" y1="-4.78787" x2="120.434" y2="16.3414" gradientUnits="userSpaceOnUse">
<stop stop-color="#2C2C28"/>
<stop offset="0.0245" stop-color="#2B2B27"/>
<stop offset="0.63" stop-color="#111511"/>
<stop offset="0.9947" stop-color="#080D09"/>
</linearGradient>
<linearGradient id="paint14_linear_506_15054" x1="167.53" y1="53.4037" x2="119.711" y2="44.8939" gradientUnits="userSpaceOnUse">
<stop stop-color="#2C2C28"/>
<stop offset="0.0245" stop-color="#2B2B27"/>
<stop offset="0.63" stop-color="#111511"/>
<stop offset="0.9947" stop-color="#080D09"/>
</linearGradient>
<linearGradient id="paint15_linear_506_15054" x1="156.8" y1="38.8807" x2="131.518" y2="55.5148" gradientUnits="userSpaceOnUse">
<stop stop-color="#2C2C28"/>
<stop offset="0.0245" stop-color="#2B2B27"/>
<stop offset="0.63" stop-color="#111511"/>
<stop offset="0.9947" stop-color="#080D09"/>
</linearGradient>
<linearGradient id="paint16_linear_506_15054" x1="169.178" y1="80.9377" x2="121.361" y2="72.4276" gradientUnits="userSpaceOnUse">
<stop stop-color="#2C2C28"/>
<stop offset="0.0245" stop-color="#2B2B27"/>
<stop offset="0.63" stop-color="#111511"/>
<stop offset="0.9947" stop-color="#080D09"/>
</linearGradient>
<linearGradient id="paint17_linear_506_15054" x1="166.857" y1="77.822" x2="141.578" y2="94.4552" gradientUnits="userSpaceOnUse">
<stop stop-color="#2C2C28"/>
<stop offset="0.0245" stop-color="#2B2B27"/>
<stop offset="0.63" stop-color="#111511"/>
<stop offset="0.9947" stop-color="#080D09"/>
</linearGradient>
<linearGradient id="paint18_linear_506_15054" x1="167.256" y1="27.2003" x2="119.438" y2="18.6891" gradientUnits="userSpaceOnUse">
<stop stop-color="#2C2C28"/>
<stop offset="0.0245" stop-color="#2B2B27"/>
<stop offset="0.63" stop-color="#111511"/>
<stop offset="0.9947" stop-color="#080D09"/>
</linearGradient>
<linearGradient id="paint19_linear_506_15054" x1="147.369" y1="5.54662" x2="122.09" y2="22.179" gradientUnits="userSpaceOnUse">
<stop stop-color="#2C2C28"/>
<stop offset="0.0245" stop-color="#2B2B27"/>
<stop offset="0.63" stop-color="#111511"/>
<stop offset="0.9947" stop-color="#080D09"/>
</linearGradient>
<linearGradient id="paint20_linear_506_15054" x1="7.68356" y1="69.9356" x2="46.9918" y2="63.0844" gradientUnits="userSpaceOnUse">
<stop stop-color="#CDCCCB"/>
<stop offset="0.9947" stop-color="#B6B4B3"/>
</linearGradient>
<linearGradient id="paint21_linear_506_15054" x1="7.94263" y1="69.7609" x2="46.6923" y2="63.0071" gradientUnits="userSpaceOnUse">
<stop stop-color="#F3F5F4"/>
<stop offset="0.7063" stop-color="#E5E5E4"/>
<stop offset="0.9947" stop-color="#D4D2D1"/>
</linearGradient>
<linearGradient id="paint22_linear_506_15054" x1="8.74786" y1="69.3718" x2="47.1102" y2="62.5805" gradientUnits="userSpaceOnUse">
<stop stop-color="#EF0A07"/>
<stop offset="1" stop-color="#C70000"/>
</linearGradient>
<linearGradient id="paint23_linear_506_15054" x1="42.3686" y1="58.2846" x2="8.05221" y2="56.8712" gradientUnits="userSpaceOnUse">
<stop stop-color="#EF0A07"/>
<stop offset="1" stop-color="#C70000"/>
</linearGradient>
<linearGradient id="paint24_linear_506_15054" x1="13.4573" y1="95.9505" x2="51.8201" y2="89.1594" gradientUnits="userSpaceOnUse">
<stop stop-color="#EF0A07"/>
<stop offset="1" stop-color="#C70000"/>
</linearGradient>
<linearGradient id="paint25_linear_506_15054" x1="19.576" y1="93.9316" x2="-14.743" y2="92.5171" gradientUnits="userSpaceOnUse">
<stop stop-color="#EF0A07"/>
<stop offset="1" stop-color="#C70000"/>
</linearGradient>
<linearGradient id="paint26_linear_506_15054" x1="4.08353" y1="43.0164" x2="42.4463" y2="36.2253" gradientUnits="userSpaceOnUse">
<stop stop-color="#EF0A07"/>
<stop offset="1" stop-color="#C70000"/>
</linearGradient>
<linearGradient id="paint27_linear_506_15054" x1="65.1761" y1="22.876" x2="30.8581" y2="21.4624" gradientUnits="userSpaceOnUse">
<stop stop-color="#EF0A07"/>
<stop offset="1" stop-color="#C70000"/>
</linearGradient>
<linearGradient id="paint28_linear_506_15054" x1="20.462" y1="103.054" x2="-14.1747" y2="101.627" gradientUnits="userSpaceOnUse">
<stop stop-color="#EF0A07"/>
<stop offset="1" stop-color="#C70000"/>
</linearGradient>
<linearGradient id="paint29_linear_506_15054" x1="64.5585" y1="13.5361" x2="29.9196" y2="12.1088" gradientUnits="userSpaceOnUse">
<stop stop-color="#EF0A07"/>
<stop offset="1" stop-color="#C70000"/>
</linearGradient>
<linearGradient id="paint30_linear_506_15054" x1="122.462" y1="122.023" x2="145.516" y2="156.707" gradientUnits="userSpaceOnUse">
<stop stop-color="#CDCCCB"/>
<stop offset="0.9947" stop-color="#B6B4B3"/>
</linearGradient>
<linearGradient id="paint31_linear_506_15054" x1="122.541" y1="122.325" x2="145.269" y2="156.518" gradientUnits="userSpaceOnUse">
<stop stop-color="#F3F5F4"/>
<stop offset="0.7063" stop-color="#E5E5E4"/>
<stop offset="0.9947" stop-color="#D4D2D1"/>
</linearGradient>
<linearGradient id="paint32_linear_506_15054" x1="122.335" y1="122.692" x2="144.99" y2="156.111" gradientUnits="userSpaceOnUse">
<stop stop-color="#2C2C28"/>
<stop offset="0.0245" stop-color="#2B2B27"/>
<stop offset="0.63" stop-color="#111511"/>
<stop offset="0.9947" stop-color="#080D09"/>
</linearGradient>
<linearGradient id="paint33_linear_506_15054" x1="122.133" y1="122.829" x2="144.788" y2="156.248" gradientUnits="userSpaceOnUse">
<stop stop-color="#2C2C28"/>
<stop offset="0.0245" stop-color="#2B2B27"/>
<stop offset="0.63" stop-color="#111511"/>
<stop offset="0.9947" stop-color="#080D09"/>
</linearGradient>
<linearGradient id="paint34_linear_506_15054" x1="99.0258" y1="138.495" x2="121.681" y2="171.915" gradientUnits="userSpaceOnUse">
<stop stop-color="#2C2C28"/>
<stop offset="0.0245" stop-color="#2B2B27"/>
<stop offset="0.63" stop-color="#111511"/>
<stop offset="0.9947" stop-color="#080D09"/>
</linearGradient>
<linearGradient id="paint35_linear_506_15054" x1="99.0693" y1="138.467" x2="121.724" y2="171.885" gradientUnits="userSpaceOnUse">
<stop stop-color="#2C2C28"/>
<stop offset="0.0245" stop-color="#2B2B27"/>
<stop offset="0.63" stop-color="#111511"/>
<stop offset="0.9947" stop-color="#080D09"/>
</linearGradient>
<linearGradient id="paint36_linear_506_15054" x1="145.901" y1="106.716" x2="168.558" y2="140.139" gradientUnits="userSpaceOnUse">
<stop stop-color="#2C2C28"/>
<stop offset="0.0245" stop-color="#2B2B27"/>
<stop offset="0.63" stop-color="#111511"/>
<stop offset="0.9947" stop-color="#080D09"/>
</linearGradient>
<linearGradient id="paint37_linear_506_15054" x1="145.855" y1="106.748" x2="168.512" y2="140.168" gradientUnits="userSpaceOnUse">
<stop stop-color="#2C2C28"/>
<stop offset="0.0245" stop-color="#2B2B27"/>
<stop offset="0.63" stop-color="#111511"/>
<stop offset="0.9947" stop-color="#080D09"/>
</linearGradient>
<linearGradient id="paint38_linear_506_15054" x1="153.592" y1="101.502" x2="176.248" y2="134.92" gradientUnits="userSpaceOnUse">
<stop stop-color="#2C2C28"/>
<stop offset="0.0245" stop-color="#2B2B27"/>
<stop offset="0.63" stop-color="#111511"/>
<stop offset="0.9947" stop-color="#080D09"/>
</linearGradient>
<linearGradient id="paint39_linear_506_15054" x1="90.7694" y1="144.091" x2="113.425" y2="177.509" gradientUnits="userSpaceOnUse">
<stop stop-color="#2C2C28"/>
<stop offset="0.0245" stop-color="#2B2B27"/>
<stop offset="0.63" stop-color="#111511"/>
<stop offset="0.9947" stop-color="#080D09"/>
</linearGradient>
</defs>
</svg>
