<svg width="1440" height="730" viewBox="0 0 1440 730" fill="none" xmlns="http://www.w3.org/2000/svg">
<g opacity="0.7">
<path d="M439.75 555.943C435.791 555.63 434.702 559.925 437.473 565.469C440.146 571.091 445.689 575.932 449.649 576.244C453.708 576.635 454.796 572.34 452.025 566.718C449.352 561.174 443.809 556.333 439.75 555.943Z" fill="url(#paint0_linear_114_6056)"/>
<path d="M1272.54 601.075C1276.6 604.121 1284.13 602.793 1289.47 598.186C1294.82 593.658 1295.91 587.411 1291.85 584.444C1287.79 581.398 1280.27 582.648 1274.92 587.255C1269.57 591.862 1268.58 598.03 1272.54 601.075Z" fill="url(#paint1_linear_114_6056)"/>
<path d="M286.12 265.083C284.239 268.206 288 273.516 294.435 277.03C300.968 280.543 307.699 280.856 309.58 277.732C311.461 274.609 307.699 269.221 301.265 265.708C294.831 262.194 288 261.96 286.12 265.083Z" fill="url(#paint2_linear_114_6056)"/>
<path d="M1110.2 280.699C1114.16 282.105 1120.89 279.138 1125.35 274.062C1129.7 268.909 1130.1 263.599 1126.04 262.116C1122.08 260.632 1115.35 263.599 1110.89 268.753C1106.54 273.906 1106.24 279.216 1110.2 280.699Z" fill="url(#paint3_linear_114_6056)"/>
<path d="M1196.03 162.247C1189.69 165.605 1186.32 171.852 1188.6 176.146C1190.88 180.519 1197.91 181.3 1204.34 177.942C1210.77 174.585 1214.14 168.338 1211.86 163.965C1209.59 159.671 1202.46 158.89 1196.03 162.247Z" fill="url(#paint4_linear_114_6056)"/>
<path d="M232.072 480.515C238.605 482.31 244.644 487.62 245.633 492.305C246.524 496.99 241.971 499.333 235.438 497.537C228.904 495.819 222.866 490.509 221.975 485.824C220.985 481.139 225.539 478.719 232.072 480.515Z" fill="url(#paint5_linear_114_6056)"/>
<path d="M871.638 -17.7346C877.479 -18.9839 880.943 -15.7044 879.459 -10.3947C877.875 -5.00699 871.836 0.224586 866.095 1.47392C860.255 2.72325 856.79 -0.634329 858.275 -5.94399C859.859 -11.2536 865.798 -16.5633 871.638 -17.7346Z" fill="url(#paint6_linear_114_6056)"/>
<path d="M72.1053 616.223C78.6386 612.788 86.0627 611.538 88.6364 613.412C91.3091 615.286 88.1415 619.581 81.6082 623.017C75.075 626.452 67.6508 627.702 64.9781 625.828C62.4044 623.954 65.572 619.659 72.1053 616.223Z" fill="url(#paint7_linear_114_6056)"/>
<path d="M1347.58 152.955C1350.94 153.814 1350.35 158.733 1346.29 164.043C1342.13 169.275 1336.09 172.866 1332.73 172.008C1329.36 171.227 1329.96 166.307 1334.11 160.998C1338.17 155.766 1344.21 152.174 1347.58 152.955Z" fill="url(#paint8_linear_114_6056)"/>
<path d="M1438.65 319.429C1441.62 320.834 1439.54 325.519 1433.99 329.892C1428.35 334.187 1421.42 336.607 1418.45 335.124C1415.38 333.718 1417.46 329.033 1423.01 324.661C1428.65 320.288 1435.58 317.945 1438.65 319.429Z" fill="url(#paint9_linear_114_6056)"/>
<path d="M1234.93 100.093C1233.34 100.171 1231.96 99.2344 1231.86 97.985C1231.86 96.7357 1233.05 95.6425 1234.63 95.5645C1236.21 95.5645 1237.5 96.5015 1237.6 97.7508C1237.7 99.0001 1236.51 100.093 1234.93 100.093Z" fill="#B56F1D"/>
<path d="M1424.99 179.27C1423.5 179.348 1422.31 178.489 1422.21 177.318C1422.11 176.146 1423.3 175.131 1424.79 175.131C1426.17 175.053 1427.46 175.912 1427.56 177.083C1427.56 178.255 1426.47 179.27 1424.99 179.27Z" fill="#B56F1D"/>
<path d="M1254.33 316.071C1253.24 316.071 1252.25 315.368 1252.25 314.509C1252.15 313.572 1253.04 312.87 1254.23 312.792C1255.32 312.792 1256.31 313.494 1256.31 314.353C1256.41 315.212 1255.52 315.993 1254.33 316.071Z" fill="#B56F1D"/>
<path d="M1277.1 248.451C1275.71 248.529 1274.62 247.67 1274.52 246.655C1274.42 245.562 1275.51 244.703 1276.8 244.625C1278.19 244.625 1279.27 245.406 1279.37 246.499C1279.47 247.514 1278.38 248.451 1277.1 248.451Z" fill="#B56F1D"/>
<path d="M1356.78 206.286C1355.5 206.364 1354.51 205.584 1354.41 204.647C1354.41 203.71 1355.3 202.851 1356.58 202.851C1357.77 202.773 1358.86 203.553 1358.86 204.49C1358.96 205.427 1357.97 206.286 1356.78 206.286Z" fill="#B56F1D"/>
<path d="M1427.96 298.971C1426.87 299.049 1425.88 298.346 1425.88 297.487C1425.78 296.55 1426.67 295.848 1427.76 295.77C1428.85 295.77 1429.84 296.394 1429.94 297.331C1429.94 298.19 1429.05 298.971 1427.96 298.971Z" fill="#B56F1D"/>
<path d="M1340.75 416.408C1339.66 416.408 1338.67 415.783 1338.67 414.846C1338.57 413.987 1339.46 413.207 1340.55 413.207C1341.74 413.129 1342.63 413.831 1342.73 414.768C1342.73 415.627 1341.93 416.33 1340.75 416.408Z" fill="#B56F1D"/>
<path d="M1395.59 60.6609C1393.8 60.739 1392.32 59.6459 1392.22 58.3184C1392.12 56.9129 1393.51 55.7417 1395.29 55.6636C1397.07 55.5855 1398.56 56.6787 1398.56 58.0842C1398.66 59.4116 1397.27 60.6609 1395.59 60.6609Z" fill="#B56F1D"/>
<path d="M1280.46 15.7629C1278.88 15.841 1277.59 14.904 1277.49 13.6547C1277.49 12.4835 1278.68 11.4684 1280.17 11.3903C1281.75 11.3122 1283.04 12.2492 1283.14 13.4985C1283.14 14.6698 1281.95 15.6849 1280.46 15.7629Z" fill="#DC9A42"/>
<path d="M1197.31 614.427C1196.02 614.427 1195.03 613.725 1194.94 612.709C1194.94 611.773 1195.83 610.914 1197.11 610.914C1198.3 610.836 1199.39 611.616 1199.39 612.553C1199.49 613.568 1198.5 614.349 1197.31 614.427Z" fill="#B56F1D"/>
<path d="M1067.34 221.278C1065.46 221.356 1063.78 220.185 1063.68 218.701C1063.58 217.14 1065.06 215.89 1067.04 215.812C1068.92 215.734 1070.51 216.905 1070.61 218.389C1070.7 219.951 1069.22 221.2 1067.34 221.278Z" fill="#B56F1D"/>
<path d="M1209.19 552.273C1207.71 552.351 1206.52 551.492 1206.42 550.321C1206.32 549.149 1207.51 548.212 1208.89 548.134C1210.38 548.134 1211.57 548.993 1211.67 550.164C1211.67 551.258 1210.58 552.195 1209.19 552.273Z" fill="#B56F1D"/>
<path d="M1117.43 462.711C1115.35 462.789 1113.57 461.54 1113.47 459.9C1113.37 458.182 1114.95 456.855 1117.13 456.777C1119.21 456.699 1120.99 457.948 1121.09 459.588C1121.19 461.228 1119.51 462.633 1117.43 462.711Z" fill="#B56F1D"/>
<path d="M1258.98 526.662C1257.89 526.74 1256.8 525.959 1256.8 525.022C1256.7 524.085 1257.69 523.304 1258.88 523.304C1260.07 523.226 1261.06 523.929 1261.06 524.866C1261.16 525.803 1260.17 526.662 1258.98 526.662Z" fill="#B56F1D"/>
<path d="M1252.35 492.305C1250.96 492.383 1249.78 491.446 1249.68 490.353C1249.58 489.182 1250.67 488.245 1252.15 488.167C1253.54 488.167 1254.82 489.026 1254.82 490.119C1254.92 491.29 1253.83 492.227 1252.35 492.305Z" fill="#B56F1D"/>
<path d="M1028.44 659.169C1027.05 659.169 1025.76 658.31 1025.67 657.139C1025.67 655.967 1026.75 655.03 1028.24 654.952C1029.72 654.874 1030.91 655.811 1031.01 656.982C1031.11 658.076 1029.92 659.091 1028.44 659.169Z" fill="#B56F1D"/>
<path d="M549.231 81.9776C547.549 81.9776 546.262 80.9625 546.262 79.7131C546.262 78.4638 547.549 77.4487 549.231 77.4487C550.815 77.4487 552.102 78.4638 552.102 79.7131C552.102 80.9625 550.815 81.9776 549.231 81.9776Z" fill="#B56F1D"/>
<path d="M572.295 14.9044C570.118 14.9044 568.336 13.4989 568.336 11.781C568.336 10.0632 570.118 8.65771 572.295 8.65771C574.374 8.65771 576.156 10.0632 576.156 11.781C576.156 13.4989 574.374 14.9044 572.295 14.9044Z" fill="#B56F1D"/>
<path d="M179.309 702.974C177.825 702.974 176.637 702.037 176.637 700.866C176.637 699.694 177.825 698.757 179.309 698.757C180.794 698.757 181.982 699.694 181.982 700.866C181.982 702.037 180.794 702.974 179.309 702.974Z" fill="#B56F1D"/>
<path d="M58.2468 579.056C56.96 579.056 55.8711 578.275 55.8711 577.26C55.8711 576.245 56.96 575.386 58.2468 575.386C59.5337 575.386 60.5236 576.245 60.5236 577.26C60.5236 578.275 59.5337 579.056 58.2468 579.056Z" fill="#B56F1D"/>
<path d="M204.651 603.183C203.463 603.183 202.572 602.402 202.572 601.465C202.572 600.606 203.463 599.826 204.651 599.826C205.74 599.826 206.73 600.606 206.73 601.465C206.73 602.402 205.74 603.183 204.651 603.183Z" fill="#B56F1D"/>
<path d="M122.094 665.103C121.005 665.103 120.114 664.401 120.114 663.464C120.114 662.605 121.005 661.902 122.094 661.902C123.183 661.902 124.173 662.605 124.173 663.464C124.173 664.401 123.183 665.103 122.094 665.103Z" fill="#B56F1D"/>
<path d="M186.042 517.604C184.953 517.604 183.963 516.901 183.963 515.964C183.963 515.106 184.953 514.403 186.042 514.403C187.131 514.403 188.12 515.106 188.12 515.964C188.12 516.901 187.131 517.604 186.042 517.604Z" fill="#B56F1D"/>
<path d="M84.7751 557.27C83.5872 557.27 82.6963 556.568 82.6963 555.631C82.6963 554.772 83.5872 554.069 84.7751 554.069C85.8639 554.069 86.7548 554.772 86.7548 555.631C86.7548 556.568 85.8639 557.27 84.7751 557.27Z" fill="#B56F1D"/>
<path d="M208.611 551.961C207.522 551.961 206.631 551.258 206.631 550.399C206.631 549.54 207.522 548.759 208.611 548.759C209.799 548.759 210.689 549.54 210.689 550.399C210.689 551.258 209.799 551.961 208.611 551.961Z" fill="#B56F1D"/>
<path d="M148.722 281.793C147.633 281.793 146.644 281.09 146.644 280.153C146.644 279.216 147.633 278.513 148.722 278.513C149.91 278.513 150.801 279.216 150.801 280.153C150.801 281.09 149.91 281.793 148.722 281.793Z" fill="#B56F1D"/>
<path d="M24.0958 282.027C22.71 282.027 21.6211 281.168 21.6211 280.153C21.6211 279.138 22.71 278.279 24.0958 278.279C25.3827 278.279 26.4715 279.138 26.4715 280.153C26.4715 281.168 25.3827 282.027 24.0958 282.027Z" fill="#B56F1D"/>
<path d="M31.2225 489.963C29.7377 489.963 28.5498 489.026 28.5498 487.854C28.5498 486.761 29.7377 485.824 31.2225 485.824C32.6083 485.824 33.7962 486.761 33.7962 487.854C33.7962 489.026 32.6083 489.963 31.2225 489.963Z" fill="#B56F1D"/>
<path d="M76.0646 487.698C74.6787 487.698 73.5898 486.839 73.5898 485.824C73.5898 484.731 74.6787 483.872 76.0646 483.872C77.3514 483.872 78.5393 484.731 78.5393 485.824C78.5393 486.839 77.3514 487.698 76.0646 487.698Z" fill="#B56F1D"/>
<path d="M170.598 388.845C169.312 388.845 168.223 387.986 168.223 386.893C168.223 385.877 169.312 385.019 170.598 385.019C171.984 385.019 173.073 385.877 173.073 386.893C173.073 387.986 171.984 388.845 170.598 388.845Z" fill="#B56F1D"/>
<path d="M140.407 458.651C139.12 458.651 138.031 457.792 138.031 456.777C138.031 455.684 139.12 454.903 140.407 454.903C141.694 454.903 142.783 455.684 142.783 456.777C142.783 457.792 141.694 458.651 140.407 458.651Z" fill="#B56F1D"/>
<path d="M1031.31 10.0629C1030.02 10.141 1028.83 9.36019 1028.83 8.26702C1028.73 7.25194 1029.72 6.39302 1031.11 6.31494C1032.4 6.31494 1033.49 7.09577 1033.58 8.11085C1033.58 9.12594 1032.59 10.0629 1031.31 10.0629Z" fill="#B56F1D"/>
<path d="M51.0204 203.085C49.5355 203.085 48.3477 202.148 48.3477 200.977C48.3477 199.728 49.5355 198.791 51.0204 198.791C52.6042 198.791 53.792 199.728 53.792 200.977C53.792 202.148 52.6042 203.085 51.0204 203.085Z" fill="#B56F1D"/>
<path d="M240.782 231.117C239.495 231.117 238.505 230.258 238.505 229.243C238.505 228.228 239.495 227.447 240.782 227.447C242.167 227.447 243.157 228.228 243.157 229.243C243.157 230.258 242.167 231.117 240.782 231.117Z" fill="#B56F1D"/>
<path d="M186.636 341.761C185.349 341.761 184.26 340.902 184.26 339.887C184.26 338.872 185.349 338.091 186.636 338.091C187.922 338.091 189.011 338.872 189.011 339.887C189.011 340.902 187.922 341.761 186.636 341.761Z" fill="#B56F1D"/>
<path d="M140.407 162.482C139.219 162.482 138.229 161.779 138.229 160.842C138.229 159.905 139.219 159.124 140.407 159.124C141.595 159.124 142.585 159.905 142.585 160.842C142.585 161.779 141.595 162.482 140.407 162.482Z" fill="#B56F1D"/>
<path d="M358.381 250.481C357.193 250.481 356.302 249.778 356.302 248.841C356.302 247.904 357.193 247.202 358.381 247.202C359.568 247.202 360.459 247.904 360.459 248.841C360.459 249.778 359.568 250.481 358.381 250.481Z" fill="#B56F1D"/>
<path d="M248.899 383.457C247.81 383.457 246.82 382.754 246.82 381.817C246.82 380.958 247.81 380.255 248.899 380.255C250.087 380.255 250.978 380.958 250.978 381.817C250.978 382.754 250.087 383.457 248.899 383.457Z" fill="#B56F1D"/>
<path d="M206.631 266.332C205.443 266.332 204.552 265.63 204.552 264.693C204.552 263.834 205.443 263.131 206.631 263.131C207.719 263.131 208.61 263.834 208.61 264.693C208.61 265.63 207.719 266.332 206.631 266.332Z" fill="#B56F1D"/>
<path d="M308.095 422.889C307.006 422.889 306.115 422.186 306.115 421.249C306.115 420.39 307.006 419.609 308.095 419.609C309.283 419.609 310.174 420.39 310.174 421.249C310.174 422.186 309.283 422.889 308.095 422.889Z" fill="#B56F1D"/>
<path d="M372.141 106.964C370.953 106.964 369.963 106.184 369.963 105.247C369.963 104.31 370.953 103.529 372.141 103.529C373.329 103.529 374.318 104.31 374.318 105.247C374.318 106.184 373.329 106.964 372.141 106.964Z" fill="#B56F1D"/>
<path d="M187.922 131.092C186.833 131.092 185.843 130.389 185.843 129.452C185.843 128.593 186.833 127.812 187.922 127.812C189.109 127.812 190 128.593 190 129.452C190 130.389 189.109 131.092 187.922 131.092Z" fill="#B56F1D"/>
<path d="M454.005 115.163C452.916 115.163 451.926 114.461 451.926 113.524C451.926 112.665 452.916 111.884 454.005 111.884C455.192 111.884 456.182 112.665 456.182 113.524C456.182 114.461 455.192 115.163 454.005 115.163Z" fill="#B56F1D"/>
<path d="M399.065 84.5547C397.778 84.5547 396.788 83.6958 396.788 82.7588C396.788 81.7437 397.778 80.8848 399.065 80.8848C400.352 80.8848 401.441 81.7437 401.441 82.7588C401.441 83.6958 400.352 84.5547 399.065 84.5547Z" fill="#B56F1D"/>
<path d="M752.554 19.6672C751.465 19.6672 750.476 18.9645 750.476 18.0275C750.476 17.1686 751.465 16.4658 752.554 16.4658C753.643 16.4658 754.534 17.1686 754.534 18.0275C754.534 18.9645 753.643 19.6672 752.554 19.6672Z" fill="#B56F1D"/>
<path d="M1067.24 122.972C1066.15 122.972 1065.16 122.269 1065.16 121.41C1065.06 120.551 1065.95 119.77 1067.04 119.77C1068.23 119.692 1069.12 120.395 1069.22 121.254C1069.22 122.191 1068.43 122.893 1067.24 122.972Z" fill="#B56F1D"/>
<path d="M1146.93 116.256C1145.74 116.334 1144.75 115.631 1144.75 114.694C1144.65 113.835 1145.54 113.055 1146.73 112.977C1147.82 112.977 1148.81 113.679 1148.91 114.538C1148.91 115.475 1148.02 116.256 1146.93 116.256Z" fill="#B56F1D"/>
<path d="M1183.25 56.054C1181.87 56.1321 1180.68 55.2732 1180.58 54.18C1180.58 53.0869 1181.67 52.1499 1183.06 52.0718C1184.44 52.0718 1185.63 52.8526 1185.63 53.9458C1185.73 55.117 1184.64 56.054 1183.25 56.054Z" fill="#B56F1D"/>
<path d="M1401.23 547.041C1400.14 547.119 1399.15 546.417 1399.15 545.48C1399.05 544.621 1399.94 543.918 1401.03 543.84C1402.22 543.84 1403.11 544.465 1403.21 545.402C1403.21 546.26 1402.32 547.041 1401.23 547.041Z" fill="#DC9A42"/>
<path d="M1423.2 573.278C1422.12 573.356 1421.13 572.653 1421.13 571.794C1421.03 570.935 1421.92 570.154 1423.01 570.154C1424.19 570.076 1425.09 570.779 1425.18 571.638C1425.18 572.497 1424.39 573.278 1423.2 573.278Z" fill="#DC9A42"/>
<path d="M1413.7 611.851C1412.61 611.851 1411.62 611.148 1411.62 610.289C1411.52 609.43 1412.41 608.649 1413.5 608.649C1414.69 608.571 1415.58 609.274 1415.68 610.133C1415.68 610.992 1414.89 611.773 1413.7 611.851Z" fill="#DC9A42"/>
<path d="M1257 683.765C1255.91 683.843 1254.92 683.141 1254.92 682.282C1254.82 681.345 1255.72 680.642 1256.8 680.564C1257.89 680.564 1258.88 681.267 1258.88 682.126C1258.98 682.985 1258.09 683.765 1257 683.765Z" fill="#DC9A42"/>
<path d="M1111.19 514.949C1110 514.949 1109.11 514.246 1109.01 513.387C1109.01 512.528 1109.9 511.748 1110.99 511.748C1112.08 511.67 1113.07 512.372 1113.07 513.231C1113.17 514.09 1112.28 514.871 1111.19 514.949Z" fill="#DC9A42"/>
<path d="M1249.18 642.849C1248.09 642.849 1247.1 642.225 1247 641.288C1247 640.429 1247.89 639.648 1248.98 639.648C1250.07 639.57 1251.06 640.273 1251.06 641.132C1251.16 642.069 1250.27 642.771 1249.18 642.849Z" fill="#DC9A42"/>
<path d="M356.401 449.359C355.213 449.359 354.322 448.656 354.322 447.797C354.322 446.939 355.213 446.158 356.401 446.158C357.49 446.158 358.381 446.939 358.381 447.797C358.381 448.656 357.49 449.359 356.401 449.359Z" fill="#DC9A42"/>
<path d="M336.801 527.052C335.614 527.052 334.723 526.35 334.723 525.413C334.723 524.554 335.614 523.851 336.801 523.851C337.89 523.851 338.781 524.554 338.781 525.413C338.781 526.35 337.89 527.052 336.801 527.052Z" fill="#DC9A42"/>
<path d="M1.32779 537.281C0.139924 537.281 -0.750977 536.578 -0.750977 535.641C-0.750977 534.782 0.139924 534.08 1.32779 534.08C2.41667 534.08 3.30757 534.782 3.30757 535.641C3.30757 536.578 2.41667 537.281 1.32779 537.281Z" fill="#DC9A42"/>
<path d="M296.315 325.988C295.127 325.988 294.236 325.285 294.236 324.348C294.236 323.489 295.127 322.786 296.315 322.786C297.404 322.786 298.295 323.489 298.295 324.348C298.295 325.285 297.404 325.988 296.315 325.988Z" fill="#DC9A42"/>
<path d="M102.791 214.719C101.702 214.719 100.812 214.017 100.812 213.08C100.812 212.221 101.702 211.518 102.791 211.518C103.979 211.518 104.87 212.221 104.87 213.08C104.87 214.017 103.979 214.719 102.791 214.719Z" fill="#DC9A42"/>
<path d="M373.526 59.6462C372.338 59.6462 371.447 58.9435 371.447 58.0846C371.447 57.1476 372.338 56.4448 373.526 56.4448C374.615 56.4448 375.506 57.1476 375.506 58.0846C375.506 58.9435 374.615 59.6462 373.526 59.6462Z" fill="#DC9A42"/>
<path d="M106.652 353.083C105.563 353.083 104.573 352.302 104.573 351.443C104.573 350.584 105.563 349.881 106.652 349.881C107.741 349.881 108.632 350.584 108.632 351.443C108.632 352.302 107.741 353.083 106.652 353.083Z" fill="#DC9A42"/>
<path d="M172.677 441.942C171.589 441.942 170.599 441.239 170.599 440.302C170.599 439.443 171.589 438.74 172.677 438.74C173.766 438.74 174.657 439.443 174.657 440.302C174.657 441.239 173.766 441.942 172.677 441.942Z" fill="#DC9A42"/>
<path d="M146.743 420.39C145.555 420.39 144.664 419.688 144.664 418.751C144.664 417.892 145.555 417.189 146.743 417.189C147.832 417.189 148.723 417.892 148.723 418.751C148.723 419.688 147.832 420.39 146.743 420.39Z" fill="#DC9A42"/>
<path d="M35.8747 314.431C34.6868 314.431 33.7959 313.729 33.7959 312.792C33.7959 311.933 34.6868 311.23 35.8747 311.23C36.9635 311.23 37.8544 311.933 37.8544 312.792C37.8544 313.729 36.9635 314.431 35.8747 314.431Z" fill="#DC9A42"/>
<path d="M12.3151 372.291C11.1272 372.291 10.2363 371.589 10.2363 370.73C10.2363 369.871 11.1272 369.09 12.3151 369.09C13.404 369.09 14.2949 369.871 14.2949 370.73C14.2949 371.589 13.404 372.291 12.3151 372.291Z" fill="#DC9A42"/>
<path d="M237.911 221.981C236.823 221.981 235.932 221.2 235.932 220.341C235.932 219.483 236.823 218.78 237.911 218.78C239 218.78 239.99 219.483 239.99 220.341C239.99 221.2 239 221.981 237.911 221.981Z" fill="#DC9A42"/>
<path d="M64.8786 253.917C63.7897 253.917 62.7998 253.214 62.7998 252.356C62.7998 251.497 63.7897 250.716 64.8786 250.716C65.9674 250.716 66.8583 251.497 66.8583 252.356C66.8583 253.214 65.9674 253.917 64.8786 253.917Z" fill="#DC9A42"/>
<path d="M21.3239 217.062C20.136 217.062 19.2451 216.281 19.2451 215.422C19.2451 214.563 20.136 213.86 21.3239 213.86C22.4128 213.86 23.3037 214.563 23.3037 215.422C23.3037 216.281 22.4128 217.062 21.3239 217.062Z" fill="#DC9A42"/>
<path d="M151.197 98.6872C150.108 98.6872 149.118 97.9845 149.118 97.1256C149.118 96.1886 150.108 95.4858 151.197 95.4858C152.286 95.4858 153.276 96.1886 153.276 97.1256C153.276 97.9845 152.286 98.6872 151.197 98.6872Z" fill="#DC9A42"/>
<path d="M179.705 37.4705C178.616 37.4705 177.726 36.6896 177.726 35.8307C177.726 34.9718 178.616 34.269 179.705 34.269C180.794 34.269 181.784 34.9718 181.784 35.8307C181.784 36.6896 180.794 37.4705 179.705 37.4705Z" fill="#DC9A42"/>
<path d="M259.491 59.6462C258.303 59.6462 257.412 58.9435 257.412 58.0846C257.412 57.1476 258.303 56.4448 259.491 56.4448C260.58 56.4448 261.471 57.1476 261.471 58.0846C261.471 58.9435 260.58 59.6462 259.491 59.6462Z" fill="#DC9A42"/>
<path d="M236.328 46.6062C235.239 46.6062 234.249 45.9034 234.249 45.0445C234.249 44.1075 235.239 43.4048 236.328 43.4048C237.417 43.4048 238.308 44.1075 238.308 45.0445C238.308 45.9034 237.417 46.6062 236.328 46.6062Z" fill="#DC9A42"/>
<path d="M335.316 173.647C334.227 173.647 333.237 172.866 333.237 172.007C333.237 171.149 334.227 170.446 335.316 170.446C336.405 170.446 337.296 171.149 337.296 172.007C337.296 172.866 336.405 173.647 335.316 173.647Z" fill="#DC9A42"/>
<path d="M21.3239 154.595C20.136 154.595 19.2451 153.892 19.2451 153.033C19.2451 152.096 20.136 151.394 21.3239 151.394C22.4128 151.394 23.3037 152.096 23.3037 153.033C23.3037 153.892 22.4128 154.595 21.3239 154.595Z" fill="#DC9A42"/>
<path d="M405.796 48.2454C404.707 48.2454 403.816 47.5426 403.816 46.6056C403.816 45.7467 404.707 45.0439 405.796 45.0439C406.984 45.0439 407.875 45.7467 407.875 46.6056C407.875 47.5426 406.984 48.2454 405.796 48.2454Z" fill="#DC9A42"/>
<path d="M346.799 10.2976C345.612 10.2976 344.721 9.59485 344.721 8.65786C344.721 7.79894 345.612 7.09619 346.799 7.09619C347.888 7.09619 348.779 7.79894 348.779 8.65786C348.779 9.59485 347.888 10.2976 346.799 10.2976Z" fill="#DC9A42"/>
<path d="M1070.71 69.8748C1069.62 69.8748 1068.63 69.2502 1068.63 68.3132C1068.53 67.4543 1069.42 66.6734 1070.51 66.6734C1071.7 66.5953 1072.59 67.2981 1072.69 68.157C1072.69 69.094 1071.79 69.7968 1070.71 69.8748Z" fill="#DC9A42"/>
<path d="M1113.86 104.154C1112.77 104.232 1111.78 103.529 1111.78 102.592C1111.69 101.733 1112.58 101.03 1113.67 100.952C1114.85 100.952 1115.74 101.577 1115.84 102.514C1115.84 103.373 1115.05 104.154 1113.86 104.154Z" fill="#DC9A42"/>
<path d="M1106.54 230.726C1104.46 230.805 1102.78 229.555 1102.68 227.994C1102.58 226.354 1104.16 225.026 1106.14 224.948C1108.22 224.87 1109.9 226.12 1110 227.759C1110.1 229.321 1108.52 230.648 1106.54 230.726Z" fill="url(#paint10_linear_114_6056)"/>
<path d="M1231.17 199.805C1229.19 199.884 1227.6 198.712 1227.5 197.151C1227.4 195.667 1228.89 194.418 1230.77 194.34C1232.75 194.262 1234.33 195.433 1234.43 196.916C1234.53 198.4 1233.05 199.727 1231.17 199.805Z" fill="url(#paint11_linear_114_6056)"/>
<path d="M1357.28 269.377C1355.2 269.455 1353.52 268.284 1353.42 266.644C1353.32 265.083 1354.9 263.755 1356.88 263.677C1358.96 263.599 1360.64 264.849 1360.74 266.41C1360.84 267.972 1359.26 269.377 1357.28 269.377Z" fill="url(#paint12_linear_114_6056)"/>
<path d="M1301.05 383.457C1298.68 383.535 1296.7 382.13 1296.6 380.256C1296.5 378.46 1298.28 376.898 1300.66 376.82C1303.03 376.742 1305.01 378.147 1305.11 380.021C1305.21 381.817 1303.33 383.379 1301.05 383.457Z" fill="url(#paint13_linear_114_6056)"/>
<path d="M1371.63 462.009C1369.26 462.087 1367.18 460.604 1367.08 458.73C1366.98 456.856 1368.86 455.216 1371.24 455.138C1373.71 455.06 1375.69 456.543 1375.89 458.417C1375.99 460.291 1374.11 461.931 1371.63 462.009Z" fill="url(#paint14_linear_114_6056)"/>
<path d="M1149.01 313.495C1146.33 313.573 1144.06 311.933 1143.86 309.747C1143.76 307.638 1145.84 305.764 1148.61 305.686C1151.28 305.608 1153.66 307.248 1153.76 309.434C1153.86 311.543 1151.78 313.338 1149.01 313.495Z" fill="url(#paint15_linear_114_6056)"/>
<path d="M1423.4 401.651C1420.53 401.729 1418.16 400.011 1418.06 397.824C1417.86 395.56 1420.04 393.686 1422.91 393.608C1425.68 393.452 1428.06 395.17 1428.25 397.434C1428.35 399.62 1426.17 401.572 1423.4 401.651Z" fill="url(#paint16_linear_114_6056)"/>
<path d="M1337.18 729.991C1334.31 730.147 1331.84 728.351 1331.64 726.087C1331.54 723.744 1333.82 721.792 1336.69 721.714C1339.56 721.636 1342.03 723.354 1342.23 725.696C1342.33 727.961 1340.05 729.913 1337.18 729.991Z" fill="url(#paint17_linear_114_6056)"/>
<path d="M1218.1 328.408C1214.83 328.564 1212.06 326.534 1211.86 323.879C1211.76 321.303 1214.34 319.116 1217.6 318.96C1220.87 318.882 1223.74 320.912 1223.84 323.489C1224.04 326.066 1221.46 328.33 1218.1 328.408Z" fill="url(#paint18_linear_114_6056)"/>
<path d="M382.831 674.395C379.466 674.395 376.793 672.287 376.793 669.71C376.793 667.055 379.466 664.947 382.831 664.947C386.098 664.947 388.771 667.055 388.771 669.71C388.771 672.287 386.098 674.395 382.831 674.395Z" fill="url(#paint19_linear_114_6056)"/>
<path d="M238.505 442.488C237.218 442.488 236.229 441.707 236.229 440.692C236.229 439.755 237.218 438.896 238.505 438.896C239.693 438.896 240.782 439.755 240.782 440.692C240.782 441.707 239.693 442.488 238.505 442.488Z" fill="url(#paint20_linear_114_6056)"/>
<path d="M28.5502 359.797C26.0755 359.797 24.0957 358.236 24.0957 356.284C24.0957 354.332 26.0755 352.692 28.5502 352.692C31.0249 352.692 33.1037 354.332 33.1037 356.284C33.1037 358.236 31.0249 359.797 28.5502 359.797Z" fill="url(#paint21_linear_114_6056)"/>
<path d="M366.597 198.79C364.716 198.79 363.231 197.619 363.231 196.135C363.231 194.652 364.716 193.48 366.597 193.48C368.478 193.48 369.963 194.652 369.963 196.135C369.963 197.619 368.478 198.79 366.597 198.79Z" fill="url(#paint22_linear_114_6056)"/>
<path d="M153.177 313.729C150.702 313.729 148.723 312.089 148.723 310.215C148.723 308.263 150.702 306.701 153.177 306.701C155.652 306.701 157.632 308.263 157.632 310.215C157.632 312.089 155.652 313.729 153.177 313.729Z" fill="url(#paint23_linear_114_6056)"/>
<path d="M181.586 468.021C179.112 468.021 177.132 466.459 177.132 464.507C177.132 462.555 179.112 460.994 181.586 460.994C184.061 460.994 186.041 462.555 186.041 464.507C186.041 466.459 184.061 468.021 181.586 468.021Z" fill="url(#paint24_linear_114_6056)"/>
<path d="M80.5196 82.6022C79.3317 82.6022 78.3418 81.8213 78.3418 80.8843C78.3418 79.9473 79.3317 79.1665 80.5196 79.1665C81.7074 79.1665 82.6973 79.9473 82.6973 80.8843C82.6973 81.8213 81.7074 82.6022 80.5196 82.6022Z" fill="url(#paint25_linear_114_6056)"/>
<path d="M194.653 93.6122C193.268 93.6122 192.179 92.7533 192.179 91.6601C192.179 90.645 193.268 89.7861 194.653 89.7861C195.94 89.7861 197.029 90.645 197.029 91.6601C197.029 92.7533 195.94 93.6122 194.653 93.6122Z" fill="url(#paint26_linear_114_6056)"/>
<path d="M270.082 133.513C268.895 133.513 267.806 132.732 267.806 131.795C267.806 130.78 268.895 129.999 270.082 129.999C271.369 129.999 272.359 130.78 272.359 131.795C272.359 132.732 271.369 133.513 270.082 133.513Z" fill="url(#paint27_linear_114_6056)"/>
<path d="M185.843 182.939C184.457 182.939 183.27 182.002 183.27 180.909C183.27 179.738 184.457 178.801 185.843 178.801C187.328 178.801 188.516 179.738 188.516 180.909C188.516 182.002 187.328 182.939 185.843 182.939Z" fill="url(#paint28_linear_114_6056)"/>
<path d="M420.644 169.978C419.06 169.978 417.773 168.962 417.773 167.713C417.773 166.464 419.06 165.449 420.644 165.449C422.228 165.449 423.416 166.464 423.416 167.713C423.416 168.962 422.228 169.978 420.644 169.978Z" fill="url(#paint29_linear_114_6056)"/>
<path d="M495.58 8.65753C493.798 8.65753 492.412 7.56436 492.412 6.23694C492.412 4.83145 493.798 3.73828 495.58 3.73828C497.263 3.73828 498.747 4.83145 498.747 6.23694C498.747 7.56436 497.263 8.65753 495.58 8.65753Z" fill="url(#paint30_linear_114_6056)"/>
<path d="M671.086 39.3444C668.908 39.3444 667.226 38.017 667.226 36.2992C667.226 34.6594 668.908 33.2539 671.086 33.2539C673.165 33.2539 674.947 34.6594 674.947 36.2992C674.947 38.017 673.165 39.3444 671.086 39.3444Z" fill="url(#paint31_linear_114_6056)"/>
<path d="M273.151 506.204C271.766 506.204 270.677 505.267 270.677 504.174C270.677 503.081 271.766 502.144 273.151 502.144C274.636 502.144 275.725 503.081 275.725 504.174C275.725 505.267 274.636 506.204 273.151 506.204Z" fill="url(#paint32_linear_114_6056)"/>
<path d="M853.722 56.9908C851.841 57.0689 850.257 55.8977 850.158 54.4141C850.158 52.9305 851.544 51.6812 853.425 51.6812C855.306 51.6031 856.889 52.6963 856.988 54.1798C856.988 55.6634 855.603 56.9128 853.722 56.9908Z" fill="url(#paint33_linear_114_6056)"/>
<path d="M925.389 99.4681C924.3 99.4681 923.31 98.8434 923.31 97.9064C923.211 97.0475 924.102 96.2667 925.191 96.2667C926.379 96.1886 927.27 96.8913 927.369 97.7503C927.369 98.6873 926.577 99.39 925.389 99.4681Z" fill="#DC9A42"/>
<path d="M981.912 79.7913C980.724 79.7913 979.833 79.1667 979.734 78.2297C979.734 77.3708 980.625 76.5899 981.714 76.5899C982.803 76.5118 983.793 77.2146 983.793 78.0735C983.892 79.0105 983.001 79.7132 981.912 79.7913Z" fill="#DC9A42"/>
<path d="M983.396 138.588C981.614 138.588 980.129 137.495 980.03 136.09C979.931 134.684 981.317 133.435 983.099 133.357C984.98 133.279 986.465 134.45 986.564 135.855C986.663 137.261 985.277 138.51 983.396 138.588Z" fill="url(#paint34_linear_114_6056)"/>
<path d="M1275.41 132.575C1273.34 132.654 1271.55 131.404 1271.45 129.764C1271.36 128.125 1273.04 126.719 1275.12 126.641C1277.2 126.563 1278.88 127.812 1278.98 129.452C1279.08 131.092 1277.49 132.497 1275.41 132.575Z" fill="url(#paint35_linear_114_6056)"/>
<path d="M1312.34 96.5792C1310.16 96.6572 1308.38 95.4079 1308.28 93.6901C1308.18 92.0503 1309.86 90.6448 1311.94 90.5668C1314.12 90.4887 1315.9 91.8161 1316 93.4558C1316.1 95.0956 1314.42 96.5011 1312.34 96.5792Z" fill="url(#paint36_linear_114_6056)"/>
<path d="M1403.31 223.543C1401.43 223.621 1399.74 222.45 1399.65 220.888C1399.55 219.326 1401.13 218.077 1403.01 217.999C1404.99 217.921 1406.57 219.092 1406.67 220.654C1406.77 222.137 1405.29 223.465 1403.31 223.543Z" fill="url(#paint37_linear_114_6056)"/>
<path d="M997.849 641.366C995.671 641.444 993.889 640.117 993.79 638.399C993.691 636.681 995.374 635.198 997.552 635.119C999.73 635.041 1001.51 636.369 1001.61 638.087C1001.71 639.804 1000.03 641.288 997.849 641.366Z" fill="url(#paint38_linear_114_6056)"/>
<path d="M1367.28 339.653C1364.9 339.731 1362.92 338.247 1362.82 336.373C1362.72 334.499 1364.5 332.938 1366.88 332.86C1369.26 332.781 1371.24 334.187 1371.33 336.061C1371.53 337.935 1369.65 339.497 1367.28 339.653Z" fill="url(#paint39_linear_114_6056)"/>
<path d="M1418.25 496.209C1415.38 496.287 1413.01 494.569 1412.91 492.305C1412.81 490.119 1414.99 488.167 1417.76 488.088C1420.63 488.01 1423.01 489.728 1423.11 491.993C1423.3 494.179 1421.03 496.053 1418.25 496.209Z" fill="url(#paint40_linear_114_6056)"/>
<path d="M1308.68 230.57C1306.7 230.57 1305.01 229.399 1304.91 227.837C1304.81 226.275 1306.4 224.948 1308.38 224.87C1310.36 224.792 1312.04 225.963 1312.14 227.525C1312.24 229.164 1310.65 230.492 1308.68 230.57Z" fill="url(#paint41_linear_114_6056)"/>
<path d="M1074.96 2.5671C1072.49 2.64518 1070.41 1.1616 1070.31 -0.712398C1070.21 -2.66448 1072.09 -4.30423 1074.56 -4.38231C1076.94 -4.46039 1079.02 -2.97681 1079.12 -1.02473C1079.22 0.849267 1077.34 2.48901 1074.96 2.5671Z" fill="url(#paint42_linear_114_6056)"/>
<path d="M1196.12 279.06C1193.05 279.216 1190.58 277.342 1190.38 274.999C1190.28 272.657 1192.66 270.627 1195.63 270.471C1198.6 270.393 1201.17 272.267 1201.27 274.609C1201.47 276.952 1199.09 278.982 1196.12 279.06Z" fill="url(#paint43_linear_114_6056)"/>
<path d="M1237.4 445.377C1233.15 445.533 1229.48 442.878 1229.28 439.443C1229.09 436.085 1232.35 433.118 1236.71 432.962C1241.06 432.805 1244.73 435.46 1244.93 438.896C1245.12 442.332 1241.76 445.221 1237.4 445.377Z" fill="url(#paint44_linear_114_6056)"/>
<path d="M1348.37 548.057C1345.4 548.135 1342.92 546.339 1342.83 543.996C1342.63 541.732 1344.9 539.78 1347.87 539.624C1350.84 539.545 1353.32 541.341 1353.42 543.684C1353.62 545.948 1351.34 547.9 1348.37 548.057Z" fill="url(#paint45_linear_114_6056)"/>
<path d="M60.5233 427.028C58.4445 427.028 56.7617 425.7 56.7617 424.06C56.7617 422.343 58.4445 421.015 60.5233 421.015C62.6021 421.015 64.3839 422.343 64.3839 424.06C64.3839 425.7 62.6021 427.028 60.5233 427.028Z" fill="url(#paint46_linear_114_6056)"/>
<path d="M168.421 219.482C166.937 219.482 165.848 218.545 165.848 217.452C165.848 216.359 166.937 215.422 168.421 215.422C169.807 215.422 170.896 216.359 170.896 217.452C170.896 218.545 169.807 219.482 168.421 219.482Z" fill="url(#paint47_linear_114_6056)"/>
<path d="M1110.7 139.681L1112.18 141.867L1117.53 141.165L1112.78 144.132V146.865L1108.32 146.474L1102.98 148.895L1104.86 145.694L1101.69 144.444L1107.33 142.883L1110.7 139.681Z" fill="#9A6A25"/>
<path d="M224.549 154.205L230.092 156.079L234.546 153.58L234.645 158.265L239.397 161.31L233.953 162.325L232.468 166.698L229.003 162.638L223.262 162.247L226.528 158.734L224.549 154.205Z" fill="#D59333"/>
<path d="M1217.21 379.319L1222.75 381.271L1227.31 378.772V383.457L1232.06 386.425L1226.71 387.518L1225.13 391.812L1221.66 387.752L1215.92 387.44L1219.29 383.926L1217.21 379.319Z" fill="#D59333"/>
<path d="M61.3157 280.543L66.7601 282.652L72.1055 281.012L71.3136 284.838L75.7681 287.805L69.7298 288.039L67.2551 291.397L64.2854 287.805L58.2471 286.946L62.5036 284.448L61.3157 280.543Z" fill="#CF8F31"/>
<path d="M60.0286 659.872L54.5842 661.902L49.2388 660.34L50.0307 664.166L45.5762 667.055L51.6145 667.368L54.0892 670.725L56.9599 667.133L63.0972 666.274L58.8407 663.776L60.0286 659.872Z" fill="#CF8F31"/>
<path d="M1392.62 108.916L1392.12 110.556L1396.58 110.243L1391.03 112.196L1388.86 114.226L1385.89 113.835L1380.14 115.397L1383.91 113.133L1382.52 112.039L1387.77 111.102L1392.62 108.916Z" fill="#885E20"/>
</g>
<defs>
<linearGradient id="paint0_linear_114_6056" x1="453.555" y1="555.958" x2="435.918" y2="555.958" gradientUnits="userSpaceOnUse">
<stop stop-color="#B56936"/>
<stop offset="1" stop-color="#FACC98"/>
</linearGradient>
<linearGradient id="paint1_linear_114_6056" x1="1294.28" y1="582.766" x2="1270.14" y2="582.766" gradientUnits="userSpaceOnUse">
<stop stop-color="#B56936"/>
<stop offset="1" stop-color="#FACC98"/>
</linearGradient>
<linearGradient id="paint2_linear_114_6056" x1="310.067" y1="262.894" x2="285.673" y2="262.894" gradientUnits="userSpaceOnUse">
<stop stop-color="#B56936"/>
<stop offset="1" stop-color="#FACC98"/>
</linearGradient>
<linearGradient id="paint3_linear_114_6056" x1="1107.4" y1="261.739" x2="1128.85" y2="261.739" gradientUnits="userSpaceOnUse">
<stop stop-color="#B56936"/>
<stop offset="1" stop-color="#FACC98"/>
</linearGradient>
<linearGradient id="paint4_linear_114_6056" x1="1212.55" y1="160.134" x2="1187.89" y2="160.134" gradientUnits="userSpaceOnUse">
<stop stop-color="#B56936"/>
<stop offset="1" stop-color="#FACC98"/>
</linearGradient>
<linearGradient id="paint5_linear_114_6056" x1="255.131" y1="493.869" x2="244.159" y2="469.778" gradientUnits="userSpaceOnUse">
<stop stop-color="#B56936"/>
<stop offset="1" stop-color="#FACC98"/>
</linearGradient>
<linearGradient id="paint6_linear_114_6056" x1="893.159" y1="-4.36905" x2="881.964" y2="-28.9506" gradientUnits="userSpaceOnUse">
<stop stop-color="#B56936"/>
<stop offset="1" stop-color="#FACC98"/>
</linearGradient>
<linearGradient id="paint7_linear_114_6056" x1="92.4732" y1="625.353" x2="82.7765" y2="604.061" gradientUnits="userSpaceOnUse">
<stop stop-color="#B56936"/>
<stop offset="1" stop-color="#FACC98"/>
</linearGradient>
<linearGradient id="paint8_linear_114_6056" x1="1364.87" y1="165.299" x2="1354.28" y2="142.055" gradientUnits="userSpaceOnUse">
<stop stop-color="#B56936"/>
<stop offset="1" stop-color="#FACC98"/>
</linearGradient>
<linearGradient id="paint9_linear_114_6056" x1="1447.68" y1="332.049" x2="1437.48" y2="309.657" gradientUnits="userSpaceOnUse">
<stop stop-color="#B56936"/>
<stop offset="1" stop-color="#FACC98"/>
</linearGradient>
<linearGradient id="paint10_linear_114_6056" x1="1102.69" y1="224.966" x2="1110.01" y2="224.966" gradientUnits="userSpaceOnUse">
<stop stop-color="#D1915E"/>
<stop offset="1" stop-color="#FACC98"/>
</linearGradient>
<linearGradient id="paint11_linear_114_6056" x1="1227.5" y1="194.308" x2="1234.44" y2="194.308" gradientUnits="userSpaceOnUse">
<stop stop-color="#D1915E"/>
<stop offset="1" stop-color="#FACC98"/>
</linearGradient>
<linearGradient id="paint12_linear_114_6056" x1="1353.45" y1="263.68" x2="1360.72" y2="263.68" gradientUnits="userSpaceOnUse">
<stop stop-color="#D1915E"/>
<stop offset="1" stop-color="#FACC98"/>
</linearGradient>
<linearGradient id="paint13_linear_114_6056" x1="1296.59" y1="376.79" x2="1305.09" y2="376.79" gradientUnits="userSpaceOnUse">
<stop stop-color="#D1915E"/>
<stop offset="1" stop-color="#FACC98"/>
</linearGradient>
<linearGradient id="paint14_linear_114_6056" x1="1367.09" y1="455.116" x2="1375.85" y2="455.116" gradientUnits="userSpaceOnUse">
<stop stop-color="#D1915E"/>
<stop offset="1" stop-color="#FACC98"/>
</linearGradient>
<linearGradient id="paint15_linear_114_6056" x1="1143.88" y1="305.681" x2="1153.75" y2="305.681" gradientUnits="userSpaceOnUse">
<stop stop-color="#D1915E"/>
<stop offset="1" stop-color="#FACC98"/>
</linearGradient>
<linearGradient id="paint16_linear_114_6056" x1="1418.01" y1="393.582" x2="1428.24" y2="393.582" gradientUnits="userSpaceOnUse">
<stop stop-color="#D1915E"/>
<stop offset="1" stop-color="#FACC98"/>
</linearGradient>
<linearGradient id="paint17_linear_114_6056" x1="1331.66" y1="721.71" x2="1342.2" y2="721.71" gradientUnits="userSpaceOnUse">
<stop stop-color="#D1915E"/>
<stop offset="1" stop-color="#FACC98"/>
</linearGradient>
<linearGradient id="paint18_linear_114_6056" x1="1211.89" y1="318.984" x2="1223.85" y2="318.984" gradientUnits="userSpaceOnUse">
<stop stop-color="#D1915E"/>
<stop offset="1" stop-color="#FACC98"/>
</linearGradient>
<linearGradient id="paint19_linear_114_6056" x1="376.82" y1="664.954" x2="388.781" y2="664.954" gradientUnits="userSpaceOnUse">
<stop stop-color="#D1915E"/>
<stop offset="1" stop-color="#FACC98"/>
</linearGradient>
<linearGradient id="paint20_linear_114_6056" x1="236.233" y1="438.923" x2="240.743" y2="438.923" gradientUnits="userSpaceOnUse">
<stop stop-color="#D1915E"/>
<stop offset="1" stop-color="#FACC98"/>
</linearGradient>
<linearGradient id="paint21_linear_114_6056" x1="24.0521" y1="352.718" x2="33.0552" y2="352.718" gradientUnits="userSpaceOnUse">
<stop stop-color="#D1915E"/>
<stop offset="1" stop-color="#FACC98"/>
</linearGradient>
<linearGradient id="paint22_linear_114_6056" x1="363.23" y1="193.501" x2="369.956" y2="193.501" gradientUnits="userSpaceOnUse">
<stop stop-color="#D1915E"/>
<stop offset="1" stop-color="#FACC98"/>
</linearGradient>
<linearGradient id="paint23_linear_114_6056" x1="148.731" y1="306.696" x2="157.604" y2="306.696" gradientUnits="userSpaceOnUse">
<stop stop-color="#D1915E"/>
<stop offset="1" stop-color="#FACC98"/>
</linearGradient>
<linearGradient id="paint24_linear_114_6056" x1="177.146" y1="461.02" x2="186.019" y2="461.02" gradientUnits="userSpaceOnUse">
<stop stop-color="#D1915E"/>
<stop offset="1" stop-color="#FACC98"/>
</linearGradient>
<linearGradient id="paint25_linear_114_6056" x1="78.3309" y1="79.1891" x2="82.6498" y2="79.1891" gradientUnits="userSpaceOnUse">
<stop stop-color="#D1915E"/>
<stop offset="1" stop-color="#FACC98"/>
</linearGradient>
<linearGradient id="paint26_linear_114_6056" x1="192.223" y1="89.7791" x2="197.052" y2="89.7791" gradientUnits="userSpaceOnUse">
<stop stop-color="#D1915E"/>
<stop offset="1" stop-color="#FACC98"/>
</linearGradient>
<linearGradient id="paint27_linear_114_6056" x1="267.853" y1="129.997" x2="272.321" y2="129.997" gradientUnits="userSpaceOnUse">
<stop stop-color="#D1915E"/>
<stop offset="1" stop-color="#FACC98"/>
</linearGradient>
<linearGradient id="paint28_linear_114_6056" x1="183.294" y1="178.828" x2="188.477" y2="178.828" gradientUnits="userSpaceOnUse">
<stop stop-color="#D1915E"/>
<stop offset="1" stop-color="#FACC98"/>
</linearGradient>
<linearGradient id="paint29_linear_114_6056" x1="417.781" y1="165.484" x2="423.459" y2="165.484" gradientUnits="userSpaceOnUse">
<stop stop-color="#D1915E"/>
<stop offset="1" stop-color="#FACC98"/>
</linearGradient>
<linearGradient id="paint30_linear_114_6056" x1="492.425" y1="3.71798" x2="498.721" y2="3.71798" gradientUnits="userSpaceOnUse">
<stop stop-color="#D1915E"/>
<stop offset="1" stop-color="#FACC98"/>
</linearGradient>
<linearGradient id="paint31_linear_114_6056" x1="667.231" y1="33.275" x2="674.941" y2="33.275" gradientUnits="userSpaceOnUse">
<stop stop-color="#D1915E"/>
<stop offset="1" stop-color="#FACC98"/>
</linearGradient>
<linearGradient id="paint32_linear_114_6056" x1="270.658" y1="502.161" x2="275.742" y2="502.161" gradientUnits="userSpaceOnUse">
<stop stop-color="#D1915E"/>
<stop offset="1" stop-color="#FACC98"/>
</linearGradient>
<linearGradient id="paint33_linear_114_6056" x1="850.191" y1="51.6499" x2="856.954" y2="51.6499" gradientUnits="userSpaceOnUse">
<stop stop-color="#D1915E"/>
<stop offset="1" stop-color="#FACC98"/>
</linearGradient>
<linearGradient id="paint34_linear_114_6056" x1="980" y1="133.373" x2="986.573" y2="133.373" gradientUnits="userSpaceOnUse">
<stop stop-color="#D1915E"/>
<stop offset="1" stop-color="#FACC98"/>
</linearGradient>
<linearGradient id="paint35_linear_114_6056" x1="1271.48" y1="126.644" x2="1279.01" y2="126.644" gradientUnits="userSpaceOnUse">
<stop stop-color="#D1915E"/>
<stop offset="1" stop-color="#FACC98"/>
</linearGradient>
<linearGradient id="paint36_linear_114_6056" x1="1308.29" y1="90.5605" x2="1315.97" y2="90.5605" gradientUnits="userSpaceOnUse">
<stop stop-color="#D1915E"/>
<stop offset="1" stop-color="#FACC98"/>
</linearGradient>
<linearGradient id="paint37_linear_114_6056" x1="1399.66" y1="217.984" x2="1406.7" y2="217.984" gradientUnits="userSpaceOnUse">
<stop stop-color="#D1915E"/>
<stop offset="1" stop-color="#FACC98"/>
</linearGradient>
<linearGradient id="paint38_linear_114_6056" x1="993.741" y1="635.136" x2="1001.66" y2="635.136" gradientUnits="userSpaceOnUse">
<stop stop-color="#D1915E"/>
<stop offset="1" stop-color="#FACC98"/>
</linearGradient>
<linearGradient id="paint39_linear_114_6056" x1="1362.8" y1="332.851" x2="1371.38" y2="332.851" gradientUnits="userSpaceOnUse">
<stop stop-color="#D1915E"/>
<stop offset="1" stop-color="#FACC98"/>
</linearGradient>
<linearGradient id="paint40_linear_114_6056" x1="1412.89" y1="488.099" x2="1423.13" y2="488.099" gradientUnits="userSpaceOnUse">
<stop stop-color="#D1915E"/>
<stop offset="1" stop-color="#FACC98"/>
</linearGradient>
<linearGradient id="paint41_linear_114_6056" x1="1304.91" y1="224.843" x2="1312.13" y2="224.843" gradientUnits="userSpaceOnUse">
<stop stop-color="#D1915E"/>
<stop offset="1" stop-color="#FACC98"/>
</linearGradient>
<linearGradient id="paint42_linear_114_6056" x1="1070.34" y1="-4.35888" x2="1079.15" y2="-4.35888" gradientUnits="userSpaceOnUse">
<stop stop-color="#D1915E"/>
<stop offset="1" stop-color="#FACC98"/>
</linearGradient>
<linearGradient id="paint43_linear_114_6056" x1="1190.42" y1="270.504" x2="1201.3" y2="270.504" gradientUnits="userSpaceOnUse">
<stop stop-color="#D1915E"/>
<stop offset="1" stop-color="#FACC98"/>
</linearGradient>
<linearGradient id="paint44_linear_114_6056" x1="1229.23" y1="432.992" x2="1244.96" y2="432.992" gradientUnits="userSpaceOnUse">
<stop stop-color="#D1915E"/>
<stop offset="1" stop-color="#FACC98"/>
</linearGradient>
<linearGradient id="paint45_linear_114_6056" x1="1342.8" y1="539.641" x2="1353.45" y2="539.641" gradientUnits="userSpaceOnUse">
<stop stop-color="#D1915E"/>
<stop offset="1" stop-color="#FACC98"/>
</linearGradient>
<linearGradient id="paint46_linear_114_6056" x1="56.7459" y1="421.025" x2="64.3532" y2="421.025" gradientUnits="userSpaceOnUse">
<stop stop-color="#D1915E"/>
<stop offset="1" stop-color="#FACC98"/>
</linearGradient>
<linearGradient id="paint47_linear_114_6056" x1="165.8" y1="215.432" x2="170.945" y2="215.432" gradientUnits="userSpaceOnUse">
<stop stop-color="#D1915E"/>
<stop offset="1" stop-color="#FACC98"/>
</linearGradient>
</defs>
</svg>
