<svg width="140" height="227" viewBox="0 0 140 227" fill="none" xmlns="http://www.w3.org/2000/svg">
<path d="M7.90345 120.086C7.90345 120.086 9.86041 122.403 10.5328 123.628C10.8509 124.21 10.8511 125.002 10.5269 125.651C9.89657 126.929 9.12797 128.214 9.12797 128.214L-25.9004 148.319C-25.9004 148.319 -28.8481 148.049 -30.1448 147.532C-30.6791 147.322 -31.2975 146.86 -31.7837 146.242C-32.4621 145.383 -33.3144 144.026 -33.3144 144.026L-31.2013 102.352C-31.2013 102.352 -30.499 101.086 -28.9021 100.665C-28.3438 100.515 -27.7795 100.599 -26.951 100.707C-22.3406 101.296 7.90345 120.086 7.90345 120.086Z" fill="#B30000"/>
<path d="M9.24725 128.057C10.1717 126.364 9.61945 124.683 8.00459 124.317L-12.2862 119.719C-14.0391 119.323 -16.2003 120.463 -17.1008 122.252L-28.3747 144.728C-29.2151 146.397 -28.4889 147.988 -26.7599 148.276L-6.76319 151.68C-5.17235 151.95 -3.1914 150.893 -2.32694 149.309L9.24725 128.057Z" fill="url(#paint0_linear_506_4608)"/>
<g style="mix-blend-mode:plus-lighter">
<path d="M9.24725 128.057C10.1717 126.364 9.61945 124.683 8.00459 124.317L-12.2862 119.719C-14.0391 119.323 -16.2003 120.463 -17.1008 122.252L-28.3747 144.728C-29.2151 146.397 -28.4889 147.988 -26.7599 148.276L-6.76319 151.68C-5.17235 151.95 -3.1914 150.893 -2.32694 149.309L9.24725 128.057Z" fill="url(#paint1_linear_506_4608)"/>
</g>
<g style="mix-blend-mode:screen">
<path d="M-10.1012 127.211C-18.2596 130.578 -23.6144 138.803 -28.7291 146.043C-28.7231 145.628 -28.615 145.184 -28.3808 144.734L-17.1069 122.258C-16.2004 120.463 -14.0393 119.322 -12.2924 119.725L7.99844 124.323C9.6133 124.689 10.1596 126.364 9.2411 128.063C9.2411 128.063 -3.26962 124.389 -10.1012 127.211Z" fill="url(#paint2_linear_506_4608)"/>
</g>
<path d="M-0.62856 109.489C-1.92525 107.88 -3.68413 106.722 -5.64117 106.229L-25.6799 101.007C-27.889 100.454 -28.3392 101.505 -26.9165 103.252L-17.2813 116.117C-15.8826 117.827 -12.8148 118.83 -10.7197 119.268L7.89604 123.536C9.76303 123.927 10.2252 122.96 8.94653 121.37L-0.62856 109.489Z" fill="url(#paint3_linear_506_4608)"/>
<path d="M1.39628 119.173C2.99312 119.473 3.62346 118.807 2.81903 117.702C2.0146 116.598 0.0876574 115.475 -1.49118 115.181C-3.07602 114.881 -3.73044 115.523 -2.95002 116.628C-2.16361 117.726 -0.212577 118.873 1.39628 119.173Z" fill="url(#paint4_linear_506_4608)"/>
<path opacity="0.5" d="M-0.62856 109.489C-1.92525 107.88 -3.68413 106.722 -5.64117 106.229L-25.6799 101.007C-27.889 100.454 -28.3392 101.505 -26.9165 103.252L-17.2813 116.117C-15.8826 117.827 -12.8148 118.83 -10.7197 119.268L7.89604 123.536C9.76303 123.927 10.2252 122.96 8.94653 121.37L-0.62856 109.489Z" fill="url(#paint5_linear_506_4608)"/>
<path d="M22.7532 85.4508C22.7532 85.4508 -7.29277 81.1706 -8.79357 80.7264C-10.2944 80.2822 -13.3679 79.8738 -16.1834 76.518C-18.9989 73.1623 -30.5731 58.8267 -30.5731 58.8267L-12.9537 17.6508C-12.9537 17.6508 -11.9211 15.5858 -10.3543 14.6073C-8.94353 13.7368 -5.75003 14.4211 -5.75003 14.4211L42.5098 41.5976C42.5098 41.5976 44.1244 43.3804 44.9169 44.425C45.9554 45.7877 46.6639 48.3452 45.1391 51.2267C42.4437 56.3114 28.3903 82.4672 28.3903 82.4672L22.7532 85.4508Z" fill="#B30000"/>
<path d="M7.85985 45.0317C9.19256 42.7505 11.8039 41.5317 14.1871 41.994L42.8404 47.1508C45.1036 47.589 45.9679 49.738 44.7673 51.9712L28.6667 81.9992C27.382 84.4005 24.3807 86.0574 21.9734 85.6792L-7.91664 81.0147C-10.462 80.6185 -11.3626 78.2893 -9.9218 75.8159L7.85985 45.0317Z" fill="url(#paint6_linear_506_4608)"/>
<path d="M-13.8595 19.1221C-12.4487 16.3186 -10.2216 15.4241 -8.89485 17.1591L6.62937 37.4499C8.62844 40.0732 8.2023 42.3244 6.71951 44.8637L-11.308 75.8462C-12.5627 78.0013 -14.7418 78.2235 -15.9185 76.8307L-30.4943 59.4695C-31.7309 57.9927 -31.791 54.8951 -30.6084 52.5359L-13.8595 19.1221Z" fill="url(#paint7_linear_506_4608)"/>
<path d="M-8.31476 16.6711L5.26459 34.5003C6.67534 36.4394 9.56881 39.7414 13.0447 40.5638C13.0447 40.5638 32.9692 44.2196 40.179 45.4863C44.1531 46.1826 45.1857 44.9821 43.9731 43.3732L28.4307 24.4933C26.8819 22.4762 25.1531 21.4315 21.4791 20.7231L-5.53503 14.4919C-8.06837 13.8435 -9.37732 15.1162 -8.31476 16.6711Z" fill="url(#paint8_linear_506_4608)"/>
<path d="M29.1967 55.0706C30.5234 52.7714 33.2787 51.3007 35.3378 51.775C37.3789 52.2432 37.9612 54.4584 36.6525 56.7156C35.3438 58.9848 32.6243 60.4674 30.5652 60.0292C28.4821 59.5909 27.87 57.3698 29.1967 55.0706Z" fill="url(#paint9_linear_506_4608)"/>
<path d="M11.6779 51.191C13.0587 48.8137 15.9823 47.307 18.1794 47.8112C20.3646 48.3155 21.019 50.6147 19.6623 52.9559C18.3056 55.2972 15.4238 56.8219 13.2146 56.3536C10.9935 55.8854 10.2972 53.5682 11.6779 51.191Z" fill="url(#paint10_linear_506_4608)"/>
<path d="M18.1071 74.2249C19.4458 71.9136 22.2552 70.3648 24.3624 70.755C26.4515 71.1512 27.0758 73.3122 25.7551 75.5934C24.4344 77.8746 21.673 79.4356 19.5538 79.0814C17.4227 78.7152 16.7684 76.5361 18.1071 74.2249Z" fill="url(#paint11_linear_506_4608)"/>
<path d="M0.1448 71.0066C1.53754 68.6174 4.5151 67.0206 6.76629 67.4468C9.00548 67.873 9.70177 70.1181 8.33304 72.4713C6.95831 74.8306 4.0348 76.4335 1.76559 76.0493C-0.521619 75.6591 -1.25394 73.4019 0.1448 71.0066Z" fill="url(#paint12_linear_506_4608)"/>
<path d="M8.82024 30.4927C11.0174 30.9129 13.755 32.4737 14.9676 33.9865C16.1742 35.5053 15.3877 36.4118 13.1905 36.0036C10.9814 35.5954 8.18991 34.0166 6.98327 32.4857C5.78263 30.9609 6.61107 30.0725 8.82024 30.4927Z" fill="url(#paint13_linear_506_4608)"/>
<path d="M19.5124 32.5406C21.6375 32.9488 24.333 34.4796 25.5396 35.9744C26.7522 37.4752 26.0198 38.3756 23.8827 37.9793C21.7336 37.5831 19.0083 36.0344 17.7956 34.5216C16.595 33.0208 17.3693 32.1384 19.5124 32.5406Z" fill="url(#paint14_linear_506_4608)"/>
<path d="M29.8727 34.5319C31.9378 34.9281 34.5793 36.441 35.786 37.9118C36.9986 39.3886 36.3142 40.2891 34.2491 39.9048C32.172 39.5206 29.4886 37.9897 28.2759 36.5009C27.0753 35.0122 27.7956 34.1357 29.8727 34.5319Z" fill="url(#paint15_linear_506_4608)"/>
<path d="M0.524344 20.0235C2.71551 20.4737 5.42891 22.0224 6.59953 23.4932C7.77615 24.97 6.95976 25.8224 4.7686 25.3842C2.55943 24.952 -0.202056 23.3791 -1.36667 21.8903C-2.53729 20.4075 -1.67882 19.5733 0.524344 20.0235Z" fill="url(#paint16_linear_506_4608)"/>
<path d="M11.1927 22.2036C13.3179 22.6358 15.9834 24.1606 17.16 25.6134C18.3427 27.0721 17.5803 27.9187 15.4551 27.4985C13.312 27.0723 10.6106 25.5355 9.434 24.0587C8.25738 22.5939 9.06162 21.7654 11.1927 22.2036Z" fill="url(#paint17_linear_506_4608)"/>
<path d="M21.5536 24.3159C23.6187 24.7361 26.2301 26.2309 27.4067 27.6716C28.5834 29.1124 27.875 29.9529 25.8099 29.5447C23.7328 29.1365 21.0795 27.6117 19.8969 26.165C18.7263 24.7182 19.4705 23.8897 21.5536 24.3159Z" fill="url(#paint18_linear_506_4608)"/>
<g style="mix-blend-mode:plus-lighter">
<path d="M-13.8595 19.1221C-12.4487 16.3186 -10.2216 15.4241 -8.89485 17.1591L6.62937 37.4499C8.62844 40.0732 8.2023 42.3244 6.71951 44.8637L-11.308 75.8462C-12.5627 78.0013 -14.7418 78.2235 -15.9185 76.8307L-30.4943 59.4695C-31.7309 57.9927 -31.791 54.8951 -30.6084 52.5359L-13.8595 19.1221Z" fill="url(#paint19_linear_506_4608)"/>
</g>
<path opacity="0.5" d="M-8.31476 16.6711L5.26459 34.5003C6.67534 36.4394 9.56881 39.7414 13.0447 40.5638C13.0447 40.5638 32.9692 44.2196 40.179 45.4863C44.1531 46.1826 45.1857 44.9821 43.9731 43.3732L28.4307 24.4933C26.8819 22.4762 25.1531 21.4315 21.4791 20.7231L-5.53503 14.4919C-8.06837 13.8435 -9.37732 15.1162 -8.31476 16.6711Z" fill="url(#paint20_linear_506_4608)"/>
<path opacity="0.8" d="M6.18408 81.6685C6.18408 81.6685 18.7008 84.5559 22.0326 84.814C25.3643 85.0722 26.6671 83.4454 28.48 80.3957C30.293 77.3461 36.2601 65.9042 36.2601 65.9042C36.2601 65.9042 28.0356 78.4868 26.4327 80.0896C24.8299 81.6925 23.4072 83.1872 19.6852 83.0071C16.7016 82.857 6.18408 81.6685 6.18408 81.6685Z" fill="white"/>
<path opacity="0.8" d="M5.20511 51.1421C5.20511 51.1421 7.72053 46.2736 8.63302 45.0369C10.0858 43.0558 10.7401 42.6776 13.7537 42.8577C16.2931 43.0078 19.0845 43.9503 19.0845 43.9503C19.0845 43.9503 15.7407 43.56 13.0933 43.6981C11.0402 43.8061 9.82765 45.0909 9.38341 45.5832C7.20426 47.9545 5.20511 51.1421 5.20511 51.1421Z" fill="white"/>
<path d="M100.34 106.957C100.34 106.957 104.303 107.071 105.544 108.167C106.78 109.268 108.891 114.811 108.891 114.811L107.638 163.064C107.638 163.064 103.662 170.243 102.026 172.133C101.134 173.161 99.9958 173.96 98.5939 173.96C94.6433 173.96 46.2802 138.545 46.2802 138.545C46.2802 138.545 45.4391 136.616 46.2632 134.917C46.9344 133.532 52.8561 125.571 52.8561 125.571L100.34 106.957Z" fill="#B30000"/>
<path d="M86.7792 143.726C85.6918 141.509 82.6418 139.47 79.991 139.181L48.9256 135.795C46.4278 135.523 45.3956 137.057 46.5935 139.206L61.3806 165.718C62.4639 167.659 65.2632 169.49 67.6548 169.826L97.3439 173.933C100.262 174.303 100.844 171.784 99.8672 169.796L86.7792 143.726Z" fill="url(#paint21_linear_506_4608)"/>
<path d="M81.7236 146.13C79.4764 144.409 76.7111 143.802 75.5471 144.77C74.3874 145.743 75.2625 147.927 77.5181 149.647C79.7653 151.367 82.5306 151.975 83.6946 151.006C84.8585 150.038 83.975 147.854 81.7236 146.13Z" fill="url(#paint22_linear_506_4608)"/>
<path d="M103.024 110.541C104.311 108.668 103.342 106.994 100.866 106.803L71.6738 104.543C69.3077 104.36 66.3723 105.69 65.1107 107.512L48.6753 131.271C47.4052 133.111 48.2675 134.789 50.6081 135.022L79.7875 138.28C82.2343 138.527 84.9955 136.828 86.2869 134.942L103.024 110.541Z" fill="url(#paint23_linear_506_4608)"/>
<path d="M118.499 144.3C119.931 142.027 120.971 140.604 119.264 136.679L108.928 114.763C107.093 110.55 105.343 108.604 103.818 110.962L88.0327 134.036C86.0744 137.023 86.2698 140.158 88.2451 144.24L99.3238 166.737C101.167 170.535 103.376 170.229 104.833 167.914L118.499 144.3Z" fill="url(#paint24_linear_506_4608)"/>
<path d="M70.2845 160.195C68.1053 158.39 65.3612 157.676 64.1632 158.611C62.9653 159.537 63.764 161.754 65.9475 163.555C68.1309 165.357 70.8751 166.07 72.0688 165.14C73.2667 164.214 72.4679 161.996 70.2845 160.195Z" fill="url(#paint25_linear_506_4608)"/>
<path d="M65.034 130.154C66.2404 128.327 65.5267 126.568 63.4367 126.229C61.3467 125.889 58.6833 127.091 57.4769 128.909C56.2747 130.732 56.9882 132.482 59.0697 132.83C61.1555 133.174 63.8318 131.976 65.034 130.154Z" fill="url(#paint26_linear_506_4608)"/>
<path d="M71.0022 121.144C72.2171 119.309 71.495 117.55 69.3965 117.21C67.3022 116.875 64.6218 118.085 63.4111 119.916C62.2047 121.743 62.9184 123.501 65.0084 123.841C67.1026 124.185 69.7872 122.979 71.0022 121.144Z" fill="url(#paint27_linear_506_4608)"/>
<path d="M76.9924 112.096C78.2115 110.257 77.4892 108.489 75.3823 108.158C73.2753 107.827 70.5864 109.046 69.3758 110.885C68.1608 112.72 68.8829 114.479 70.9814 114.81C73.0842 115.155 75.7732 113.935 76.9924 112.096Z" fill="url(#paint28_linear_506_4608)"/>
<path d="M81.4563 131.598C82.6755 129.767 81.9535 128 79.8465 127.651C77.7352 127.307 75.0462 128.51 73.8313 130.345C72.6164 132.171 73.3343 133.934 75.4413 134.282C77.5397 134.631 80.2371 133.429 81.4563 131.598Z" fill="url(#paint29_linear_506_4608)"/>
<path d="M87.4809 122.551C88.7086 120.711 87.9822 118.94 85.8667 118.6C83.7512 118.26 81.0452 119.479 79.8261 121.31C78.6112 123.145 79.3291 124.908 81.4403 125.252C83.5516 125.605 86.2575 124.394 87.4809 122.551Z" fill="url(#paint30_linear_506_4608)"/>
<path d="M93.5297 113.468C94.7616 111.616 94.0309 109.849 91.9026 109.513C89.7787 109.182 87.06 110.405 85.8366 112.249C84.6132 114.092 85.3353 115.86 87.455 116.195C89.5833 116.539 92.3021 115.316 93.5297 113.468Z" fill="url(#paint31_linear_506_4608)"/>
<path d="M113.912 142.72C115.046 140.889 115.284 137.907 114.438 136.025C113.589 134.13 111.953 134.058 110.789 135.885C109.617 137.728 109.375 140.782 110.258 142.677C111.125 144.555 112.765 144.563 113.912 142.72Z" fill="url(#paint32_linear_506_4608)"/>
<path d="M97.0975 143C98.2615 141.224 98.4865 138.323 97.6071 136.5C96.7193 134.661 95.0287 134.593 93.8351 136.373C92.6286 138.166 92.3992 141.131 93.321 142.97C94.2301 144.788 95.9251 144.792 97.0975 143Z" fill="url(#paint33_linear_506_4608)"/>
<path d="M106.192 143.097C107.39 141.211 107.636 138.135 106.732 136.202C105.827 134.253 104.089 134.181 102.862 136.062C101.621 137.965 101.375 141.109 102.314 143.059C103.244 144.992 104.981 144.996 106.192 143.097Z" fill="url(#paint34_linear_506_4608)"/>
<path opacity="0.5" d="M118.499 144.3C119.931 142.027 120.971 140.604 119.264 136.679L108.928 114.763C107.093 110.55 105.343 108.604 103.818 110.962L88.0327 134.036C86.0744 137.023 86.2698 140.158 88.2451 144.24L99.3238 166.737C101.167 170.535 103.376 170.229 104.833 167.914L118.499 144.3Z" fill="url(#paint35_linear_506_4608)"/>
<path opacity="0.8" d="M79.8511 170.586C79.8511 170.586 69.9322 169.86 66.9926 169.231C63.9511 168.577 62.4897 166.784 60.8032 163.781C59.1848 160.897 53.8451 151.003 53.8451 151.003C53.8451 151.003 60.8671 161.755 62.2137 163.382C63.5645 165.013 65.115 167.269 68.6153 168.22C71.2746 168.942 79.8511 170.586 79.8511 170.586Z" fill="white"/>
<path opacity="0.8" d="M89.3529 150.548C89.3529 150.548 86.868 145.013 86.1374 143.789C84.9649 141.827 82.947 140.497 80.7848 140.043C78.4654 139.558 74.1792 139.24 74.1792 139.24C74.1792 139.24 78.3634 140.306 80.4916 140.913C82.348 141.444 83.4992 142.06 84.9648 143.976C87.2205 146.912 89.3529 150.548 89.3529 150.548Z" fill="white"/>
<defs>
<linearGradient id="paint0_linear_506_4608" x1="-21.7857" y1="129.703" x2="2.30095" y2="142.583" gradientUnits="userSpaceOnUse">
<stop stop-color="#BB0000"/>
<stop offset="1" stop-color="#800000"/>
</linearGradient>
<linearGradient id="paint1_linear_506_4608" x1="-22.4322" y1="131.417" x2="3.28548" y2="141.078" gradientUnits="userSpaceOnUse">
<stop stop-color="#AA1D1D"/>
<stop offset="0.0386" stop-color="#991A1A"/>
<stop offset="0.1411" stop-color="#701313"/>
<stop offset="0.2501" stop-color="#4E0D0D"/>
<stop offset="0.3651" stop-color="#310808"/>
<stop offset="0.4879" stop-color="#1B0505"/>
<stop offset="0.6224" stop-color="#0C0202"/>
<stop offset="0.7775" stop-color="#030000"/>
<stop offset="1"/>
</linearGradient>
<linearGradient id="paint2_linear_506_4608" x1="-24.1277" y1="108.344" x2="-3.80443" y2="146.732" gradientUnits="userSpaceOnUse">
<stop stop-color="#727272"/>
<stop offset="0.2297" stop-color="#515151"/>
<stop offset="0.5743" stop-color="#252525"/>
<stop offset="0.8427" stop-color="#0A0A0A"/>
<stop offset="1"/>
</linearGradient>
<linearGradient id="paint3_linear_506_4608" x1="-23.9486" y1="97.6788" x2="4.79366" y2="127.822" gradientUnits="userSpaceOnUse">
<stop stop-color="#8F0000"/>
<stop offset="1" stop-color="#6F0000"/>
</linearGradient>
<linearGradient id="paint4_linear_506_4608" x1="-0.860926" y1="115.308" x2="0.926791" y2="119.479" gradientUnits="userSpaceOnUse">
<stop stop-color="#A6A4A3"/>
<stop offset="0.9947" stop-color="#7F7D7C"/>
</linearGradient>
<linearGradient id="paint5_linear_506_4608" x1="-18.8223" y1="117.569" x2="0.664557" y2="106.947" gradientUnits="userSpaceOnUse">
<stop stop-color="white"/>
<stop offset="0.1876" stop-color="#DBC0C0"/>
<stop offset="0.4076" stop-color="#B57C7C"/>
<stop offset="0.6069" stop-color="#974747"/>
<stop offset="0.7783" stop-color="#812020"/>
<stop offset="0.915" stop-color="#740909"/>
<stop offset="1" stop-color="#6F0000"/>
</linearGradient>
<linearGradient id="paint6_linear_506_4608" x1="25.7883" y1="85.8282" x2="8.24259" y2="42.2108" gradientUnits="userSpaceOnUse">
<stop stop-color="#FF2522"/>
<stop offset="1" stop-color="#E00A09"/>
</linearGradient>
<linearGradient id="paint7_linear_506_4608" x1="5.47623" y1="42.8581" x2="-35.5177" y2="52.4003" gradientUnits="userSpaceOnUse">
<stop stop-color="#BB0000"/>
<stop offset="1" stop-color="#800000"/>
</linearGradient>
<linearGradient id="paint8_linear_506_4608" x1="24.1956" y1="44.5384" x2="11.8273" y2="16.2664" gradientUnits="userSpaceOnUse">
<stop stop-color="#8F0000"/>
<stop offset="1" stop-color="#6F0000"/>
</linearGradient>
<linearGradient id="paint9_linear_506_4608" x1="37.5422" y1="54.9194" x2="28.3538" y2="56.8632" gradientUnits="userSpaceOnUse">
<stop stop-color="#F3F5F4"/>
<stop offset="0.2093" stop-color="#EDEFEE"/>
<stop offset="0.5003" stop-color="#DDDDDC"/>
<stop offset="0.8378" stop-color="#C2C0BE"/>
<stop offset="0.9947" stop-color="#B3B0AE"/>
</linearGradient>
<linearGradient id="paint10_linear_506_4608" x1="20.2235" y1="49.4291" x2="11.2115" y2="54.6711" gradientUnits="userSpaceOnUse">
<stop stop-color="#F3F5F4"/>
<stop offset="0.2848" stop-color="#E5E5E4"/>
<stop offset="0.838" stop-color="#BFBDBB"/>
<stop offset="0.9947" stop-color="#B3B0AE"/>
</linearGradient>
<linearGradient id="paint11_linear_506_4608" x1="27.0229" y1="72.6507" x2="17.069" y2="77.0684" gradientUnits="userSpaceOnUse">
<stop stop-color="#F3F5F4"/>
<stop offset="0.2848" stop-color="#E5E5E4"/>
<stop offset="0.838" stop-color="#BFBDBB"/>
<stop offset="0.9947" stop-color="#B3B0AE"/>
</linearGradient>
<linearGradient id="paint12_linear_506_4608" x1="9.17769" y1="69.486" x2="-1.01269" y2="74.139" gradientUnits="userSpaceOnUse">
<stop stop-color="#F3F5F4"/>
<stop offset="0.2848" stop-color="#E5E5E4"/>
<stop offset="0.838" stop-color="#BFBDBB"/>
<stop offset="0.9947" stop-color="#B3B0AE"/>
</linearGradient>
<linearGradient id="paint13_linear_506_4608" x1="12.5591" y1="31.5876" x2="9.15823" y2="35.165" gradientUnits="userSpaceOnUse">
<stop stop-color="#A6A4A3"/>
<stop offset="0.9947" stop-color="#7F7D7C"/>
</linearGradient>
<linearGradient id="paint14_linear_506_4608" x1="23.2752" y1="33.5251" x2="20.1386" y2="36.927" gradientUnits="userSpaceOnUse">
<stop stop-color="#A6A4A3"/>
<stop offset="0.9947" stop-color="#7F7D7C"/>
</linearGradient>
<linearGradient id="paint15_linear_506_4608" x1="33.3102" y1="35.7026" x2="30.5049" y2="39.0373" gradientUnits="userSpaceOnUse">
<stop stop-color="#A6A4A3"/>
<stop offset="0.9947" stop-color="#7F7D7C"/>
</linearGradient>
<linearGradient id="paint16_linear_506_4608" x1="3.86451" y1="21.2996" x2="0.418696" y2="25.1873" gradientUnits="userSpaceOnUse">
<stop stop-color="#A6A4A3"/>
<stop offset="0.9947" stop-color="#7F7D7C"/>
</linearGradient>
<linearGradient id="paint17_linear_506_4608" x1="15.0079" y1="23.1839" x2="11.4294" y2="26.6736" gradientUnits="userSpaceOnUse">
<stop stop-color="#A6A4A3"/>
<stop offset="0.9947" stop-color="#7F7D7C"/>
</linearGradient>
<linearGradient id="paint18_linear_506_4608" x1="25.1178" y1="25.4295" x2="21.7608" y2="28.8753" gradientUnits="userSpaceOnUse">
<stop stop-color="#A6A4A3"/>
<stop offset="0.9947" stop-color="#7F7D7C"/>
</linearGradient>
<linearGradient id="paint19_linear_506_4608" x1="2.30899" y1="65.9932" x2="-27.8481" y2="28.062" gradientUnits="userSpaceOnUse">
<stop stop-color="#AA1D1D"/>
<stop offset="0.0386" stop-color="#991A1A"/>
<stop offset="0.1411" stop-color="#701313"/>
<stop offset="0.2501" stop-color="#4E0D0D"/>
<stop offset="0.3651" stop-color="#310808"/>
<stop offset="0.4879" stop-color="#1B0505"/>
<stop offset="0.6224" stop-color="#0C0202"/>
<stop offset="0.7775" stop-color="#030000"/>
<stop offset="1"/>
</linearGradient>
<linearGradient id="paint20_linear_506_4608" x1="18.968" y1="42.7674" x2="16.7596" y2="17.0577" gradientUnits="userSpaceOnUse">
<stop stop-color="white"/>
<stop offset="0.1251" stop-color="#EADADA"/>
<stop offset="0.4496" stop-color="#B67E7E"/>
<stop offset="0.7134" stop-color="#903A3A"/>
<stop offset="0.9031" stop-color="#781010"/>
<stop offset="1" stop-color="#6F0000"/>
</linearGradient>
<linearGradient id="paint21_linear_506_4608" x1="63.5921" y1="168.194" x2="83.244" y2="140.638" gradientUnits="userSpaceOnUse">
<stop stop-color="#FF2522"/>
<stop offset="1" stop-color="#E00A09"/>
</linearGradient>
<linearGradient id="paint22_linear_506_4608" x1="77.5547" y1="149.917" x2="81.6306" y2="145.924" gradientUnits="userSpaceOnUse">
<stop stop-color="#F3F5F4"/>
<stop offset="0.2848" stop-color="#E5E5E4"/>
<stop offset="0.838" stop-color="#BFBDBB"/>
<stop offset="0.9947" stop-color="#B3B0AE"/>
</linearGradient>
<linearGradient id="paint23_linear_506_4608" x1="52.072" y1="138.873" x2="100.927" y2="102.533" gradientUnits="userSpaceOnUse">
<stop stop-color="#BB0000"/>
<stop offset="1" stop-color="#800000"/>
</linearGradient>
<linearGradient id="paint24_linear_506_4608" x1="87.5789" y1="143.653" x2="125.016" y2="134.76" gradientUnits="userSpaceOnUse">
<stop stop-color="#8F0000"/>
<stop offset="1" stop-color="#6F0000"/>
</linearGradient>
<linearGradient id="paint25_linear_506_4608" x1="65.936" y1="163.838" x2="70.3823" y2="159.831" gradientUnits="userSpaceOnUse">
<stop stop-color="#F3F5F4"/>
<stop offset="0.2848" stop-color="#E5E5E4"/>
<stop offset="0.838" stop-color="#BFBDBB"/>
<stop offset="0.9947" stop-color="#B3B0AE"/>
</linearGradient>
<linearGradient id="paint26_linear_506_4608" x1="58.8459" y1="132.576" x2="64.2803" y2="125.714" gradientUnits="userSpaceOnUse">
<stop stop-color="#C5C3C2"/>
<stop offset="0.3134" stop-color="#B8B6B5"/>
<stop offset="0.8959" stop-color="#959392"/>
<stop offset="0.9947" stop-color="#8E8C8B"/>
</linearGradient>
<linearGradient id="paint27_linear_506_4608" x1="64.7654" y1="123.787" x2="69.7062" y2="117.2" gradientUnits="userSpaceOnUse">
<stop stop-color="#C5C3C2"/>
<stop offset="0.3134" stop-color="#B8B6B5"/>
<stop offset="0.8959" stop-color="#959392"/>
<stop offset="0.9947" stop-color="#8E8C8B"/>
</linearGradient>
<linearGradient id="paint28_linear_506_4608" x1="70.7801" y1="114.522" x2="76.2693" y2="107.605" gradientUnits="userSpaceOnUse">
<stop stop-color="#C5C3C2"/>
<stop offset="0.3134" stop-color="#B8B6B5"/>
<stop offset="0.8959" stop-color="#959392"/>
<stop offset="0.9947" stop-color="#8E8C8B"/>
</linearGradient>
<linearGradient id="paint29_linear_506_4608" x1="75.3096" y1="134.333" x2="80.0308" y2="127.526" gradientUnits="userSpaceOnUse">
<stop stop-color="#C5C3C2"/>
<stop offset="0.3134" stop-color="#B8B6B5"/>
<stop offset="0.8959" stop-color="#959392"/>
<stop offset="0.9947" stop-color="#8E8C8B"/>
</linearGradient>
<linearGradient id="paint30_linear_506_4608" x1="80.8728" y1="125.345" x2="86.1972" y2="118.812" gradientUnits="userSpaceOnUse">
<stop stop-color="#C5C3C2"/>
<stop offset="0.3134" stop-color="#B8B6B5"/>
<stop offset="0.8959" stop-color="#959392"/>
<stop offset="0.9947" stop-color="#8E8C8B"/>
</linearGradient>
<linearGradient id="paint31_linear_506_4608" x1="87.0689" y1="116.113" x2="92.5034" y2="109.361" gradientUnits="userSpaceOnUse">
<stop stop-color="#C5C3C2"/>
<stop offset="0.3134" stop-color="#B8B6B5"/>
<stop offset="0.8959" stop-color="#959392"/>
<stop offset="0.9947" stop-color="#8E8C8B"/>
</linearGradient>
<linearGradient id="paint32_linear_506_4608" x1="109.827" y1="138.302" x2="114.822" y2="140.333" gradientUnits="userSpaceOnUse">
<stop stop-color="#A6A4A3"/>
<stop offset="0.9947" stop-color="#7F7D7C"/>
</linearGradient>
<linearGradient id="paint33_linear_506_4608" x1="92.8295" y1="139.459" x2="98.648" y2="140.008" gradientUnits="userSpaceOnUse">
<stop stop-color="#A6A4A3"/>
<stop offset="0.9947" stop-color="#7F7D7C"/>
</linearGradient>
<linearGradient id="paint34_linear_506_4608" x1="101.657" y1="138.654" x2="107.421" y2="140.575" gradientUnits="userSpaceOnUse">
<stop stop-color="#A6A4A3"/>
<stop offset="0.9947" stop-color="#7F7D7C"/>
</linearGradient>
<linearGradient id="paint35_linear_506_4608" x1="102.272" y1="104.274" x2="104.579" y2="175.745" gradientUnits="userSpaceOnUse">
<stop stop-color="white"/>
<stop offset="0.1251" stop-color="#EADADA"/>
<stop offset="0.4496" stop-color="#B67E7E"/>
<stop offset="0.7134" stop-color="#903A3A"/>
<stop offset="0.9031" stop-color="#781010"/>
<stop offset="1" stop-color="#6F0000"/>
</linearGradient>
</defs>
</svg>
