<svg width="159" height="218" viewBox="0 0 159 218" fill="none" xmlns="http://www.w3.org/2000/svg">
<path d="M170.509 90.8413C171.457 91.7687 171.636 93.2335 170.92 94.1187L131.539 142.478C130.822 143.364 129.473 143.321 128.524 142.394L59.099 74.3805C58.1506 73.4531 57.9714 71.9886 58.688 71.1034L98.0692 22.7434C98.7858 21.8582 100.135 21.9003 101.083 22.8276L170.509 90.8413Z" fill="url(#paint0_linear_506_4442)"/>
<path d="M169.9 90.894C170.838 91.8108 171.027 93.2649 170.311 94.1395L131.488 141.815C130.782 142.689 129.444 142.647 128.506 141.73L59.7019 74.328C58.764 73.4112 58.5743 71.9568 59.2909 71.0927L98.1135 23.4177C98.8195 22.543 100.158 22.5855 101.096 23.5023L169.9 90.894Z" fill="url(#paint1_linear_506_4442)"/>
<path d="M107.957 65.8973C104.901 70.1547 108.073 76.0879 108.073 76.0879L108.094 76.0985C108.094 76.0985 102.361 73.3057 98.8415 77.1205C95.3217 80.9353 96.7127 87.9326 101.286 91.0098C105.86 94.0869 112.994 92.8961 117.526 92.5062C122.057 92.1057 125.619 93.2861 125.619 93.2861L125.609 93.2758C125.609 93.2758 124.144 89.5241 123.996 84.5395C123.849 79.5549 124.123 71.6514 120.824 67.0146C117.526 62.3777 111.013 61.6399 107.957 65.8973Z" fill="url(#paint2_linear_506_4442)"/>
<path d="M127.567 95.1093C127.641 95.0144 127.662 94.8775 127.62 94.751C127.609 94.7089 126.176 90.6199 125.913 85.1927L125.839 83.6015C125.533 77.0783 125.165 68.964 121.782 65.2651C119.548 62.8202 116.397 61.3029 113.341 61.1975C110.654 61.1132 108.377 62.1247 106.934 64.127C104.215 67.868 105.089 71.9359 105.658 73.6431C104.046 73.2216 100.273 72.7155 97.1855 76.1088C95.5415 77.9003 94.8672 80.5138 95.2465 83.4223C95.6786 86.7419 97.4174 90.0089 99.8728 92.1692C103.624 95.4466 110.685 94.9828 116.902 94.5613L118.23 94.477C123.173 94.1609 127.209 95.2148 127.241 95.2254C127.378 95.2359 127.494 95.2041 127.567 95.1093ZM97.6914 76.6568C101.074 72.9474 105.321 74.2437 106.132 74.5388C106.259 74.5809 106.396 74.5493 106.48 74.4545C106.565 74.3491 106.575 74.2014 106.522 74.0644C106.164 73.2108 104.51 68.7216 107.492 64.6222C108.82 62.8096 110.917 61.8506 113.393 61.9349C116.27 62.0298 119.231 63.4524 121.318 65.7497C124.48 69.2168 124.848 77.1629 125.143 83.549L125.217 85.1506C125.438 89.545 126.377 93.0229 126.787 94.3612C125.491 94.0872 122.098 93.4761 118.125 93.729L116.787 93.8132C111.001 94.2031 103.793 94.6877 100.263 91.6C97.9445 89.5766 96.3214 86.5101 95.9209 83.3908C95.5837 80.8406 96.1319 78.5537 97.4492 76.9308C97.5335 76.836 97.607 76.7411 97.6914 76.6568Z" fill="url(#paint3_linear_506_4442)"/>
<path d="M76.1028 77.9111C75.4494 78.8174 76.1237 80.0819 76.1237 80.0819C76.1237 80.0819 74.9015 79.4917 74.1532 80.3032C73.405 81.1146 73.6999 82.6005 74.6694 83.2539C75.6389 83.9072 77.1565 83.6543 78.126 83.57C79.0955 83.4857 79.8542 83.7385 79.8542 83.7385C79.8542 83.7385 79.5488 82.9377 79.5066 81.8838C79.475 80.8195 79.5277 79.1439 78.8322 78.1533C78.1367 77.1522 76.7561 76.9943 76.1028 77.9111Z" fill="url(#paint4_linear_506_4442)"/>
<path d="M80.2738 84.1181C80.2948 84.097 80.2949 84.0655 80.2844 84.0445C80.2844 84.0445 79.9785 83.1699 79.9258 82.0107L79.9049 81.6733C79.8416 80.2823 79.7573 78.554 79.0407 77.7742C78.5665 77.2578 77.8922 76.9311 77.2388 76.9101C76.6697 76.889 76.185 77.1102 75.8794 77.5317C75.2998 78.3326 75.4895 79.1969 75.6054 79.5552C75.2576 79.4604 74.4565 79.3549 73.8032 80.082C73.4554 80.4614 73.3078 81.02 73.3921 81.6418C73.487 82.3478 73.8558 83.0434 74.3827 83.5071C75.1836 84.2026 76.6803 84.1075 78.0081 84.0126L78.2924 83.9917C79.3462 83.9285 80.2104 84.1496 80.2104 84.1496C80.2315 84.1496 80.2632 84.1392 80.2738 84.1181ZM73.9193 80.1978C74.6358 79.4074 75.542 79.6814 75.7212 79.7447C75.7528 79.7552 75.7737 79.7448 75.7948 79.7238C75.8159 79.7027 75.816 79.6711 75.8054 79.6395C75.7317 79.4603 75.3733 78.5013 76.0161 77.6266C76.3006 77.2367 76.7434 77.0366 77.2703 77.0577C77.8815 77.0788 78.5139 77.3843 78.9565 77.8691C79.6309 78.6068 79.7046 80.2926 79.7679 81.6521L79.7785 81.9894C79.8312 82.9273 80.0207 83.665 80.1155 83.9496C79.8415 83.8864 79.1145 83.7599 78.2715 83.8126L77.9869 83.8335C76.7539 83.9178 75.226 84.0234 74.4673 83.3701C73.972 82.938 73.6346 82.2845 73.5398 81.6206C73.466 81.0831 73.582 80.5878 73.8665 80.2505C73.8876 80.2295 73.8982 80.2083 73.9193 80.1978Z" fill="url(#paint5_linear_506_4442)"/>
<path d="M75.4441 74.2435L75.2228 74.0328C75.0753 74.1487 74.9276 74.2121 74.7906 74.2332C74.6536 74.2542 74.4958 74.233 74.3272 74.1698C74.1586 74.1066 73.916 74.0012 73.6209 73.8537L66.6657 70.3762L66.0125 71.2191L69.9959 78.2693C70.2277 78.6697 70.3752 79.0173 70.4384 79.2913C70.5122 79.5653 70.4807 79.8079 70.3647 80.0082L70.5966 80.1976L72.23 78.1953L72.0088 77.9953C71.8191 78.1744 71.6397 78.2691 71.4817 78.2902C71.313 78.3112 71.1446 78.2376 70.9549 78.0795C70.86 77.9952 70.765 77.8898 70.6596 77.7634C70.5543 77.6369 70.4279 77.4262 70.2593 77.1311L69.9222 76.5516L71.7663 74.2541L72.5249 74.6336C72.7146 74.7284 72.8833 74.8127 73.0308 74.9076C73.1678 74.9919 73.2943 75.0867 73.3997 75.1816C73.5051 75.287 73.5787 75.3817 73.6103 75.4871C73.6419 75.5819 73.642 75.6978 73.6209 75.8032C73.5893 75.9191 73.526 76.0667 73.4312 76.2564L73.6525 76.4567L75.4441 74.2435ZM67.2243 71.9569L71.2604 73.9698L69.5955 76.0457L67.2243 71.9569Z" fill="url(#paint6_linear_506_4442)"/>
<path d="M153.504 87.3318C154.158 86.4255 153.483 85.161 153.483 85.161C153.483 85.161 154.706 85.7512 155.454 84.9397C156.202 84.1283 155.907 82.6424 154.937 81.989C153.968 81.3357 152.45 81.5886 151.481 81.6729C150.511 81.7572 149.763 81.5044 149.763 81.5044C149.763 81.5044 150.069 82.3052 150.111 83.3591C150.143 84.4234 150.079 86.099 150.785 87.0896C151.47 88.0802 152.851 88.2381 153.504 87.3318Z" fill="url(#paint7_linear_506_4442)"/>
<path d="M149.331 81.1143C149.32 81.1354 149.31 81.1672 149.321 81.1882C149.321 81.1882 149.626 82.0628 149.689 83.222L149.71 83.5591C149.774 84.9501 149.858 86.6787 150.574 87.4585C151.049 87.9749 151.723 88.3016 152.366 88.3226C152.935 88.3437 153.42 88.1222 153.725 87.7007C154.305 86.8998 154.115 86.0358 153.999 85.6775C154.337 85.7723 155.148 85.8775 155.801 85.1504C156.149 84.771 156.297 84.2127 156.212 83.5909C156.118 82.8849 155.749 82.1893 155.222 81.7256C154.421 81.0301 152.925 81.1249 151.597 81.2198L151.312 81.2407C150.258 81.3039 149.394 81.0828 149.394 81.0828C149.373 81.0828 149.341 81.0932 149.331 81.1143ZM155.686 85.0346C154.969 85.825 154.063 85.551 153.883 85.4877C153.852 85.4772 153.831 85.4876 153.81 85.5086C153.789 85.5297 153.789 85.5616 153.799 85.5932C153.873 85.7724 154.231 86.7311 153.588 87.6058C153.304 87.9957 152.861 88.1961 152.334 88.175C151.723 88.1539 151.091 87.8484 150.648 87.3636C149.974 86.6259 149.9 84.9397 149.837 83.5803L149.816 83.243C149.774 82.3051 149.573 81.5677 149.478 81.2831C149.752 81.3463 150.48 81.4728 151.323 81.4201L151.607 81.3989C152.84 81.3146 154.368 81.2094 155.127 81.8733C155.622 82.3053 155.959 82.9585 156.054 83.6224C156.128 84.1599 156.012 84.6552 155.728 84.9925C155.728 84.9925 155.707 85.0241 155.686 85.0346Z" fill="url(#paint8_linear_506_4442)"/>
<path d="M154.157 90.989L154.378 91.1997C154.525 91.0837 154.673 91.0207 154.81 90.9996C154.947 90.9786 155.105 90.9994 155.274 91.0627C155.443 91.1259 155.685 91.2313 155.99 91.3788L162.946 94.8566L163.599 94.0133L159.616 86.9632C159.384 86.5628 159.236 86.2152 159.173 85.9412C159.099 85.6672 159.131 85.4249 159.247 85.2247L159.015 85.0349L157.381 87.0372L157.603 87.2372C157.792 87.0581 157.972 86.9634 158.13 86.9423C158.298 86.9212 158.467 86.9949 158.657 87.153C158.751 87.2373 158.857 87.3426 158.952 87.4691C159.047 87.5956 159.184 87.8063 159.352 88.1014L159.689 88.6812L157.845 90.9784L157.086 90.5989C156.897 90.5041 156.728 90.4198 156.581 90.3249C156.444 90.2406 156.317 90.1458 156.212 90.0509C156.106 89.9455 156.033 89.8508 156.001 89.7454C155.969 89.6505 155.959 89.5346 155.99 89.4293C156.022 89.3133 156.085 89.1658 156.18 88.9761L155.959 88.7761L154.157 90.989ZM162.376 93.2759L158.34 91.263L160.005 89.1871L162.376 93.2759Z" fill="url(#paint9_linear_506_4442)"/>
<path d="M61.7002 4.7981C61.8267 3.73374 61.2258 3.24902 60.3511 3.7127L12.6765 28.8567C11.8018 29.3204 11.001 30.543 10.8745 31.6073L1.68512 109.421C1.55866 110.486 2.15924 110.971 3.03391 110.507L50.7089 85.3625C51.5836 84.9094 52.3844 83.6765 52.5108 82.6122L61.7002 4.7981Z" fill="url(#paint10_linear_506_4442)"/>
<path d="M61.2993 5.33554C61.4258 4.28172 60.825 3.797 59.9715 4.25014L12.9709 29.0359C12.1173 29.489 11.3166 30.7115 11.1902 31.7653L2.0744 108.884C1.94794 109.938 2.54869 110.423 3.40229 109.969L50.4026 85.1834C51.2562 84.7303 52.0571 83.5079 52.1836 82.4646L61.2993 5.33554Z" fill="url(#paint11_linear_506_4442)"/>
<path d="M9.54601 95.785L9.51449 96.0272C9.66203 95.9745 9.77776 95.9535 9.85153 95.9535C9.9253 95.9535 9.97807 95.9745 9.99914 96.0272C10.0308 96.0798 10.0306 96.1644 10.02 96.2909C9.99897 96.4068 9.97819 96.5332 9.9255 96.6913C9.88335 96.8388 9.81981 97.0075 9.74604 97.2077L9.47204 97.977L7.22759 99.1467L7.15395 98.7144C7.11179 98.5037 7.09059 98.3351 7.09059 98.2192C7.09059 98.1033 7.09042 97.9875 7.1115 97.8821C7.14311 97.6819 7.21716 97.5026 7.33308 97.355C7.43846 97.2075 7.59628 97.0707 7.7965 96.9337L7.83863 96.6913L5.85758 97.7345L5.81545 97.977C5.98406 97.9138 6.11038 97.9451 6.20523 98.0716C6.30007 98.198 6.37387 98.4091 6.4371 98.7042L7.44885 103.857L8.26025 103.446L10.8105 96.3751C10.9159 96.0695 11.0109 95.8272 11.0952 95.6586C11.1689 95.49 11.2531 95.3423 11.3479 95.2264C11.4428 95.1104 11.5587 94.9946 11.7062 94.8787L11.738 94.6362L9.54601 95.785ZM7.28034 99.5365L9.30352 98.4826L7.81773 102.582L7.28034 99.5365Z" fill="url(#paint12_linear_506_4442)"/>
<path d="M53.8194 18.445L53.8512 18.2028C53.7037 18.2555 53.5876 18.2765 53.5138 18.2765C53.4401 18.2765 53.3873 18.2555 53.3662 18.2028C53.3346 18.1501 53.3348 18.0659 53.3453 17.9394C53.3559 17.8235 53.3874 17.6968 53.4296 17.5387C53.4717 17.3912 53.5349 17.2228 53.6087 17.0225L53.8827 16.2533L56.1272 15.0833L56.2011 15.5155C56.2433 15.7263 56.2642 15.8949 56.2642 16.0108C56.2642 16.1267 56.2538 16.2428 56.2433 16.3481C56.2116 16.5484 56.1379 16.7274 56.022 16.8749C55.9166 17.0225 55.7585 17.1595 55.5582 17.2965L55.5161 17.5387L57.4972 16.4954L57.5393 16.2533C57.3707 16.3165 57.2444 16.2849 57.1495 16.1584C57.0547 16.0319 56.981 15.8212 56.9283 15.5261L55.9165 10.3728L55.1051 10.7838L52.5548 17.8548C52.4389 18.1604 52.3545 18.4031 52.2702 18.5717C52.1964 18.7403 52.1123 18.8877 52.0174 19.0036C51.9226 19.1195 51.8067 19.2356 51.6592 19.3516L51.6273 19.5937L53.8194 18.445ZM56.085 14.6935L54.0512 15.7474L55.537 11.6479L56.085 14.6935Z" fill="url(#paint13_linear_506_4442)"/>
<path d="M43.1412 48.8792C42.1506 53.1472 39.4847 56.7408 36.6288 60.5135C33.773 64.2861 30.1055 70.5985 30.1055 70.5985C30.1055 70.5985 27.4921 67.5953 25.2053 66.5309C22.9185 65.4666 20.8003 64.3917 20.7582 60.6823C20.7055 56.9728 23.9512 52.3148 26.6595 50.4811C29.3679 48.658 30.9804 49.5012 32.0869 51.3559C31.8234 48.2893 30.5799 46.5715 29.4944 45.6336L29.6208 45.3596C31.5915 45.2121 33.1617 44.3164 33.1617 44.3164V44.327C33.541 44.1478 35.0902 43.3995 37.0292 41.45L37.1029 41.5236C35.6486 43.7998 33.7517 47.1828 32.6558 51.0398C34.3735 47.6991 36.418 44.9169 39.0209 43.9369C41.6344 42.9884 44.1318 44.6218 43.1412 48.8792Z" fill="url(#paint14_linear_506_4442)"/>
<path d="M39.4942 38.5519C39.4731 38.5625 39.4518 38.5835 39.4202 38.594C36.0374 41.3656 34.5831 42.1347 33.4133 42.7459C32.2436 43.3571 30.7894 44.1265 27.6596 44.8009C27.5647 44.822 27.4385 44.9273 27.3647 45.0643C27.2909 45.2013 27.2908 45.3384 27.3435 45.3911C28.0917 46.1393 28.6187 46.7506 29.1772 47.404C29.3774 47.6358 29.5775 47.8675 29.7883 48.1099C28.7344 48.1099 27.4804 48.5211 26.1526 49.3641C24.5086 50.3969 22.77 52.2937 21.4948 54.4435C20.5464 56.0453 19.4081 58.5322 19.3871 61.2405C19.3555 65.656 21.8846 66.8257 24.3294 67.9639C26.7111 69.0704 29.3984 72.1372 29.704 72.4849C29.7462 72.5271 29.8094 72.5272 29.8831 72.4955L29.9359 72.4637C30.0096 72.4215 30.0938 72.3479 30.1465 72.2531C30.5681 71.5259 34.3829 65.0344 37.3652 61.0826C40.3896 57.0886 43.5089 52.968 44.5838 47.9729C45.2266 44.9906 44.584 43.5049 43.9306 42.7777C43.0244 41.7766 41.4963 41.5867 39.8418 42.2928C38.4508 42.8829 37.0914 43.9262 36.0797 44.8852C36.417 44.3161 36.7226 43.7787 37.0387 43.2518C37.8396 41.8924 38.5878 40.6069 39.6206 38.9208C39.7049 38.7838 39.7257 38.6466 39.6836 38.5728C39.652 38.5096 39.5785 38.5098 39.4942 38.5519ZM30.6736 48.8898C30.7369 48.8581 30.8107 48.7949 30.8634 48.7106C30.9582 48.5631 30.9896 48.3946 30.9264 48.3208C30.4311 47.7834 30.0202 47.3196 29.6197 46.856C29.1666 46.329 28.745 45.8337 28.197 45.2647C30.9053 44.6218 32.307 43.8843 33.3503 43.3257C34.3936 42.7778 35.7951 42.04 38.7037 39.7216C37.9449 40.9756 37.3336 42.0188 36.6908 43.1148C36.1217 44.0948 35.5422 45.0854 34.8467 46.2446C34.7519 46.3921 34.7414 46.5608 34.8152 46.6135C34.889 46.6767 35.0257 46.6135 35.1416 46.4765C36.0795 45.3173 37.9238 43.6628 39.7363 42.8935C41.2644 42.2401 42.666 42.4088 43.509 43.3467C44.1097 44.0211 44.7104 45.3911 44.1098 48.1626C43.077 52.9153 40.042 56.9305 37.1124 60.8086C34.3619 64.4548 30.9266 70.1982 29.9992 71.7684C29.3459 71.0307 26.9008 68.375 24.6983 67.3528C22.2113 66.1936 19.8507 65.0977 19.8823 60.9035C19.9034 58.3743 20.9572 56.077 21.8319 54.5911C23.0122 52.5994 24.6142 50.85 26.1317 49.9121C26.353 49.7751 26.5741 49.6486 26.7848 49.5326C28.218 48.7739 29.5881 48.5527 30.526 48.911C30.5682 48.9215 30.6209 48.9214 30.6736 48.8898Z" fill="url(#paint15_linear_506_4442)"/>
<path d="M11.6845 89.9364C11.4738 90.8111 10.9255 91.5593 10.3354 92.3391C9.74526 93.119 8.98661 94.4257 8.98661 94.4257C8.98661 94.4257 8.44907 93.8037 7.97486 93.5824C7.50064 93.3611 7.06883 93.1399 7.05829 92.3706C7.04776 91.6014 7.72217 90.6422 8.2807 90.2629C8.83922 89.8835 9.17631 90.0626 9.39762 90.442C9.34492 89.8097 9.08152 89.4514 8.86022 89.2617L8.88112 89.2093C9.28158 89.1777 9.60826 88.9983 9.60826 88.9983C9.68203 88.9667 10.0089 88.8087 10.4094 88.4082L10.42 88.4188C10.1249 88.8825 9.73494 89.5886 9.5031 90.379C9.8614 89.6834 10.2829 89.1143 10.8204 88.9141C11.3789 88.7244 11.8953 89.0618 11.6845 89.9364Z" fill="url(#paint16_linear_506_4442)"/>
<path d="M10.9359 87.8074L10.9253 87.818C10.2298 88.3871 9.92435 88.5451 9.68197 88.6716C9.43959 88.798 9.14445 88.9562 8.49108 89.0932C8.47 89.0932 8.4488 89.1248 8.42773 89.1459C8.41719 89.1775 8.40665 89.1987 8.42773 89.2093C8.5858 89.3673 8.69129 89.4938 8.80721 89.6203C8.84937 89.673 8.89145 89.7149 8.9336 89.7676C8.7123 89.7676 8.45955 89.8521 8.18556 90.0313C7.84834 90.242 7.49 90.6319 7.22655 91.0745C7.02632 91.4012 6.79432 91.9176 6.79432 92.4761C6.78378 93.3824 7.31085 93.6246 7.81669 93.867C8.31198 94.0988 8.86008 94.731 8.92331 94.8048C8.92331 94.8048 8.94437 94.8153 8.96544 94.8048L8.97573 94.7945C8.99681 94.784 9.00732 94.7734 9.01786 94.7524C9.10217 94.6048 9.89276 93.2662 10.504 92.4442C11.1257 91.6223 11.7685 90.7688 12.0004 89.736C12.1374 89.1248 12.0004 88.8088 11.8634 88.6613C11.6737 88.4505 11.3574 88.4189 11.0201 88.5664C10.7356 88.6928 10.4514 88.9036 10.2406 89.1038C10.3144 88.9879 10.3774 88.8718 10.4406 88.7664C10.6092 88.4819 10.7567 88.2185 10.978 87.8708C10.9991 87.8392 10.9992 87.8182 10.9886 87.7971C10.9676 87.7971 10.957 87.7969 10.9359 87.8074ZM9.11273 89.9364L9.15486 89.9046C9.17594 89.873 9.17602 89.8414 9.16548 89.8203C9.0601 89.7149 8.97585 89.6096 8.90209 89.5148C8.80724 89.4094 8.7231 89.304 8.60718 89.188C9.1657 89.051 9.46059 88.9036 9.67135 88.7876C9.88212 88.6717 10.1773 88.524 10.778 88.0393C10.6199 88.3027 10.4934 88.5136 10.367 88.7349C10.2511 88.9351 10.1245 89.1459 9.98749 89.3778C9.96641 89.4094 9.97688 89.4514 9.97688 89.4514C9.97688 89.4514 10.0192 89.4515 10.0402 89.4199C10.2299 89.1775 10.6198 88.8402 10.9886 88.6822C11.3048 88.5452 11.5894 88.5873 11.7685 88.777C11.895 88.914 12.0108 89.1985 11.8949 89.7676C11.6841 90.7476 11.0519 91.5803 10.4512 92.3812C9.88217 93.1294 9.17603 94.3202 8.98635 94.6469C8.84935 94.4993 8.34347 93.9514 7.89033 93.7406C7.37396 93.4982 6.88926 93.2769 6.8998 92.4127C6.8998 91.8964 7.12105 91.4117 7.3002 91.1061C7.54257 90.6951 7.87995 90.3367 8.18556 90.1364C8.22771 90.1048 8.28041 90.0839 8.32256 90.0628C8.61763 89.9047 8.90214 89.8626 9.09183 89.9364H9.11273Z" fill="url(#paint17_linear_506_4442)"/>
<path d="M51.6767 24.0727C51.8874 23.1875 52.4354 22.4391 53.0361 21.6488C53.6367 20.8584 54.3955 19.541 54.3955 19.541C54.3955 19.541 54.9436 20.1629 55.4178 20.3843C55.8921 20.6056 56.3348 20.8268 56.3453 21.6067C56.3559 22.3759 55.6814 23.356 55.1123 23.7353C54.5433 24.1147 54.2166 23.9356 53.9848 23.5562C54.0375 24.199 54.3009 24.5574 54.5222 24.7471L54.501 24.7998C54.09 24.8314 53.7632 25.0211 53.7632 25.0211C53.6894 25.0632 53.3628 25.2211 52.9518 25.6215L52.9412 25.6112C53.2468 25.137 53.6369 24.4307 53.8687 23.6298C53.5104 24.3254 53.0888 24.9051 52.5408 25.1053C51.9928 25.295 51.4659 24.9579 51.6767 24.0727Z" fill="url(#paint18_linear_506_4442)"/>
<path d="M52.434 26.222C52.4446 26.2115 52.4446 26.222 52.434 26.222C53.1506 25.6319 53.4562 25.474 53.6986 25.3476C53.9409 25.2211 54.2464 25.0629 54.8997 24.9153C54.9208 24.9153 54.942 24.8837 54.9631 24.8626C54.9736 24.831 54.9842 24.81 54.9631 24.7889C54.805 24.6309 54.6995 24.5043 54.5836 24.3673C54.5415 24.3146 54.4994 24.2724 54.4572 24.2197C54.6785 24.2197 54.9419 24.1355 55.2159 23.9563C55.5636 23.7456 55.922 23.345 56.1855 22.9024C56.3857 22.5652 56.6175 22.0488 56.628 21.4903C56.6386 20.5735 56.1117 20.3206 55.5954 20.0888C55.1001 19.8569 54.5417 19.2142 54.4784 19.151C54.4679 19.1404 54.4574 19.1404 54.4363 19.151L54.4257 19.1616C54.4152 19.1721 54.3941 19.1826 54.3836 19.2037C54.2993 19.3512 53.4983 20.7108 52.8766 21.5327C52.2443 22.3653 51.5908 23.2186 51.3695 24.2618C51.2325 24.8836 51.3695 25.1895 51.5065 25.3476C51.6962 25.5583 52.0123 25.5897 52.3601 25.4527C52.6446 25.3263 52.9292 25.1156 53.1399 24.9153C53.0662 25.0313 53.0028 25.1473 52.9396 25.2527C52.771 25.5372 52.613 25.8007 52.4022 26.159C52.3811 26.1906 52.3814 26.2115 52.3919 26.2326C52.4024 26.2326 52.4235 26.2325 52.434 26.222ZM54.2781 24.0618C54.2675 24.0723 54.2465 24.0829 54.236 24.1039C54.2149 24.1356 54.2148 24.1671 54.2253 24.1882C54.3307 24.3041 54.415 24.3989 54.4993 24.4937C54.5942 24.5991 54.6787 24.7045 54.7946 24.8205C54.2255 24.9575 53.9408 25.1049 53.7195 25.2209C53.4982 25.3368 53.2138 25.495 52.6025 25.9692C52.7606 25.7058 52.8872 25.4843 53.0242 25.263C53.1401 25.0628 53.2664 24.8522 53.4139 24.6098C53.435 24.5782 53.4351 24.5464 53.4246 24.5358C53.414 24.5253 53.3823 24.5361 53.3612 24.5677C53.161 24.8101 52.7816 25.1577 52.4022 25.3157C52.086 25.4527 51.7912 25.4105 51.612 25.2209C51.4856 25.0839 51.3588 24.7993 51.4853 24.2197C51.6961 23.2291 52.3284 22.3861 52.9396 21.5852C53.5192 20.8264 54.2255 19.6253 54.4257 19.2986C54.5627 19.4567 55.0683 20.0047 55.532 20.2155C56.0484 20.4578 56.5437 20.6896 56.5331 21.5643C56.5331 22.0912 56.3118 22.5654 56.1221 22.8815C55.8798 23.2925 55.5426 23.6612 55.2265 23.8614C55.1843 23.8931 55.1316 23.9141 55.0895 23.9457C54.7944 24.1038 54.5098 24.1462 54.3096 24.0724C54.2991 24.0619 54.2886 24.0618 54.2781 24.0618Z" fill="url(#paint19_linear_506_4442)"/>
<path d="M155.559 1.74292C155.801 0.383496 156.56 -0.333112 157.277 0.151645L196.078 26.6023C196.784 27.0871 197.164 28.5837 196.932 29.9431L179.512 129.898C179.281 131.257 178.511 131.974 177.805 131.489L139.004 105.038C138.298 104.554 137.918 103.057 138.15 101.698L155.559 1.74292Z" fill="url(#paint20_linear_506_4442)"/>
<path d="M155.778 2.39623C156.01 1.04734 156.769 0.341345 157.465 0.815564L195.718 26.8871C196.414 27.3613 196.793 28.8471 196.562 30.196L179.3 129.255C179.068 130.604 178.309 131.31 177.614 130.836L139.36 104.764C138.665 104.29 138.285 102.804 138.517 101.456L155.778 2.39623Z" fill="url(#paint21_linear_506_4442)"/>
<path d="M170.775 46.0772C170.722 46.172 165.769 55.393 158.835 59.5767C158.772 59.6083 158.73 59.7029 158.709 59.8189C158.688 59.9348 158.709 60.0614 158.751 60.1668C161.828 67.5963 163.925 85.1844 163.936 85.3636C163.967 85.6376 164.167 85.7641 164.273 85.5954C164.347 85.4795 171.471 74.1824 176.213 72.0747C176.276 72.0431 176.329 71.9588 176.35 71.8535C176.371 71.7375 176.36 71.6112 176.329 71.5058C172.177 59.7663 171.144 46.4564 171.133 46.3194C171.123 46.1718 171.07 46.0456 170.996 45.9929C170.912 45.9508 170.838 45.9824 170.775 46.0772ZM164.263 84.5943C163.862 81.3591 161.986 67.1641 159.246 60.1562C165.19 56.4362 169.648 49.1332 170.796 47.152C171.081 50.1132 172.314 61.2944 175.833 71.4743C171.481 73.6452 165.59 82.5394 164.263 84.5943Z" fill="url(#paint22_linear_506_4442)"/>
<path d="M156.234 28.8577C156.234 28.8577 157.762 26.4232 158.784 25.9701C157.888 23.4304 157.678 20.5852 157.678 20.5852C157.678 20.5852 156.624 22.5662 155.127 23.4725C155.791 25.0849 156.234 28.8577 156.234 28.8577Z" fill="url(#paint23_linear_506_4442)"/>
<path d="M157.749 19.8789C157.738 19.9 156.516 22.166 154.819 23.1882C154.819 23.1882 154.788 23.2196 154.788 23.2512C154.788 23.2828 154.788 23.3144 154.798 23.3355C155.557 25.1586 156.063 29.4687 156.073 29.5109C156.084 29.5741 156.126 29.6058 156.158 29.5636C156.179 29.532 157.918 26.7604 159.087 26.244C159.109 26.2335 159.119 26.2124 159.119 26.1913C159.129 26.1597 159.119 26.1281 159.108 26.107C158.086 23.2301 157.833 19.9633 157.833 19.9317C157.833 19.9001 157.812 19.8685 157.802 19.8474C157.802 19.8474 157.77 19.8579 157.749 19.8789ZM156.158 29.3214C156.063 28.5311 155.599 25.0535 154.925 23.3252C156.379 22.4084 157.475 20.6273 157.76 20.132C157.833 20.8592 158.128 23.5992 158.993 26.0967C157.928 26.6342 156.484 28.8156 156.158 29.3214Z" fill="url(#paint24_linear_506_4442)"/>
<path d="M160.522 19.6686L160.574 19.3524C160.469 19.226 160.385 19.089 160.332 18.952C160.279 18.8045 160.248 18.6252 160.227 18.4249C160.206 18.2142 160.195 17.9192 160.195 17.5293L160.069 8.67723L159.405 8.25562L156.644 15.0845C156.485 15.4744 156.338 15.7588 156.201 15.9274C156.064 16.096 155.927 16.1595 155.779 16.0962L155.737 16.4124L157.35 17.5084L157.392 17.1922C157.234 17.0447 157.128 16.8864 157.065 16.7073C157.002 16.5387 156.991 16.3176 157.023 16.0541C157.044 15.9171 157.076 15.7694 157.118 15.6219C157.16 15.4638 157.234 15.2426 157.35 14.9581L157.571 14.3786L159.405 15.601L159.415 16.56C159.415 16.8024 159.415 17.0234 159.415 17.2025C159.405 17.3922 159.394 17.5609 159.373 17.7084C159.352 17.8665 159.31 17.9825 159.268 18.0458C159.226 18.1195 159.162 18.1615 159.089 18.1615C159.015 18.1721 158.909 18.151 158.783 18.1088L158.73 18.4249L160.522 19.6686ZM159.352 9.8366L159.426 14.9687L157.771 13.8621L159.352 9.8366Z" fill="url(#paint25_linear_506_4442)"/>
<path d="M87.1364 216.572C88.3061 217.341 89.4231 217.299 89.6339 216.466L101.468 170.73C101.689 169.898 100.92 168.591 99.7505 167.822L14.3701 111.073C13.2004 110.304 12.0833 110.346 11.8726 111.19L0.0379868 156.925C-0.183319 157.758 0.585915 159.065 1.75565 159.834L87.1364 216.572Z" fill="url(#paint26_linear_506_4442)"/>
<path d="M86.8401 215.971C87.9887 216.74 89.1059 216.687 89.3167 215.865L100.982 170.783C101.193 169.961 100.435 168.675 99.2754 167.906L14.6533 111.664C13.5047 110.894 12.3878 110.947 12.177 111.769L0.511292 156.852C0.300529 157.674 1.05915 158.959 2.21835 159.728L86.8401 215.971Z" fill="url(#paint27_linear_506_4442)"/>
<path d="M47.322 165.461C44.8349 166.631 34.1387 160.772 35.6035 153.869L35.5929 153.858C35.6034 153.827 35.6142 153.806 35.6247 153.774C35.6353 153.743 35.6351 153.711 35.6456 153.679L35.6562 153.69C37.669 147.156 47.8173 155.144 49.0609 158.791C49.2716 151.129 55.9211 154.449 59.0404 157.146C62.0754 159.771 63.4139 162.732 63.0556 165.64C62.6973 168.549 59.2935 168.454 57.6601 168.106C61.0218 169.487 63.8881 170.014 66.1012 169.929L66.2488 170.161C65.1423 171.057 64.7943 172.669 64.6784 173.154H64.689C64.689 173.154 64.0989 174.924 64.5626 177.116H64.3835C62.8555 174.534 60.5264 171.51 57.5125 168.654C58.8298 170.267 61.2641 174.06 60.2313 176.526C59.1986 178.992 56.9434 179.561 53.6449 177.97C50.2516 176.326 44.0867 171.12 47.322 165.461Z" fill="url(#paint28_linear_506_4442)"/>
<path d="M68.9025 169.086C68.9236 169.012 68.892 168.907 68.8183 168.802C68.7129 168.665 68.5549 168.559 68.4285 168.559C66.774 168.559 64.7714 168.538 63.2539 168.496C63.96 167.959 64.3817 167.105 64.6452 165.704C65.1615 162.953 63.2964 159.275 59.8926 156.324C57.7744 154.491 54.5178 152.594 51.9992 152.467C49.9232 152.373 48.6799 153.448 48.3005 155.692C47.1202 153.806 44.6016 151.698 41.9881 150.529C40.0807 149.675 35.486 148.179 34.0845 152.858C33.0728 157.652 36.8979 161.72 38.5946 163.238C40.9973 165.398 43.7586 166.789 45.4447 166.778C44.7175 168.791 45.1283 170.962 46.6352 173.238C48.4689 175.999 51.6093 178.36 53.9066 179.466C57.6161 181.247 60.5562 180.763 61.3993 178.233C61.473 178.033 61.5257 177.833 61.5784 177.643C61.8524 176.589 61.8841 175.63 61.6417 174.619C62.5059 175.915 63.6966 177.686 65.4038 180.288C65.4987 180.436 65.6569 180.541 65.7939 180.552C65.9309 180.562 65.9941 180.468 65.9625 180.331C65.2669 177.496 66.0783 173.966 66.0888 173.934C66.1942 173.607 67.2375 170.551 68.8604 169.15C68.8815 169.139 68.892 169.107 68.9025 169.086ZM61.4311 168.538C61.4206 168.601 61.4308 168.675 61.4835 168.759C61.5678 168.917 61.747 169.055 61.8945 169.055C63.0432 169.128 65.5304 169.181 67.7329 169.192C66.3945 170.762 65.562 173.217 65.4566 173.523C65.446 173.576 64.8031 176.358 65.1298 179.055C62.959 175.757 61.7578 173.976 60.9358 172.764C60.8305 172.606 60.6407 172.501 60.5142 172.511C60.3772 172.522 60.335 172.648 60.4087 172.817C60.9673 173.997 61.4206 175.357 60.9358 177.243C60.8831 177.433 60.8302 177.622 60.767 177.812C59.9766 180.172 57.3422 180.594 53.8857 178.929C51.7359 177.896 48.8062 175.704 47.1096 173.143C45.571 170.825 45.3181 168.591 46.3403 166.557C46.393 166.452 46.3298 166.294 46.2033 166.157C46.0663 166.03 45.8978 165.967 45.8029 166.009C44.5489 166.599 41.4402 165.198 38.8583 162.879C37.2986 161.467 33.7682 157.715 34.7061 153.268C36.0129 148.927 40.2597 150.297 42.0196 151.087C44.8333 152.352 47.6048 154.839 48.2265 156.641C48.2792 156.788 48.427 156.936 48.5745 156.999C48.722 157.052 48.838 157.009 48.8485 156.883C49.0171 154.291 50.1868 153.005 52.2944 153.1C54.6234 153.216 57.6582 154.986 59.6289 156.693C62.8114 159.444 64.4871 162.742 64.0023 165.303C63.5492 167.674 62.548 168.212 61.5469 168.433C61.4836 168.444 61.4416 168.475 61.4311 168.538Z" fill="url(#paint29_linear_506_4442)"/>
<path d="M72.8101 199.521C73.3686 199.257 75.7504 200.564 75.4237 202.102L75.4131 202.124V202.145C74.96 203.599 72.7046 201.818 72.4306 201.007C72.3884 202.714 70.9026 201.976 70.207 201.375C69.5326 200.785 69.2271 200.132 69.3114 199.478C69.3957 198.825 70.144 198.846 70.5129 198.93C69.7647 198.625 69.1217 198.509 68.637 198.53L68.6055 198.477C68.8478 198.277 68.932 197.919 68.9531 197.814C68.9531 197.814 69.09 197.413 68.9846 196.928H69.0268C69.364 197.508 69.8911 198.172 70.555 198.815C70.2599 198.456 69.7223 197.613 69.9436 197.065C70.1755 196.517 70.6709 196.391 71.4085 196.749C72.1567 197.097 73.5372 198.256 72.8101 199.521Z" fill="url(#paint30_linear_506_4442)"/>
<path d="M68.0065 198.709C68.0065 198.73 68.0063 198.752 68.0274 198.773C68.0484 198.804 68.0909 198.825 68.1119 198.825C68.4808 198.825 68.9231 198.825 69.2604 198.836C69.1023 198.952 69.0075 199.152 68.9549 199.458C68.8389 200.069 69.2605 200.891 70.0087 201.544C70.483 201.955 71.21 202.377 71.7685 202.398C72.2322 202.419 72.5062 202.177 72.5905 201.681C72.854 202.103 73.4125 202.566 74.0027 202.83C74.4242 203.019 75.4463 203.357 75.7625 202.314C75.9838 201.249 75.1302 200.343 74.7613 200.006C74.2239 199.521 73.6128 199.215 73.2334 199.215C73.3915 198.762 73.3073 198.277 72.97 197.772C72.559 197.16 71.8633 196.633 71.3469 196.38C70.5249 195.98 69.8611 196.085 69.6714 196.654C69.6608 196.697 69.6398 196.749 69.6292 196.791C69.566 197.023 69.5659 197.244 69.6186 197.466C69.4289 197.181 69.1656 196.781 68.7757 196.201C68.7546 196.17 68.7231 196.149 68.6915 196.138C68.6598 196.138 68.6493 196.159 68.6493 196.191C68.8074 196.823 68.6175 197.603 68.6175 197.613C68.5964 197.687 68.3647 198.372 67.9958 198.678L68.0065 198.709ZM69.6714 198.836C69.6714 198.825 69.6713 198.804 69.6608 198.783C69.6397 198.741 69.5978 198.72 69.5662 198.72C69.3133 198.699 68.7546 198.688 68.2698 198.688C68.5649 198.341 68.7546 197.793 68.7757 197.719C68.7757 197.708 68.9231 197.087 68.8494 196.486C69.3341 197.224 69.5978 197.613 69.7875 197.887C69.8086 197.919 69.8507 197.951 69.8823 197.94C69.914 197.94 69.9243 197.908 69.9032 197.877C69.7768 197.613 69.6716 197.308 69.7875 196.886C69.798 196.844 69.8085 196.802 69.8296 196.76C70.0088 196.233 70.5883 196.138 71.3681 196.507C71.8529 196.739 72.4958 197.223 72.8752 197.792C73.2124 198.309 73.2755 198.804 73.0437 199.257C73.0331 199.278 73.0436 199.321 73.0752 199.342C73.1068 199.373 73.1385 199.384 73.1701 199.373C73.4441 199.236 74.1396 199.552 74.7192 200.069C75.067 200.385 75.8575 201.217 75.6467 202.208C75.3516 203.178 74.4138 202.872 74.0133 202.693C73.3915 202.408 72.7697 201.86 72.6327 201.449C72.6221 201.418 72.5906 201.386 72.559 201.375C72.5274 201.365 72.4957 201.376 72.4957 201.407C72.4535 201.987 72.2006 202.271 71.7264 202.25C71.21 202.229 70.5356 201.829 70.093 201.449C69.3869 200.838 69.0074 200.1 69.1234 199.531C69.2288 199.004 69.4501 198.888 69.6714 198.836C69.6608 198.857 69.6714 198.846 69.6714 198.836Z" fill="url(#paint31_linear_506_4442)"/>
<path d="M28.0469 127.682C27.4883 127.945 25.1065 126.639 25.4332 125.1L25.4438 125.079V125.058C25.897 123.604 28.152 125.384 28.426 126.196C28.4787 124.489 29.9541 125.227 30.6496 125.827C31.324 126.407 31.6299 127.071 31.5456 127.724C31.4612 128.367 30.7129 128.356 30.3441 128.272C31.0923 128.578 31.7352 128.694 32.2199 128.683L32.2515 128.736C32.0091 128.936 31.9249 129.294 31.9038 129.4C31.9038 129.4 31.7771 129.8 31.872 130.285H31.8298C31.4926 129.705 30.9658 129.041 30.3019 128.398C30.597 128.757 31.1346 129.6 30.9133 130.148C30.6814 130.696 30.1755 130.822 29.4484 130.474C28.7002 130.095 27.3197 128.936 28.0469 127.682Z" fill="url(#paint32_linear_506_4442)"/>
<path d="M32.8532 128.482C32.8532 128.461 32.853 128.44 32.8319 128.419C32.8109 128.388 32.7687 128.367 32.7477 128.367C32.3788 128.367 31.9361 128.367 31.5989 128.356C31.757 128.24 31.8521 128.05 31.9048 127.734C32.0207 127.123 31.6096 126.301 30.8509 125.648C30.3767 125.237 29.6496 124.815 29.0911 124.784C28.6274 124.763 28.3534 125.005 28.2691 125.5C28.0056 125.079 27.4471 124.615 26.8569 124.351C26.4354 124.162 25.4133 123.825 25.0971 124.868C24.8758 125.932 25.7294 126.839 26.0983 127.186C26.6357 127.671 27.2468 127.976 27.6262 127.976C27.4681 128.43 27.5524 128.915 27.8896 129.42C28.3006 130.032 28.996 130.558 29.5124 130.811C30.3344 131.212 30.9982 131.096 31.1879 130.537C31.1984 130.495 31.2198 130.443 31.2304 130.4C31.2936 130.169 31.2933 129.958 31.2407 129.726C31.4303 130.011 31.694 130.411 32.0839 130.991C32.105 131.022 32.1365 131.043 32.1681 131.054C32.1998 131.054 32.2103 131.033 32.2103 131.001C32.0522 130.369 32.2418 129.578 32.2418 129.578C32.2629 129.505 32.4949 128.82 32.8638 128.514C32.8427 128.493 32.8532 128.482 32.8532 128.482ZM31.1879 128.356C31.1879 128.356 31.188 128.388 31.1985 128.409C31.2196 128.44 31.2618 128.472 31.2934 128.472C31.5463 128.493 32.105 128.504 32.5898 128.504C32.2947 128.851 32.105 129.399 32.0839 129.463C32.0839 129.463 31.9362 130.095 32.0099 130.695C31.5252 129.958 31.2618 129.568 31.0721 129.294C31.0511 129.262 31.0089 129.23 30.9773 129.241C30.9456 129.241 30.9353 129.273 30.9564 129.304C31.0828 129.568 31.1881 129.873 31.0721 130.295C31.0616 130.337 31.0511 130.379 31.03 130.421C30.8509 130.948 30.2608 131.043 29.4915 130.674C29.0067 130.443 28.3638 129.958 27.9844 129.389C27.6472 128.872 27.5841 128.377 27.8159 127.924C27.8265 127.903 27.8157 127.861 27.7841 127.839C27.7525 127.808 27.7209 127.797 27.6998 127.808C27.4153 127.945 26.7303 127.629 26.1507 127.112C25.8029 126.796 25.0127 125.964 25.2235 124.973C25.5186 124.004 26.4565 124.309 26.8569 124.488C27.4787 124.773 28.1002 125.321 28.2372 125.721C28.2478 125.753 28.2796 125.785 28.3112 125.806C28.3428 125.816 28.3742 125.806 28.3742 125.774C28.4164 125.195 28.6693 124.91 29.1435 124.931C29.6599 124.952 30.3346 125.353 30.7772 125.732C31.4833 126.343 31.8625 127.081 31.7465 127.65C31.6411 128.177 31.4198 128.303 31.1985 128.345L31.1879 128.356Z" fill="url(#paint33_linear_506_4442)"/>
<path d="M23.8117 124.836L23.5484 124.657C23.4746 124.784 23.4006 124.868 23.3374 124.91C23.2742 124.953 23.2004 124.963 23.1161 124.952C23.0318 124.931 22.9158 124.879 22.7894 124.794C22.6629 124.71 22.5365 124.605 22.389 124.478C22.252 124.352 22.0939 124.204 21.9252 124.036L21.2402 123.361L21.8201 121.211L22.4102 121.454C22.7053 121.57 22.9158 121.664 23.0634 121.749C23.2109 121.822 23.3375 121.907 23.4429 121.981C23.6536 122.139 23.801 122.297 23.8748 122.466C23.9485 122.634 23.9804 122.813 23.9594 123.024L24.2228 123.214L24.718 121.317L24.4649 121.127C24.3912 121.264 24.2331 121.327 24.0118 121.306C23.7799 121.285 23.4641 121.19 23.0531 121.032L15.9711 118.271L15.7499 119.041L21.9992 125.247C22.2732 125.521 22.4733 125.732 22.6102 125.89C22.7472 126.048 22.8422 126.196 22.9055 126.333C22.9687 126.47 23.0004 126.618 23.011 126.786L23.2744 126.965L23.8117 124.836ZM21.3036 120.99L20.7768 122.929L17.162 119.336L21.3036 120.99Z" fill="url(#paint34_linear_506_4442)"/>
<path d="M77.6938 202.788L77.9572 202.967C78.031 202.84 78.1046 202.756 78.1679 202.714C78.2311 202.672 78.3048 202.651 78.3891 202.672C78.4734 202.693 78.5894 202.745 78.7159 202.83C78.8423 202.914 78.9687 203.019 79.1163 203.146C79.2638 203.272 79.4114 203.42 79.58 203.589L80.265 204.263L79.6855 206.413L79.0953 206.171C78.8003 206.055 78.5789 205.96 78.4419 205.875C78.2943 205.802 78.1681 205.717 78.0627 205.643C77.8519 205.485 77.7042 205.327 77.6305 205.159C77.5567 205.001 77.5251 204.811 77.5462 204.6L77.2828 204.411L76.7875 206.308L77.0403 206.497C77.1141 206.35 77.2616 206.297 77.4935 206.318C77.7253 206.339 78.0415 206.434 78.4525 206.592L85.5341 209.353L85.7554 208.584L79.5064 202.377C79.2324 202.113 79.032 201.892 78.895 201.734C78.758 201.576 78.6633 201.428 78.6001 201.291C78.5369 201.154 78.5051 201.007 78.4946 200.838L78.2312 200.659L77.6938 202.788ZM80.2017 206.634L80.7288 204.695L84.3432 208.289L80.2017 206.634Z" fill="url(#paint35_linear_506_4442)"/>
<defs>
<linearGradient id="paint0_linear_506_4442" x1="93.8092" y1="108.387" x2="140.149" y2="61.0898" gradientUnits="userSpaceOnUse">
<stop stop-color="#CDCCCB"/>
<stop offset="0.9947" stop-color="#B6B4B3"/>
</linearGradient>
<linearGradient id="paint1_linear_506_4442" x1="93.6086" y1="107.788" x2="139.77" y2="61.908" gradientUnits="userSpaceOnUse">
<stop stop-color="#F3F5F4"/>
<stop offset="0.7063" stop-color="#E5E5E4"/>
<stop offset="0.9947" stop-color="#D4D2D1"/>
</linearGradient>
<linearGradient id="paint2_linear_506_4442" x1="93.75" y1="106.6" x2="140.81" y2="60.2939" gradientUnits="userSpaceOnUse">
<stop stop-color="#EF0A07"/>
<stop offset="1" stop-color="#C70000"/>
</linearGradient>
<linearGradient id="paint3_linear_506_4442" x1="94.0084" y1="106.864" x2="141.068" y2="60.5568" gradientUnits="userSpaceOnUse">
<stop stop-color="#EF0A07"/>
<stop offset="1" stop-color="#C70000"/>
</linearGradient>
<linearGradient id="paint4_linear_506_4442" x1="73.5259" y1="86.0412" x2="120.583" y2="39.7376" gradientUnits="userSpaceOnUse">
<stop stop-color="#EF0A07"/>
<stop offset="1" stop-color="#C70000"/>
</linearGradient>
<linearGradient id="paint5_linear_506_4442" x1="73.578" y1="86.0984" x2="120.636" y2="39.7921" gradientUnits="userSpaceOnUse">
<stop stop-color="#EF0A07"/>
<stop offset="1" stop-color="#C70000"/>
</linearGradient>
<linearGradient id="paint6_linear_506_4442" x1="65.9848" y1="78.3822" x2="113.043" y2="32.0785" gradientUnits="userSpaceOnUse">
<stop stop-color="#EF0A07"/>
<stop offset="1" stop-color="#C70000"/>
</linearGradient>
<linearGradient id="paint7_linear_506_4442" x1="114.63" y1="127.812" x2="161.686" y2="81.5074" gradientUnits="userSpaceOnUse">
<stop stop-color="#EF0A07"/>
<stop offset="1" stop-color="#C70000"/>
</linearGradient>
<linearGradient id="paint8_linear_506_4442" x1="114.573" y1="127.758" x2="161.632" y2="81.4547" gradientUnits="userSpaceOnUse">
<stop stop-color="#EF0A07"/>
<stop offset="1" stop-color="#C70000"/>
</linearGradient>
<linearGradient id="paint9_linear_506_4442" x1="122.164" y1="135.473" x2="169.223" y2="89.1698" gradientUnits="userSpaceOnUse">
<stop stop-color="#EF0A07"/>
<stop offset="1" stop-color="#C70000"/>
</linearGradient>
<linearGradient id="paint10_linear_506_4442" x1="-6.62359" y1="64.0432" x2="70.0067" y2="50.1734" gradientUnits="userSpaceOnUse">
<stop stop-color="#CDCCCB"/>
<stop offset="0.9947" stop-color="#B6B4B3"/>
</linearGradient>
<linearGradient id="paint11_linear_506_4442" x1="-6.13998" y1="63.9555" x2="69.5231" y2="50.2608" gradientUnits="userSpaceOnUse">
<stop stop-color="#F3F5F4"/>
<stop offset="0.7063" stop-color="#E5E5E4"/>
<stop offset="0.9947" stop-color="#D4D2D1"/>
</linearGradient>
<linearGradient id="paint12_linear_506_4442" x1="4.52484" y1="95.9082" x2="41.2206" y2="120.054" gradientUnits="userSpaceOnUse">
<stop stop-color="#2C2C28"/>
<stop offset="0.0245" stop-color="#2B2B27"/>
<stop offset="0.63" stop-color="#111511"/>
<stop offset="0.9947" stop-color="#080D09"/>
</linearGradient>
<linearGradient id="paint13_linear_506_4442" x1="22.6795" y1="-5.47121" x2="59.3751" y2="18.6741" gradientUnits="userSpaceOnUse">
<stop stop-color="#2C2C28"/>
<stop offset="0.0245" stop-color="#2B2B27"/>
<stop offset="0.63" stop-color="#111511"/>
<stop offset="0.9947" stop-color="#080D09"/>
</linearGradient>
<linearGradient id="paint14_linear_506_4442" x1="5.55634" y1="61.0266" x2="60.2008" y2="51.3021" gradientUnits="userSpaceOnUse">
<stop stop-color="#2C2C28"/>
<stop offset="0.0245" stop-color="#2B2B27"/>
<stop offset="0.63" stop-color="#111511"/>
<stop offset="0.9947" stop-color="#080D09"/>
</linearGradient>
<linearGradient id="paint15_linear_506_4442" x1="17.8187" y1="44.4306" x2="46.7095" y2="63.4391" gradientUnits="userSpaceOnUse">
<stop stop-color="#2C2C28"/>
<stop offset="0.0245" stop-color="#2B2B27"/>
<stop offset="0.63" stop-color="#111511"/>
<stop offset="0.9947" stop-color="#080D09"/>
</linearGradient>
<linearGradient id="paint16_linear_506_4442" x1="3.6731" y1="92.4909" x2="58.3161" y2="82.766" gradientUnits="userSpaceOnUse">
<stop stop-color="#2C2C28"/>
<stop offset="0.0245" stop-color="#2B2B27"/>
<stop offset="0.63" stop-color="#111511"/>
<stop offset="0.9947" stop-color="#080D09"/>
</linearGradient>
<linearGradient id="paint17_linear_506_4442" x1="6.32577" y1="88.9304" x2="35.2129" y2="107.938" gradientUnits="userSpaceOnUse">
<stop stop-color="#2C2C28"/>
<stop offset="0.0245" stop-color="#2B2B27"/>
<stop offset="0.63" stop-color="#111511"/>
<stop offset="0.9947" stop-color="#080D09"/>
</linearGradient>
<linearGradient id="paint18_linear_506_4442" x1="5.86951" y1="31.0829" x2="60.5136" y2="21.3569" gradientUnits="userSpaceOnUse">
<stop stop-color="#2C2C28"/>
<stop offset="0.0245" stop-color="#2B2B27"/>
<stop offset="0.63" stop-color="#111511"/>
<stop offset="0.9947" stop-color="#080D09"/>
</linearGradient>
<linearGradient id="paint19_linear_506_4442" x1="28.595" y1="6.33831" x2="57.4829" y2="25.3448" gradientUnits="userSpaceOnUse">
<stop stop-color="#2C2C28"/>
<stop offset="0.0245" stop-color="#2B2B27"/>
<stop offset="0.63" stop-color="#111511"/>
<stop offset="0.9947" stop-color="#080D09"/>
</linearGradient>
<linearGradient id="paint20_linear_506_4442" x1="188.22" y1="79.9182" x2="143.301" y2="72.0892" gradientUnits="userSpaceOnUse">
<stop stop-color="#CDCCCB"/>
<stop offset="0.9947" stop-color="#B6B4B3"/>
</linearGradient>
<linearGradient id="paint21_linear_506_4442" x1="187.924" y1="79.7187" x2="143.643" y2="72.0009" gradientUnits="userSpaceOnUse">
<stop stop-color="#F3F5F4"/>
<stop offset="0.7063" stop-color="#E5E5E4"/>
<stop offset="0.9947" stop-color="#D4D2D1"/>
</linearGradient>
<linearGradient id="paint22_linear_506_4442" x1="148.584" y1="66.6042" x2="187.798" y2="64.989" gradientUnits="userSpaceOnUse">
<stop stop-color="#EF0A07"/>
<stop offset="1" stop-color="#C70000"/>
</linearGradient>
<linearGradient id="paint23_linear_506_4442" x1="192.333" y1="49.1566" x2="148.495" y2="41.3962" gradientUnits="userSpaceOnUse">
<stop stop-color="#EF0A07"/>
<stop offset="1" stop-color="#C70000"/>
</linearGradient>
<linearGradient id="paint24_linear_506_4442" x1="122.521" y1="26.1413" x2="161.737" y2="24.526" gradientUnits="userSpaceOnUse">
<stop stop-color="#EF0A07"/>
<stop offset="1" stop-color="#C70000"/>
</linearGradient>
<linearGradient id="paint25_linear_506_4442" x1="123.226" y1="15.4684" x2="162.81" y2="13.8375" gradientUnits="userSpaceOnUse">
<stop stop-color="#EF0A07"/>
<stop offset="1" stop-color="#C70000"/>
</linearGradient>
<linearGradient id="paint26_linear_506_4442" x1="57.0573" y1="139.441" x2="30.7128" y2="179.076" gradientUnits="userSpaceOnUse">
<stop stop-color="#CDCCCB"/>
<stop offset="0.9947" stop-color="#B6B4B3"/>
</linearGradient>
<linearGradient id="paint27_linear_506_4442" x1="56.9671" y1="139.786" x2="30.9957" y2="178.859" gradientUnits="userSpaceOnUse">
<stop stop-color="#F3F5F4"/>
<stop offset="0.7063" stop-color="#E5E5E4"/>
<stop offset="0.9947" stop-color="#D4D2D1"/>
</linearGradient>
<linearGradient id="paint28_linear_506_4442" x1="57.2032" y1="140.205" x2="31.3143" y2="178.395" gradientUnits="userSpaceOnUse">
<stop stop-color="#2C2C28"/>
<stop offset="0.0245" stop-color="#2B2B27"/>
<stop offset="0.63" stop-color="#111511"/>
<stop offset="0.9947" stop-color="#080D09"/>
</linearGradient>
<linearGradient id="paint29_linear_506_4442" x1="57.4334" y1="140.362" x2="31.5445" y2="178.551" gradientUnits="userSpaceOnUse">
<stop stop-color="#2C2C28"/>
<stop offset="0.0245" stop-color="#2B2B27"/>
<stop offset="0.63" stop-color="#111511"/>
<stop offset="0.9947" stop-color="#080D09"/>
</linearGradient>
<linearGradient id="paint30_linear_506_4442" x1="83.8392" y1="158.264" x2="57.9504" y2="196.454" gradientUnits="userSpaceOnUse">
<stop stop-color="#2C2C28"/>
<stop offset="0.0245" stop-color="#2B2B27"/>
<stop offset="0.63" stop-color="#111511"/>
<stop offset="0.9947" stop-color="#080D09"/>
</linearGradient>
<linearGradient id="paint31_linear_506_4442" x1="83.7895" y1="158.231" x2="57.9014" y2="196.42" gradientUnits="userSpaceOnUse">
<stop stop-color="#2C2C28"/>
<stop offset="0.0245" stop-color="#2B2B27"/>
<stop offset="0.63" stop-color="#111511"/>
<stop offset="0.9947" stop-color="#080D09"/>
</linearGradient>
<linearGradient id="paint32_linear_506_4442" x1="30.2727" y1="121.949" x2="4.38208" y2="160.142" gradientUnits="userSpaceOnUse">
<stop stop-color="#2C2C28"/>
<stop offset="0.0245" stop-color="#2B2B27"/>
<stop offset="0.63" stop-color="#111511"/>
<stop offset="0.9947" stop-color="#080D09"/>
</linearGradient>
<linearGradient id="paint33_linear_506_4442" x1="30.3256" y1="121.985" x2="4.43493" y2="160.175" gradientUnits="userSpaceOnUse">
<stop stop-color="#2C2C28"/>
<stop offset="0.0245" stop-color="#2B2B27"/>
<stop offset="0.63" stop-color="#111511"/>
<stop offset="0.9947" stop-color="#080D09"/>
</linearGradient>
<linearGradient id="paint34_linear_506_4442" x1="21.4842" y1="115.99" x2="-4.40521" y2="154.179" gradientUnits="userSpaceOnUse">
<stop stop-color="#2C2C28"/>
<stop offset="0.0245" stop-color="#2B2B27"/>
<stop offset="0.63" stop-color="#111511"/>
<stop offset="0.9947" stop-color="#080D09"/>
</linearGradient>
<linearGradient id="paint35_linear_506_4442" x1="93.274" y1="164.658" x2="67.3848" y2="202.847" gradientUnits="userSpaceOnUse">
<stop stop-color="#2C2C28"/>
<stop offset="0.0245" stop-color="#2B2B27"/>
<stop offset="0.63" stop-color="#111511"/>
<stop offset="0.9947" stop-color="#080D09"/>
</linearGradient>
</defs>
</svg>
