<svg width="187" height="408" viewBox="0 0 187 408" fill="none" xmlns="http://www.w3.org/2000/svg">
<path d="M-97.4051 282.316C-96.911 284.191 -95.1783 285.476 -93.5358 285.204L-3.6358 270.055C-1.99329 269.783 -1.073 268.038 -1.56714 266.163L-37.905 128.816C-38.3991 126.941 -40.1314 125.656 -41.774 125.928L-131.674 141.077C-133.317 141.349 -134.237 143.094 -133.743 144.969L-97.4051 282.316Z" fill="url(#paint0_linear_506_15620)"/>
<path d="M-96.8985 281.58C-96.4102 283.434 -94.6988 284.725 -93.0696 284.445L-4.44299 269.511C-2.82148 269.245 -1.90896 267.514 -2.39731 265.66L-38.4068 129.545C-38.8952 127.691 -40.6069 126.4 -42.2226 126.687L-130.849 141.62C-132.471 141.886 -133.383 143.618 -132.894 145.472L-96.8985 281.58Z" fill="url(#paint1_linear_506_15620)"/>
<path d="M-128.232 81.8925C-129.676 81.2849 -129.858 80.1712 -128.637 79.3941L-62.2608 36.944C-61.0399 36.1669 -58.9078 36.0316 -57.4635 36.6392L48.0822 81.1303C49.5264 81.7379 49.709 82.8512 48.4882 83.6283L-17.889 126.079C-19.0964 126.863 -21.2416 126.991 -22.6858 126.384L-128.232 81.8925Z" fill="url(#paint2_linear_506_15620)"/>
<path d="M-127.259 81.771C-128.69 81.171 -128.872 80.0574 -127.68 79.2995L-62.2457 37.4477C-61.0535 36.6898 -58.9216 36.5545 -57.4908 37.1545L47.1176 81.2371C48.5484 81.8371 48.7313 82.9509 47.5391 83.7088L-17.8957 125.56C-19.0878 126.318 -21.2199 126.454 -22.6373 125.861L-127.259 81.771Z" fill="url(#paint3_linear_506_15620)"/>
<path d="M25.0737 81.2785L25.4042 81.4132C25.2308 81.5627 25.1206 81.6947 25.0673 81.7885C25.0141 81.8823 25.0026 81.9645 25.0544 82.0293C25.0985 82.1075 25.2061 82.1684 25.3745 82.2462C25.5371 82.3031 25.7127 82.368 25.9517 82.4151C26.1697 82.468 26.43 82.5091 26.7378 82.5598L27.9134 82.7668L31.0204 80.7582L30.5242 80.3526C30.2867 80.1468 30.0877 79.9982 29.9404 79.9145C29.793 79.8308 29.646 79.7471 29.4968 79.6978C29.2195 79.5934 28.9381 79.5581 28.6669 79.5989C28.4033 79.6264 28.1155 79.7283 27.7968 79.8839L27.4582 79.7624L30.2144 77.9973L30.553 78.1188C30.3509 78.2875 30.2996 78.4707 30.3918 78.6825C30.4841 78.8944 30.6991 79.1406 31.0286 79.4339L36.8484 84.4398L35.7402 85.1745L24.911 83.3119C24.4464 83.2252 24.0699 83.171 23.7947 83.1564C23.5271 83.1285 23.2786 83.1289 23.0628 83.1657C22.847 83.2026 22.6161 83.2663 22.3623 83.3702L22.0311 83.2356L25.0737 81.2785ZM31.4778 81.1066L28.6777 82.9176L34.9612 83.9882L31.4778 81.1066Z" fill="url(#paint4_linear_506_15620)"/>
<path d="M16.0955 79.7752C17.3595 80.1386 18.7063 79.9819 20.1235 79.7947C21.5408 79.6075 23.7495 79.5864 23.7495 79.5864C23.7495 79.5864 23.3469 78.4542 23.408 77.6916C23.469 76.9291 23.4995 76.2205 22.5293 75.6518C21.559 75.0831 19.853 75.248 18.9676 75.6841C18.0822 76.1202 18.0665 76.678 18.389 77.2331C17.6233 76.7097 17.358 76.1163 17.2767 75.698L17.1949 75.6868C16.8657 76.173 16.4019 76.4588 16.4019 76.4588C16.3084 76.5297 15.8715 76.8311 15.0734 77.0511L15.0792 77.0722C15.8817 77.0319 17.0607 77.0459 18.2327 77.3217C17.09 77.2751 16.0622 77.4001 15.4198 77.9387C14.7755 78.5117 14.8316 79.4117 16.0955 79.7752Z" fill="url(#paint5_linear_506_15620)"/>
<path d="M13.9297 77.2865L13.9509 77.2807C15.1763 76.8074 15.5976 76.5332 15.9333 76.3164C16.269 76.0996 16.6831 75.8386 17.3289 75.107C17.3441 75.0802 17.3997 75.0761 17.4417 75.0645C17.4895 75.074 17.5241 75.0759 17.5222 75.1103C17.6091 75.4253 17.6937 75.6507 17.7707 75.8894C17.8073 75.981 17.8302 76.0647 17.8667 76.1563C18.0265 75.875 18.3164 75.6148 18.7419 75.3958C19.2533 75.1193 20.0076 74.9453 20.7604 74.9299C21.3202 74.9112 22.144 74.9891 22.8539 75.3922C24.0135 76.0331 23.941 76.8779 23.8839 77.6959C23.8211 78.4928 24.229 79.6459 24.2772 79.7795C24.2772 79.7795 24.2754 79.8139 24.2467 79.8331L24.2262 79.8387C24.1976 79.8579 24.1767 79.8637 24.1423 79.8619C23.8939 79.8625 21.6216 79.9012 20.1355 80.0847C18.6419 80.2817 17.093 80.4827 15.6128 80.0319C14.737 79.7648 14.4342 79.3625 14.3455 79.0819C14.2146 78.6886 14.4027 78.2637 14.8337 77.9415C15.1998 77.6711 15.6728 77.4619 16.0795 77.3385C15.8789 77.3486 15.6859 77.345 15.5063 77.3493C15.0229 77.3582 14.5816 77.3555 13.9798 77.3858C13.9244 77.3898 13.8977 77.3748 13.8786 77.3461C13.8938 77.3193 13.9011 77.3057 13.9297 77.2865ZM17.952 76.5059L17.8812 76.5365C17.8258 76.5405 17.7856 76.5178 17.7664 76.4892C17.7085 76.2791 17.6355 76.096 17.5682 75.9338C17.5027 75.7372 17.4294 75.5541 17.3657 75.3231C16.7884 75.9341 16.3881 76.2025 16.0886 76.3867C15.7891 76.571 15.3883 76.8396 14.3384 77.2532C14.7874 77.2424 15.1468 77.2339 15.5194 77.2329C15.8576 77.2301 16.2169 77.2214 16.6105 77.2146C16.6659 77.2106 16.7118 77.2543 16.7118 77.2543C16.7118 77.2543 16.6814 77.3081 16.626 77.3121C16.181 77.3782 15.4708 77.6303 15.0036 77.985C14.6012 78.288 14.4494 78.6802 14.5612 79.0449C14.644 79.3045 14.922 79.6571 15.729 79.9205C17.127 80.3601 18.6418 80.1576 20.0935 79.9722C21.4554 79.7889 23.4787 79.7509 24.0309 79.7456C23.9423 79.465 23.6109 78.4264 23.6701 77.6983C23.7348 76.8669 23.8033 76.091 22.6972 75.4806C22.0409 75.1078 21.2651 75.0392 20.7473 75.0463C20.0499 75.0577 19.3507 75.2278 18.8756 75.4718C18.805 75.5025 18.7403 75.5544 18.6831 75.5927C18.2692 75.8537 18.0103 76.185 17.9671 76.4794L17.952 76.5059Z" fill="url(#paint6_linear_506_15620)"/>
<path d="M122.599 267.1C122.733 269.142 121.873 270.531 120.662 270.198L53.9832 252.226C52.7652 251.906 51.6594 249.985 51.526 247.943L41.0253 98.4476C40.8918 96.4054 41.752 95.016 42.9758 95.3567L109.655 113.329C110.873 113.649 111.979 115.57 112.112 117.612L122.599 267.1Z" fill="url(#paint7_linear_506_15620)"/>
<path d="M122.049 266.289C122.198 268.305 121.325 269.687 120.128 269.361L54.4008 251.646C53.2038 251.321 52.117 249.428 51.976 247.399L41.5709 99.2334C41.4222 97.2179 42.2956 95.8363 43.4926 96.1618L109.22 113.877C110.417 114.203 111.503 116.095 111.644 118.124L122.049 266.289Z" fill="url(#paint8_linear_506_15620)"/>
<path d="M86.3726 179.595C89.6548 177.278 89.9282 159.452 80.0968 156.331L80.0909 156.31C80.0431 156.3 80.0086 156.299 79.9609 156.289C79.9131 156.28 79.873 156.257 79.8252 156.248L79.831 156.269C70.0728 154.111 72.9009 172.777 76.638 176.99C66.7474 171.727 66.1668 182.576 67.3443 188.488C68.4888 194.24 71.2867 198.079 75.2425 199.724C79.1983 201.368 81.535 196.973 82.2721 194.645C81.6001 199.915 80.2008 203.939 78.4961 206.691L78.6843 207.046C80.6217 206.286 82.9223 207.008 83.6222 207.211L83.6145 207.224C83.6145 207.224 86.2906 207.752 88.7422 209.923L88.8715 209.696C86.6926 205.89 84.5297 200.746 83.0752 194.853C84.1738 197.692 87.2386 203.524 91.1187 203.992C94.9987 204.459 97.3504 202.003 97.7087 196.662C98.0686 191.162 95.9014 179.567 86.3726 179.595Z" fill="url(#paint9_linear_506_15620)"/>
<path d="M75.4018 209.643C75.2928 209.617 75.1819 209.501 75.1012 209.331C75.0031 209.098 74.9831 208.821 75.0743 208.66C76.2687 206.557 77.6873 203.997 78.7292 202.037C77.5363 202.547 76.1471 202.467 74.1753 201.79C70.3063 200.461 66.9775 195.435 65.6839 188.978C64.8822 184.962 64.8219 179.453 66.4793 176.16C67.8573 173.453 70.1212 172.648 73.2483 173.787C71.7025 170.925 70.8417 166.202 71.2414 162.035C71.5333 158.994 72.948 152.074 79.9074 153.67C86.7326 155.845 89.1418 163.644 89.8459 166.896C90.8576 171.51 90.6324 176.024 89.4019 178.159C92.4853 178.688 94.9484 180.777 96.754 184.336C98.9399 188.66 99.6735 194.356 99.4217 198.075C99.0078 204.076 96.2691 207.463 92.4456 206.709C92.1378 206.658 91.8453 206.581 91.5661 206.511C90.0288 206.098 88.7867 205.446 87.6757 204.408C88.6995 206.442 90.0907 209.234 92.167 213.283C92.2861 213.51 92.3057 213.787 92.2202 213.969C92.1347 214.15 91.9686 214.162 91.8173 214.023C88.716 211.093 83.6429 209.576 83.5951 209.566C83.1038 209.464 78.4658 208.584 75.5127 209.635C75.4841 209.655 75.4362 209.645 75.4018 209.643ZM80.0986 199.751C80.1866 199.783 80.2729 199.849 80.342 199.977C80.4821 200.198 80.5271 200.525 80.4206 200.712C79.6852 202.226 77.9567 205.425 76.3802 208.233C79.3422 207.665 83.0645 208.379 83.5291 208.466C83.6037 208.491 87.6041 209.682 90.7975 212.044C88.1718 206.904 86.7748 204.091 85.8277 202.172C85.7029 201.923 85.7061 201.606 85.8108 201.453C85.9231 201.287 86.1142 201.324 86.2753 201.54C87.3724 203.102 88.7733 204.659 91.521 205.405C91.8002 205.475 92.0793 205.544 92.3661 205.601C95.9372 206.3 98.375 203.256 98.7537 197.66C98.9928 194.182 98.3213 188.876 96.2909 184.87C94.4546 181.241 91.7973 179.307 88.4741 179.138C88.3021 179.129 88.1469 178.935 88.064 178.675C88.0022 178.409 88.0434 178.15 88.1654 178.059C89.8208 176.891 90.2834 171.928 89.2002 166.972C88.5311 163.971 86.3106 156.775 79.9806 154.757C73.5184 153.283 72.1945 159.671 71.9287 162.479C71.505 166.968 72.6654 172.286 74.5072 174.377C74.6567 174.551 74.7376 174.845 74.7114 175.078C74.6719 175.304 74.5348 175.421 74.3665 175.343C70.9495 173.686 68.4707 174.244 67.0698 176.992C65.536 180.036 65.5957 185.172 66.3432 188.909C67.542 194.94 70.5254 199.451 74.1304 200.684C77.4715 201.819 78.8774 200.935 79.8814 199.822C79.9404 199.749 80.0106 199.718 80.0986 199.751Z" fill="url(#paint10_linear_506_15620)"/>
<path d="M111.267 236.58C110.529 237.1 110.471 241.071 112.662 241.766L112.697 241.768L112.723 241.783C114.899 242.257 114.264 238.105 113.43 237.171C115.63 238.349 115.765 235.928 115.504 234.61C115.24 233.327 114.63 232.467 113.739 232.102C112.848 231.738 112.334 232.704 112.175 233.234C112.327 232.062 112.644 231.162 113.02 230.561L112.976 230.482C112.547 230.646 112.03 230.494 111.881 230.445C111.881 230.445 111.273 230.33 110.733 229.846L110.703 229.9C111.196 230.747 111.66 231.896 111.998 233.204C111.755 232.57 111.071 231.278 110.215 231.164C109.351 231.063 108.833 231.602 108.756 232.798C108.658 234 109.135 236.592 111.267 236.58Z" fill="url(#paint11_linear_506_15620)"/>
<path d="M113.703 229.888C113.73 229.904 113.757 229.919 113.769 229.961C113.794 230.01 113.79 230.08 113.775 230.106C113.509 230.575 113.189 231.137 112.959 231.574C113.22 231.456 113.544 231.481 113.97 231.634C114.831 231.928 115.571 233.057 115.862 234.48C116.042 235.38 116.053 236.608 115.676 237.333C115.368 237.938 114.862 238.111 114.172 237.861C114.518 238.5 114.704 239.545 114.612 240.485C114.549 241.158 114.24 242.7 112.686 242.349C111.173 241.862 110.638 240.123 110.475 239.411C110.247 238.378 110.299 237.38 110.573 236.898C109.883 236.772 109.328 236.315 108.928 235.521C108.448 234.557 108.28 233.292 108.332 232.453C108.416 231.119 109.029 230.352 109.889 230.521C109.951 230.538 110.033 230.55 110.094 230.567C110.434 230.654 110.716 230.813 110.959 231.04C110.734 230.594 110.415 229.97 109.96 229.056C109.935 229.006 109.931 228.951 109.941 228.903C109.963 228.863 109.998 228.865 110.038 228.888C110.728 229.545 111.856 229.866 111.869 229.874C111.978 229.9 113.016 230.1 113.671 229.852L113.703 229.888ZM112.662 232.096C112.649 232.088 112.622 232.073 112.603 232.045C112.565 231.987 112.568 231.919 112.591 231.879C112.747 231.542 113.137 230.824 113.487 230.208C112.832 230.332 111.998 230.178 111.889 230.151C111.876 230.144 110.979 229.882 110.269 229.355C110.856 230.504 111.162 231.12 111.373 231.559C111.398 231.609 111.408 231.685 111.371 231.718C111.349 231.758 111.301 231.748 111.276 231.699C111.032 231.348 110.72 230.993 110.1 230.836C110.039 230.819 109.978 230.802 109.909 230.799C109.11 230.646 108.571 231.314 108.477 232.572C108.422 233.355 108.574 234.522 109.023 235.415C109.436 236.217 110.02 236.655 110.764 236.687C110.798 236.689 110.844 236.733 110.848 236.788C110.866 236.851 110.856 236.899 110.82 236.931C110.448 237.181 110.348 238.293 110.586 239.403C110.736 240.073 111.224 241.679 112.635 242.126C114.081 242.451 114.369 241.038 114.431 240.399C114.518 239.404 114.27 238.218 113.847 237.747C113.814 237.711 113.797 237.648 113.806 237.6C113.815 237.552 113.852 237.52 113.892 237.542C114.659 237.907 115.203 237.791 115.519 237.173C115.865 236.501 115.843 235.355 115.68 234.519C115.413 233.18 114.749 232.165 113.942 231.902C113.196 231.655 112.889 231.853 112.662 232.096C112.697 232.098 112.676 232.104 112.662 232.096Z" fill="url(#paint12_linear_506_15620)"/>
<path d="M52.2643 127.822C53.0023 127.302 53.0607 123.331 50.8692 122.635L50.8345 122.634L50.808 122.619C48.6323 122.145 49.2678 126.297 50.1015 127.231C47.8934 126.065 47.7664 128.473 48.0279 129.791C48.2778 131.067 48.9008 131.935 49.7922 132.299C50.6702 132.656 51.197 131.697 51.3561 131.168C51.2045 132.339 50.8877 133.24 50.5244 133.849L50.5687 133.927C50.9982 133.763 51.5142 133.915 51.6634 133.964C51.6634 133.964 52.2637 134.092 52.8114 134.563L52.8418 134.509C52.3485 133.662 51.8851 132.513 51.5472 131.205C51.7896 131.839 52.473 133.131 53.3293 133.245C54.1932 133.346 54.7193 132.794 54.8021 131.619C54.86 130.394 54.3832 127.802 52.2643 127.822Z" fill="url(#paint13_linear_506_15620)"/>
<path d="M49.812 134.509C49.7853 134.494 49.7588 134.478 49.7472 134.436C49.7223 134.387 49.7258 134.318 49.741 134.291C50.0073 133.822 50.3268 133.26 50.5568 132.823C50.2953 132.941 49.9857 132.925 49.5458 132.763C48.6852 132.469 47.9371 131.354 47.6543 129.917C47.4742 129.018 47.4632 127.789 47.8262 127.057C48.1342 126.452 48.64 126.279 49.3304 126.529C48.9848 125.89 48.7985 124.845 48.8896 123.905C48.9528 123.232 49.2621 121.689 50.8165 122.041C52.3292 122.528 52.865 124.267 53.0408 124.987C53.269 126.02 53.2161 127.017 52.9422 127.499C53.6323 127.626 54.188 128.083 54.5876 128.877C55.0678 129.84 55.2354 131.105 55.1842 131.944C55.0998 133.277 54.4732 134.038 53.6264 133.876C53.5652 133.859 53.4828 133.848 53.4216 133.831C53.0812 133.744 52.8136 133.591 52.5569 133.357C52.7816 133.803 53.1003 134.428 53.5556 135.342C53.5805 135.391 53.5847 135.447 53.5753 135.494C53.5525 135.535 53.518 135.533 53.4778 135.51C52.7882 134.853 51.6465 134.523 51.6465 134.523C51.5376 134.496 50.4992 134.297 49.8444 134.545C49.8329 134.503 49.812 134.509 49.812 134.509ZM50.8535 132.301C50.8535 132.301 50.8937 132.324 50.9129 132.352C50.9378 132.402 50.9473 132.478 50.9245 132.519C50.7687 132.855 50.3791 133.573 50.0292 134.189C50.6842 134.065 51.5178 134.22 51.6134 134.239C51.6134 134.239 52.5234 134.507 53.2337 135.034C52.6459 133.886 52.3405 133.27 52.1291 132.831C52.1041 132.781 52.0943 132.705 52.1306 132.672C52.1534 132.632 52.2012 132.642 52.2262 132.691C52.4698 133.042 52.7822 133.396 53.4017 133.553C53.4629 133.57 53.524 133.587 53.5928 133.591C54.3919 133.744 54.9386 133.062 55.0251 131.818C55.0804 131.034 54.9281 129.867 54.4786 128.974C54.0657 128.173 53.4816 127.735 52.7382 127.703C52.7038 127.701 52.6581 127.657 52.6541 127.601C52.6367 127.538 52.6462 127.491 52.6749 127.471C53.0544 127.209 53.1469 126.11 52.9089 125C52.7581 124.33 52.2702 122.724 50.8589 122.277C49.4135 121.952 49.1251 123.365 49.0637 124.004C48.9766 124.999 49.2245 126.185 49.6346 126.648C49.6672 126.685 49.6844 126.748 49.6884 126.803C49.6789 126.851 49.643 126.883 49.6028 126.861C48.8356 126.496 48.2911 126.612 47.9756 127.23C47.6296 127.901 47.6518 129.048 47.8146 129.885C48.0818 131.223 48.7455 132.238 49.5525 132.501C50.2984 132.748 50.619 132.558 50.8323 132.307L50.8535 132.301Z" fill="url(#paint14_linear_506_15620)"/>
<path d="M51.7043 120.384L51.6667 119.92C51.8807 119.917 52.0415 119.884 52.1407 119.834C52.24 119.784 52.3066 119.698 52.354 119.583C52.3881 119.461 52.4046 119.275 52.3888 119.054C52.3729 118.832 52.3302 118.596 52.2759 118.317C52.2141 118.051 52.1408 117.744 52.0482 117.408L51.6855 116.05L48.5341 115.235L48.4163 116.161C48.3506 116.619 48.319 116.955 48.3197 117.204C48.3069 117.444 48.3228 117.666 48.3405 117.853C48.3892 118.235 48.4841 118.537 48.6451 118.753C48.8062 118.968 49.0106 119.138 49.2938 119.263L49.3448 119.735L46.5762 118.995L46.5177 118.536C46.7451 118.542 46.9396 118.386 47.0725 118.09C47.2131 117.78 47.3205 117.31 47.4163 116.673L49.0191 105.678L50.1566 105.952L53.5352 118.377C53.6857 118.923 53.8092 119.329 53.9113 119.617C54.0133 119.906 54.1321 120.133 54.2606 120.312C54.3891 120.491 54.5542 120.638 54.7609 120.774L54.7985 121.238L51.7043 120.384ZM48.6257 114.419L51.4706 115.149L49.5125 107.96L48.6257 114.419Z" fill="url(#paint15_linear_506_15620)"/>
<path d="M111.894 245.146L111.932 245.611C111.718 245.613 111.558 245.646 111.458 245.696C111.359 245.746 111.279 245.824 111.245 245.947C111.211 246.069 111.194 246.254 111.21 246.476C111.226 246.698 111.269 246.934 111.323 247.213C111.377 247.492 111.458 247.786 111.551 248.122L111.914 249.48L115.065 250.295L115.183 249.37C115.248 248.911 115.287 248.561 115.279 248.326C115.292 248.085 115.276 247.864 115.258 247.677C115.209 247.295 115.115 246.993 114.954 246.778C114.806 246.57 114.588 246.393 114.305 246.267L114.254 245.796L117.023 246.535L117.082 246.994C116.841 246.981 116.667 247.131 116.527 247.44C116.386 247.75 116.278 248.221 116.183 248.857L114.58 259.852L113.443 259.578L110.063 247.154C109.926 246.615 109.79 246.201 109.688 245.913C109.586 245.625 109.466 245.398 109.338 245.218C109.209 245.039 109.045 244.892 108.838 244.757L108.801 244.293L111.894 245.146ZM114.974 251.111L112.128 250.381L114.087 257.57L114.974 251.111Z" fill="url(#paint16_linear_506_15620)"/>
<defs>
<linearGradient id="paint0_linear_506_15620" x1="-19.7349" y1="197.486" x2="-113.308" y2="222.248" gradientUnits="userSpaceOnUse">
<stop stop-color="#CDCCCB"/>
<stop offset="0.9947" stop-color="#B6B4B3"/>
</linearGradient>
<linearGradient id="paint1_linear_506_15620" x1="-20.3507" y1="196.799" x2="-111.993" y2="222.356" gradientUnits="userSpaceOnUse">
<stop stop-color="#F3F5F4"/>
<stop offset="0.7063" stop-color="#E5E5E4"/>
<stop offset="0.9947" stop-color="#D4D2D1"/>
</linearGradient>
<linearGradient id="paint2_linear_506_15620" x1="-3.60181" y1="37.8114" x2="-76.5497" y2="125.206" gradientUnits="userSpaceOnUse">
<stop stop-color="#CDCCCB"/>
<stop offset="0.9947" stop-color="#B6B4B3"/>
</linearGradient>
<linearGradient id="paint3_linear_506_15620" x1="-4.06246" y1="38.3629" x2="-76.0897" y2="124.655" gradientUnits="userSpaceOnUse">
<stop stop-color="#F3F5F4"/>
<stop offset="0.7063" stop-color="#E5E5E4"/>
<stop offset="0.9947" stop-color="#D4D2D1"/>
</linearGradient>
<linearGradient id="paint4_linear_506_15620" x1="28.8549" y1="74.9848" x2="33.0575" y2="139.06" gradientUnits="userSpaceOnUse">
<stop stop-color="#2C2C28"/>
<stop offset="0.0245" stop-color="#2B2B27"/>
<stop offset="0.63" stop-color="#111511"/>
<stop offset="0.9947" stop-color="#080D09"/>
</linearGradient>
<linearGradient id="paint5_linear_506_15620" x1="25.1259" y1="71.4356" x2="-26.6812" y2="133.874" gradientUnits="userSpaceOnUse">
<stop stop-color="#2C2C28"/>
<stop offset="0.0245" stop-color="#2B2B27"/>
<stop offset="0.63" stop-color="#111511"/>
<stop offset="0.9947" stop-color="#080D09"/>
</linearGradient>
<linearGradient id="paint6_linear_506_15620" x1="18.6851" y1="72.2371" x2="21.9933" y2="122.678" gradientUnits="userSpaceOnUse">
<stop stop-color="#2C2C28"/>
<stop offset="0.0245" stop-color="#2B2B27"/>
<stop offset="0.63" stop-color="#111511"/>
<stop offset="0.9947" stop-color="#080D09"/>
</linearGradient>
<linearGradient id="paint7_linear_506_15620" x1="46.269" y1="173.186" x2="115.668" y2="168.31" gradientUnits="userSpaceOnUse">
<stop stop-color="#CDCCCB"/>
<stop offset="0.9947" stop-color="#B6B4B3"/>
</linearGradient>
<linearGradient id="paint8_linear_506_15620" x1="46.7723" y1="173.32" x2="115.188" y2="168.514" gradientUnits="userSpaceOnUse">
<stop stop-color="#F3F5F4"/>
<stop offset="0.7063" stop-color="#E5E5E4"/>
<stop offset="0.9947" stop-color="#D4D2D1"/>
</linearGradient>
<linearGradient id="paint9_linear_506_15620" x1="47.1356" y1="173.923" x2="114.368" y2="168.583" gradientUnits="userSpaceOnUse">
<stop stop-color="#2C2C28"/>
<stop offset="0.0245" stop-color="#2B2B27"/>
<stop offset="0.63" stop-color="#111511"/>
<stop offset="0.9947" stop-color="#080D09"/>
</linearGradient>
<linearGradient id="paint10_linear_506_15620" x1="47.1689" y1="174.329" x2="114.401" y2="168.989" gradientUnits="userSpaceOnUse">
<stop stop-color="#2C2C28"/>
<stop offset="0.0245" stop-color="#2B2B27"/>
<stop offset="0.63" stop-color="#111511"/>
<stop offset="0.9947" stop-color="#080D09"/>
</linearGradient>
<linearGradient id="paint11_linear_506_15620" x1="50.8633" y1="220.818" x2="118.096" y2="215.478" gradientUnits="userSpaceOnUse">
<stop stop-color="#2C2C28"/>
<stop offset="0.0245" stop-color="#2B2B27"/>
<stop offset="0.63" stop-color="#111511"/>
<stop offset="0.9947" stop-color="#080D09"/>
</linearGradient>
<linearGradient id="paint12_linear_506_15620" x1="50.8572" y1="220.731" x2="118.088" y2="215.391" gradientUnits="userSpaceOnUse">
<stop stop-color="#2C2C28"/>
<stop offset="0.0245" stop-color="#2B2B27"/>
<stop offset="0.63" stop-color="#111511"/>
<stop offset="0.9947" stop-color="#080D09"/>
</linearGradient>
<linearGradient id="paint13_linear_506_15620" x1="43.3701" y1="126.512" x2="110.609" y2="121.173" gradientUnits="userSpaceOnUse">
<stop stop-color="#2C2C28"/>
<stop offset="0.0245" stop-color="#2B2B27"/>
<stop offset="0.63" stop-color="#111511"/>
<stop offset="0.9947" stop-color="#080D09"/>
</linearGradient>
<linearGradient id="paint14_linear_506_15620" x1="43.3772" y1="126.605" x2="110.612" y2="121.264" gradientUnits="userSpaceOnUse">
<stop stop-color="#2C2C28"/>
<stop offset="0.0245" stop-color="#2B2B27"/>
<stop offset="0.63" stop-color="#111511"/>
<stop offset="0.9947" stop-color="#080D09"/>
</linearGradient>
<linearGradient id="paint15_linear_506_15620" x1="42.14" y1="111.04" x2="109.372" y2="105.698" gradientUnits="userSpaceOnUse">
<stop stop-color="#2C2C28"/>
<stop offset="0.0245" stop-color="#2B2B27"/>
<stop offset="0.63" stop-color="#111511"/>
<stop offset="0.9947" stop-color="#080D09"/>
</linearGradient>
<linearGradient id="paint16_linear_506_15620" x1="52.1801" y1="237.426" x2="119.412" y2="232.085" gradientUnits="userSpaceOnUse">
<stop stop-color="#2C2C28"/>
<stop offset="0.0245" stop-color="#2B2B27"/>
<stop offset="0.63" stop-color="#111511"/>
<stop offset="0.9947" stop-color="#080D09"/>
</linearGradient>
</defs>
</svg>
