<svg width="282" height="408" viewBox="0 0 282 408" fill="none" xmlns="http://www.w3.org/2000/svg">
<path d="M134.595 282.316C135.089 284.191 136.822 285.476 138.464 285.204L228.364 270.055C230.007 269.783 230.927 268.038 230.433 266.163L194.095 128.816C193.601 126.941 191.869 125.656 190.226 125.928L100.326 141.077C98.6831 141.349 97.7628 143.094 98.257 144.969L134.595 282.316Z" fill="url(#paint0_linear_506_15537)"/>
<path d="M135.101 281.58C135.59 283.434 137.301 284.725 138.93 284.445L227.557 269.511C229.178 269.245 230.091 267.514 229.603 265.66L193.593 129.545C193.105 127.691 191.393 126.4 189.777 126.687L101.151 141.62C99.5294 141.886 98.6173 143.618 99.1057 145.472L135.101 281.58Z" fill="url(#paint1_linear_506_15537)"/>
<path d="M148.042 184.798C155.66 183.986 160.912 192.301 160.912 192.301L160.91 192.336C160.91 192.336 161.499 183.033 168.889 181.312C176.279 179.592 184.169 186.411 184.779 194.446C185.389 202.481 178.725 210.691 174.958 216.169C171.178 221.64 170.107 227.02 170.107 227.02L170.102 226.999C170.102 226.999 166.39 222.429 160.161 218.643C153.931 214.857 143.687 209.5 140.174 201.96C136.661 194.42 140.424 185.609 148.042 184.798Z" fill="url(#paint2_linear_506_15537)"/>
<path d="M171.018 230.812C170.844 230.838 170.655 230.765 170.525 230.62C170.479 230.577 166.316 225.803 159.607 221.551L157.638 220.308C149.567 215.211 139.519 208.884 137.259 201.914C135.764 197.31 136.11 192.209 138.182 188.248C140.014 184.772 142.943 182.608 146.531 182.219C153.249 181.463 157.788 185.511 159.548 187.467C160.176 185.113 162.256 179.952 168.798 178.477C172.262 177.681 176.071 178.71 179.494 181.292C183.402 184.237 186.3 188.806 187.273 193.487C188.731 200.621 183.045 209.261 178.02 216.86L176.955 218.487C172.985 224.542 171.411 230.433 171.402 230.481C171.316 230.663 171.192 230.787 171.018 230.812ZM169.13 179.516C161.972 181.138 160.555 187.472 160.344 188.716C160.306 188.908 160.167 189.059 159.986 189.098C159.791 189.129 159.595 189.036 159.459 188.87C158.633 187.798 154.121 182.455 146.757 183.286C143.494 183.666 140.762 185.639 139.081 188.848C137.125 192.573 136.796 197.364 138.21 201.675C140.335 208.196 150.169 214.401 158.073 219.386L160.056 220.636C165.482 224.09 169.226 227.793 170.63 229.281C171.218 227.436 172.891 222.681 176.08 217.813L177.153 216.173C181.825 209.101 187.644 200.288 186.268 193.571C185.37 189.164 182.643 184.887 178.967 182.126C175.969 179.857 172.666 178.903 169.653 179.406C169.471 179.444 169.298 179.469 169.13 179.516Z" fill="url(#paint3_linear_506_15537)"/>
<path d="M186.308 152.979C187.932 152.803 189.052 154.573 189.052 154.573C189.052 154.573 189.184 152.593 190.756 152.228C192.328 151.862 194.003 153.31 194.134 155.014C194.265 156.718 192.848 158.464 192.041 159.636C191.234 160.807 191.007 161.954 191.007 161.954C191.007 161.954 190.21 160.988 188.901 160.174C187.571 159.365 185.403 158.223 184.645 156.623C183.875 155.017 184.671 153.148 186.308 152.979Z" fill="url(#paint4_linear_506_15537)"/>
<path d="M191.187 162.762C191.145 162.773 191.105 162.751 191.086 162.722C191.086 162.722 190.195 161.702 188.759 160.798L188.346 160.528C186.623 159.443 184.487 158.089 184.013 156.615C183.699 155.639 183.771 154.546 184.216 153.701C184.6 152.962 185.231 152.505 185.987 152.421C187.424 152.263 188.385 153.128 188.757 153.534C188.888 153.023 189.332 151.929 190.728 151.623C191.461 151.455 192.278 151.671 193.007 152.227C193.836 152.857 194.454 153.828 194.663 154.832C194.969 156.352 193.768 158.186 192.689 159.806L192.457 160.152C191.616 161.446 191.273 162.704 191.273 162.704C191.258 162.731 191.221 162.763 191.187 162.762ZM190.791 151.854C189.269 152.195 188.963 153.544 188.914 153.818C188.905 153.865 188.877 153.885 188.835 153.896C188.792 153.908 188.752 153.885 188.72 153.849C188.545 153.626 187.585 152.478 186.009 152.664C185.308 152.744 184.734 153.162 184.38 153.847C183.966 154.639 183.898 155.664 184.195 156.576C184.645 157.966 186.735 159.277 188.418 160.338L188.839 160.595C189.993 161.339 190.794 162.113 191.087 162.439C191.205 162.045 191.569 161.03 192.244 159.996L192.476 159.649C193.473 158.143 194.711 156.277 194.428 154.841C194.236 153.899 193.649 152.999 192.873 152.399C192.244 151.917 191.53 151.707 190.896 151.825C190.854 151.837 190.82 151.835 190.791 151.854Z" fill="url(#paint5_linear_506_15537)"/>
<path d="M182.121 149.494L182.013 149.061C182.267 148.957 182.454 148.815 182.58 148.656C182.706 148.497 182.793 148.281 182.834 148.021C182.875 147.761 182.917 147.377 182.942 146.895L183.543 135.544L185.086 135.322L191.172 145.475C191.513 146.059 191.849 146.497 192.151 146.775C192.446 147.067 192.778 147.202 193.116 147.199L193.189 147.631L189.465 148.262L189.37 147.836C189.735 147.724 189.985 147.564 190.126 147.379C190.274 147.18 190.302 146.912 190.238 146.557C190.2 146.376 190.134 146.179 190.05 145.954C189.965 145.728 189.788 145.416 189.535 144.988L189.042 144.141L184.79 144.827L184.725 146.065C184.708 146.375 184.694 146.65 184.708 146.906C184.716 147.141 184.745 147.37 184.79 147.573C184.848 147.783 184.915 147.945 185.026 148.061C185.124 148.17 185.271 148.254 185.42 148.303C185.59 148.346 185.824 148.372 186.133 148.389L186.228 148.815L182.121 149.494ZM185.149 137.395L184.794 143.979L188.634 143.361L185.149 137.395Z" fill="url(#paint6_linear_506_15537)"/>
<path d="M142.409 258.168C140.785 258.345 139.665 256.574 139.665 256.574C139.665 256.574 139.533 258.554 137.961 258.92C136.39 259.285 134.714 257.837 134.583 256.133C134.453 254.429 135.87 252.683 136.677 251.511C137.484 250.34 137.702 249.206 137.702 249.206C137.702 249.206 138.5 250.173 139.809 250.987C141.139 251.795 143.315 252.925 144.064 254.537C144.829 256.123 144.033 257.992 142.409 258.168Z" fill="url(#paint7_linear_506_15537)"/>
<path d="M137.518 248.375C137.553 248.376 137.601 248.386 137.62 248.415C137.62 248.415 138.511 249.435 139.939 250.352L140.352 250.622C142.075 251.706 144.211 253.061 144.685 254.535C144.999 255.511 144.927 256.604 144.49 257.436C144.106 258.175 143.475 258.631 142.718 258.715C141.282 258.874 140.32 258.009 139.949 257.603C139.826 258.1 139.374 259.207 137.978 259.513C137.245 259.681 136.428 259.466 135.699 258.91C134.87 258.28 134.252 257.309 134.043 256.304C133.737 254.784 134.938 252.95 136.017 251.331L136.249 250.984C137.09 249.69 137.433 248.432 137.433 248.432C137.448 248.405 137.484 248.373 137.518 248.375ZM137.914 259.282C139.436 258.942 139.742 257.592 139.791 257.319C139.801 257.271 139.829 257.252 139.871 257.24C139.913 257.228 139.954 257.251 139.986 257.288C140.161 257.511 141.121 258.658 142.697 258.473C143.398 258.392 143.972 257.974 144.326 257.289C144.74 256.497 144.808 255.473 144.511 254.56C144.06 253.17 141.97 251.859 140.288 250.798L139.874 250.528C138.712 249.797 137.92 249.01 137.627 248.684C137.509 249.078 137.145 250.094 136.469 251.127L136.237 251.473C135.24 252.98 134.003 254.846 134.299 256.29C134.491 257.232 135.078 258.132 135.853 258.731C136.483 259.213 137.196 259.424 137.83 259.305C137.83 259.305 137.886 259.301 137.914 259.282Z" fill="url(#paint8_linear_506_15537)"/>
<path d="M146.587 261.637L146.695 262.07C146.441 262.174 146.254 262.316 146.128 262.475C146.003 262.634 145.915 262.85 145.874 263.11C145.832 263.37 145.791 263.754 145.758 264.249L145.158 275.601L143.615 275.822L137.529 265.67C137.187 265.086 136.852 264.648 136.549 264.369C136.254 264.078 135.923 263.943 135.585 263.946L135.511 263.514L139.235 262.883L139.33 263.309C138.965 263.421 138.715 263.58 138.575 263.766C138.426 263.965 138.398 264.232 138.462 264.588C138.501 264.769 138.559 264.979 138.651 265.191C138.743 265.403 138.912 265.729 139.165 266.157L139.659 267.003L143.91 266.318L143.976 265.079C143.992 264.77 144.007 264.495 143.993 264.239C143.984 264.004 143.955 263.774 143.911 263.572C143.853 263.362 143.785 263.2 143.674 263.084C143.577 262.975 143.437 262.878 143.28 262.842C143.11 262.798 142.877 262.772 142.567 262.756L142.473 262.33L146.587 261.637ZM143.56 273.736L143.915 267.153L140.074 267.771L143.56 273.736Z" fill="url(#paint9_linear_506_15537)"/>
<path d="M103.768 81.8925C102.324 81.2849 102.142 80.1712 103.363 79.3941L169.739 36.944C170.96 36.1669 173.092 36.0316 174.536 36.6392L280.082 81.1303C281.526 81.7379 281.709 82.8512 280.488 83.6283L214.111 126.079C212.904 126.863 210.758 126.991 209.314 126.384L103.768 81.8925Z" fill="url(#paint10_linear_506_15537)"/>
<path d="M104.741 81.771C103.31 81.171 103.128 80.0574 104.32 79.2995L169.754 37.4477C170.947 36.6898 173.078 36.5545 174.509 37.1545L279.118 81.2371C280.548 81.8371 280.731 82.9509 279.539 83.7088L214.104 125.56C212.912 126.318 210.78 126.454 209.363 125.861L104.741 81.771Z" fill="url(#paint11_linear_506_15537)"/>
<path d="M257.074 81.2785L257.404 81.4132C257.231 81.5627 257.121 81.6947 257.067 81.7885C257.014 81.8823 257.003 81.9645 257.054 82.0293C257.099 82.1075 257.206 82.1684 257.375 82.2462C257.537 82.3031 257.713 82.368 257.952 82.4151C258.17 82.468 258.43 82.5091 258.738 82.5598L259.913 82.7668L263.02 80.7582L262.524 80.3526C262.287 80.1468 262.088 79.9982 261.94 79.9145C261.793 79.8308 261.646 79.7471 261.497 79.6978C261.22 79.5934 260.938 79.5581 260.667 79.5989C260.403 79.6264 260.115 79.7283 259.797 79.8839L259.458 79.7624L262.214 77.9973L262.553 78.1188C262.351 78.2875 262.3 78.4707 262.392 78.6825C262.484 78.8944 262.699 79.1406 263.029 79.4339L268.848 84.4398L267.74 85.1745L256.911 83.3119C256.446 83.2252 256.07 83.171 255.795 83.1564C255.527 83.1285 255.279 83.1289 255.063 83.1657C254.847 83.2026 254.616 83.2663 254.362 83.3702L254.031 83.2356L257.074 81.2785ZM263.478 81.1066L260.678 82.9176L266.961 83.9882L263.478 81.1066Z" fill="url(#paint12_linear_506_15537)"/>
<path d="M126.804 81.7265L126.473 81.5921C126.647 81.4426 126.757 81.3102 126.811 81.2165C126.864 81.1227 126.875 81.0405 126.824 80.9757C126.779 80.8974 126.672 80.8369 126.504 80.759C126.349 80.6887 126.165 80.6373 125.934 80.5768C125.716 80.5239 125.456 80.4827 125.148 80.4319L123.973 80.2249L120.865 82.2333L121.361 82.6393C121.599 82.8451 121.798 82.9933 121.945 83.077C122.093 83.1606 122.248 83.2312 122.389 83.2939C122.667 83.3983 122.947 83.4338 123.219 83.3929C123.482 83.3655 123.771 83.2634 124.089 83.1078L124.427 83.2291L121.671 84.9942L121.333 84.8729C121.535 84.7042 121.586 84.5208 121.494 84.3089C121.402 84.0971 121.187 83.8513 120.85 83.5713L115.03 78.5651L116.138 77.8304L126.967 79.6931C127.439 79.7663 127.808 79.8342 128.084 79.8488C128.351 79.8767 128.599 79.8761 128.815 79.8392C129.031 79.8024 129.262 79.7389 129.516 79.635L129.847 79.7694L126.804 81.7265ZM120.4 81.8984L123.208 80.0739L116.924 79.0033L120.4 81.8984Z" fill="url(#paint13_linear_506_15537)"/>
<path d="M173.199 90.1231C179.339 91.9448 185.831 91.1502 192.689 90.2434C199.546 89.3366 210.217 89.2315 210.217 89.2315C210.217 89.2315 208.286 83.7415 208.584 80.0664C208.882 76.3912 209.045 72.9229 204.36 70.1916C199.683 67.4468 191.419 68.21 187.133 70.329C182.86 72.4556 182.768 75.1139 184.327 77.8593C180.619 75.3107 179.333 72.49 178.925 70.4333L178.485 70.3961C176.875 72.7946 174.603 74.1439 174.603 74.1439L174.616 74.1515C174.115 74.5044 172.045 75.9334 168.167 76.9909L168.208 77.1376C172.151 76.9322 177.82 76.9631 183.514 78.3543C178.028 78.1262 173.016 78.7166 169.891 81.3178C166.799 83.9552 167.072 88.3089 173.199 90.1231Z" fill="url(#paint14_linear_506_15537)"/>
<path d="M162.704 78.0316C162.732 78.0124 162.775 78.0005 162.811 77.968C168.776 75.6687 170.803 74.3753 172.425 73.3296C174.046 72.2839 176.074 70.9909 179.19 67.4993C179.286 67.3939 179.511 67.3094 179.738 67.3145C179.965 67.3197 180.14 67.4184 180.169 67.5234C180.58 69.0146 180.976 70.1258 181.404 71.3074C181.554 71.7293 181.704 72.1509 181.86 72.5937C182.621 71.2542 184.048 69.9569 186.079 68.8777C188.578 67.5335 192.244 66.6927 195.897 66.6238C198.618 66.5745 202.601 66.9228 206.059 68.8511C211.694 71.9984 211.356 76.0576 211.037 79.9869C210.725 83.8131 212.683 89.4429 212.905 90.0824C212.928 90.1664 212.882 90.2468 212.789 90.3178L212.71 90.3618C212.603 90.4252 212.449 90.479 212.29 90.4775C211.062 90.4884 200.056 90.6515 192.88 91.5897C185.62 92.551 178.13 93.5415 171.005 91.302C166.75 89.9662 165.326 88.0769 164.873 86.7215C164.255 84.8468 165.116 82.7673 167.208 81.1739C168.962 79.8317 171.27 78.8569 173.219 78.2632C172.252 78.2811 171.349 78.2816 170.451 78.3031C168.144 78.3398 165.97 78.3629 163.082 78.4585C162.847 78.4668 162.657 78.3943 162.594 78.2874C162.536 78.2016 162.589 78.1083 162.704 78.0316ZM182.212 74.2821C182.126 74.3397 181.993 74.3879 181.847 74.394C181.591 74.4081 181.354 74.3264 181.306 74.1928C180.981 73.1752 180.688 72.3181 180.388 71.4744C180.045 70.518 179.72 69.6245 179.392 68.5171C176.62 71.4957 174.67 72.7451 173.207 73.668C171.757 74.5986 169.808 75.8476 164.761 77.8711C166.903 77.8119 168.67 77.7879 170.528 77.7619C172.184 77.746 173.862 77.7245 175.837 77.6772C176.093 77.6632 176.315 77.7716 176.329 77.9034C176.356 78.0428 176.177 78.171 175.919 78.2195C173.768 78.5749 170.334 79.7248 168.048 81.4735C166.114 82.9442 165.317 84.8475 165.9 86.5962C166.324 87.8466 167.632 89.5992 171.588 90.8364C178.375 92.9545 185.67 91.995 192.714 91.0706C199.335 90.2065 209.115 89.9857 211.781 89.9404C211.315 88.5774 209.704 83.5523 209.994 80.0147C210.316 76.0166 210.627 72.2249 205.273 69.2374C202.043 67.4384 198.362 67.1195 195.842 67.1587C192.458 67.2213 189.078 67.9948 186.79 69.2467C186.456 69.4291 186.136 69.6188 185.836 69.803C183.837 71.0771 182.567 72.659 182.346 74.1098C182.328 74.171 182.29 74.238 182.212 74.2821Z" fill="url(#paint15_linear_506_15537)"/>
<path d="M248.096 79.7752C249.359 80.1386 250.706 79.9819 252.124 79.7947C253.541 79.6075 255.749 79.5864 255.749 79.5864C255.749 79.5864 255.347 78.4542 255.408 77.6916C255.469 76.9291 255.5 76.2205 254.529 75.6518C253.559 75.0831 251.853 75.248 250.968 75.6841C250.082 76.1202 250.067 76.678 250.389 77.2331C249.623 76.7097 249.358 76.1163 249.277 75.698L249.195 75.6868C248.866 76.173 248.402 76.4588 248.402 76.4588C248.308 76.5297 247.872 76.8311 247.073 77.0511L247.079 77.0722C247.882 77.0319 249.061 77.0459 250.233 77.3217C249.09 77.2751 248.062 77.4001 247.42 77.9387C246.775 78.5117 246.832 79.4117 248.096 79.7752Z" fill="url(#paint16_linear_506_15537)"/>
<path d="M245.93 77.2865L245.951 77.2807C247.176 76.8074 247.598 76.5332 247.933 76.3164C248.269 76.0996 248.683 75.8386 249.329 75.107C249.344 75.0802 249.4 75.0761 249.442 75.0645C249.49 75.074 249.524 75.0759 249.522 75.1103C249.609 75.4253 249.694 75.6507 249.771 75.8894C249.807 75.981 249.83 76.0647 249.867 76.1563C250.026 75.875 250.316 75.6148 250.742 75.3958C251.253 75.1193 252.008 74.9453 252.76 74.9299C253.32 74.9112 254.144 74.9891 254.854 75.3922C256.014 76.0331 255.941 76.8779 255.884 77.6959C255.821 78.4928 256.229 79.6459 256.277 79.7795C256.277 79.7795 256.275 79.8139 256.247 79.8331L256.226 79.8387C256.198 79.8579 256.177 79.8637 256.142 79.8619C255.894 79.8625 253.622 79.9012 252.136 80.0847C250.642 80.2817 249.093 80.4827 247.613 80.0319C246.737 79.7648 246.434 79.3625 246.346 79.0819C246.215 78.6886 246.403 78.2637 246.834 77.9415C247.2 77.6711 247.673 77.4619 248.079 77.3385C247.879 77.3486 247.686 77.345 247.506 77.3493C247.023 77.3582 246.582 77.3555 245.98 77.3858C245.924 77.3898 245.898 77.3748 245.879 77.3461C245.894 77.3193 245.901 77.3057 245.93 77.2865ZM249.952 76.5059L249.881 76.5365C249.826 76.5405 249.786 76.5178 249.766 76.4892C249.709 76.2791 249.635 76.096 249.568 75.9338C249.503 75.7372 249.429 75.5541 249.366 75.3231C248.788 75.9341 248.388 76.2025 248.089 76.3867C247.789 76.571 247.388 76.8396 246.338 77.2532C246.787 77.2424 247.147 77.2339 247.519 77.2329C247.858 77.2301 248.217 77.2214 248.611 77.2146C248.666 77.2106 248.712 77.2543 248.712 77.2543C248.712 77.2543 248.681 77.3081 248.626 77.3121C248.181 77.3782 247.471 77.6303 247.004 77.985C246.601 78.288 246.449 78.6802 246.561 79.0449C246.644 79.3045 246.922 79.6571 247.729 79.9205C249.127 80.3601 250.642 80.1576 252.093 79.9722C253.455 79.7889 255.479 79.7509 256.031 79.7456C255.942 79.465 255.611 78.4264 255.67 77.6983C255.735 76.8669 255.803 76.091 254.697 75.4806C254.041 75.1078 253.265 75.0392 252.747 75.0463C252.05 75.0577 251.351 75.2278 250.876 75.4718C250.805 75.5025 250.74 75.5544 250.683 75.5927C250.269 75.8537 250.01 76.185 249.967 76.4794L249.952 76.5059Z" fill="url(#paint17_linear_506_15537)"/>
<path d="M135.504 83.0652C134.227 82.6941 132.88 82.8504 131.442 83.0434C130.004 83.2364 127.781 83.2498 127.781 83.2498C127.781 83.2498 128.176 84.3956 128.115 85.1581C128.054 85.9207 128.016 86.6432 129 87.2195C129.97 87.7882 131.702 87.6383 132.595 87.1888C133.489 86.7393 133.497 86.1948 133.182 85.6263C133.961 86.1573 134.226 86.7508 134.308 87.169L134.39 87.1801C134.727 86.6805 135.204 86.4021 135.204 86.4021C135.311 86.3387 135.747 86.0374 136.553 85.8041L136.547 85.7832C135.724 85.8293 134.545 85.8153 133.359 85.5318C134.502 85.5785 135.543 85.4611 136.193 84.909C136.83 84.3494 136.782 83.4363 135.504 83.0652Z" fill="url(#paint18_linear_506_15537)"/>
<path d="M137.69 85.5793C137.669 85.5851 137.682 85.5927 137.69 85.5793C136.423 86.0642 136.001 86.3387 135.666 86.5555C135.33 86.7723 134.908 87.0463 134.249 87.7703C134.234 87.7971 134.178 87.8012 134.136 87.8128C134.089 87.8034 134.054 87.8016 134.043 87.7596C133.956 87.4446 133.871 87.2191 133.781 86.9729C133.744 86.8813 133.721 86.7973 133.684 86.7057C133.525 86.987 133.227 87.2609 132.802 87.4799C132.283 87.7698 131.515 87.9363 130.762 87.9516C130.189 87.9627 129.365 87.8845 128.648 87.4947C127.475 86.8463 127.534 85.9941 127.612 85.1704C127.675 84.3734 127.261 83.1997 127.226 83.0736C127.22 83.0526 127.228 83.0393 127.256 83.0201L127.278 83.0143C127.299 83.0085 127.327 82.9893 127.362 82.9911C127.61 82.9905 129.916 82.9537 131.41 82.7568C132.925 82.554 134.481 82.3394 135.967 82.8112C136.856 83.0859 137.146 83.4809 137.248 83.7691C137.379 84.1624 137.191 84.5868 136.766 84.93C136.399 85.2004 135.926 85.41 135.52 85.5334C135.72 85.5233 135.913 85.5265 136.093 85.5222C136.576 85.5133 137.025 85.5026 137.633 85.4934C137.688 85.4894 137.715 85.5048 137.734 85.5334C137.726 85.5468 137.711 85.5735 137.69 85.5793ZM133.613 86.364C133.634 86.3582 133.663 86.339 133.697 86.3408C133.752 86.3369 133.793 86.3596 133.812 86.3882C133.883 86.6058 133.943 86.7814 134.002 86.957C134.068 87.1536 134.141 87.3371 134.204 87.5682C134.789 86.9437 135.182 86.6882 135.49 86.4906C135.797 86.293 136.203 86.0457 137.247 85.6111C136.798 85.6218 136.425 85.6228 136.045 85.6372C135.707 85.64 135.348 85.6486 134.933 85.6611C134.878 85.6651 134.837 85.6422 134.832 85.6212C134.826 85.6002 134.862 85.5676 134.918 85.5637C135.371 85.4841 136.086 85.2528 136.561 84.8846C136.963 84.5817 137.123 84.1764 137.011 83.8117C136.928 83.5521 136.658 83.1856 135.83 82.928C134.418 82.4808 132.89 82.676 131.431 82.8747C130.048 83.0638 128.012 83.0945 127.452 83.1132C127.554 83.4014 127.885 84.4398 127.819 85.1813C127.754 86.0126 127.691 86.8095 128.81 87.4275C129.48 87.8079 130.243 87.8689 130.782 87.856C131.479 87.8446 132.191 87.6822 132.674 87.4249C132.744 87.3941 132.809 87.3423 132.88 87.3116C133.294 87.0506 133.553 86.7195 133.604 86.4117C133.598 86.3907 133.605 86.3774 133.613 86.364Z" fill="url(#paint19_linear_506_15537)"/>
<path d="M32.1307 198.995C30.2277 198.321 28.7689 198.769 28.8678 200.03L34.4803 268.445C34.5869 269.693 36.2154 271.255 38.1108 271.942L177.741 321.954C179.637 322.641 181.103 322.181 180.996 320.933L175.384 252.517C175.277 251.27 173.649 249.707 171.753 249.02L32.1307 198.995Z" fill="url(#paint20_linear_506_15537)"/>
<path d="M32.8027 199.745C30.9207 199.066 29.4756 199.52 29.5763 200.747L35.1022 268.193C35.2029 269.419 36.8176 270.974 38.6996 271.653L177.078 321.22C178.96 321.899 180.405 321.444 180.304 320.218L174.778 252.772C174.678 251.545 173.063 249.99 171.181 249.311L32.8027 199.745Z" fill="url(#paint21_linear_506_15537)"/>
<path d="M128.528 268.921C128.528 268.921 111.422 269.658 106.036 273.651C95.5027 261.504 81.3777 252.03 81.3777 252.03C81.3777 252.03 94.756 252.399 103.87 247.3C110.258 255.516 128.528 268.921 128.528 268.921Z" fill="url(#paint22_linear_506_15537)"/>
<path d="M77.5015 250.34C77.6601 250.341 92.9566 250.702 103.28 244.908C103.366 244.85 103.517 244.865 103.679 244.922C103.842 244.979 103.988 245.097 104.091 245.227C111.314 254.501 132.157 269.863 132.377 270.006C132.702 270.244 132.719 270.59 132.428 270.602C132.228 270.612 112.725 271.512 106.622 276.019C106.536 276.077 106.391 276.083 106.242 276.033C106.08 275.977 105.927 275.872 105.816 275.755C93.8903 262.003 77.7172 251.082 77.5507 250.97C77.3708 250.85 77.2484 250.692 77.2347 250.56C77.242 250.422 77.3353 250.352 77.5015 250.34ZM131.163 269.866C127.34 267.022 110.65 254.39 103.72 245.848C94.701 250.718 82.1999 251.113 78.8524 251.142C82.4111 253.642 95.7339 263.28 106.133 275.103C112.034 271.138 127.592 270.07 131.163 269.866Z" fill="url(#paint23_linear_506_15537)"/>
<path d="M155.709 305.816C155.709 305.816 151.512 306.002 150.198 306.974C147.616 304.002 144.151 301.68 144.151 301.68C144.151 301.68 147.43 301.771 149.662 300.523C151.232 302.531 155.709 305.816 155.709 305.816Z" fill="url(#paint24_linear_506_15537)"/>
<path d="M143.185 301.26C143.22 301.262 146.982 301.343 149.506 299.925C149.506 299.925 149.569 299.907 149.609 299.93C149.65 299.953 149.69 299.976 149.709 300.005C151.479 302.285 156.592 306.039 156.638 306.083C156.711 306.142 156.721 306.219 156.644 306.228C156.589 306.232 151.811 306.442 150.31 307.556C150.31 307.556 150.247 307.573 150.22 307.558C150.193 307.543 150.14 307.513 150.113 307.497C147.194 304.121 143.224 301.442 143.184 301.419C143.143 301.396 143.111 301.36 143.099 301.318C143.122 301.278 143.151 301.258 143.185 301.26ZM156.344 306.04C155.408 305.349 151.322 302.249 149.612 300.144C147.397 301.331 144.341 301.438 143.506 301.443C144.377 302.061 147.647 304.414 150.198 307.316C151.663 306.358 155.478 306.098 156.344 306.04Z" fill="url(#paint25_linear_506_15537)"/>
<path d="M66.11 219.425C66.11 219.425 61.9123 219.61 60.5984 220.583C58.0167 217.611 54.5522 215.289 54.5522 215.289C54.5522 215.289 57.8311 215.38 60.0633 214.132C61.6336 216.139 66.11 219.425 66.11 219.425Z" fill="url(#paint26_linear_506_15537)"/>
<path d="M53.6031 214.87C53.6375 214.872 57.4002 214.954 59.9243 213.535C59.9243 213.535 59.9873 213.517 60.0274 213.54C60.0676 213.563 60.1077 213.586 60.1269 213.614C61.8966 215.895 67.0101 219.649 67.0561 219.693C67.1289 219.752 67.1387 219.828 67.0623 219.838C67.0069 219.842 62.2286 220.052 60.7278 221.166C60.6992 221.185 60.6648 221.183 60.638 221.168C60.5902 221.159 60.5577 221.122 60.5385 221.094C57.6195 217.718 53.6495 215.038 53.6093 215.015C53.5691 214.992 53.5442 214.943 53.525 214.914C53.525 214.914 53.5611 214.881 53.6031 214.87ZM66.7545 219.663C65.8183 218.972 61.7326 215.872 60.0226 213.767C57.8074 214.954 54.7522 215.062 53.9172 215.066C54.7882 215.685 58.0581 218.038 60.609 220.939C62.0605 219.974 65.8757 219.713 66.7545 219.663Z" fill="url(#paint27_linear_506_15537)"/>
<path d="M158.553 302.743L158.993 302.904C159.078 303.129 159.191 303.336 159.34 303.509C159.49 303.683 159.695 303.852 159.934 304.023C160.187 304.202 160.554 304.429 161.05 304.71L172.211 311.261L172.267 312.409L161.594 310.989C160.984 310.908 160.516 310.891 160.203 310.943C159.889 310.996 159.71 311.124 159.684 311.357L159.252 311.182L159.023 308.342L159.455 308.517C159.528 308.824 159.653 309.072 159.835 309.282C160.017 309.492 160.278 309.657 160.635 309.807C160.825 309.879 161.035 309.945 161.253 309.998C161.484 310.059 161.806 310.117 162.264 310.183L163.147 310.312L162.917 307.099L161.706 306.393C161.398 306.218 161.116 306.058 160.889 305.929C160.64 305.806 160.418 305.698 160.215 305.618C159.999 305.531 159.822 305.5 159.711 305.508C159.587 305.509 159.487 305.558 159.434 305.652C159.367 305.738 159.318 305.888 159.28 306.079L158.84 305.917L158.553 302.743ZM170.193 311.32L163.723 307.521L163.935 310.423L170.193 311.32Z" fill="url(#paint28_linear_506_15537)"/>
<path d="M51.3339 218.242L50.8939 218.081C50.8093 217.856 50.6961 217.65 50.56 217.484C50.4105 217.311 50.2052 217.141 49.9659 216.97C49.7132 216.791 49.346 216.564 48.8504 216.283L37.6895 209.732L37.6327 208.584L48.3064 210.004C48.9162 210.084 49.3841 210.102 49.6973 210.05C50.0105 209.997 50.1902 209.869 50.2163 209.636L50.6486 209.81L50.8777 212.651L50.4455 212.476C50.372 212.169 50.2469 211.921 50.0649 211.711C49.8962 211.509 49.6227 211.336 49.265 211.186C49.0756 211.114 48.8651 211.047 48.6471 210.995C48.4157 210.934 48.0813 210.868 47.636 210.81L46.7396 210.673L46.9697 213.886L48.1813 214.592C48.4894 214.767 48.7703 214.926 48.998 215.056C49.2468 215.179 49.4687 215.288 49.6715 215.367C49.8876 215.455 50.0654 215.485 50.1762 215.477C50.3004 215.477 50.3995 215.427 50.4527 215.333C50.5194 215.247 50.5687 215.097 50.6065 214.906L51.0464 215.067L51.3339 218.242ZM39.6805 209.658L46.1509 213.457L45.9384 210.555L39.6805 209.658Z" fill="url(#paint29_linear_506_15537)"/>
<path d="M354.599 267.1C354.733 269.142 353.873 270.531 352.662 270.198L285.983 252.226C284.765 251.906 283.659 249.985 283.526 247.943L273.025 98.4476C272.892 96.4054 273.752 95.016 274.976 95.3567L341.655 113.329C342.873 113.649 343.979 115.57 344.112 117.612L354.599 267.1Z" fill="url(#paint30_linear_506_15537)"/>
<path d="M354.049 266.289C354.198 268.305 353.325 269.687 352.128 269.361L286.401 251.646C285.204 251.321 284.117 249.428 283.976 247.399L273.571 99.2334C273.422 97.2179 274.296 95.8363 275.493 96.1618L341.22 113.877C342.417 114.203 343.503 116.095 343.644 118.124L354.049 266.289Z" fill="url(#paint31_linear_506_15537)"/>
<path d="M318.373 179.595C321.655 177.278 321.928 159.452 312.097 156.331L312.091 156.31C312.043 156.3 312.009 156.299 311.961 156.289C311.913 156.28 311.873 156.257 311.825 156.248L311.831 156.269C302.073 154.111 304.901 172.777 308.638 176.99C298.747 171.727 298.167 182.576 299.344 188.488C300.489 194.24 303.287 198.079 307.243 199.724C311.198 201.368 313.535 196.973 314.272 194.645C313.6 199.915 312.201 203.939 310.496 206.691L310.684 207.046C312.622 206.286 314.922 207.008 315.622 207.211L315.615 207.224C315.615 207.224 318.291 207.752 320.742 209.923L320.871 209.696C318.693 205.89 316.53 200.746 315.075 194.853C316.174 197.692 319.239 203.524 323.119 203.992C326.999 204.459 329.35 202.003 329.709 196.662C330.069 191.162 327.901 179.567 318.373 179.595Z" fill="url(#paint32_linear_506_15537)"/>
<path d="M307.402 209.643C307.293 209.617 307.182 209.501 307.101 209.331C307.003 209.098 306.983 208.821 307.074 208.66C308.269 206.557 309.687 203.997 310.729 202.037C309.536 202.547 308.147 202.467 306.175 201.79C302.306 200.461 298.978 195.435 297.684 188.978C296.882 184.962 296.822 179.453 298.479 176.16C299.857 173.453 302.121 172.648 305.248 173.787C303.703 170.925 302.842 166.202 303.241 162.035C303.533 158.994 304.948 152.074 311.907 153.67C318.733 155.845 321.142 163.644 321.846 166.896C322.858 171.51 322.632 176.024 321.402 178.159C324.485 178.688 326.948 180.777 328.754 184.336C330.94 188.66 331.674 194.356 331.422 198.075C331.008 204.076 328.269 207.463 324.446 206.709C324.138 206.658 323.845 206.581 323.566 206.511C322.029 206.098 320.787 205.446 319.676 204.408C320.7 206.442 322.091 209.234 324.167 213.283C324.286 213.51 324.306 213.787 324.22 213.969C324.135 214.15 323.969 214.162 323.817 214.023C320.716 211.093 315.643 209.576 315.595 209.566C315.104 209.464 310.466 208.584 307.513 209.635C307.484 209.655 307.436 209.645 307.402 209.643ZM312.099 199.751C312.187 199.783 312.273 199.849 312.342 199.977C312.482 200.198 312.527 200.525 312.421 200.712C311.685 202.226 309.957 205.425 308.38 208.233C311.342 207.665 315.065 208.379 315.529 208.466C315.604 208.491 319.604 209.682 322.797 212.044C320.172 206.904 318.775 204.091 317.828 202.172C317.703 201.923 317.706 201.606 317.811 201.453C317.923 201.287 318.114 201.324 318.275 201.54C319.372 203.102 320.773 204.659 323.521 205.405C323.8 205.475 324.079 205.544 324.366 205.601C327.937 206.3 330.375 203.256 330.754 197.66C330.993 194.182 330.321 188.876 328.291 184.87C326.455 181.241 323.797 179.307 320.474 179.138C320.302 179.129 320.147 178.935 320.064 178.675C320.002 178.409 320.043 178.15 320.165 178.059C321.821 176.891 322.283 171.928 321.2 166.972C320.531 163.971 318.311 156.775 311.981 154.757C305.518 153.283 304.194 159.671 303.929 162.479C303.505 166.968 304.665 172.286 306.507 174.377C306.657 174.551 306.738 174.845 306.711 175.078C306.672 175.304 306.535 175.421 306.366 175.343C302.949 173.686 300.471 174.244 299.07 176.992C297.536 180.036 297.596 185.172 298.343 188.909C299.542 194.94 302.525 199.451 306.13 200.684C309.472 201.819 310.877 200.935 311.881 199.822C311.94 199.749 312.011 199.718 312.099 199.751Z" fill="url(#paint33_linear_506_15537)"/>
<path d="M284.264 127.822C285.002 127.302 285.061 123.331 282.869 122.635L282.835 122.634L282.808 122.619C280.632 122.145 281.268 126.297 282.102 127.231C279.893 126.065 279.766 128.473 280.028 129.791C280.278 131.067 280.901 131.935 281.792 132.299C282.67 132.656 283.197 131.697 283.356 131.168C283.204 132.339 282.888 133.24 282.524 133.849L282.569 133.927C282.998 133.763 283.514 133.915 283.663 133.964C283.663 133.964 284.264 134.092 284.811 134.563L284.842 134.509C284.348 133.662 283.885 132.513 283.547 131.205C283.79 131.839 284.473 133.131 285.329 133.245C286.193 133.346 286.719 132.794 286.802 131.619C286.86 130.394 286.383 127.802 284.264 127.822Z" fill="url(#paint34_linear_506_15537)"/>
<path d="M281.812 134.509C281.785 134.494 281.759 134.478 281.747 134.436C281.722 134.387 281.726 134.318 281.741 134.291C282.007 133.822 282.327 133.26 282.557 132.823C282.295 132.941 281.986 132.925 281.546 132.763C280.685 132.469 279.937 131.354 279.654 129.917C279.474 129.018 279.463 127.789 279.826 127.057C280.134 126.452 280.64 126.279 281.33 126.529C280.985 125.89 280.798 124.845 280.89 123.905C280.953 123.232 281.262 121.689 282.816 122.041C284.329 122.528 284.865 124.267 285.041 124.987C285.269 126.02 285.216 127.017 284.942 127.499C285.632 127.626 286.188 128.083 286.588 128.877C287.068 129.84 287.235 131.105 287.184 131.944C287.1 133.277 286.473 134.038 285.626 133.876C285.565 133.859 285.483 133.848 285.422 133.831C285.081 133.744 284.814 133.591 284.557 133.357C284.782 133.803 285.1 134.428 285.556 135.342C285.581 135.391 285.585 135.447 285.575 135.494C285.552 135.535 285.518 135.533 285.478 135.51C284.788 134.853 283.647 134.523 283.647 134.523C283.538 134.496 282.499 134.297 281.844 134.545C281.833 134.503 281.812 134.509 281.812 134.509ZM282.853 132.301C282.853 132.301 282.894 132.324 282.913 132.352C282.938 132.402 282.947 132.478 282.925 132.519C282.769 132.855 282.379 133.573 282.029 134.189C282.684 134.065 283.518 134.22 283.613 134.239C283.613 134.239 284.523 134.507 285.234 135.034C284.646 133.886 284.34 133.27 284.129 132.831C284.104 132.781 284.094 132.705 284.131 132.672C284.153 132.632 284.201 132.642 284.226 132.691C284.47 133.042 284.782 133.396 285.402 133.553C285.463 133.57 285.524 133.587 285.593 133.591C286.392 133.744 286.939 133.062 287.025 131.818C287.08 131.034 286.928 129.867 286.479 128.974C286.066 128.173 285.482 127.735 284.738 127.703C284.704 127.701 284.658 127.657 284.654 127.601C284.637 127.538 284.646 127.491 284.675 127.471C285.054 127.209 285.147 126.11 284.909 125C284.758 124.33 284.27 122.724 282.859 122.277C281.414 121.952 281.125 123.365 281.064 124.004C280.977 124.999 281.225 126.185 281.635 126.648C281.667 126.685 281.684 126.748 281.688 126.803C281.679 126.851 281.643 126.883 281.603 126.861C280.836 126.496 280.291 126.612 279.976 127.23C279.63 127.901 279.652 129.048 279.815 129.885C280.082 131.223 280.745 132.238 281.553 132.501C282.298 132.748 282.619 132.558 282.832 132.307L282.853 132.301Z" fill="url(#paint35_linear_506_15537)"/>
<path d="M283.704 120.384L283.667 119.92C283.881 119.917 284.042 119.884 284.141 119.834C284.24 119.784 284.307 119.698 284.354 119.583C284.388 119.461 284.405 119.275 284.389 119.054C284.373 118.832 284.33 118.596 284.276 118.317C284.214 118.051 284.141 117.744 284.048 117.408L283.685 116.05L280.534 115.235L280.416 116.161C280.351 116.619 280.319 116.955 280.32 117.204C280.307 117.444 280.323 117.666 280.34 117.853C280.389 118.235 280.484 118.537 280.645 118.753C280.806 118.968 281.011 119.138 281.294 119.263L281.345 119.735L278.576 118.995L278.518 118.536C278.745 118.542 278.94 118.386 279.073 118.09C279.213 117.78 279.321 117.31 279.416 116.673L281.019 105.678L282.157 105.952L285.535 118.377C285.686 118.923 285.809 119.329 285.911 119.617C286.013 119.906 286.132 120.133 286.261 120.312C286.389 120.491 286.554 120.638 286.761 120.774L286.798 121.238L283.704 120.384ZM280.626 114.419L283.471 115.149L281.513 107.96L280.626 114.419Z" fill="url(#paint36_linear_506_15537)"/>
<defs>
<linearGradient id="paint0_linear_506_15537" x1="212.265" y1="197.486" x2="118.692" y2="222.248" gradientUnits="userSpaceOnUse">
<stop stop-color="#CDCCCB"/>
<stop offset="0.9947" stop-color="#B6B4B3"/>
</linearGradient>
<linearGradient id="paint1_linear_506_15537" x1="211.649" y1="196.799" x2="120.007" y2="222.356" gradientUnits="userSpaceOnUse">
<stop stop-color="#F3F5F4"/>
<stop offset="0.7063" stop-color="#E5E5E4"/>
<stop offset="0.9947" stop-color="#D4D2D1"/>
</linearGradient>
<linearGradient id="paint2_linear_506_15537" x1="210.036" y1="196.121" x2="117.204" y2="222.513" gradientUnits="userSpaceOnUse">
<stop stop-color="#EF0A07"/>
<stop offset="1" stop-color="#C70000"/>
</linearGradient>
<linearGradient id="paint3_linear_506_15537" x1="210.185" y1="196.64" x2="117.352" y2="223.031" gradientUnits="userSpaceOnUse">
<stop stop-color="#EF0A07"/>
<stop offset="1" stop-color="#C70000"/>
</linearGradient>
<linearGradient id="paint4_linear_506_15537" x1="198.503" y1="155.573" x2="105.675" y2="181.963" gradientUnits="userSpaceOnUse">
<stop stop-color="#EF0A07"/>
<stop offset="1" stop-color="#C70000"/>
</linearGradient>
<linearGradient id="paint5_linear_506_15537" x1="198.538" y1="155.68" x2="105.706" y2="182.069" gradientUnits="userSpaceOnUse">
<stop stop-color="#EF0A07"/>
<stop offset="1" stop-color="#C70000"/>
</linearGradient>
<linearGradient id="paint6_linear_506_15537" x1="194.211" y1="140.458" x2="101.382" y2="166.85" gradientUnits="userSpaceOnUse">
<stop stop-color="#EF0A07"/>
<stop offset="1" stop-color="#C70000"/>
</linearGradient>
<linearGradient id="paint7_linear_506_15537" x1="221.927" y1="237.975" x2="129.099" y2="264.364" gradientUnits="userSpaceOnUse">
<stop stop-color="#EF0A07"/>
<stop offset="1" stop-color="#C70000"/>
</linearGradient>
<linearGradient id="paint8_linear_506_15537" x1="221.899" y1="237.864" x2="129.071" y2="264.256" gradientUnits="userSpaceOnUse">
<stop stop-color="#EF0A07"/>
<stop offset="1" stop-color="#C70000"/>
</linearGradient>
<linearGradient id="paint9_linear_506_15537" x1="226.227" y1="253.081" x2="133.398" y2="279.475" gradientUnits="userSpaceOnUse">
<stop stop-color="#EF0A07"/>
<stop offset="1" stop-color="#C70000"/>
</linearGradient>
<linearGradient id="paint10_linear_506_15537" x1="228.398" y1="37.8114" x2="155.45" y2="125.206" gradientUnits="userSpaceOnUse">
<stop stop-color="#CDCCCB"/>
<stop offset="0.9947" stop-color="#B6B4B3"/>
</linearGradient>
<linearGradient id="paint11_linear_506_15537" x1="227.938" y1="38.3629" x2="155.91" y2="124.655" gradientUnits="userSpaceOnUse">
<stop stop-color="#F3F5F4"/>
<stop offset="0.7063" stop-color="#E5E5E4"/>
<stop offset="0.9947" stop-color="#D4D2D1"/>
</linearGradient>
<linearGradient id="paint12_linear_506_15537" x1="260.855" y1="74.9848" x2="265.058" y2="139.06" gradientUnits="userSpaceOnUse">
<stop stop-color="#2C2C28"/>
<stop offset="0.0245" stop-color="#2B2B27"/>
<stop offset="0.63" stop-color="#111511"/>
<stop offset="0.9947" stop-color="#080D09"/>
</linearGradient>
<linearGradient id="paint13_linear_506_15537" x1="118.883" y1="24.8791" x2="123.085" y2="88.954" gradientUnits="userSpaceOnUse">
<stop stop-color="#2C2C28"/>
<stop offset="0.0245" stop-color="#2B2B27"/>
<stop offset="0.63" stop-color="#111511"/>
<stop offset="0.9947" stop-color="#080D09"/>
</linearGradient>
<linearGradient id="paint14_linear_506_15537" x1="215.771" y1="51.1165" x2="163.964" y2="113.557" gradientUnits="userSpaceOnUse">
<stop stop-color="#2C2C28"/>
<stop offset="0.0245" stop-color="#2B2B27"/>
<stop offset="0.63" stop-color="#111511"/>
<stop offset="0.9947" stop-color="#080D09"/>
</linearGradient>
<linearGradient id="paint15_linear_506_15537" x1="185.823" y1="54.7229" x2="189.13" y2="105.169" gradientUnits="userSpaceOnUse">
<stop stop-color="#2C2C28"/>
<stop offset="0.0245" stop-color="#2B2B27"/>
<stop offset="0.63" stop-color="#111511"/>
<stop offset="0.9947" stop-color="#080D09"/>
</linearGradient>
<linearGradient id="paint16_linear_506_15537" x1="257.126" y1="71.4356" x2="205.319" y2="133.874" gradientUnits="userSpaceOnUse">
<stop stop-color="#2C2C28"/>
<stop offset="0.0245" stop-color="#2B2B27"/>
<stop offset="0.63" stop-color="#111511"/>
<stop offset="0.9947" stop-color="#080D09"/>
</linearGradient>
<linearGradient id="paint17_linear_506_15537" x1="250.685" y1="72.2371" x2="253.993" y2="122.678" gradientUnits="userSpaceOnUse">
<stop stop-color="#2C2C28"/>
<stop offset="0.0245" stop-color="#2B2B27"/>
<stop offset="0.63" stop-color="#111511"/>
<stop offset="0.9947" stop-color="#080D09"/>
</linearGradient>
<linearGradient id="paint18_linear_506_15537" x1="177.482" y1="29.8986" x2="125.673" y2="92.3376" gradientUnits="userSpaceOnUse">
<stop stop-color="#2C2C28"/>
<stop offset="0.0245" stop-color="#2B2B27"/>
<stop offset="0.63" stop-color="#111511"/>
<stop offset="0.9947" stop-color="#080D09"/>
</linearGradient>
<linearGradient id="paint19_linear_506_15537" x1="129.624" y1="40.9231" x2="132.93" y2="91.3639" gradientUnits="userSpaceOnUse">
<stop stop-color="#2C2C28"/>
<stop offset="0.0245" stop-color="#2B2B27"/>
<stop offset="0.63" stop-color="#111511"/>
<stop offset="0.9947" stop-color="#080D09"/>
</linearGradient>
<linearGradient id="paint20_linear_506_15537" x1="107.925" y1="296.943" x2="130.399" y2="234.194" gradientUnits="userSpaceOnUse">
<stop stop-color="#CDCCCB"/>
<stop offset="0.9947" stop-color="#B6B4B3"/>
</linearGradient>
<linearGradient id="paint21_linear_506_15537" x1="107.885" y1="296.423" x2="130.04" y2="234.565" gradientUnits="userSpaceOnUse">
<stop stop-color="#F3F5F4"/>
<stop offset="0.7063" stop-color="#E5E5E4"/>
<stop offset="0.9947" stop-color="#D4D2D1"/>
</linearGradient>
<linearGradient id="paint22_linear_506_15537" x1="107.984" y1="294.932" x2="129.765" y2="233.605" gradientUnits="userSpaceOnUse">
<stop stop-color="#EF0A07"/>
<stop offset="1" stop-color="#C70000"/>
</linearGradient>
<linearGradient id="paint23_linear_506_15537" x1="119.614" y1="236.949" x2="89.2522" y2="285.631" gradientUnits="userSpaceOnUse">
<stop stop-color="#EF0A07"/>
<stop offset="1" stop-color="#C70000"/>
</linearGradient>
<linearGradient id="paint24_linear_506_15537" x1="150.477" y1="310.017" x2="172.258" y2="248.69" gradientUnits="userSpaceOnUse">
<stop stop-color="#EF0A07"/>
<stop offset="1" stop-color="#C70000"/>
</linearGradient>
<linearGradient id="paint25_linear_506_15537" x1="152.591" y1="299.463" x2="122.226" y2="348.147" gradientUnits="userSpaceOnUse">
<stop stop-color="#EF0A07"/>
<stop offset="1" stop-color="#C70000"/>
</linearGradient>
<linearGradient id="paint26_linear_506_15537" x1="65.853" y1="279.966" x2="87.6345" y2="218.639" gradientUnits="userSpaceOnUse">
<stop stop-color="#EF0A07"/>
<stop offset="1" stop-color="#C70000"/>
</linearGradient>
<linearGradient id="paint27_linear_506_15537" x1="86.9938" y1="174.611" x2="56.6311" y2="223.294" gradientUnits="userSpaceOnUse">
<stop stop-color="#EF0A07"/>
<stop offset="1" stop-color="#C70000"/>
</linearGradient>
<linearGradient id="paint28_linear_506_15537" x1="166.574" y1="305.702" x2="135.929" y2="354.837" gradientUnits="userSpaceOnUse">
<stop stop-color="#EF0A07"/>
<stop offset="1" stop-color="#C70000"/>
</linearGradient>
<linearGradient id="paint29_linear_506_15537" x1="72.9176" y1="167.803" x2="42.2702" y2="216.941" gradientUnits="userSpaceOnUse">
<stop stop-color="#EF0A07"/>
<stop offset="1" stop-color="#C70000"/>
</linearGradient>
<linearGradient id="paint30_linear_506_15537" x1="278.269" y1="173.186" x2="347.668" y2="168.31" gradientUnits="userSpaceOnUse">
<stop stop-color="#CDCCCB"/>
<stop offset="0.9947" stop-color="#B6B4B3"/>
</linearGradient>
<linearGradient id="paint31_linear_506_15537" x1="278.772" y1="173.32" x2="347.188" y2="168.514" gradientUnits="userSpaceOnUse">
<stop stop-color="#F3F5F4"/>
<stop offset="0.7063" stop-color="#E5E5E4"/>
<stop offset="0.9947" stop-color="#D4D2D1"/>
</linearGradient>
<linearGradient id="paint32_linear_506_15537" x1="279.136" y1="173.923" x2="346.368" y2="168.583" gradientUnits="userSpaceOnUse">
<stop stop-color="#2C2C28"/>
<stop offset="0.0245" stop-color="#2B2B27"/>
<stop offset="0.63" stop-color="#111511"/>
<stop offset="0.9947" stop-color="#080D09"/>
</linearGradient>
<linearGradient id="paint33_linear_506_15537" x1="279.169" y1="174.329" x2="346.401" y2="168.989" gradientUnits="userSpaceOnUse">
<stop stop-color="#2C2C28"/>
<stop offset="0.0245" stop-color="#2B2B27"/>
<stop offset="0.63" stop-color="#111511"/>
<stop offset="0.9947" stop-color="#080D09"/>
</linearGradient>
<linearGradient id="paint34_linear_506_15537" x1="275.37" y1="126.512" x2="342.609" y2="121.173" gradientUnits="userSpaceOnUse">
<stop stop-color="#2C2C28"/>
<stop offset="0.0245" stop-color="#2B2B27"/>
<stop offset="0.63" stop-color="#111511"/>
<stop offset="0.9947" stop-color="#080D09"/>
</linearGradient>
<linearGradient id="paint35_linear_506_15537" x1="275.377" y1="126.605" x2="342.612" y2="121.264" gradientUnits="userSpaceOnUse">
<stop stop-color="#2C2C28"/>
<stop offset="0.0245" stop-color="#2B2B27"/>
<stop offset="0.63" stop-color="#111511"/>
<stop offset="0.9947" stop-color="#080D09"/>
</linearGradient>
<linearGradient id="paint36_linear_506_15537" x1="274.14" y1="111.04" x2="341.372" y2="105.698" gradientUnits="userSpaceOnUse">
<stop stop-color="#2C2C28"/>
<stop offset="0.0245" stop-color="#2B2B27"/>
<stop offset="0.63" stop-color="#111511"/>
<stop offset="0.9947" stop-color="#080D09"/>
</linearGradient>
</defs>
</svg>
